<?xml version="1.0" encoding="UTF-8" standalone="no"?>
<svg
   xmlns:dc="http://purl.org/dc/elements/1.1/"
   xmlns:cc="http://creativecommons.org/ns#"
   xmlns:rdf="http://www.w3.org/1999/02/22-rdf-syntax-ns#"
   xmlns:svg="http://www.w3.org/2000/svg"
   xmlns="http://www.w3.org/2000/svg"
   xmlns:sodipodi="http://sodipodi.sourceforge.net/DTD/sodipodi-0.dtd"
   xmlns:inkscape="http://www.inkscape.org/namespaces/inkscape"
   version="1.1"
   id="svg4"
   sodipodi:docname="checkbox-checked.svg"
   width="16"
   height="16"
   inkscape:version="0.92.3 (2405546, 2018-03-11)">
  <title
     id="title812">check-square</title>
  <metadata
     id="metadata10">
    <rdf:RDF>
      <cc:Work
         rdf:about="">
        <dc:format>image/svg+xml</dc:format>
        <dc:type
           rdf:resource="http://purl.org/dc/dcmitype/StillImage" />
        <dc:title>check-square</dc:title>
        <dc:creator>
          <cc:Agent>
            <dc:title>Font Awesome</dc:title>
          </cc:Agent>
        </dc:creator>
        <dc:source>https://fontawesome.com/</dc:source>
        <cc:license
           rdf:resource="http://creativecommons.org/licenses/by/4.0/" />
      </cc:Work>
      <cc:License
         rdf:about="http://creativecommons.org/licenses/by/4.0/">
        <cc:permits
           rdf:resource="http://creativecommons.org/ns#Reproduction" />
        <cc:permits
           rdf:resource="http://creativecommons.org/ns#Distribution" />
        <cc:requires
           rdf:resource="http://creativecommons.org/ns#Notice" />
        <cc:requires
           rdf:resource="http://creativecommons.org/ns#Attribution" />
        <cc:permits
           rdf:resource="http://creativecommons.org/ns#DerivativeWorks" />
      </cc:License>
    </rdf:RDF>
  </metadata>
  <defs
     id="defs8" />
  <sodipodi:namedview
     pagecolor="#ffffff"
     bordercolor="#666666"
     borderopacity="1"
     objecttolerance="10"
     gridtolerance="10"
     guidetolerance="10"
     inkscape:pageopacity="0"
     inkscape:pageshadow="2"
     inkscape:window-width="1570"
     inkscape:window-height="1010"
     id="namedview6"
     showgrid="false"
     fit-margin-top="0"
     fit-margin-left="0"
     fit-margin-right="0"
     fit-margin-bottom="0"
     inkscape:snap-global="true"
     inkscape:zoom="6.675088"
     inkscape:cx="54.684111"
     inkscape:cy="-1.8715195"
     inkscape:window-x="4"
     inkscape:window-y="4"
     inkscape:window-maximized="0"
     inkscape:current-layer="svg4" />
  <path
     d="M 14.28571,0 H 1.71429 C 0.7675,0 0,0.7675 0,1.71429 V 14.28571 C 0,15.2325 0.7675,16 1.71429,16 H 14.28571 C 15.2325,16 16,15.2325 16,14.28571 V 1.71429 C 16,0.7675 15.2325,0 14.28571,0 Z m 0,14.28571 H 1.71429 V 1.71429 h 12.57142 z m -1.28085,-8.633 -6.1639,6.11443 c -0.16803,0.16668 -0.43939,0.16561 -0.60607,-0.002 L 2.99271,8.49672 C 2.82604,8.32868 2.82711,8.05732 2.99471,7.89061 L 3.8061,7.08575 C 3.97414,6.91907 4.24549,6.92014 4.41217,7.08775 L 6.5476,9.2405 11.59589,4.23278 c 0.16803,-0.16668 0.43939,-0.16561 0.60607,0.002 l 0.80486,0.81136 c 0.16667,0.16807 0.1656,0.43943 -0.002,0.6061 z"
     id="path2"
     inkscape:connector-curvature="0"
     style="stroke-width:0.03571429" />
</svg>
