<?xml version="1.0" encoding="UTF-8" standalone="no"?>
<!-- Created with Inkscape (http://www.inkscape.org/) -->

<svg
   xmlns:dc="http://purl.org/dc/elements/1.1/"
   xmlns:cc="http://creativecommons.org/ns#"
   xmlns:rdf="http://www.w3.org/1999/02/22-rdf-syntax-ns#"
   xmlns:svg="http://www.w3.org/2000/svg"
   xmlns="http://www.w3.org/2000/svg"
   version="1.1"
   width="64"
   height="64"
   id="svg2">
  <defs
     id="defs4">
    <linearGradient
       id="linearGradient3893">
      <stop
         id="stop3895"
         style="stop-color:#ffffff;stop-opacity:1"
         offset="0" />
      <stop
         id="stop3897"
         style="stop-color:#464646;stop-opacity:1"
         offset="0.5" />
      <stop
         id="stop3899"
         style="stop-color:#ffffff;stop-opacity:1"
         offset="1" />
    </linearGradient>
    <linearGradient
       id="linearGradient3871">
      <stop
         id="stop3873"
         style="stop-color:#929292;stop-opacity:1"
         offset="0" />
      <stop
         id="stop3879"
         style="stop-color:#878787;stop-opacity:1"
         offset="0.5" />
      <stop
         id="stop3875"
         style="stop-color:#1a1a1a;stop-opacity:1"
         offset="1" />
    </linearGradient>
  </defs>
  <metadata
     id="metadata7">
    <rdf:RDF>
      <cc:Work
         rdf:about="">
        <dc:format>image/svg+xml</dc:format>
        <dc:type
           rdf:resource="http://purl.org/dc/dcmitype/StillImage" />
        <dc:title></dc:title>
      </cc:Work>
    </rdf:RDF>
  </metadata>
  <g
     transform="translate(0,-988.36218)"
     id="layer1">
    <g
       transform="matrix(0.0757042,0,0,0.0757042,26.861535,934.66164)"
       id="g10998">
      <path
         d="m 255.19952,1565.0772 c 0,-0.4789 0.65694,-7.3414 1.45987,-15.25 2.93379,-28.8971 4.54038,-70.1575 4.51789,-116.0282 -0.0296,-60.346 -2.18776,-97.5347 -8.40182,-144.7772 -2.49055,-18.9344 -4.90222,-34.8001 -5.35928,-35.2572 -0.45705,-0.457 -10.25528,4.0826 -21.77384,10.0881 -13.81908,7.2049 -32.29713,15.5701 -54.32292,24.5926 -33.03663,13.5329 -33.71994,13.7599 -66.40744,22.0607 l -33.02734,8.3872 -23.03103,1.0492 c -12.66707,0.577 -23.13815,1.1563 -23.26908,1.2872 -0.13092,0.1309 -8.58337,41.4086 -18.78321,91.7282 -12.8869,63.5758 -19.21858,92.8098 -20.75231,95.8153 -3.19846,6.2677 -9.08862,10.8636 -16.90748,13.1921 -7.9573,2.3698 -11.30996,2.4698 -16.88235,0.5038 -6.08641,-2.1474 -9.09667,-4.6055 -13.53902,-11.0556 -6.79671,-9.8685 -7.12697,-7.2178 13.53272,-108.6164 9.88613,-48.5215 17.63094,-88.5385 17.21071,-88.9266 -0.42024,-0.3882 -5.25587,-1.7152 -10.74585,-2.949 -12.48958,-2.8068 -12.98377,-3.0343 -41.77529,-19.2288 l -23.75708,-13.3628 -21.24292,-19.9172 c -17.33455,-16.2528 -22.6912,-21.9455 -29.11459,-30.941 -4.32941,-6.063 -11.44354,-15.8338 -15.80918,-21.7129 -6.10355,-8.2194 -10.80542,-16.4804 -20.34994,-35.7537 -11.60921,-23.4426 -12.81262,-26.4395 -18.59673,-46.3108 -3.40136,-11.6854 -6.68366,-23.5783 -7.29399,-26.4285 -0.61033,-2.8503 -1.35754,-5.4301 -1.66045,-5.733 -0.30292,-0.303 -16.2709,14.8544 -35.48441,33.683 -19.2135,18.8285 -36.97672,35.8737 -39.47381,37.878 -5.91698,4.7494 -16.74876,8.2154 -22.95983,7.3467 -7.9448,-1.1111 -12.60321,-4.0781 -17.77006,-11.318 -4.6335,-6.4925 -4.72994,-6.781 -4.72994,-14.151 0,-6.9279 0.31455,-8.0776 3.97352,-14.5235 2.18543,-3.85 3.98543,-7.2287 4,-7.5083 0.0227,-0.4355 20.2159,-20.3105 122.07274,-120.1491 8.22456,-8.06159 20.12874,-20.04848 26.45374,-26.63753 l 11.5,-11.98009 21.24978,-10.63701 21.24977,-10.637 24.22184,-5.50121 24.22183,-5.50121 28.00488,-1.24211 28.00488,-1.24211 29.52351,3.21919 29.52351,3.21919 29.98591,8.15335 c 16.49225,4.48435 32.46725,9.40692 35.5,10.93904 l 5.51409,2.78569 -0.3488,-5.49817 c -0.3002,-4.73215 0.17292,-6.5538 3.39587,-13.07499 4.66604,-9.44109 9.12895,-13.67954 16.95293,-16.1003 3.3,-1.02103 42,-11.00549 86,-22.18769 l 80,-20.33127 57.5,-36.45278 c 71.18132,-45.1262 73.46487,-46.51396 79,-48.00989 5.26148,-1.42196 15.89994,-0.263 20.78788,2.26465 5.0736,2.62366 9.98334,9.55514 11.80513,16.66627 3.13771,12.24769 0.5671,21.28401 -8.17962,28.75336 -2.1318,1.82047 -30.51144,20.18012 -63.06589,40.79921 l -59.18989,37.48927 -0.3288,29.20079 -0.32881,29.20079 -3.26322,5 c -4.11143,6.29964 -8.68304,9.44104 -17.59369,12.08959 -6.61734,1.96689 -7.38575,2.00114 -13.08661,0.58328 -8.02393,-1.99564 -9.82529,-3.28981 -15.34423,-11.02391 l -4.66927,-6.54339 -0.36505,-18.55279 c -0.20078,-10.20403 -0.54423,-18.73656 -0.76322,-18.96118 -0.41532,-0.42598 -95.66734,23.431 -98.57616,24.68955 -1.39683,0.60436 0.83291,5.19653 14,28.83307 15.18316,27.25564 16.19952,28.78264 33.28046,50.00004 l 17.61901,21.8857 14.23269,27 c 12.16249,23.0728 15.31167,30.0363 21.65073,47.8741 4.07993,11.4807 7.76771,21.4989 8.19508,22.2626 0.98195,1.7546 13.02907,-6.2095 47.50908,-31.4073 50.12474,-36.6308 83.96701,-70.147 102.8259,-101.835 8.06066,-13.544 8.87199,-15.4236 11.88013,-27.5216 2.99368,-12.0398 3.18064,-13.76294 2.56923,-23.67874 -0.50677,-8.21878 -1.50018,-13.35582 -4.29192,-22.19402 -4.32507,-13.6925 -4.62698,-20.87584 -1.18711,-28.24444 4.89214,-10.47953 18.9466,-12.53499 35.57669,-5.20309 2.85919,1.26057 7.13419,4.25273 9.5,6.64925 3.5891,3.63568 4.99747,6.33977 8.50403,16.32779 2.3114,6.58377 4.50765,13.70424 4.88057,15.82327 l 0.67802,3.85278 10.86943,-10.83573 c 5.97819,-5.95965 10.86943,-10.52732 10.86943,-10.15039 0,0.37692 2.14996,-1.46464 4.77769,-4.09236 5.78073,-5.78074 11.32938,-7.54246 20.56892,-6.53074 8.02849,0.87912 12.49686,3.22628 17.33581,9.10621 3.19533,3.88272 66.89863,110.95001 74.89448,125.87651 3.5227,6.5762 5.6315,17.5289 4.4177,22.945 -2.2318,9.9587 -8.4179,16.0283 -19.8866,19.5117 -12.13418,3.6857 -20.99233,0.873 -28.55074,-9.0657 -2.44993,-3.2214 -16.22602,-25.9076 -30.61353,-50.4136 -14.38752,-24.5061 -26.48191,-44.5565 -26.87642,-44.5565 -1.32049,0 -80.55369,81.3027 -94.3388,96.8028 -7.48527,8.4165 -18.24884,19.3904 -23.91904,24.3865 -11.0286,9.7174 -23.44583,20.7634 -30.78921,27.3894 -8.94554,8.0715 -57.86607,43.3641 -74.02026,53.4002 -9.075,5.638 -16.85901,10.5807 -17.2978,10.9838 -0.43879,0.4031 0.35399,5.8353 1.76172,12.0715 1.40774,6.2361 4.56715,27.3421 7.02092,46.9022 8.41566,67.0847 11.02976,142.447 7.52931,217.0636 -1.07078,22.825 -2.48086,47.2375 -3.13352,54.25 l -1.18664,12.75 -27.847,0 c -15.31584,0 -27.84699,-0.3918 -27.84699,-0.8707 z m 30,-3.4254 c 0,-0.1241 1.57531,-13.4935 3.50068,-29.7096 5.57943,-46.9918 6.71663,-64.2172 5.53122,-83.7823 -0.55691,-9.1916 -1.01691,-18.5465 -1.02223,-20.7888 -0.009,-3.9249 -0.11734,-4.061 -2.90018,-3.6525 l -2.89052,0.4242 -0.6568,16.1526 c -0.94518,23.2445 -3.50065,68.3094 -4.60188,81.1525 -0.51875,6.05 -0.94703,18.1033 -0.95174,26.7852 -0.008,15.4765 0.0306,15.7642 1.99145,14.7148 1.1,-0.5887 2,-1.1719 2,-1.2961 z m -198.5,-303.2754 c 26.70493,-6.1254 29.36444,-6.9543 57.5,-17.9198 24.40953,-9.5134 34.76302,-14.2213 60,-27.2834 29.97813,-15.516 30.49463,-15.8355 30.18623,-18.6711 -0.17258,-1.5867 -4.96304,-15.973 -10.64547,-31.9695 l -10.33169,-29.0847 -13.85453,-23.7055 c -13.5973,-23.2654 -14.15161,-24.0331 -29.85454,-41.346 -15.32817,-16.8998 -16.7978,-18.2114 -35,-31.2355 -17.62616,-12.6119 -20.55461,-14.3073 -40.5,-23.4472 -19.50959,-8.9402 -23.72185,-10.4536 -45.5,-16.34757 -22.19397,-6.00646 -25.95653,-6.7204 -50,-9.48746 -25.71903,-2.95988 -26.26073,-2.98034 -50.12746,-1.89302 -23.40665,1.06636 -24.73805,1.24164 -44.56566,5.86699 -19.86999,4.63522 -20.79988,4.96602 -33.44746,11.89826 -12.26438,6.7223 -13.46978,7.6648 -21.05224,16.4607 -7.94354,9.2148 -8.0939,9.4917 -12.16106,22.3921 l -4.11808,13.0619 0.99143,15.5966 c 0.85665,13.4762 1.59685,17.8264 5.44475,31.9995 5.48124,20.1892 6.2615,22.1775 17.77023,45.2847 8.21159,16.4872 10.94047,20.8285 23.99003,38.1644 13.70087,18.2012 15.89067,20.5951 31.49982,34.436 14.32753,12.7045 18.59933,15.8753 29.27552,21.7297 22.70553,12.451 24.30368,13.0822 46.00018,18.1684 l 20.5,4.8056 25,-0.5257 25,-0.5258 28,-6.4226 z m 160.5,-111.2217 c 0,-5.1421 -12.78748,-40.3952 -21.2156,-58.4882 -6.2399,-13.3954 -6.74893,-14.1306 -18.17525,-26.25 -6.46556,-6.8577 -12.08661,-12.4686 -12.49122,-12.4686 -0.40462,0 -1.5476,0.5937 -2.53995,1.3194 -1.66749,1.2193 -1.09134,2.2407 7.5989,13.4715 7.41078,9.5772 12.06721,17.1905 21.97611,35.9306 11.29568,21.363 16.51406,32.0733 21.20826,43.5285 1.35123,3.2975 3.63875,5.1562 3.63875,2.9568 z m 30.03623,-186.45676 c 2.00855,-4.11018 2.01099,-4.16775 0.074,-1.75 -1.86307,2.32544 -3.41673,6 -2.53689,6 0.21233,0 1.32065,-1.9125 2.46293,-4.25 z"
         id="path11020"
         style="fill:#f8f891" />
      <path
         d="m 255.58662,1562.2481 c 1.66454,-10.9087 2.80141,-26.5902 5.13284,-70.8002 1.2523,-23.7468 0.66263,-103.5246 -0.97936,-132.5 -1.96316,-34.6429 -10.43941,-106 -12.59136,-106 -0.42702,0 -9.70278,4.7073 -20.6128,10.4606 -13.38024,7.0559 -30.92121,15.0055 -53.89408,24.425 -33.94272,13.9175 -34.17052,13.9932 -67.5,22.4477 l -33.44234,8.4832 -22.79019,0.9653 c -12.5346,0.5309 -23.01121,1.1863 -23.28136,1.4565 -0.48901,0.489 -0.9802,2.551 -1.96798,8.2617 -0.28541,1.65 -1.44261,7.275 -2.57156,12.5 -2.84704,13.1767 -2.85215,13.2008 -3.38891,16 -0.26366,1.375 -0.71366,3.625 -1,5 -0.28634,1.375 -0.73634,3.625 -1,5 -0.26366,1.375 -0.71366,3.625 -1,5 -0.67001,3.2174 -1.3521,6.735 -2.036,10.5 -0.44296,2.4386 -4.19248,20.4059 -6.05191,29 -0.23799,1.1 -0.64843,3.125 -0.91209,4.5 -0.26366,1.375 -0.71366,3.625 -1,5 -0.28634,1.375 -0.73634,3.625 -1,5 -0.26366,1.375 -0.71366,3.625 -1,5 -0.7035,3.3782 -1.38281,6.8953 -2.02804,10.5 -0.29534,1.65 -1.45919,7.275 -2.58634,12.5 -2.88128,13.3565 -2.85404,13.2278 -3.38562,16 -0.26366,1.375 -0.71366,3.625 -1,5 -0.28634,1.375 -0.73897,3.625 -1.00584,5 -0.88235,4.5462 -1.47096,7.4691 -2.01374,10 -0.29488,1.375 -0.79299,4.3 -1.10691,6.5 -0.93416,6.5468 -5.97124,16.0134 -10.37746,19.5032 -2.29256,1.8157 -6.95186,3.9874 -11.03233,5.1422 -5.9858,1.6939 -7.8425,1.8319 -12.16743,0.9044 -7.71696,-1.655 -12.28422,-4.7337 -17.01491,-11.4693 -6.88443,-9.8022 -7.0714,-8.3015 13.58866,-109.0689 9.69648,-47.2936 17.62996,-86.6999 17.62996,-87.5696 0,-1.1872 -2.5542,-2.1622 -10.25,-3.9124 -12.21103,-2.777 -16.55686,-4.784 -45.16905,-20.8595 l -21.91905,-12.315 -21.27204,-19.9816 c -18.8712,-17.7264 -22.37167,-21.5273 -31.01515,-33.6775 -5.35872,-7.5328 -12.43755,-17.2585 -15.73074,-21.6126 -4.01004,-5.302 -10.03101,-16.0816 -18.22994,-32.6378 -11.76241,-23.7519 -12.50489,-25.635 -18.94013,-48.0364 -3.68379,-12.8235 -6.98492,-25.3107 -7.33585,-27.7494 l -0.63805,-4.4341 -36.89096,36.0989 c -20.29003,19.8543 -38.62567,37.301 -40.74587,38.7703 -5.02084,3.4794 -15.74629,6.4494 -20.6142,5.7083 -7.69989,-1.1723 -13.68696,-4.9151 -18.23591,-11.4 -3.82273,-5.4497 -4.30171,-6.7772 -4.58957,-12.7199 -0.30305,-6.2563 -0.0531,-7.1451 4.37755,-15.5631 4.685,-8.9014 4.89507,-9.1198 70.69896,-73.4958 36.3,-35.5123 69.5868,-68.40558 73.97066,-73.09612 18.10368,-19.37011 17.48604,-18.90368 40.10045,-30.28314 l 20.92889,-10.53131 24.5,-5.55422 24.5,-5.55422 28.5,-1.16489 28.5,-1.1649 28.5,3.14144 c 28.33665,3.12344 28.67195,3.18798 58.5,11.26098 16.5,4.46574 32.57467,9.40259 35.72148,10.97077 3.14682,1.56819 5.85049,2.85125 6.00815,2.85125 0.15767,0 0.19971,-2.69343 0.0934,-5.9854 -0.16053,-4.97243 0.33502,-7.00967 2.92816,-12.03765 3.92733,-7.61495 8.73157,-13.27018 12.96576,-15.26245 1.80569,-0.8496 40.85805,-11.09326 86.78305,-22.76368 l 83.5,-21.21896 16,-10.20188 c 8.8,-5.61103 24.775,-15.75216 35.5,-22.53585 37.84734,-23.93889 49.62347,-31.40166 61.5,-38.97375 20.99093,-13.38314 23.65286,-14.41696 33.51888,-13.0177 8.36242,1.186 11.51345,2.53935 15.80551,6.78838 5.33402,5.28053 7.58866,11.41826 7.60725,20.70894 0.0139,6.94545 -0.34488,8.60791 -2.72181,12.61173 -1.5058,2.53646 -5.09402,6.48094 -7.97382,8.76552 -2.87981,2.28459 -31.11101,20.53025 -62.73601,40.54592 l -57.5,36.39213 -0.5,28.34235 -0.5,28.34235 -2.87212,5.66818 c -6.48297,12.79424 -23.8641,18.25268 -37.34335,11.72751 -4.91849,-2.381 -11.7647,-11.10577 -13.19867,-16.82032 -0.49345,-1.96646 -0.96132,-10.98455 -1.0397,-20.04022 -0.0784,-9.05567 -0.23335,-16.52233 -0.34434,-16.59258 -0.32996,-0.20883 -99.79392,25.31444 -100.15983,25.70183 -0.18473,0.19558 6.64649,12.9556 15.18048,28.3556 15.10793,27.26296 15.98227,28.57906 33.21681,49.99996 l 17.70045,22 14.28526,27 c 12.3113,23.2691 15.30033,29.8675 21.63111,47.7512 4.04021,11.4132 7.72199,21.4233 8.18173,22.2449 1.1241,2.0086 10.92551,-4.396 45.65792,-29.8348 52.18856,-38.224 85.39206,-70.9186 104.71133,-103.1062 8.07894,-13.4603 8.80876,-15.1513 11.89365,-27.558 3.05569,-12.28925 3.24072,-13.97234 2.63407,-23.9607 -0.40575,-6.68056 -1.55066,-13.74377 -3.02768,-18.67848 -1.95697,-6.5382 -2.22662,-8.87542 -1.53137,-13.27351 1.115,-7.05347 3.28639,-9.43326 8.02701,-8.79741 3.63365,0.48737 10.35098,3.24359 12.61254,5.1751 3.62105,3.09261 4.30249,3.53794 5.41375,3.53794 0.66741,0 2.02018,0.73007 3.00617,1.62237 2.66163,2.40874 10.40536,3.91088 21.99346,4.26633 3.96194,0.12152 5.08568,1.78052 6.34098,9.3613 0.34153,2.0625 0.8952,3.75 1.23037,3.75 0.33517,0 4.90326,-4.55171 10.15129,-10.11491 7.16177,-7.59186 9.68413,-9.70943 10.11212,-8.48931 0.43322,1.23502 1.03368,0.76504 2.49908,-1.95604 4.42586,-8.21833 13.07002,-12.06991 23.68377,-10.55278 8.45448,1.20849 11.58217,2.68429 16.35371,7.71652 3.50394,3.69537 71.1435,117.07368 76.6777,128.52818 3.3706,6.9763 4.6994,15.5558 3.3282,21.4894 -2.42,10.4724 -7.8173,15.8973 -19.28048,19.3791 -6.1868,1.8792 -7.82008,2.0182 -12.44098,1.0589 -7.08438,-1.4707 -11.84646,-4.5179 -16.46497,-10.5357 -2.10071,-2.7372 -15.74447,-25.1997 -30.31947,-49.9165 -14.575,-24.7169 -26.82524,-44.8529 -27.22275,-44.7466 -1.58842,0.4245 -81.36464,82.642 -94.09118,96.9703 -27.08134,30.49 -87.88761,79.9762 -130.93607,106.5601 -8.6625,5.3494 -15.75,10.0817 -15.75,10.5163 0,0.4345 1.13265,5.911 2.517,12.1699 4.24159,19.177 11.13138,78.7041 13.42149,115.9605 2.27931,37.0805 2.82479,106.4886 1.11177,141.4626 -0.51184,10.45 -1.20197,25.166 -1.53364,32.7022 -0.33166,7.5362 -0.99642,17.2101 -1.47725,21.4977 -0.48083,4.2875 -0.8581,8.0215 -0.83838,8.2978 0.0197,0.2763 -0.0174,2.6398 -0.0826,5.2523 l -0.11839,4.75 -6.04531,0 -6.04532,0 0.5353,-3.25 c 2.3821,-14.4628 2.97516,-26.6813 4.67181,-96.25 1.57532,-64.5938 0.5936,-92.598 -5.13571,-146.5 -5.51631,-51.898 -8.05997,-67.9921 -16.10757,-101.915 -10.27849,-43.3267 -21.82725,-78.8324 -33.02572,-101.5348 -15.55026,-31.5247 -23.25171,-44.2917 -37.36838,-61.9472 -12.94952,-16.1957 -13.47288,-16.7107 -14.55916,-14.3266 -1.50475,3.3026 -8.18369,8.777 -15.41822,12.6375 -3.24188,1.73 -6.06502,3.3161 -6.27365,3.5247 -0.20862,0.2087 3.59221,5.1878 8.4463,11.0647 11.7664,14.2458 12.8411,15.7685 17.28943,24.4967 2.10229,4.125 6.19521,11.55 9.09538,16.5 12.86426,21.9567 15.86889,28.2637 20.96154,44 2.84789,8.8 7.54254,22.525 10.43257,30.5 8.07705,22.2886 21.02461,76.9711 23.08573,97.5 0.88353,8.8 2.50507,22.075 3.60343,29.5 1.28167,8.6642 2.33056,23.3509 2.92815,41 0.51212,15.125 1.27003,32.2291 1.68425,38.009 0.45829,6.395 0.0942,27.3384 -0.92995,53.5 -0.92569,23.6451 -1.75359,53.791 -1.83978,66.991 -0.0922,14.1248 -0.84148,30.5835 -1.82091,40 l -1.66421,16 -6.34638,0.3002 -6.34638,0.3002 0.57986,-3.8002 z M 92.26586,1289.0258 c 2.98851,-0.5071 11.05866,-1.6703 17.93366,-2.5848 20.44639,-2.7196 29.53083,-5.0904 61.5021,-16.0504 23.99856,-8.2269 34.51836,-12.4247 49.71849,-19.8396 10.60368,-5.1726 20.09203,-10.0242 21.08524,-10.7813 1.72833,-1.3175 1.66938,-2.0046 -1.37398,-16.0129 l -3.17981,-14.6364 -19.62602,9.8753 c -10.79431,5.4313 -22.55102,11.4469 -26.12602,13.368 -3.575,1.9211 -13.7,6.8225 -22.5,10.8922 -8.8,4.0696 -21.4,9.9064 -28,12.9706 -6.6,3.0642 -18.26221,8.0711 -25.91603,11.1263 -9.67083,3.8605 -14.85681,6.5193 -17,8.716 -1.69618,1.7384 -4.77147,4.2281 -6.83397,5.5325 -2.0625,1.3045 -3.75,2.7615 -3.75,3.2379 0,0.4763 -1.35,1.4253 -3,2.1087 -1.65,0.6835 -3,1.6381 -3,2.1214 0,1.1283 3.24429,1.1143 10.06634,-0.043 z m -5.56634,-30.4772 c 27.03463,-6.2289 29.05157,-6.8654 58.5,-18.4606 25.09693,-9.8818 35.72592,-14.7297 60,-27.3656 27.65809,-14.3976 29.4891,-15.5193 29.32537,-17.9659 -0.096,-1.4352 -4.77163,-15.5917 -10.39018,-31.459 l -10.21555,-28.8496 -13.987,-24.1335 c -13.98237,-24.1255 -13.99251,-24.1396 -30.69134,-42.5003 -16.12517,-17.73 -17.35397,-18.8286 -35.4401,-31.6873 -18.20163,-12.9407 -20.84362,-14.411 -45.6012,-25.3774 -2.475,-1.0963 -5.85,-2.6608 -7.5,-3.4765 -6.71523,-3.3202 -22.29924,-7.96033 -50,-14.88751 -1.65,-0.41261 -3.45,-0.88119 -4,-1.04128 -4.45334,-1.29624 -37.80531,-5.24392 -51,-6.03657 -4.95,-0.29736 -18.45,-0.0765 -30,0.49072 -19.54972,0.96016 -22.38121,1.35366 -41,5.69779 -19.51359,4.5529 -20.34049,4.85065 -34,12.24265 -13.58285,7.3506 -14.23484,7.8551 -21.88159,16.9313 -7.58035,8.9974 -8.0304,9.8217 -11.77499,21.5664 l -3.8934,12.2115 0.60911,14.5 c 0.55503,13.2127 1.05788,16.1815 5.66393,33.4398 5.57304,20.8814 6.25791,22.6281 18.3914,46.9044 8.80236,17.6115 11.3368,21.5447 28.13002,43.6558 8.62243,11.3529 13.03011,15.9652 27.7133,29 16.90402,15.0064 18.02397,15.8004 35.16209,24.9316 l 17.70195,9.4315 20.58909,4.8196 20.58909,4.8196 25.5,-0.4751 25.5,-0.4751 28,-6.4514 z m 228.14784,-60.7345 c 48.17466,-31.0067 71.97946,-48.6789 96.93079,-71.9591 5.45675,-5.0914 12.27996,-11.45 15.16267,-14.1304 3.43396,-3.1929 6.78833,-7.8063 9.72766,-13.3787 4.20658,-7.9748 4.45007,-8.8605 3.90446,-14.2016 -0.67069,-6.5657 -2.00682,-9.127 -5.82794,-11.172 -2.3997,-1.2843 -3.04172,-1.2766 -5.38501,0.065 -1.46326,0.8374 -5.13547,2.8413 -8.16047,4.453 -6.06341,3.2306 -13.34644,9.174 -38,31.0103 -9.70289,8.5941 -23.50309,19.479 -33.5,26.4232 -9.35,6.4947 -22.55605,15.9033 -29.34678,20.9079 -6.79073,5.0046 -17.02914,11.9157 -22.75203,15.358 -8.77189,5.2763 -10.31115,6.5727 -9.8058,8.2588 0.32969,1.1 1.88922,7.4 3.46561,14 4.00055,16.7493 3.93472,16.5 4.35589,16.5 0.20834,0 8.86226,-5.4603 19.23095,-12.1339 z M 132.54032,1011.1979 c -2.62017,-4.8125 -7.73405,-14.06787 -11.36418,-20.56753 l -6.60025,-11.81758 -10.93818,-4.49694 c -17.74884,-7.29696 -28.71475,-11.28727 -33.98919,-12.3681 -2.72195,-0.55778 -14.624,-1.26017 -26.449,-1.56087 -19.51849,-0.49633 -21.26959,-0.40671 -19,0.97233 1.375,0.83547 4.075,2.03813 6,2.67258 7.11243,2.34413 20,8.18193 20,9.05957 0,0.49834 1.125,1.33381 2.5,1.85658 1.375,0.52277 2.5,1.39357 2.5,1.93511 0,0.54153 1.9125,1.53047 4.25,2.19764 2.3375,0.66717 15.95,6.56639 30.25,13.10938 22.67822,10.37643 27.34004,12.90963 36.48863,19.82713 5.76875,4.3619 10.62982,7.9307 10.80237,7.9307 0.17256,0 -1.83003,-3.9375 -4.4502,-8.75 z m 144.5566,-49.99996 c 1.17879,-2.3375 1.96086,-4.25 1.73793,-4.25 -0.72119,0 -3.32543,4.42959 -4.11543,7 -1.02556,3.33685 -0.22519,2.41109 2.3775,-2.75 z"
         id="path11018"
         style="fill:#ecec76" />
      <path
         d="m 255.59511,1562.1979 c 1.65695,-10.8746 2.79652,-26.6082 5.12435,-70.75 1.2523,-23.7468 0.66263,-103.5246 -0.97936,-132.5 -1.96316,-34.6429 -10.43941,-106 -12.59136,-106 -0.42702,0 -9.70278,4.7073 -20.6128,10.4606 -13.38024,7.0559 -30.92121,15.0055 -53.89408,24.425 -33.94272,13.9175 -34.17052,13.9932 -67.5,22.4477 l -33.44234,8.4832 -22.79019,0.9653 c -12.5346,0.5309 -23.01121,1.1863 -23.28136,1.4565 -0.48901,0.489 -0.9802,2.551 -1.96798,8.2617 -0.28541,1.65 -1.44261,7.275 -2.57156,12.5 -2.84704,13.1767 -2.85215,13.2008 -3.38891,16 -0.26366,1.375 -0.71366,3.625 -1,5 -0.28634,1.375 -0.73634,3.625 -1,5 -0.26366,1.375 -0.71366,3.625 -1,5 -0.67001,3.2174 -1.3521,6.735 -2.036,10.5 -0.44296,2.4386 -4.19248,20.4059 -6.05191,29 -0.23799,1.1 -0.64843,3.125 -0.91209,4.5 -0.26366,1.375 -0.71366,3.625 -1,5 -0.28634,1.375 -0.73634,3.625 -1,5 -0.26366,1.375 -0.71366,3.625 -1,5 -0.7035,3.3782 -1.38281,6.8953 -2.02804,10.5 -0.29534,1.65 -1.45919,7.275 -2.58634,12.5 -2.88128,13.3565 -2.85404,13.2278 -3.38562,16 -0.26366,1.375 -0.71366,3.625 -1,5 -0.28634,1.375 -0.73897,3.625 -1.00584,5 -0.88235,4.5462 -1.47096,7.4691 -2.01374,10 -0.29488,1.375 -0.79299,4.3 -1.10691,6.5 -0.93416,6.5468 -5.97124,16.0134 -10.37746,19.5032 -2.29256,1.8157 -6.95186,3.9874 -11.03233,5.1422 -5.9858,1.6939 -7.8425,1.8319 -12.16743,0.9044 -7.71696,-1.655 -12.28422,-4.7337 -17.01491,-11.4693 -6.88443,-9.8022 -7.0714,-8.3014 13.58866,-109.0688 9.69648,-47.2937 17.62996,-86.7 17.62996,-87.5697 0,-1.1872 -2.5542,-2.1622 -10.25,-3.9124 -12.21103,-2.777 -16.55686,-4.784 -45.16905,-20.8595 l -21.91905,-12.315 -21.27204,-19.9816 c -18.8712,-17.7264 -22.37167,-21.5273 -31.01515,-33.6775 -5.35872,-7.5328 -12.43755,-17.2585 -15.73074,-21.6126 -4.01004,-5.302 -10.03101,-16.0816 -18.22994,-32.6378 -11.76241,-23.7519 -12.50489,-25.635 -18.94013,-48.0364 -3.68379,-12.8235 -6.98492,-25.3107 -7.33585,-27.7494 l -0.63805,-4.4341 -36.89096,36.0989 c -20.29003,19.8543 -38.62567,37.301 -40.74587,38.7703 -5.02084,3.4794 -15.74629,6.4494 -20.6142,5.7083 -7.69989,-1.1723 -13.68696,-4.9151 -18.23591,-11.4 -3.82273,-5.4497 -4.30171,-6.7772 -4.58957,-12.7199 -0.30305,-6.2563 -0.0531,-7.1451 4.37755,-15.5631 4.685,-8.9014 4.89507,-9.1198 70.69896,-73.4958 36.3,-35.5123 69.5868,-68.40558 73.97066,-73.09612 18.10368,-19.37011 17.48604,-18.90368 40.10045,-30.28314 l 20.92889,-10.53131 24.5,-5.55422 24.5,-5.55422 28.5,-1.16489 28.5,-1.1649 28.5,3.14144 c 28.33665,3.12344 28.67195,3.18798 58.5,11.26098 16.5,4.46574 32.57467,9.40259 35.72148,10.97077 3.14682,1.56819 5.85049,2.85125 6.00815,2.85125 0.15767,0 0.19971,-2.69343 0.0934,-5.9854 -0.16053,-4.97243 0.33502,-7.00967 2.92816,-12.03765 3.92733,-7.61495 8.73157,-13.27018 12.96576,-15.26245 1.80569,-0.8496 40.85805,-11.09326 86.78305,-22.76368 l 83.5,-21.21896 16,-10.20188 c 8.8,-5.61103 24.775,-15.75216 35.5,-22.53585 37.84734,-23.93889 49.62347,-31.40166 61.5,-38.97375 20.99093,-13.38314 23.65286,-14.41696 33.51888,-13.0177 8.36242,1.186 11.51345,2.53935 15.80551,6.78838 5.33402,5.28053 7.58866,11.41826 7.60725,20.70894 0.0139,6.94545 -0.34488,8.60791 -2.72181,12.61173 -1.5058,2.53646 -5.09402,6.48094 -7.97382,8.76552 -2.87981,2.28459 -31.11101,20.53025 -62.73601,40.54592 l -57.5,36.39213 -0.5,28.34235 -0.5,28.34235 -2.87212,5.66818 c -6.48297,12.79424 -23.8641,18.25268 -37.34335,11.72751 -4.91849,-2.381 -11.7647,-11.10577 -13.19867,-16.82032 -0.49345,-1.96646 -0.96132,-10.98455 -1.0397,-20.04022 -0.0784,-9.05567 -0.23335,-16.52233 -0.34434,-16.59258 -0.32996,-0.20883 -99.79392,25.31444 -100.15983,25.70183 -0.18473,0.19558 6.64649,12.9556 15.18048,28.3556 15.10793,27.26296 15.98227,28.57906 33.21681,49.99996 l 17.70045,22 14.28526,27 c 12.3113,23.2691 15.30033,29.8675 21.63111,47.7512 4.04021,11.4132 7.72199,21.4233 8.18173,22.2449 1.1241,2.0086 10.92551,-4.396 45.65792,-29.8348 52.18856,-38.224 85.39206,-70.9186 104.71133,-103.1062 8.07894,-13.4603 8.80876,-15.1513 11.89365,-27.558 3.05569,-12.28925 3.24072,-13.97234 2.63407,-23.9607 -0.40575,-6.68056 -1.55066,-13.74377 -3.02768,-18.67848 -1.95697,-6.5382 -2.22662,-8.87542 -1.53137,-13.27351 1.115,-7.05347 3.28639,-9.43326 8.02701,-8.79741 3.63365,0.48737 10.35098,3.24359 12.61254,5.1751 3.62105,3.09261 4.30249,3.53794 5.41375,3.53794 0.66741,0 2.02018,0.73007 3.00617,1.62237 2.66163,2.40874 10.40536,3.91088 21.99346,4.26633 3.96194,0.12152 5.08568,1.78052 6.34098,9.3613 0.34153,2.0625 0.8952,3.75 1.23037,3.75 0.33517,0 4.90326,-4.55171 10.15129,-10.11491 7.16177,-7.59186 9.68413,-9.70943 10.11212,-8.48931 0.43322,1.23502 1.03368,0.76504 2.49908,-1.95604 4.42586,-8.21833 13.07002,-12.06991 23.68377,-10.55278 8.45448,1.20849 11.58217,2.68429 16.35371,7.71652 3.50394,3.69537 71.1435,117.07368 76.6777,128.52818 3.3706,6.9763 4.6994,15.5558 3.3282,21.4894 -2.42,10.4724 -7.8173,15.8973 -19.28048,19.3791 -6.1868,1.8792 -7.82008,2.0182 -12.44098,1.0589 -7.08438,-1.4707 -11.84646,-4.5179 -16.46497,-10.5357 -2.10071,-2.7372 -15.74447,-25.1997 -30.31947,-49.9165 -14.575,-24.7169 -26.82524,-44.8529 -27.22275,-44.7466 -1.58842,0.4245 -81.36464,82.642 -94.09118,96.9703 -27.08134,30.49 -87.88761,79.9762 -130.93607,106.5601 -8.6625,5.3494 -15.75,10.0817 -15.75,10.5163 0,0.4345 1.13265,5.911 2.517,12.1699 4.24159,19.177 11.13138,78.7041 13.42149,115.9605 2.27931,37.0805 2.82479,106.4886 1.11177,141.4626 -0.51184,10.45 -1.20197,25.166 -1.53364,32.7022 -0.33166,7.5362 -0.99642,17.2101 -1.47725,21.4977 -0.48083,4.2875 -0.8581,8.0215 -0.83838,8.2978 0.0197,0.2763 -0.0174,2.6398 -0.0826,5.2523 l -0.11839,4.75 -4.54531,0 -4.54532,0 0.53107,-3.25 c 2.59182,-15.8614 5.63332,-71.7168 6.26592,-115.0699 1.38632,-95.0085 -5.82921,-164.7405 -25.66608,-248.0408 -1.68443,-7.0733 -7.52434,-26.1983 -12.97757,-42.5 -9.55641,-28.5674 -10.453,-30.6969 -24.79275,-58.8867 l -14.87778,-29.2475 -14.34899,-17.0232 -14.349,-17.0232 -2.09709,3.2074 c -4.75061,7.2658 -14.93575,14.8529 -23.8471,17.764 -2.0625,0.6738 -3.75,1.58 -3.75,2.0139 0,0.4339 4.73168,6.1365 10.51485,12.6724 8.50281,9.6097 11.78179,14.2755 17.13583,24.3836 3.64154,6.875 10.15117,18.8229 14.46584,26.5508 5.80875,10.404 9.25701,18.1904 13.28563,30 2.99241,8.7721 7.75756,22.0242 10.58921,29.4492 4.14239,10.862 6.58701,20.144 12.5102,47.5 9.8233,45.3687 15.83829,89.3419 17.71398,129.5 2.48265,53.153 0.29515,152.3888 -4.33704,196.75 l -1.17473,11.25 -3.93978,0 -3.93979,0 0.57139,-3.75 z M 69.19952,1302.452 c 12.0248,-1.1151 22.22619,-2.9929 45.5,-8.3756 29.63861,-6.8546 30.36705,-7.0847 60.46958,-19.1049 27.90446,-11.1424 70.03042,-30.3994 70.03042,-32.0129 0,-1.2628 -8.067,-37.411 -8.42975,-37.7737 -0.53026,-0.5303 -15.67393,7.2106 -35.07025,17.9266 -18.453,10.1949 -71.77768,32.8887 -96,40.8555 -7.15,2.3517 -17.05,5.8131 -22,7.6921 -4.95,1.879 -15.3,4.7745 -23,6.4345 -7.7,1.66 -18.4818,4.3955 -23.95956,6.079 l -9.95955,3.0609 -15.04045,-1.1493 c -8.27224,-0.632 -19.80073,-1.1463 -25.61885,-1.1427 l -10.57842,0.01 -11.92158,-5.3457 c -6.55688,-2.9401 -16.87159,-7.2472 -22.92159,-9.5712 -9.65422,-3.7085 -13.568,-6.0429 -31.98996,-19.081 -11.54448,-8.1705 -21.13896,-14.7065 -21.32107,-14.5244 -0.72807,0.7281 24.33107,30.3117 29.15109,34.4144 5.76371,4.9059 10.41335,7.1653 35.65994,17.3279 20.41936,8.2195 27.15757,10.1109 43.60783,12.2411 10.81146,1.4 12.4175,1.4064 15,0.06 4.20481,-2.1928 9.39217,-2.0201 9.39217,0.3127 0,1.0084 0.3,2.1334 0.66667,2.5 1.18499,1.185 32.38496,0.6497 48.33333,-0.8292 z m 17.5,-43.9034 c 27.03463,-6.2289 29.05157,-6.8654 58.5,-18.4606 25.09693,-9.8818 35.72592,-14.7297 60,-27.3656 27.65809,-14.3976 29.4891,-15.5193 29.32537,-17.9659 -0.096,-1.4352 -4.77163,-15.5917 -10.39018,-31.459 l -10.21555,-28.8496 -13.987,-24.1335 c -13.98237,-24.1255 -13.99251,-24.1396 -30.69134,-42.5003 -16.12517,-17.73 -17.35397,-18.8286 -35.4401,-31.6873 -18.20163,-12.9407 -20.84362,-14.411 -45.6012,-25.3774 -2.475,-1.0963 -5.85,-2.6608 -7.5,-3.4765 -6.71523,-3.3202 -22.29924,-7.96033 -50,-14.88751 -1.65,-0.41261 -3.45,-0.88119 -4,-1.04128 -4.45334,-1.29624 -37.80531,-5.24392 -51,-6.03657 -4.95,-0.29736 -18.45,-0.0765 -30,0.49072 -19.54972,0.96016 -22.38121,1.35366 -41,5.69779 -19.51359,4.5529 -20.34049,4.85065 -34,12.24265 -13.58285,7.3506 -14.23484,7.8551 -21.88159,16.9313 -7.58035,8.9974 -8.0304,9.8217 -11.77499,21.5664 l -3.8934,12.2115 0.60911,14.5 c 0.55503,13.2127 1.05788,16.1815 5.66393,33.4398 5.57304,20.8814 6.25791,22.6281 18.3914,46.9044 8.80236,17.6115 11.3368,21.5447 28.13002,43.6558 8.62243,11.3529 13.03011,15.9652 27.7133,29 16.90402,15.0064 18.02397,15.8004 35.16209,24.9316 l 17.70195,9.4315 20.58909,4.8196 20.58909,4.8196 25.5,-0.4751 25.5,-0.4751 28,-6.4514 z m 228.24503,-55.4248 c 24.55554,-14.9699 64.87316,-45.2924 92.75497,-69.76 12.65,-11.1009 24.16898,-21.4733 25.59773,-23.0497 2.75339,-3.0379 13.32239,-22.5185 15.3492,-28.2914 1.01745,-2.898 0.95549,-3.6677 -0.4025,-5 -0.88278,-0.8661 -4.39284,-4.2202 -7.80012,-7.4535 l -6.19506,-5.8787 -5.77462,2.7048 c -3.17605,1.4877 -8.24963,5.0794 -11.27463,7.9816 -20.29419,19.4703 -95.53502,77.9087 -119.5,92.8137 -6.05,3.7628 -11.13604,7.2306 -11.30231,7.7063 -0.16627,0.4757 0.35041,2.4271 1.14816,4.3364 0.79776,1.9093 2.87463,9.9387 4.61526,17.843 3.52682,16.0157 3.75525,16.8716 4.50254,16.8716 0.28953,0 8.51615,-4.8708 18.28138,-10.8241 z M 126.95987,1001.0936 109.89729,970.23929 94.2984,964.12852 c -14.86339,-5.82265 -17.03696,-6.36865 -46.09888,-11.58013 -30.00386,-5.38039 -30.90667,-5.47963 -55.5,-6.10098 -28.6904,-0.72486 -33.74714,-0.0878 -49.63769,6.25321 l -9.63768,3.84586 8.63768,1.87033 c 4.75073,1.02868 11.71032,2.90415 15.46576,4.16771 3.79527,1.27696 16.67608,3.69026 29,5.43333 15.32083,2.16696 26.18891,4.31333 35.17193,6.94624 7.15,2.09565 19.72853,5.68114 27.9523,7.96774 11.67716,3.24681 20.32921,6.62342 39.5,15.41555 22.93957,10.52062 25.53036,11.98492 39.5477,22.35232 8.25,6.1018 15.07266,11.1289 15.16147,11.1712 0.0888,0.042 -7.51669,-13.8074 -16.90112,-30.7773 z m 150.13705,-39.89566 c 1.17879,-2.3375 1.96086,-4.25 1.73793,-4.25 -0.72119,0 -3.32543,4.42959 -4.11543,7 -1.02556,3.33685 -0.22519,2.41109 2.3775,-2.75 z"
         id="path11016"
         style="fill:#d0d068" />
      <path
         d="m 255.19952,1565.6717 c 0,-0.152 0.43974,-3.8645 0.97721,-8.25 1.18929,-9.7043 2.73134,-29.7848 3.53049,-45.9738 0.3258,-6.6 1.01776,-19.2 1.53769,-28 2.86899,-48.559 -0.32981,-131.671 -7.12026,-185 -4.85668,-38.1421 -5.98477,-45.5 -6.97591,-45.5 -0.42702,0 -9.70278,4.7073 -20.6128,10.4606 -13.38024,7.0559 -30.92121,15.0055 -53.89408,24.425 -33.94272,13.9175 -34.17052,13.9932 -67.5,22.4477 l -33.44234,8.4832 -22.79019,0.9653 c -12.5346,0.5309 -23.05732,1.2324 -23.38382,1.5589 -0.3265,0.3265 -8.85598,41.2209 -18.9544,90.8765 -10.09842,49.6556 -19.10758,92.2796 -20.02036,94.72 -5.08905,13.6063 -23.90157,20.4316 -37.70329,13.679 -4.12398,-2.0176 -6.37777,-4.068 -9.75025,-8.8702 l -4.38641,-6.246 0.13662,-8.5 c 0.10804,-6.722 3.81972,-26.4866 17.74436,-94.4883 9.68426,-47.2937 17.60774,-86.7 17.60774,-87.5697 0,-1.1844 -2.57235,-2.1771 -10.25,-3.9554 -12.97359,-3.005 -15.77587,-4.1964 -32.53057,-13.8305 -7.54569,-4.3388 -18.44443,-10.4987 -24.21943,-13.6887 -8.91497,-4.9243 -12.82676,-8.0013 -25.91363,-20.3836 -8.47749,-8.0211 -18.06044,-17.036 -21.29544,-20.0331 -4.97969,-4.6136 -17.79093,-20.921 -17.79093,-22.6461 0,-0.3011 -0.5625,-1.1747 -1.25,-1.9413 -2.71578,-3.0283 -3.75,-4.4052 -3.75,-4.9925 0,-0.3375 -0.5625,-1.2013 -1.25,-1.9197 -0.6875,-0.7183 -1.925,-2.3163 -2.75,-3.5511 -0.825,-1.2347 -1.95647,-2.7524 -2.51438,-3.3725 -5.03883,-5.6006 -9.3965,-13.1255 -19.99781,-34.5329 -11.84561,-23.92 -12.57197,-25.7607 -19.01391,-48.1854 -3.68379,-12.8235 -6.98492,-25.3107 -7.33585,-27.7494 l -0.63805,-4.4341 -36.89096,36.0989 c -20.29003,19.8543 -38.62567,37.301 -40.74587,38.7703 -5.02084,3.4794 -15.74629,6.4494 -20.6142,5.7083 -7.75301,-1.1804 -13.68266,-4.9089 -18.31958,-11.5193 -4.11927,-5.8724 -4.3539,-6.5802 -4.39061,-13.2439 -0.0357,-6.4737 0.32315,-7.7125 4.46122,-15.4018 4.28832,-7.9686 6.73439,-10.5541 52,-54.9653 75.95139,-74.5176 90.88808,-89.2836 101.56822,-100.40723 l 10.06821,-10.4863 20.93179,-10.53277 20.93178,-10.53277 24.5,-5.55422 24.5,-5.55422 28.5,-1.16489 28.5,-1.1649 28.5,3.14144 c 28.33665,3.12344 28.67195,3.18798 58.5,11.26098 16.5,4.46574 32.57467,9.40259 35.72148,10.97077 3.14682,1.56819 5.84682,2.85006 6,2.84861 0.15319,-10e-4 0.31175,-3.10435 0.35237,-6.89533 0.0668,-6.2316 0.47285,-7.5643 4.2337,-13.89475 4.18382,-7.04241 8.66611,-11.67647 12.8226,-13.25676 1.23359,-0.46901 39.7144,-10.38473 85.51292,-22.03493 l 83.27003,-21.18218 61.54345,-39.01966 c 33.8489,-21.46082 63.56845,-40.20794 66.04345,-41.66027 7.1757,-4.21071 11.53705,-5.11526 19.32906,-4.00888 10.62724,1.50896 16.21922,5.29476 20.39163,13.80525 2.33435,4.7614 2.76669,6.90853 2.74852,13.65015 -0.0186,6.90669 -0.39572,8.63026 -2.75938,12.61173 -1.5058,2.53646 -5.09402,6.48094 -7.97382,8.76552 -2.87981,2.28459 -31.11101,20.53025 -62.73601,40.54592 l -57.5,36.39213 -0.5,28.34235 -0.5,28.34235 -2.87212,5.66818 c -6.48297,12.79424 -23.8641,18.25268 -37.34335,11.72751 -4.91849,-2.381 -11.7647,-11.10577 -13.19867,-16.82032 -0.49345,-1.96646 -0.96132,-10.98455 -1.0397,-20.04022 -0.0784,-9.05567 -0.23335,-16.52233 -0.34434,-16.59258 -0.32996,-0.20883 -99.79392,25.31444 -100.15983,25.70183 -0.18473,0.19558 6.64649,12.9556 15.18048,28.3556 15.10793,27.26296 15.98227,28.57906 33.21681,49.99996 l 17.70045,22 14.28003,27 c 7.85401,14.85 14.42564,27.675 14.60362,28.5 0.17798,0.825 0.41428,1.6125 0.52511,1.75 0.11083,0.1375 0.29547,0.5875 0.4103,1 0.11484,0.4125 0.73331,2.0161 1.37439,3.5635 0.64107,1.5474 3.93593,10.6856 7.32191,20.3071 3.38597,9.6215 6.42375,17.103 6.75061,16.6256 0.32687,-0.4774 4.4577,-3.3697 9.17963,-6.4273 4.72193,-3.0576 12.92946,-8.7677 18.23896,-12.6891 5.30951,-3.9214 10.06046,-7.1298 10.55769,-7.1298 0.49722,0 1.16306,-0.675 1.47965,-1.5 0.31658,-0.825 1.22722,-1.5 2.02365,-1.5 0.79643,0 1.59805,-0.3408 1.78139,-0.7574 0.44714,-1.0161 8.4413,-7.2426 9.29866,-7.2426 0.37264,0 1.26525,-0.5625 1.98357,-1.25 0.71832,-0.6875 2.31632,-1.925 3.5511,-2.75 1.23478,-0.825 2.75242,-1.9507 3.37253,-2.5017 0.62011,-0.551 2.92747,-2.1775 5.12747,-3.6144 3.35301,-2.1901 16.72105,-13.6792 29,-24.9239 1.65,-1.511 5.2109,-4.7077 7.91312,-7.1036 17.50921,-15.525 34.18686,-35.6106 45.90995,-55.2913 8.27677,-13.895 9.21997,-16.0359 12.14406,-27.5651 2.86367,-11.29089 3.10905,-13.41886 2.53685,-21.99996 -0.3484,-5.225 -0.32115,-10.4 0.0606,-11.5 0.59199,-1.70599 0.96696,-1.37522 2.55064,2.25 1.02114,2.3375 2.20047,4.25 2.62072,4.25 0.42026,0 0.7641,1.65555 0.7641,3.679 0,2.02345 0.43439,5.06095 0.96532,6.75 0.53092,1.68905 1.21449,4.3085 1.51905,5.821 0.30455,1.5125 1.11191,2.75 1.79414,2.75 0.68222,0 1.76959,0.84738 2.41639,1.88306 0.6897,1.10438 2.6837,2.0591 4.82209,2.3087 3.60636,0.421 3.93408,0.1314 30.06456,-26.57466 17.63399,-18.0224 26.4216,-26.35473 26.42791,-25.05872 0.007,1.34278 0.76962,0.67352 2.47414,-2.16997 5.18302,-8.64633 12.92711,-12.0302 23.9568,-10.4682 8.35075,1.18261 14.32868,4.61756 18.82364,10.81617 7.06487,9.74255 73.82326,124.58588 75.75486,130.31988 3.2559,9.6649 2.7903,16.9543 -1.5674,24.5373 -3.231,5.6223 -7.83257,8.8571 -16.22608,11.4066 -6.1868,1.8792 -7.82008,2.0182 -12.44098,1.0589 -7.08438,-1.4707 -11.84646,-4.5179 -16.46497,-10.5358 -2.10075,-2.7371 -15.74451,-25.1996 -30.31951,-49.9164 -14.575,-24.7169 -26.82348,-44.8512 -27.21885,-44.7428 -1.42544,0.3907 -86.56925,87.9346 -97.56873,100.3191 -6.19562,6.9757 -12.71549,13.8904 -14.48859,15.366 -1.77311,1.4755 -6.5584,5.6681 -10.63398,9.3168 -4.07558,3.6487 -9.21425,8.209 -11.41926,10.134 -2.20501,1.925 -5.44743,4.85 -7.20538,6.5 -3.72858,3.4997 -10.36701,9.3442 -13.07585,11.5121 -6.54206,5.2358 -14.33424,10.9879 -14.88483,10.9879 -0.35606,0 -1.23511,0.5625 -1.95343,1.25 -0.71832,0.6875 -2.30715,1.925 -3.53072,2.75 -1.22358,0.825 -3.64122,2.7332 -5.37253,4.2404 -1.73132,1.5073 -3.93535,3.0001 -4.89785,3.3174 -0.9625,0.3174 -1.75,0.9967 -1.75,1.5096 0,0.513 -0.62686,0.9326 -1.39301,0.9326 -0.76616,0 -1.65203,0.675 -1.96862,1.5 -0.31658,0.825 -1.22722,1.5 -2.02365,1.5 -0.79643,0 -1.59805,0.3527 -1.78139,0.7837 -0.95571,2.2467 -36.81122,26.2163 -39.2164,26.2163 -0.32674,0 -1.38671,0.6665 -2.3555,1.4811 -0.96879,0.8145 -2.59729,2.0813 -3.61891,2.8151 -1.79967,1.2927 -1.7762,1.7038 0.75389,13.211 2.15992,9.8236 5.46843,32.7251 8.01687,55.4928 0.59222,5.291 1.42285,12.0959 2.07505,17 1.09146,8.207 1.63214,15.1881 3.51925,45.4396 3.27268,52.4628 2.3005,145.905 -2.03463,195.5604 -1.41954,16.2597 -1.59337,17 -3.992,17 -2.3622,0 -2.33851,0.7028 -0.56096,-16.6432 0.781,-7.6212 1.70018,-20.6068 2.04263,-28.8568 0.34246,-8.25 1.04537,-24.225 1.56203,-35.5 2.02967,-44.2931 0.67537,-114.853 -3.03259,-158 -0.54356,-6.325 -2.75534,-25.45 -4.91506,-42.5 -5.4309,-42.8744 -14.74365,-83.7198 -28.69361,-125.8489 -10.03134,-30.2948 -11.69894,-34.1185 -30.15834,-69.1511 -9.68667,-18.3835 -11.75556,-21.5154 -25.59717,-38.75 -8.28231,-10.3125 -15.4118,-18.75 -15.84331,-18.75 -0.43151,0 -0.78457,0.6132 -0.78457,1.3625 0,1.5908 -4.5663,7.7287 -9.23514,12.4136 -5.17584,5.1937 -17.03458,11.1643 -23.26486,11.7134 -1.1,0.097 -2,0.4234 -2,0.7253 0,0.3019 5.10393,6.3396 11.34207,13.4171 10.57269,11.9953 12.28405,14.564 25.22878,37.8681 7.6377,13.75 15.00929,28.15 16.38132,32 1.37203,3.85 6.27004,17.575 10.88447,30.5 4.61443,12.925 9.16341,27.1 10.10885,31.5 0.94544,4.4 4.36998,19.7 7.61009,34 7.82324,34.5273 13.04593,76.8016 15.96436,129.2211 1.80791,32.4727 1.91277,40.5446 1.01336,78 -1.22125,50.8582 -2.44909,77.8537 -4.66335,102.5289 -1.66203,18.5213 -1.71115,18.75 -4.02625,18.75 -1.28904,0 -2.3437,-0.1243 -2.3437,-0.2762 z m -196.5,-255.3222 22,-1.6408 31.5,-8.4114 c 40.93727,-10.9314 75.4197,-24.0408 113.9226,-43.3106 l 20.03022,-10.0247 -0.60278,-3.257 c -1.05855,-5.7197 -9.28668,-42.0296 -9.5738,-42.2482 -0.15193,-0.1157 -12.6552,6.36 -27.78505,14.3904 -15.12985,8.0304 -32.00485,16.3579 -37.5,18.5056 -5.49515,2.1476 -18.76619,7.6094 -29.49119,12.1374 -12.73448,5.3763 -24.87772,9.6766 -35,12.3947 -8.525,2.2891 -20.225,5.6982 -26,7.5759 -6.72529,2.1866 -15.89244,4.1473 -25.5,5.4541 -8.25,1.1221 -18.47429,2.7759 -22.72066,3.675 -7.38859,1.5644 -8.70037,1.5342 -30.5,-0.701 l -22.77934,-2.3357 -21.48025,-8.8385 c -11.81413,-4.8612 -22.61413,-9.5728 -24,-10.4704 -1.38586,-0.8975 -10.16975,-7.577 -19.51975,-14.8432 -23.47326,-18.2418 -39.18157,-34.7533 -63.22097,-66.4532 -10.82449,-14.2738 -15.69756,-19.8185 -21.33201,-24.2721 -4.36586,-3.4509 -7.66719,-5.4077 -8.20909,-4.8658 -0.49853,0.4985 -1.36153,4.221 -1.91777,8.2722 l -1.01135,7.3657 4.1708,9 c 2.29393,4.95 6.66759,14.85 9.71924,22 5.88262,13.783 9.81011,19.8238 28.02686,43.1076 6.56888,8.396 13.04266,15.4053 18.01025,19.5 4.26536,3.5158 13.61251,11.3635 20.77144,17.4392 l 13.01626,11.0467 25.48817,12.0599 c 14.01849,6.633 27.06317,12.3652 28.98817,12.7383 1.925,0.3731 9.48719,1.5626 16.80486,2.6433 l 13.30486,1.965 4.69514,-2.0833 c 2.58233,-1.1459 5.82014,-3.3952 7.19514,-4.9984 1.86388,-2.1733 3.70862,-3.0772 7.25,-3.5526 3.95144,-0.5303 4.75,-0.3688 4.75,0.9609 0,0.8791 0.94995,4.1374 2.11099,7.2405 l 2.11099,5.6422 6.13901,-0.5834 c 3.37646,-0.3209 16.03901,-1.3218 28.13901,-2.2243 z m 23.57568,-50.7162 c 12.96662,-3.0307 25.11662,-5.7922 27,-6.1366 3.64078,-0.666 4.411,-0.8697 7.17432,-1.8977 3.0726,-1.1431 4.76311,-1.6025 5.05448,-1.3737 0.15591,0.1225 1.50119,-0.5752 2.9895,-1.5504 1.48831,-0.9752 2.70602,-1.5219 2.70602,-1.2148 0,0.307 1.0125,0 2.25,-0.6915 1.2375,-0.6874 2.475,-1.3046 2.75,-1.3716 0.91999,-0.2241 4.46726,-1.6486 7.87682,-3.1632 1.85725,-0.825 3.88225,-1.586 4.5,-1.691 0.61775,-0.1051 2.13568,-0.7477 3.37318,-1.4281 1.2375,-0.6804 2.25,-0.9412 2.25,-0.5795 0,0.3617 0.5625,0.2021 1.25,-0.3547 0.6875,-0.5568 5.975,-2.853 11.75,-5.1026 5.775,-2.2497 17.80508,-7.8567 26.73351,-12.46 8.92842,-4.6033 16.46592,-8.1372 16.75,-7.8531 0.28407,0.2841 0.51649,-0.035 0.51649,-0.7092 0,-0.6741 0.45,-0.9476 1,-0.6077 0.55,0.34 1,0.115 1,-0.5 0,-0.6149 0.45,-0.8399 1,-0.5 0.55,0.34 1,0.2045 1,-0.301 0,-0.5055 4.725,-3.0806 10.5,-5.7225 5.775,-2.6418 10.5,-5.2064 10.5,-5.6989 0,-0.4926 0.4176,-0.6375 0.928,-0.3221 1.45341,0.8983 2.15557,-2.6916 1.16936,-5.9784 -0.49131,-1.6374 -3.45343,-10.1771 -6.58249,-18.9771 -3.12906,-8.8 -5.84055,-16.675 -6.02553,-17.5 -0.18497,-0.825 -0.427,-1.6125 -0.53783,-1.75 -0.11083,-0.1375 -0.31401,-0.7 -0.45151,-1.25 -0.1375,-0.55 -0.3625,-1.225 -0.5,-1.5 -0.1375,-0.275 -0.30625,-0.9125 -0.375,-1.4166 -0.0688,-0.5042 -0.4625,-1.2542 -0.875,-1.6667 -0.4125,-0.4125 -0.75,-1.3207 -0.75,-2.0182 0,-0.6976 -0.52479,-2.5351 -1.16621,-4.0834 -0.64141,-1.5483 -1.26016,-3.1526 -1.375,-3.5651 -0.11483,-0.4125 -0.32129,-0.975 -0.45879,-1.25 -0.1375,-0.275 -0.32837,-0.8375 -0.42416,-1.25 -0.65575,-2.8239 -1.84135,-5.25 -2.56568,-5.25 -0.47028,0 -1.37485,-1.575 -2.01016,-3.5 -0.63531,-1.925 -1.53988,-3.5 -2.01016,-3.5 -0.47029,0 -1.17104,-1.0125 -1.55723,-2.25 -0.3862,-1.2375 -0.99813,-2.475 -1.35986,-2.75 -0.36172,-0.275 -4.86052,-7.7625 -9.99732,-16.6389 -8.60736,-14.8736 -10.64898,-17.5786 -26.03906,-34.5003 -16.11403,-17.7177 -17.35507,-18.8275 -35.40307,-31.659 -17.37958,-12.3563 -20.24088,-13.9938 -40.41847,-23.1312 -19.83696,-8.983 -23.83356,-10.3972 -46.21483,-16.35258 -22.49186,-5.98479 -26.52435,-6.74384 -49.19784,-9.26064 -23.95928,-2.65952 -25.42456,-2.70956 -49,-1.67343 -23.62717,1.0384 -24.85766,1.19809 -44.30216,5.74933 -19.49397,4.56282 -20.35422,4.87296 -34,12.25752 -13.58285,7.3506 -14.23484,7.8551 -21.88159,16.9313 -7.58035,8.9974 -8.0304,9.8217 -11.77499,21.5664 l -3.8934,12.2115 0.60911,14.5 c 0.55503,13.2127 1.05788,16.1815 5.66393,33.4398 5.57304,20.8814 6.25791,22.6281 18.3914,46.9044 8.80236,17.6115 11.3368,21.5447 28.13002,43.6558 8.62243,11.3529 13.03011,15.9652 27.7133,29 16.90402,15.0063 18.02397,15.8004 35.16209,24.9316 l 17.70195,9.4315 20.58909,4.7975 20.58909,4.7975 25.5,-0.3812 25.5,-0.3812 23.57568,-5.5103 z m 238.86775,-56.5462 c 7.03493,-4.2755 46.25601,-31.9428 59.81852,-42.197 5.3201,-4.0224 24.91376,-20.7666 46.29182,-39.5599 5.23431,-4.6014 26.38329,-30.9959 28.35706,-35.3903 0.77456,-1.7245 -0.12169,-2.9603 -5.99031,-8.2599 -3.79563,-3.4276 -10.15087,-9.5659 -14.12275,-13.6407 l -7.22159,-7.4086 -10.54986,9.9086 c -31.42087,29.5111 -55.95403,50.2071 -83.8277,70.7166 -15.84076,11.6556 -32.94076,23.8138 -38,27.0181 -5.05924,3.2043 -9.58633,6.202 -10.06019,6.6615 -0.47881,0.4644 0.26856,4.3179 1.68226,8.674 1.39912,4.3112 3.9763,14.3634 5.72708,22.3384 1.75078,7.975 3.37678,14.8278 3.61333,15.2283 0.23655,0.4006 4.12207,-1.5877 8.63449,-4.4184 4.51243,-2.8308 11.55395,-7.1825 15.64784,-9.6706 z M 144.45454,1032.6979 c -1.61475,-2.8875 -10.67268,-19.2485 -20.12874,-36.35774 l -17.19284,-31.10777 -12.19305,-5.1913 c -9.11772,-3.88195 -16.73897,-6.1988 -30.21672,-9.18583 -9.91302,-2.19699 -23.64867,-5.30067 -30.52367,-6.89706 -10.12994,-2.35219 -17.42972,-3.21476 -38.5,-4.54928 -35.57431,-2.25317 -39.52366,-2.13528 -67.5,2.01477 l -24.5,3.63437 -18,7.02532 c -17.62804,6.88014 -22.35547,9.56662 -31.25,17.75854 -3.30977,3.04832 -4.25671,5.39126 -2,4.94839 0.6875,-0.13492 4.35077,0.35825 8.14061,1.09592 7.71584,1.50186 18.90716,1.01323 32.60939,-1.42379 6.1797,-1.09909 15.79855,-1.51214 35.23685,-1.51313 22.928,-10e-4 30.75516,0.43128 54.944,3.03568 26.77033,2.88236 29.56931,3.38691 54.94885,9.90519 21.14973,5.43193 29.31676,8.02395 39.056,12.39546 6.77287,3.04006 17.71223,7.83786 24.3097,10.66196 6.59748,2.824 12.67248,5.7288 13.5,6.4551 2.45595,2.1557 31.09751,22.5452 31.6696,22.5452 0.28926,0 -0.79524,-2.3625 -2.40998,-5.25 z m 132.64238,-71.49996 c 1.17879,-2.3375 1.96086,-4.25 1.73793,-4.25 -0.72119,0 -3.32543,4.42959 -4.11543,7 -1.02556,3.33685 -0.22519,2.41109 2.3775,-2.75 z"
         id="path11014"
         style="fill:#a2a252" />
      <path
         d="m 256.19952,1563.3383 c 0,-1.6186 0.4836,-6.7561 1.07466,-11.4166 2.37549,-18.7309 4.73449,-73.3606 4.84928,-112.2994 0.15941,-54.0761 -2.50538,-102.3358 -8.01617,-145.1744 -2.19333,-17.05 -4.149,-31.9 -4.34593,-33 -1.25648,-7.0183 -1.83633,-9.5 -2.21974,-9.5 -0.23943,0 -9.75185,4.9067 -21.13871,10.9038 -14.11897,7.4359 -31.35759,15.2751 -54.20339,24.6488 -32.66564,13.4028 -34.30945,13.9552 -66,22.1814 l -32.5,8.4363 -24.18908,1.1041 c -23.81437,1.087 -24.19781,1.1389 -24.75283,3.3502 -0.31006,1.2354 -8.21535,39.8866 -17.56732,85.8915 -9.35196,46.005 -17.72857,86.8716 -18.61469,90.8147 -2.90726,12.9368 -8.18738,18.7011 -20.63942,22.5318 -11.57837,3.5619 -20.39491,0.5756 -27.76846,-9.4056 -4.97993,-6.7411 -6.10555,-11.6412 -4.9139,-21.3915 0.50855,-4.161 8.73338,-45.8155 18.27739,-92.5655 l 17.35275,-85 -4.59222,-1.2455 c -2.52572,-0.685 -5.76775,-1.468 -7.20452,-1.74 -9.19368,-1.7402 -17.01615,-5.0842 -30.7543,-13.1468 -1.99837,-1.1728 -10.1584,-5.739 -18.1334,-10.147 -15.85669,-8.7644 -18.89083,-11.0245 -33.00766,-24.5866 -5.22922,-5.0237 -13.35021,-12.7341 -18.04666,-17.1341 -6.01481,-5.6351 -12.11538,-13.0253 -20.63747,-25 -6.65416,-9.35 -13.53008,-18.7926 -15.27983,-20.9837 -1.74974,-2.1911 -8.76596,-15.0977 -15.59159,-28.6814 -12.01812,-23.9173 -12.63049,-25.452 -19.38074,-48.5726 -3.83377,-13.1313 -7.27504,-25.7795 -7.64726,-28.1073 -0.37223,-2.3278 -1.02772,-4.1024 -1.45665,-3.9436 -0.42894,0.1587 -17.13114,16.2853 -37.11601,35.8368 -19.98487,19.5515 -37.78123,36.5573 -39.54745,37.7906 -4.70713,3.2868 -14.12091,6.3322 -19.36406,6.2643 -8.3533,-0.1081 -14.67855,-3.9278 -19.85014,-11.987 -6.55701,-10.2182 -6.3869,-16.71 0.76117,-29.0476 4.28105,-7.3891 9.88261,-13.1492 68.16435,-70.0937 34.925,-34.1237 70.7,-69.40729 79.5,-78.40806 l 16,-16.36503 21,-10.47362 c 18.82026,-9.38648 22.24556,-10.74725 33,-13.10987 6.6,-1.44994 16.95,-3.77021 23,-5.15615 9.01556,-2.0653 16.14151,-2.77352 39.5,-3.92575 l 28.5,-1.40584 30.5,3.38816 30.5,3.38817 29.10511,7.95908 c 16.66909,4.55833 31.66888,9.25327 35.10531,10.98797 l 6.0002,3.02889 -0.0611,-6.69135 c -0.0542,-5.94304 0.3771,-7.5025 3.85679,-13.94445 3.96121,-7.33336 8.51297,-11.89379 13.99364,-14.02028 1.65,-0.6402 40.20795,-10.62065 85.68433,-22.17878 l 82.68433,-21.01478 63.29576,-40.11359 c 34.81266,-22.06248 65.10471,-41.08242 67.31567,-42.26654 5.24602,-2.8096 20.2204,-3.04289 25.16981,-0.39211 5.82924,3.12199 10.90723,10.26106 12.76064,17.93999 2.73609,11.33597 0.37066,19.55162 -7.70973,26.77765 -1.76044,1.57431 -30.08525,19.88569 -62.94401,40.69196 l -59.74315,37.82957 -0.1228,23 c -0.0675,12.65 -0.33928,22.1 -0.60387,21 -0.26458,-1.1 -0.8524,-2.39252 -1.30626,-2.87226 -0.45386,-0.47975 -0.34333,0.87025 0.24561,3 1.62911,5.89118 1.0438,13.11242 -1.47095,18.14772 -3.14122,6.28969 -8.88329,10.61593 -17.5859,13.24973 -6.41151,1.94041 -8.0185,2.0804 -12.81767,1.11659 -6.74478,-1.35455 -10.31132,-3.81204 -15.2213,-10.48806 -4.896,-6.65701 -5.75473,-10.85577 -6.06479,-29.65372 -0.14062,-8.525 -0.36028,-15.60986 -0.48814,-15.74413 -0.57114,-0.59981 -100.56951,25.33556 -100.57329,26.08448 -0.005,0.93836 27.34769,50.73271 30.02496,54.65961 1.85154,2.7158 1.87857,4.959 0.11225,9.3151 -0.6278,1.5483 -1.14145,3.1998 -1.14145,3.67 0,0.4702 -2.69439,3.5493 -5.98754,6.8425 -8.81254,8.8125 -19.05241,14.0346 -28.37524,14.4707 l -4.31185,0.2017 12.08731,13.3396 c 6.64803,7.3367 12.58605,14.0867 13.1956,15 0.60956,0.9132 7.22853,12.4604 14.70884,25.6604 12.72433,22.4538 14.05357,25.316 20.63235,44.4261 3.8675,11.2343 6.87774,20.5801 6.68944,20.7684 -0.18831,0.1883 -3.61043,-9.0034 -7.60473,-20.4261 -6.87364,-19.6567 -8.01683,-22.0797 -21.35801,-45.2684 l -14.09565,-24.5 -16.82325,-18.4296 c -15.38573,-16.8549 -18.08079,-19.3191 -31.54026,-28.8386 -8.09435,-5.7249 -16.29201,-11.6221 -18.21701,-13.1049 -1.925,-1.4828 -8.9,-5.1113 -15.5,-8.0634 -6.6,-2.952 -16.06878,-7.3097 -21.04173,-9.6837 -6.34599,-3.0295 -16.78104,-6.3992 -35,-11.30218 -23.97127,-6.45107 -27.75379,-7.18596 -49.41501,-9.60061 -12.90121,-1.43814 -23.70121,-2.671 -24,-2.73969 -0.29879,-0.0687 -11.56826,0.23231 -25.04326,0.6689 l -24.5,0.79379 -21,4.95499 c -20.31733,4.79391 -21.43049,5.1873 -34.24258,12.1011 -12.68716,6.8464 -13.57834,7.5399 -21.24765,16.5343 -7.87512,9.2357 -8.07198,9.6004 -12.12751,22.4639 l -4.12244,13.0757 0.69268,15.085 c 0.63162,13.7553 1.13028,16.7158 5.65681,33.585 3.82519,14.2556 6.47303,21.7121 11.54086,32.5 12.42036,26.4394 16.82251,33.5841 36.03144,58.4787 6.58097,8.5289 13.0922,15.2767 25.33771,26.2585 14.16916,12.7069 18.23389,15.7454 28.98068,21.664 23.74844,13.0792 24.74876,13.4625 49,18.7764 l 22.5,4.9303 24,-0.6176 c 23.13509,-0.5953 24.55622,-0.7504 39.43428,-4.3039 8.48886,-2.0275 15.91386,-3.659 16.5,-3.6255 0.58615,0.034 -5.00928,1.8341 -12.43428,4.0013 -11.63068,3.3947 -16.06166,4.1457 -32,5.4231 -10.175,0.8155 -20.84419,1.8698 -23.70932,2.343 -4.10735,0.6782 -9.81887,0.1576 -27,-2.4611 l -21.79068,-3.3212 -20.88009,-9.4542 -20.88008,-9.4542 -18.38477,-15.2037 c -10.11162,-8.362 -19.16559,-16.2072 -20.11992,-17.4337 -0.95432,-1.2265 -7.16281,-8.9283 -13.79663,-17.1151 -13.98892,-17.2637 -17.29803,-22.0422 -27.96648,-40.3851 -8.20891,-14.114 -23.32475,-44.6217 -25.517,-51.5 -0.70119,-2.2 -4.08944,-9.9375 -7.52943,-17.1945 -4.83615,-10.2024 -6.41408,-14.6844 -6.95806,-19.7639 -0.38693,-3.6132 -1.09187,-6.8094 -1.56653,-7.1027 -0.47466,-0.2934 -6.34015,4.8044 -13.03441,11.3285 l -12.17139,11.8619 1.24905,12.9354 c 1.05614,10.9374 2.32259,16.5385 8.1994,36.2632 6.58815,22.1123 7.55074,24.5075 18.4719,45.9636 10.0923,19.8277 12.84229,24.3149 22.16826,36.1721 5.85568,7.4451 13.49744,17.3614 16.98169,22.0364 4.29872,5.7679 10.41711,11.9933 19.03474,19.3678 6.98486,5.9773 16.52475,14.3456 21.19975,18.5962 7.83437,7.1232 10.53605,8.7541 34.5,20.8266 22.50889,11.3395 27.2756,13.3683 35.5,15.109 18.64905,3.9473 21.0759,4.1878 26.82599,2.6582 l 5.326,-1.4168 -0.63022,3.6795 c -0.34663,2.0238 -8.82591,44.1795 -18.84286,93.6795 -14.05229,69.4412 -17.90537,90.0773 -16.8675,90.3384 0.73982,0.1862 1.53447,0.1491 1.76589,-0.082 0.23141,-0.2314 9.19085,-43.1319 19.90985,-95.3344 11.64457,-56.7101 19.96747,-95.0731 20.67759,-95.3098 0.65367,-0.2179 3.02152,-2.0699 5.26188,-4.1156 2.43237,-2.221 5.56465,-3.9912 7.77507,-4.394 3.68773,-0.6722 3.70576,-0.6585 4.77889,3.6116 0.59246,2.3574 1.73919,5.4806 2.54831,6.9405 0.80911,1.4599 1.47111,3.3173 1.47111,4.1276 0,3.6888 2.023,3.8461 27.64867,2.1496 l 24.85133,-1.6452 33,-9.0374 c 30.13775,-8.2536 35.90562,-10.2044 66.5,-22.4916 24.00729,-9.6417 38.74224,-16.2482 52,-23.3144 17.67532,-9.4207 18.48729,-9.9847 18.21486,-12.6516 -0.55981,-5.4802 -9.85307,-47.1888 -10.71969,-48.1104 -0.16504,-0.1755 -12.38147,5.8071 -27.14762,13.2948 -14.76615,7.4877 -26.17255,13.1129 -25.34755,12.5005 0.825,-0.6124 12.91479,-6.9845 26.86619,-14.1602 l 25.3662,-13.0468 -0.51453,-4.1346 c -1.10892,-8.9111 1.48346,0.8491 8.83187,33.2516 5.17984,22.8402 8.33367,39.4238 9.98437,52.5 1.32707,10.5126 3.33796,25.8638 4.46865,34.1138 1.15348,8.4163 2.68776,28.8258 3.49563,46.5 0.7919,17.325 1.6228,33.75 1.84643,36.5 0.63769,7.8415 -1.08982,97.8898 -2.28293,119 -1.57535,27.8733 -5.06188,60.8594 -5.06188,47.8904 z M 147.17923,1037.6979 c -2.24849,-3.9875 -5.07626,-9.275 -6.28394,-11.75 -1.20767,-2.475 -2.64577,-4.8306 -3.19577,-5.2346 -0.55,-0.4041 -0.70352,-0.7416 -0.34115,-0.75 0.69959,-0.016 -20.83023,-39.32055 -24.0178,-43.84629 -2.21683,-3.14748 -6.61267,-11.65869 -6.03891,-11.69254 0.21882,-0.0129 -0.51871,-1.00729 -1.63897,-2.20975 -4.14236,-4.4463 -17.45929,-9.24022 -46.77663,-16.83899 l -29.18654,-7.56485 -30.5,-2.97308 -30.5,-2.97307 -27.5,1.6422 c -30.13429,1.79951 -31.5887,2.05545 -62,10.91044 -18.92809,5.51137 -19.9106,5.9295 -33.5,14.25631 -28.00167,17.15785 -26.58279,15.95665 -36.69465,31.06509 l -9.07313,13.55643 1.85197,3.5764 c 2.67517,5.166 11.21329,14.919 15.35693,17.542 l 3.55888,2.2528 4.68748,-7.3152 c 4.18296,-6.5278 5.42073,-7.6865 11.5,-10.7654 3.74689,-1.8977 11.96451,-6.4175 18.26138,-10.04406 6.29687,-3.62659 12.07379,-6.5938 12.83759,-6.5938 0.7638,0 10.23681,-2.06126 21.05114,-4.58058 17.94549,-4.18061 21.32149,-4.65661 38.66241,-5.45119 10.45,-0.47884 21.925,-1.13369 25.5,-1.45522 3.92554,-0.35307 17.388,0.44073 33.98999,2.00417 26.31134,2.4778 28.58724,2.86371 53.08184,9.00082 23.99873,6.01287 27.04968,7.04624 49.01002,16.59996 22.8726,9.9506 23.84913,10.497 41.91815,23.4547 10.175,7.2966 18.85277,13.3028 19.28394,13.347 0.43117,0.044 -1.05574,-3.1822 -3.30423,-7.1697 z m 132.14162,-80.66844 2.07619,-3.58152 -2.16322,2.5 c -2.3867,2.75827 -5.05619,8.21886 -4.99516,10.21788 0.0215,0.70517 0.70668,-0.2562 1.52257,-2.13636 0.81588,-1.88016 2.41771,-5.03016 3.55962,-7 z m 29.35673,607.66844 c 0.97731,-2.9417 3.6443,-42.8877 5.02406,-75.25 2.23598,-52.4449 1.95539,-89.8861 -1.01171,-135 -3.5799,-54.4314 -8.46613,-91.5835 -17.62361,-134 -6.67848,-30.9339 -7.79668,-34.9095 -17.86057,-63.5 -8.35803,-23.7443 -12.7351,-34.4869 -19.76125,-48.5 -17.52894,-34.9599 -20.14123,-39.2068 -37.27292,-60.5964 -8.8568,-11.0581 -15.90467,-20.3043 -15.66193,-20.547 0.24273,-0.2428 4.6547,4.8652 9.80436,11.351 5.14966,6.4859 12.56494,15.6682 16.4784,20.4051 5.68907,6.8863 10.05667,14.2283 21.78848,36.627 12.1891,23.2718 15.83829,31.2939 21.55594,47.3873 3.78556,10.6552 7.3737,20.6409 7.97366,22.1905 l 1.09082,2.8175 2.74911,-1.9035 c 3.82791,-2.6505 5.2491,-3.4281 5.2491,-2.872 0,0.2626 -1.5871,1.4583 -3.52689,2.6572 -3.28317,2.0291 -3.47964,2.4321 -2.84308,5.8315 0.3761,2.0085 1.31237,5.1577 2.08061,6.9983 0.76823,1.8405 3.15889,11.0655 5.31258,20.5 4.47326,19.5956 5.01669,21.6535 5.71791,21.6535 1.35047,0 35.68072,-22.1943 47.43736,-30.668 19.86572,-14.3183 23.47227,-16.8203 21.82151,-15.1384 -4.00979,4.0854 -37.44422,27.6545 -52.7072,37.1551 -9.87799,6.1487 -17.03859,11.2306 -16.81134,11.9311 1.20738,3.7219 5.43951,25.0971 5.98336,30.2202 0.35032,3.3 2.17901,18.15 4.06376,33 1.88475,14.85 3.88503,33.975 4.44506,42.5 0.56003,8.525 1.25535,18.875 1.54515,23 0.28981,4.125 0.96268,13.8 1.49528,21.5 1.23154,17.8047 1.25492,83.2851 0.0384,107.5 -0.51118,10.175 -1.20382,26.15 -1.53919,35.5 -0.33537,9.35 -0.79286,19.025 -1.01665,21.5 -0.22378,2.475 -0.70775,7.875 -1.07549,12 -0.36774,4.125 -0.7805,8.4 -0.91725,9.5 -0.13675,1.1 -0.30606,2.7875 -0.37626,3.75 -0.0702,0.9625 -0.5635,1.75 -1.09624,1.75 -0.53273,0 -0.78173,-0.5625 -0.55332,-1.25 z M 95.01202,1257.2648 c 0.72187,-0.2888 1.58438,-0.2533 1.91667,0.079 0.33229,0.3323 -0.25834,0.5687 -1.3125,0.5253 -1.16495,-0.048 -1.4019,-0.285 -0.60417,-0.6042 z m 5.1875,-1.3169 c 1.375,-0.4403 3.4,-0.8006 4.5,-0.8006 1.58367,0 1.47958,0.1667 -0.5,0.8006 -1.375,0.4404 -3.4,0.8007 -4.5,0.8007 -1.58367,0 -1.47958,-0.1667 0.5,-0.8007 z m 7.8125,-1.6831 c 0.72187,-0.2888 1.58438,-0.2533 1.91667,0.079 0.33229,0.3323 -0.25834,0.5687 -1.3125,0.5253 -1.16495,-0.048 -1.4019,-0.285 -0.60417,-0.6042 z m 4.6401,-1.0452 c 1.07393,-0.273 11.59717,-4.285 23.38498,-8.9157 11.78781,-4.6306 21.59666,-8.255 21.79746,-8.0543 0.63825,0.6383 -43.2797,17.7034 -45.24887,17.5823 -1.7808,-0.1095 -1.77709,-0.1437 0.0664,-0.6123 z m 63.63073,-24.6362 c 0.22917,-0.2005 1.54167,-0.9003 2.91667,-1.5552 2.35727,-1.1226 2.38918,-1.1018 0.55887,0.3646 -1.593,1.2762 -4.84786,2.3913 -3.47554,1.1906 z m 120.87943,-69.3092 c 1.35451,-1.0045 15.26507,-11.1962 30.91235,-22.6484 34.64087,-25.3535 65.63522,-52.3493 81.22049,-70.7422 5.56251,-6.5646 10.31075,-11.9357 10.55162,-11.9357 0.44172,0 -8.42424,11.41 -14.0878,18.1303 -6.31171,7.4893 -48.22583,44.1806 -61.87494,54.1648 -28.33504,20.7269 -43.24612,31.4203 -46.18448,33.121 -2.95693,1.7114 -2.96465,1.7102 -0.53724,-0.09 z m 315.22148,-44.406 c -5.59359,-1.0867 -10.54542,-4.1967 -13.95565,-8.765 -1.50072,-2.0104 -3.19492,-4.1537 -3.76488,-4.763 -0.56996,-0.6092 -13.09388,-21.6467 -27.83093,-46.75 -14.73705,-25.1032 -27.11878,-45.6423 -27.51494,-45.6423 -0.39617,0 -6.30702,5.7375 -13.13522,12.75 -6.8282,7.0125 -24.08786,24.54 -38.35479,38.9499 l -25.93987,26.1999 -2.59398,-2.0131 c -12.14254,-9.4233 -21.87337,-18.6417 -28.85281,-27.3335 -3.115,-3.8792 -5.79083,-7.2379 -5.94627,-7.4637 -0.15545,-0.2258 -1.28725,0.4492 -2.51511,1.5 -1.22785,1.0508 -0.83617,0.2707 0.87042,-1.7336 1.70659,-2.0044 4.14277,-5.4945 5.41374,-7.7558 1.27097,-2.2614 2.59222,-3.6564 2.93611,-3.1 0.34389,0.5565 20.80269,-19.4948 45.464,-44.55822 26.07237,-26.49755 45.12146,-45.11248 45.51426,-44.47692 0.3979,0.64382 1.40229,-0.25648 2.44391,-2.19065 2.31722,-4.30283 8.64676,-9.01153 13.86917,-10.31762 5.27692,-1.31973 15.9053,-0.11218 19.96627,2.26849 1.66518,0.97617 4.7376,3.79986 6.82761,6.27486 4.6866,5.54989 74.82532,124.58076 77.48622,131.49996 1.2549,3.2634 1.9237,7.5029 1.9256,12.2062 0.01,14.2639 -7.6197,21.6685 -26.4971,25.7298 -0.825,0.1775 -3.44209,-0.055 -5.81576,-0.5157 z"
         id="path11012"
         style="fill:#676833" />
      <path
         d="m -50.69572,1520.3129 c -8.88905,-4.4297 -14.4953,-13.8143 -14.25654,-23.865 0.10268,-4.322 30.82429,-159.6453 35.6228,-180.1029 0.44058,-1.8783 1.21615,-2.1056 7.26112,-2.1274 3.72232,-0.014 9.38919,-0.7207 12.59304,-1.5718 l 5.82517,-1.5473 -0.6294,3.6747 c -0.34617,2.0211 -8.82509,44.1747 -18.84204,93.6747 -14.05229,69.4412 -17.90537,90.0773 -16.8675,90.3384 0.73982,0.1862 1.53447,0.1491 1.76589,-0.082 0.23141,-0.2314 9.19085,-43.1319 19.90985,-95.3344 11.64457,-56.7101 19.96747,-95.0731 20.67759,-95.3098 0.65367,-0.2179 3.02152,-2.0699 5.26188,-4.1156 2.43237,-2.221 5.56465,-3.9912 7.77507,-4.394 3.68648,-0.6719 3.70618,-0.6571 4.79174,3.6116 0.59952,2.3574 1.52803,5.1862 2.06335,6.2862 3.43378,7.0559 3.82319,4.575 -16.08479,102.4759 -10.45987,51.4383 -19.79511,95.0354 -20.74497,96.8826 -6.10212,11.8668 -23.97458,17.5599 -36.12226,11.5064 z m -273.35042,-351.9636 c -5.38062,-1.6546 -10.35183,-6.152 -14.35993,-12.9913 -2.12506,-3.6262 -2.70319,-5.8723 -2.66112,-10.3389 0.0526,-5.5807 1.54995,-9.4191 8.02489,-20.5712 0.958,-1.65 25.81682,-26.5874 55.24182,-55.4164 29.425,-28.829 59.0351,-57.854 65.80022,-64.5 7.79393,-7.65664 11.9523,-11.14912 11.35055,-9.53295 -1.20107,3.22586 -0.40131,7.68515 1.99141,11.10375 1.0218,1.4599 1.85782,2.9631 1.85782,3.3405 0,1.5435 9.84252,12.0624 14.52309,15.5211 6.24953,4.6182 12.75746,7.984 15.43707,7.984 3.62622,0 2.19722,2.5122 -5.71016,10.0386 -17.0429,16.2217 -71.1824,68.7927 -94.75,92.005 -13.75,13.5426 -26.932,26.1013 -29.29333,27.9081 -4.67123,3.5742 -14.51682,7.0895 -19.54576,6.9787 -1.7385,-0.038 -5.29646,-0.7264 -7.90657,-1.529 z m 934.0883,-54.376 c -5.02073,-1.5168 -8.98107,-4.5349 -13.15544,-10.0254 -2.29987,-3.025 -16.17164,-25.8734 -30.82615,-50.7742 l -26.64457,-45.2743 -28.35824,29.129 c -15.59703,16.021 -29.82937,30.1418 -31.62742,31.3796 -2.96859,2.0436 -6.98019,5.5317 -15.87425,13.8025 -3.14101,2.9209 -3.14563,2.9218 -5.9835,1.0803 -1.56203,-1.0136 -3.58978,-2.5179 -4.50611,-3.3429 -0.91633,-0.825 -4.48179,-3.975 -7.92325,-7 -3.44146,-3.025 -9.2939,-9.0499 -13.00543,-13.3887 l -6.74824,-7.8887 8.15498,-9.9715 c 16.88967,-20.6518 88.79171,-94.76867 88.03913,-90.75106 -0.43395,2.31663 -0.37353,2.36104 0.82377,0.60551 4.83202,-7.08487 7.8532,-10.25492 11.79208,-12.37311 4.00843,-2.15559 5.34383,-2.35871 12.22465,-1.85943 9.3298,0.67699 14.2893,2.97562 19.10171,8.85326 5.25498,6.41818 75.17294,125.77673 77.28484,131.93483 1.0659,3.1081 1.8205,8.0874 1.8058,11.9168 -0.03,7.7805 -3.0565,13.9391 -9.1538,18.6256 -6.60532,5.0771 -18.19747,7.5039 -25.42056,5.3219 z m -447.71412,-56.8532 c -2.49694,-0.3612 -7.04316,-4.7955 -7.09692,-6.9222 -0.0174,-0.6875 -0.4816,-1.25 -1.0316,-1.25 -0.55,0 -1,-0.3738 -1,-0.8308 0,-0.457 -9.9,-18.7072 -22,-40.556 -12.1,-21.84886 -22,-40.16879 -22,-40.71098 0,-0.5422 -0.8456,-1.89345 -1.87912,-3.0028 -2.5588,-2.74655 -4.0477,-10.90895 -3.00651,-16.48215 0.94653,-5.06653 6.91321,-15.9889 10.21491,-18.69901 1.19389,-0.97998 3.4987,-2.50083 5.12179,-3.37966 1.62309,-0.87883 40.57026,-11.1509 86.54927,-22.82682 l 83.59819,-21.22894 31.75287,-20.1414 c 17.46408,-11.07777 32.25648,-20.1414 32.872,-20.1414 0.61551,0 1.82955,-0.62582 2.69786,-1.39071 0.86831,-0.7649 15.30374,-10.07168 32.07874,-20.68174 31.73074,-20.06946 35.45906,-21.85185 46.09617,-22.0371 3.05066,-0.0531 6.24512,0.75919 9.5,2.41577 5.75838,2.93074 8.38605,5.5812 11.4863,11.58596 4.36001,8.44474 1.76437,22.23201 -5.79072,30.75853 -1.53546,1.73289 -17.17625,12.24204 -34.7573,23.35366 -17.58106,11.11162 -32.43106,20.76581 -33,21.45376 -0.56895,0.68795 -13.07195,8.85176 -27.78445,18.14181 l -26.75,16.891 -0.0354,22.00453 c -0.0317,19.66704 -0.18863,21.73896 -1.4776,19.50453 -1.41231,-2.44824 -1.4271,-2.42753 -0.71456,1 0.40018,1.925 0.70954,6.425 0.68747,10 -0.0671,10.86531 -6.17055,18.73827 -17.45987,22.52175 -14.28639,4.78791 -26.40659,-0.45167 -33.14224,-14.32744 -2.96728,-6.11274 -2.26516,-14.08921 1.9718,-22.40077 3.17719,-6.23262 3.18145,-6.26032 0.43934,-2.86149 -1.52289,1.88762 -3.29716,4.81262 -3.94282,6.5 -1.00557,2.62796 -1.18483,1.29439 -1.25,-9.29868 -0.0693,-11.25593 -0.23326,-12.32754 -1.82608,-11.93134 -48.23665,11.99835 -99.25,25.42857 -99.25,26.12943 0,0.51045 6.975,13.51167 15.5,28.89159 8.525,15.37991 15.5,28.88181 15.5,30.00421 0,5.1779 -2.60869,10.2214 -8.15629,15.769 -9.84663,9.8467 -23.06114,15.5727 -32.71519,14.1759 z M 379.24896,864.04485 c -2.83629,-5.55958 -3.57313,-5.22833 -0.84784,0.38115 1.19659,2.46293 2.34713,4.30654 2.55677,4.09691 0.20963,-0.20964 -0.55939,-2.22477 -1.70893,-4.47806 z m -10.04944,-14.44192 c 0,-0.18976 -1.0125,-1.20226 -2.25,-2.25 l -2.25,-1.90499 1.90499,2.25 c 1.79022,2.11444 2.59501,2.70524 2.59501,1.90499 z m -532.30798,188.34497 c 0.33181,-2.475 1.23694,-5.4 2.0114,-6.5 1.30896,-1.8591 1.35803,-1.7887 0.6969,1 -0.39117,1.65 -1.2963,4.575 -2.0114,6.5 l -1.30019,3.5 0.60329,-4.5 z m 9.53062,-17.1962 c 2.90255,-4.233 6.34455,-8.1858 7.64889,-8.784 1.94722,-0.893 1.65101,-0.2317 -1.65557,3.6963 -9.85492,11.707 -11.47566,13.0829 -5.99332,5.0877 z"
         id="path11010"
         style="fill:#01f501" />
      <path
         d="m -50.69572,1520.3129 c -8.88905,-4.4297 -14.4953,-13.8143 -14.25654,-23.865 0.10325,-4.3461 30.94323,-160.2337 35.65971,-180.25 0.35569,-1.5095 1.26437,-2.2449 2.76112,-2.2346 5.52946,0.038 6.08036,-3.7535 -13.2243,91.0123 -11.80221,57.9366 -17.82046,89.4929 -17.14698,89.9092 0.57074,0.3527 0.99681,2.6786 0.94683,5.1686 -0.10817,5.3891 1.37094,8.0637 6.38621,11.548 3.28645,2.2832 4.70317,2.5877 11.89492,2.5563 9.45381,-0.041 12.74035,-1.72 14.31443,-7.3115 0.52615,-1.8691 1.53323,-3.8483 2.23794,-4.3983 0.73629,-0.5746 9.57838,-41.8349 20.78713,-97 10.7282,-52.8 19.80934,-97.125 20.1803,-98.5 0.60377,-2.2379 0.7214,-2.2903 1.12208,-0.5 0.24619,1.1 0.8024,2.45 1.23603,3 0.43363,0.55 1.28037,2.8 1.88165,5 0.98575,3.6068 -0.77577,13.1915 -17.91902,97.5 -10.45673,51.425 -19.78939,95.0114 -20.73925,96.8586 -6.10212,11.8667 -23.97458,17.5598 -36.12226,11.5064 z m 32.14524,-206.0543 c 0.9625,-0.2515 2.5375,-0.2515 3.5,0 0.9625,0.2515 0.175,0.4573 -1.75,0.4573 -1.925,0 -2.7125,-0.2058 -1.75,-0.4573 z m -305.49566,-145.9093 c -5.38062,-1.6546 -10.35183,-6.152 -14.35993,-12.9913 -2.12506,-3.6262 -2.70319,-5.8723 -2.66112,-10.3389 0.0526,-5.5807 1.54995,-9.4191 8.02489,-20.5712 0.958,-1.65 25.81682,-26.5874 55.24182,-55.4164 29.425,-28.829 59.0351,-57.854 65.80022,-64.5 7.79393,-7.65664 11.9523,-11.14912 11.35055,-9.53295 -1.20107,3.22586 -0.40131,7.68515 1.99141,11.10375 1.0218,1.4599 1.84414,3.0349 1.82741,3.5 -0.0167,0.4651 -0.50094,0.037 -1.07603,-0.9514 -0.90902,-1.5623 -6.88227,3.9381 -45.71959,42.1002 -24.57068,24.1436 -51.87397,50.7295 -60.67397,59.0798 -23.75806,22.5441 -23.99075,22.8011 -25.80565,28.4979 -3.5282,11.0748 -2.98449,14.5452 2.97344,18.9787 2.84096,2.1141 13.25478,4.8122 14.80596,3.8361 0.56444,-0.3551 1.85883,-0.5086 2.87642,-0.3409 5.29916,0.8732 10.04243,-4.3369 11.36434,-12.4829 0.38652,-2.3819 0.83758,-3.0966 1.39006,-2.2027 0.98552,1.5946 -4.74394,7.0009 65.31334,-61.6289 30.29515,-29.6778 54.96592,-54.3264 54.82393,-54.7745 -0.14199,-0.4481 1.52758,0.096 3.71016,1.2098 2.18258,1.1134 4.88625,2.0244 6.00816,2.0244 3.62622,0 2.19722,2.5122 -5.71016,10.0386 -17.0429,16.2217 -71.1824,68.7927 -94.75,92.005 -13.75,13.5426 -26.932,26.1013 -29.29333,27.9081 -4.67123,3.5742 -14.51682,7.0895 -19.54576,6.9787 -1.7385,-0.038 -5.29646,-0.7264 -7.90657,-1.529 z m 934.0883,-54.376 c -5.02073,-1.5168 -8.98107,-4.5349 -13.15544,-10.0254 -2.29987,-3.025 -16.17164,-25.8734 -30.82615,-50.7742 l -26.64457,-45.2743 -28.35824,29.129 c -15.59703,16.021 -29.82937,30.1418 -31.62742,31.3796 -2.96859,2.0436 -6.98019,5.5317 -15.87425,13.8025 -3.14101,2.9209 -3.14563,2.9218 -5.9835,1.0803 -1.56203,-1.0136 -3.58978,-2.5179 -4.50611,-3.3429 -0.91633,-0.825 -4.48179,-3.975 -7.92325,-7 -3.44146,-3.025 -9.2939,-9.0499 -13.00543,-13.3887 l -6.74824,-7.8887 8.15498,-9.9715 c 16.88967,-20.6518 88.79171,-94.76867 88.03913,-90.75106 -0.43395,2.31663 -0.37353,2.36104 0.82377,0.60551 4.83202,-7.08487 7.8532,-10.25492 11.79208,-12.37311 4.00843,-2.15559 5.34383,-2.35871 12.22465,-1.85943 9.3298,0.67699 14.2893,2.97562 19.10171,8.85326 5.25498,6.41818 75.17294,125.77673 77.28484,131.93483 1.0659,3.1081 1.8205,8.0874 1.8058,11.9168 -0.03,7.7805 -3.0565,13.9391 -9.1538,18.6256 -6.60532,5.0771 -18.19747,7.5039 -25.42056,5.3219 z m 10.44316,-7.6445 c 0.34053,-0.3405 2.40476,-0.7057 4.58717,-0.8116 5.12103,-0.2483 6.64785,-1.6105 8.68722,-7.7505 2.68421,-8.0813 -0.43098,-23.8188 -4.71483,-23.8188 -1.03561,0 -5.0226,-1.0969 -8.85999,-2.4376 l -6.97707,-2.4376 -3.59662,3.6876 c -6.85578,7.0293 -10.53143,18.8637 -7.72717,24.8791 1.78753,3.8344 5.15305,6.1865 11.26682,7.8741 5.45936,1.507 6.52439,1.6254 7.33447,0.8153 z m -458.15728,-49.2087 c -2.49694,-0.3612 -7.04316,-4.7955 -7.09692,-6.9222 -0.0174,-0.6875 -0.4816,-1.25 -1.0316,-1.25 -0.55,0 -1,-0.3738 -1,-0.8308 0,-0.457 -9.9,-18.7072 -22,-40.556 -12.1,-21.84886 -22,-40.16879 -22,-40.71098 0,-0.5422 -0.8456,-1.89345 -1.87912,-3.0028 -2.5588,-2.74655 -4.0477,-10.90895 -3.00651,-16.48215 0.94653,-5.06653 6.91321,-15.9889 10.21491,-18.69901 1.19389,-0.97998 3.4987,-2.50083 5.12179,-3.37966 1.62309,-0.87883 40.57026,-11.1509 86.54927,-22.82682 l 83.59819,-21.22894 31.75287,-20.1414 c 17.46408,-11.07777 32.25648,-20.1414 32.872,-20.1414 0.61551,0 1.82955,-0.62582 2.69786,-1.39071 0.86831,-0.7649 15.30374,-10.07168 32.07874,-20.68174 31.73074,-20.06946 35.45906,-21.85185 46.09617,-22.0371 3.05066,-0.0531 6.24512,0.75919 9.5,2.41577 5.75838,2.93074 8.38605,5.5812 11.4863,11.58596 4.36001,8.44474 1.76437,22.23201 -5.79072,30.75853 -1.53546,1.73289 -17.17625,12.24204 -34.7573,23.35366 -17.58106,11.11162 -32.43106,20.76581 -33,21.45376 -0.56895,0.68795 -13.07195,8.85176 -27.78445,18.14181 l -26.75,16.891 -0.0354,22.00453 c -0.0317,19.66704 -0.18863,21.73896 -1.4776,19.50453 -1.41231,-2.44824 -1.4271,-2.42753 -0.71456,1 0.40018,1.925 0.70954,6.425 0.68747,10 -0.0671,10.86531 -6.17055,18.73827 -17.45987,22.52175 -14.28639,4.78791 -26.40659,-0.45167 -33.14224,-14.32744 -2.96728,-6.11274 -2.26516,-14.08921 1.9718,-22.40077 3.17719,-6.23262 3.18145,-6.26032 0.43934,-2.86149 -1.52289,1.88762 -3.29716,4.81262 -3.94282,6.5 -1.00557,2.62796 -1.18483,1.29439 -1.25,-9.29868 -0.0693,-11.25593 -0.23326,-12.32754 -1.82608,-11.93134 -48.23665,11.99835 -99.25,25.42857 -99.25,26.12943 0,0.51045 6.975,13.51167 15.5,28.89159 8.525,15.37991 15.5,28.88181 15.5,30.00421 0,5.1779 -2.60869,10.2214 -8.15629,15.769 -9.84663,9.8467 -23.06114,15.5727 -32.71519,14.1759 z m 74.37148,-118.5685 36,-9.13804 0.58279,-12.98281 c 0.32054,-7.14055 1.0969,-14.22031 1.72525,-15.73281 0.62835,-1.5125 0.8161,-2.74333 0.41721,-2.73517 -0.39889,0.008 -36.72525,9.16745 -80.72525,20.35397 l -80,20.33914 -0.28938,3.39603 c -0.15915,1.86782 -0.71344,5.79676 -1.23175,8.73098 -1.13113,6.40353 0.093,9.42424 5.61385,13.85324 l 3.67638,2.94929 39.11545,-9.94788 c 21.5135,-5.47134 55.31545,-14.06001 75.11545,-19.08594 z m 119.5,-46.54885 c 23.24241,-14.80076 26.46788,-17.16282 26.23868,-19.215 -0.36218,-3.24289 -5.7222,-13.98618 -8.469,-16.97474 -1.24833,-1.3582 -3.5497,-4.15919 -5.11418,-6.22443 -1.74851,-2.30818 -3.52092,-3.63662 -4.60008,-3.44781 -0.96557,0.16894 -14.87739,8.62872 -30.91515,18.7995 -24.40264,15.47561 -28.77683,18.5947 -26.81349,19.11978 8.28866,2.21672 21.67322,16.63967 21.67322,23.35465 0,0.84328 0.3375,1.51749 0.75,1.49824 0.4125,-0.0192 12.675,-7.62883 27.25,-16.91019 z m -519.30798,145.94515 c 0.33181,-2.475 1.23694,-5.4 2.0114,-6.5 1.30896,-1.8591 1.35803,-1.7887 0.6969,1 -0.39117,1.65 -1.2963,4.575 -2.0114,6.5 l -1.30019,3.5 0.60329,-4.5 z m 9.53062,-17.1962 c 2.90255,-4.233 6.34455,-8.1858 7.64889,-8.784 1.94722,-0.893 1.65101,-0.2317 -1.65557,3.6963 -9.85492,11.707 -11.47566,13.0829 -5.99332,5.0877 z m -37.3502,-2.5538 c -1.24387,-1.586 -1.2085,-1.6214 0.37756,-0.3775 0.9625,0.7548 1.75,1.5423 1.75,1.75 0,0.823 -0.82119,0.2933 -2.12756,-1.3725 z m -3.94813,-5 -2.42431,-2.75 2.75,2.4243 c 2.57029,2.2659 3.20859,3.0757 2.42431,3.0757 -0.17912,0 -1.41662,-1.2375 -2.75,-2.75 z"
         id="path11008"
         style="fill:#e00202" />
      <path
         d="m -50.69572,1520.3129 c -8.88905,-4.4297 -14.4953,-13.8143 -14.25654,-23.865 0.10325,-4.3461 30.94323,-160.2337 35.65971,-180.25 0.35569,-1.5095 1.26437,-2.2449 2.76112,-2.2346 5.52946,0.038 6.08036,-3.7535 -13.2243,91.0123 -11.80221,57.9366 -17.82046,89.4929 -17.14698,89.9092 0.57074,0.3527 0.99681,2.6786 0.94683,5.1686 -0.10817,5.3891 1.37094,8.0637 6.38621,11.548 3.28645,2.2832 4.70317,2.5877 11.89492,2.5563 9.45381,-0.041 12.74035,-1.72 14.31443,-7.3115 0.52615,-1.8691 1.53323,-3.8483 2.23794,-4.3983 0.73629,-0.5746 9.57838,-41.8349 20.78713,-97 10.7282,-52.8 19.80934,-97.125 20.1803,-98.5 0.60377,-2.2379 0.7214,-2.2903 1.12208,-0.5 0.24619,1.1 0.8024,2.45 1.23603,3 0.43363,0.55 1.28037,2.8 1.88165,5 0.98575,3.6068 -0.77577,13.1915 -17.91902,97.5 -10.45673,51.425 -19.78939,95.0114 -20.73925,96.8586 -6.10212,11.8667 -23.97458,17.5598 -36.12226,11.5064 z m 32.14524,-206.0543 c 0.9625,-0.2515 2.5375,-0.2515 3.5,0 0.9625,0.2515 0.175,0.4573 -1.75,0.4573 -1.925,0 -2.7125,-0.2058 -1.75,-0.4573 z m -305.49566,-145.9093 c -5.38062,-1.6546 -10.35183,-6.152 -14.35993,-12.9913 -2.12506,-3.6262 -2.70319,-5.8723 -2.66112,-10.3389 0.0526,-5.5807 1.54995,-9.4191 8.02489,-20.5712 0.958,-1.65 25.81682,-26.5874 55.24182,-55.4164 29.425,-28.829 59.0351,-57.854 65.80022,-64.5 7.79393,-7.65664 11.9523,-11.14912 11.35055,-9.53295 -1.20107,3.22586 -0.40131,7.68515 1.99141,11.10375 1.0218,1.4599 1.84414,3.0349 1.82741,3.5 -0.0167,0.4651 -0.50094,0.037 -1.07603,-0.9514 -0.90902,-1.5623 -6.88227,3.9381 -45.71959,42.1002 -24.57068,24.1436 -51.87397,50.7295 -60.67397,59.0798 -23.75806,22.5441 -23.99075,22.8011 -25.80565,28.4979 -3.5282,11.0748 -2.98449,14.5452 2.97344,18.9787 2.84096,2.1141 13.25478,4.8122 14.80596,3.8361 0.56444,-0.3551 1.85883,-0.5086 2.87642,-0.3409 5.29916,0.8732 10.04243,-4.3369 11.36434,-12.4829 0.38652,-2.3819 0.83758,-3.0966 1.39006,-2.2027 0.98552,1.5946 -4.74394,7.0009 65.31334,-61.6289 30.29515,-29.6778 54.96592,-54.3264 54.82393,-54.7745 -0.14199,-0.4481 1.52758,0.096 3.71016,1.2098 2.18258,1.1134 4.88625,2.0244 6.00816,2.0244 3.62622,0 2.19722,2.5122 -5.71016,10.0386 -17.0429,16.2217 -71.1824,68.7927 -94.75,92.005 -13.75,13.5426 -26.932,26.1013 -29.29333,27.9081 -4.67123,3.5742 -14.51682,7.0895 -19.54576,6.9787 -1.7385,-0.038 -5.29646,-0.7264 -7.90657,-1.529 z m 934.0883,-54.376 c -5.02073,-1.5168 -8.98107,-4.5349 -13.15544,-10.0254 -2.29987,-3.025 -16.17164,-25.8734 -30.82615,-50.7742 l -26.64457,-45.2743 -28.35824,29.129 c -15.59703,16.021 -29.82937,30.1418 -31.62742,31.3796 -2.96859,2.0436 -6.98019,5.5317 -15.87425,13.8025 -3.14101,2.9209 -3.14563,2.9218 -5.9835,1.0803 -1.56203,-1.0136 -3.58978,-2.5179 -4.50611,-3.3429 -0.91633,-0.825 -4.48179,-3.975 -7.92325,-7 -3.44146,-3.025 -9.2939,-9.0499 -13.00543,-13.3887 l -6.74824,-7.8887 8.15498,-9.9715 c 16.88967,-20.6518 88.79171,-94.76867 88.03913,-90.75106 -0.43395,2.31663 -0.37353,2.36104 0.82377,0.60551 4.83202,-7.08487 7.8532,-10.25492 11.79208,-12.37311 4.00843,-2.15559 5.34383,-2.35871 12.22465,-1.85943 9.3298,0.67699 14.2893,2.97562 19.10171,8.85326 5.25498,6.41818 75.17294,125.77673 77.28484,131.93483 1.0659,3.1081 1.8205,8.0874 1.8058,11.9168 -0.03,7.7805 -3.0565,13.9391 -9.1538,18.6256 -6.60532,5.0771 -18.19747,7.5039 -25.42056,5.3219 z m 10.44316,-7.6445 c 0.34053,-0.3405 2.40476,-0.7057 4.58717,-0.8116 5.12103,-0.2483 6.64785,-1.6105 8.68722,-7.7505 2.68421,-8.0813 -0.43098,-23.8188 -4.71483,-23.8188 -1.03561,0 -5.0226,-1.0969 -8.85999,-2.4376 l -6.97707,-2.4376 -3.59662,3.6876 c -6.85578,7.0293 -10.53143,18.8637 -7.72717,24.8791 1.78753,3.8344 5.15305,6.1865 11.26682,7.8741 5.45936,1.507 6.52439,1.6254 7.33447,0.8153 z m -458.15728,-49.2087 c -2.49694,-0.3612 -7.04316,-4.7955 -7.09692,-6.9222 -0.0174,-0.6875 -0.4816,-1.25 -1.0316,-1.25 -0.55,0 -1,-0.3738 -1,-0.8308 0,-0.457 -9.9,-18.7072 -22,-40.556 -12.1,-21.84886 -22,-40.16879 -22,-40.71098 0,-0.5422 -0.8456,-1.89345 -1.87912,-3.0028 -2.5588,-2.74655 -4.0477,-10.90895 -3.00651,-16.48215 0.94653,-5.06653 6.91321,-15.9889 10.21491,-18.69901 1.19389,-0.97998 3.4987,-2.50083 5.12179,-3.37966 1.62309,-0.87883 40.57026,-11.1509 86.54927,-22.82682 l 83.59819,-21.22894 31.87638,-20.21974 c 28.23625,-17.91075 32.22745,-20.15121 34.95073,-19.61965 1.6909,0.33005 4.07852,1.3778 5.30583,2.32834 2.20978,1.71145 1.94002,1.91283 -27.7569,20.72132 -25.05687,15.86971 -29.60302,19.09613 -27.64504,19.61977 8.28603,2.21602 21.67047,16.64022 21.67047,23.35392 0,0.84328 0.28028,1.53324 0.62285,1.53324 0.34257,0 10.80507,-6.45399 23.25,-14.34221 12.44493,-7.88822 24.52047,-15.53175 26.83453,-16.98564 l 4.20738,-2.64343 0.65268,3.47907 c 1.29679,6.91246 1.16426,7.03313 -28.03603,25.52676 l -27.53141,17.43667 -0.0354,22.01439 c -0.0317,19.67563 -0.18864,21.74879 -1.4776,19.51439 -1.41231,-2.44824 -1.4271,-2.42753 -0.71456,1 0.40018,1.925 0.70954,6.425 0.68747,10 -0.0671,10.86531 -6.17055,18.73827 -17.45987,22.52175 -14.28639,4.78791 -26.40659,-0.45167 -33.14224,-14.32744 -2.96728,-6.11274 -2.26516,-14.08921 1.9718,-22.40077 3.17719,-6.23262 3.18145,-6.26032 0.43934,-2.86149 -1.52289,1.88762 -3.29716,4.81262 -3.94282,6.5 -1.00557,2.62796 -1.18483,1.29439 -1.25,-9.29868 -0.0693,-11.25593 -0.23326,-12.32754 -1.82608,-11.93134 -48.23665,11.99835 -99.25,25.42857 -99.25,26.12943 0,0.51045 6.975,13.51167 15.5,28.89159 8.525,15.37991 15.5,28.88181 15.5,30.00421 0,5.1779 -2.60869,10.2214 -8.15629,15.769 -9.84663,9.8467 -23.06114,15.5727 -32.71519,14.1759 z m 74.37148,-118.5685 36,-9.13804 0.58279,-12.98281 c 0.32054,-7.14055 1.0969,-14.22031 1.72525,-15.73281 0.62835,-1.5125 0.8161,-2.74333 0.41721,-2.73517 -0.39889,0.008 -36.72525,9.16745 -80.72525,20.35397 l -80,20.33914 -0.28938,3.39603 c -0.15915,1.86782 -0.71344,5.79676 -1.23175,8.73098 -1.13113,6.40353 0.093,9.42424 5.61385,13.85324 l 3.67638,2.94929 39.11545,-9.94788 c 21.5135,-5.47134 55.31545,-14.06001 75.11545,-19.08594 z m -399.80798,99.3963 c 0.33181,-2.475 1.23694,-5.4 2.0114,-6.5 1.30896,-1.8591 1.35803,-1.7887 0.6969,1 -0.39117,1.65 -1.2963,4.575 -2.0114,6.5 l -1.30019,3.5 0.60329,-4.5 z m 9.53062,-17.1962 c 2.90255,-4.233 6.34455,-8.1858 7.64889,-8.784 1.94722,-0.893 1.65101,-0.2317 -1.65557,3.6963 -9.85492,11.707 -11.47566,13.0829 -5.99332,5.0877 z m -37.3502,-2.5538 c -1.24387,-1.586 -1.2085,-1.6214 0.37756,-0.3775 0.9625,0.7548 1.75,1.5423 1.75,1.75 0,0.823 -0.82119,0.2933 -2.12756,-1.3725 z m -3.94813,-5 -2.42431,-2.75 2.75,2.4243 c 2.57029,2.2659 3.20859,3.0757 2.42431,3.0757 -0.17912,0 -1.41662,-1.2375 -2.75,-2.75 z"
         id="path11006"
         style="fill:#02d102" />
      <path
         d="m -50.69572,1520.3129 c -8.88905,-4.4297 -14.4953,-13.8143 -14.25654,-23.865 0.10325,-4.3461 30.94323,-160.2337 35.65971,-180.25 0.37437,-1.5888 1.26173,-2.25 3.0196,-2.25 2.09011,0 2.32693,0.2807 1.47641,1.75 -0.55715,0.9625 -8.92604,40.675 -18.59753,88.25 -12.60937,62.0268 -17.5503,88.2489 -17.46357,92.6812 0.25149,12.8525 9.17991,22.3188 21.05057,22.3188 5.86049,0 13.06271,-3.2262 17.09296,-7.6567 6.61496,-7.272 6.68521,-7.5508 26.47946,-105.0933 10.40774,-51.2875 19.21069,-93.25 19.56209,-93.25 0.35141,0 0.89366,1.2375 1.205,2.75 0.72553,3.5247 -36.73155,188.4912 -39.1059,193.1086 -6.10212,11.8667 -23.97458,17.5598 -36.12226,11.5064 z m 32.16427,-206.0579 c 0.97297,-0.2536 2.32297,-0.2369 3,0.037 0.67703,0.2739 -0.11903,0.4813 -1.76903,0.4609 -1.65,-0.02 -2.20394,-0.2445 -1.23097,-0.498 z m -305.51469,-145.9057 c -5.38062,-1.6546 -10.35183,-6.152 -14.35993,-12.9913 -2.12506,-3.6262 -2.70319,-5.8723 -2.66112,-10.3389 0.0526,-5.5807 1.54995,-9.4191 8.02489,-20.5712 0.958,-1.65 25.81682,-26.5874 55.24182,-55.4164 75.68476,-74.15186 78.35358,-76.74165 77.48572,-75.1915 -0.42865,0.76564 -0.82579,2.85822 -0.88254,4.65019 -0.0932,2.94431 -5.9788,9.01361 -61.10318,63.01101 -33.55,32.8641 -60.86777,60.359 -60.70616,61.0998 0.16161,0.7408 -0.17706,1.3469 -0.75261,1.3469 -1.57661,0 -8.24536,7.6728 -10.74604,12.3639 -3.15107,5.9113 -2.92881,12.8361 0.5981,18.634 8.32552,13.6866 25.03708,14.5308 35.89308,1.8133 2.2014,-2.5789 4.18447,-4.507 4.40681,-4.2846 0.38048,0.3804 45.45763,-43.4008 99.30682,-96.4519 21.09911,-20.7864 24.33239,-23.6018 26.75,-23.2931 1.5125,0.1932 2.75,0.9203 2.75,1.6159 0,0.6955 -3.4875,4.584 -7.75,8.6411 -17.0429,16.2217 -71.1824,68.7927 -94.75,92.005 -13.75,13.5426 -26.932,26.1013 -29.29333,27.9081 -4.67123,3.5742 -14.51682,7.0895 -19.54576,6.9787 -1.7385,-0.038 -5.29646,-0.7264 -7.90657,-1.529 z m 934.0883,-54.376 c -5.02073,-1.5168 -8.98107,-4.5349 -13.15544,-10.0254 -2.29987,-3.025 -16.17164,-25.8734 -30.82615,-50.7742 l -26.64457,-45.2743 -28.35824,29.129 c -15.59703,16.021 -29.82937,30.1418 -31.62742,31.3796 -2.97191,2.0459 -7.00696,5.5549 -15.89729,13.8248 -2.86237,2.6627 -3.36046,2.8097 -5.18632,1.5308 -1.92706,-1.3498 -1.21216,-2.2853 15.5617,-20.3652 9.66985,-10.4228 23.32302,-25.2505 30.34039,-32.9505 7.01736,-7.7 16.57499,-17.7633 21.23916,-22.3629 l 8.48032,-8.36289 -4.19602,-7.13708 c -5.19116,-8.82974 -7.17927,-13.77904 -8.10402,-20.17452 -0.39466,-2.72942 -1.02736,-5.54365 -1.406,-6.25385 -0.46081,-0.86431 -6.63634,4.75691 -18.67639,17 -9.89337,10.0602 -30.31329,30.32094 -45.37761,45.02394 -25.51078,24.8988 -27.50956,26.6241 -29.13745,25.1509 -1.64029,-1.4845 -1.24421,-2.1974 6.44046,-11.5929 16.92427,-20.6919 88.8258,-94.81264 88.0724,-90.79066 -0.43395,2.31663 -0.37353,2.36104 0.82377,0.60551 4.83202,-7.08487 7.8532,-10.25492 11.79208,-12.37311 4.00843,-2.15559 5.34383,-2.35871 12.22465,-1.85943 9.3298,0.67699 14.2893,2.97562 19.10171,8.85326 5.25498,6.41818 75.17294,125.77673 77.28484,131.93483 1.0659,3.1081 1.8205,8.0874 1.8058,11.9168 -0.03,7.7805 -3.0565,13.9391 -9.1538,18.6256 -6.60532,5.0771 -18.19747,7.5039 -25.42056,5.3219 z m 17.07253,-5.4824 c 5.29564,-2.6835 9.94743,-7.8749 12.46863,-13.9151 2.1076,-5.0495 2.0479,-6.2483 -0.6338,-12.708 -3.7177,-8.9554 -5.6344,-11.4389 -10.02354,-12.988 -2.31133,-0.8157 -4.15842,-2.1527 -4.29237,-3.107 -0.12933,-0.9213 -16.3674,-29.1482 -36.08461,-62.7265 -26.34879,-44.87189 -36.33068,-61.05772 -37.66522,-61.07493 -0.99866,-0.0129 -2.66416,-0.47749 -3.7011,-1.03244 -3.19628,-1.7106 -11.65167,2.84613 -18.29999,9.86213 -4.26476,4.50063 -5.73228,6.76127 -5.5,8.47246 0.17426,1.28366 16.4744,29.82386 36.22253,63.42268 l 35.90571,61.0887 1.89376,-2.1685 c 1.88169,-2.1546 1.88389,-2.1481 0.34429,1.0319 -2.36472,4.8842 -1.94734,11.008 1.15402,16.9315 5.51528,10.5341 17.52373,14.3271 28.21169,8.9111 z m -464.78665,-51.3708 c -2.49694,-0.3612 -7.04316,-4.7955 -7.09692,-6.9222 -0.0174,-0.6875 -0.4816,-1.25 -1.0316,-1.25 -0.55,0 -1,-0.3738 -1,-0.8308 0,-0.457 -9.9,-18.7072 -22,-40.556 -12.1,-21.84886 -22,-40.16879 -22,-40.71098 0,-0.5422 -0.8456,-1.89345 -1.87912,-3.0028 -2.5588,-2.74655 -4.0477,-10.90895 -3.00651,-16.48215 0.94653,-5.06653 6.91321,-15.9889 10.21491,-18.69901 1.19389,-0.97998 3.4987,-2.50083 5.12179,-3.37966 1.62309,-0.87883 40.57026,-11.1509 86.54927,-22.82682 l 83.59819,-21.22894 31.87638,-20.21974 c 29.51156,-18.7197 32.13059,-20.17205 35.30307,-19.57689 3.31559,0.62201 2.42075,1.28022 -27.59768,20.29998 -17.0634,10.81142 -30.8421,19.95205 -30.61933,20.3125 0.22277,0.36045 2.46963,1.17523 4.99303,1.81063 13.02329,3.2793 24.41082,15.78735 24.43623,26.84072 0.005,2.3375 0.18411,4.25 0.39718,4.25 1.51732,0 54.25648,-34.45696 54.7923,-35.79837 0.4409,-1.10375 0.70441,-0.45121 0.75,1.85724 0.0387,1.95738 -0.49221,4.25439 -1.17971,5.10447 -0.6875,0.85008 -13.2875,9.14655 -28,18.4366 l -26.75,16.891 -0.0354,22.00453 c -0.0317,19.66704 -0.18863,21.73896 -1.4776,19.50453 -1.41231,-2.44824 -1.4271,-2.42753 -0.71456,1 0.40018,1.925 0.70954,6.425 0.68747,10 -0.0671,10.86531 -6.17055,18.73827 -17.45987,22.52175 -14.28639,4.78791 -26.40659,-0.45167 -33.14224,-14.32744 -2.96728,-6.11274 -2.26516,-14.08921 1.9718,-22.40077 3.17719,-6.23262 3.18145,-6.26032 0.43934,-2.86149 -1.52289,1.88762 -3.29716,4.81262 -3.94282,6.5 -1.00557,2.62796 -1.18483,1.29439 -1.25,-9.29868 -0.0693,-11.25593 -0.23326,-12.32754 -1.82608,-11.93134 -48.23665,11.99835 -99.25,25.42857 -99.25,26.12943 0,0.51045 6.975,13.51167 15.5,28.89159 8.525,15.37991 15.5,28.88181 15.5,30.00421 0,5.1779 -2.60869,10.2214 -8.15629,15.769 -9.84663,9.8467 -23.06114,15.5727 -32.71519,14.1759 z m 38.11145,-103.24627 72.73997,-18.42589 0.0219,-13 c 0.0231,-13.72201 1.14726,-19.97617 4.91541,-27.34691 1.22225,-2.39079 2.07838,-4.4858 1.90251,-4.65556 -0.17587,-0.16977 -36.97782,9.02184 -81.78211,20.42579 -79.76921,20.3035 -81.49917,20.79516 -83.23378,23.65557 -4.06796,6.70813 -6.80265,13.88537 -6.78051,17.79554 0.037,6.54096 4.40102,13.46122 10.97664,17.40639 3.025,1.8149 6.175,3.13583 7,2.93539 0.825,-0.20043 34.23299,-8.65608 74.23997,-18.79032 z m -363.54795,84.07407 c 0.33181,-2.475 1.23694,-5.4 2.0114,-6.5 1.30896,-1.8591 1.35803,-1.7887 0.6969,1 -0.39117,1.65 -1.2963,4.575 -2.0114,6.5 l -1.30019,3.5 0.60329,-4.5 z m 9.53062,-17.1962 c 2.90255,-4.233 6.34455,-8.1858 7.64889,-8.784 1.94722,-0.893 1.65101,-0.2317 -1.65557,3.6963 -9.85492,11.707 -11.47566,13.0829 -5.99332,5.0877 z"
         id="path11004"
         style="fill:#0202be" />
      <path
         d="m -50.69572,1520.3129 c -8.88905,-4.4297 -14.4953,-13.8143 -14.25654,-23.865 0.10325,-4.3461 30.94323,-160.2337 35.65971,-180.25 0.37437,-1.5888 1.26173,-2.25 3.0196,-2.25 2.09011,0 2.32693,0.2807 1.47641,1.75 -0.55715,0.9625 -8.92604,40.675 -18.59753,88.25 -12.60937,62.0268 -17.5503,88.2489 -17.46357,92.6812 0.25149,12.8525 9.17991,22.3188 21.05057,22.3188 5.86049,0 13.06271,-3.2262 17.09296,-7.6567 6.61496,-7.272 6.68521,-7.5508 26.47946,-105.0933 10.40774,-51.2875 19.21069,-93.25 19.56209,-93.25 0.35141,0 0.89366,1.2375 1.205,2.75 0.72553,3.5247 -36.73155,188.4912 -39.1059,193.1086 -6.10212,11.8667 -23.97458,17.5598 -36.12226,11.5064 z m 32.16427,-206.0579 c 0.97297,-0.2536 2.32297,-0.2369 3,0.037 0.67703,0.2739 -0.11903,0.4813 -1.76903,0.4609 -1.65,-0.02 -2.20394,-0.2445 -1.23097,-0.498 z m -305.51469,-145.9057 c -5.38062,-1.6546 -10.35183,-6.152 -14.35993,-12.9913 -2.12506,-3.6262 -2.70319,-5.8723 -2.66112,-10.3389 0.0526,-5.5807 1.54995,-9.4191 8.02489,-20.5712 0.958,-1.65 25.81682,-26.5874 55.24182,-55.4164 75.68476,-74.15186 78.35358,-76.74165 77.48572,-75.1915 -0.42865,0.76564 -0.82579,2.85822 -0.88254,4.65019 -0.0932,2.94431 -5.9788,9.01361 -61.10318,63.01101 -33.55,32.8641 -60.86777,60.359 -60.70616,61.0998 0.16161,0.7408 -0.17706,1.3469 -0.75261,1.3469 -1.57661,0 -8.24536,7.6728 -10.74604,12.3639 -3.15107,5.9113 -2.92881,12.8361 0.5981,18.634 8.32552,13.6866 25.03708,14.5308 35.89308,1.8133 2.2014,-2.5789 4.18447,-4.507 4.40681,-4.2846 0.38048,0.3804 45.45763,-43.4008 99.30682,-96.4519 21.09911,-20.7864 24.33239,-23.6018 26.75,-23.2931 1.5125,0.1932 2.75,0.9203 2.75,1.6159 0,0.6955 -3.4875,4.584 -7.75,8.6411 -17.0429,16.2217 -71.1824,68.7927 -94.75,92.005 -13.75,13.5426 -26.932,26.1013 -29.29333,27.9081 -4.67123,3.5742 -14.51682,7.0895 -19.54576,6.9787 -1.7385,-0.038 -5.29646,-0.7264 -7.90657,-1.529 z m 934.0883,-54.376 c -5.02073,-1.5168 -8.98107,-4.5349 -13.15544,-10.0254 -2.29987,-3.025 -16.17164,-25.8734 -30.82615,-50.7742 l -26.64457,-45.2743 -28.35824,29.129 c -15.59703,16.021 -29.82937,30.1418 -31.62742,31.3796 -2.97191,2.0459 -7.00696,5.5549 -15.89729,13.8248 -2.86237,2.6627 -3.36046,2.8097 -5.18632,1.5308 -1.92706,-1.3498 -1.21216,-2.2853 15.5617,-20.3652 9.66985,-10.4228 23.32302,-25.2505 30.34039,-32.9505 7.01736,-7.7 16.57499,-17.7633 21.23916,-22.3629 l 8.48032,-8.36289 -4.19602,-7.13708 c -5.19116,-8.82974 -7.17927,-13.77904 -8.10402,-20.17452 -0.39466,-2.72942 -1.02736,-5.54365 -1.406,-6.25385 -0.46081,-0.86431 -6.63634,4.75691 -18.67639,17 -9.89337,10.0602 -30.31329,30.32094 -45.37761,45.02394 -25.51078,24.8988 -27.50956,26.6241 -29.13745,25.1509 -1.64029,-1.4845 -1.24421,-2.1974 6.44046,-11.5929 16.92427,-20.6919 88.8258,-94.81264 88.0724,-90.79066 -0.43395,2.31663 -0.37353,2.36104 0.82377,0.60551 4.83202,-7.08487 7.8532,-10.25492 11.79208,-12.37311 4.00843,-2.15559 5.34383,-2.35871 12.22465,-1.85943 9.3298,0.67699 14.2893,2.97562 19.10171,8.85326 5.25498,6.41818 75.17294,125.77673 77.28484,131.93483 1.0659,3.1081 1.8205,8.0874 1.8058,11.9168 -0.03,7.7805 -3.0565,13.9391 -9.1538,18.6256 -6.60532,5.0771 -18.19747,7.5039 -25.42056,5.3219 z m 17.07253,-5.4824 c 5.29564,-2.6835 9.94743,-7.8749 12.46863,-13.9151 2.1076,-5.0495 2.0479,-6.2483 -0.6338,-12.708 -3.7177,-8.9554 -5.6344,-11.4389 -10.02354,-12.988 -2.31133,-0.8157 -4.15842,-2.1527 -4.29237,-3.107 -0.12933,-0.9213 -16.3674,-29.1482 -36.08461,-62.7265 -26.34879,-44.87189 -36.33068,-61.05772 -37.66522,-61.07493 -0.99866,-0.0129 -2.66416,-0.47749 -3.7011,-1.03244 -3.19628,-1.7106 -11.65167,2.84613 -18.29999,9.86213 -4.26476,4.50063 -5.73228,6.76127 -5.5,8.47246 0.17426,1.28366 16.4744,29.82386 36.22253,63.42268 l 35.90571,61.0887 1.89376,-2.1685 c 1.88169,-2.1546 1.88389,-2.1481 0.34429,1.0319 -2.36472,4.8842 -1.94734,11.008 1.15402,16.9315 5.51528,10.5341 17.52373,14.3271 28.21169,8.9111 z m -464.78665,-51.3708 c -2.49694,-0.3612 -7.04316,-4.7955 -7.09692,-6.9222 -0.0174,-0.6875 -0.4816,-1.25 -1.0316,-1.25 -0.55,0 -1,-0.3738 -1,-0.8308 0,-0.457 -9.9,-18.7072 -22,-40.556 -12.1,-21.84886 -22,-40.16879 -22,-40.71098 0,-0.5422 -0.8456,-1.89345 -1.87912,-3.0028 -2.5588,-2.74655 -4.0477,-10.90895 -3.00651,-16.48215 0.94653,-5.06653 6.91321,-15.9889 10.21491,-18.69901 1.19389,-0.97998 3.4987,-2.50083 5.12179,-3.37966 1.62309,-0.87883 40.57026,-11.1509 86.54927,-22.82682 l 83.59819,-21.22894 31.87638,-20.21974 c 29.51156,-18.7197 32.13059,-20.17205 35.30307,-19.57689 3.31559,0.62201 2.42075,1.28022 -27.59768,20.29998 -17.0634,10.81142 -30.8421,19.95205 -30.61933,20.3125 0.22277,0.36045 2.46963,1.17523 4.99303,1.81063 13.02329,3.2793 24.41082,15.78735 24.43623,26.84072 0.005,2.3375 0.18411,4.25 0.39718,4.25 1.51732,0 54.25648,-34.45696 54.7923,-35.79837 0.4409,-1.10375 0.70441,-0.45121 0.75,1.85724 0.0387,1.95738 -0.49221,4.25439 -1.17971,5.10447 -0.6875,0.85008 -13.2875,9.14655 -28,18.4366 l -26.75,16.891 -0.20361,22.00453 -0.2036,22.00453 -0.5464,-17 c -0.47829,-14.88127 -0.8154,-17.49852 -2.70481,-21 -5.0057,-9.27662 -13.74508,-13.94199 -24.84158,-13.26127 -8.08441,0.49595 -13.36306,2.691 -18.26895,7.59689 -6.2626,6.2626 -7.15819,9.65957 -7.42531,28.16438 -0.22608,15.66137 -0.25422,15.87187 -0.55361,4.14164 -0.28315,-11.09392 -0.49124,-12.31466 -2.03378,-11.93133 -47.35715,11.76844 -99.21835,25.42191 -99.21835,26.12115 0,0.51045 6.975,13.51167 15.5,28.89159 8.525,15.37991 15.5,28.88181 15.5,30.00421 0,5.1779 -2.60869,10.2214 -8.15629,15.769 -9.84663,9.8467 -23.06114,15.5727 -32.71519,14.1759 z m 38.11145,-103.24627 72.73997,-18.42589 0.0219,-13 c 0.0231,-13.72201 1.14726,-19.97617 4.91541,-27.34691 1.22225,-2.39079 2.07838,-4.4858 1.90251,-4.65556 -0.17587,-0.16977 -36.97782,9.02184 -81.78211,20.42579 -79.76921,20.3035 -81.49917,20.79516 -83.23378,23.65557 -4.06796,6.70813 -6.80265,13.88537 -6.78051,17.79554 0.037,6.54096 4.40102,13.46122 10.97664,17.40639 3.025,1.8149 6.175,3.13583 7,2.93539 0.825,-0.20043 34.23299,-8.65608 74.23997,-18.79032 z m -363.54795,84.07407 c 0.33181,-2.475 1.23694,-5.4 2.0114,-6.5 1.30896,-1.8591 1.35803,-1.7887 0.6969,1 -0.39117,1.65 -1.2963,4.575 -2.0114,6.5 l -1.30019,3.5 0.60329,-4.5 z m 9.53062,-17.1962 c 2.90255,-4.233 6.34455,-8.1858 7.64889,-8.784 1.94722,-0.893 1.65101,-0.2317 -1.65557,3.6963 -9.85492,11.707 -11.47566,13.0829 -5.99332,5.0877 z"
         id="path11002"
         style="fill:#03a003" />
      <path
         d="m -50.69572,1520.3129 c -8.88905,-4.4297 -14.4953,-13.8143 -14.25654,-23.865 0.0784,-3.3 8.01461,-44.7 17.63604,-92 19.64653,-96.5845 18.44456,-90.9045 19.09828,-90.2507 0.26686,0.2668 -7.67188,40.4824 -17.64166,89.368 -19.55412,95.8811 -19.40043,94.818 -15.09026,104.3827 2.33953,5.1917 7.32236,10.3522 11.64938,12.0647 1.65,0.6531 5.7,1.5191 9,1.9245 l 6,0.7372 -5.55366,0.1368 c -4.18893,0.1032 -6.85307,-0.5107 -10.84158,-2.4982 z m 22.0943,-0.829 c 4.55226,-2.4437 11.80094,-10.4954 11.80094,-13.1083 0,-0.7067 0.76677,-2.0516 1.70393,-2.9887 1.23333,-1.2334 6.87554,-27.1031 20.42886,-93.667 16.22353,-79.678 19.86721,-96.5945 19.86721,-92.2374 0,3.8293 -38.44153,188.7304 -39.77298,191.3054 -1.96772,3.8054 -8.26163,9.8492 -11.5293,11.0711 -5.59838,2.0936 -6.76986,1.9177 -2.49866,-0.3751 z m -289.44906,-350.2417 c 1.2375,-0.2383 3.2625,-0.2383 4.5,0 1.2375,0.2384 0.225,0.4334 -2.25,0.4334 -2.475,0 -3.4875,-0.195 -2.25,-0.4334 z m -9.48672,-2.393 c -3.9459,-1.9532 -9.09305,-7.7695 -12.28556,-13.8828 -1.4768,-2.8279 -1.65162,-12.9918 -0.26604,-15.4677 0.61535,-1.0996 0.78164,0.3059 0.49881,4.216 -0.76946,10.6377 4.88733,20.4576 14.28951,24.8057 2.75,1.2718 4.325,2.3379 3.5,2.3691 -0.825,0.031 -3.40652,-0.8868 -5.73672,-2.0403 z m 21.67045,-0.2133 c 2.43855,-1.2034 6.19489,-4.0859 8.34742,-6.4055 2.15254,-2.3196 4.28157,-4.1196 4.73118,-4 0.44962,0.1197 29.05176,-27.4575 63.56031,-61.2825 34.50855,-33.825 63.12184,-61.65 63.58509,-61.8333 0.46325,-0.1833 0.84227,0.3031 0.84227,1.081 0,0.7779 -3.4875,4.7338 -7.75,8.7909 -17.0429,16.2217 -71.1824,68.7927 -94.75,92.005 -27.16605,26.7564 -31.17618,30.2253 -37.5354,32.4689 -5.86796,2.0704 -6.26063,1.7563 -1.03087,-0.8245 z m -26.62443,-42.9443 c 0.65489,-1.241 25.2657,-25.8409 54.6907,-54.6664 29.425,-28.8256 59.03344,-57.8477 65.79653,-64.4937 6.76309,-6.64595 12.02465,-11.35392 11.69235,-10.46213 -0.64815,1.73943 -10.6696,11.71273 -81.73888,81.34643 -25.1625,24.6542 -45.75,45.2501 -45.75,45.7687 0,1.0029 -4.02873,4.6742 -5.1907,4.7302 -0.37988,0.018 -0.15488,-0.9821 0.5,-2.2231 z m 942.53334,-9.7183 c -5.02073,-1.5168 -8.98107,-4.5349 -13.15544,-10.0254 -2.29987,-3.025 -16.17127,-25.8728 -30.82534,-50.7728 l -26.64375,-45.2729 -28.79583,29.5302 c -15.8377,16.2417 -29.94928,30.2693 -31.35905,31.1725 -2.77249,1.7763 -2.38926,1.357 33.82598,-37.0156 l 24.3892,-25.8421 -2.18385,-3.6496 c -1.20111,-2.0073 -2.95126,-5.22466 -3.8892,-7.14966 -0.93795,-1.925 -1.95601,-3.725 -2.26236,-4 -1.2328,-1.10664 -7.16745,-15.82664 -6.81143,-16.89471 0.50321,-1.50963 70.09505,116.84797 72.86811,123.92967 3.86221,9.8632 10.16978,14.5416 21.50032,15.9471 l 6,0.7443 -5,0.051 c -2.75,0.028 -6.19581,-0.3104 -7.65736,-0.7519 z m 18.85019,-2.7742 c 7.48767,-4.1067 14.22947,-16.0093 14.40767,-25.4365 l 0.1004,-5.3147 0.9559,4 c 2.6831,11.2272 -5.4159,25.6348 -15.6568,27.8526 l -3,0.6497 3.19283,-1.7511 z m 7.90567,-39.8104 c -2.69581,-4.1433 -20.95893,-34.85 -40.58471,-68.237 l -35.68323,-60.70376 -5.41528,-1.99647 c -3.89877,-1.43738 -4.80668,-2.08414 -3.24205,-2.30949 3.34911,-0.48239 9.77873,3.30019 13.65313,8.03219 4.06995,4.97085 74.82284,124.89453 76.46524,129.60583 1.7885,5.1304 0.04,3.652 -5.1931,-4.3913 z M 162.32804,1057.157 c -2.50796,-0.4019 -7.04358,-4.8494 -7.09692,-6.9591 -0.0174,-0.6875 -0.4816,-1.25 -1.0316,-1.25 -0.55,0 -1,-0.3738 -1,-0.8308 0,-0.457 -9.9,-18.7072 -22,-40.556 -12.1,-21.84886 -22,-40.16879 -22,-40.71098 0,-0.5422 -0.8456,-1.89345 -1.87912,-3.0028 -2.5881,-2.778 -4.04834,-10.90556 -2.98345,-16.60563 0.47568,-2.54616 0.97685,-4.74136 1.11372,-4.87823 0.13687,-0.13687 0.25928,3.20115 0.27203,7.41781 0.0184,6.07939 0.51054,8.59833 2.37718,12.16667 2.57129,4.91535 7.18217,9.51617 11.09964,11.07541 2.34608,0.93379 11.63544,17.03266 43.26248,74.97585 4.89118,8.961 4.87656,9.9608 -0.13396,9.1578 z m -325.4365,-19.2091 c 0.33181,-2.475 1.23694,-5.4 2.0114,-6.5 1.30896,-1.8591 1.35803,-1.7887 0.6969,1 -0.39117,1.65 -1.2963,4.575 -2.0114,6.5 l -1.30019,3.5 0.60329,-4.5 z m 346.85562,-32.7919 c -9.3238,-16.88945 -17.54479,-31.65454 -18.26888,-32.81134 l -1.31652,-2.10329 -9.73112,2.26633 c -10.13134,2.35955 -22.83542,3.97135 -20.23112,2.56679 0.825,-0.44494 32.43573,-8.64294 70.24606,-18.21777 l 68.74607,-17.40878 0.0158,-15 c 0.0102,-9.67427 0.51543,-16.87691 1.42301,-20.28634 1.72901,-6.49525 6.32564,-13.78892 11.03283,-17.50629 l 3.53623,-2.79263 0,15.54263 c 0,11.75529 0.30459,15.54818 1.25,15.5654 0.6875,0.0125 -0.29241,0.78243 -2.17757,1.7109 -4.71571,2.32256 -9.93793,7.75906 -12.16602,12.66521 -1.53596,3.38212 -1.90424,6.99386 -2.10067,20.60112 -0.22608,15.66137 -0.25422,15.87187 -0.55361,4.14164 -0.28315,-11.09392 -0.49124,-12.31466 -2.03378,-11.93133 -47.35715,11.76844 -99.21835,25.42191 -99.21835,26.12115 0,0.51045 6.975,13.51167 15.5,28.89159 14.74103,26.59421 16.96834,31.83211 14.59706,34.32691 -0.49661,0.5225 -1.05911,1.7187 -1.25,2.6581 -0.19231,0.9464 -7.90563,-11.9838 -17.29942,-29 z m 257.75026,26.8635 c 1.55933,-2.3085 61.96132,-65.06398 74.51845,-77.42204 4.9851,-4.90607 5.86846,-5.45156 5.47231,-3.37922 -0.2914,1.52435 -9.53749,11.67971 -24.13053,26.50354 -27.52324,27.95852 -58.23088,57.80722 -55.86023,54.29772 z m -595.07526,-11.2678 c 2.90255,-4.233 6.34455,-8.1858 7.64889,-8.784 1.94722,-0.893 1.65101,-0.2317 -1.65557,3.6963 -9.85492,11.707 -11.47566,13.0829 -5.99332,5.0877 z m 481.00723,-71.587 c -0.21208,-15.0228 -0.41842,-16.65533 -2.66565,-21.09002 -2.64403,-5.21776 -8.27674,-10.76653 -11.83256,-11.65623 -2.1943,-0.54903 -2.22659,-0.792 -1.92895,-14.51444 0.18092,-8.3408 0.7011,-13.95607 1.29284,-13.95607 1.83544,0 11.07712,9.41813 13.06474,13.31419 1.08984,2.13626 2.22999,6.95308 2.55037,10.77461 0.31868,3.80116 0.71961,6.9112 0.89095,6.9112 0.41537,0 52.54142,-32.97839 54.17128,-34.27234 0.93773,-0.74446 1.12218,-0.61779 0.7005,0.48108 -0.31481,0.82039 -12.91677,9.30979 -28.00435,18.86532 l -27.43197,17.37369 -0.28867,22.02612 c -0.26147,19.95116 -0.31032,20.49217 -0.51853,5.74289 z m 198.80193,-2.87787 c -0.0431,-1.57234 5.72472,-6.33041 9.68608,-7.99043 1.76984,-0.74165 5.36984,-1.2987 8,-1.23788 l 4.78212,0.11058 -5,1.27717 c -6.51913,1.6652 -14.6785,5.39172 -16.2182,7.40711 -0.69113,0.90466 -1.23195,1.0922 -1.25,0.43345 z M 111.30301,932.23471 c 1.72395,-2.48842 5.21357,-5.36527 8.80088,-7.25547 1.3224,-0.69679 40.04457,-10.82526 86.04926,-22.5077 l 83.6449,-21.2408 31.75287,-20.1414 c 17.46408,-11.07777 32.72456,-20.1414 33.91218,-20.1414 1.72887,0 1.46931,0.35787 -1.30214,1.79531 -1.90379,0.98742 -17.06099,10.43467 -33.68266,20.99389 l -30.22122,19.19859 -85.27878,21.67214 -85.27878,21.67214 -4.9649,4.08397 c -2.90671,2.39096 -4.32928,3.16647 -3.43161,1.87073 z m 186.64651,-18.9925 c 1.2375,-0.23836 3.2625,-0.23836 4.5,0 1.2375,0.23835 0.225,0.43337 -2.25,0.43337 -2.475,0 -3.4875,-0.19502 -2.25,-0.43337 z"
         id="path11000"
         style="fill:#036903" />
    </g>
  </g>
</svg>
