<?xml version="1.0" encoding="UTF-8" standalone="no"?>
<!-- Created with Inkscape (http://www.inkscape.org/) -->

<svg
   xmlns:dc="http://purl.org/dc/elements/1.1/"
   xmlns:cc="http://creativecommons.org/ns#"
   xmlns:rdf="http://www.w3.org/1999/02/22-rdf-syntax-ns#"
   xmlns:svg="http://www.w3.org/2000/svg"
   xmlns="http://www.w3.org/2000/svg"
   version="1.1"
   width="64"
   height="64"
   id="svg2">
  <defs
     id="defs4">
    <linearGradient
       id="linearGradient3893">
      <stop
         id="stop3895"
         style="stop-color:#ffffff;stop-opacity:1"
         offset="0" />
      <stop
         id="stop3897"
         style="stop-color:#464646;stop-opacity:1"
         offset="0.5" />
      <stop
         id="stop3899"
         style="stop-color:#ffffff;stop-opacity:1"
         offset="1" />
    </linearGradient>
    <linearGradient
       id="linearGradient3871">
      <stop
         id="stop3873"
         style="stop-color:#929292;stop-opacity:1"
         offset="0" />
      <stop
         id="stop3879"
         style="stop-color:#878787;stop-opacity:1"
         offset="0.5" />
      <stop
         id="stop3875"
         style="stop-color:#1a1a1a;stop-opacity:1"
         offset="1" />
    </linearGradient>
  </defs>
  <metadata
     id="metadata7">
    <rdf:RDF>
      <cc:Work
         rdf:about="">
        <dc:format>image/svg+xml</dc:format>
        <dc:type
           rdf:resource="http://purl.org/dc/dcmitype/StillImage" />
        <dc:title></dc:title>
      </cc:Work>
    </rdf:RDF>
  </metadata>
  <g
     transform="translate(-404.99241,309.88056)"
     id="g3693">
    <path
       d="m 458.52823,-248.29417 c -2.9297,-0.44204 -5.44689,-2.3119 -8.15448,-6.05746 -0.98001,-1.35571 -1.65007,-2.51511 -2.64401,-4.57494 -1.59651,-3.30859 -2.9948,-7.06178 -3.67347,-9.86011 l -0.1931,-0.79616 c -11.3293,-1.06108 -21.22348,0.71705 -30.74933,-1.27764 1.50977,-4.76556 5.26906,-13.16857 7.21632,-15.80904 1.53038,-2.07523 3.45654,-4.00953 4.64625,-4.66592 0.259,-0.14289 0.54915,-0.30508 0.64478,-0.3604 1.69443,-0.98031 4.36854,-1.18575 6.2595,-0.4809 2.87285,1.07086 5.84817,4.14195 8.18348,8.44687 1.66296,3.06554 3.3173,7.25897 4.50583,11.42148 l 0.51576,1.80632 c 10.0589,0.0207 20.11779,0.0413 30.17669,0.062 l 0.0283,0.34727 c 0.0175,0.21587 -0.0251,0.40219 -0.11268,0.49243 -0.0775,0.0798 -0.29726,0.69523 -0.48834,1.36753 -1.56549,5.50794 -4.26979,11.49278 -6.52965,14.45065 -3.11403,4.07588 -6.43888,5.97014 -9.633,5.4882 z m 2.14542,-2.00273 c 0.37402,-0.0704 1.06969,-0.29611 1.54591,-0.50148 0.84689,-0.36524 2.2353,-1.25392 2.29286,-1.46761 0.0159,-0.0592 0.0697,-0.10758 0.11936,-0.10758 0.12631,0 1.13251,-1.01211 1.80775,-1.81836 1.81135,-2.16275 3.42797,-5.19872 5.32573,-10.00153 0.58236,-1.47382 1.80313,-5.11576 1.80313,-5.37929 -9.93183,-0.0136 -17.71741,-0.26217 -28.25464,0.0354 0,0.16621 0.72875,2.44126 1.26052,3.93513 1.60128,4.49841 3.91993,8.99362 5.80261,11.24959 2.61661,3.13543 5.55543,4.57204 8.29677,4.05577 z M 443.575,-270.55725 c 0,-0.1638 -0.87792,-2.92085 -1.38925,-4.36285 -2.33861,-6.59518 -4.69508,-10.82232 -7.4349,-13.33707 -2.72048,-2.49702 -5.44067,-3.02905 -8.41214,-1.64531 -3.79599,1.76771 -7.83397,10.9486 -10.7379,19.47489 7.00216,0.39917 6.64847,-0.35327 27.97419,-0.12995 z"
       id="path3699-3"
       style="fill:#2c55d6;fill-opacity:1" />
    <path
       d="m 451.59724,-248.26619 c -2.9297,-0.44204 -5.44689,-2.3119 -8.15448,-6.05746 -0.98001,-1.35571 -1.65007,-2.51511 -2.64401,-4.57494 -1.59651,-3.30859 -2.9948,-7.06178 -3.67347,-9.86011 l -0.1931,-0.79616 -15.14106,-0.031 -15.14107,-0.031 0.022,-18.64813 0.022,-18.64814 0.28255,-0.0383 0.28255,-0.0383 0.004,16.8802 0.004,16.8802 0.27163,-0.85741 c 1.50977,-4.76556 3.91313,-9.91433 5.86039,-12.5548 1.53038,-2.07523 3.45654,-4.00953 4.64625,-4.66592 0.259,-0.14289 0.54915,-0.30508 0.64478,-0.3604 1.69443,-0.98031 4.36854,-1.18575 6.2595,-0.4809 2.87285,1.07086 5.84817,4.14195 8.18348,8.44687 1.66296,3.06554 3.3173,7.25897 4.50583,11.42148 l 0.51576,1.80632 15.08835,0.031 15.08834,0.031 0.0283,0.34727 c 0.0175,0.21587 -0.0251,0.40219 -0.11268,0.49243 -0.0775,0.0798 -0.29726,0.69523 -0.48834,1.36753 -1.56549,5.50794 -4.26979,11.49278 -6.52965,14.45065 -3.11403,4.07588 -6.43888,5.97014 -9.633,5.4882 z m 2.14542,-2.00273 c 0.37402,-0.0704 1.06969,-0.29611 1.54591,-0.50148 0.84689,-0.36524 2.2353,-1.25392 2.29286,-1.46761 0.0159,-0.0592 0.0697,-0.10758 0.11936,-0.10758 0.12631,0 1.13251,-1.01211 1.80775,-1.81836 1.81135,-2.16275 3.42797,-5.19872 5.32573,-10.00153 0.58236,-1.47382 1.80313,-5.11576 1.80313,-5.37929 0,-0.0392 -6.35729,-0.0713 -14.12732,-0.0713 -7.96592,0 -14.12732,0.0466 -14.12732,0.10669 0,0.16621 0.72875,2.44126 1.26052,3.93513 1.60128,4.49841 3.91993,8.99362 5.80261,11.24959 2.61661,3.13543 5.55543,4.57204 8.29677,4.05577 z m -17.09865,-20.26035 c 0,-0.1638 -0.87792,-2.92085 -1.38925,-4.36285 -2.33861,-6.59518 -4.69508,-10.82232 -7.4349,-13.33707 -2.72048,-2.49702 -5.44067,-3.02905 -8.41214,-1.64531 -3.79599,1.76771 -7.24865,7.03115 -10.19553,15.54269 -0.54313,1.56871 -1.17058,3.60572 -1.17058,3.80025 0,0.0319 6.43554,0.0581 14.3012,0.0581 7.86566,0 14.3012,-0.0251 14.3012,-0.0558 z"
       id="path3699"
       style="fill:#d6412c" />
    <path
       d="m 406.67709,-288.26459 0.017,-18.64848 0.28226,-0.0383 0.28227,-0.0383 0.022,18.26345 0.022,18.26345 14.68358,-0.004 14.68359,-0.004 0.1175,0.3191 c 0.0646,0.17551 0.11751,0.36792 0.11751,0.42758 0,0.0626 -6.39987,0.1085 -15.12237,0.1085 l -15.12236,0 z m 31.55444,18.31962 c -0.0593,-0.17983 -0.0854,-0.35853 -0.0579,-0.39712 0.0274,-0.0386 6.82439,-0.0702 15.10445,-0.0702 l 15.05467,0 0.0273,0.39808 0.0272,0.39808 -15.02394,-7e-4 -15.02394,-7e-4 -0.10776,-0.32695 z"
       id="path3697"
       style="fill:#0d6fb4" />
    <path
       d="m 406.73517,-270.01419 c -10e-4,-0.21894 -7.4e-4,-8.50051 3.5e-4,-18.4035 10e-4,-9.90299 0.002,-18.10189 0.002,-18.21978 -2.5e-4,-0.15658 0.0698,-0.21435 0.26015,-0.21435 l 0.26052,0 0.022,18.21978 0.022,18.21978 14.69242,0 14.69242,0 0.10867,0.28959 c 0.0598,0.15928 0.10867,0.33842 0.10867,0.39808 3e-5,0.0626 -6.3836,0.10849 -15.0836,0.10849 l -15.08364,0 z m 31.52727,0.18374 c -0.0295,-0.1179 -0.0765,-0.28325 -0.10433,-0.36746 -0.0404,-0.12217 2.99847,-0.15311 15.04023,-0.15311 l 15.09088,0 0,0.36746 0,0.36746 -14.98656,0 c -14.19451,0 -14.98939,-0.0113 -15.04022,-0.21435 z"
       id="path3695"
       style="fill:#040404" />
  </g>
</svg>
