<?xml version="1.0" encoding="UTF-8" standalone="no"?>
<!-- Created with Inkscape (http://www.inkscape.org/) -->

<svg
   xmlns:dc="http://purl.org/dc/elements/1.1/"
   xmlns:cc="http://creativecommons.org/ns#"
   xmlns:rdf="http://www.w3.org/1999/02/22-rdf-syntax-ns#"
   xmlns:svg="http://www.w3.org/2000/svg"
   xmlns="http://www.w3.org/2000/svg"
   xmlns:xlink="http://www.w3.org/1999/xlink"
   xmlns:sodipodi="http://sodipodi.sourceforge.net/DTD/sodipodi-0.dtd"
   xmlns:inkscape="http://www.inkscape.org/namespaces/inkscape"
   width="512"
   height="512"
   id="svg2"
   version="1.1"
   inkscape:version="0.91 r13725"
   sodipodi:docname="crank2.svg">
  <defs
     id="defs4">
    <linearGradient
       inkscape:collect="always"
       id="linearGradient5328">
      <stop
         style="stop-color:#000000;stop-opacity:1;"
         offset="0"
         id="stop5330" />
      <stop
         style="stop-color:#f2f2f2;stop-opacity:1"
         offset="1"
         id="stop5332" />
    </linearGradient>
    <linearGradient
       inkscape:collect="always"
       id="linearGradient5298">
      <stop
         style="stop-color:#8b6fe3;stop-opacity:1"
         offset="0"
         id="stop5300" />
      <stop
         style="stop-color:#f4f1fc;stop-opacity:1"
         offset="1"
         id="stop5302" />
    </linearGradient>
    <linearGradient
       inkscape:collect="always"
       xlink:href="#linearGradient5298"
       id="linearGradient5304"
       x1="274"
       y1="851.36218"
       x2="274"
       y2="765.36218"
       gradientUnits="userSpaceOnUse"
       gradientTransform="matrix(1.0000904,0,0,0.98593995,-0.02215528,10.731731)" />
    <linearGradient
       inkscape:collect="always"
       xlink:href="#linearGradient5328"
       id="linearGradient5334"
       x1="268"
       y1="823.36218"
       x2="269"
       y2="718.36218"
       gradientUnits="userSpaceOnUse" />
  </defs>
  <sodipodi:namedview
     id="base"
     pagecolor="#ffffff"
     bordercolor="#666666"
     borderopacity="1.0"
     inkscape:pageopacity="0.0"
     inkscape:pageshadow="2"
     inkscape:zoom="0.70000001"
     inkscape:cx="324.04633"
     inkscape:cy="278.56989"
     inkscape:document-units="px"
     inkscape:current-layer="layer1"
     showgrid="false"
     objecttolerance="20"
     inkscape:window-width="1366"
     inkscape:window-height="719"
     inkscape:window-x="0"
     inkscape:window-y="0"
     inkscape:window-maximized="1"
     gridtolerance="10">
    <inkscape:grid
       type="xygrid"
       id="grid2985"
       empspacing="5"
       visible="true"
       enabled="true"
       snapvisiblegridlinesonly="false" />
  </sodipodi:namedview>
  <metadata
     id="metadata7">
    <rdf:RDF>
      <cc:Work
         rdf:about="">
        <dc:format>image/svg+xml</dc:format>
        <dc:type
           rdf:resource="http://purl.org/dc/dcmitype/StillImage" />
        <dc:title />
      </cc:Work>
    </rdf:RDF>
  </metadata>
  <g
     inkscape:label="Layer 1"
     inkscape:groupmode="layer"
     id="layer1"
     transform="translate(0,-540.36218)">
    <path
       style="fill:#000000;fill-opacity:0;fill-rule:nonzero"
       inkscape:connector-curvature="0"
       id="path4510"
       d="m -2.187598,598.69045 505.143198,0 0,411.79515 -505.143198,0 z" />
    <path
       style="fill:#000000;fill-opacity:0;fill-rule:nonzero"
       inkscape:connector-curvature="0"
       id="path4512"
       d="m 11.731068,803.00036 0,0 c 0,-33.08969 117.184832,-59.93191 261.739622,-59.95379 l 0,0 c 144.5548,-0.0218 261.73962,26.78486 261.73962,59.87453 l 0,0 c 0,33.08969 -117.18481,59.93192 -261.73962,59.95381 l 0,0 C 128.91588,862.89677 11.731068,836.09004 11.731068,803.00036 Z" />
    <path
       style="fill:none;fill-rule:nonzero;stroke:url(#linearGradient5304);stroke-width:5.9889493;stroke-linecap:butt;stroke-linejoin:round;stroke-opacity:1"
       inkscape:connector-curvature="0"
       id="path4514"
       d="m 11.207068,813.39675 0,0 c 0,-26.8442 104.627572,-48.62011 233.692192,-48.63786 l 0,0 c 129.06463,-0.0177 233.69219,21.72938 233.69219,48.57357 l 0,0 c 0,26.84422 -104.62755,48.62011 -233.69219,48.63787 l 0,0 C 115.83462,861.98807 11.207068,840.24095 11.207068,813.39675 Z" />
    <path
       style="fill:#000000;fill-opacity:0;fill-rule:nonzero"
       inkscape:connector-curvature="0"
       id="path4516"
       d="m 110.63718,615.20336 c 25.69976,-17.63368 108.96725,52.86184 185.98315,157.45617 l 0,0 c 77.0159,104.59432 118.61584,203.67977 92.91606,221.31347 l 0,0 C 363.83661,1011.6066 280.56911,941.1111 203.55322,836.51676 l 0,0 C 126.53732,731.92244 84.937406,632.83707 110.63718,615.20339 Z" />
    <path
       style="fill:none;fill-rule:nonzero;stroke:#003da6;stroke-width:6.26893663;stroke-linecap:butt;stroke-linejoin:round;stroke-opacity:1"
       inkscape:connector-curvature="0"
       id="path4518"
       d="m 120.06103,615.10236 c 24.09464,-17.64308 102.16151,52.89004 174.36726,157.54015 l 0,0 C 366.63403,877.2926 405.63577,976.43089 381.54111,994.074 l 0,0 C 357.44645,1011.717 279.37957,941.1839 207.17384,836.53378 l 0,0 C 134.96811,731.88369 95.966382,632.74548 120.06103,615.10239 Z" />
    <path
       style="fill:#000000;fill-opacity:0;fill-rule:nonzero"
       inkscape:connector-curvature="0"
       id="path4520"
       d="M 109.64023,993.2489 C 84.023896,975.4945 126.14805,876.62116 203.72716,772.4093 l 0,0 C 281.30627,668.19745 364.96272,598.10988 390.57904,615.86435 l 0,0 c 25.61633,17.75447 -16.50781,116.62771 -94.08693,220.83958 l 0,0 C 218.913,940.91579 135.25656,1011.0034 109.64023,993.2489 Z" />
    <path
       style="fill:none;fill-rule:nonzero;stroke:#6390fc;stroke-width:6.25437164;stroke-linecap:butt;stroke-linejoin:round;stroke-opacity:1"
       inkscape:connector-curvature="0"
       id="path4522"
       d="M 119.03003,993.35711 C 95.126042,975.59252 134.43437,876.66249 206.82764,772.39087 l 0,0 C 279.2209,668.11925 357.28527,597.99149 381.18924,615.75614 l 0,0 c 23.90399,17.76466 -15.40433,116.69459 -87.79761,220.96622 l 0,0 C 220.99837,940.99399 142.93401,1011.1218 119.03003,993.35711 Z" />
    <g
       id="g5312"
       style="stroke:#000000;fill-opacity:1;fill:url(#linearGradient5334);stroke-opacity:1">
      <path
         d="m 30.944594,733.44858 q 16.290842,-13.76039 36.970542,-13.76039 27.672115,0 36.598594,18.44801 4.90958,10.35808 3.19867,20.7918 l -22.911324,0 q -0.520711,-8.01431 -3.198658,-12.09706 -4.686408,-7.25822 -16.960329,-7.25822 -12.497085,0 -21.869897,10.28249 -9.372815,10.20688 -13.240959,28.9573 -3.942533,18.75044 1.710909,28.12565 5.653444,9.29961 17.406654,9.29961 12.050761,0 20.0846,-8.01431 4.388857,-4.30955 8.480166,-12.92871 l 22.68816,0 q -6.769255,18.22118 -21.423575,29.63776 -14.579932,11.41658 -33.697496,11.41658 -23.655195,0 -33.995042,-15.42373 Q 0.52014283,805.42602 6.1735861,778.4345 12.273355,749.25035 30.944594,733.44858 Z"
         style="font-style:italic;font-variant:normal;font-weight:bold;font-stretch:normal;font-size:136.55699158px;line-height:125%;font-family:Helvetica;-inkscape-font-specification:'Helvetica Bold Italic';letter-spacing:0px;word-spacing:0px;fill:url(#linearGradient5334);fill-opacity:1;stroke:#000000;stroke-width:4.66491938;stroke-linecap:butt;stroke-linejoin:round;stroke-miterlimit:4;stroke-dasharray:none;stroke-opacity:1"
         id="path5229"
         inkscape:connector-curvature="0" />
      <path
         d="m 168.20047,749.02352 -4.61203,22.07713 q -1.93407,-0.22682 -3.49621,-0.30241 -1.56215,-0.0756 -2.52918,-0.0756 -12.79463,0 -18.96878,8.46793 -3.42183,4.76322 -5.50467,14.66767 l -8.18262,39.39102 -21.34919,0 17.1835,-82.41115 20.23338,0 -2.97551,14.36526 q 6.62048,-8.24113 10.86056,-11.26539 7.06681,-5.06564 16.58839,-5.06564 0.59511,0 0.96704,0.0756 0.44634,0 1.78532,0.0756 z"
         style="font-style:italic;font-variant:normal;font-weight:bold;font-stretch:normal;font-size:136.55699158px;line-height:125%;font-family:Helvetica;-inkscape-font-specification:'Helvetica Bold Italic';letter-spacing:0px;word-spacing:0px;fill:url(#linearGradient5334);fill-opacity:1;stroke:#000000;stroke-width:4.66491938;stroke-linecap:butt;stroke-linejoin:round;stroke-miterlimit:4;stroke-dasharray:none;stroke-opacity:1"
         id="path5231"
         inkscape:connector-curvature="0" />
      <path
         d="m 215.52731,793.17777 q -2.23161,1.28532 -4.46326,2.11698 -2.2316,0.75605 -5.95096,1.43652 l -4.90958,0.90727 q -6.99242,1.2097 -10.26547,2.94867 -5.50467,2.94863 -6.76926,9.1484 -1.19019,5.51927 1.26459,8.01429 2.52918,2.41941 6.84365,2.41941 6.84364,0 13.46411,-4.08276 6.62048,-4.08276 9.14965,-14.89449 l 1.63653,-8.01429 z m -10.78618,-10.05568 q 6.09978,-0.75607 8.85211,-1.89016 4.90957,-1.96576 5.80223,-6.12414 1.04141,-5.06564 -2.00847,-6.95579 -3.04988,-1.96578 -9.74475,-1.96578 -7.51314,0 -11.45566,3.78034 -2.75234,2.79744 -4.53763,7.56065 l -20.45655,0 q 2.97549,-10.81174 9.67037,-17.76754 10.71178,-10.88734 31.16831,-10.88734 13.31536,0 22.53939,5.36806 9.22404,5.36806 6.09978,20.26257 l -7.95945,37.80327 q -0.81827,3.93154 -1.7853,9.52642 -0.66948,4.23396 0,5.7461 0.74387,1.51213 2.60356,2.49503 l -0.59511,3.17546 -23.06009,0 q -0.44632,-2.49502 -0.37194,-4.68762 0.0743,-2.19258 0.44632,-4.99002 -5.43027,4.83881 -11.82759,8.24112 -7.73629,4.00712 -16.36523,4.00712 -11.00934,0 -16.88593,-6.35092 -5.80223,-6.42658 -3.34745,-18.14559 3.19864,-15.19691 16.14207,-22.00149 7.0668,-3.70472 19.71267,-5.29248 l 7.36434,-0.90727 z"
         style="font-style:italic;font-variant:normal;font-weight:bold;font-stretch:normal;font-size:136.55699158px;line-height:125%;font-family:Helvetica;-inkscape-font-specification:'Helvetica Bold Italic';letter-spacing:0px;word-spacing:0px;fill:url(#linearGradient5334);fill-opacity:1;stroke:#000000;stroke-width:4.66491938;stroke-linecap:butt;stroke-linejoin:round;stroke-miterlimit:4;stroke-dasharray:none;stroke-opacity:1"
         id="path5233"
         inkscape:connector-curvature="0" />
      <path
         d="m 330.86562,777.75403 -11.60443,55.49521 -21.72112,0 10.41424,-50.12715 q 1.41335,-6.50215 0.37194,-9.98006 -1.78531,-6.35096 -10.56302,-6.35096 -10.78617,0 -16.73719,9.29962 -3.12426,4.91442 -4.68638,12.55068 l -9.29844,44.60787 -21.12601,0 17.18348,-82.25995 20.45654,0 -2.52919,12.02146 q 5.43031,-6.35096 9.67038,-9.14841 7.58753,-4.99001 17.62983,-4.99001 12.57147,0 19.11756,6.72897 6.62047,6.65338 3.42181,22.15273 z"
         style="font-style:italic;font-variant:normal;font-weight:bold;font-stretch:normal;font-size:136.55699158px;line-height:125%;font-family:Helvetica;-inkscape-font-specification:'Helvetica Bold Italic';letter-spacing:0px;word-spacing:0px;fill:url(#linearGradient5334);fill-opacity:1;stroke:#000000;stroke-width:4.66491938;stroke-linecap:butt;stroke-linejoin:round;stroke-miterlimit:4;stroke-dasharray:none;stroke-opacity:1"
         id="path5235"
         inkscape:connector-curvature="0" />
      <path
         d="m 359.85664,722.18319 20.82848,0 -12.57149,60.03163 32.87925,-30.99869 26.25875,0 -34.96209,31.52793 18.96879,50.50518 -25.58927,0 -12.05075,-35.23267 -10.78619,9.29962 -5.35588,25.93305 -20.82849,0 23.20889,-111.06605 z"
         style="font-style:italic;font-variant:normal;font-weight:bold;font-stretch:normal;font-size:136.55699158px;line-height:125%;font-family:Helvetica;-inkscape-font-specification:'Helvetica Bold Italic';letter-spacing:0px;word-spacing:0px;fill:url(#linearGradient5334);fill-opacity:1;stroke:#000000;stroke-width:4.66491938;stroke-linecap:butt;stroke-linejoin:round;stroke-miterlimit:4;stroke-dasharray:none;stroke-opacity:1"
         id="path5237"
         inkscape:connector-curvature="0" />
      <path
         d="m 427.25567,811.70137 q 6.84363,-10.96296 26.25875,-23.21121 16.88594,-10.66053 22.16745,-15.27254 8.10822,-7.1826 9.89352,-15.72615 1.48774,-6.95581 -1.33898,-11.5678 -2.82672,-4.612 -9.89352,-4.612 -9.67037,0 -14.7287,7.33384 -2.90112,4.23396 -5.13273,13.45795 l -20.60533,0 q 3.42185,-13.98721 9.67038,-22.60635 11.90197,-16.40663 33.54872,-16.40663 17.10909,0 25.21733,9.67764 8.10822,9.60204 4.76078,25.47942 -2.52915,12.17264 -11.60444,21.62346 -6.02536,6.27535 -18.37367,13.98722 l -9.74474,6.12414 q -9.14966,5.74609 -12.64587,8.31671 -3.49622,2.57063 -6.17416,5.97292 l 47.08723,0 -3.94253,18.97725 -73.8667,0 q 2.75233,-11.79463 9.44721,-21.54787 z"
         style="font-style:italic;font-variant:normal;font-weight:bold;font-stretch:normal;font-size:136.55699158px;line-height:125%;font-family:Helvetica;-inkscape-font-specification:'Helvetica Bold Italic';letter-spacing:0px;word-spacing:0px;fill:url(#linearGradient5334);fill-opacity:1;stroke:#000000;stroke-width:4.66491938;stroke-linecap:butt;stroke-linejoin:round;stroke-miterlimit:4;stroke-dasharray:none;stroke-opacity:1"
         id="path5241"
         inkscape:connector-curvature="0" />
    </g>
  </g>
</svg>
