<?xml version="1.0" encoding="UTF-8" standalone="no"?>
<svg
   xmlns:dc="http://purl.org/dc/elements/1.1/"
   xmlns:cc="http://creativecommons.org/ns#"
   xmlns:rdf="http://www.w3.org/1999/02/22-rdf-syntax-ns#"
   xmlns:svg="http://www.w3.org/2000/svg"
   xmlns="http://www.w3.org/2000/svg"
   xmlns:xlink="http://www.w3.org/1999/xlink"
   xmlns:sodipodi="http://sodipodi.sourceforge.net/DTD/sodipodi-0.dtd"
   xmlns:inkscape="http://www.inkscape.org/namespaces/inkscape"
   version="1.1"
   id="svg3190"
   height="48px"
   width="48px"
   inkscape:version="0.48.5 r10040"
   sodipodi:docname="csymmatch.svg">
  <sodipodi:namedview
     pagecolor="#ffffff"
     bordercolor="#666666"
     borderopacity="1"
     objecttolerance="10"
     gridtolerance="10"
     guidetolerance="10"
     inkscape:pageopacity="0"
     inkscape:pageshadow="2"
     inkscape:window-width="1366"
     inkscape:window-height="719"
     id="namedview7407"
     showgrid="false"
     inkscape:zoom="6.9532167"
     inkscape:cx="24.157458"
     inkscape:cy="27.766733"
     inkscape:window-x="0"
     inkscape:window-y="0"
     inkscape:window-maximized="1"
     inkscape:current-layer="g4467"
     showguides="true"
     inkscape:guide-bbox="true">
    <sodipodi:guide
       position="304.27119,74.847458"
       orientation="0,1"
       id="guide5944" />
  </sodipodi:namedview>
  <defs
     id="defs3192">
    <marker
       inkscape:stockid="Arrow1Sstart"
       orient="auto"
       refY="0.0"
       refX="0.0"
       id="Arrow1Sstart"
       style="overflow:visible"
       inkscape:isstock="true">
      <path
         id="path6055"
         d="M 0.0,0.0 L 5.0,-5.0 L -12.5,0.0 L 5.0,5.0 L 0.0,0.0 z "
         style="fill-rule:evenodd;stroke:#000000;stroke-width:1pt;stroke-opacity:1;fill:#000000;fill-opacity:1"
         transform="scale(0.2) translate(6,0)" />
    </marker>
    <marker
       inkscape:stockid="Arrow1Mend"
       orient="auto"
       refY="0.0"
       refX="0.0"
       id="Arrow1Mend"
       style="overflow:visible;"
       inkscape:isstock="true">
      <path
         id="path6693"
         d="M 0.0,0.0 L 5.0,-5.0 L -12.5,0.0 L 5.0,5.0 L 0.0,0.0 z "
         style="fill-rule:evenodd;stroke:#000000;stroke-width:1pt;stroke-opacity:1;fill:#000000;fill-opacity:1"
         transform="scale(0.4) rotate(180) translate(10,0)" />
    </marker>
    <marker
       inkscape:stockid="Arrow2Lend"
       orient="auto"
       refY="0.0"
       refX="0.0"
       id="Arrow2Lend"
       style="overflow:visible;"
       inkscape:isstock="true">
      <path
         id="path6705"
         style="fill-rule:evenodd;stroke-width:0.625;stroke-linejoin:round;stroke:#000000;stroke-opacity:1;fill:#000000;fill-opacity:1"
         d="M 8.7185878,4.0337352 L -2.2072895,0.016013256 L 8.7185884,-4.0017078 C 6.9730900,-1.6296469 6.9831476,1.6157441 8.7185878,4.0337352 z "
         transform="scale(1.1) rotate(180) translate(1,0)" />
    </marker>
    <marker
       inkscape:stockid="Arrow2Mstart"
       orient="auto"
       refY="0.0"
       refX="0.0"
       id="marker7979"
       style="overflow:visible"
       inkscape:isstock="true">
      <path
         id="path7981"
         style="fill-rule:evenodd;stroke-width:0.625;stroke-linejoin:round;stroke:#000000;stroke-opacity:1;fill:#000000;fill-opacity:1"
         d="M 8.7185878,4.0337352 L -2.2072895,0.016013256 L 8.7185884,-4.0017078 C 6.9730900,-1.6296469 6.9831476,1.6157441 8.7185878,4.0337352 z "
         transform="scale(0.6) translate(0,0)" />
    </marker>
    <marker
       style="overflow:visible"
       id="Arrow2Sstart"
       refX="0.0"
       refY="0.0"
       orient="auto">
      <path
         transform="scale(0.3) translate(-2.3,0)"
         d="M 8.7185878,4.0337352 L -2.2072895,0.016013256 L 8.7185884,-4.0017078 C 6.9730900,-1.6296469 6.9831476,1.6157441 8.7185878,4.0337352 z "
         style="fill-rule:evenodd;stroke-width:0.625;stroke-linejoin:round;stroke:#000000;stroke-opacity:1;fill:#000000;fill-opacity:1"
         id="path6714" />
    </marker>
    <marker
       style="overflow:visible"
       id="Arrow2Mstart"
       refX="0.0"
       refY="0.0"
       orient="auto">
      <path
         transform="scale(0.6) translate(0,0)"
         d="M 8.7185878,4.0337352 L -2.2072895,0.016013256 L 8.7185884,-4.0017078 C 6.9730900,-1.6296469 6.9831476,1.6157441 8.7185878,4.0337352 z "
         style="fill-rule:evenodd;stroke-width:0.625;stroke-linejoin:round;stroke:#000000;stroke-opacity:1;fill:#000000;fill-opacity:1"
         id="path6708" />
    </marker>
    <marker
       style="overflow:visible;"
       id="Arrow1Send"
       refX="0.0"
       refY="0.0"
       orient="auto">
      <path
         transform="scale(0.2) rotate(180) translate(6,0)"
         style="fill-rule:evenodd;stroke:#000000;stroke-width:1pt;stroke-opacity:1;fill:#000000;fill-opacity:1"
         d="M 0.0,0.0 L 5.0,-5.0 L -12.5,0.0 L 5.0,5.0 L 0.0,0.0 z "
         id="path6699" />
    </marker>
    <marker
       style="overflow:visible"
       id="Arrow1Mstart"
       refX="0.0"
       refY="0.0"
       orient="auto">
      <path
         transform="scale(0.4) translate(10,0)"
         style="fill-rule:evenodd;stroke:#000000;stroke-width:1pt;stroke-opacity:1;fill:#000000;fill-opacity:1"
         d="M 0.0,0.0 L 5.0,-5.0 L -12.5,0.0 L 5.0,5.0 L 0.0,0.0 z "
         id="path6690" />
    </marker>
    <marker
       style="overflow:visible"
       id="Arrow1Lstart"
       refX="0.0"
       refY="0.0"
       orient="auto">
      <path
         transform="scale(0.8) translate(12.5,0)"
         style="fill-rule:evenodd;stroke:#000000;stroke-width:1pt;stroke-opacity:1;fill:#000000;fill-opacity:1"
         d="M 0.0,0.0 L 5.0,-5.0 L -12.5,0.0 L 5.0,5.0 L 0.0,0.0 z "
         id="path6684" />
    </marker>
    <linearGradient
       id="linearGradient9990">
      <stop
         id="stop9992"
         offset="0"
         style="stop-color:#000000;stop-opacity:1;" />
      <stop
         id="stop9994"
         offset="1"
         style="stop-color:#9b9b9b;stop-opacity:1;" />
    </linearGradient>
    <linearGradient
       id="linearGradient9982">
      <stop
         id="stop9984"
         offset="0"
         style="stop-color:#000000;stop-opacity:1;" />
      <stop
         id="stop9986"
         offset="1"
         style="stop-color:#000000;stop-opacity:0;" />
    </linearGradient>
    <linearGradient
       id="linearGradient9972">
      <stop
         id="stop9974"
         offset="0"
         style="stop-color:#000000;stop-opacity:1;" />
      <stop
         id="stop9976"
         offset="1"
         style="stop-color:#000000;stop-opacity:0;" />
    </linearGradient>
    <linearGradient
       id="linearGradient6104">
      <stop
         id="stop6106"
         offset="0"
         style="stop-color:#706773;stop-opacity:1;" />
      <stop
         id="stop6108"
         offset="1"
         style="stop-color:#000000;stop-opacity:1;" />
    </linearGradient>
    <linearGradient
       gradientTransform="matrix(0.73102902,0,0,0.73102902,9.6550637,9.8127696)"
       gradientUnits="userSpaceOnUse"
       y2="26.383081"
       x2="9.3690271"
       y1="35.476406"
       x1="6.7043839"
       id="linearGradient9978"
       xlink:href="#linearGradient9972" />
    <radialGradient
       gradientUnits="userSpaceOnUse"
       gradientTransform="matrix(0.91479204,0,0,0.8148779,2.7804264,3.6918021)"
       r="5.4061031"
       fy="27.458502"
       fx="26.019031"
       cy="27.458502"
       cx="26.019031"
       id="radialGradient9988"
       xlink:href="#linearGradient9982" />
  </defs>
  <metadata
     id="metadata3195">
    <rdf:RDF>
      <cc:Work
         rdf:about="">
        <dc:format>image/svg+xml</dc:format>
        <dc:type
           rdf:resource="http://purl.org/dc/dcmitype/StillImage" />
        <dc:title />
      </cc:Work>
    </rdf:RDF>
  </metadata>
  <g
     id="layer1">
    <g
       id="g4467"
       transform="matrix(1.2878619,0,0,1.2878619,-75.957576,-23.05942)">
      <g
         id="g6472"
         transform="matrix(0.98493131,0,0,1.375151,-5.1163091,-11.410926)">
        <path
           style="color:#000000;font-style:normal;font-variant:normal;font-weight:normal;font-stretch:normal;font-size:medium;line-height:normal;font-family:sans-serif;text-indent:0;text-align:start;text-decoration:none;text-decoration-line:none;text-decoration-style:solid;text-decoration-color:#000000;letter-spacing:normal;word-spacing:normal;text-transform:none;direction:ltr;block-progression:tb;writing-mode:lr-tb;baseline-shift:baseline;text-anchor:start;white-space:normal;shape-padding:0;clip-rule:nonzero;display:inline;overflow:visible;visibility:visible;opacity:1;isolation:auto;mix-blend-mode:normal;color-interpolation:sRGB;color-interpolation-filters:linearRGB;solid-color:#000000;solid-opacity:1;fill:#000000;fill-opacity:1;fill-rule:evenodd;stroke:none;stroke-width:1.68318748;stroke-linecap:butt;stroke-linejoin:miter;stroke-miterlimit:4;stroke-dasharray:none;stroke-dashoffset:0;stroke-opacity:1;color-rendering:auto;image-rendering:auto;shape-rendering:auto;text-rendering:auto;enable-background:accumulate"
           d="m 77.148438,32.3125 0,1.681641 7.214843,0 0,-1.681641 -7.214843,0 z"
           id="path6026"
           inkscape:connector-curvature="0" />
        <path
           id="path6478"
           d="m 79.16803,33.153211 1.683187,-1.683187 -5.891156,1.683187 5.891156,1.683187 -1.683187,-1.683187 z"
           style="fill:#000000;fill-opacity:1;fill-rule:evenodd;stroke:#000000;stroke-width:0.3366375pt;stroke-opacity:1"
           inkscape:connector-curvature="0" />
      </g>
      <g
         id="g6464"
         transform="matrix(0.32944591,0,0,0.32944591,42.995932,51.131185)">
        <path
           style="fill:#c4c4c4;fill-opacity:1;stroke-width:0.24847385"
           d="m 47.641623,7.1541139 c -2.52286,-2.8758192 -8.404694,-0.3716262 -6.789316,-6.1120243 1.445576,-2.9148823 5.276324,-0.98328223 5.89993,-4.6883073 2.603385,-2.2227907 7.628936,-3.605797 2.841494,-6.1935609 -1.856515,-3.1579024 -0.745677,-9.3896954 -5.227481,-8.8325524 -4.316473,-7.727982 -3.203807,-17.097008 -3.170129,-25.613077 0.34401,-12.637212 2.712099,-25.208809 2.174724,-37.861081 0.76806,-2.816159 0.465797,6.492753 3.987471,4.00609 3.649959,1.007009 -0.126133,8.264929 4.865722,8.004667 -2.762343,4.765982 -7.605752,1.577402 -10.228678,0.114359 -1.926017,-0.291064 0.84629,6.41569 -0.08313,9.108165 -0.06982,9.432339 -0.572355,18.855456 -1.135223,28.269275 2.214027,0.159395 6.30452,6.705517 4.641579,0.204369 -1.914481,-4.793909 7.635215,-5.187601 5.671543,0.563033 2.174051,-0.997897 6.336811,-4.290119 3.759674,-7.805544 -3.579404,-2.786758 -4.388359,-7.800771 0.539308,-8.250785 0.09772,-4.190825 0.293949,-8.503779 0.0012,-12.652259 -3.312313,-3.707168 2.466128,-6.174405 -1.130617,-10.226779 0.884841,-3.245916 1.358789,-7.500865 2.101173,-10.630526 0.117187,2.466042 0.391607,9.303362 2.260059,4.066557 -3.672761,-6.935826 6.854667,-2.887067 8.963202,-3.877674 3.189125,-6.09829 8.851574,5.525411 10.182066,-1.799233 1.776164,-2.987905 7.366071,1.899241 4.208144,4.316781 3.131446,1.994084 4.484609,-7.030366 8.803414,-2.383731 5.174538,1.062459 1.701577,9.355346 7.562171,7.068281 2.969549,1.673295 -1.495261,6.953396 2.755979,7.862298 -2.24706,2.586422 -8.748818,3.393874 -8.48285,-1.618958 -5.123276,3.667333 -10.126214,-9.10357 -11.860377,-1.074897 -2.159953,2.697219 -6.238502,3.716239 -8.224673,4.80455 4.010894,2.702218 -0.341816,8.954295 -4.200274,7.784637 3.007636,2.865503 0.450461,7.047623 5.025422,7.401909 2.862074,2.875105 1.295849,6.611119 5.791439,7.377126 2.947953,2.663219 2.520177,5.239485 6.288922,6.342102 1.884824,1.696936 6.293614,5.890509 7.266686,5.778555 -2.329857,-3.697179 2.59923,-8.840166 5.128281,-5.067229 0.692107,7.115501 3.555534,-3.0434 5.551774,-4.480096 1.49191,-1.551481 4.15724,-1.556039 4.99433,-3.200046 -1.59361,-3.703655 7.05103,-1.490041 4.60375,-3.972492 -3.73357,-2.940239 1.94765,-6.895286 -2.42778,-9.931622 -0.99489,-2.280397 6.68725,-7.167428 0.0817,-4.871225 -4.48517,3.406199 -7.14688,-5.806106 -0.97921,-5.079588 -0.27284,-1.165957 -8.77083,-5.081506 -3.49188,-8.559096 5.37949,-1.191196 -1.77283,-8.566003 5.29638,-7.511983 3.77367,-1.678338 4.86449,4.236067 6.51096,-0.331711 3.49851,-5.139775 9.29805,5.294074 9.37421,-3.121351 1.60477,-1.952224 7.29903,1.432261 4.66696,4.237183 3.05707,2.735067 1.69119,-6.865005 6.61781,-4.225566 4.2909,0.484084 5.71,5.689269 7.32406,7.46569 4.50414,-1.982962 3.63683,6.882812 3.81447,7.68225 -2.92133,-0.251204 -1.61826,-7.179244 -3.04815,-1.206853 -1.30088,3.128333 1.31302,3.904828 3.34491,1.916991 -1.55448,5.571835 -6.23987,-1.857504 -9.15217,-0.39608 -3.51258,-0.192462 -8.70315,-7.857965 -8.77505,-1.573397 -2.77733,2.160136 -4.59752,5.723132 -7.99262,5.892301 5.19502,2.491177 0.33007,8.850838 -2.70341,8.543594 2.74632,2.549011 0.0999,6.766143 4.51546,7.69644 2.43315,3.135731 1.88057,5.943296 5.97151,7.148306 3.20491,2.173165 1.20605,5.538407 5.37932,5.938928 2.41795,3.235742 5.88672,4.021835 8.32841,7.257751 -1.05297,-3.81397 -0.18583,-8.957159 4.87435,-6.697713 0.5044,3.450427 0.59202,5.064661 2.99168,1.823025 2.38065,-0.176251 2.19809,-4.075087 3.54765,-1.023027 4.38515,-0.206124 3.05062,6.813594 8.09197,5.370987 3.37281,2.836411 -2.09672,7.722863 1.71687,10.764679 -0.54644,3.170746 -7.90735,6.230228 -2.11621,8.853972 2.73899,2.655057 -3.97167,6.0612235 -5.0513,2.9985337 -4.83182,2.7252986 5.08362,4.8019476 1.06403,8.4215486 -2.90031,5.0925643 -9.00924,2.5186058 -13.55293,2.6563442 -2.15972,-1.281442 -3.89783,-4.80877456 -5.7354,-2.5664857 -1.73311,-2.8490151 8.57286,-3.2773623 1.99568,-4.2587009 -11.26495,-0.024921 -22.52987,0.029868 -33.7948,0.039161 3.31608,4.5722264 -3.91138,8.8475926 -7.78607,7.7655684 -0.5298,4.5703126 -6.217538,1.9388169 -7.274872,2.6474094 -1.698215,4.2939073 -3.716253,-5.8493941 0.592235,-6.0223717 0.07171,-3.3256961 3.209262,-5.4272007 -1.880435,-4.363222 -10.982285,0.1085551 -21.97381,-0.1354695 -32.950201,0.1437073 3.603055,3.55428705 -3.40851,9.1202187 -7.229162,6.9926913 C 49.774792,2.9115202 52.1194,10.039365 47.641623,7.1541139 z m 1.95028,-1.0336188 C 51.115827,2.8808072 46.130649,6.9145995 45.334096,3.0748362 44.319491,-0.12267462 40.561885,0.51628088 42.065151,4.528652 44.593605,2.4140454 47.731906,7.5046551 49.591903,6.1204951 z M 98.105038,5.7136621 C 95.88104,1.1921005 91.797129,6.2625768 96.338632,6.7449236 97.41829,7.1161451 100.83798,7.9241344 98.105038,5.7136621 z M 55.803079,4.0772236 c 2.701458,-1.0632215 5.627985,-4.31715861 0.301777,-2.85133 -3.383751,1.350899 -6.593639,-8.3526184 -5.08966,-1.73185926 0.670816,2.23258676 1.670117,5.19738396 4.787883,4.58318926 z M 106.00621,3.6679624 c 2.32173,-1.4619029 3.77262,-3.82095197 -0.16102,-2.4670625 -3.84672,1.5264238 -4.17849,-4.0750514 -6.911153,-3.4443814 1.613363,2.40929477 3.966353,7.6620982 7.072173,5.9114439 z m 50.11252,0.2713328 c 2.01032,-0.7227864 5.34216,-4.42538514 0.87343,-2.7848229 -3.77292,1.2920539 -4.36819,-3.970622 -6.54088,-3.7968696 1.58308,3.31736705 1.04454,6.744947 5.66745,6.5816926 l 0,-10e-8 z M 79.173113,-3.4177593 c 5.926975,-0.07044 11.875675,0.1384389 17.789157,-0.1568728 2.862864,-1.9359451 5.69989,-4.1404686 1.451624,-5.5998188 -2.17115,-3.9684741 -0.935158,-9.7878581 -6.703504,-9.1552511 -3.793545,-0.833794 -1.665032,-6.938611 -5.930158,-3.470805 -4.47966,3.657725 -6.431252,-2.873903 -7.967993,-5.089402 -4.29398,-0.27075 -3.305362,-1.65521 0.64718,-0.748175 1.370729,-0.603622 5.153887,-1.745227 3.84995,-3.402382 -4.521013,3.83208 -9.039093,-4.024436 -6.44851,-6.551495 -4.081155,3.428432 -9.594328,-3.048543 -5.92106,-6.609807 -1.487649,0.500192 -5.404455,0.05695 -6.335769,-2.348276 -1.099886,3.633555 -5.838389,4.561253 -7.244791,4.171836 0.833966,2.127764 -1.269101,6.830523 1.029986,7.472133 3.802946,0.264652 2.809421,7.116222 7.927889,5.438453 2.474307,3.50522 -2.238448,7.749197 1.398204,11.077513 -1.397055,2.998754 -7.344343,6.066982 -1.909708,8.7163998 2.184933,3.2579622 -4.327639,5.2332739 -5.242452,2.528602 -4.39825,5.1886059 6.014013,3.5691267 8.932547,3.7285832 3.559135,-0.00222 7.118272,-0.00236 10.677408,-0.00124 z m 48.926217,-0.093809 c 6.23296,-0.041243 12.47238,0.038042 18.70037,-0.2097607 1.6751,-2.0973742 8.59948,-3.9760398 3.19482,-5.4845823 -2.40661,-3.3030527 -0.39172,-10.4681717 -5.72406,-9.4575767 -2.89271,-0.298599 -3.55779,-4.504329 -4.33513,-4.806421 -5.10562,4.103358 -7.37726,-7.691208 -11.89345,-2.900564 -4.02706,4.604181 -2.01941,-4.62502 -0.2066,-1.896953 -0.54126,0.928643 5.2676,-1.828304 6.15674,1.680472 1.56781,2.429588 4.90709,3.196427 1.12983,0.513406 -4.95288,-0.648006 2.51176,-7.795232 -1.74712,-5.436111 -2.47312,1.763382 -6.52536,-2.213689 -6.15524,-4.596101 3.61387,-4.808992 -4.14725,0.76949 -5.21924,-4.06139 -2.94029,-2.509213 3.23409,-6.944923 -2.67274,-4.561146 -2.10095,1.600919 -2.81497,6.28132 -6.72374,3.687017 -0.80862,3.831016 -4.1146,-1.659632 -6.36712,1.6262 -3.28985,1.254617 -5.14537,5.232392 -0.16193,4.583959 1.73592,3.300108 3.46026,5.026966 7.16708,4.856544 4.01715,2.451778 -1.3388,5.434552 0.31299,8.096383 5.71684,3.998255 -2.62585,6.774744 -3.00698,9.814408 4.60761,0.814886 3.75362,5.9457336 -0.20112,6.1027234 -3.13979,-4.1298584 -5.12274,4.2407794 0.28909,2.4315052 5.82114,0.02346 11.64237,0.02045 17.46355,0.017988 z M 55.258851,-13.149798 c -0.14486,-2.287923 -1.942272,2.590559 0,0 z m 4.498238,0.7242 c 4.223998,-0.98149 -2.230426,-3.725726 -2.810529,-5.765031 -0.698044,2.528194 -2.223196,7.926145 2.810529,5.765026 l 0,5e-6 z m 2.074314,-3.09305 c -1.108903,-2.91574 -4.23155,-2.597014 -0.917315,0.237851 0.291848,0.386471 0.879471,0.176724 0.917315,-0.237851 z m 45.471047,2.989278 c 5.93448,0.303064 -4.5556,-9.508022 -2.20468,-2.700352 -2.55138,3.478594 -4.13776,2.465512 2.20468,2.700352 z m -42.871528,-4.176599 c 3.035859,-3.4548 -2.720305,-2.363576 -1.98697,-5.010357 -5.116108,-2.402629 -3.19774,4.47394 0.441622,5.087199 0.336418,0.743684 1.208465,0.527204 1.545348,-0.07684 z m 45.277578,0.351871 c -3.4901,-3.787415 0.29309,2.929076 0,0 l 0,0 z m 45.22565,3.725868 c 1.65191,-1.811541 -2.93365,-0.09626 0.36041,0.208312 l -0.36043,-0.208312 2e-5,0 z m 4.8872,0.0081 c 4.22239,-1.112179 -2.10831,-3.537934 -2.59482,-5.76413 -0.66683,2.453406 -2.73282,7.635155 2.59482,5.76413 z M 57.615627,-19.730802 c 1.963555,-5.772355 -3.90554,-2.571836 -0.512154,0.615726 l 0.560976,-0.06471 -0.04882,-0.551012 0,0 z m 56.105173,2.500957 c 2.98968,-3.999975 -6.01555,-1.44307 -1.88352,-4.231937 -0.67217,-2.940437 -8.0034,-0.249359 -3.69995,2.772868 3.37987,0.338785 2.55372,5.355243 5.58347,1.459069 z m -58.703903,-7.364407 c -1.754427,-1.210598 -6.505915,1.30001 -1.766914,2.456532 2.363399,2.978518 2.341449,-0.908631 1.766914,-2.456532 z m 50.447333,5.638202 c 0.1005,-1.938926 1.94794,-5.082218 -2.12479,-5.060333 -0.46088,-3.138566 -6.667795,1.322323 -1.90633,1.823577 2.17429,0.265187 1.99438,3.754988 4.03112,3.236756 z m 56.49484,3.343625 c -1.01876,-2.875716 -4.40841,-2.876731 -0.86776,0.175196 0.19547,0.448779 0.95843,0.29344 0.86776,-0.175196 z m 3.40357,-2.475456 c 0.56676,-2.744471 -3.31196,-0.984177 -3.04761,-3.886622 -6.34083,-2.478303 -0.76263,7.086192 1.98976,5.17891 l 0.63037,-0.655243 0.42748,-0.637045 0,0 z m -103.226406,-5.292 c -0.713807,-2.423612 5.530853,-4.750563 0.21191,-5.077225 -2.034201,-0.629651 -1.792932,4.829244 -1.295549,5.376039 0.01896,0.06317 1.975401,0.759064 1.083639,-0.298814 z m 2.388929,-1.30866 c -0.848575,-2.400988 -1.263033,4.067019 0,0 z m -5.185296,0.547328 c 2.82967,-3.21429 -2.215847,-3.846709 -1.652713,-5.872371 5.148951,0.435422 -2.795732,-7.953973 -1.304592,-1.296555 0.269619,2.211707 -1.337442,9.479444 2.957305,7.168926 z m -8.634828,-0.795438 c 4.605455,0.943575 1.710003,-6.052923 0.29246,-5.097788 -0.964659,2.740813 -7.146765,5.037522 -1.151825,5.431216 l 0.859365,-0.333428 z m 107.061991,5.078931 c 2.26225,-2.673268 -1.85795,-5.483769 -1.37588,-1.343054 -0.76956,0.976456 1.39282,3.275386 1.37588,1.343054 z m -46.82141,-3.964826 c 2.86077,-2.100867 0.77004,-6.620539 -1.8429,-4.837101 0.86661,1.724176 -1.62569,7.178572 1.8429,4.837101 z m -11.031335,-1.297882 c 3.284265,-1.034777 -2.658467,-8.895364 -2.265515,-2.913875 -2.738181,1.819891 -3.419959,4.392604 0.954197,3.384578 l 0.635177,-0.169233 0.676141,-0.30147 0,0 z m 7.261935,0.980991 c 2.88532,-3.586249 -2.18746,-13.910774 -5.13743,-8.225469 -4.608875,0.17284 3.54935,1.987281 1.89306,5.053329 -0.41693,2.135161 0.9011,4.118979 3.24437,3.17214 z m -2.51199,-5.180276 c 0.51381,-4.390281 4.55429,2.100143 1e-4,0 l -1e-4,0 z m -22.231451,3.618646 c -1.904765,-2.156131 -1.681323,-0.527068 0,0 z m 72.686691,0.903301 c -1.40057,-1.138794 -6.34151,1.180969 -2.00419,2.321131 2.32979,2.894213 2.72621,-0.281255 2.00419,-2.321131 z M 54.422889,-29.61156 c -3.341111,-2.829324 1.676214,4.614869 0,0 z m 107.908631,6.304696 c -0.80922,-2.600603 5.72973,-4.868619 0.0125,-5.338757 -1.80339,-0.148961 -1.4271,4.523848 -1.02575,5.486868 -0.11174,0.662535 1.47538,0.366309 1.01326,-0.148111 z m 2.49289,-2.252723 c -2.62125,1.097403 -0.11347,3.891732 0,0 z m -4.80933,-0.156673 c 1.1778,-2.643026 -5.41319,-4.320198 -0.18556,-4.604893 -0.14506,-3.070336 -4.32061,-5.985009 -3.34064,-0.972109 -0.41923,2.356533 -0.0642,11.578107 3.5262,5.577002 z M 55.405217,-31.482406 c 0.927962,-4.467966 -5.371308,1.355699 -0.238759,0.887213 l 0.238759,-0.887213 z m 46.820943,1.976139 c -3.049714,-2.887902 0.46649,3.795527 0.21784,0.626208 l -0.21784,-0.626208 z m 49.58049,4.178308 c 4.23025,0.184286 -1.12549,-9.044276 -1.45912,-3.267415 -2.47392,1.584944 -5.05513,3.585593 -0.62813,3.761851 0.72248,0.0093 1.44625,-0.1632 2.08725,-0.494436 z m -39.63545,-4.163149 c -1.25685,-0.988085 0.2247,0.872026 0,0 z m 42.76553,0.991933 c -2.53886,-5.649359 -0.70486,2.093769 0,0 z m 0.60169,-3.759017 c 0.30079,-3.878216 -5.00731,2.475671 -0.21473,1.323422 l 0.13062,-0.483199 0.0841,-0.840223 z M 55.402171,-42.499011 c -0.466108,-3.172528 -4.482802,-3.648069 -1.039014,-0.19038 0.683353,0.16591 1.363894,2.78325 1.039014,0.19038 z m 55.854529,1.685383 c -0.56674,-2.426919 -1.16749,0.967151 0,0 z m -54.108836,-6.549376 c -0.776805,-2.627881 -1.213041,0.704807 0,0 z m 5.849714,-1.979012 c -0.696182,-0.864829 -0.77688,0.289415 0,0 z m -4.842421,-4.058599 c 2.061321,-1.923126 -1.240721,-4.488827 2.397422,-6.232731 2.606572,-2.847417 -6.74434,-0.757686 -4.005251,2.868103 0.03593,1.456246 -0.586283,7.285119 1.607829,3.364628 z m 8.848207,-8.92584 c 0.153675,-4.154447 -4.556818,-9.92862 -6.641818,-3.863364 3.058083,0.345661 3.476263,5.057888 6.641818,3.863364 z m -8.059008,-3.817728 c -2.376116,-3.069306 -3.599395,2.614472 0,0 l 0,0 z m 59.583234,3.65804 c 1.33588,-2.718389 -6.34922,-11.599504 -6.77391,-3.786561 3.30617,-0.226724 3.89447,4.908007 6.77391,3.786561 z m -50.45877,-4.352916 c 0.11942,-2.736359 -0.212959,-5.659353 2.666202,-6.690538 -1.268355,-2.605074 6.710664,-5.11782 1.88951,-6.114405 -0.153045,4.361609 -4.582075,4.013244 -6.538644,4.916559 1.302001,3.940857 -7.79492,4.091813 -5.381703,5.815184 3.676234,-4.667028 5.635247,3.000141 7.364635,2.0732 z m 29.741212,1.320512 c 3.788258,-0.518247 -2.665426,-2.877014 0.17378,-5.91029 1.227025,-2.770371 -3.48052,-1.735332 -1.307246,0.301829 -3.190665,1.427486 -3.695767,8.245625 1.133466,5.608461 z m -49.488624,-2.945592 c 5.231363,-2.139264 -2.262164,-1.741218 -0.764337,-5.826379 -0.614802,1.428711 -2.762037,7.054022 0.764337,5.826379 z m 10.605828,-0.569202 c -0.305666,-3.389526 8.871161,-3.215159 4.799158,-7.201015 -1.684626,1.264727 -6.234127,0.409445 -3.011808,2.296445 -1.191425,2.524187 -5.087274,-2.341605 -4.106398,2.822719 -1.138905,1.562992 2.685486,6.008177 2.319048,2.081851 z m 60.341804,0.967697 c -1.62156,-5.281418 2.88884,-7.738333 5.25316,-11.671435 -2.64533,-4.043494 -2.76968,6.477055 -7.26647,3.635021 -1.90429,0.364321 -0.37924,5.824379 -4.65843,4.915787 -4.05955,3.562537 3.97257,-2.200009 4.50875,2.336437 0.6258,0.84935 2.10546,3.972511 2.16299,0.78419 z m -9.43808,-0.792274 c -0.68862,-4.070208 8.12595,-3.03945 4.60389,-7.712715 -2.93384,1.593537 -4.89026,4.230149 -6.02331,1.876333 -5.21934,0.92914 -0.18225,8.947434 1.41942,5.836382 z m -54.20429,-3.315366 c -0.426577,-0.188503 0.162664,1.754187 0,0 z m -13.86265,-4.289452 c 3.113004,-0.779952 0.259168,-6.651139 2.269135,-1.722093 1.686947,2.488296 1.286856,6.699125 -1.515657,2.599038 l -0.753478,-0.876945 0,0 z m 49.540514,2.991688 c 3.293975,-1.324265 1.833353,-5.369244 -0.767211,-6.737666 -4.733541,-3.312025 1.450362,4.543349 -0.816524,6.493823 -3.450324,2.991486 -0.2717,2.581269 1.583735,0.243843 z m -15.375959,-1.244771 c 0.921537,-2.919543 0.246191,-5.906226 -1.456809,-1.731827 -4.124214,2.175536 -1.693915,2.127596 1.048019,3.018621 l 0.201982,-0.01669 0.206808,-1.270104 0,0 z M 47.732158,-76.02755 c -2.158807,-3.389932 -3.320982,1.46586 0,-4e-6 l 0,4e-6 z m 15.931454,-1.058356 c 3.655483,-0.750792 -4.151304,-6.588807 -2.791068,-0.619339 -1.059904,2.926342 1.303678,-0.04849 2.791068,0.619339 z m 5.562264,0.84682 c 0.926411,-2.542711 6.012069,-5.961123 0.944453,-5.651517 0.758666,2.897571 -6.44896,2.96855 -2.945217,5.732817 l 1.190098,0.337979 0.810666,-0.419279 0,0 z m 40.914834,0.714378 c -1.62675,-0.87375 0.49271,1.113007 0,0 z m -50.377448,-3.94963 c 1.346923,-3.244964 -2.060641,1.081058 0,0 z m 63.364298,4.132429 c 3.80544,1.209185 3.94511,-2.315601 2.76817,-5.323888 1.66498,2.039808 -5.35662,5.341474 -2.76817,5.323888 z m 17.09211,0.71863 c 5.05218,-2.579734 3.43284,-9.807002 -2.27947,-10.130429 2.54983,3.157131 2.30758,7.048503 1.49721,10.660173 l 0.78226,-0.529744 0,0 z m -75.418078,-5.792986 c -2.116232,-1.151065 1.255208,1.824581 0,0 z m 48.540438,3.092768 c 4.3388,0.03629 -3.08337,-6.719452 -2.10448,-1.302104 -0.71694,2.56515 0.47713,1.769792 2.10448,1.302104 z m 6.14393,0.520304 c -0.2842,-3.041792 6.41167,-6.077029 0.93489,-6.268518 -0.71616,2.007276 -1.16381,3.193745 -4.00997,4.0865 -1.21987,2.327203 1.61822,2.271407 3.07508,2.182018 z m 28.26499,0.121643 c -0.86868,-1.988499 -3.84356,0.808963 0.005,1.048538 l -0.005,-1.048538 3.5e-4,0 z m -37.69571,-3.293644 c -0.65164,-4.309104 -1.16638,4.023797 0,0 z m 4.70518,-1.021377 c -1.6877,-1.409639 -0.66569,1.098543 0.22266,0.430965 l -0.22266,-0.430965 z M 67.687353,-92.51885 c 6.054098,-0.716591 12.971205,-0.144108 19.356315,-0.319986 1.968703,-0.153245 9.058138,0.166254 3.19842,0.580949 -7.378782,0.107745 -14.773386,0.272333 -22.145767,-0.04444 l -0.408968,-0.216519 z m 48.710097,-0.0681 c 5.40614,-0.778923 11.28782,-0.143127 16.87112,-0.353595 2.0294,-0.235297 9.04232,0.430531 3.05759,0.609048 -6.64097,0.03275 -13.33474,0.336636 -19.94363,0.01958 l 0.0149,-0.275036 0,0 z"
           id="path6470"
           inkscape:connector-curvature="0" />
        <path
           style="fill:#f53131;stroke-width:0.24847385"
           d="m 49.507613,7.1733016 c 2.278778,-0.6260902 -0.692389,0.9678719 0,0 z m 43.599708,1.2122632 c -2.10023,-4.5732029 3.75038,-7.53025185 3.111391,-11.1526729 -11.995266,-0.147863 -23.998855,-0.059775 -35.990662,-0.036165 -2.745486,-0.1140392 -7.354636,5.5724304 -3.109527,0.1483742 3.141781,-2.506782 9.772192,0.5033795 14.304624,-0.6342924 8.639232,-0.00614 17.278458,-0.019115 25.917687,-0.028553 2.284718,-2.4703971 5.553526,-4.2537564 1.128125,-6.038341 -2.422808,-2.1455815 -0.541132,-9.6348175 -4.63655,-8.3756165 -3.086089,0.08984 -5.226853,-3.711502 -5.436823,-5.290144 -4.029305,3.39242 -9.689039,2.159346 -9.850022,-3.699128 -3.077553,-0.159893 -5.708617,-1.821861 -0.929893,-0.962747 3.197399,1.116157 7.665249,-5.511666 2.30089,-2.475743 -4.237904,0.0413 -5.777699,-5.810138 -4.13856,-7.588004 -4.159465,3.389884 -9.583452,-3.203413 -5.685345,-6.724408 -2.873715,1.576842 -5.044059,-0.503424 -6.60609,-2.376629 -1.330281,2.28558 -3.991722,6.390852 -7.045798,4.008965 0.08522,1.839734 -0.48289,11.942284 -0.920344,5.583866 0.582404,-3.439238 -8.29226,-9.533142 -0.466239,-9.892198 1.21784,-2.558978 0.317829,-6.686391 0.587409,-9.910122 0.322484,-2.315853 -0.308332,-4.405304 -1.43554,-6.414933 2.351978,-1.729685 1.255899,-5.384235 -0.0057,-8.48678 2.600794,-2.058347 0.642822,-7.925137 2.161348,-8.963254 0.401141,2.243784 -0.69987,8.967639 2.338816,4.167779 -4.061387,-6.637934 6.244785,-4.855818 8.345009,-3.762138 2.56605,-4.597422 6.563885,-1.23077 9.439535,0.747207 -0.234318,-5.068226 5.039318,-4.947985 6.506152,-1.536628 -3.091884,3.271033 1.856855,4.285996 2.354931,0.600992 2.728204,-3.78214 6.997486,0.570743 8.848107,3.073515 -0.296318,3.678001 0.980063,4.537268 4.484654,3.84172 1.904057,2.213229 -1.443458,6.645393 2.299547,7.735867 -3.521219,3.784082 -7.955899,0.932581 -8.793102,-1.734621 -3.989471,3.31056 -9.205898,-7.028579 -10.251627,-2.775983 -1.849165,3.70505 -7.283404,5.085731 -9.477293,6.597469 4.123558,2.699914 -0.428229,8.968038 -4.518514,7.272346 3.290355,2.441072 0.603319,7.682638 5.052505,7.542114 3.264394,2.922477 1.624445,6.885689 6.138947,7.751223 2.516793,2.898177 2.741848,5.101663 6.319954,6.324487 2.055133,2.217466 5.625624,4.823186 7.356702,5.965727 -0.168762,-2.951642 -1.616191,-6.018883 2.406048,-6.308901 3.76082,-2.964729 2.151623,7.553053 4.758517,2.207558 3.321893,-2.494593 -2.208012,3.94151 2.775633,2.648655 1.23608,1.873736 1.15076,9.696764 4.92486,5.496734 1.47758,-3.864111 -1.39263,-11.087667 -5.78848,-9.043113 3.45057,-4.126162 5.62405,2.788293 8.02934,3.885776 5.09393,-1.27669 5.70699,4.568512 2.94979,7.553053 3.46405,2.677494 3.12833,7.309736 -1.70724,8.500375 -3.29164,3.406285 7.06792,4.2810895 0.92405,7.5485777 -1.90104,3.0033796 -3.89601,-3.8335377 -4.59395,0.6692478 -1.62042,2.8581461 3.08975,2.7824431 5.03288,2.5988672 11.24079,0.00175 22.48317,-0.1124136 33.7227,0.041759 -4.75764,0.7033819 -10.38693,0.1711391 -15.47149,0.3633261 -7.06916,0.07752 -14.21401,-0.1335879 -21.23584,0.1847234 3.12195,3.68043985 -2.82904,9.0107217 -6.86659,7.4709752 -1.98325,2.2228858 -4.57853,4.6761822 -8.246369,2.3596373 0.315002,1.2885637 0.325798,2.7900478 -1.31253,1.3201994 z M 99.150566,7.1420596 C 99.01535,3.491001 90.937204,2.728445 95.377996,6.397517 c 1.079397,0.1692107 2.825074,1.7295971 3.77257,0.7445426 z m 7.159294,-3.444519 c 3.37794,-2.6322225 2.61765,-3.4958708 -1.09275,-2.5510106 -3.06354,1.5414852 -5.844706,-6.9724785 -5.98582,-2.09092839 2.6879,1.97543899 3.71149,6.64979439 7.07857,4.64193899 z m 1.9859,-16.2526866 c 3.82567,-1.128421 -5.43079,-9.286181 -3.47856,-2.623579 -4.60414,3.251386 0.38117,2.886188 3.47856,2.62358 l 0,-1e-6 z m 1.60938,-3.316364 c -2.91715,-5.089181 -2.3584,1.088955 0,0 z m 2.92398,-0.445924 c 2.8771,-2.395042 0.79842,-4.956179 -1.86356,-3.52163 -0.30394,-1.849337 3.05712,-1.990355 -0.74371,-2.689015 -5.00546,-1.662993 -3.46464,5.096299 0.41252,5.507311 0.99961,1.17602 0.14801,2.618052 2.19475,0.703334 z m -6.90237,-2.885749 c -0.92375,-2.457541 1.58675,-4.443018 -2.38598,-4.795124 -0.87472,-3.305418 -6.694448,1.298012 -2.05891,1.925618 2.80145,0.220068 1.52941,4.99154 4.44489,2.869506 z m 5.11306,-4.587264 c 2.65239,-1.982527 0.61119,-7.214215 -2.01029,-4.629551 1.03214,2.092458 -2.09589,7.175633 2.01029,4.629551 z m -14.352432,-0.942195 c 5.057842,2.169251 5.529792,-4.989388 1.606394,-5.569825 1.017243,2.227001 -6.952371,6.054346 -1.606394,5.569825 z m -14.600424,-1.410293 c -3.565793,-2.963714 1.899647,2.636056 0,0 z m 20.219806,-3.596671 c -4.375152,-2.785748 1.78329,5.661634 0,0 z m 9.86444,0.248498 c -2.85237,-1.604657 0.67094,1.058382 0,0 z M 55.583426,-42.300965 c 0.697137,-2.88673 -5.391252,-4.049168 -1.323611,-0.269431 0.892424,0.514446 1.443727,2.67019 1.323611,0.269431 z m 1.478965,-5.5556 c -1.766013,-3.285703 0.06005,2.794599 0,0 z m 5.726935,-1.723322 c -1.138653,-0.575568 0.277779,1.223692 0,0 z m -4.505653,-3.862571 c 0.710147,-2.756668 0.343659,-5.284135 3.448007,-7.51379 -4.013474,-0.821821 -6.3753,1.253857 -5.367569,5.046133 -0.01685,2.372711 -0.470097,6.717624 1.919562,2.467657 l 0,0 z m 8.99559,-8.641907 c -0.221919,-3.787221 -4.174415,-10.678867 -6.952849,-4.271875 2.505112,0.675431 3.722047,5.287313 6.952849,4.271875 z m -8.796376,-3.654526 c 2.010336,-1.826673 -4.857522,-1.680349 -1.251348,0.290907 l 1.251348,-0.290907 z m 9.587039,-1.175565 c -0.10449,-3.000937 0.531755,-5.530663 2.976433,-6.493932 -1.858261,-2.330596 6.697996,-5.71869 1.446866,-6.201838 -0.307661,3.990356 -4.067469,4.376515 -6.511521,4.329679 1.60987,4.824975 -7.365849,3.541982 -5.200589,6.472117 4.063441,-5.305094 5.66169,4.389337 7.288811,1.893974 z m 29.820339,1.518267 c 3.033825,-0.56054 -2.144841,-3.198473 0.158272,-5.759905 1.731356,-3.11918 -4.140783,-2.291684 -1.405548,0.05358 -2.700541,0.887686 -4.004796,5.726196 -0.489564,6.191342 l 0.786377,-0.167666 0.950463,-0.317352 z m -38.901294,-2.465006 c -1.923006,-4.965851 9.301571,-3.311285 4.878255,-8.468965 -2.431644,1.118898 -6.030273,0.287759 -3.436557,2.787532 -2.290437,0.05809 -4.817307,-1.300612 -3.935801,2.982411 -0.469224,1.241963 1.356775,3.951007 2.494103,2.699022 z m -3.351327,-4.308501 c -0.398565,-0.290666 0.161825,2.6895 0,0 z m 35.194255,-0.791127 c 5.254931,-1.620842 0.503952,-9.139916 -2.310699,-7.723658 1.970402,3.377999 1.305909,6.588869 -0.261604,9.616823 0.915452,-0.54921 1.729744,-1.243241 2.572303,-1.893165 z M 76.057515,-74.45227 c 1.005483,-2.847837 -0.17565,-6.990161 -1.445929,-2.20904 -4.037664,2.008832 -2.517402,2.926251 0.664719,3.038692 1.343324,1.804503 0.511581,-0.570525 0.78121,-0.829652 z m -13.711233,-2.315227 c 6.035396,0.637719 -2.20902,-7.739218 -1.558317,-1.205864 -0.59693,1.815133 -0.215653,1.91732 1.558317,1.205864 z m 6.901836,0.70212 c 0.779503,-2.402528 5.802786,-6.737452 0.662781,-5.832826 0.786795,2.939275 -6.291817,2.712602 -2.868872,5.682264 0.676067,0.216612 1.536705,0.660373 2.206091,0.150562 z m -9.135139,-4.678538 c -2.419845,0.713174 0.147465,3.719566 0,0 l 0,0 z m 5.046447,0.790616 c -1.971418,-3.513701 -1.164888,1.894793 0,0 z M 47.287449,5.0641597 c 1.177184,-2.0992528 3.426347,-5.3224861 4.723282,-2.0912132 -1.73705,0.2064018 -2.944521,2.9759003 -4.723282,2.0912132 z m 8.856588,-0.5073171 c 4.023355,-1.7559017 -0.95024,0.9536697 0,0 z M 51.161101,3.8701008 c 1.399772,-0.1274723 -0.452933,0.3985174 0,0 z m 7.517188,-0.7750459 c 1.399772,-0.127472 -0.452932,0.3985169 0,0 z m 0.701873,-2.96029519 c 1.398466,-4.02065541 0.717176,1.80939279 0,0 z M 52.082419,-1.3171079 c 0.441631,-2.2787765 1.729508,2.3089318 0,0 z m 9.235637,0.76385084 c 1.618291,-1.35605104 -0.662312,1.37052923 0,0 z M 148.83851,4.2422534 c -2.35061,-2.5913967 5.26313,-3.45661489 2.65594,-1.1217416 -1.06321,0.00825 -1.53118,1.9183133 -2.65594,1.1217416 z M 49.476517,-2.2890651 c -3.296992,0.028701 -3.693196,-1.5978448 -0.214159,-1.1571579 1.146835,-0.5308112 1.007738,2.2721506 0.214159,1.1571579 z M 156.58245,4.2779375 c 3.8597,-1.38384 -2.0539,1.2914603 0,0 z m -5.4205,-0.4725428 c 0.59141,-0.7876161 1.56776,0.5122479 0,0 z m 8.13826,-1.3933463 c 1.39978,-0.1274815 -0.45291,0.3985233 0,0 z M 141.62979,0.96907398 c 1.48244,-2.55052138 0.46165,0.49273812 0,0 z m 17.65176,-0.54662372 c 1.72233,-4.28979106 0.89104,1.43570594 0,0 z M 61.40502,-5.7587485 c 0.317177,-2.8983114 6.047738,-5.1603785 2.677883,-1.2357951 -0.670472,0.432328 -1.836396,2.0587134 -2.677883,1.2357951 z m 90.92348,4.7309818 c -1.00796,-2.8944274 1.16384,-0.4184048 0.30307,0.66601544 l -0.30307,-0.66601544 0,0 z m 3.15237,0.71368134 c 0.73949,-2.96403954 6.141,-5.18728574 1.95855,-1.45236004 0.0823,0.2094088 -2.48316,2.2037253 -1.95855,1.45236004 z M 58.773856,-6.5984292 c -1.410251,-3.2540402 1.8382,-0.4082389 0,0 z m 102.449504,5.89886162 c 0.40358,-1.39186522 0.73932,0.78439525 0,0 z M 55.800204,-7.8689043 c -2.489879,0.060322 -3.780538,-1.7480001 -0.314923,-1.2469688 0.116785,-0.1102294 1.06215,2.1833859 0.314923,1.2469688 z m 93.771266,5.3618193 c -5.55992,-0.3543754 -0.70801,-2.149977 1.85397,-0.5455652 -0.95536,-0.1964481 -1.06223,1.4519808 -1.85397,0.5455652 z M 49.789706,-9.2929149 c -1.891059,-3.2757131 2.096957,-1.0980641 0,0 z m 5.524345,-2.2539001 c 0.1159,-2.315881 0.237242,-5.913937 -0.236261,-5.909389 3.073135,-4.445131 0.66821,7.195352 0.236261,5.909389 z m 103.266069,5.3474761 c -0.37078,-4.7613621 1.87392,-0.1298761 0,0 z m 2.96414,0.3100165 c -0.0794,-2.7926021 6.17463,-5.1495876 2.93847,-1.3865768 -0.78727,0.6167802 -1.82012,1.8673174 -2.93847,1.3865768 z M 61.556757,-12.504913 c -0.331963,-1.264542 1.270293,1.133106 0,0 z m -11.73673,-1.968627 c -4.847982,-2.147954 4.702565,-1.099397 1.480549,0.784996 l -0.527018,-0.227385 -0.953531,-0.557611 z m 12.080778,1.347333 c -0.760776,-2.99773 2.252718,-0.91002 0,-3e-6 l 0,3e-6 z m 93.994355,5.0392829 c -6.77457,-1.0462438 1.2236,-2.5844459 0,0 z M 63.346666,-15.088406 c 1.036595,-1.242621 0.487367,0.613201 0,0 z m 86.539664,5.5507751 c -1.75536,-2.4534891 1.13462,-0.5663991 1.30466,-1.9543541 -0.82929,0.242841 -0.50431,1.9040851 -1.30466,1.9543541 z M 62.409688,-16.030255 c 0.672612,-1.323921 0.537812,1.067072 0,0 z m 2.121568,0.169385 c 0.724519,-1.014779 -0.250898,0.962875 0,0 z m 0.544948,-0.598351 c 0.392496,-0.766752 0.630604,0.698787 0,0 z m 90.412586,4.724557 c -0.44125,-3.10815 0.60438,-8.010208 0.95253,-6.515985 0.20671,1.182837 -0.11099,7.765515 -0.95253,6.515985 z M 44.577329,-19.399869 c -0.204096,3.266239 -5.780255,-4.375672 -0.90223,-0.884789 l 0.90223,0.884789 z m 2.425015,0.675011 c 1.198557,-4.15812 0.889545,1.859159 0,0 z m 11.538534,0.307226 c -1.935055,-1.738839 2.919635,1.972547 0,0 z m -4.145969,-0.727195 c 0.968903,-1.11983 1.249701,-8.028831 1.801491,-2.187202 0.552148,1.082391 -0.777949,4.444383 -1.801491,2.187202 z m 107.581121,6.043793 c -0.684,-1.287848 0.96581,0.314418 0,0 z m -12.32284,-1.767025 c -4.46831,-2.997507 6.45871,1.39547 0.64451,0.390127 l -0.64451,-0.390127 0,0 z m -86.8866,-5.436387 c 1.546875,-1.719073 -3.395353,-2.577406 0.656991,-1.393728 2.406618,1.393196 0.915071,3.368381 -0.656991,1.393728 z m 99.50392,6.474938 c -0.53095,-1.440216 1.22561,0.608939 0,0 z m 0.16138,-0.79683 c 0.28136,-2.387883 2.43952,0.784142 0,0 z M 48.627439,-23.195227 c -0.436162,-3.998052 1.122887,3.258249 0,0 z m 115.184281,7.601928 c 0.34874,-0.79722 1.38651,0.291451 0,0 z m -1.24148,-0.466159 c 0.75315,-0.997664 0.36125,0.879581 0,0 z M 59.297998,-22.757905 c 1.399772,-0.127468 -0.452932,0.398514 0,0 z m -8.442264,-1.602281 c 2.873362,-0.910483 0.54363,0.370905 -0.896557,0.4033 l 0.896557,-0.4033 z m 91.708756,4.423819 c -5.66708,-2.894247 3.85678,-1.877945 2.00938,1.432461 -0.67574,-0.469096 -1.34071,-0.95343 -2.00938,-1.432461 z m 4.41579,0.947001 c 0.72876,-3.953335 1.49011,1.477879 0,0 z m 7.74111,0.536332 c 0.006,-1.975602 0.9445,-4.092414 1.22309,-5.605575 0.5746,1.222707 1.03651,5.689627 -1.22309,5.605575 z M 53.416033,-25.21513 c 1.857049,-1.134209 -1.030482,1.837856 0,0 z m 2.117256,0.210342 c -0.335221,-3.173027 0.556907,-9.271441 -1.48605,-8.49353 3.602259,-3.591831 2.193791,8.2035 1.48605,8.49353 z m 103.102541,6.369136 c -1.85167,-1.787642 2.23648,1.738708 0,0 z m -94.894711,-6.963165 c 2.974591,-1.501026 -2.077956,1.986409 0,0 z m -17.858885,-1.092868 c 0.04441,-2.33685 5.574656,-0.876435 1.010231,0.346123 l -0.530092,0.210836 -0.480139,-0.556959 0,0 z m 14.661008,0.509523 c 0.69387,-2.62932 -5.684387,-2.980161 -1.261687,-3.906581 -0.264984,0.170164 3.78423,4.231863 1.261687,3.906581 z m 103.001328,6.428653 c -0.52599,-0.89758 -0.85893,-2.842956 -1.45992,-2.564022 1.26982,0.02791 5.05192,3.096132 1.45992,2.564022 z M 65.17226,-26.67196 c 3.745555,-2.039425 -0.522774,1.052646 0,0 z m 70.76984,3.567118 c 0.47345,-1.166782 8.03827,-1.331877 2.50355,0.02112 -0.8142,0.203427 -1.74407,0.724725 -2.50355,-0.02112 z m 12.83978,-0.18452 c -0.34269,-4.296116 1.06004,3.117756 0,0 z m 12.3315,0.669905 c 1.39978,-0.127477 -0.45291,0.39852 0,0 z m -34.77064,-3.434252 c 1.59634,-1.573765 6.38946,-3.129084 1.95879,-0.761163 -0.10989,0.618369 -4.13597,2.400365 -1.95879,0.761163 z m 8.8935,-0.03545 c -5.06398,-3.406866 5.54253,0.757034 1.12577,0.955209 l -0.5187,-0.431992 -0.60707,-0.523217 0,0 z m 15.83652,1.549494 c 1.94894,-0.829302 4.97019,-1.308884 1.07,-0.02031 -0.091,0.144662 -3.9256,0.837991 -1.07,0.02031 z m -98.765384,-6.118649 c 1.558563,-0.149576 -0.0076,0.430276 0,0 z m 103.525604,5.638328 c -0.12505,-2.722977 -1.49204,-7.886781 0.51045,-9.426469 -0.18024,2.204338 0.65105,9.604809 -0.51045,9.426469 z m 7.56609,-0.09759 c 2.20702,-2.466619 3.74372,-2.202871 0.26712,-0.02735 l -0.21307,0.103174 -0.054,-0.07583 -5e-5,0 z m -58.53737,-4.133216 c 0.016,-4.293718 4.29962,1.58918 0,0 z m 41.10914,2.3272 c 0.25393,-2.140326 6.19533,-0.973379 1.1435,0.332592 l -0.60592,0.241447 -0.53758,-0.574039 0,0 z m -93.233914,-5.628666 c 0.874688,-1.098503 0.885555,-0.139588 0,0 z m 107.507564,4.872793 c -0.61153,-1.097282 -4.66616,-2.23763 -0.86706,-2.559701 1.73965,-0.01281 3.00709,6.613033 0.86706,2.559701 z M 50.07292,-33.745048 c -4.165612,-2.703939 2.037594,-3.121553 0,0 z m 92.15972,3.891843 c 0.26222,-1.434292 0.0814,1.455067 0,0 z m 19.33026,1.119223 c 0.81603,-0.624953 2.46366,0.169206 0.66182,0.130073 l -0.66182,-0.130073 z m -32.96636,-4.646244 c -4.22215,-4.275513 6.25975,1.901377 1.1909,1.401562 l -0.54937,-0.634387 -0.64153,-0.767175 z m 21.74776,0.577881 c 0.81742,-1.390375 0.49287,0.694166 0,0 z m 3.27058,-0.514981 c 1.78416,-1.356845 1.62472,0.05394 0,0 z m -3.64219,-0.667409 c -2.7596,-0.387962 0.78271,-4.676465 0.75382,-0.187314 0.39591,0.65604 -0.72318,0.85501 -0.75382,0.187314 z m -4.50113,-0.520763 c -1.3745,-1.404994 2.25136,1.45657 0,0 z m -8.50988,-1.412612 c -3.41813,-2.192679 3.56234,1.910449 0,0 l 0,0 z m -33.24073,-2.434401 c 0.75329,-1.394525 0.6558,0.659035 0,0 z m 51.96673,2.748557 c 0.36214,-2.638186 1.22715,2.272616 0,0 z m -50.88947,-3.543591 c 2.27041,-1.722999 1.27215,0.430028 2.9e-4,0 l -2.9e-4,0 z m 17.71842,-0.661781 c -3.46087,-3.079853 1.11398,-0.753486 2.07582,0.994127 -0.29776,1.685273 -1.65606,-0.853652 -2.07582,-0.994127 z m -15.78551,-0.172953 c 2.90768,-2.233224 3.32473,-0.900714 0,0 z m 3.63234,0.233134 c 0.94992,-1.572365 3.43345,0.743861 0,0 z m 17.70084,0.942083 c 0.71748,-1.051236 1.04766,0.01479 0,0 z m -13.09203,-1.944258 c -0.58026,-2.797419 5.1061,-7.29715 2.77123,-2.47405 -0.52921,1.010502 -1.5041,3.863313 -2.77123,2.47405 z m -5.39903,-0.848232 c 0.24723,-1.447903 1.97912,0.300552 0,0 z m -0.89476,-0.722622 c -1.23381,-1.946493 2.22552,0.597268 0,0 z m 22.86762,0.183111 c -0.81058,-1.574196 1.30993,1.105104 0,0 z m -1.71309,-0.439 c 0.26222,-1.434291 0.0814,1.455065 0,0 z m -18.55488,-6.485461 c 2.58186,-2.742346 0.81318,1.883749 0,0 z m 14.83899,0.612653 c -3.23284,-3.367484 2.17835,0.83178 0,0 z m -6.61038,-1.200957 c -0.65178,-2.262264 3.79109,-5.546872 2.52536,-3.482123 -0.50808,0.330027 -2.26468,5.365471 -2.52536,3.482123 z m -8.08054,-5.171256 c -3.78819,-3.304454 6.15843,0.130648 1.91337,1.256014 -0.61338,1.902363 -1.42472,-0.825173 -1.91337,-1.256014 z m 4.08841,-0.661981 c -1.5256,-1.957434 1.90722,1.988035 0,0 z m -0.68559,-1.891816 c 1.33719,-1.576271 0.57205,0.987081 0,0 l 0,0 z m 2.04888,-0.621953 c 2.14151,-0.108388 0.0664,0.40506 0,0 z m 6.34302,-0.614565 c -0.45804,-4.358287 5.2151,-4.962633 1.81139,-0.51342 0.0928,0.86161 -2.94688,2.514247 -1.81139,0.51342 z m -16.61573,-3.278936 c -2.86305,-6.051148 1.43654,3.466833 3.07321,-1.364309 1.87241,-3.423224 -2.07046,7.527981 -3.07321,1.364309 z m 3.36257,0.863868 c 1.40658,-0.60369 -0.67599,0.752346 0,0 z m 2.67219,-0.914419 c 1.12099,-2.093819 2.6239,-3.495487 1.25521,0.03956 -0.2209,0.2124 -2.87447,0.486618 -1.25521,-0.03956 z m 2.88393,-0.807025 c -1.76496,-3.683193 3.00311,3.056365 0,0 l 0,0 z m -68.874155,-4.858852 c 1.782464,-0.171873 -0.199319,0.429594 0,0 z m -2.006479,-1.091206 c 1.102519,0.463634 1.410985,1.586365 0,0 z m 3.584896,0.732325 c 3.233728,-1.10745 -1.46178,1.127145 0,0 z m 70.210688,2.96472 c 1.21274,-2.233991 6.93662,-2.059603 1.68987,-0.565363 -0.2788,-0.155942 -1.45577,1.468615 -1.68987,0.565363 z M 51.257745,-70.02779 c 1.276515,-0.772683 0.405114,1.12902 0,0 z m 71.784085,4.025722 c 1.83695,-0.914441 0.5022,0.519272 0,0 z m 3.63601,-0.950196 c -1.20369,-3.941724 4.32256,-5.538064 5.04489,-4.382702 -1.83251,0.718506 -4.62307,5.950509 -5.04489,4.382702 z m -15.45921,-1.079071 c 2.4951,-2.536383 2.74382,-2.741922 0.87507,-0.286459 0.16644,-0.149255 -0.84507,0.809714 -0.87507,0.286459 z m 35.08792,0.243726 c 2.82195,-0.569431 1.82286,0.521929 0,0 z m -1.56835,-1.13038 c -2.01348,-2.58188 3.31975,2.820046 0,0 z m 3.81598,1.018394 c 0.71748,-1.051238 1.04765,0.01479 0,0 z m -37.31061,-3.33921 c 2.29709,-0.809981 6.21735,-1.396702 1.36329,-0.09016 -0.0793,-0.04004 -2.28059,0.732525 -1.36329,0.09016 z m 26.1763,-0.57976 c -5.38589,-1.876829 2.35349,-2.079028 2.27196,1.200047 -0.75673,-0.401125 -1.51452,-0.800268 -2.27196,-1.200047 z m -92.70266,-5.191879 c 3.102423,-1.35186 2.538971,0.135642 0,0 z m 64.90749,3.601566 c -3.02871,-3.138028 4.68285,-0.649177 0,0 z m 9.81035,0.633884 c 1.39976,-0.127474 -0.45291,0.39852 0,0 z m -13.06951,-1.257991 c 2.75719,-2.025155 3.10304,-0.638392 0,0 z m 3.78222,-1.523264 c 0.35148,-2.952394 0.55577,1.717309 3.18856,-1.158499 -0.0125,0.248153 -2.19421,1.899811 -3.18856,1.158499 z m 11.32728,0.292705 c 0.8234,-2.416541 6.38931,-4.780206 1.54641,-1.287841 -1.16843,-0.223287 -0.40814,2.595976 -1.54641,1.287841 z m -12.49751,-2.033008 c -1.76185,-2.433363 0.24431,-5.750703 0.28096,-1.869817 0.60973,0.871016 0.79952,4.81176 -0.28096,1.869817 z m 20.37208,1.077508 c -3.14729,-1.196207 -3.18214,-2.753473 0.26787,-1.118616 1.89288,1.141164 2.90752,3.950877 -0.26787,1.118616 z m -9.92574,-0.07552 c 3.49091,-1.197326 -2.25036,1.324853 0,0 z m -5.21215,-0.541217 c 1.39976,-0.127474 -0.45291,0.39852 0,0 z m 1.54481,-2.352809 c 1.97589,-0.737705 -1.16107,1.029737 0,0 z m 30.16406,1.64133 c 4.01382,-0.920966 -2.10067,1.008078 0,0 z m -34.71954,-3.379183 c 0.62053,-2.371665 0.60557,1.301597 0,0 z m 6.27965,0.333362 c 1.55941,-4.129199 4.12958,1.696939 0,0 z m -7.46935,-0.737475 c 1.39977,-0.127464 -0.45295,0.398514 0,0 z m 12.23391,0.187685 c 1.87775,-0.637432 0.96502,0.453643 -0.26039,0.18258 l 0.26039,-0.18258 z m -3.23731,-1.721967 c 1.91379,-1.040825 2.43076,-0.331011 0,0 z m 15.58746,-0.737987 c 1.48363,-3.93339 6.66258,1.976476 1.94435,0.348472 -0.0789,-0.198945 -2.56392,0.730229 -1.94435,-0.348472 z m -66.662207,-8.866284 c 5.365925,-0.600965 11.296719,-0.09868 16.878724,-0.273065 2.400421,-0.194841 11.813797,0.330935 4.51943,0.434323 -7.108254,-0.114048 -14.382298,0.318081 -21.398154,-0.161258 z m 48.933467,-0.209878 c 7.32025,-0.235717 14.65952,-0.252657 21.97944,-0.01152 -4.84983,0.683628 -10.81515,0.161444 -16.0887,0.328129 -1.69608,-0.134807 -5.17367,0.267776 -5.89074,-0.316609 z"
           id="path6468"
           inkscape:connector-curvature="0" />
        <path
           style="fill:#c2c2c2;fill-opacity:1;stroke-width:0.24847385"
           d="m 52.025741,2.6004468 c -0.430623,2.204575 -7.282355,2.9249289 -2.507399,-0.1998335 0.802771,-0.383166 1.789238,-0.3107405 2.507399,0.1998335 z m 4.118296,1.9563958 c 4.023355,-1.7559017 -0.95024,0.9536697 0,0 z m 2.534252,-1.4617877 c 1.399772,-0.127472 -0.452932,0.3985169 0,0 z m 0.701873,-2.96029519 c 1.398468,-4.02065511 0.717174,1.80939199 0,0 z m -4.329636,-0.37126375 c 1.893256,-2.12953106 3.221708,-4.79662996 6.828747,-3.10116956 11.736494,0.2313113 23.633558,-0.2547762 35.270363,0.2457607 -12.242151,0.4489356 -24.629497,0.1927077 -36.922504,0.2869285 -2.344817,-0.6596702 -3.433186,2.98430999 -5.176606,2.56848036 z M 52.082419,-1.3171079 c 0.441631,-2.2787765 1.729508,2.3089318 0,0 z m 9.235637,0.76385084 c 1.618291,-1.35605104 -0.662312,1.37052923 0,0 z M 148.83851,4.2422534 c -2.35061,-2.5913967 5.26313,-3.45661489 2.65594,-1.1217416 -1.06321,0.00825 -1.53118,1.9183133 -2.65594,1.1217416 z m 7.74394,0.035684 c 3.8597,-1.38384 -2.0539,1.2914603 0,0 z m -5.4205,-0.4725428 c 0.59141,-0.7876161 1.56776,0.5122479 0,0 z m 8.13826,-1.3933463 c 1.39978,-0.1274815 -0.45291,0.3985233 0,0 z M 141.62979,0.96907398 c 1.48244,-2.55052138 0.46165,0.49273812 0,0 z m 17.65176,-0.54662372 c 1.72233,-4.28979106 0.89104,1.43570594 0,0 z M 61.40502,-5.7587485 c 0.317177,-2.8983114 6.047738,-5.1603785 2.677883,-1.2357951 -0.670472,0.432328 -1.836396,2.0587134 -2.677883,1.2357951 z m 46.39516,2.6422886 c 12.80694,-0.3090633 25.6306,-0.3756934 38.43998,-0.1968702 -4.54584,0.7011154 -9.96354,0.1795917 -14.83634,0.3751778 -7.84423,-0.1451895 -15.83719,0.3323097 -23.60364,-0.1783076 z m 44.52832,2.0886932 c -1.00796,-2.8944274 1.16384,-0.4184048 0.30307,0.66601544 l -0.30307,-0.66601544 0,0 z m 3.15237,0.71368134 c 0.73949,-2.96403954 6.141,-5.18728574 1.95855,-1.45236004 0.0823,0.2094088 -2.48316,2.2037253 -1.95855,1.45236004 z M 58.773856,-6.5984292 c -1.410251,-3.2540402 1.8382,-0.4082389 0,0 z m 102.449504,5.89886162 c 0.40358,-1.39186522 0.73932,0.78439525 0,0 z M 55.800204,-7.8689043 c -2.489879,0.060322 -3.780538,-1.7480001 -0.314923,-1.2469688 0.116785,-0.1102294 1.06215,2.1833859 0.314923,1.2469688 z m 93.771266,5.3618193 c -5.55992,-0.3543754 -0.70801,-2.149977 1.85397,-0.5455652 -0.95536,-0.1964481 -1.06223,1.4519808 -1.85397,0.5455652 z m -94.257419,-9.03973 c 0.1159,-2.315881 0.237242,-5.913937 -0.236261,-5.909389 3.073135,-4.445131 0.66821,7.195352 0.236261,5.909389 z m 103.266069,5.3474761 c -0.37078,-4.7613621 1.87392,-0.1298761 0,0 z m 2.96414,0.3100165 c -0.0794,-2.7926021 6.17463,-5.1495876 2.93847,-1.3865768 -0.78727,0.6167802 -1.82012,1.8673174 -2.93847,1.3865768 z M 61.556757,-12.504913 c -0.331963,-1.264542 1.270293,1.133106 0,0 z m 0.344048,-0.621294 c -0.760776,-2.99773 2.252718,-0.91002 0,-3e-6 l 0,3e-6 z m 93.994355,5.0392829 c -6.77457,-1.0462438 1.2236,-2.5844459 0,0 z M 63.346666,-15.088406 c 1.036595,-1.242621 0.487367,0.613201 0,0 z m 86.539664,5.5507751 c -1.75536,-2.4534891 1.13462,-0.5663991 1.30466,-1.9543541 -0.82929,0.242841 -0.50431,1.9040851 -1.30466,1.9543541 z M 62.409688,-16.030255 c 0.672612,-1.323921 0.537812,1.067072 0,0 z m 2.121568,0.169385 c 0.724519,-1.014779 -0.250898,0.962875 0,0 z m 0.544948,-0.598351 c 0.392496,-0.766752 0.630604,0.698787 0,0 z m 90.412586,4.724557 c -0.44125,-3.10815 0.60438,-8.010208 0.95253,-6.515985 0.20671,1.182837 -0.11099,7.765515 -0.95253,6.515985 z m -96.947912,-6.682968 c -1.935055,-1.738839 2.919635,1.972547 0,0 z m -4.145969,-0.727195 c 0.968903,-1.11983 1.249701,-8.028831 1.801491,-2.187202 0.552148,1.082391 -0.777949,4.444383 -1.801491,2.187202 z m 107.581121,6.043793 c -0.684,-1.287848 0.96581,0.314418 0,0 z m -12.32284,-1.767025 c -4.46831,-2.997507 6.45871,1.39547 0.64451,0.390127 l -0.64451,-0.390127 0,0 z m 12.61732,1.038551 c -0.53095,-1.440216 1.22561,0.608939 0,0 z m 0.16138,-0.79683 c 0.28136,-2.387883 2.43952,0.784142 0,0 z M 62.279448,-21.914049 c -2.345918,-1.372192 4.096501,1.628768 0,0 z m 101.532272,6.320745 c 0.34874,-0.79722 1.38651,0.291451 0,0 z m -1.24148,-0.466159 c 0.75315,-0.997665 0.36126,0.879581 0,0 z M 59.297998,-22.757905 c 1.399772,-0.127468 -0.452932,0.398514 0,0 z m -6.801736,-1.959091 c -0.376351,3.498797 -1.391174,12.933221 -1.40777,13.087503 0.469257,-4.362501 0.938513,-8.725002 1.40777,-13.087503 z m 90.068228,4.780629 c -5.66708,-2.894247 3.85678,-1.877945 2.00938,1.432461 -0.67574,-0.469096 -1.34071,-0.95343 -2.00938,-1.432461 z m 4.41579,0.947001 c 0.72876,-3.953335 1.49011,1.477879 0,0 z m 7.74111,0.536332 c 0.006,-1.975602 0.9445,-4.092414 1.22309,-5.605575 0.55634,1.32783 1.077,5.578141 -1.22309,5.605575 z M 53.416033,-25.21513 c 1.857049,-1.134209 -1.030482,1.837856 0,0 z m 2.117256,0.210342 c -0.335221,-3.173027 0.556907,-9.271441 -1.48605,-8.49353 3.602259,-3.591831 2.193791,8.2035 1.48605,8.49353 z m 103.102541,6.369136 c -1.85167,-1.787642 2.23648,1.738708 0,0 z m -94.894711,-6.963165 c 2.974591,-1.501026 -2.077956,1.986409 0,0 z m -3.189927,-0.530527 c -1.924617,-2.697709 -0.330717,-4.895634 0.595747,-0.815643 0.429211,0.275913 -0.579629,1.940375 -0.595747,0.815643 z m 104.173968,5.710601 c -0.75557,-1.235825 1.41769,1.555487 0,0 z m -99.5529,-6.253217 c 3.745555,-2.039425 -0.522774,1.052646 0,0 z m 70.76984,3.567118 c 0.47345,-1.166782 8.03827,-1.331877 2.50355,0.02112 -0.8142,0.203427 -1.74407,0.724725 -2.50355,-0.02112 z m 12.83978,-0.18452 c -0.34269,-4.296116 1.06004,3.117756 0,0 z m 13.95669,1.30561 c -2.66855,-1.272722 3.54537,1.29433 0,0 z m -1.62519,-0.635705 c 1.39978,-0.127477 -0.45291,0.39852 0,0 z m -34.77064,-3.434252 c 1.59634,-1.573765 6.38946,-3.129084 1.95879,-0.761163 -0.10989,0.618369 -4.13597,2.400365 -1.95879,0.761163 z m 8.8935,-0.03545 c -5.06398,-3.406866 5.54253,0.757034 1.12577,0.955209 l -0.5187,-0.431992 -0.60707,-0.523217 0,0 z m 15.83652,1.549494 c 1.94894,-0.829302 4.97019,-1.308884 1.07,-0.02031 -0.091,0.144662 -3.9256,0.837991 -1.07,0.02031 z m -98.765384,-6.118649 c 1.558563,-0.149576 -0.0076,0.430276 0,0 z m 103.525604,5.638328 c -0.12505,-2.722977 -1.49204,-7.886781 0.51045,-9.426469 -0.18024,2.204338 0.65105,9.604809 -0.51045,9.426469 z m 7.56609,-0.09759 c 2.20702,-2.466619 3.74372,-2.202871 0.26712,-0.02735 l -0.21307,0.103174 -0.054,-0.07583 -5e-5,0 z m -17.42823,-1.806016 c 0.25393,-2.140326 6.19533,-0.973379 1.1435,0.332592 l -0.60592,0.241447 -0.53758,-0.574039 0,0 z m -93.233914,-5.628666 c 0.874688,-1.098503 0.885555,-0.139588 0,0 z m 107.522894,4.914384 c -2.41024,-5.897651 3.40386,3.538708 0,0 l 0,0 z m -104.738573,-7.44718 c -0.301358,-2.133054 0.371118,-12.382365 0.758516,-5.304923 -0.510119,0.963229 0.959597,6.572936 -0.758516,5.304923 z m 86.711393,5.231849 c 0.26222,-1.434292 0.0814,1.455067 0,0 z m 19.33026,1.119223 c 0.81603,-0.624953 2.46366,0.169206 0.66182,0.130073 l -0.66182,-0.130073 z m -32.96636,-4.646244 c -4.22215,-4.275513 6.25975,1.901377 1.1909,1.401562 l -0.54937,-0.634387 -0.64153,-0.767175 z m -26.60847,-0.481601 c 0.4351,-0.921017 0.7082,0.832535 0,0 z m 48.35623,1.059482 c 0.81742,-1.390375 0.49287,0.694166 0,0 z m 3.27058,-0.514981 c 1.78416,-1.356845 1.62472,0.05394 0,0 z m -3.64219,-0.667409 c -2.7596,-0.387962 0.78271,-4.676465 0.75382,-0.187314 0.39591,0.65604 -0.72318,0.85501 -0.75382,0.187314 z m -4.50113,-0.520763 c -1.3745,-1.404994 2.25136,1.45657 0,0 z m -8.50988,-1.412612 c -3.41813,-2.192679 3.56234,1.910449 0,0 l 0,0 z m -33.24073,-2.434401 c 0.75329,-1.394525 0.6558,0.659035 0,0 z m 51.96673,2.748557 c 0.36214,-2.638186 1.22715,2.272616 0,0 z m -50.88947,-3.543591 c 2.27041,-1.722999 1.27215,0.430028 2.9e-4,0 l -2.9e-4,0 z m 17.71842,-0.661781 c -3.46087,-3.079853 1.11398,-0.753486 2.07582,0.994127 -0.29776,1.685273 -1.65606,-0.853652 -2.07582,-0.994127 z m -15.78551,-0.172953 c 2.90768,-2.233224 3.32473,-0.900714 0,0 z m 3.63234,0.233134 c 0.94992,-1.572365 3.43345,0.743861 0,0 z m 17.70084,0.942083 c 0.71748,-1.051236 1.04766,0.01479 0,0 z m -13.09203,-1.944258 c -0.58026,-2.797419 5.1061,-7.29715 2.77123,-2.47405 -0.52921,1.010502 -1.5041,3.863313 -2.77123,2.47405 z m -5.39903,-0.848232 c 0.24723,-1.447903 1.97912,0.300552 0,0 z m -0.89476,-0.722622 c -1.23381,-1.946493 2.22552,0.597268 0,0 z m 22.86762,0.183111 c -0.81058,-1.574196 1.30993,1.105104 0,0 z m -1.71309,-0.439 c 0.26222,-1.434291 0.0814,1.455065 0,0 z m -74.208961,-5.944326 c 0.312381,-2.901875 -0.814586,-10.846092 0.697286,-10.93684 -0.08649,3.96001 0.449037,9.690723 -0.567739,11.948227 l -0.129547,-1.011387 0,0 z m 55.654081,-0.541135 c 2.58186,-2.742346 0.81318,1.883749 0,0 z m 14.83899,0.612653 c -3.23284,-3.367484 2.17835,0.83178 0,0 z m -6.61038,-1.200957 c -0.65178,-2.262264 3.79109,-5.546872 2.52536,-3.482123 -0.50808,0.330027 -2.26468,5.365471 -2.52536,3.482123 z m -8.08054,-5.171256 c -3.78819,-3.304454 6.15843,0.130648 1.91337,1.256014 -0.61338,1.902363 -1.42472,-0.825173 -1.91337,-1.256014 z m 4.08841,-0.661981 c -1.5256,-1.957434 1.90722,1.988035 0,0 z m -0.68559,-1.891816 c 1.33719,-1.576271 0.57205,0.987081 0,0 l 0,0 z m 2.04888,-0.621953 c 2.14151,-0.108388 0.0664,0.40506 0,0 z m 6.34302,-0.614565 c -0.45804,-4.358287 5.2151,-4.962633 1.81139,-0.51342 0.0928,0.86161 -2.94688,2.514247 -1.81139,0.51342 z m -16.61573,-3.278936 c -2.86305,-6.051148 1.43654,3.466833 3.07321,-1.364309 1.87241,-3.423224 -2.07046,7.527981 -3.07321,1.364309 z m 3.36257,0.863868 c 1.40658,-0.60369 -0.67599,0.752346 0,0 z m -54.246225,-4.902155 c -0.517543,-5.493165 1.867283,2.561702 0,0 z m 56.918415,3.987736 c 1.12099,-2.093819 2.6239,-3.495487 1.25521,0.03956 -0.2209,0.2124 -2.87447,0.486618 -1.25521,-0.03956 z m 2.88393,-0.807025 c -1.76496,-3.683193 3.00311,3.056365 0,0 l 0,0 z m 2.91495,-2.253013 c 1.21274,-2.233991 6.93662,-2.059603 1.68987,-0.565363 -0.2788,-0.155942 -1.45577,1.468615 -1.68987,0.565363 z m -62.582671,-4.168518 c -0.898549,-3.19797 1.129356,-6.600158 0.634577,-1.293816 -0.0337,0.32787 0.05579,2.365475 -0.634577,1.293816 z m 67.185671,3.169374 c 1.83695,-0.914441 0.5022,0.519272 0,0 z m 3.63601,-0.950196 c -1.20369,-3.941724 4.32256,-5.538064 5.04489,-4.382702 -1.83251,0.718506 -4.62307,5.950509 -5.04489,4.382702 z m -15.45921,-1.079071 c 2.4951,-2.536383 2.74382,-2.741922 0.87507,-0.286459 0.16644,-0.149255 -0.84507,0.809714 -0.87507,0.286459 z m 35.08792,0.243726 c 2.82195,-0.569431 1.82286,0.521929 0,0 z m -1.56835,-1.13038 c -2.01348,-2.58188 3.31975,2.820046 0,0 z m 3.81598,1.018394 c 0.71748,-1.051238 1.04765,0.01479 0,0 z m -37.31061,-3.33921 c 2.29709,-0.809981 6.21735,-1.396702 1.36329,-0.09016 -0.0793,-0.04004 -2.28059,0.732525 -1.36329,0.09016 z m -55.473627,-3.66407 c -0.559021,-2.720961 0.619733,-9.866802 0.768443,-3.023047 -0.11829,0.398874 0.113926,4.307188 -0.768443,3.023047 z m 81.649927,3.08431 c -5.38589,-1.876829 2.35349,-2.079028 2.27196,1.200047 -0.75673,-0.401125 -1.51452,-0.800268 -2.27196,-1.200047 z m -17.98482,-0.956434 c 1.39976,-0.127474 -0.45291,0.39852 0,0 z m -13.06951,-1.257986 c 2.75719,-2.025155 3.10304,-0.638392 0,0 z m 3.78222,-1.523264 c 0.35148,-2.952394 0.55577,1.717309 3.18856,-1.158499 -0.0125,0.248153 -2.19421,1.899811 -3.18856,1.158499 z m 11.32728,0.292705 c 0.8234,-2.416541 6.38931,-4.780206 1.54641,-1.287841 -1.16843,-0.223287 -0.40814,2.595976 -1.54641,1.287841 z m -12.49751,-2.033008 c -1.76185,-2.433363 0.24431,-5.750703 0.28096,-1.869817 0.60973,0.871016 0.79952,4.81176 -0.28096,1.869817 z m 20.37208,1.077508 c -3.14729,-1.196207 -3.18214,-2.753473 0.26787,-1.118616 1.89288,1.141164 2.90752,3.950877 -0.26787,1.118616 z m -9.92574,-0.07552 c 3.49091,-1.197326 -2.25036,1.324853 0,0 z m -5.21215,-0.541217 c 1.39976,-0.127474 -0.45291,0.39852 0,0 z m 1.54481,-2.352809 c 1.97589,-0.737705 -1.16107,1.029737 0,0 z m 30.16406,1.64133 c 4.01382,-0.920966 -2.10067,1.008078 0,0 z m -34.71954,-3.379183 c 0.62053,-2.371665 0.60557,1.301597 0,0 z m -1.1897,-0.404113 c 1.39977,-0.127464 -0.45295,0.398514 0,0 z m 12.23391,0.187685 c 1.87775,-0.637432 0.96502,0.453643 -0.26039,0.18258 l 0.26039,-0.18258 z m -3.23731,-1.721967 c 1.91379,-1.040825 2.43076,-0.331011 0,0 z m 15.58746,-0.737987 c 1.48363,-3.93339 6.66258,1.976476 1.94435,0.348472 -0.0789,-0.198945 -2.56392,0.730229 -1.94435,-0.348472 z m -66.662207,-8.866284 c 5.365925,-0.600965 11.296719,-0.09868 16.878724,-0.273065 2.400421,-0.194841 11.813797,0.330935 4.51943,0.434323 -7.108254,-0.114048 -14.382298,0.318081 -21.398154,-0.161258 z m 48.933467,-0.209878 c 7.32025,-0.235717 14.65952,-0.252657 21.97944,-0.01152 -4.84983,0.683628 -10.81515,0.161444 -16.0887,0.328129 -1.69608,-0.134807 -5.17367,0.267776 -5.89074,-0.316609 z"
           id="path6466"
           inkscape:connector-curvature="0" />
      </g>
      <path
         sodipodi:type="star"
         style="opacity:0.66;fill:none;fill-opacity:1;stroke:#000000;stroke-width:0.85412884;stroke-linecap:butt;stroke-linejoin:round;stroke-miterlimit:4;stroke-dasharray:none;stroke-dashoffset:0;stroke-opacity:1"
         id="path6480"
         sodipodi:sides="4"
         sodipodi:cx="77.070488"
         sodipodi:cy="36.303677"
         sodipodi:r1="22.43082"
         sodipodi:r2="15.860986"
         sodipodi:arg1="0.78539816"
         sodipodi:arg2="1.5707963"
         inkscape:flatsided="true"
         inkscape:rounded="0"
         inkscape:randomized="0"
         d="m 92.931473,52.164662 -31.72197,0 0,-31.721971 31.72197,0 z"
         transform="matrix(1.0424608,0,0,0.94389122,-2.6024402,1.1435776)" />
    </g>
  </g>
</svg>
