<?xml version="1.0" encoding="UTF-8" standalone="no"?>
<svg
   xmlns:dc="http://purl.org/dc/elements/1.1/"
   xmlns:cc="http://creativecommons.org/ns#"
   xmlns:rdf="http://www.w3.org/1999/02/22-rdf-syntax-ns#"
   xmlns:svg="http://www.w3.org/2000/svg"
   xmlns="http://www.w3.org/2000/svg"
   xmlns:xlink="http://www.w3.org/1999/xlink"
   xmlns:sodipodi="http://sodipodi.sourceforge.net/DTD/sodipodi-0.dtd"
   xmlns:inkscape="http://www.inkscape.org/namespaces/inkscape"
   viewBox="0 0 555.52002 534.40002"
   height="534.40002"
   width="555.52002"
   version="1.1"
   id="svg8263"
   inkscape:version="0.91+devel r13918"
   sodipodi:docname="ctruncate.svg">
  <sodipodi:namedview
     pagecolor="#ffffff"
     bordercolor="#666666"
     borderopacity="1"
     objecttolerance="10"
     gridtolerance="10"
     guidetolerance="10"
     inkscape:pageopacity="0"
     inkscape:pageshadow="2"
     inkscape:window-width="1366"
     inkscape:window-height="719"
     id="namedview9854"
     showgrid="false"
     inkscape:zoom="0.44161675"
     inkscape:cx="285.68543"
     inkscape:cy="267.20001"
     inkscape:window-x="0"
     inkscape:window-y="0"
     inkscape:window-maximized="1"
     inkscape:current-layer="svg8263" />
  <metadata
     id="metadata8269">
    <rdf:RDF>
      <cc:Work
         rdf:about="">
        <dc:format>image/svg+xml</dc:format>
        <dc:type
           rdf:resource="http://purl.org/dc/dcmitype/StillImage" />
        <dc:title></dc:title>
      </cc:Work>
    </rdf:RDF>
  </metadata>
  <defs
     id="defs8267">
    <linearGradient
       inkscape:collect="always"
       id="linearGradient10494">
      <stop
         style="stop-color:#242424;stop-opacity:1"
         offset="0"
         id="stop10496" />
      <stop
         style="stop-color:#c8c8c8;stop-opacity:1"
         offset="1"
         id="stop10498" />
    </linearGradient>
    <linearGradient
       inkscape:collect="always"
       xlink:href="#linearGradient10494"
       id="linearGradient10500"
       x1="-692.70905"
       y1="-251.19019"
       x2="-706.65393"
       y2="-381.62915"
       gradientUnits="userSpaceOnUse"
       gradientTransform="matrix(1.1988736,0,0,1.1988736,199.04328,24.492031)" />
    <linearGradient
       inkscape:collect="always"
       xlink:href="#linearGradient10494"
       id="linearGradient10540"
       gradientUnits="userSpaceOnUse"
       gradientTransform="matrix(1.6738823,0,-0.50561054,1.1988736,347.87739,24.492031)"
       x1="-692.70905"
       y1="-251.19019"
       x2="-706.65393"
       y2="-381.62915" />
  </defs>
  <g
     transform="matrix(1.6638599,0,0,0.83914068,-67.850771,0)"
     style="font-style:normal;font-weight:normal;font-size:31.83981514px;line-height:125%;font-family:Sans;letter-spacing:0px;word-spacing:0px;fill:#000000;fill-opacity:1;stroke:none;stroke-width:2.27427244px;stroke-linecap:butt;stroke-linejoin:miter;stroke-opacity:1"
     id="text10486">
    <path
       d="m 330.73769,334.05118 0,7.88888 -123.87678,0 0,-7.88888 10.23423,0 q 17.90989,0 26.01199,-10.44744 5.11711,-6.82282 5.11711,-32.83481 l 0,-186.77462 q 0,-21.960944 -2.77177,-28.996974 -2.13213,-5.330326 -8.74173,-9.168161 -9.38138,-5.117113 -19.6156,-5.117113 l -10.23423,0 0,-7.888883 123.87678,0 0,7.888883 -10.44744,0 q -17.69668,0 -25.79878,10.447439 -5.33033,6.822817 -5.33033,32.834809 l 0,186.77462 q 0,21.96095 2.77177,28.99698 2.13213,5.33032 8.95495,9.16816 9.16816,5.11711 19.40239,5.11711 l 10.44744,0 z"
       style="font-style:normal;font-variant:normal;font-weight:normal;font-stretch:normal;font-size:436.66030884px;font-family:'Times New Roman';-inkscape-font-specification:'Times New Roman, ';stroke-width:2.27427244px"
       id="path10506"
       inkscape:connector-curvature="0" />
  </g>
  <g
     transform="matrix(-0.84496705,0,0.89940287,-1.1834781,0,0)"
     style="font-style:normal;font-weight:normal;font-size:20.46877289px;line-height:125%;font-family:Sans;letter-spacing:0px;word-spacing:0px;fill:url(#linearGradient10500);fill-opacity:1;stroke:none;stroke-width:1.46205509px;stroke-linecap:butt;stroke-linejoin:miter;stroke-opacity:1"
     id="text10490">
    <path
       d="m -598.84098,-413.10561 -32.1983,76.34669 7.46363,0 q 17.22381,0 29.693,-3.70083 12.46919,-3.70082 23.63246,-12.47315 11.35464,-8.77233 19.95207,-23.71271 l 6.69815,0 -39.36632,93.34308 -6.69815,0 q 7.52055,-26.45406 -5.22016,-34.81519 -12.49155,-8.49819 -32.96874,-8.49819 l -7.46364,0 -23.98975,56.88308 q -6.01189,14.25503 -5.40974,17.81879 0.79353,3.56376 5.9528,6.30512 5.40845,2.60428 16.31685,2.60428 l 8.61191,0 -2.13885,5.0715 -135.68529,0 2.13885,-5.0715 8.61189,0 q 11.29116,0 19.39463,-2.87842 5.78506,-1.91895 10.42973,-6.57925 3.4925,-3.28962 9.38877,-17.27052 l 51.56353,-122.26436 q 6.01189,-14.25503 5.40972,-17.81879 -0.60215,-3.56376 -6.01059,-6.16805 -5.15926,-2.74135 -16.06768,-2.74135 l -8.61189,0 2.13884,-5.0715 218.93367,0 -22.48678,53.31932 -7.8464,0 q 5.24025,-18.77827 -2.0443,-27.82474 -7.09316,-9.04646 -26.39233,-12.74729 -10.61543,-2.05602 -41.61828,-2.05602 l -24.11331,0 z"
       style="font-style:normal;font-variant:normal;font-weight:bold;font-stretch:normal;font-size:280.71456909px;font-family:'Times New Roman';-inkscape-font-specification:'Times New Roman, Bold';fill:url(#linearGradient10540);fill-opacity:1;stroke-width:1.72758532px"
       id="path10503"
       inkscape:connector-curvature="0" />
  </g>
</svg>
