<?xml version="1.0" encoding="UTF-8" standalone="no"?>
<svg
   xmlns:dc="http://purl.org/dc/elements/1.1/"
   xmlns:cc="http://creativecommons.org/ns#"
   xmlns:rdf="http://www.w3.org/1999/02/22-rdf-syntax-ns#"
   xmlns:svg="http://www.w3.org/2000/svg"
   xmlns="http://www.w3.org/2000/svg"
   xmlns:sodipodi="http://sodipodi.sourceforge.net/DTD/sodipodi-0.dtd"
   xmlns:inkscape="http://www.inkscape.org/namespaces/inkscape"
   version="1.1"
   id="svg2"
   height="64"
   width="64"
   inkscape:version="0.48.5 r10040"
   sodipodi:docname="import_merged.svg">
  <sodipodi:namedview
     pagecolor="#ffffff"
     bordercolor="#666666"
     borderopacity="1"
     objecttolerance="10"
     gridtolerance="10"
     guidetolerance="10"
     inkscape:pageopacity="0"
     inkscape:pageshadow="2"
     inkscape:window-width="1366"
     inkscape:window-height="719"
     id="namedview3286"
     showgrid="false"
     inkscape:zoom="5.2149125"
     inkscape:cx="34.201408"
     inkscape:cy="36.533914"
     inkscape:window-x="0"
     inkscape:window-y="0"
     inkscape:window-maximized="1"
     inkscape:current-layer="text11955" />
  <defs
     id="defs4">
    <linearGradient
       id="linearGradient3893">
      <stop
         style="stop-color:#ffffff;stop-opacity:1;"
         offset="0"
         id="stop3895" />
      <stop
         id="stop3897"
         offset="0.5"
         style="stop-color:#464646;stop-opacity:1;" />
      <stop
         style="stop-color:#ffffff;stop-opacity:1;"
         offset="1"
         id="stop3899" />
    </linearGradient>
    <linearGradient
       id="linearGradient3871">
      <stop
         id="stop3873"
         offset="0"
         style="stop-color:#929292;stop-opacity:1;" />
      <stop
         style="stop-color:#878787;stop-opacity:1;"
         offset="0.5"
         id="stop3879" />
      <stop
         id="stop3875"
         offset="1"
         style="stop-color:#1a1a1a;stop-opacity:1;" />
    </linearGradient>
    <linearGradient
       gradientTransform="matrix(0.12755628,0,0,0.12755628,-3.285003,-37.050046)"
       id="linearGradient4498"
       y2="318.03"
       gradientUnits="userSpaceOnUse"
       x2="463.82999"
       y1="420.92999"
       x1="361.42999"
       inkscape:collect="always">
      <stop
         id="stop4482"
         style="stop-color:#eeeeee"
         offset="0" />
      <stop
         id="stop4484"
         style="stop-color:#eeeeee;stop-opacity:0"
         offset="1" />
    </linearGradient>
    <linearGradient
       gradientTransform="matrix(0.12755628,0,0,0.12755628,-3.285003,-37.050046)"
       id="linearGradient4496"
       y2="776.59998"
       gradientUnits="userSpaceOnUse"
       x2="266.17001"
       y1="347.26001"
       x1="266.17001"
       inkscape:collect="always">
      <stop
         id="stop3925"
         style="stop-color:#ffffff"
         offset="0" />
      <stop
         id="stop3927"
         style="stop-color:#ededed"
         offset="1" />
    </linearGradient>
  </defs>
  <metadata
     id="metadata7">
    <rdf:RDF>
      <cc:Work
         rdf:about="">
        <dc:format>image/svg+xml</dc:format>
        <dc:type
           rdf:resource="http://purl.org/dc/dcmitype/StillImage" />
        <dc:title />
      </cc:Work>
    </rdf:RDF>
  </metadata>
  <path
     inkscape:connector-curvature="0"
     id="rect3909"
     style="fill:#aaaaaa;stroke-width:0.12755628"
     d="m 4.7032052,2.7360292 0,60.0471228 51.9268858,0 0,-46.063121 -13.982713,-13.9827216 -37.9441728,0 z" />
  <path
     inkscape:connector-curvature="0"
     id="path3921"
     style="fill:url(#linearGradient4496);stroke-width:0.12755628"
     d="m 5.6051585,3.5090237 0,58.5011303 50.1232335,0 0,-44.878118 -13.498006,-13.6230123 -36.6252275,0 z" />
  <path
     inkscape:connector-curvature="0"
     id="path3933"
     style="fill:#aaaaaa;stroke-width:0.12755628"
     d="M 41.737258,2.8788951 56.69961,17.838693 41.526796,17.768151 41.737818,2.8797804 z" />
  <path
     inkscape:connector-curvature="0"
     id="path4445"
     style="fill:url(#linearGradient4498);stroke-width:0.12755628"
     d="M 42.284468,3.5166758 55.879418,17.109074 42.093136,17.045274 42.284468,3.5166524 z" />
  <g
     transform="translate(-0.7777927,0.8399315)"
     style="font-size:21.76877022px;font-style:normal;font-weight:normal;line-height:79.00000215%;letter-spacing:0px;word-spacing:0px;fill:#a8a8a8;fill-opacity:1;stroke:#9a9a9a;stroke-width:0;stroke-linecap:butt;stroke-linejoin:miter;stroke-miterlimit:4;stroke-opacity:1;stroke-dasharray:none;font-family:Sans"
     id="text6836">
    <g
       transform="scale(0.98486644,1.0153661)"
       style="font-size:18.3605938px;line-height:83.99999738%;stroke:none;font-family:Sans"
       id="text11955">
      <path
         d="m 18.473375,14.517047 0,2.617819 c -0.436312,-0.29883 -0.875603,-0.51997 -1.317874,-0.66342 -0.436311,-0.143434 -0.890544,-0.215155 -1.362701,-0.215163 -0.896519,8e-6 -1.595799,0.262985 -2.097841,0.788932 -0.496075,0.519984 -0.74411,1.249147 -0.744106,2.187492 -4e-6,0.938355 0.248031,1.670507 0.744106,2.196458 0.502042,0.51998 1.201322,0.779969 2.097841,0.779967 0.50204,2e-6 0.977192,-0.07471 1.425457,-0.224129 0.454224,-0.149416 0.872597,-0.370556 1.255118,-0.66342 l 0,2.626785 c -0.502056,0.185279 -1.013068,0.322744 -1.533037,0.412396 -0.514009,0.09563 -1.030998,0.143442 -1.550969,0.143442 -1.810961,0 -3.227451,-0.463199 -4.249473,-1.389596 -1.022027,-0.932372 -1.5330386,-2.226338 -1.5330378,-3.881903 -8e-7,-1.655555 0.5110108,-2.946532 1.5330378,-3.872938 1.022022,-0.932364 2.438512,-1.39855 4.249473,-1.39856 0.525948,10e-6 1.042937,0.04782 1.550969,0.143442 0.513992,0.08966 1.025004,0.227126 1.533037,0.412396"
         style="font-weight:bold;line-height:83.99999738%;-inkscape-font-specification:Sans Bold"
         id="path3087" />
      <path
         d="m 21.261532,14.203267 3.209518,0 0,10.04095 -3.209518,0 0,-10.04095 m 0,-3.908798 3.209518,0 0,2.617819 -3.209518,0 0,-2.617819"
         style="font-weight:bold;line-height:83.99999738%;-inkscape-font-specification:Sans Bold"
         id="path3089" />
      <path
         d="m 34.180289,10.294469 0,2.106806 -1.775096,0 c -0.454239,1.2e-5 -0.771007,0.08369 -0.950304,0.251024 -0.179308,0.161384 -0.268959,0.44528 -0.268954,0.851688 l 0,0.69928 2.743331,0 0,2.295074 -2.743331,0 0,7.745876 -3.209518,0 0,-7.745876 -1.595794,0 0,-2.295074 1.595794,0 0,-0.69928 c -2e-6,-1.093735 0.304812,-1.900596 0.914444,-2.420586 0.609625,-0.525941 1.553952,-0.788918 2.832982,-0.788932 l 2.456446,0"
         style="font-weight:bold;line-height:83.99999738%;-inkscape-font-specification:Sans Bold"
         id="path3091" />
      <path
         d="m 20.45467,33.552894 0,6.114221 -3.227448,0 0,-0.99513 0,-3.666739 c -9e-6,-0.878578 -0.02093,-1.48223 -0.06276,-1.810957 -0.03587,-0.328715 -0.101613,-0.570773 -0.197233,-0.726176 -0.12552,-0.209179 -0.295857,-0.370551 -0.511013,-0.484117 -0.21517,-0.119528 -0.460217,-0.179295 -0.735141,-0.179303 -0.669403,8e-6 -1.195357,0.259996 -1.577863,0.779967 -0.382517,0.514007 -0.573773,1.228229 -0.573769,2.142667 l 0,4.939788 -3.209518,0 0,-13.949748 3.209518,0 0,5.37908 c 0.484112,-0.585712 0.998113,-1.016038 1.542003,-1.290979 0.543878,-0.280897 1.144542,-0.421351 1.801992,-0.421361 1.159481,10e-6 2.038064,0.355627 2.635749,1.066851 0.603641,0.711242 0.905467,1.74522 0.905479,3.101936"
         style="font-weight:bold;line-height:83.99999738%;fill:#ff0000;-inkscape-font-specification:Sans Bold"
         id="path3093" />
      <path
         d="m 23.449025,25.717367 3.209517,0 0,7.593468 3.693635,-3.68467 3.729496,0 -4.903928,4.608079 5.289429,5.432871 -3.890868,0 -3.917764,-4.186717 0,4.186717 -3.209517,0 0,-13.949748"
         style="font-weight:bold;line-height:83.99999738%;fill:#ff0000;-inkscape-font-specification:Sans Bold"
         id="path3095" />
      <path
         d="m 35.677467,25.717367 3.209518,0 0,13.949748 -3.209518,0 0,-13.949748"
         style="font-weight:bold;line-height:83.99999738%;fill:#ff0000;-inkscape-font-specification:Sans Bold"
         id="path3097" />
      <path
         d="m 19.665738,46.716579 c 0.406408,-0.621574 0.887537,-1.093737 1.443387,-1.416491 0.561802,-0.328712 1.177407,-0.493073 1.846817,-0.493083 1.153499,1e-5 2.032081,0.355627 2.63575,1.066851 0.603634,0.711243 0.90546,1.74522 0.905478,3.101936 l 0,6.114222 -3.227448,0 0,-5.235639 c 0.006,-0.07769 0.009,-0.158378 0.009,-0.242058 0.006,-0.08367 0.009,-0.203204 0.009,-0.358605 -1.4e-5,-0.711228 -0.104607,-1.225228 -0.313779,-1.542003 -0.209201,-0.322738 -0.546887,-0.48411 -1.013061,-0.484118 -0.609641,8e-6 -1.081804,0.251032 -1.416491,0.753072 -0.328733,0.502054 -0.49907,1.228229 -0.511012,2.178527 l 0,4.930824 -3.227448,0 0,-5.235639 c -8e-6,-1.11167 -0.09564,-1.825891 -0.286885,-2.142666 -0.191263,-0.322738 -0.531938,-0.48411 -1.022025,-0.484118 -0.615612,8e-6 -1.090764,0.25402 -1.425456,0.762037 -0.334703,0.502054 -0.502052,1.222252 -0.502048,2.160597 l 0,4.939789 -3.227448,0 0,-10.04095 3.227448,0 0,1.470282 c 0.394461,-0.567783 0.845706,-0.995121 1.353735,-1.282014 0.513995,-0.286875 1.078798,-0.430317 1.694411,-0.430327 0.693295,1e-5 1.305912,0.167359 1.837852,0.502048 0.531921,0.334707 0.935352,0.803882 1.210293,1.407526"
         style="font-weight:bold;line-height:83.99999738%;-inkscape-font-specification:Sans Bold"
         id="path3099" />
      <path
         d="m 33.014821,42.198151 0,2.850913 3.308135,0 0,2.295074 -3.308135,0 0,4.258439 c -5e-6,0.46619 0.09264,0.782957 0.27792,0.950304 0.185273,0.161374 0.552844,0.242061 1.102711,0.242058 l 1.649585,0 0,2.295075 -2.752296,0 c -1.267077,0 -2.166578,-0.262977 -2.698506,-0.788932 -0.525956,-0.53193 -0.788933,-1.431431 -0.788931,-2.698505 l 0,-4.258439 -1.595794,0 0,-2.295074 1.595794,0 0,-2.850913 3.209517,0"
         style="font-weight:bold;line-height:83.99999738%;-inkscape-font-specification:Sans Bold"
         id="path3101" />
      <path
         d="m 37.802203,45.049064 8.758936,0 0,2.241283 -5.289429,5.504592 5.289429,0 0,2.295075 -8.983064,0 0,-2.241284 5.289429,-5.504592 -5.065301,0 0,-2.295074"
         style="font-weight:bold;line-height:83.99999738%;-inkscape-font-specification:Sans Bold"
         id="path3103" />
    </g>
  </g>
  <text
     xml:space="preserve"
     style="font-size:17.66053963px;font-style:normal;font-weight:normal;line-height:125%;letter-spacing:0px;word-spacing:0px;fill:#000000;fill-opacity:1;stroke:none;font-family:Sans"
     x="38.227962"
     y="38.267593"
     id="text8447"
     sodipodi:linespacing="125%"><tspan
       sodipodi:role="line"
       id="tspan8449"
       x="38.227962"
       y="38.267593"
       style="font-style:italic;font-variant:normal;font-weight:bold;font-stretch:normal;fill:#ff0101;fill-opacity:1;font-family:Sans;-inkscape-font-specification:Sans Bold Italic" /></text>
</svg>
