<?xml version="1.0" encoding="UTF-8" standalone="no"?>
<svg
   xmlns:dc="http://purl.org/dc/elements/1.1/"
   xmlns:cc="http://creativecommons.org/ns#"
   xmlns:rdf="http://www.w3.org/1999/02/22-rdf-syntax-ns#"
   xmlns:svg="http://www.w3.org/2000/svg"
   xmlns="http://www.w3.org/2000/svg"
   xmlns:xlink="http://www.w3.org/1999/xlink"
   xmlns:sodipodi="http://sodipodi.sourceforge.net/DTD/sodipodi-0.dtd"
   xmlns:inkscape="http://www.inkscape.org/namespaces/inkscape"
   version="1.1"
   id="svg3190"
   height="48px"
   width="48px"
   inkscape:version="0.91 r13725"
   sodipodi:docname="import_processed.svg">
  <sodipodi:namedview
     pagecolor="#ffffff"
     bordercolor="#666666"
     borderopacity="1"
     objecttolerance="10"
     gridtolerance="10"
     guidetolerance="10"
     inkscape:pageopacity="0"
     inkscape:pageshadow="2"
     inkscape:window-width="1366"
     inkscape:window-height="719"
     id="namedview7407"
     showgrid="false"
     inkscape:zoom="4.9166667"
     inkscape:cx="14.847458"
     inkscape:cy="24.149418"
     inkscape:window-x="0"
     inkscape:window-y="0"
     inkscape:window-maximized="1"
     inkscape:current-layer="layer1" />
  <defs
     id="defs3192">
    <marker
       inkscape:stockid="Arrow1Mend"
       orient="auto"
       refY="0.0"
       refX="0.0"
       id="Arrow1Mend"
       style="overflow:visible;"
       inkscape:isstock="true">
      <path
         id="path6693"
         d="M 0.0,0.0 L 5.0,-5.0 L -12.5,0.0 L 5.0,5.0 L 0.0,0.0 z "
         style="fill-rule:evenodd;stroke:#000000;stroke-width:1pt;stroke-opacity:1;fill:#000000;fill-opacity:1"
         transform="scale(0.4) rotate(180) translate(10,0)" />
    </marker>
    <marker
       inkscape:stockid="Arrow2Lend"
       orient="auto"
       refY="0.0"
       refX="0.0"
       id="Arrow2Lend"
       style="overflow:visible;"
       inkscape:isstock="true">
      <path
         id="path6705"
         style="fill-rule:evenodd;stroke-width:0.625;stroke-linejoin:round;stroke:#000000;stroke-opacity:1;fill:#000000;fill-opacity:1"
         d="M 8.7185878,4.0337352 L -2.2072895,0.016013256 L 8.7185884,-4.0017078 C 6.9730900,-1.6296469 6.9831476,1.6157441 8.7185878,4.0337352 z "
         transform="scale(1.1) rotate(180) translate(1,0)" />
    </marker>
    <marker
       inkscape:stockid="Arrow2Mstart"
       orient="auto"
       refY="0.0"
       refX="0.0"
       id="marker7979"
       style="overflow:visible"
       inkscape:isstock="true">
      <path
         id="path7981"
         style="fill-rule:evenodd;stroke-width:0.625;stroke-linejoin:round;stroke:#000000;stroke-opacity:1;fill:#000000;fill-opacity:1"
         d="M 8.7185878,4.0337352 L -2.2072895,0.016013256 L 8.7185884,-4.0017078 C 6.9730900,-1.6296469 6.9831476,1.6157441 8.7185878,4.0337352 z "
         transform="scale(0.6) translate(0,0)" />
    </marker>
    <marker
       style="overflow:visible"
       id="Arrow2Sstart"
       refX="0.0"
       refY="0.0"
       orient="auto">
      <path
         transform="scale(0.3) translate(-2.3,0)"
         d="M 8.7185878,4.0337352 L -2.2072895,0.016013256 L 8.7185884,-4.0017078 C 6.9730900,-1.6296469 6.9831476,1.6157441 8.7185878,4.0337352 z "
         style="fill-rule:evenodd;stroke-width:0.625;stroke-linejoin:round;stroke:#000000;stroke-opacity:1;fill:#000000;fill-opacity:1"
         id="path6714" />
    </marker>
    <marker
       style="overflow:visible"
       id="Arrow2Mstart"
       refX="0.0"
       refY="0.0"
       orient="auto">
      <path
         transform="scale(0.6) translate(0,0)"
         d="M 8.7185878,4.0337352 L -2.2072895,0.016013256 L 8.7185884,-4.0017078 C 6.9730900,-1.6296469 6.9831476,1.6157441 8.7185878,4.0337352 z "
         style="fill-rule:evenodd;stroke-width:0.625;stroke-linejoin:round;stroke:#000000;stroke-opacity:1;fill:#000000;fill-opacity:1"
         id="path6708" />
    </marker>
    <marker
       style="overflow:visible;"
       id="Arrow1Send"
       refX="0.0"
       refY="0.0"
       orient="auto">
      <path
         transform="scale(0.2) rotate(180) translate(6,0)"
         style="fill-rule:evenodd;stroke:#000000;stroke-width:1pt;stroke-opacity:1;fill:#000000;fill-opacity:1"
         d="M 0.0,0.0 L 5.0,-5.0 L -12.5,0.0 L 5.0,5.0 L 0.0,0.0 z "
         id="path6699" />
    </marker>
    <marker
       style="overflow:visible"
       id="Arrow1Mstart"
       refX="0.0"
       refY="0.0"
       orient="auto">
      <path
         transform="scale(0.4) translate(10,0)"
         style="fill-rule:evenodd;stroke:#000000;stroke-width:1pt;stroke-opacity:1;fill:#000000;fill-opacity:1"
         d="M 0.0,0.0 L 5.0,-5.0 L -12.5,0.0 L 5.0,5.0 L 0.0,0.0 z "
         id="path6690" />
    </marker>
    <marker
       style="overflow:visible"
       id="Arrow1Lstart"
       refX="0.0"
       refY="0.0"
       orient="auto">
      <path
         transform="scale(0.8) translate(12.5,0)"
         style="fill-rule:evenodd;stroke:#000000;stroke-width:1pt;stroke-opacity:1;fill:#000000;fill-opacity:1"
         d="M 0.0,0.0 L 5.0,-5.0 L -12.5,0.0 L 5.0,5.0 L 0.0,0.0 z "
         id="path6684" />
    </marker>
    <linearGradient
       id="linearGradient9990">
      <stop
         id="stop9992"
         offset="0"
         style="stop-color:#000000;stop-opacity:1;" />
      <stop
         id="stop9994"
         offset="1"
         style="stop-color:#9b9b9b;stop-opacity:1;" />
    </linearGradient>
    <linearGradient
       id="linearGradient9982">
      <stop
         id="stop9984"
         offset="0"
         style="stop-color:#000000;stop-opacity:1;" />
      <stop
         id="stop9986"
         offset="1"
         style="stop-color:#000000;stop-opacity:0;" />
    </linearGradient>
    <linearGradient
       id="linearGradient9972">
      <stop
         id="stop9974"
         offset="0"
         style="stop-color:#000000;stop-opacity:1;" />
      <stop
         id="stop9976"
         offset="1"
         style="stop-color:#000000;stop-opacity:0;" />
    </linearGradient>
    <linearGradient
       id="linearGradient6104">
      <stop
         id="stop6106"
         offset="0"
         style="stop-color:#706773;stop-opacity:1;" />
      <stop
         id="stop6108"
         offset="1"
         style="stop-color:#000000;stop-opacity:1;" />
    </linearGradient>
    <linearGradient
       gradientTransform="matrix(0.73102902,0,0,0.73102902,9.6550637,9.8127696)"
       gradientUnits="userSpaceOnUse"
       y2="26.383081"
       x2="9.3690271"
       y1="35.476406"
       x1="6.7043839"
       id="linearGradient9978"
       xlink:href="#linearGradient9972" />
    <radialGradient
       gradientUnits="userSpaceOnUse"
       gradientTransform="matrix(0.91479204,0,0,0.8148779,2.7804264,3.6918021)"
       r="5.4061031"
       fy="27.458502"
       fx="26.019031"
       cy="27.458502"
       cx="26.019031"
       id="radialGradient9988"
       xlink:href="#linearGradient9982" />
    <linearGradient
       inkscape:collect="always"
       xlink:href="#linearGradient6035"
       id="linearGradient6157"
       gradientUnits="userSpaceOnUse"
       gradientTransform="matrix(0.81256321,0,0,0.81256321,-228.8117,-386.76193)"
       spreadMethod="reflect"
       x1="308.5"
       y1="522.60999"
       x2="327.78"
       y2="520.33002" />
    <linearGradient
       id="linearGradient6035">
      <stop
         id="stop6037"
         style="stop-color:#ffffff;stop-opacity:1"
         offset="0" />
      <stop
         id="stop6039"
         style="stop-color:#ffffff;stop-opacity:0"
         offset="1" />
    </linearGradient>
    <linearGradient
       inkscape:collect="always"
       xlink:href="#linearGradient6110"
       id="linearGradient6161"
       gradientUnits="userSpaceOnUse"
       gradientTransform="matrix(0.96028721,0,0,0.96028721,-253.71595,-443.35204)"
       spreadMethod="reflect"
       x1="269.97"
       y1="511.97"
       x2="286.63"
       y2="511.97" />
    <linearGradient
       x1="269.97"
       y1="511.97"
       x2="286.63"
       y2="511.97"
       id="linearGradient6110"
       gradientUnits="userSpaceOnUse"
       gradientTransform="matrix(1.203669,0,0,1.203669,-317.8861,411.94756)"
       spreadMethod="reflect">
      <stop
         id="stop5497"
         style="stop-color:#87caee;stop-opacity:1"
         offset="0" />
      <stop
         id="stop5501"
         style="stop-color:#abceda;stop-opacity:1"
         offset="0.20485" />
      <stop
         id="stop5499"
         style="stop-color:#1e9bcb;stop-opacity:1"
         offset="1" />
    </linearGradient>
    <linearGradient
       inkscape:collect="always"
       xlink:href="#linearGradient4319"
       id="linearGradient6154"
       gradientUnits="userSpaceOnUse"
       gradientTransform="matrix(0.96028721,0,0,0.96028721,-253.71595,-467.72891)"
       spreadMethod="pad"
       x1="287.69586"
       y1="529.23523"
       x2="287.58078"
       y2="512.51025" />
    <linearGradient
       x1="269.97"
       y1="511.97"
       x2="286.63"
       y2="511.97"
       id="linearGradient4319"
       gradientUnits="userSpaceOnUse"
       gradientTransform="matrix(1.1818,0,0,1.1818,-30.649,-69.394)"
       spreadMethod="reflect">
      <stop
         id="stop4321"
         style="stop-color:#87caee;stop-opacity:1"
         offset="0" />
      <stop
         id="stop4323"
         style="stop-color:#abceda;stop-opacity:1"
         offset="0.24713178" />
      <stop
         id="stop4325"
         style="stop-color:#1e9bcb;stop-opacity:1"
         offset="1" />
    </linearGradient>
    <linearGradient
       inkscape:collect="always"
       xlink:href="#linearGradient6035"
       id="linearGradient5717"
       gradientUnits="userSpaceOnUse"
       gradientTransform="translate(0,12)"
       spreadMethod="reflect"
       x1="308.61908"
       y1="522.19324"
       x2="327.66092"
       y2="519.73468" />
    <linearGradient
       inkscape:collect="always"
       xlink:href="#linearGradient6035"
       id="linearGradient6148"
       gradientUnits="userSpaceOnUse"
       gradientTransform="matrix(0.81256321,0,0,0.81256321,-228.8117,-369.08861)"
       spreadMethod="reflect"
       x1="308.5"
       y1="522.60999"
       x2="327.78"
       y2="520.33002" />
  </defs>
  <metadata
     id="metadata3195">
    <rdf:RDF>
      <cc:Work
         rdf:about="">
        <dc:format>image/svg+xml</dc:format>
        <dc:type
           rdf:resource="http://purl.org/dc/dcmitype/StillImage" />
        <dc:title />
      </cc:Work>
    </rdf:RDF>
  </metadata>
  <g
     id="layer1">
    <g
       transform="matrix(1.1642444,0,0,1.1642444,-0.99458606,-29.597152)"
       id="g8626">
      <path
         inkscape:connector-curvature="0"
         style="opacity:1;fill:#ffffff;fill-opacity:1"
         id="path6169"
         d="m 5.5396657,33.53642 0,24.4517 0.1012319,0 c -0.065195,0.1966 -0.1012319,0.3826 -0.1012319,0.584 0,2.9465 7.1575713,5.3324 15.9977033,5.3324 8.840187,0 15.997811,-2.3859 15.997811,-5.3324 0,-0.202 -0.03181,-0.388 -0.101775,-0.584 l 0.101775,0 0,-24.4517 -31.9948251,0 z" />
      <path
         inkscape:connector-curvature="0"
         style="opacity:1;fill:#ffffff;fill-opacity:1"
         id="path6171"
         d="m 37.537548,33.329309 a 16.005607,5.3352028 0 0 1 -32.011213,0 16.005607,5.3352028 0 1 1 32.011213,0 z" />
      <path
         d="m 5.5152311,51.07962 c 0.119787,2.9122 7.2576419,5.2563 16.0229859,5.2563 8.739903,0 15.83848,-2.3303 15.997704,-5.2308 -1.982088,2.8693 -8.953244,4.6179 -16.046044,4.6179 -7.106793,0 -14.1936543,-1.6693 -15.9746459,-4.6434 z"
         id="path6026"
         style="opacity:0.49137932;fill:#565656"
         inkscape:connector-curvature="0" />
      <path
         d="m 5.5152311,33.40652 c 0.119787,2.9123 7.2576419,5.2561 16.0229859,5.2561 8.739903,0 15.83848,-2.33 15.997704,-5.2306 -0.174914,0.1494 -0.358307,0.2882 -0.558663,0.4319 -0.0106,0.013 -0.0212,0.016 -0.02651,0.027 -1.86246,2.2568 -8.047193,3.9105 -15.413494,3.9105 -7.412201,0 -13.6396558,-1.6826 -15.4638975,-3.9613 -0.021206,-0.016 -0.026507,-0.037 -0.053002,-0.053 -0.1775598,-0.1293 -0.3503534,-0.246 -0.5077753,-0.3816 z"
         id="path6030"
         style="opacity:0.49137932;fill:url(#linearGradient6157)"
         inkscape:connector-curvature="0" />
      <g
         id="g6163">
        <path
           inkscape:connector-curvature="0"
           style="opacity:0.49137932;fill:url(#linearGradient6161)"
           id="path5488"
           d="m 5.5396657,33.53642 0,24.4517 0.1012319,0 c -0.065195,0.1966 -0.1012319,0.3826 -0.1012319,0.584 0,2.9465 7.1575713,5.3324 15.9977033,5.3324 8.840187,0 15.997811,-2.3859 15.997811,-5.3324 0,-0.202 -0.03181,-0.388 -0.101775,-0.584 l 0.101775,0 0,-24.4517 -31.9948251,0 z" />
        <path
           inkscape:connector-curvature="0"
           style="opacity:0.49137932;fill:url(#linearGradient6154);fill-opacity:1"
           id="path5460"
           d="m 37.537548,33.329309 a 16.005607,5.3352028 0 0 1 -32.011213,0 16.005607,5.3352028 0 1 1 32.011213,0 z" />
      </g>
      <g
         transform="matrix(0.81256321,0,0,0.81256321,-228.8117,-387.39013)"
         id="g6067"
         style="opacity:0.49137932">
        <path
           d="m 288.38,529.09 c 0.14735,3.584 8.9318,6.4688 19.719,6.4688 10.756,0 19.492,-2.8677 19.688,-6.4375 -2.67754,4.00753 -13.04173,5.59646 -19.74754,5.62369 -8.92332,0.0362 -17.4677,-2.35208 -19.65946,-5.65489 z"
           id="path6022"
           style="fill:#565656"
           inkscape:connector-curvature="0" />
        <path
           d="m 288.38,529.09 c 0.14735,3.584 8.9318,6.4688 19.719,6.4688 10.756,0 19.492,-2.8677 19.688,-6.4375 -0.0497,0.0422 -0.10543,0.0838 -0.15625,0.125 -1.2422,3.2268 -9.27246,6.01648 -19.531,6.01648 -10.113,0 -17.57497,-2.57074 -19.594,-6.07888 -0.0401,-0.0317 -0.0863,-0.0607 -0.125,-0.0937 z"
           id="path6043"
           style="fill:url(#linearGradient5717)"
           inkscape:connector-curvature="0" />
      </g>
      <path
         d="m 5.5152311,51.07962 c 0.119787,2.9122 7.2576419,5.2563 16.0229859,5.2563 8.739903,0 15.83848,-2.3303 15.997704,-5.2308 -0.0371,0.031 -0.08587,0.068 -0.12721,0.1023 -1.009357,2.6219 -7.921466,4.8402 -16.063694,4.8402 -8.217387,0 -14.8129021,-2.234 -15.7279127,-4.891 -0.031809,-0.027 -0.069966,-0.048 -0.1017621,-0.076 z"
         id="path6054"
         style="opacity:0.49137932;fill:url(#linearGradient6148);fill-opacity:1"
         inkscape:connector-curvature="0" />
      <path
         d="m 5.3922079,43.47602 c 9.5496471,3.968 11.6876741,3.968 16.9613191,3.6943 5.273698,-0.2734 8.836953,-0.9579 11.830148,-2.0524 2.993196,-1.0946 1.995446,-0.5472 3.135725,-0.9577"
         id="path4606"
         style="opacity:0.49137932;fill:none;stroke:none"
         inkscape:connector-curvature="0" />
      <path
         d="m 33.364656,33.15052 c 0,2.2468 -5.383946,4.0681 -12.02547,4.0681 -6.641415,0 -12.0255744,-1.8213 -12.0255744,-4.0681 0,-2.2464 5.3841064,-4.0677 12.0255744,-4.0677 6.641418,0 12.02547,1.8211 12.02547,4.0677 z"
         id="path2985-2-3-5"
         style="opacity:0.49137932;fill:#ffffff;fill-opacity:1;stroke:#8fafb2;stroke-width:1.38736308;stroke-opacity:1"
         inkscape:connector-curvature="0" />
      <path
         d="m 14.29319,33.18282 4.484309,0 c -0.0049,-0.016 -0.02121,-0.053 -0.02121,-0.072 l 0,-1.9712 c 0,-0.3128 0.324385,-0.5648 1.259537,-0.5648 l 2.797558,0 c 0.935469,0 1.348742,0.2518 1.348742,0.5648 l 0,1.9712 c 0,0.015 -0.0049,0.053 -0.0212,0.072 l 4.402311,0 -7.13213,2.6826 z"
         id="path2987-3-5-2-9"
         style="opacity:0.49137932;fill:#1781a9;fill-opacity:1;stroke:none"
         inkscape:connector-curvature="0" />
    </g>
  </g>
</svg>
