<?xml version="1.0" encoding="UTF-8" standalone="no"?>
<svg
   xmlns:dc="http://purl.org/dc/elements/1.1/"
   xmlns:cc="http://creativecommons.org/ns#"
   xmlns:rdf="http://www.w3.org/1999/02/22-rdf-syntax-ns#"
   xmlns:svg="http://www.w3.org/2000/svg"
   xmlns="http://www.w3.org/2000/svg"
   xmlns:xlink="http://www.w3.org/1999/xlink"
   id="svg2"
   height="64"
   width="64"
   version="1.1">
  <defs
     id="defs4">
    <marker
       style="overflow:visible"
       id="Arrow1Mend"
       orient="auto"
       refY="0"
       refX="0">
      <path
         style="fill-rule:evenodd;stroke:#000000;stroke-width:1pt;marker-start:none"
         id="path5185"
         transform="matrix(-0.4,0,0,-0.4,-4,0)"
         d="M 0,0 5,-5 -12.5,0 5,5 0,0 z" />
    </marker>
    <marker
       style="overflow:visible"
       id="Arrow2Mend"
       orient="auto"
       refY="0"
       refX="0">
      <path
         style="font-size:12px;fill-rule:evenodd;stroke-width:0.625;stroke-linejoin:round"
         id="path5203"
         transform="scale(-0.6,-0.6)"
         d="M 8.7185878,4.0337352 -2.2072895,0.01601326 8.7185884,-4.0017078 c -1.7454984,2.3720609 -1.7354408,5.6174519 -6e-7,8.035443 z" />
    </marker>
    <marker
       style="overflow:visible"
       id="Arrow2Lend"
       orient="auto"
       refY="0"
       refX="0">
      <path
         style="font-size:12px;fill-rule:evenodd;stroke-width:0.625;stroke-linejoin:round"
         id="path5197"
         transform="matrix(-1.1,0,0,-1.1,-1.1,0)"
         d="M 8.7185878,4.0337352 -2.2072895,0.01601326 8.7185884,-4.0017078 c -1.7454984,2.3720609 -1.7354408,5.6174519 -6e-7,8.035443 z" />
    </marker>
    <linearGradient
       id="linearGradient6799">
      <stop
         offset="0"
         style="stop-color:#000000;stop-opacity:1"
         id="stop6801" />
      <stop
         offset="1"
         style="stop-color:#000000;stop-opacity:0"
         id="stop6803" />
    </linearGradient>
    <linearGradient
       id="linearGradient6775">
      <stop
         offset="0"
         style="stop-color:#000000;stop-opacity:1"
         id="stop6777" />
      <stop
         offset="1"
         style="stop-color:#ffffff;stop-opacity:1"
         id="stop6779" />
    </linearGradient>
    <marker
       style="overflow:visible"
       id="Arrow2Lstart"
       orient="auto"
       refY="0"
       refX="0">
      <path
         style="font-size:12px;fill-rule:evenodd;stroke-width:0.625;stroke-linejoin:round"
         id="path4334"
         transform="matrix(1.1,0,0,1.1,1.1,0)"
         d="M 8.7185878,4.0337352 -2.2072895,0.01601326 8.7185884,-4.0017078 c -1.7454984,2.3720609 -1.7354408,5.6174519 -6e-7,8.035443 z" />
    </marker>
    <marker
       style="overflow:visible"
       id="Arrow1Lend"
       orient="auto"
       refY="0"
       refX="0">
      <path
         style="fill-rule:evenodd;stroke:#000000;stroke-width:1pt;marker-start:none"
         id="path4319"
         transform="matrix(-0.8,0,0,-0.8,-10,0)"
         d="M 0,0 5,-5 -12.5,0 5,5 0,0 z" />
    </marker>
    <linearGradient
       gradientUnits="userSpaceOnUse"
       xlink:href="#linearGradient6799"
       id="linearGradient6805"
       y2="68.845291"
       x2="631.55121"
       y1="68.845291"
       x1="421.16345" />
    <linearGradient
       spreadMethod="reflect"
       gradientTransform="matrix(0.81256321,0,0,0.81256321,-228.8117,619.27357)"
       gradientUnits="userSpaceOnUse"
       xlink:href="#linearGradient6035"
       id="linearGradient4583"
       y2="520.33002"
       x2="327.78"
       y1="522.60999"
       x1="308.5" />
    <linearGradient
       id="linearGradient6035">
      <stop
         offset="0"
         style="stop-color:#ffffff;stop-opacity:1"
         id="stop6037" />
      <stop
         offset="1"
         style="stop-color:#ffffff;stop-opacity:0"
         id="stop6039" />
    </linearGradient>
    <linearGradient
       spreadMethod="reflect"
       gradientTransform="translate(0,12)"
       gradientUnits="userSpaceOnUse"
       xlink:href="#linearGradient6035"
       id="linearGradient4383"
       y2="519.73468"
       x2="327.66092"
       y1="522.19324"
       x1="308.61908" />
    <linearGradient
       id="linearGradient6402">
      <stop
         offset="0"
         style="stop-color:#ffffff;stop-opacity:1"
         id="stop6404" />
      <stop
         offset="1"
         style="stop-color:#ffffff;stop-opacity:0"
         id="stop6406" />
    </linearGradient>
    <linearGradient
       spreadMethod="pad"
       gradientUnits="userSpaceOnUse"
       xlink:href="#linearGradient4319"
       id="linearGradient4317"
       y2="512.51025"
       x2="287.58078"
       y1="529.23523"
       x1="287.69586" />
    <linearGradient
       spreadMethod="reflect"
       gradientTransform="matrix(1.1818,0,0,1.1818,-30.649,-69.394)"
       gradientUnits="userSpaceOnUse"
       id="linearGradient4319"
       y2="511.97"
       x2="286.63"
       y1="511.97"
       x1="269.97">
      <stop
         offset="0"
         style="stop-color:#87caee;stop-opacity:1"
         id="stop4321" />
      <stop
         offset="0.24713178"
         style="stop-color:#abceda;stop-opacity:1"
         id="stop4323" />
      <stop
         offset="1"
         style="stop-color:#1e9bcb;stop-opacity:1"
         id="stop4325" />
    </linearGradient>
    <linearGradient
       spreadMethod="reflect"
       gradientTransform="matrix(0.81256321,0,0,0.81256321,-228.8117,601.60025)"
       gradientUnits="userSpaceOnUse"
       xlink:href="#linearGradient6035"
       id="linearGradient6114"
       y2="520.33002"
       x2="327.78"
       y1="522.60999"
       x1="308.5" />
    <linearGradient
       id="linearGradient6414">
      <stop
         offset="0"
         style="stop-color:#ffffff;stop-opacity:1"
         id="stop6416" />
      <stop
         offset="1"
         style="stop-color:#ffffff;stop-opacity:0"
         id="stop6418" />
    </linearGradient>
    <linearGradient
       spreadMethod="reflect"
       gradientTransform="matrix(1.203669,0,0,1.203669,-317.8861,411.94756)"
       gradientUnits="userSpaceOnUse"
       id="linearGradient6110"
       y2="511.97"
       x2="286.63"
       y1="511.97"
       x1="269.97">
      <stop
         offset="0"
         style="stop-color:#87caee;stop-opacity:1"
         id="stop5497" />
      <stop
         offset="0.20485"
         style="stop-color:#abceda;stop-opacity:1"
         id="stop5501" />
      <stop
         offset="1"
         style="stop-color:#1e9bcb;stop-opacity:1"
         id="stop5499" />
    </linearGradient>
    <linearGradient
       spreadMethod="reflect"
       gradientTransform="matrix(0.96028721,0,0,0.96028721,-253.71595,545.01014)"
       gradientUnits="userSpaceOnUse"
       xlink:href="#linearGradient6110"
       id="linearGradient6513"
       y2="511.97"
       x2="286.63"
       y1="511.97"
       x1="269.97" />
    <linearGradient
       y2="519.73468"
       x2="327.66092"
       y1="522.19324"
       x1="308.61908"
       spreadMethod="reflect"
       gradientTransform="translate(0,12)"
       gradientUnits="userSpaceOnUse"
       id="linearGradient5717"
       xlink:href="#linearGradient6035" />
    <linearGradient
       y2="520.33002"
       x2="327.78"
       y1="522.60999"
       x1="308.5"
       spreadMethod="reflect"
       gradientTransform="matrix(0.81256321,0,0,0.81256321,-228.8117,-369.08861)"
       gradientUnits="userSpaceOnUse"
       id="linearGradient5733"
       xlink:href="#linearGradient6035" />
    <linearGradient
       gradientTransform="matrix(0.96028721,0,0,0.96028721,-253.71595,-467.72891)"
       y2="512.51025"
       x2="287.58078"
       y1="529.23523"
       x1="287.69586"
       spreadMethod="pad"
       gradientUnits="userSpaceOnUse"
       id="linearGradient5739"
       xlink:href="#linearGradient4319" />
    <linearGradient
       y2="520.33002"
       x2="327.78"
       y1="522.60999"
       x1="308.5"
       spreadMethod="reflect"
       gradientTransform="matrix(0.81256321,0,0,0.81256321,-228.8117,-386.76193)"
       gradientUnits="userSpaceOnUse"
       id="linearGradient5742"
       xlink:href="#linearGradient6035" />
    <linearGradient
       y2="511.97"
       x2="286.63"
       y1="511.97"
       x1="269.97"
       spreadMethod="reflect"
       gradientTransform="matrix(0.96028721,0,0,0.96028721,-253.71595,-443.35204)"
       gradientUnits="userSpaceOnUse"
       id="linearGradient5746"
       xlink:href="#linearGradient6110" />
    <linearGradient
       y2="520.33002"
       x2="327.78"
       y1="522.60999"
       x1="308.5"
       spreadMethod="reflect"
       gradientTransform="matrix(0.81256321,0,0,0.81256321,-228.8117,-369.08861)"
       gradientUnits="userSpaceOnUse"
       id="linearGradient6148"
       xlink:href="#linearGradient6035" />
    <linearGradient
       y2="512.51025"
       x2="287.58078"
       y1="529.23523"
       x1="287.69586"
       spreadMethod="pad"
       gradientTransform="matrix(0.96028721,0,0,0.96028721,-253.71595,-467.72891)"
       gradientUnits="userSpaceOnUse"
       id="linearGradient6154"
       xlink:href="#linearGradient4319" />
    <linearGradient
       y2="520.33002"
       x2="327.78"
       y1="522.60999"
       x1="308.5"
       spreadMethod="reflect"
       gradientTransform="matrix(0.81256321,0,0,0.81256321,-228.8117,-386.76193)"
       gradientUnits="userSpaceOnUse"
       id="linearGradient6157"
       xlink:href="#linearGradient6035" />
    <linearGradient
       y2="511.97"
       x2="286.63"
       y1="511.97"
       x1="269.97"
       spreadMethod="reflect"
       gradientTransform="matrix(0.96028721,0,0,0.96028721,-253.71595,-443.35204)"
       gradientUnits="userSpaceOnUse"
       id="linearGradient6161"
       xlink:href="#linearGradient6110" />
  </defs>
  <metadata
     id="metadata7">
    <rdf:RDF>
      <cc:Work
         rdf:about="">
        <dc:format>image/svg+xml</dc:format>
        <dc:type
           rdf:resource="http://purl.org/dc/dcmitype/StillImage" />
        <dc:title></dc:title>
      </cc:Work>
    </rdf:RDF>
  </metadata>
  <g
     id="layer1"
     transform="matrix(0.770384,0,0,0.770384,16.04648,-763.16713)">
    <g
       id="g3191"
       transform="matrix(0.47089002,0,0,0.47089002,4.2938389,531.73281)">
      <path
         style="fill:#a1a1a1"
         id="path3205"
         d="m 43.857143,1101.95 c -23.365785,-5.0183 -43.5774703,-25.4152 -48.500648,-48.9449 -9.507856,-45.4417 30.558981,-85.50853 76.000648,-76.00068 23.7732,4.97412 44.026527,25.22748 49.000647,49.00068 9.54206,45.6051 -30.887878,85.7414 -76.500647,75.9449 z" />
      <path
         style="fill:#979797"
         id="path3203"
         d="m 43.857143,1101.95 c -23.365785,-5.0183 -43.5774703,-25.4152 -48.500648,-48.9449 -9.507856,-45.4417 30.558981,-85.50853 76.000648,-76.00068 14.537194,3.04165 29.118757,12.54354 38.218407,24.90458 3.71593,5.0477 4.14572,6.0926 2.81282,6.8385 -0.86531,0.4843 -1.30774,1.3102 -0.98316,1.8353 0.32457,0.5252 1.00903,0.696 1.52103,0.3796 2.04795,-1.2657 2.74096,0.7326 0.89443,2.5791 -1.07994,1.08 -1.96353,2.6386 -1.96353,3.4636 0,1.8002 2.13146,1.9685 3.8,0.3 0.93333,-0.9334 1.2,-0.7042 1.2,1.0314 0,1.2272 0.675,2.4904 1.5,2.8069 0.825,0.3166 1.49337,1.54 1.48526,2.7187 -0.0138,2.0054 -0.0956,1.9824 -1.27317,-0.357 -1.60075,-3.1801 -5.42526,-3.6303 -8.71209,-1.0256 -1.375,1.0896 -1.90536,1.9911 -1.17857,2.0033 0.95012,0.016 0.84224,0.5015 -0.38393,1.7276 -1.09127,1.0913 -1.30025,1.8404 -0.58036,2.0804 0.79003,0.2633 0.74002,0.76 -0.16796,1.668 -0.71113,0.7111 -2.38335,6.7742 -3.71604,13.4734 -2.22288,11.1743 -2.29603,12.4033 -0.88537,14.8767 1.37992,2.4196 2.0699,2.6821 6.72496,2.5586 4.7396,-0.1257 5.18727,0.055 5.18727,2.0917 0,2.8485 -5.78127,4.8176 -14.999997,5.109 -7.954856,0.2514 -12.340968,2.025 -11.639671,4.7068 0.358932,1.3725 0.08382,1.7307 -1.007594,1.3119 -2.130675,-0.8176 -4.582585,1.7883 -3.088449,3.2825 0.847619,0.8476 0.577643,1.1357 -1.064286,1.1357 -1.21,0 -2.2,0.525 -2.2,1.1666 0,0.6417 -0.289125,0.8776 -0.642501,0.5242 -0.353375,-0.3534 -0.01588,-1.4409 0.75,-2.4167 1.227895,-1.5644 1.209037,-1.6313 -0.159535,-0.566 -1.675642,1.3044 -5.947964,0.6636 -5.947964,-0.8921 0,-0.523 0.956353,-0.6473 2.125229,-0.2763 1.430138,0.4539 1.901436,0.3124 1.440983,-0.4326 -0.376335,-0.6089 -2.345188,-1.1002 -4.375229,-1.0918 -2.030041,0.01 -3.208159,0.3459 -2.618041,0.75 0.590117,0.4041 1.363494,1.5222 1.718615,2.4847 0.388179,1.0521 1.682062,1.75 3.244446,1.75 2.215881,0 2.505525,0.3315 1.965878,2.25 -0.480887,1.7096 -0.389903,1.8964 0.378817,0.778 0.867624,-1.2623 1.108961,-1.2185 1.694549,0.3075 0.375561,0.9787 1.288848,1.5469 2.029527,1.2626 0.977856,-0.3752 1.254869,0.2719 1.011433,2.3627 -0.252906,2.1721 0.139882,3.0036 1.599085,3.3852 1.591387,0.4162 1.745196,0.8593 0.867514,2.4993 -0.791503,1.4789 -0.746292,2.127 0.175184,2.5112 2.10313,0.8769 -2.182753,3.5399 -9.171014,5.6983 -5.098349,1.5747 -6.609845,1.7243 -7.248917,0.7174 -0.634466,-0.9997 -0.810714,-1.0045 -0.822746,-0.022 -0.0084,0.6875 -0.690313,1.25 -1.515313,1.25 -0.825,0 -1.5,-0.3876 -1.5,-0.8614 0,-0.4737 -1.125,-0.6462 -2.5,-0.3834 -1.459349,0.279 -2.5,0.013 -2.5,-0.6386 0,-0.6142 0.5625,-1.1235 1.25,-1.1319 0.833684,-0.01 0.752747,-0.3297 -0.243017,-0.9592 -1.112294,-0.7032 -1.725885,-0.3806 -2.406214,1.2653 -0.502259,1.215 -0.842901,2.5467 -0.756983,2.9592 0.08592,0.4125 -0.518786,0.75 -1.343786,0.75 -0.825,0 -1.5,-0.675 -1.5,-1.5 0,-0.825 0.45,-1.5 1,-1.5 0.55,0 1,-0.45 1,-1 0,-1.939 -2.056836,-0.9694 -3.181954,1.5 -1.2892,2.8295 -1.825511,2.8763 -10.818046,0.9449 z m 14.683114,-10.6324 c -0.319226,-0.7978 -0.556183,-0.5608 -0.604167,0.6041 -0.04342,1.0542 0.192928,1.6448 0.52522,1.3125 0.332291,-0.3323 0.367818,-1.1948 0.07895,-1.9166 z m 4.816886,-8.0321 c -1.1,-0.6102 -2.330609,-1.598 -2.734687,-2.195 -0.461566,-0.6819 -0.74038,-0.4968 -0.75,0.4979 -0.02008,2.0766 0.431613,2.4517 3.184791,2.6451 2.208032,0.155 2.220011,0.1172 0.299896,-0.948 z m 9.239473,-2.3743 c -0.257873,-0.2579 -1.403791,-0.6489 -2.546486,-0.869 -1.529625,-0.2945 -1.924252,-4e-4 -1.496143,1.1152 0.414287,1.0797 0.788988,1.1796 1.303156,0.3477 0.494708,-0.8005 0.959305,-0.591 1.477262,0.6661 0.536168,1.3013 0.897227,1.4527 1.24333,0.5214 0.268258,-0.7219 0.276754,-1.5235 0.01888,-1.7814 z m 9.260527,-6.9061 c 0,-0.825 -0.435877,-1.5 -0.968615,-1.5 -0.532739,0 -0.709594,0.675 -0.393011,1.5 0.316582,0.825 0.752459,1.5 0.968615,1.5 0.216156,0 0.393011,-0.675 0.393011,-1.5 z m -7.52896,-2.3044 c -1.488042,-1.066 -1.420624,-4.1956 0.09038,-4.1956 0.736559,0 1.797875,0.7875 2.35848,1.75 1.135166,1.9489 1.40942,1.2717 0.47311,-1.1682 -0.333844,-0.87 -1.158844,-1.5818 -1.833333,-1.5818 -1.830635,0 -1.483144,-2.9886 0.356989,-3.0703 1.142838,-0.051 1.026918,-0.2905 -0.416667,-0.8616 -2.533286,-1.0024 -5.02364,-0.1918 -3.645362,1.1865 1.176511,1.1765 0.331344,3.9783 -0.959423,3.1806 -0.492368,-0.3043 -0.895215,0.4483 -0.895215,1.6724 0,1.2241 0.297137,1.9286 0.660305,1.5654 0.363168,-0.3632 1.309068,0.2659 2.101999,1.398 0.792932,1.1321 1.720262,1.7797 2.060735,1.4393 0.340472,-0.3405 0.182072,-0.9321 -0.351999,-1.3147 z m -5.47104,-4.1956 c 0,-0.55 -0.476558,-1 -1.059017,-1 -0.582459,0 -0.780902,0.45 -0.440983,1 0.339919,0.55 0.816476,1 1.059017,1 0.242541,0 0.440983,-0.45 0.440983,-1 z m 20.663855,-9.0882 c 0.09012,-1.8765 0.255909,-3.8618 0.368421,-4.4118 0.112511,-0.55 0.151277,-1.3375 0.08615,-1.75 -0.06513,-0.4125 0.331579,-0.75 0.881579,-0.75 0.55,0 0.986316,-1.2375 0.969591,-2.75 -0.02552,-2.3083 -0.190393,-2.4756 -1.026447,-1.0416 -0.628011,1.0772 -1.632875,1.4699 -2.719591,1.0628 -1.506619,-0.5644 -1.550811,-0.4333 -0.351108,1.0415 1.182425,1.4537 1.147811,1.6873 -0.25,1.6873 -2.027453,0 -2.088509,1.3683 -0.133455,2.9908 1.747844,1.4506 1.071744,3.1616 -0.943696,2.3882 -1.984701,-0.7616 -2.770561,-3.4027 -1.476457,-4.962 0.606838,-0.7312 0.79954,-1.821 0.428225,-2.4218 -0.968697,-1.5674 -3.497062,0.7363 -3.497062,3.1862 0,1.0651 -0.45,1.6585 -1,1.3186 -0.55,-0.3399 -1,-0.1415 -1,0.441 0,0.5824 0.45,1.059 1,1.059 0.55,0 1,0.675 1,1.5 0,0.825 -0.45,1.5 -1,1.5 -1.857679,0 -1.016452,1.5731 0.919196,1.7189 1.055557,0.08 2.19294,-0.5688 2.527517,-1.4407 0.532318,-1.3872 0.781215,-1.3488 1.992129,0.3072 0.761094,1.0409 1.136073,2.2934 0.833287,2.7833 -0.302786,0.4899 0.07462,0.6802 0.838675,0.4229 0.773266,-0.2604 1.461844,-1.9806 1.553051,-3.8798 z m -16.679168,-0.1618 c -0.01196,-1.7567 -0.216731,-1.9316 -0.934017,-0.7978 -0.505287,0.7988 -0.696839,1.8113 -0.42567,2.25 0.867367,1.4035 1.375429,0.8608 1.359687,-1.4522 z m 5.515313,1.25 c -0.339919,-0.55 -1.293034,-1 -2.118034,-1 -0.825,0 -1.221885,0.45 -0.881966,1 0.339919,0.55 1.293034,1 2.118034,1 0.825,0 1.221885,-0.45 0.881966,-1 z m 17.5,-28.7891 c 0,-1.1807 -0.28349,-1.2205 -1.5,-0.2109 -0.825,0.6847 -1.5,1.3398 -1.5,1.4557 0,0.116 0.675,0.2109 1.5,0.2109 0.825,0 1.5,-0.6551 1.5,-1.4557 z m 12.583447,45.1459 c -0.73975,-1.9277 -0.76224,-1.8995 2.2514,-2.8269 2.30499,-0.7094 2.31311,-0.6854 0.63499,1.8758 -2.00435,3.059 -2.06932,3.0804 -2.88639,0.9511 z m -17.850114,-2.4809 c 0.678334,-0.6834 1.485241,-0.9907 1.793128,-0.6828 0.307888,0.3079 -0.247112,0.867 -1.233333,1.2426 -1.425198,0.5427 -1.540062,0.4278 -0.559795,-0.5598 z m 22.266664,-18.8759 c 0,-0.55 0.45,-1 1,-1 0.55,0 1,0.45 1,1 0,0.55 -0.45,1 -1,1 -0.55,0 -1,-0.45 -1,-1 z m 5,-0.5 c 0,-0.825 -0.417,-1.5 -0.92668,-1.5 -1.79037,0 -1.62737,-3.5384 0.33483,-7.2683 1.09031,-2.0725 2.45701,-3.5991 3.03711,-3.3924 1.06448,0.3793 1.11046,7.2533 0.0763,11.4107 -0.6258,2.5158 -2.52156,3.0797 -2.52156,0.75 z m -10.26667,-11.6241 c 0.67834,-0.6834 1.48524,-0.9907 1.79313,-0.6828 0.30789,0.3079 -0.24711,0.867 -1.23333,1.2426 -1.4252,0.5427 -1.54006,0.4278 -0.5598,-0.5598 z" />
      <path
         style="fill:#888888"
         id="path3201"
         d="m 71.52381,1098.8384 c -1.12962,-1.1296 -0.736394,-7.8636 0.533333,-9.1333 1.474216,-1.4742 5.270473,-1.5538 7.865741,-0.1648 2.381418,1.2745 2.592759,6.1634 0.36283,8.3933 -1.563761,1.5638 -7.490867,2.1758 -8.761904,0.9048 z m -58.477329,-14.0228 c -9.1069161,-9.1069 -15.2515521,-20.1563 -17.689986,-31.8105 -8.658449,-41.3821 24.070848,-79.64817 66.000648,-77.16602 7.459287,0.44157 23.874333,4.23668 19.75,4.56614 -0.6875,0.0549 -1.25,0.75249 -1.25,1.55016 0,0.79767 -0.7875,1.95665 -1.75,2.57551 -1.637208,1.05267 -1.632419,1.08828 0.0743,0.55256 1.009586,-0.3169 2.519434,0.1225 3.380835,0.9839 1.40871,1.40871 1.354314,1.60941 -0.572782,2.11336 -1.581947,0.41369 -2.021042,1.15391 -1.708124,2.87955 0.326741,1.80187 0.06323,2.18536 -1.175129,1.71016 -1.187099,-0.45554 -1.431683,-0.18353 -0.954095,1.06104 0.462304,1.20474 0.107245,1.67361 -1.267373,1.67361 -1.050279,0 -2.230684,0.51953 -2.623124,1.15451 -0.421735,0.68238 -0.276327,0.8843 0.355573,0.49377 0.588004,-0.36341 1.297007,-0.0954 1.575561,0.59549 0.302813,0.7511 0.538208,0.80936 0.585411,0.1449 0.09285,-1.307 5.078947,-0.5924 5.078947,0.72791 0,0.76966 -3.042903,1.35033 -5.25,1.00184 -1.114644,-0.176 -0.906528,1.05791 0.696858,4.13161 1.343211,2.5749 1.303194,2.75 -0.628606,2.75 -1.598468,0 -1.815697,0.2981 -0.96449,1.3238 0.652381,0.786 0.733365,1.7 0.199371,2.25 -0.494604,0.5094 -0.657058,2.1604 -0.361008,3.669 l 0.538273,2.7428 3.769122,-2.9853 c 9.745845,-7.7188 21.331397,-10.2002 26.573137,-5.6915 4.21173,3.6228 4.21155,9.2889 -8.7e-4,28.3727 -1.96448,8.8999 -3.57179,17.4926 -3.57179,19.095 0,4.5273 3.03009,6.6283 8.48171,5.881 4.23857,-0.5809 4.51829,-0.4755 4.51829,1.7033 0,1.8659 -0.83577,2.5732 -4.25,3.5972 -2.3375,0.701 -6.79895,1.5063 -9.91433,1.7894 -5.113097,0.4647 -5.915967,0.2632 -8.250001,-2.0709 -3.044815,-3.0448 -3.22595,-5.7916 -1.011573,-15.3398 0.907304,-3.9122 1.179176,-6.919 0.64181,-7.0981 -0.512755,-0.1709 -1.783597,-0.9432 -2.824093,-1.7161 -2.521157,-1.8729 -0.680769,-5.0361 2.902945,-4.9895 2.377765,0.031 2.648795,-0.4839 4.211115,-8 1.89158,-9.1 1.17256,-12.8112 -2.835968,-14.6376 -3.270893,-1.4903 -11.578241,2.149 -15.919754,6.9741 -3.100035,3.4454 -3.469475,4.7393 -7.246702,25.3805 l -3.980135,21.75 -5.698785,0 -5.698785,0 0.567972,-3.5 c 0.678714,-4.1825 0.06171,-4.3464 -3.385294,-0.8994 -2.096527,2.0966 -2.33003,2.7721 -1.204545,3.4847 1.043711,0.6609 1.072675,0.8879 0.114741,0.8994 -0.704761,0.01 -1.571938,-0.7722 -1.927058,-1.7347 -0.355121,-0.9625 -1.128498,-2.0806 -1.718615,-2.4847 -1.751519,-1.1994 -3.54889,-0.8662 -3.002919,0.5566 0.287103,0.7481 -0.558041,1.8072 -1.947321,2.4402 -1.961109,0.8936 -2.565684,0.8288 -3.007253,-0.3219 -0.338369,-0.8817 0.06428,-1.4402 1.038381,-1.4402 1.306658,0 1.366707,-0.2704 0.335936,-1.5124 -0.954667,-1.1503 -1.582438,-1.2406 -2.622445,-0.3775 -1.069776,0.8878 -1.367321,0.7454 -1.367321,-0.6544 0,-0.984 -0.296096,-1.493 -0.657991,-1.1311 -0.361895,0.3619 -1.209342,0.2004 -1.883217,-0.3588 -0.862503,-0.7158 -1.392715,-0.5804 -1.79098,0.4575 -0.341362,0.8895 0.164432,1.706 1.275246,2.0586 2.176137,0.6907 3.389981,4.4119 1.989568,6.0993 -0.678263,0.8172 -0.484637,1.3767 0.623638,1.802 2.817736,1.0813 4.443287,0.6681 4.459049,-1.1332 0.01281,-1.4639 0.166951,-1.5103 0.942797,-0.2836 1.386878,2.1928 -0.642251,3.9785 -4.033236,3.5494 -2.349418,-0.2974 -2.924874,0.01 -2.924874,1.557 0,1.0599 -0.3375,1.8739 -0.75,1.8088 -3.199685,-0.5053 -8.821587,4.1865 -7.898614,6.5917 0.322215,0.8397 1.076525,1.5267 1.676246,1.5267 0.599721,0 0.782594,0.498 0.406385,1.1067 -0.492032,0.7962 -0.888819,0.7754 -1.4137,-0.074 -0.533745,-0.8636 -1.16943,-0.7409 -2.367329,0.457 -0.900706,0.9007 -2.091098,1.3574 -2.645317,1.0149 -0.554219,-0.3425 -1.007671,-0.1792 -1.007671,0.3629 0,0.5422 0.745077,1.1312 1.655726,1.3091 1.524756,0.2977 1.527429,0.4296 0.03379,1.6677 -1.420695,1.1776 -2.59941,0.3669 -9.500181,-6.5339 z m 13.320743,-12.3268 c 0.345464,-0.559 1.047021,-0.7575 1.559017,-0.441 0.511996,0.3164 0.930902,0.1253 0.930902,-0.4247 0,-0.55 -0.45,-1.2781 -1,-1.618 -0.55,-0.3399 -1,-0.1415 -1,0.441 0,0.5824 -0.675,1.059 -1.5,1.059 -0.825,0 -1.5,0.45 -1.5,1 0,1.3017 1.702328,1.2906 2.510081,-0.016 z m 11.200773,-13.6163 c 0.18472,-0.5542 -0.574655,-2.0574 -1.6875,-3.3405 -2.015569,-2.324 -2.023354,-2.3247 -2.023354,-0.1799 0,1.1841 0.435877,2.153 0.968615,2.153 0.532739,0 0.686031,0.7364 0.340651,1.6364 -0.422072,1.0999 -0.186369,1.4893 0.718884,1.1875 0.740768,-0.2469 1.497984,-0.9023 1.682704,-1.4565 z m 5.819756,-2.1174 c -0.07433,-0.9625 -0.56163,-2.4928 -1.082881,-3.4006 -0.83794,-1.4594 -1.167408,-1.3572 -2.844067,0.8821 -1.291904,1.7254 -1.454118,2.3853 -0.508928,2.0702 0.763075,-0.2543 1.98607,0.1362 2.717766,0.8679 1.719977,1.72 1.880328,1.6808 1.71811,-0.4196 z m 5.46939,-2.309 c 0,-0.5176 -0.7875,-0.9055 -1.75,-0.8621 -1.055748,0.048 -1.251634,0.2799 -0.493769,0.5854 0.690926,0.2786 0.958898,0.9876 0.595491,1.5756 -0.390536,0.6319 -0.188613,0.7773 0.49377,0.3556 0.634979,-0.3925 1.154508,-1.137 1.154508,-1.6545 z m 0.988095,-5.941 c 1.014881,0 2.034559,0.5625 2.26595,1.25 0.322608,0.9585 0.833648,0.909 2.191546,-0.2123 1.567845,-1.2946 1.916846,-1.2626 3.044617,0.2798 1.117818,1.5287 1.359302,1.1717 1.972232,-2.9156 0.384148,-2.5617 0.935395,-5.2751 1.224994,-6.0298 0.289599,-0.7547 0.0284,-1.3721 -0.580445,-1.3721 -0.608844,0 -1.135513,1.2375 -1.170375,2.75 -0.06269,2.7199 -0.07367,2.7243 -1.00194,0.4076 -0.516204,-1.2883 -0.686123,-2.7508 -0.377597,-3.25 0.308527,-0.4992 -0.09778,-0.9076 -0.902903,-0.9076 -1.104174,0 -1.354303,0.9214 -1.017979,3.75 0.489084,4.1133 -0.755049,6.9126 -2.57295,5.7891 -0.877397,-0.5423 -0.871006,-1.0658 0.02621,-2.1469 0.936698,-1.1287 0.796364,-1.8609 -0.666401,-3.4773 -1.751346,-1.9352 -1.923451,-1.9511 -3.138013,-0.2901 -0.706773,0.9666 -1.285041,2.823 -1.285041,4.1253 0,1.4827 -0.41563,2.111 -1.111803,1.6808 -0.611492,-0.378 -1.4818,-0.088 -1.934017,0.6432 -1.269241,2.0537 -0.01162,3.1262 1.681006,1.4335 0.829219,-0.8292 2.338028,-1.5076 3.352909,-1.5076 z m -9.698346,-4 c 0.30701,-1.174 0.03068,-2 -0.669083,-2 -0.655652,0 -1.192095,0.9 -1.192095,2 0,1.1 0.301088,2 0.669083,2 0.367996,0 0.904439,-0.9 1.192095,-2 z m 20.071877,-25.5 c -0.316582,-0.825 -0.752459,-1.5 -0.968615,-1.5 -0.216156,0 -0.393011,0.675 -0.393011,1.5 0,0.825 0.435877,1.5 0.968615,1.5 0.532739,0 0.709594,-0.675 0.393011,-1.5 z m 3,-1 c -0.316582,-0.825 -1.032559,-1.5 -1.59106,-1.5 -0.585304,0 -0.488115,0.6354 0.229434,1.5 0.684689,0.825 1.400666,1.5 1.59106,1.5 0.190394,0 0.08715,-0.675 -0.229434,-1.5 z m -2.678512,-15.6875 c -0.319226,-0.7978 -0.556183,-0.5608 -0.604167,0.6041 -0.04342,1.0542 0.192928,1.6448 0.52522,1.3125 0.332291,-0.3323 0.367818,-1.1948 0.07895,-1.9166 z m 14.934216,-12.85712 c 0.0804,-1.59873 -0.486477,-3.43185 -1.259736,-4.0736 -2.204845,-1.82986 -2.913472,-0.10006 -1.187583,2.89896 0.860683,1.49558 1.337921,3.39423 1.060529,4.21923 -0.278603,0.8286 -0.11383,1.13346 0.368126,0.6811 0.479861,-0.4504 0.93826,-2.12696 1.018664,-3.72569 z M 41.060029,1089.5051 c 0.18655,-2.747 -0.365115,-4.0181 -1.452886,-3.3477 -0.6875,0.4237 -0.428306,-0.4861 0.575987,-2.0218 1.004294,-1.5357 1.580917,-3.4307 1.281385,-4.2113 -0.299531,-0.7806 -0.108726,-1.4192 0.424013,-1.4192 0.532738,0 0.968615,0.45 0.968615,1 0,0.55 1.295406,1 2.87868,1 2.231687,0 3.147853,0.6498 4.07632,2.8913 1.81357,4.3784 -0.289956,7.2015 -5.114939,6.8649 -2.019122,-0.1409 -3.655851,-0.4812 -3.637175,-0.7562 z m -9.702886,-6 c 0.339919,-0.55 1.041476,-1 1.559017,-1 0.517541,0 0.940983,0.45 0.940983,1 0,0.55 -0.701558,1 -1.559017,1 -0.857459,0 -1.280902,-0.45 -0.940983,-1 z m 49.619976,-14.7759 c -1.338224,-2.5004 0.439962,-5.2241 3.410662,-5.2241 1.74427,0 2.604525,0.6903 3.044453,2.4431 0.337258,1.3438 0.319273,2.9188 -0.03996,3.5 -1.050869,1.7004 -5.380034,1.2152 -6.41515,-0.719 z m 37.555411,-17.6277 c -0.80149,-2.0886 0.31081,-5.3772 2.04367,-6.0421 1.17761,-0.4519 1.38467,-0.072 0.91511,1.6808 -0.33377,1.2457 -0.61301,3.0524 -0.62052,4.0149 -0.0163,2.0935 -1.579,2.325 -2.33826,0.3464 z M 81.282542,983.62578 c 0.298888,-0.48361 1.562946,-1.13623 2.809017,-1.45027 2.185766,-0.55085 2.197197,-0.51987 0.324454,0.8793 -2.149798,1.60616 -3.979286,1.93952 -3.133471,0.57097 z" />
      <path
         style="fill:#757575"
         id="path3199"
         d="m 72.902824,1097.0601 c -1.577143,-1.9003 -0.976032,-5.5811 1.12666,-6.8988 2.611128,-1.6363 6.827659,0.7025 6.827659,3.7872 0,3.9158 -5.500989,6.0677 -7.954319,3.1116 z m -29.657141,-9.9849 c -0.995668,-2.5947 0.399883,-4.7392 2.856989,-4.3903 1.652733,0.2347 2.254471,0.9874 2.254471,2.8202 0,1.8327 -0.601738,2.5854 -2.254471,2.8201 -1.352279,0.192 -2.495586,-0.3082 -2.856989,-1.25 z m -33.3159601,-9.205 c -2.667054,-3.3906 -2.612645,-5.6027 0.5314781,-21.6086 3.652281,-18.5927 3.716723,-19.6532 1.153591,-18.9829 -1.301884,0.3404 -1.8288861,0.1507 -1.419764,-0.5113 0.357845,-0.579 -0.0074,-1.3053 -0.8116041,-1.6139 -0.804227,-0.3086 -1.716053,-0.1504 -2.026281,0.3516 -0.310228,0.5019 -1.224639,0.6591 -2.032025,0.3493 -0.807386,-0.3098 -1.467975,-0.1009 -1.467975,0.4642 0,0.5652 1.35,1.3241 3,1.6865 1.65,0.3624 3,1.1256 3,1.6961 0,0.5704 -0.927527,0.7946 -2.061172,0.4981 -1.272923,-0.3329 -2.273652,0.015 -2.616783,0.9089 -0.426773,1.1122 -0.876359,1.1817 -1.938828,0.2999 -0.8491835,-0.7047 -1.383217,-0.7559 -1.383217,-0.1325 0,1.461 2.44721,2.1891 4.042938,1.2029 1.665934,-1.0296 2.957062,-0.3424 2.957062,1.5738 0,0.7861 -0.7875,1.322 -1.75,1.191 -0.9625,-0.131 -1.75,0.2087 -1.75,0.755 0,0.5463 0.607658,0.8537 1.350352,0.6831 0.746163,-0.1713 1.05533,0.1673 0.690983,0.7568 -1.016671,1.645 -3.250946,1.264 -4.0057663,-0.6831 -0.6322359,-1.6309 -0.7756392,-1.6179 -2.1069888,0.1911 -1.8274481,2.4831 -1.8282056,3.9262 -0.00169,3.2253 0.7847878,-0.3012 1.9648879,0.1007 2.6224451,0.893 0.743734,0.8962 0.802857,1.4406 0.156443,1.4406 -0.5715112,0 -1.266085,-0.5625 -1.5434973,-1.25 -0.3105593,-0.7697 -0.534724,-0.6002 -0.5833333,0.441 -0.1139509,2.4407 -1.7037893,3.0752 -4.3082807,1.7195 -2.2475148,-1.1699 -2.2459482,-1.1551 0.1536473,1.4538 1.3333727,1.4496 1.8693151,2.6357 1.190983,2.6357 -0.678332,0 -0.9544636,0.4512 -0.6136256,1.0027 0.4121056,0.6668 1.2693699,0.655 2.559017,-0.035 2.4163339,-1.2932 2.5468254,-0.1536 0.1893116,1.6532 -1.5341952,1.1759 -1.5650244,1.4736 -0.25,2.414 1.2480222,0.8926 1.1640296,1.0195 -0.5,0.7553 -1.1,-0.1746 -2,-0.9863 -2,-1.8037 0,-0.8175 -0.5133422,-2.0318 -1.1407605,-2.6985 -0.6274183,-0.6667 -1.6399183,-4.0786 -2.25,-7.5819 -3.7029687,-21.264 2.7066388,-41.6827 17.7963056,-56.69249 9.438965,-9.38901 26.264472,-18.93667 23.164823,-13.14492 -0.55,1.02768 -0.726708,2.14181 -0.392684,2.47583 0.334025,0.33403 0.07134,1.25313 -0.583742,2.04246 -0.921973,1.11091 -0.919942,1.60269 0.009,2.17681 0.867583,0.53619 0.689563,1.11494 -0.642571,2.08902 -1.443498,1.05551 -1.515376,1.34736 -0.331836,1.34736 0.830937,0 2.488969,-1.125 3.684516,-2.5 1.663846,-1.91359 1.823428,-2.5 0.680336,-2.5 -0.821363,0 -1.493387,-0.67881 -1.493387,-1.50847 0,-1.22591 0.352068,-1.28861 1.879473,-0.33473 1.240587,0.77476 1.835461,2.22234 1.75,4.25848 -0.104299,2.48494 0.307637,3.1468 2.118622,3.40402 1.995024,0.28336 2.111822,0.56479 1.037548,2.5 -0.665801,1.19939 -1.128331,2.47804 -1.027845,2.84145 0.100487,0.36341 -1.550294,0.46166 -3.668401,0.21832 -2.909345,-0.33424 -4.003305,-0.0458 -4.473495,1.17949 -0.342315,0.89206 -0.369373,2.03127 -0.06013,2.53167 0.309244,0.5004 -0.278287,0.9098 -1.305625,0.9098 -1.027338,0 -2.741396,0.6983 -3.809017,1.5517 -1.865501,1.4914 -1.843727,1.526 0.55887,0.8877 1.967525,-0.5228 2.249357,-0.4003 1.323216,0.575 -1.386614,1.4601 -6.434422,0.5041 -6.067356,-1.1492 0.134277,-0.6047 -0.43086,-1.2284 -1.25586,-1.3858 -0.825,-0.1574 -2.4,-0.5858 -3.5,-0.9519 -1.366689,-0.4549 -1.208362,-0.18 0.5,0.868 1.375,0.8435 2.05,1.5672 1.5,1.6082 -0.55,0.041 0.574278,0.7572 2.498395,1.5916 2.773831,1.2028 4.367117,1.2983 7.69282,0.4608 2.306934,-0.5809 5.600481,-1.0561 7.318993,-1.0561 2.491995,0 3.027377,0.3543 2.644498,1.75 -0.264037,0.9625 -0.767767,3.4535 -1.119398,5.5357 l -0.63933,3.7857 4.886105,-3.5103 c 6.406865,-4.6029 12.94188,-7.5119 16.936532,-7.5392 2.457315,-0.017 3.081312,-0.3797 2.638125,-1.5347 -0.745377,-1.9424 1.358093,-4.48723 3.709001,-4.48723 1.001468,0 2.512262,0.98713 3.357321,2.19363 1.368595,1.9539 1.372034,2.3753 0.03148,3.8566 -1.336978,1.4774 -1.337673,1.8019 -0.0062,2.9069 0.824322,0.6841 1.786013,2.775 2.137092,4.6464 l 0.638326,3.4026 4.761452,-3.4952 c 12.691297,-9.3163 23.698955,-10.037 27.897785,-1.8267 1.79991,3.5196 1.33042,8.4502 -2.38296,25.0259 -1.925,8.5928 -3.5,17.0911 -3.5,18.8851 0,4.9727 2.40343,6.754 8.18841,6.0689 4.53581,-0.5372 4.81159,-0.4363 4.81159,1.7614 0,2.0335 -0.82457,2.5384 -6.45552,3.9529 -9.240354,2.3211 -13.137624,2.1193 -16.089939,-0.833 -2.840697,-2.8406 -3.02806,-5.541 -0.974579,-14.0454 1.94195,-8.0426 1.876604,-9.1735 -0.566973,-9.8125 -3.114344,-0.8144 -2.080035,-4.1964 1.270854,-4.1554 2.50087,0.031 2.70957,-0.3738 4.28366,-8.2998 2.67121,-13.4503 -0.18526,-18.0424 -9.27515,-14.9107 -3.560978,1.2269 -12.105265,7.2192 -12.256333,8.5957 -0.03517,0.3205 -1.954417,10.4827 -4.264997,22.5827 l -4.201055,22 -5.766818,0.3008 c -5.570586,0.2906 -5.748247,0.2226 -5.221075,-2 0.300159,-1.2654 1.82808,-8.7133 3.395381,-16.5508 2.598589,-12.9946 2.699115,-14.25 1.14106,-14.25 -0.939718,0 -2.493523,-0.8674 -3.452901,-1.9275 -1.536619,-1.6979 -1.581641,-2.2635 -0.378105,-4.75 1.087912,-2.2476 2.031972,-2.82 4.634422,-2.8102 3.243249,0.012 3.26595,-0.021 2.973117,-4.3993 -0.22973,-3.4347 -0.892508,-4.8562 -2.992456,-6.4184 -2.586829,-1.9243 -2.873698,-1.9388 -7,-0.3525 -2.366447,0.9097 -6.55263,3.3607 -9.30263,5.4466 l -5,3.7925 -4.054236,21.9594 -4.054236,21.9594 -5.351119,0.3076 c -3.602862,0.2072 -5.622069,-0.1196 -6.180451,-1 -0.586548,-0.9248 -0.833815,-0.6699 -0.844645,0.8709 -0.03332,4.7402 5.216154,6.5495 12.741289,4.3913 2.998378,-0.8599 3.243398,-0.7536 3.243398,1.4082 0,1.9743 -0.964245,2.664 -6.194172,4.4302 -3.406794,1.1505 -8.549133,2.0918 -11.427419,2.0918 -4.462492,0 -5.5385,-0.3881 -7.3058291,-2.6349 z m 10.6105341,-15.5526 c -0.319226,-0.7978 -0.556183,-0.5608 -0.604167,0.6041 -0.04342,1.0542 0.192928,1.6448 0.52522,1.3125 0.332291,-0.3323 0.367818,-1.1948 0.07895,-1.9166 z m 1,-5 c -0.319226,-0.7978 -0.556183,-0.5608 -0.604167,0.6041 -0.04342,1.0542 0.192928,1.6448 0.52522,1.3125 0.332291,-0.3323 0.367818,-1.1948 0.07895,-1.9166 z m 1,-5 c -0.319226,-0.7978 -0.556183,-0.5608 -0.604167,0.6041 -0.04342,1.0542 0.192928,1.6448 0.52522,1.3125 0.332291,-0.3323 0.367818,-1.1948 0.07895,-1.9166 z m 2,-10 c -0.319226,-0.7978 -0.556183,-0.5608 -0.604167,0.6041 -0.04342,1.0542 0.192928,1.6448 0.52522,1.3125 0.332291,-0.3323 0.367818,-1.1948 0.07895,-1.9166 z m 1,-5 c -0.319226,-0.7978 -0.556183,-0.5608 -0.604167,0.6041 -0.04342,1.0542 0.192928,1.6448 0.52522,1.3125 0.332291,-0.3323 0.367818,-1.1948 0.07895,-1.9166 z m -10.351479,-5.4687 c 0.825022,-5.084 -0.201585,-6.0868 -2.448645,-2.3918 -1.538904,2.5305 -1.65945,3.3871 -0.639634,4.545 1.921629,2.182 2.443863,1.8178 3.088279,-2.1532 z m 11.351479,0.4687 c -0.319226,-0.7978 -0.556183,-0.5608 -0.604167,0.6041 -0.04342,1.0542 0.192928,1.6448 0.52522,1.3125 0.332291,-0.3323 0.367818,-1.1948 0.07895,-1.9166 z m -13.953947,-5.4167 c -0.332292,-0.3323 -1.194792,-0.3678 -1.916667,-0.079 -0.7977331,0.3192 -0.560776,0.5561 0.604167,0.6041 1.054166,0.043 1.644791,-0.1929 1.3125,-0.5252 z m 7.953947,-12.5833 c -0.319226,-0.7978 -0.556183,-0.5608 -0.604167,0.6041 -0.04342,1.0542 0.192928,1.6448 0.52522,1.3125 0.332291,-0.3323 0.367818,-1.1948 0.07895,-1.9166 z m 12.598359,-28.10365 c 0.308236,-0.80325 -0.393145,-1.36467 -1.856158,-1.48575 -1.711557,-0.14165 -2.196431,0.20976 -1.781473,1.29112 0.701353,1.8277 2.964498,1.94878 3.637631,0.19463 z m 48.823486,82.48725 c -1.243385,-2.3233 0.104634,-4.495 2.503385,-4.033 2.271367,0.4374 3.10578,3.7694 1.240049,4.9517 -1.981961,1.2561 -2.669894,1.0872 -3.743434,-0.9187 z m -30.104959,-10.6961 c 0,-0.825 0.675,-1.5 1.5,-1.5 0.825,0 1.5,0.675 1.5,1.5 0,0.825 -0.675,1.5 -1.5,1.5 -0.825,0 -1.5,-0.675 -1.5,-1.5 z m 67.386787,-7.9344 c -0.39636,-1.033 0.0202,-2.3892 1.04227,-3.3932 1.59831,-1.57 1.6593,-1.4888 0.99607,1.3276 -0.90559,3.8454 -1.22941,4.1736 -2.03834,2.0656 z M 41.495517,980.00507 c 0.316582,-0.825 0.752459,-1.5 0.968615,-1.5 0.216156,0 0.393011,0.675 0.393011,1.5 0,0.825 -0.435877,1.5 -0.968615,1.5 -0.532739,0 -0.709594,-0.675 -0.393011,-1.5 z" />
      <path
         style="fill:#a45d5d"
         id="path3197"
         d="m 73.910194,1096.069 c -0.884668,-1.066 -0.907158,-1.968 -0.08726,-3.5 1.432676,-2.677 3.660614,-2.6305 5.125638,0.1069 0.962764,1.799 0.850392,2.3985 -0.655946,3.5 -2.300167,1.6819 -2.91018,1.6671 -4.382431,-0.1069 z m -30.053051,-10.5639 c 0,-1.3334 0.666667,-2 2,-2 1.333333,0 2,0.6666 2,2 0,1.3333 -0.666667,2 -2,2 -1.333333,0 -2,-0.6667 -2,-2 z m -33.9274201,-7.6349 c -2.804654,-3.5655 -2.656187,-5.7749 1.9396601,-28.8651 2.189429,-11 3.98235,-20.505 3.98427,-21.1222 0.0019,-0.6172 -1.79651,-1.41 -3.99651,-1.7618 -3.0801761,-0.4926 -4.0000001,-1.088 -4.0000001,-2.5893 0,-1.989 1.137631,-2.4587 12.0000001,-4.9543 2.475,-0.5686 5.85,-1.155 7.5,-1.3031 4.388523,-0.394 3.209009,-2.1176 -2.240197,-3.2737 -6.9224,-1.4686 -6.952447,-3.9757 -0.06489,-5.4147 2.9178,-0.6096 7.670362,-1.6244 10.56125,-2.2551 2.890887,-0.6308 5.527562,-0.8754 5.859278,-0.5437 0.331716,0.3317 0.175281,3.0864 -0.347634,6.1215 -0.680411,3.9493 -0.640398,5.331 0.140722,4.8593 0.600311,-0.3626 3.231991,-2.1894 5.848177,-4.0597 5.295906,-3.7859 13.466507,-7.2032 17.222636,-7.2032 1.643317,0 2.287502,-0.444 1.943764,-1.3398 -0.282768,-0.7369 0.20394,-1.9357 1.081573,-2.6641 1.341778,-1.1136 1.866185,-1.0498 3.295509,0.4009 1.599882,1.6238 1.597479,1.8012 -0.04088,3.0175 -1.642922,1.2198 -1.630994,1.3916 0.212355,3.0598 1.074176,0.9721 2.454885,3.2881 3.068244,5.1466 0.613358,1.8585 1.352839,3.3791 1.643289,3.3791 0.290451,0 1.894702,-1.15 3.565004,-2.5554 8.672467,-7.2974 21.037697,-10.2048 25.653357,-6.0318 3.98463,3.6025 4.4761,8.0308 2.11838,19.0872 -6.66857,31.2719 -6.3879,29.2894 -4.54497,32.1021 1.52507,2.3276 2.20456,2.5413 7.10702,2.2357 4.53186,-0.2824 5.42051,-0.064 5.41937,1.3318 -0.003,3.0665 -14.13375,6.6018 -19.417897,4.8579 -5.257241,-1.735 -6.006838,-5.1667 -3.568734,-16.3377 1.091901,-5.0029 1.985274,-9.2298 1.985274,-9.393 0,-0.1633 -0.9,-0.2968 -2,-0.2968 -1.1,0 -2,-0.6485 -2,-1.441 0,-2.2868 2.015408,-2.9202 3.375084,-1.0607 1.059936,1.4495 1.489976,0.5446 2.933466,-6.1728 2.10169,-9.7803 2.13686,-14.2446 0.13475,-17.103 -2.998652,-4.2812 -12.734576,-1.7262 -19.116044,5.0166 -2.83712,2.9978 -3.34459,4.6727 -6.290075,20.7609 -1.762187,9.625 -3.653736,19.6375 -4.203443,22.25 l -0.999466,4.75 -4.917136,0 c -3.450428,0 -4.917136,-0.4009 -4.917136,-1.344 0,-0.7392 1.35,-8.0094 3,-16.156 1.65,-8.1466 3,-15.3644 3,-16.0394 0,-0.6751 -0.935599,-1.472 -2.079108,-1.7711 -1.494536,-0.3908 -1.986575,-1.1968 -1.75,-2.8666 0.254999,-1.7998 0.948359,-2.3141 3.079108,-2.2835 2.679284,0.038 2.75,-0.1055 2.75,-5.595 0,-11.2508 -6.779757,-12.0286 -20.140311,-2.3104 l -4.640312,3.3753 -2.652948,14.2453 c -1.459122,7.835 -3.370063,17.9579 -4.246536,22.4954 l -1.593588,8.25 -4.696486,0 c -2.583067,0 -4.943668,-0.2472 -5.245779,-0.5493 -0.302112,-0.3021 -0.121009,-2.4396 0.40245,-4.75 1.873493,-8.269 2.575629,-12.8614 1.840509,-12.0379 -1.234379,1.3827 -4.12226,17.9253 -3.439755,19.7039 0.899697,2.3446 5.023271,3.108 10.608162,1.964 4.599872,-0.9423 4.804594,-0.889 4.804594,1.2507 0,1.8476 -1.073575,2.5975 -6.194172,4.3268 -3.406794,1.1505 -8.549133,2.0918 -11.427419,2.0918 -4.462492,0 -5.5385,-0.3881 -7.3058291,-2.6349 z m 18.8807121,-53.7818 c 0.02569,-0.5042 -0.171695,-0.6983 -0.438632,-0.4313 -0.671646,0.6716 -4.538058,19.6888 -4.413491,21.708 0.0889,1.4412 4.731986,-18.9189 4.852123,-21.2767 z m 53.382541,43.8495 c -0.330769,-0.862 -0.08843,-2.0802 0.538527,-2.7072 1.407437,-1.4074 4.741721,1.4685 3.684947,3.1784 -0.998097,1.615 -3.531389,1.3323 -4.223474,-0.4712 z m 37.664164,-18.8738 c 0,-0.7926 0.40803,-1.6932 0.90674,-2.0014 0.49871,-0.3082 0.67122,0.3402 0.38337,1.441 -0.61061,2.335 -1.29011,2.6301 -1.29011,0.5604 z m -96.825683,-47.8735 c -6.124971,-6.51971 2.124222,-16.17154 9.118967,-10.66947 3.516488,2.76606 3.695757,7.70616 0.392268,10.80967 -3.002611,2.8208 -6.781885,2.7651 -9.511235,-0.1402 z" />
      <path
         style="fill:#fa0303"
         id="path3195"
         d="m 73.910194,1096.069 c -0.884668,-1.066 -0.907158,-1.968 -0.08726,-3.5 1.432676,-2.677 3.660614,-2.6305 5.125638,0.1069 0.962764,1.799 0.850392,2.3985 -0.655946,3.5 -2.300167,1.6819 -2.91018,1.6671 -4.382431,-0.1069 z m -30.053051,-10.5639 c 0,-1.3334 0.666667,-2 2,-2 1.333333,0 2,0.6666 2,2 0,1.3333 -0.666667,2 -2,2 -1.333333,0 -2,-0.6667 -2,-2 z m -32.174994,-6.0381 c -0.921247,-0.5376 -2.1758921,-2.4951 -2.7881021,-4.3501 -0.938572,-2.8439 -0.471934,-6.6451 2.9759911,-24.2423 2.249005,-11.4782 4.300553,-21.5911 4.558996,-22.473 0.354739,-1.2106 -0.573492,-1.8237 -3.78762,-2.5017 -2.6815291,-0.5657 -4.3754061,-1.5103 -4.5759921,-2.5518 -0.256704,-1.333 1.486343,-2.0506 8.9866231,-3.6997 5.117804,-1.1253 10.116368,-2.1804 11.107919,-2.3446 3.370985,-0.5585 1.814364,-2.2726 -2.989339,-3.2917 -6.974573,-1.4796 -7.02926,-3.9822 -0.118573,-5.4261 2.9178,-0.6096 7.670362,-1.6244 10.56125,-2.2551 2.890887,-0.6308 5.527562,-0.8754 5.859278,-0.5437 0.331716,0.3317 0.175281,3.0864 -0.347634,6.1215 -0.680411,3.9493 -0.640398,5.331 0.140722,4.8593 0.600311,-0.3626 3.231991,-2.1894 5.848177,-4.0597 5.29591,-3.7859 13.466511,-7.2032 17.22264,-7.2032 1.643317,0 2.287502,-0.444 1.943764,-1.3398 -0.282768,-0.7369 0.20394,-1.9357 1.081573,-2.6641 1.341778,-1.1136 1.866185,-1.0498 3.295509,0.4009 1.599882,1.6238 1.597479,1.8012 -0.04088,3.0175 -1.642922,1.2198 -1.630994,1.3916 0.212355,3.0598 1.074176,0.9721 2.454885,3.2881 3.068244,5.1466 0.613358,1.8585 1.352839,3.3791 1.643289,3.3791 0.290451,0 1.894702,-1.15 3.565004,-2.5554 8.672467,-7.2974 21.037697,-10.2048 25.653357,-6.0318 3.98463,3.6025 4.4761,8.0308 2.11838,19.0872 -6.66857,31.2719 -6.3879,29.2894 -4.54497,32.1021 1.52507,2.3276 2.20456,2.5413 7.10702,2.2357 4.53186,-0.2824 5.42051,-0.064 5.41937,1.3318 -0.003,3.0665 -14.13375,6.6018 -19.417897,4.8579 -5.257241,-1.735 -6.006838,-5.1667 -3.568734,-16.3377 1.091901,-5.0029 1.985274,-9.2298 1.985274,-9.393 0,-0.1633 -0.9,-0.2968 -2,-0.2968 -1.1,0 -2,-0.6485 -2,-1.441 0,-2.2868 2.015408,-2.9202 3.375084,-1.0607 1.059936,1.4495 1.489976,0.5446 2.933466,-6.1728 2.10169,-9.7803 2.13686,-14.2446 0.13475,-17.103 -2.998652,-4.2812 -12.734576,-1.7262 -19.116044,5.0166 -2.83712,2.9978 -3.34459,4.6727 -6.290075,20.7609 -1.762187,9.625 -3.653736,19.6375 -4.203443,22.25 l -0.999466,4.75 -4.917136,0 c -3.450428,0 -4.917136,-0.4009 -4.917136,-1.344 0,-0.7392 1.35,-8.0094 3,-16.156 1.65,-8.1466 3,-15.3644 3,-16.0394 0,-0.6751 -0.935599,-1.472 -2.079108,-1.7711 -1.494536,-0.3908 -1.986575,-1.1968 -1.75,-2.8666 0.254999,-1.7998 0.948359,-2.3141 3.079108,-2.2835 2.679284,0.038 2.75,-0.1055 2.75,-5.595 0,-11.2508 -6.779757,-12.0286 -20.140311,-2.3104 l -4.640312,3.3753 -2.652948,14.2453 c -1.459122,7.835 -3.370063,17.9579 -4.246536,22.4954 l -1.593588,8.25 -4.696486,0 c -2.583067,0 -4.943668,-0.2472 -5.245779,-0.5493 -0.302112,-0.3021 -0.121009,-2.4396 0.40245,-4.75 1.963366,-8.6657 2.532144,-12.7007 1.790297,-12.7007 -0.420751,0 -1.576543,4.3088 -2.568427,9.575 -2.34121,12.4304 -2.039798,12.9468 7.50577,12.8594 9.40102,-0.086 9.436481,2.0943 0.08587,5.2802 -6.906656,2.3531 -13.418986,2.8553 -16.174994,1.2473 z m 14.542828,-42.2119 c 0.965589,-5.0875 2.01094,-10.375 2.323,-11.75 0.375067,-1.6526 0.23206,-2.1611 -0.421909,-1.5 -0.54411,0.55 -1.753171,5.05 -2.686802,10 -0.933632,4.95 -1.926874,9.7875 -2.207205,10.75 -0.280331,0.9625 -0.11662,1.75 0.363802,1.75 0.480423,0 1.663524,-4.1625 2.629114,-9.25 z m 55.967999,30.6828 c -0.330769,-0.862 -0.08843,-2.0802 0.538527,-2.7072 1.407437,-1.4074 4.741721,1.4685 3.684947,3.1784 -0.998097,1.615 -3.531389,1.3323 -4.223474,-0.4712 z m 37.664164,-18.8738 c 0,-0.7926 0.40803,-1.6932 0.90674,-2.0014 0.49871,-0.3082 0.67122,0.3402 0.38337,1.441 -0.61061,2.335 -1.29011,2.6301 -1.29011,0.5604 z m -94.684625,-46.5753 c -4.409991,-1.758 -5.651512,-7.64759 -2.315372,-10.98373 5.970111,-5.97011 15.756468,2.43405 10.25,8.80233 -2.177263,2.518 -5.084928,3.3174 -7.934628,2.1814 z" />
      <path
         style="fill:#040404"
         id="path3193"
         d="m 73.910194,1096.069 c -0.884668,-1.066 -0.907158,-1.968 -0.08726,-3.5 1.432676,-2.677 3.660614,-2.6305 5.125638,0.1069 0.962764,1.799 0.850392,2.3985 -0.655946,3.5 -2.300167,1.6819 -2.91018,1.6671 -4.382431,-0.1069 z m -30.053051,-10.5639 c 0,-1.3334 0.666667,-2 2,-2 1.333333,0 2,0.6666 2,2 0,1.3333 -0.666667,2 -2,2 -1.333333,0 -2,-0.6667 -2,-2 z m 38.335833,-17.5672 c -0.330769,-0.862 -0.08843,-2.0802 0.538527,-2.7072 1.407437,-1.4074 4.741721,1.4685 3.684947,3.1784 -0.998097,1.615 -3.531389,1.3323 -4.223474,-0.4712 z m -61.516379,0.053 c -0.282633,-0.2826 0.253793,-4.2201 1.192057,-8.75 0.938265,-4.5299 1.34479,-8.3777 0.90339,-8.5507 -0.831017,-0.3258 -0.05519,-3.3054 1.089777,-4.1854 1.133533,-0.8712 4.892957,-21.6755 4.315728,-23.8828 -0.304009,-1.1625 0.16953,-3.216 1.05231,-4.5633 1.857943,-2.8356 1.605771,-3.0785 -4.192344,-4.0382 -3.740198,-0.6191 -6.329027,-2.7004 -5.005371,-4.0241 0.844716,-0.8447 20.889732,-4.7602 21.458367,-4.1916 0.321854,0.3219 0.15735,3.0685 -0.365565,6.1036 -0.680411,3.9493 -0.640398,5.331 0.140722,4.8593 0.600311,-0.3626 3.231991,-2.1894 5.848177,-4.0597 5.29591,-3.7859 13.466511,-7.2032 17.22264,-7.2032 1.643317,0 2.287502,-0.444 1.943764,-1.3398 -0.282768,-0.7369 0.20394,-1.9357 1.081573,-2.6641 1.341778,-1.1136 1.866185,-1.0498 3.295509,0.4009 1.599882,1.6238 1.597479,1.8012 -0.04088,3.0175 -1.642922,1.2198 -1.630994,1.3916 0.212355,3.0598 1.074176,0.9721 2.454885,3.2881 3.068244,5.1466 0.613358,1.8585 1.352839,3.3791 1.643289,3.3791 0.290451,0 1.894702,-1.15 3.565004,-2.5554 8.672467,-7.2974 21.037697,-10.2048 25.653357,-6.0318 3.98463,3.6025 4.4761,8.0308 2.11838,19.0872 -6.66857,31.2719 -6.3879,29.2894 -4.54497,32.1021 1.52507,2.3276 2.20456,2.5413 7.10702,2.2357 4.53186,-0.2824 5.42051,-0.064 5.41937,1.3318 -0.003,3.0665 -14.13375,6.6018 -19.417897,4.8579 -5.257241,-1.735 -6.006838,-5.1667 -3.568734,-16.3377 1.091901,-5.0029 1.985274,-9.2298 1.985274,-9.393 0,-0.1633 -0.9,-0.2968 -2,-0.2968 -1.1,0 -2,-0.6485 -2,-1.441 0,-2.2868 2.015408,-2.9202 3.375084,-1.0607 1.059936,1.4495 1.489976,0.5446 2.933466,-6.1728 2.10169,-9.7803 2.13686,-14.2446 0.13475,-17.103 -2.998652,-4.2812 -12.734576,-1.7262 -19.116044,5.0166 -2.83712,2.9978 -3.34459,4.6727 -6.290075,20.7609 -1.762187,9.625 -3.653736,19.6375 -4.203443,22.25 l -0.999466,4.75 -4.917136,0 c -3.450428,0 -4.917136,-0.4009 -4.917136,-1.344 0,-0.7392 1.35,-8.0094 3,-16.156 1.65,-8.1466 3,-15.3644 3,-16.0394 0,-0.6751 -0.935599,-1.472 -2.079108,-1.7711 -1.494536,-0.3908 -1.986575,-1.1968 -1.75,-2.8666 0.254999,-1.7998 0.948359,-2.3141 3.079108,-2.2835 2.679284,0.038 2.75,-0.1055 2.75,-5.595 0,-11.2405 -6.781138,-12.0272 -20.109599,-2.3329 -5.168537,3.7592 -4.228701,0.6912 -10.457711,34.1385 l -2.653828,14.25 -4.722765,0 c -2.59752,0 -4.954009,-0.2313 -5.236643,-0.5139 z m 99.180543,-18.9271 c 0,-0.7926 0.40803,-1.6932 0.90674,-2.0014 0.49871,-0.3082 0.67122,0.3402 0.38337,1.441 -0.61061,2.335 -1.29011,2.6301 -1.29011,0.5604 z" />
    </g>
  </g>
  <g
     id="g8626">
    <path
       d="m 5.5396657,33.53642 v 24.4517 h 0.1012319 c -0.065195,0.1966 -0.1012319,0.3826 -0.1012319,0.584 0,2.9465 7.1575713,5.3324 15.9977033,5.3324 8.840187,0 15.997811,-2.3859 15.997811,-5.3324 0,-0.202 -0.03181,-0.388 -0.101775,-0.584 H 37.53518 V 33.53642 H 5.5403549 z"
       id="path6169"
       style="opacity:1;fill:#ffffff;fill-opacity:1" />
    <path
       d="m 37.537548,33.329309 a 16.005607,5.3352028 0 0 1 -32.011213,0 16.005607,5.3352028 0 1 1 32.011213,0 z"
       id="path6171"
       style="opacity:1;fill:#ffffff;fill-opacity:1" />
    <path
       style="opacity:0.49137932;fill:#565656"
       id="path6026"
       d="m 5.5152311,51.07962 c 0.119787,2.9122 7.2576419,5.2563 16.0229859,5.2563 8.739903,0 15.83848,-2.3303 15.997704,-5.2308 -1.982088,2.8693 -8.953244,4.6179 -16.046044,4.6179 -7.106793,0 -14.1936543,-1.6693 -15.9746459,-4.6434 z" />
    <path
       style="opacity:0.49137932;fill:url(#linearGradient6157)"
       id="path6030"
       d="m 5.5152311,33.40652 c 0.119787,2.9123 7.2576419,5.2561 16.0229859,5.2561 8.739903,0 15.83848,-2.33 15.997704,-5.2306 -0.174914,0.1494 -0.358307,0.2882 -0.558663,0.4319 -0.0106,0.013 -0.0212,0.016 -0.02651,0.027 -1.86246,2.2568 -8.047193,3.9105 -15.413494,3.9105 -7.412201,0 -13.6396558,-1.6826 -15.4638975,-3.9613 -0.021206,-0.016 -0.026507,-0.037 -0.053002,-0.053 -0.1775598,-0.1293 -0.3503534,-0.246 -0.5077753,-0.3816 z" />
    <g
       id="g6163">
      <path
         d="m 5.5396657,33.53642 v 24.4517 h 0.1012319 c -0.065195,0.1966 -0.1012319,0.3826 -0.1012319,0.584 0,2.9465 7.1575713,5.3324 15.9977033,5.3324 8.840187,0 15.997811,-2.3859 15.997811,-5.3324 0,-0.202 -0.03181,-0.388 -0.101775,-0.584 H 37.53518 V 33.53642 H 5.5403549 z"
         id="path5488"
         style="opacity:0.49137932;fill:url(#linearGradient6161)" />
      <path
         d="m 37.537548,33.329309 a 16.005606,5.3352026 0 0 1 -32.011213,0 16.005606,5.3352026 0 1 1 32.011213,0 z"
         id="path5460"
         style="opacity:0.49137932;fill:url(#linearGradient6154);fill-opacity:1" />
    </g>
    <g
       style="opacity:0.49137932"
       id="g6067"
       transform="matrix(0.81256321,0,0,0.81256321,-228.8117,-387.39013)">
      <path
         style="fill:#565656"
         id="path6022"
         d="m 288.38,529.09 c 0.14735,3.584 8.9318,6.4688 19.719,6.4688 10.756,0 19.492,-2.8677 19.688,-6.4375 -2.67754,4.00753 -13.04173,5.59646 -19.74754,5.62369 -8.92332,0.0362 -17.4677,-2.35208 -19.65946,-5.65489 z" />
      <path
         style="fill:url(#linearGradient5717)"
         id="path6043"
         d="m 288.38,529.09 c 0.14735,3.584 8.9318,6.4688 19.719,6.4688 10.756,0 19.492,-2.8677 19.688,-6.4375 -0.0497,0.0422 -0.10543,0.0838 -0.15625,0.125 -1.2422,3.2268 -9.27246,6.01648 -19.531,6.01648 -10.113,0 -17.57497,-2.57074 -19.594,-6.07888 -0.0401,-0.0317 -0.0863,-0.0607 -0.125,-0.0937 z" />
    </g>
    <path
       style="opacity:0.49137932;fill:url(#linearGradient6148);fill-opacity:1"
       id="path6054"
       d="m 5.5152311,51.07962 c 0.119787,2.9122 7.2576419,5.2563 16.0229859,5.2563 8.739903,0 15.83848,-2.3303 15.997704,-5.2308 -0.0371,0.031 -0.08587,0.068 -0.12721,0.1023 -1.009357,2.6219 -7.921466,4.8402 -16.063694,4.8402 -8.217387,0 -14.8129021,-2.234 -15.7279127,-4.891 -0.031809,-0.027 -0.069966,-0.048 -0.1017621,-0.076 z" />
    <path
       style="opacity:0.49137932;fill:none;stroke:none"
       id="path4606"
       d="m 5.3922079,43.47602 c 9.5496471,3.968 11.6876741,3.968 16.9613191,3.6943 5.273698,-0.2734 8.836953,-0.9579 11.830148,-2.0524 2.993196,-1.0946 1.995446,-0.5472 3.135725,-0.9577" />
    <path
       style="opacity:0.49137932;fill:#ffffff;fill-opacity:1;stroke:#8fafb2;stroke-width:1.38736308;stroke-opacity:1"
       id="path2985-2-3-5"
       d="m 33.364656,33.15052 c 0,2.2468 -5.383946,4.0681 -12.02547,4.0681 -6.641415,0 -12.0255744,-1.8213 -12.0255744,-4.0681 0,-2.2464 5.3841064,-4.0677 12.0255744,-4.0677 6.641418,0 12.02547,1.8211 12.02547,4.0677 z" />
    <path
       style="opacity:0.49137932;fill:#1781a9;fill-opacity:1;stroke:none"
       id="path2987-3-5-2-9"
       d="m 14.29319,33.18282 h 4.484309 c -0.0049,-0.016 -0.02121,-0.053 -0.02121,-0.072 v -1.9712 c 0,-0.3128 0.324385,-0.5648 1.259537,-0.5648 h 2.797558 c 0.935469,0 1.348742,0.2518 1.348742,0.5648 v 1.9712 c 0,0.015 -0.0049,0.053 -0.0212,0.072 h 4.402311 l -7.13213,2.6826 z" />
  </g>
</svg>
