<?xml version="1.0" encoding="UTF-8" standalone="no"?>
<!-- Created with Inkscape (http://www.inkscape.org/) -->

<svg
   xmlns:dc="http://purl.org/dc/elements/1.1/"
   xmlns:cc="http://creativecommons.org/ns#"
   xmlns:rdf="http://www.w3.org/1999/02/22-rdf-syntax-ns#"
   xmlns:svg="http://www.w3.org/2000/svg"
   xmlns="http://www.w3.org/2000/svg"
   xmlns:sodipodi="http://sodipodi.sourceforge.net/DTD/sodipodi-0.dtd"
   xmlns:inkscape="http://www.inkscape.org/namespaces/inkscape"
   version="1.1"
   width="64"
   height="64"
   id="svg3037"
   inkscape:version="0.48.5 r10040"
   sodipodi:docname="MDLMolDataFile.svg">
  <sodipodi:namedview
     pagecolor="#ffffff"
     bordercolor="#666666"
     borderopacity="1"
     objecttolerance="10"
     gridtolerance="10"
     guidetolerance="10"
     inkscape:pageopacity="0"
     inkscape:pageshadow="2"
     inkscape:window-width="640"
     inkscape:window-height="480"
     id="namedview11"
     showgrid="false"
     inkscape:zoom="3.6875"
     inkscape:cx="32"
     inkscape:cy="32"
     inkscape:window-x="0"
     inkscape:window-y="0"
     inkscape:window-maximized="0"
     inkscape:current-layer="svg3037" />
  <defs
     id="defs3039" />
  <metadata
     id="metadata3042">
    <rdf:RDF>
      <cc:Work
         rdf:about="">
        <dc:format>image/svg+xml</dc:format>
        <dc:type
           rdf:resource="http://purl.org/dc/dcmitype/StillImage" />
        <dc:title />
      </cc:Work>
    </rdf:RDF>
  </metadata>
  <path
     style="fill:#000000"
     d="m 39.854859,46.296763 c -0.781019,-2.415933 -1.423962,-4.620933 -1.428763,-4.9 -0.0051,-0.298381 -2.300157,-1.234957 -5.571322,-2.273601 l -5.562593,-1.766206 -5.354514,3.066206 c -2.944983,1.686413 -5.664946,3.066206 -6.044362,3.066206 -0.792555,0 -11.1048944,-5.83485 -11.5507124,-6.535537 -0.162536,-0.255454 -0.298275,-3.286605 -0.301644,-6.735891 -0.0047,-4.805305 0.12292,-6.400474 0.545871,-6.823425 0.696314,-0.696315 10.2360434,-6.192076 11.0602304,-6.37171 0.336724,-0.07339 3.105242,1.294141 6.152261,3.038959 l 5.540036,3.172396 5.662273,-1.872396 c 3.114251,-1.029818 6.015734,-1.863309 6.44774,-1.852203 0.523654,0.01346 1.685426,1.279956 3.485465,3.799644 1.485,2.078699 2.7,3.959612 2.7,4.179807 0,1.004316 -0.872464,0.122123 -3.386083,-3.423842 -1.490966,-2.103308 -2.914039,-3.747061 -3.162383,-3.652784 -0.248344,0.09428 -2.926534,0.945328 -5.951534,1.891225 l -5.5,1.719812 0,6.252601 0,6.2526 5.328318,1.66542 c 2.930576,0.91598 5.597113,1.768565 5.925639,1.894632 0.416824,0.15995 1.427971,-0.923374 3.346194,-3.585047 2.558913,-3.550677 3.399849,-4.396189 3.399849,-3.41835 0,0.217751 -1.155252,1.971241 -2.56723,3.896646 -1.411977,1.925405 -2.390091,3.610213 -2.173589,3.744019 0.466675,0.288421 3.205875,8.831702 2.922524,9.115052 -0.410843,0.410843 -0.936557,-0.68982 -2.221777,-4.651628 -0.774671,-2.387995 -1.545068,-4.1 -1.844989,-4.1 -0.653401,0 -0.737487,-0.418024 0.885061,4.4 1.476557,4.384519 1.636523,5.2 1.020034,5.2 -0.208981,0 -1.018981,-1.976672 -1.8,-4.392605 z m -18.356714,-6.695433 5.336679,-3.088037 0,-6.239428 0,-6.23943 -5.449696,-3.137032 -5.449696,-3.137031 -1.717819,0.938398 c -0.9448,0.516119 -3.397436,1.94196 -5.4503044,3.168536 l -3.732485,2.230139 -0.110332,6.079971 -0.110333,6.07997 1.087408,0.712497 c 2.230151,1.461251 9.5465024,5.671484 9.8965784,5.695039 0.199827,0.01344 2.764827,-1.365171 5.7,-3.063592 z M 11.04387,38.281748 C 7.4840176,36.196205 5.7692046,34.766591 7.2887566,35.151167 c 1.046786,0.264926 8.7460674,4.825302 8.7460674,5.1804 0,0.692362 -1.03786,0.266105 -4.990954,-2.049819 z m 13.390954,-7.992379 c 0,-3.2 0.153846,-5.200001 0.4,-5.200001 0.246154,0 0.4,2.000001 0.4,5.200001 0,3.2 -0.153846,5.199999 -0.4,5.199999 -0.246154,0 -0.4,-1.999999 -0.4,-5.199999 z M 6.8348236,25.133013 c 0,-0.392766 8.1307164,-5.243645 8.7890454,-5.243645 1.126159,0 0.0228,0.885738 -3.901257,3.131782 -4.4136444,2.526277 -4.8877884,2.73114 -4.8877884,2.111863 z m 43.6000014,5.156356 c 0,-0.245334 1.933332,-0.4 5,-0.4 3.066668,0 5,0.154666 5,0.4 0,0.245333 -1.933332,0.4 -5,0.4 -3.066668,0 -5,-0.154667 -5,-0.4 z"
     id="path2993"
     inkscape:connector-curvature="0" />
  <text
     sodipodi:linespacing="125%"
     style="font-size:6.4000001px;font-style:normal;font-weight:normal;line-height:125%;letter-spacing:0px;word-spacing:0px;fill:#0000ff;fill-opacity:1;stroke:none;font-family:Sans"
     xml:space="preserve"
     id="text3087"
     y="32.331001"
     x="45.145454"><tspan
       id="tspan3089"
       y="32.331001"
       x="45.145454">N</tspan></text>
  <text
     sodipodi:linespacing="125%"
     style="font-size:6.4000001px;font-style:normal;font-weight:normal;line-height:125%;letter-spacing:0px;word-spacing:0px;fill:#ff0000;fill-opacity:1;stroke:none;font-family:Sans"
     xml:space="preserve"
     id="text3091"
     y="55.240093"
     x="41.50909"><tspan
       id="tspan3093"
       y="55.240093"
       x="41.50909">O</tspan></text>
</svg>
