<?xml version="1.0" encoding="UTF-8" standalone="no"?>
<!-- Created with Inkscape (http://www.inkscape.org/) -->

<svg
   xmlns:dc="http://purl.org/dc/elements/1.1/"
   xmlns:cc="http://creativecommons.org/ns#"
   xmlns:rdf="http://www.w3.org/1999/02/22-rdf-syntax-ns#"
   xmlns:svg="http://www.w3.org/2000/svg"
   xmlns="http://www.w3.org/2000/svg"
   xmlns:sodipodi="http://sodipodi.sourceforge.net/DTD/sodipodi-0.dtd"
   xmlns:inkscape="http://www.inkscape.org/namespaces/inkscape"
   width="60"
   height="60"
   id="svg2"
   version="1.1"
   inkscape:version="0.48.2 r9819"
   sodipodi:docname="New document 1">
  <defs
     id="defs4" />
  <sodipodi:namedview
     id="base"
     pagecolor="#ffffff"
     bordercolor="#666666"
     borderopacity="1.0"
     inkscape:pageopacity="0.0"
     inkscape:pageshadow="2"
     inkscape:zoom="2.8"
     inkscape:cx="27.489925"
     inkscape:cy="38.238114"
     inkscape:document-units="px"
     inkscape:current-layer="layer1"
     showgrid="false"
     fit-margin-top="0"
     fit-margin-left="0"
     fit-margin-right="0"
     fit-margin-bottom="0"
     inkscape:window-width="1366"
     inkscape:window-height="720"
     inkscape:window-x="0"
     inkscape:window-y="0"
     inkscape:window-maximized="1" />
  <metadata
     id="metadata7">
    <rdf:RDF>
      <cc:Work
         rdf:about="">
        <dc:format>image/svg+xml</dc:format>
        <dc:type
           rdf:resource="http://purl.org/dc/dcmitype/StillImage" />
        <dc:title></dc:title>
      </cc:Work>
    </rdf:RDF>
  </metadata>
  <g
     inkscape:label="Layer 1"
     inkscape:groupmode="layer"
     id="layer1"
     transform="translate(-361.79579,-324.88601)">
    <g
       id="g3066"
       transform="translate(248.57143,-48.571429)">
      <path
         style="fill:#fed9fe"
         d="m 154.19046,432.29077 c 0,-0.64167 0.525,-1.16667 1.16667,-1.16667 0.64167,0 1.16667,0.525 1.16667,1.16667 0,0.64167 -0.525,1.16667 -1.16667,1.16667 -0.64167,0 -1.16667,-0.525 -1.16667,-1.16667 z m -40.79062,-1.4309 c -0.31644,-0.512 -0.19299,-1.1672 0.27431,-1.45601 0.46731,-0.28881 0.84965,0.13009 0.84965,0.9309 0,1.68617 -0.31534,1.83349 -1.12396,0.52511 z m 54.45729,0.38668 c 0,-0.11599 0.6,-0.70885 1.33333,-1.31746 0.99637,-0.82691 1.33334,-0.77361 1.33334,0.21089 0,0.7246 -0.6,1.31746 -1.33334,1.31746 -0.73333,0 -1.33333,-0.0949 -1.33333,-0.21089 z m -42.99086,-2.94477 c -0.67966,-0.81894 -1.60311,-1.26195 -2.0521,-0.98446 -0.44899,0.27749 -1.37974,-1.0535 -2.06833,-2.95777 -0.68859,-1.90426 -1.54525,-3.28105 -1.90368,-3.05953 -0.35843,0.22153 -0.6517,-0.23264 -0.6517,-1.00925 0,-0.77661 0.33095,-1.20749 0.73544,-0.9575 0.40449,0.24999 1.66431,-1.11981 2.79961,-3.04399 1.13529,-1.92418 2.64185,-3.51265 3.34789,-3.52994 1.53771,-0.0376 5.23525,-4.85038 4.382,-5.70363 -0.32905,-0.32905 -0.59827,-0.12142 -0.59827,0.4614 0,0.58283 -0.585,1.28417 -1.3,1.55854 -0.82955,0.31833 -1.3,-0.31628 -1.3,-1.75363 0,-1.85708 0.49153,-2.21067 2.8,-2.01423 1.54,0.13104 2.8,-0.1747 2.8,-0.67944 0,-0.50473 1.81613,-2.64533 4.03584,-4.75689 3.10818,-2.95674 3.68557,-3.97361 2.512,-4.42396 -0.83812,-0.32161 -1.47596,-0.26345 -1.41742,0.12926 0.28631,1.9209 -0.28215,3.05826 -1.82435,3.65006 -1.4847,0.56973 -1.46556,0.39766 0.15498,-1.39302 1.01691,-1.12366 1.48444,-2.04303 1.03895,-2.04303 -0.44549,0 0.003,-0.89841 0.9968,-1.99647 1.47344,-1.62813 2.10165,-1.77208 3.40499,-0.78026 0.87902,0.66891 0.58571,0.0758 -0.65179,-1.31798 -1.2375,-1.39381 -2.25,-3.09425 -2.25,-3.77876 0,-0.70961 -0.53729,-0.9378 -1.25,-0.53089 -0.6875,0.39253 0.0459,-0.67905 1.6299,-2.38128 1.58394,-1.70223 2.63807,-3.72514 2.34252,-4.49535 -0.29556,-0.77021 -0.12078,-2.03457 0.3884,-2.80969 0.77296,-1.1767 1.09602,-1.12046 1.95717,0.34068 0.56726,0.9625 1.48559,1.75 2.04072,1.75 0.55727,0 0.65958,-0.55985 0.22843,-1.25 -0.4295,-0.6875 -0.86992,-1.83761 -0.97873,-2.55581 -0.15396,-1.01628 0.11696,-1.04456 1.22188,-0.12755 0.78084,0.64804 1.41971,1.79714 1.41971,2.55356 0,1.00638 1.0903,1.26919 4.06451,0.97971 4.95987,-0.48274 5.62622,-1.05156 3.82799,-3.2677 -0.76847,-0.94707 -0.8633,-1.39873 -0.2116,-1.00786 0.6495,0.38955 1.47706,0.22908 1.83903,-0.3566 0.46294,-0.74905 1.05018,-0.73949 1.98007,0.0323 0.91431,0.75881 1.52177,0.77379 1.96999,0.0486 0.35642,-0.57671 1.32304,-1.04856 2.14804,-1.04856 0.825,0 1.26824,0.375 0.98498,0.83333 -0.28327,0.45834 0.12038,0.83334 0.89699,0.83334 0.77661,0 1.16181,-0.40485 0.856,-0.89966 -0.30581,-0.49482 1.1361,-0.75732 3.20425,-0.58334 2.67428,0.22497 3.83304,0.82312 4.01223,2.07109 0.13857,0.96512 -0.0836,1.54742 -0.4936,1.29399 -0.41005,-0.25342 -0.74555,0.17464 -0.74555,0.95125 0,0.77661 0.375,1.18026 0.83334,0.89699 0.45833,-0.28326 0.83333,0.59672 0.83333,1.95551 0,2.55881 -1.60162,2.96116 -4.14912,1.04232 -1.73391,-1.30603 -6.41165,-1.12826 -6.15644,0.23397 0.10695,0.57083 -0.46353,1.03788 -1.26773,1.03788 -1.07966,0 -0.89587,-0.60282 0.70251,-2.30422 l 2.1647,-2.30422 -2.17367,0.41861 c -1.50347,0.28954 -1.94286,0.0493 -1.42508,-0.77911 1.12776,-1.8044 1.25463,-3.78474 0.20073,-3.13339 -0.51069,0.31562 -0.62666,1.06229 -0.2577,1.65927 0.3895,0.63023 0.2077,0.79918 -0.43352,0.40289 -0.60738,-0.37538 -1.60472,0.25247 -2.21631,1.39523 -1.36165,2.54427 0.7128,8.08898 2.88724,7.71718 0.76846,-0.1314 1.51595,0.51411 1.66107,1.43447 0.18386,1.16605 -0.31226,1.56242 -1.63641,1.30741 -1.0922,-0.21033 -1.90027,0.19542 -1.90027,0.95418 0,1.78134 2.47002,3.72898 3.55904,2.80635 0.48126,-0.40772 0.27226,0.0462 -0.46445,1.00868 -0.73672,0.9625 -1.00428,1.75 -0.59459,1.75 0.40969,0 0.24369,0.6039 -0.36888,1.34201 -0.61257,0.7381 -0.90767,1.5481 -0.65578,1.8 0.2519,0.25189 -0.6403,0.45799 -1.98266,0.45799 -2.18254,0 -2.28621,-0.17066 -0.98032,-1.61365 1.12648,-1.24475 1.18911,-1.88488 0.27399,-2.8 -1.65225,-1.65225 -3.11428,-1.4833 -2.43701,0.28163 0.30982,0.80738 0.0634,1.77691 -0.54752,2.1545 -0.64742,0.40013 -0.83098,0.23372 -0.44002,-0.39887 0.36895,-0.59698 0.28388,-1.32456 -0.18905,-1.61684 -1.09794,-0.67857 -0.89466,3.44194 0.26136,5.29774 0.59887,0.96137 0.51065,1.17938 -0.2796,0.69098 -1.55796,-0.96287 -1.4835,1.65007 0.0955,3.35121 1,1.07737 1,1.20556 0,0.64099 -0.77575,-0.43797 -1.25,-0.0918 -1.25,0.91231 0,0.88992 0.39901,1.37143 0.88669,1.07003 0.48768,-0.30141 1.38501,0.0524 1.99406,0.78629 0.63096,0.76026 2.75908,1.25582 4.94664,1.15188 2.35178,-0.11174 3.83928,0.26725 3.83928,0.97818 0,0.64414 -1.37204,1.13116 -3.08334,1.09445 -1.81235,-0.0389 -2.99306,0.40776 -2.86434,1.08349 0.24526,1.28753 -2.23558,1.19448 -3.44005,-0.12903 -0.42842,-0.47077 -0.25594,-0.55665 0.38327,-0.19085 1.37811,0.78863 1.18751,-1.90887 -0.2166,-3.0655 -0.52009,-0.42841 -0.61201,-0.37034 -0.20429,0.12905 0.40773,0.4994 0.2797,1.46422 -0.28451,2.14406 -0.72603,0.8748 -0.52453,1.73737 0.68944,2.95135 1.62039,1.62038 1.58975,1.80998 -0.55381,3.42687 l -2.2691,1.71159 3.46505,-0.0962 c 1.90579,-0.0529 4.10554,-0.62772 4.88834,-1.27739 1.15906,-0.96193 1.42327,-0.76498 1.42327,1.06096 0,1.85963 -0.5505,2.24218 -3.22658,2.24218 -1.77462,0 -2.96509,-0.4231 -2.64549,-0.94022 0.32113,-0.51961 0.0429,-0.6076 -0.62198,-0.19669 -0.88028,0.54404 -0.90871,1.09822 -0.10595,2.06548 1.15794,1.39524 -0.17772,2.98895 -1.44385,1.72281 -0.39755,-0.39754 -1.58532,-0.77906 -2.63948,-0.84781 -1.05417,-0.0688 -2.02917,-0.21911 -2.16667,-0.33414 -0.1375,-0.11502 -3.175,-0.3373 -6.75,-0.49395 -3.575,-0.15665 -6.6125,-0.40003 -6.75,-0.54086 -0.1375,-0.14083 -1.7125,-0.3123 -3.5,-0.38105 -2.66667,-0.10256 -3.25,-0.52885 -3.25,-2.375 0,-2.17513 -1.87173,-3.27615 -2.125,-1.25 -0.2887,2.30959 -0.45195,2.42831 -1.375,1 -0.64625,-1 -0.97448,-1.08333 -0.98469,-0.25 -0.0286,2.33695 0.18351,2.75034 1.25396,2.44358 0.5881,-0.16854 0.4306,0.48034 -0.35,1.44195 -0.7806,0.96162 -0.89521,1.4342 -0.25468,1.0502 0.64052,-0.38401 1.31552,-0.28832 1.5,0.21264 0.18447,0.50096 1.46041,1.06626 2.83541,1.25623 1.75134,0.24197 2.40824,-0.0796 2.19358,-1.07387 -0.22248,-1.03043 0.0515,-1.14175 1,-0.40633 0.71853,0.55711 2.55979,0.92693 4.09168,0.82181 1.53189,-0.10511 3.03446,0.21209 3.33903,0.70489 0.31051,0.50242 1.13447,0.41408 1.87571,-0.2011 0.92989,-0.77174 1.51713,-0.7813 1.98007,-0.0323 0.36197,0.58568 1.00203,0.85232 1.42236,0.59255 0.42033,-0.25978 0.76424,0.16308 0.76424,0.9397 0,0.77661 -0.32402,1.21177 -0.72003,0.96702 -0.39601,-0.24475 -1.30362,0.25818 -2.0169,1.11763 -0.99521,1.19916 -2.94056,1.50151 -8.3633,1.29986 -3.88654,-0.14453 -7.71532,-0.74017 -8.5084,-1.32365 -1.0814,-0.7956 -1.25418,-0.7483 -0.69098,0.18914 1.03808,1.72788 0.14382,1.57049 -1.35792,-0.23899 z m 26.25989,-9.16695 c -0.67703,-0.27392 -2.02703,-0.29059 -3,-0.0371 -0.97297,0.25354 -0.41903,0.47766 1.23097,0.49804 1.65,0.0204 2.44606,-0.18706 1.76903,-0.46099 z m 9.33168,-23.8588 c -0.11522,-0.78506 -0.48875,-1.70663 -0.83006,-2.04795 -0.34132,-0.34131 -0.48714,0.20816 -0.32404,1.22106 0.1631,1.0129 -0.20817,2.51663 -0.82504,3.34163 -0.95923,1.28288 -0.882,1.31275 0.53353,0.20631 0.91031,-0.71153 1.56084,-1.936 1.44561,-2.72105 z m 10.79628,-13.31859 c 0.28327,-0.45834 -0.12038,-0.83334 -0.89699,-0.83334 -0.77661,0 -1.18026,0.375 -0.89699,0.83334 0.28326,0.45833 0.68691,0.83333 0.89699,0.83333 0.21008,0 0.61373,-0.375 0.89699,-0.83333 z m -12.39699,-5.77432 c 0,-0.82763 -1.94173,-1.29565 -2.38691,-0.57533 -0.28881,0.46731 0.13009,0.84965 0.9309,0.84965 0.8008,0 1.45601,-0.12345 1.45601,-0.27432 z m -45.45729,42.67675 c -0.31644,-0.512 -0.19299,-1.1672 0.27431,-1.45601 0.46731,-0.28881 0.84965,0.13009 0.84965,0.9309 0,1.68617 -0.31534,1.83349 -1.12396,0.52511 z m 3.62328,-2.3691 c -0.83456,-1.00558 -0.53244,-1.3 1.33401,-1.3 1.86645,0 2.16857,0.29442 1.33401,1.3 -0.59339,0.715 -1.1937,1.3 -1.33401,1.3 -0.14031,0 -0.74062,-0.585 -1.33401,-1.3 z m 52.83401,0.75578 c 0,-0.11599 0.6,-0.70885 1.33333,-1.31746 0.99637,-0.82691 1.33334,-0.77361 1.33334,0.21089 0,0.7246 -0.6,1.31746 -1.33334,1.31746 -0.73333,0 -1.33333,-0.0949 -1.33333,-0.21089 z m -12.62361,-10.65578 c -0.58275,-0.94292 -0.6087,-0.93107 2.70694,-1.23586 1.42084,-0.13061 2.58334,0.27403 2.58334,0.89919 0,1.28272 -4.52752,1.57084 -5.29028,0.33667 z m 8.95694,-6.3 c 0,-0.64167 0.525,-1.16667 1.16667,-1.16667 0.64167,0 1.16667,0.525 1.16667,1.16667 0,0.64167 -0.525,1.16667 -1.16667,1.16667 -0.64167,0 -1.16667,-0.525 -1.16667,-1.16667 z m -42,-6 c 0,-0.64167 0.525,-1.16667 1.16667,-1.16667 0.64167,0 1.16667,0.525 1.16667,1.16667 0,0.64167 -0.525,1.16667 -1.16667,1.16667 -0.64167,0 -1.16667,-0.525 -1.16667,-1.16667 z m 7.66667,-3.04422 c 0,-0.11599 0.6,-0.70885 1.33333,-1.31746 0.99637,-0.82691 1.33334,-0.77361 1.33334,0.21089 0,0.7246 -0.6,1.31746 -1.33334,1.31746 -0.73333,0 -1.33333,-0.0949 -1.33333,-0.21089 z m -11.12918,-3.11144 c -0.60359,-0.72727 -1.42145,-1.12207 -1.81746,-0.87732 -0.39601,0.24475 -0.72003,-0.1202 -0.72003,-0.81101 0,-0.6908 1.02,-1.25601 2.26667,-1.25601 1.24667,0 2.24338,0.2475 2.21491,0.55 -0.18841,2.00232 0.46362,2.12415 2.43509,0.45499 2.24818,-1.90345 2.24859,-1.90331 0.49782,0.17616 -0.9637,1.14464 -1.5262,2.30713 -1.25,2.58334 0.2762,0.27619 -0.17996,0.50218 -1.0137,0.50218 -0.83373,0 -2.00972,-0.59505 -2.6133,-1.32233 z m 2.12918,0.27811 c 0,-0.20766 -0.7875,-0.99516 -1.75,-1.75 -1.58606,-1.24388 -1.62143,-1.20851 -0.37756,0.37755 1.30637,1.66575 2.12756,2.19548 2.12756,1.37245 z m 46.13832,-1.95578 c -0.82691,-0.99637 -0.77361,-1.33334 0.21089,-1.33334 0.7246,0 1.31746,0.6 1.31746,1.33334 0,0.73333 -0.0949,1.33333 -0.21089,1.33333 -0.11599,0 -0.70885,-0.6 -1.31746,-1.33333 z m -5.13832,-2.45578 c 0,-1.18064 0.28349,-1.2205 1.5,-0.21089 0.825,0.68469 1.5,1.33979 1.5,1.45578 0,0.11599 -0.675,0.21089 -1.5,0.21089 -0.825,0 -1.5,-0.6551 -1.5,-1.45578 z m -37.43372,-1.11051 c 0.24095,-0.24094 -0.21509,-1.15982 -1.01341,-2.04196 -1.31486,-1.45291 -0.94623,-1.60387 3.91638,-1.60387 2.95232,0 5.14842,0.35506 4.88021,0.78903 -0.26821,0.43398 -0.87547,0.54936 -1.34946,0.25642 -0.47399,-0.29294 -1.10085,-0.14583 -1.39303,0.32691 -0.29217,0.47275 1.25174,0.77483 3.43091,0.67129 2.35822,-0.11204 3.96212,0.26281 3.96212,0.92601 0,0.70358 -2.37201,1.11425 -6.4359,1.11425 -3.53974,0 -6.23876,-0.19713 -5.99782,-0.43808 z m 2.43372,-0.47794 c 0,-0.20765 -0.7875,-0.99515 -1.75,-1.75 -1.58606,-1.24387 -1.62143,-1.2085 -0.37756,0.37756 1.30637,1.66575 2.12756,2.19548 2.12756,1.37244 z"
         id="path3080"
         inkscape:connector-curvature="0" />
      <path
         style="fill:#d9fefe"
         d="m 154.19046,432.29077 c 0,-0.64167 0.525,-1.16667 1.16667,-1.16667 0.64167,0 1.16667,0.525 1.16667,1.16667 0,0.64167 -0.525,1.16667 -1.16667,1.16667 -0.64167,0 -1.16667,-0.525 -1.16667,-1.16667 z m -40.79062,-1.4309 c -0.31644,-0.512 -0.19299,-1.1672 0.27431,-1.45601 0.46731,-0.28881 0.84965,0.13009 0.84965,0.9309 0,1.68617 -0.31534,1.83349 -1.12396,0.52511 z m 54.45729,0.38668 c 0,-0.11599 0.6,-0.70885 1.33333,-1.31746 0.99637,-0.82691 1.33334,-0.77361 1.33334,0.21089 0,0.7246 -0.6,1.31746 -1.33334,1.31746 -0.73333,0 -1.33333,-0.0949 -1.33333,-0.21089 z m -41.77478,-2.586 c 0.15113,-0.70338 -0.40022,-1.31978 -1.22522,-1.36978 -0.825,-0.05 -1.35,-0.74545 -1.16667,-1.54546 0.18334,-0.8 -2.6e-4,-1.12094 -0.40799,-0.71322 -1.18052,1.18053 -3.42534,-1.27137 -3.42534,-3.74132 0,-1.99719 2.80792,-5.70135 3.125,-4.12245 0.0688,0.34235 0.18814,0.95995 0.26531,1.37245 0.0772,0.4125 0.49748,1.3125 0.93402,2 0.43654,0.6875 0.4724,1.25 0.0797,1.25 -0.3927,0 0.018,0.80882 0.91261,1.79739 1.32427,1.4633 3.11887,1.77983 9.65498,1.70294 6.13738,-0.0722 8.02838,0.22497 8.02838,1.26163 0,0.81871 0.49533,1.05849 1.25,0.6051 0.98123,-0.5895 0.99277,-0.43281 0.0537,0.72877 -1.34056,1.65816 -13.55205,2.04731 -14.9866,0.47758 -0.4599,-0.50323 -0.30085,-0.59827 0.36383,-0.21742 0.64949,0.37215 1.40793,0.30929 1.68541,-0.13968 0.27748,-0.44897 -0.56236,-0.81631 -1.86631,-0.81631 -1.30395,0 -2.16755,0.32891 -1.9191,0.7309 0.24845,0.402 -0.0168,1.02045 -0.58937,1.37433 -0.57259,0.35389 -0.91743,0.0679 -0.76631,-0.63545 z m 28.33093,-4.64697 c -0.39755,-0.39754 -1.58532,-0.77906 -2.63948,-0.84781 -1.05417,-0.0688 -2.02917,-0.22109 -2.16667,-0.33854 -0.85658,-0.73165 -11.48421,-0.43891 -12.55642,0.34588 -0.91977,0.6732 -1.21574,0.5496 -1,-0.41761 0.20879,-0.93609 -0.71318,-1.3883 -2.89358,-1.41927 -1.76,-0.025 -3.785,-0.67398 -4.5,-1.44216 -0.7476,-0.80322 -0.80615,-1.11989 -0.13779,-0.74524 1.48294,0.83124 1.12852,-1.96733 -0.44892,-3.54477 -0.88863,-0.88863 -1.06759,-0.65303 -0.75135,0.98909 0.22832,1.18556 -0.007,2.41658 -0.52341,2.73561 -0.51619,0.31902 -0.93853,-0.14807 -0.93853,-1.03799 0,-0.88992 -0.39901,-1.37143 -0.88669,-1.07003 -0.48768,0.30141 -1.50018,-0.20842 -2.25,-1.13294 -0.93764,-1.15609 -0.97302,-1.44647 -0.11331,-0.92997 0.79439,0.47725 1.25,0.16122 1.25,-0.86706 0,-0.88992 0.41559,-1.36118 0.92353,-1.04726 1.07969,0.66728 5.58736,-5.27519 4.68556,-6.17698 -0.335,-0.335 -0.60909,-0.13224 -0.60909,0.45058 0,0.58283 -0.585,1.28417 -1.3,1.55854 -0.82544,0.31675 -1.3,-0.30939 -1.3,-1.71524 0,-1.79963 0.55018,-2.20059 2.93904,-2.14187 1.8736,0.046 3.34177,-0.61048 4.05,-1.81106 1.55429,-2.6348 5.52457,-6.61671 6.5974,-6.61671 0.49254,0 1.10411,-0.3375 1.35905,-0.75 0.25494,-0.4125 -0.581,-0.75 -1.85765,-0.75 -1.27665,0 -2.30538,0.225 -2.28609,0.5 0.13115,1.86884 -0.42136,2.87029 -1.89568,3.43605 -1.4847,0.56973 -1.46556,0.39766 0.15498,-1.39302 1.01691,-1.12366 1.48444,-2.04303 1.03895,-2.04303 -0.44549,0 0.003,-0.89841 0.9968,-1.99647 1.48041,-1.63583 2.09548,-1.77442 3.40499,-0.76723 0.91434,0.70325 0.75714,0.24518 -0.36739,-1.07051 -2.33507,-2.73202 -2.75981,-6.73383 -0.88026,-8.29371 0.74022,-0.61433 1.34586,-2.41187 1.34586,-3.99452 0,-3.0599 1.40219,-3.87781 2.36163,-1.37756 0.31658,0.825 1.06628,1.5 1.666,1.5 0.62213,0 0.75505,-0.53681 0.30951,-1.25 -0.4295,-0.6875 -0.86992,-1.83761 -0.97873,-2.55581 -0.15396,-1.01628 0.11696,-1.04456 1.22188,-0.12755 0.78084,0.64804 1.41971,1.81354 1.41971,2.59002 0,0.97203 0.85656,1.28508 2.75,1.00506 1.5125,-0.22369 2.62635,-0.94753 2.47522,-1.60854 -0.15112,-0.66101 0.16672,-0.92898 0.70633,-0.59548 0.53961,0.33349 0.70559,1.37944 0.36886,2.32432 -0.43837,1.23008 -0.0377,1.07899 1.41097,-0.53202 1.11277,-1.2375 2.62293,-2.25 3.35591,-2.25 1.03655,0 1.06604,0.26667 0.13271,1.2 -0.66,0.66 -1.2,1.95856 -1.2,2.88569 0,2.38722 2.55654,7.02443 3.40492,6.17606 0.38939,-0.38939 0.0306,0.59765 -0.79729,2.19343 -0.8279,1.59578 -1.23378,3.34071 -0.90194,3.87763 0.33183,0.53691 0.1963,0.73451 -0.30118,0.43911 -0.49748,-0.2954 -1.84476,-0.18116 -2.99395,0.25387 -1.79832,0.68077 -2.11959,1.7224 -2.30586,7.47613 -0.129,3.98495 0.16429,6.44987 0.72613,6.10263 0.51841,-0.32039 1.44087,0.0179 2.04992,0.75177 0.63096,0.76026 2.75908,1.25582 4.94664,1.15188 2.35178,-0.11174 3.83928,0.26725 3.83928,0.97818 0,0.64414 -1.37204,1.13116 -3.08334,1.09445 -1.81235,-0.0389 -2.99306,0.40776 -2.86434,1.08349 0.24526,1.28753 -2.23558,1.19448 -3.44005,-0.12903 -0.42842,-0.47077 -0.25594,-0.55665 0.38327,-0.19085 1.27711,0.73083 1.23622,-1.77935 -0.0499,-3.0655 -0.42841,-0.42841 -0.62894,-0.10394 -0.4456,0.72106 0.19451,0.87529 -0.25775,1.37238 -1.08594,1.19358 -1.17351,-0.25337 -1.1956,-0.0369 -0.12756,1.25 0.71045,0.85603 0.95652,1.55642 0.54683,1.55642 -0.40969,0 -0.19088,0.66754 0.48625,1.48343 1.02134,1.23065 0.77552,1.65665 -1.44266,2.5 -3.43826,1.30722 -5.87002,1.29014 -7.21081,-0.0506 -0.75629,-0.75629 -1.22415,-0.65826 -1.60586,0.33648 -0.43558,1.13508 0.94581,1.38631 7.21879,1.31284 4.43735,-0.052 8.37735,-0.60534 9.20587,-1.29294 1.19132,-0.98871 1.44842,-0.80409 1.44842,1.04008 0,1.85963 -0.5505,2.24218 -3.22658,2.24218 -1.77462,0 -2.96509,-0.4231 -2.64549,-0.94022 0.32113,-0.51961 0.0429,-0.6076 -0.62198,-0.19669 -0.88028,0.54404 -0.90871,1.09822 -0.10595,2.06548 1.15794,1.39524 -0.17772,2.98895 -1.44385,1.72281 z m -4.87304,-12.41031 c -0.31922,-0.79773 -0.55618,-0.56078 -0.60416,0.60417 -0.0434,1.05416 0.19292,1.64479 0.52522,1.3125 0.33229,-0.3323 0.36781,-1.19479 0.0789,-1.91667 z m -32.51712,4.8875 c -0.83456,-1.00558 -0.53244,-1.3 1.33401,-1.3 1.86645,0 2.16857,0.29442 1.33401,1.3 -0.59339,0.715 -1.1937,1.3 -1.33401,1.3 -0.14031,0 -0.74062,-0.585 -1.33401,-1.3 z m 52.83401,0.75578 c 0,-0.11599 0.6,-0.70885 1.33333,-1.31746 0.99637,-0.82691 1.33334,-0.77361 1.33334,0.21089 0,0.7246 -0.6,1.31746 -1.33334,1.31746 -0.73333,0 -1.33333,-0.0949 -1.33333,-0.21089 z m -15.66667,-20.91179 c 0,-0.80081 0.38234,-1.21971 0.84965,-0.9309 0.4673,0.28881 0.59075,0.94401 0.27431,1.45601 -0.80862,1.30838 -1.12396,1.16106 -1.12396,-0.52511 z m -33.46251,-8.19965 c -0.60359,-0.72727 -1.42145,-1.12207 -1.81746,-0.87732 -0.39601,0.24475 -0.72003,-0.1202 -0.72003,-0.81101 0,-0.6908 1.02,-1.25601 2.26667,-1.25601 1.24667,0 2.24338,0.2475 2.21491,0.55 -0.18841,2.00232 0.46362,2.12415 2.43509,0.45499 2.24818,-1.90345 2.24859,-1.90331 0.49782,0.17616 -0.9637,1.14464 -1.5262,2.30713 -1.25,2.58334 0.2762,0.27619 -0.17996,0.50218 -1.0137,0.50218 -0.83373,0 -2.00972,-0.59505 -2.6133,-1.32233 z m 2.12918,0.27811 c 0,-0.20766 -0.7875,-0.99516 -1.75,-1.75 -1.58606,-1.24388 -1.62143,-1.20851 -0.37756,0.37755 1.30637,1.66575 2.12756,2.19548 2.12756,1.37245 z m 45.60301,-2.45578 c -0.28327,-0.45834 0.12038,-0.83334 0.89699,-0.83334 0.77661,0 1.18026,0.375 0.89699,0.83334 -0.28326,0.45833 -0.68691,0.83333 -0.89699,0.83333 -0.21008,0 -0.61373,-0.375 -0.89699,-0.83333 z m -4.60301,-1.95578 c 0,-1.18064 0.28349,-1.2205 1.5,-0.21089 0.825,0.68469 1.5,1.33979 1.5,1.45578 0,0.11599 -0.675,0.21089 -1.5,0.21089 -0.825,0 -1.5,-0.6551 -1.5,-1.45578 z m -37.43372,-1.11051 c 0.24095,-0.24094 -0.21509,-1.15982 -1.01341,-2.04196 -1.31486,-1.45291 -0.94623,-1.60387 3.91638,-1.60387 2.95232,0 5.14842,0.35506 4.88021,0.78903 -0.26821,0.43398 -0.87547,0.54936 -1.34946,0.25642 -0.47399,-0.29294 -1.10085,-0.14583 -1.39303,0.32691 -0.29217,0.47275 1.25174,0.77483 3.43091,0.67129 2.35822,-0.11204 3.96212,0.26281 3.96212,0.92601 0,0.70358 -2.37201,1.11425 -6.4359,1.11425 -3.53974,0 -6.23876,-0.19713 -5.99782,-0.43808 z m 2.43372,-0.47794 c 0,-0.20765 -0.7875,-0.99515 -1.75,-1.75 -1.58606,-1.24387 -1.62143,-1.2085 -0.37756,0.37756 1.30637,1.66575 2.12756,2.19548 2.12756,1.37244 z m 36.19189,-2.08673 c -0.36369,-0.56964 -0.68861,-1.48571 -0.72203,-2.03571 -0.0334,-0.55 -0.52782,-0.9125 -1.09865,-0.80556 -0.57083,0.10695 -1.03788,-0.41527 -1.03788,-1.16048 0,-0.76988 0.78255,-1.20423 1.81231,-1.00591 0.99677,0.19196 2.04855,-0.0332 2.3373,-0.50045 1.10803,-1.79283 4.01753,-0.31196 4.06251,2.06773 0.025,1.32257 0.5125,2.31717 1.08334,2.21023 0.57083,-0.10695 1.03788,0.35912 1.03788,1.03571 0,1.50717 -6.52822,1.677 -7.47478,0.19444 z m 4.89299,-0.98571 c -0.45541,-0.5775 -0.70749,-1.79083 -0.56016,-2.6963 0.23487,-1.44346 -1.11,-1.7532 -3.52472,-0.81179 -0.275,0.10721 -0.87095,0.13049 -1.32433,0.0517 -0.45338,-0.0788 -0.46027,0.43046 -0.0153,1.13158 0.44496,0.70113 0.87215,1.61228 0.94933,2.02478 0.24404,1.30444 0.34012,1.35 2.84677,1.35 1.57469,0 2.15923,-0.37691 1.62842,-1.05 z m -3.62661,-1.46667 c 0.27641,-1.8833 1.83104,-1.71984 2.11611,0.22251 0.10985,0.74845 -0.37362,1.36083 -1.07438,1.36083 -0.70076,0 -1.16954,-0.7125 -1.04173,-1.58334 z"
         id="path3078"
         inkscape:connector-curvature="0" />
      <path
         style="fill:#fcd9a9"
         d="m 126.08235,428.66055 c 0.15113,-0.70338 -0.40022,-1.31978 -1.22522,-1.36978 -0.825,-0.05 -1.35,-0.74545 -1.16667,-1.54546 0.18334,-0.8 -2.6e-4,-1.12094 -0.40799,-0.71322 -1.18052,1.18053 -3.42534,-1.27137 -3.42534,-3.74132 0,-1.99719 2.80792,-5.70135 3.125,-4.12245 0.0688,0.34235 0.18814,0.95995 0.26531,1.37245 0.0772,0.4125 0.49748,1.3125 0.93402,2 0.43654,0.6875 0.4724,1.25 0.0797,1.25 -0.3927,0 0.018,0.80882 0.91261,1.79739 1.32427,1.4633 3.11887,1.77983 9.65498,1.70294 6.13738,-0.0722 8.02838,0.22497 8.02838,1.26163 0,0.81871 0.49533,1.05849 1.25,0.6051 0.98123,-0.5895 0.99277,-0.43281 0.0537,0.72877 -1.34056,1.65816 -13.55205,2.04731 -14.9866,0.47758 -0.4599,-0.50323 -0.30085,-0.59827 0.36383,-0.21742 0.64949,0.37215 1.40793,0.30929 1.68541,-0.13968 0.27748,-0.44897 -0.56236,-0.81631 -1.86631,-0.81631 -1.30395,0 -2.16755,0.32891 -1.9191,0.7309 0.24845,0.402 -0.0168,1.02045 -0.58937,1.37433 -0.57259,0.35389 -0.91743,0.0679 -0.76631,-0.63545 z m 9.52976,-10.05834 c -0.14024,-0.37871 -1.44272,-0.84481 -2.89439,-1.03578 -1.45168,-0.19096 -3.38957,-0.96978 -4.30643,-1.73071 -1.28116,-1.06327 -1.59608,-1.08574 -1.36058,-0.0971 0.45468,1.90889 -2.90444,2.1114 -4.39989,0.26526 -0.9761,-1.205 -0.98682,-1.41271 -0.0437,-0.84609 0.79439,0.47725 1.25,0.16122 1.25,-0.86706 0,-0.88992 0.42587,-1.35483 0.94637,-1.03315 1.13433,0.70106 6.19469,-6.42959 5.43507,-7.65868 -0.29155,-0.47175 -0.005,-0.73407 0.63729,-0.58295 0.64206,0.15113 1.68801,-0.5727 2.32433,-1.60851 1.6145,-2.6281 5.58095,-6.61671 6.57995,-6.61671 0.45765,0 1.33158,-0.60184 1.94206,-1.33742 0.84666,-1.02016 0.55686,-1.85702 -1.22164,-3.52783 -2.48796,-2.33732 -2.894,-6.28418 -0.85613,-8.32205 0.66698,-0.66698 1.2127,-2.4727 1.2127,-4.0127 0,-3.11008 0.72202,-3.52177 2.38976,-1.3626 1.70063,2.20177 10.52515,2.39945 12.08177,0.27064 0.68693,-0.93942 1.85185,-1.70804 2.58871,-1.70804 1.04204,0 1.07309,0.26667 0.13976,1.2 -0.66,0.66 -1.2,1.95856 -1.2,2.88569 0,2.38722 2.55654,7.02443 3.40492,6.17606 0.38939,-0.38939 0.0306,0.59765 -0.79729,2.19343 -0.8279,1.59578 -1.23378,3.34071 -0.90194,3.87763 0.33183,0.53691 0.1963,0.73451 -0.30118,0.43911 -0.49748,-0.2954 -1.91701,-0.15443 -3.15451,0.31327 -2.06106,0.77895 -2.25,1.48783 -2.25,8.4416 0,5.78271 0.2978,7.42311 1.25,6.88552 0.98905,-0.55839 0.99401,-0.42954 0.0238,0.61719 -0.89782,0.96863 -0.93198,1.67743 -0.12756,2.64671 0.60427,0.72808 0.76346,1.32379 0.35377,1.32379 -0.40969,0 -0.19088,0.66754 0.48625,1.48343 1.02134,1.23065 0.77552,1.65665 -1.44266,2.5 -3.4491,1.31134 -6.25397,1.2942 -7.08057,-0.0433 -0.42643,-0.68998 -1.05775,-0.52769 -1.80902,0.465 -1.15123,1.52118 -8.36422,1.85048 -8.89902,0.40627 z m 13.92813,-6.99894 c -0.31922,-0.79773 -0.55618,-0.56078 -0.60416,0.60417 -0.0434,1.05416 0.19292,1.64479 0.52522,1.3125 0.33229,-0.3323 0.36781,-1.19479 0.0789,-1.91667 z m 15.50878,-31.27679 c -0.36369,-0.56964 -0.68861,-1.48571 -0.72203,-2.03571 -0.0334,-0.55 -0.52782,-0.9125 -1.09865,-0.80556 -0.57083,0.10695 -1.03788,-0.41527 -1.03788,-1.16048 0,-0.76988 0.78255,-1.20423 1.81231,-1.00591 0.99677,0.19196 2.04855,-0.0332 2.3373,-0.50045 1.10803,-1.79283 4.01753,-0.31196 4.06251,2.06773 0.025,1.32257 0.5125,2.31717 1.08334,2.21023 0.57083,-0.10695 1.03788,0.35912 1.03788,1.03571 0,1.50717 -6.52822,1.677 -7.47478,0.19444 z m 4.89299,-0.98571 c -0.45541,-0.5775 -0.70749,-1.79083 -0.56016,-2.6963 0.23487,-1.44346 -1.11,-1.7532 -3.52472,-0.81179 -0.275,0.10721 -0.87095,0.13049 -1.32433,0.0517 -0.45338,-0.0788 -0.46027,0.43046 -0.0153,1.13158 0.44496,0.70113 0.87215,1.61228 0.94933,2.02478 0.24404,1.30444 0.34012,1.35 2.84677,1.35 1.57469,0 2.15923,-0.37691 1.62842,-1.05 z m -3.62661,-1.46667 c 0.27641,-1.8833 1.83104,-1.71984 2.11611,0.22251 0.10985,0.74845 -0.37362,1.36083 -1.07438,1.36083 -0.70076,0 -1.16954,-0.7125 -1.04173,-1.58334 z"
         id="path3076"
         inkscape:connector-curvature="0" />
      <path
         style="fill:#feaca9"
         d="m 133.28541,428.88572 c -0.32722,-0.32722 -1.45745,-0.6512 -2.51161,-0.71995 -1.05417,-0.0688 -2.02917,-0.21469 -2.16667,-0.32431 -0.1375,-0.10962 -1.35145,-0.40162 -2.69766,-0.64889 -3.32082,-0.60996 -6.05234,-3.25442 -6.05234,-5.85944 0,-1.18122 1.71904,-3.92397 3.82009,-6.09501 2.10104,-2.17104 5.97269,-6.78629 8.60365,-10.25611 2.63097,-3.46981 6.25607,-7.27399 8.05577,-8.45373 l 3.2722,-2.14498 -2.37586,-1.86884 c -2.48396,-1.95389 -3.3833,-7.98302 -1.37585,-9.22369 0.55,-0.33992 1,-2.01122 1,-3.714 0,-2.88038 0.12186,-2.98657 1.75,-1.5249 2.7019,2.42564 10.69118,2.5546 13.27717,0.21431 2.12216,-1.92053 2.12258,-1.92026 1.42007,0.87879 -0.41393,1.64921 -0.20264,3.73433 0.51412,5.0736 1.81763,3.39628 0.90243,6.75678 -2.46136,9.03784 l -3,2.03436 0.50709,9.10484 c 0.30531,5.48206 1.04488,9.75285 1.85869,10.73343 1.17809,1.41951 1.00835,1.75909 -1.32219,2.64516 -4.2027,1.59786 -6.52783,1.21611 -7.51243,-1.23343 l -0.90439,-2.25 -0.0634,2.28138 c -0.0349,1.25477 -0.68266,2.51903 -1.43955,2.80947 -1.33675,0.51296 -13.08592,-2.13193 -15.11455,-3.40248 -1.54616,-0.96838 -3.58024,-1.1122 -3.02506,-0.21389 0.27157,0.4394 -0.12983,1.31644 -0.892,1.94898 -2.49158,2.06783 0.17866,6.97994 4.25866,7.83415 1.65141,0.34574 7.19251,0.44546 8.79615,0.15829 0.46913,-0.084 1.86547,-0.0994 3.10297,-0.0343 2.64453,0.13919 3.1,3.07024 0.5,3.21762 -0.9625,0.0546 -2.98228,0.20978 -4.48839,0.34495 -1.50611,0.13516 -3.00611,-0.022 -3.33333,-0.3492 z m 1.96871,-0.92828 c 0.28327,-0.45834 -0.12038,-0.83334 -0.89699,-0.83334 -0.77661,0 -1.18026,0.375 -0.89699,0.83334 0.28326,0.45833 0.68691,0.83333 0.89699,0.83333 0.21008,0 0.61373,-0.375 0.89699,-0.83333 z m 14.88239,-15.20633 c -0.29336,-1.12182 -0.75683,-1.81623 -1.02992,-1.54313 -0.541,0.54099 0.41459,3.58279 1.12554,3.58279 0.24077,0 0.19774,-0.91785 -0.0956,-2.03966 z m 14.05395,-34.29367 c 0,-0.73334 0.59286,-1.33334 1.31746,-1.33334 0.9845,0 1.0378,0.33697 0.21089,1.33334 -0.60861,0.73333 -1.20147,1.33333 -1.31746,1.33333 -0.11599,0 -0.21089,-0.6 -0.21089,-1.33333 z"
         id="path3074"
         inkscape:connector-curvature="0" />
      <path
         style="fill:#fe4e54"
         d="m 135.77597,417.84498 c -7.29711,-1.91541 -8.91884,-2.68002 -8.91884,-4.20507 0,-2.56382 12.55239,-16.72475 15.99829,-18.04842 l 2.50171,-0.96097 -2.63441,-1.39125 c -3.43568,-1.8144 -4.46685,-5.88192 -2.32128,-9.15647 0.89956,-1.3729 1.4055,-3.37597 1.1243,-4.45126 -0.43821,-1.67574 -0.28786,-1.76966 1.05237,-0.65737 1.93232,1.60368 11.29117,1.94972 13.1263,0.48534 1.04605,-0.83473 1.28781,-0.63841 1.08131,0.87808 -0.14628,1.07425 0.33393,3.19452 1.06713,4.71172 1.7043,3.52668 0.0348,7.07195 -4.1456,8.80354 -1.93935,0.80331 -2.58361,1.56108 -1.96902,2.31595 0.50241,0.61708 0.9624,4.68952 1.02218,9.04985 0.0796,5.80834 0.54452,8.40946 1.73883,9.72915 1.50094,1.65851 1.50174,1.85054 0.0101,2.42292 -0.89099,0.3419 -3.08974,0.68878 -4.88612,0.77085 -2.77651,0.12683 -3.25457,-0.18494 -3.18899,-2.07979 0.06,-1.73303 -0.2157,-1.98594 -1.23899,-1.13669 -0.72387,0.60076 -1.10104,1.44032 -0.83815,1.86568 0.26289,0.42536 -0.0796,1.22525 -0.76101,1.77754 -0.84538,0.68514 -3.32974,0.45535 -7.82015,-0.72333 z m 14.17494,-7.36043 c -0.79171,-0.79171 -1.09378,-0.53223 -1.09378,0.93955 0,2.64375 1.39845,4.04704 1.84378,1.85016 0.18908,-0.93276 -0.14842,-2.18813 -0.75,-2.78971 z m 0.15719,-21.48215 c -0.29112,-0.75863 -0.80941,-1.00409 -1.15177,-0.54548 -0.34236,0.45862 -1.0056,1.14721 -1.47387,1.53022 -0.46827,0.383 0.05,0.62846 1.15177,0.54547 1.25971,-0.0949 1.80672,-0.66282 1.47387,-1.53021 z m -4.25097,-4.21163 c 0,-0.55 -0.45,-1 -1,-1 -0.55,0 -1,0.45 -1,1 0,0.55 0.45,1 1,1 0.55,0 1,-0.45 1,-1 z m 8,0 c 0,-0.55 -0.45,-1 -1,-1 -0.55,0 -1,0.45 -1,1 0,0.55 0.45,1 1,1 0.55,0 1,-0.45 1,-1 z"
         id="path3072"
         inkscape:connector-curvature="0" />
      <path
         style="fill:#fe2354"
         d="m 133.35713,416.892 c -5.00016,-1.38714 -5.9425,-1.99252 -5.65498,-3.63287 0.45402,-2.59017 2.14971,-4.58965 3.29306,-3.88302 0.50131,0.30983 0.78782,0.19237 0.6367,-0.26101 -0.15113,-0.45338 0.17522,-0.93683 0.72522,-1.07433 0.55,-0.1375 1.00689,0.0875 1.01531,0.5 0.0375,1.83611 1.69533,3.0946 3.59474,2.72881 1.70782,-0.3289 1.85859,-0.14595 0.86566,1.05045 -0.66128,0.7968 -1.67086,1.15914 -2.24353,0.80522 -0.60983,-0.3769 -0.74141,-0.15843 -0.31759,0.52732 0.39798,0.64395 1.25501,0.83287 1.90451,0.41983 0.64949,-0.41305 2.5309,-0.77835 4.1809,-0.81177 1.65,-0.0334 2.9125,-0.52781 2.80556,-1.09865 -0.10695,-0.57083 0.43055,-1.03788 1.19444,-1.03788 0.76389,0 1.30139,0.4875 1.19444,1.08334 -0.10694,0.59583 0.36806,0.97083 1.05556,0.83333 0.6875,-0.1375 1.25,0.425 1.25,1.25 0,2.0128 1.90407,1.91357 2.69221,-0.1403 0.56868,-1.48194 0.75873,-1.46349 1.96862,0.19113 1.97945,2.70707 1.72113,3.03562 -2.58655,3.28979 -3.41106,0.20127 -3.96822,-0.0681 -4.25,-2.05449 -0.45135,-3.18197 -2.25771,-2.86466 -2.6407,0.46387 -0.3732,3.24338 -1.68414,3.34784 -10.68358,0.85123 z m 12.83333,-8.67505 c 0,-0.69208 0.85558,-1.08238 1.92236,-0.87694 1.54206,0.29698 1.69416,0.0953 0.76884,-1.01968 -1.16483,-1.40353 -4.89226,-1.25918 -5.95104,0.23047 -0.70845,0.99677 -4.16083,0.97178 -5.75439,-0.0417 -0.6495,-0.41304 -1.46809,-0.28631 -1.8191,0.28163 -0.70509,1.14086 -2.5,0.40551 -2.5,-1.02422 0,-1.56882 6.17184,-8.01328 9.14844,-9.55254 2.56015,-1.32391 3.22375,-1.17913 3.02554,0.66009 -0.0346,0.32084 0.51213,0.58334 1.21491,0.58334 0.70278,0 1.27778,-0.575 1.27778,-1.27778 0,-0.70278 -0.31848,-1.19028 -0.70772,-1.08333 -0.38924,0.10694 -2.30291,-1.24591 -4.25259,-3.00633 -3.43092,-3.09789 -4.08201,-6.331 -1.58565,-7.87383 0.48361,-0.29889 0.87929,-1.73188 0.87929,-3.18442 0,-2.05409 0.26667,-2.37431 1.2,-1.44098 0.66,0.66 3.76185,1.2 6.89301,1.2 4.26879,0 5.84486,0.39572 6.3,1.58179 0.9336,2.43292 0.77568,2.6079 -1.64301,1.82045 -3.91024,-1.27305 -11.75,-1.17192 -11.75,0.15157 0,0.82681 2.14474,1.19176 6.83132,1.16243 3.75723,-0.0235 7.33758,0.27011 7.95633,0.65252 2.30896,1.42701 -2.0519,8.05691 -4.82286,7.33229 -1.39082,-0.36372 -1.60354,0.69121 -1.53932,7.6337 0.0738,7.97955 0.0501,8.05707 -2.5088,8.19716 -1.47246,0.0806 -2.58334,-0.39487 -2.58334,-1.10573 z m 5.66667,-17.74761 c 0,-1.48369 -2.46139,-3.22694 -4.5,-3.18707 -2.66819,0.0522 -4.67944,1.40914 -3.91703,2.64274 0.37232,0.60243 1.33922,0.34116 2.44676,-0.66114 1.71411,-1.55125 1.80038,-1.53943 1.34947,0.18485 -0.37498,1.43393 0.0835,1.84205 2.06955,1.84205 1.40318,0 2.55125,-0.36964 2.55125,-0.82143 z"
         id="path3070"
         inkscape:connector-curvature="0" />
      <path
         style="fill:#fe1400"
         d="m 140.49219,418.09249 c -0.37451,-0.37451 -2.35811,-0.81721 -4.40799,-0.98378 -2.04989,-0.16658 -4.40207,-0.60489 -5.22707,-0.97403 -0.825,-0.36915 -1.95,-0.72014 -2.5,-0.77999 -1.6913,-0.18402 -0.4681,-3.92021 2.20994,-6.75014 1.39812,-1.47743 3.06407,-3.72743 3.7021,-5 0.685,-1.36626 1.99844,-2.2704 3.20734,-2.20784 1.12601,0.0583 2.04729,-0.48443 2.04729,-1.20601 0,-0.72157 -0.4875,-1.02037 -1.08334,-0.66398 -0.59583,0.35638 -0.46573,-0.11341 0.28911,-1.04399 0.75485,-0.93058 1.9226,-1.69196 2.59502,-1.69196 0.67241,0 2.07501,-1.0125 3.1169,-2.25 1.04188,-1.2375 1.48251,-1.90838 0.97917,-1.49085 -1.35827,1.12671 -5.56353,-3.26562 -5.56353,-5.81102 0,-1.21178 0.62854,-2.72489 1.39676,-3.36245 0.81092,-0.673 1.16451,-2.08752 0.84301,-3.37245 -0.51923,-2.07525 -0.43486,-2.11466 1.35324,-0.63212 1.22081,1.01219 3.63056,1.53243 6.69704,1.4458 2.63454,-0.0744 5.20364,0.36302 5.70912,0.9721 0.65857,0.79352 -1.07088,1.07679 -6.10169,0.99941 -7.30232,-0.11231 -8.84674,0.46888 -6.4755,2.43683 1.00599,0.8349 1.59078,0.85312 2.07802,0.0648 0.49205,-0.79616 1.04069,-0.79616 2,0 0.92989,0.77174 1.51713,0.7813 1.98007,0.0322 0.36197,-0.58568 1.08437,-0.80143 1.60534,-0.47946 0.52097,0.32198 0.73467,0.92932 0.47489,1.34965 -0.25978,0.42033 0.15788,0.76423 0.92813,0.76423 0.77025,0 1.31296,-0.2625 1.20601,-0.58333 -0.19881,-0.59645 0.90649,-1.18311 1.80556,-0.95834 0.275,0.0687 0.95,0.2375 1.5,0.375 0.55,0.1375 1.2801,0.30625 1.62244,0.375 0.34235,0.0687 0.0622,0.8 -0.62244,1.625 -0.68469,0.825 -0.89505,1.5 -0.46746,1.5 0.42759,0 0.0263,0.82996 -0.89168,1.84435 -1.14988,1.2706 -2.87422,1.7871 -5.54298,1.6603 -3.76479,-0.17887 -4.87452,1.17666 -2.63317,3.21641 0.47087,0.4285 0.48936,0.14707 0.0411,-0.62557 -0.58451,-1.00751 -0.44482,-1.17583 0.49419,-0.59549 0.92131,0.5694 1.0694,0.42131 0.5,-0.5 -0.53934,-0.87268 -0.41874,-1.06781 0.3618,-0.58541 0.64395,0.39798 0.93114,1.11142 0.6382,1.58541 -0.29294,0.47399 -0.15632,1.09438 0.30362,1.37863 0.45993,0.28425 0.78871,2.22785 0.73062,4.3191 l -0.10562,3.80227 -8.21431,-0.0305 c -5.96163,-0.0221 -8.24859,0.32068 -8.33931,1.25 -0.0688,0.70426 -0.2375,1.73047 -0.375,2.28047 -0.1375,0.55 -0.30625,1.2801 -0.375,1.62245 -0.0688,0.34234 -0.725,0.12448 -1.45833,-0.48413 -1.00529,-0.83431 -1.33334,-0.75509 -1.33334,0.322 0,0.78571 0.4875,1.34107 1.08334,1.23412 0.59583,-0.10694 0.97083,0.36806 0.83333,1.05556 -0.1375,0.6875 0.3125,1.1375 1,1 0.6875,-0.1375 1.16112,0.24164 1.05249,0.84253 -0.12024,0.66511 1.36079,1.01849 3.78572,0.90328 2.19077,-0.10409 4.18719,0.14079 4.43649,0.54416 0.62569,1.01238 -2.04705,3.10435 -2.88964,2.26175 z m -6.96839,-9.75773 c 0,-0.80081 -0.38234,-1.21971 -0.84965,-0.9309 -0.4673,0.28881 -0.59075,0.94401 -0.27432,1.45601 0.80863,1.30838 1.12397,1.16106 1.12397,-0.52511 z m 15.84201,-5.36865 c -0.27023,-0.27023 -0.0234,-1.05516 0.54855,-1.7443 0.72161,-0.86948 0.71396,-1.45442 -0.025,-1.91111 -0.58567,-0.36197 -0.76038,-1.18953 -0.38823,-1.83903 0.37215,-0.64949 0.30351,-0.84242 -0.15254,-0.42872 -0.45604,0.4137 -1.60851,0.0469 -2.56104,-0.81514 -1.40057,-1.2675 -1.88896,-1.31574 -2.55303,-0.25218 -1.28672,2.06077 -1.30338,3.77432 -0.0344,3.53413 0.63633,-0.12045 1.04446,0.34351 0.90696,1.03101 -0.1375,0.6875 0.3125,1.1375 1,1 0.6875,-0.1375 1.1625,0.2375 1.05556,0.83333 -0.10695,0.59584 0.45555,1.08334 1.25,1.08334 0.79444,0 1.22334,-0.2211 0.95312,-0.49133 z m -3.38106,-3.53949 c -1.59766,-1.70064 -1.78088,-2.30252 -0.70091,-2.30252 0.8042,0 1.37468,0.46705 1.26773,1.03788 -0.10694,0.57084 0.33056,1.05834 0.97223,1.08333 1.67483,0.0652 2.62751,1.24561 1.54522,1.9145 -0.50664,0.31313 -1.89457,-0.46681 -3.08427,-1.73319 z m 6.85341,-9.40022 c 0.5696,-0.67043 0.73579,-1.00162 0.36931,-0.73597 -0.36648,0.26564 -1.32801,-0.0662 -2.13675,-0.73736 -2.03063,-1.68527 -9.88026,-1.74792 -9.88026,-0.0788 0,0.917 0.35917,0.98672 1.25466,0.24353 0.94649,-0.78552 1.13508,-0.58399 0.76779,0.82051 -0.42397,1.62126 0.0994,1.85179 4.05138,1.78445 2.49603,-0.0425 5.00427,-0.62587 5.57387,-1.2963 z m -7.98103,0.38682 c 0,-0.20766 0.7875,-0.99516 1.75,-1.75 1.58606,-1.24388 1.62143,-1.20851 0.37756,0.37755 -1.30637,1.66575 -2.12756,2.19548 -2.12756,1.37245 z m 2.31979,25.98659 c 0.28815,-0.75093 0.0941,-1.79517 -0.43127,-2.32052 -0.60692,-0.60692 -0.41638,-0.95519 0.52259,-0.95519 0.81278,0 1.39028,0.4875 1.28333,1.08334 -0.10694,0.59583 0.70556,1.14799 1.80556,1.22703 1.1,0.079 2.5625,0.19154 3.25,0.25 3.00007,0.25512 0.87581,1.62786 -2.85272,1.84348 -3.11872,0.18035 -3.97589,-0.0899 -3.57749,-1.12814 z m -11.80942,-3.59758 c -1.2968,-1.43295 -1.30704,-1.67813 -0.0701,-1.67813 0.79673,0 1.3611,0.48419 1.25416,1.07598 -0.10814,0.59841 1.2464,1.04393 3.0518,1.00376 3.69564,-0.0822 3.44447,0.94737 -0.27964,1.14631 -1.34065,0.0716 -3.12096,-0.62495 -3.95623,-1.54792 z m 13.01682,-4.86516 c 0.17588,-0.90547 0.35422,-1.8139 0.3963,-2.01875 0.0421,-0.20484 0.76238,0.19679 1.60068,0.89251 1.61987,1.34438 1.28797,2.24347 -0.94941,2.57185 -0.7839,0.11505 -1.2309,-0.5018 -1.04757,-1.44561 z m -11.9141,-1.32928 c 0.28881,-0.4673 0.94401,-0.59075 1.45601,-0.27431 1.30838,0.80862 1.16106,1.12396 -0.52511,1.12396 -0.80081,0 -1.21971,-0.38234 -0.9309,-0.84965 z m 4,0 c 0.28881,-0.4673 0.94401,-0.59075 1.45601,-0.27431 1.30838,0.80862 1.16106,1.12396 -0.52511,1.12396 -0.80081,0 -1.21971,-0.38234 -0.9309,-0.84965 z"
         id="path3068"
         inkscape:connector-curvature="0" />
    </g>
  </g>
</svg>
