<?xml version="1.0" encoding="UTF-8" standalone="no"?>
<!-- Created with Inkscape (http://www.inkscape.org/) -->

<svg
   xmlns:dc="http://purl.org/dc/elements/1.1/"
   xmlns:cc="http://creativecommons.org/ns#"
   xmlns:rdf="http://www.w3.org/1999/02/22-rdf-syntax-ns#"
   xmlns:svg="http://www.w3.org/2000/svg"
   xmlns="http://www.w3.org/2000/svg"
   xmlns:sodipodi="http://sodipodi.sourceforge.net/DTD/sodipodi-0.dtd"
   xmlns:inkscape="http://www.inkscape.org/namespaces/inkscape"
   version="1.1"
   width="64"
   height="64"
   id="svg3050"
   inkscape:version="0.48.5 r10040"
   sodipodi:docname="molrep_selfrot.svg">
  <sodipodi:namedview
     pagecolor="#ffffff"
     bordercolor="#666666"
     borderopacity="1"
     objecttolerance="10"
     gridtolerance="10"
     guidetolerance="10"
     inkscape:pageopacity="0"
     inkscape:pageshadow="2"
     inkscape:window-width="1366"
     inkscape:window-height="719"
     id="namedview6580"
     showgrid="false"
     inkscape:zoom="6.1098445"
     inkscape:cx="32"
     inkscape:cy="32"
     inkscape:window-x="0"
     inkscape:window-y="0"
     inkscape:window-maximized="1"
     inkscape:current-layer="svg3050" />
  <defs
     id="defs3052" />
  <metadata
     id="metadata3055">
    <rdf:RDF>
      <cc:Work
         rdf:about="">
        <dc:format>image/svg+xml</dc:format>
        <dc:type
           rdf:resource="http://purl.org/dc/dcmitype/StillImage" />
        <dc:title />
      </cc:Work>
    </rdf:RDF>
  </metadata>
  <path
     style="fill:#000000"
     d="M 31.315468,59.643779 C 22.698061,59.499852 14.339127,55.24937 9.0605286,48.450018 0.87735258,38.198423 1.7605305,21.775497 11.418188,12.758608 17.698667,6.1409701 27.263455,3.0557444 36.246572,4.4457139 45.203741,5.6812916 53.395901,11.473603 57.576457,19.4795 c 5.078184,9.951066 3.534758,23.170833 -4.556561,31.099347 -5.567019,5.996879 -13.552744,9.240761 -21.704428,9.064932 z m 0.589821,-0.92393 c -1.159525,-0.910148 -0.06386,1.660795 0,0 z m 1.202325,0.430722 c 0.272013,-2.126473 -1.995844,0.787006 0,0 z m -2.796716,-0.472553 c -0.120475,-0.488209 -0.406295,1.755081 0,0 z m 4.498119,0.292312 c 0.03282,-0.808208 -0.712846,-0.01928 0,0 z m -5.447541,-0.158489 c 1.305333,-0.387971 2.243848,-2.883636 0.400096,-1.424897 -0.34992,0.504361 -2.502547,2.162875 -0.400096,1.424897 z m 6.082731,0.09417 c -0.465701,-0.954077 -1.494232,-0.262562 0,0 z M 28.31934,58.44228 c 0.237695,-1.127103 4.448368,-2.361247 1.567418,-2.011761 -1.911936,2.263947 -5.099383,1.841524 -6.947126,0.187686 -2.05877,0.975477 2.147825,1.324533 2.962037,1.991061 0.787118,0.248109 1.689628,0.260842 2.417671,-0.166986 z m 8.440619,0.235735 c -0.478233,-1.474687 -5.2885,-3.141335 -2.12546,-1.025464 0.451469,0.665645 1.222758,1.644477 2.12546,1.025464 z m 2.25195,-0.403528 c 1.234085,-0.02006 4.834585,-2.265383 1.772478,-1.354596 -1.031441,0.582209 -4.953554,2.229374 -1.772478,1.354596 z m -8.832728,-0.15848 c -0.562648,0.01362 0.07437,0.796356 0,0 z m 7.26134,-0.05535 c 2.61413,-0.949854 5.557494,-1.553139 7.816252,-3.018358 1.959366,-0.629909 3.845168,-1.833852 4.59678,-3.497159 3.509407,-0.760359 3.554644,-4.377642 3.203012,-7.141245 0.983908,-3.060562 5.505791,-3.062721 5.353905,-6.745179 0.864464,-2.181642 2.024924,-6.384028 -1.80522,-5.495702 1.147211,1.095508 1.436653,4.006205 -1.260076,3.596508 -2.379344,0.112967 -2.396992,-2.307148 -1.797728,-3.768248 -1.302476,0.831221 -2.969673,-0.468833 -3.792669,0.365795 1.56747,1.044261 2.148629,2.402244 1.761374,4.040903 1.21309,1.552501 6.866026,2.858694 2.971922,4.85505 -2.538413,1.934158 -2.663028,5.099452 -2.595731,7.759462 -2.120458,-1.168331 -3.654524,1.573894 -4.778079,3.342099 -1.358453,2.950146 -4.682166,2.284766 -7.267303,2.833431 -1.906234,-0.146482 -3.187519,3.157613 -3.998994,0.655808 -1.086393,-1.427821 -4.739376,-0.332339 -1.736453,0.428848 1.003275,0.729082 1.824864,2.455146 3.329008,1.787987 z m -0.802347,-0.176382 c 0.07641,-0.413543 0.07641,0.413543 0,0 z m 3.944138,-2.428731 c -0.5491,-0.679707 0.388799,0.148494 0,0 z M 54.870055,37.812916 c 0.168221,-0.27549 -0.04463,0.519347 0,0 z m 0.272224,-0.970129 c 0.168227,-0.275482 -0.04464,0.519365 0,0 z m 0.181484,-0.617354 c 0.168224,-0.275484 -0.04464,0.519362 0,0 z m 2.788807,0.07939 c 0.262351,-0.437679 0.224293,0.258891 0,0 z m -0.544443,-0.08819 c 0.262353,-0.437663 0.224275,0.258888 0,0 z m -0.453708,-0.08819 c 0.262352,-0.437664 0.224276,0.258887 0,0 z m -0.544454,-0.08819 c 0.262351,-0.437679 0.224293,0.258891 0,0 z m -0.453706,-0.08819 c 0.262318,-0.437686 0.224301,0.258898 0,0 z m -1.996314,-0.352774 c 0.262352,-0.437665 0.224286,0.258888 0,0 z m -0.544449,-0.08819 c 0.262317,-0.437685 0.224299,0.258898 0,0 z m -0.453708,-0.08819 c 0.262353,-0.437669 0.224284,0.258886 0,0 z m -0.544448,-0.08819 c 0.262355,-0.437668 0.224284,0.258887 0,0 z m -0.453708,-0.08819 c 0.262352,-0.437668 0.224284,0.258886 0,0 z M 51.62215,33.763362 c 0.187977,-0.607336 -0.08878,1.103137 0,0 z m -24.941468,24.37173 c 0.91426,-1.119349 4.682668,-1.640617 4.049463,-2.828379 -1.721407,0.622644 -5.24869,1.669846 -4.031309,-1.64088 0.948451,-3.144408 -2.19987,-5.174403 -4.954329,-4.757038 -1.026668,-1.484636 3.288409,-0.42785 1.739,-2.221738 -2.493359,0.777336 -5.289841,-1.256881 -7.763281,0.278951 -1.303627,1.963622 -3.878453,1.19522 -3.376353,-1.001796 -1.048334,-2.581321 -2.6422924,-4.943445 -5.2550302,-5.808404 1.8010968,-2.493781 -0.5851426,-4.371612 -1.2852245,-6.761303 -1.3339015,-2.372411 -1.8744395,2.58718 -0.5288088,3.338253 0.5125531,2.084044 -0.022571,4.559863 2.7657883,5.280506 3.6308312,0.888226 3.4507912,4.49659 3.6760602,7.396502 1.520816,1.620174 3.482243,2.925046 5.021382,4.621118 2.908184,-1.064677 3.336055,3.349942 5.990274,2.843644 1.834298,-1.240094 2.348711,1.525818 3.952368,1.260564 z m 0.694696,-0.743225 c 0.168225,-0.275488 -0.04464,0.519361 0,0 z m -6.874462,-3.064262 c -1.562517,-0.530421 1.670659,-4.255918 -1.059322,-2.343003 -3.108642,2.467322 -4.323383,-4.924269 -0.413055,-3.456245 1.341101,1.926852 6.79581,2.095309 4.641607,5.399537 -0.925989,0.617848 -2.119177,0.509305 -3.16923,0.399711 z m 1.682169,-0.02559 c 3.730642,-0.895762 -0.105173,-4.913559 -1.847948,-4.441895 -1.240456,-3.813805 -6.44199,2.283477 -2.168228,2.611779 1.777663,-2.211309 3.776407,-0.68029 2.15621,1.512717 0.311754,0.679798 1.304506,0.396119 1.859966,0.317399 z m 0.46657,-1.180178 c 0.0038,-0.428293 0.722014,0.920161 0,0 z m -4.037997,-2.168468 c -0.826139,-0.721018 1.093714,0.816142 0,0 z m -0.510654,-0.367095 c -0.05351,-0.381117 0.566525,0.927496 0,0 z m -0.362966,-0.264587 c -0.05347,-0.3811 0.566507,0.927525 0,0 z m -0.487504,-0.338452 c -0.826126,-0.721019 1.093735,0.816174 0,0 z m 7.213951,3.403177 c -0.162298,-0.504329 -0.274427,0.392687 0,0 z m -5.444491,0.352774 c 0.381425,-0.865218 -0.02967,0.501487 0,0 z m 0.362966,-0.617355 c 0.381426,-0.865219 -0.02967,0.501487 0,0 z m 0.362966,-0.617354 c 0.381461,-0.865206 -0.02971,0.501486 0,0 z m 4.630596,0.132291 c -0.204723,-0.444508 0.442339,-0.04399 0,0 z M 19.96425,52.168195 c -0.943187,-0.529728 0.604845,-0.269116 0,0 z m 4.775239,-0.501556 c -0.204724,-0.444506 0.442337,-0.04399 0,0 z m -9.62138,-0.264571 c 0.944192,-1.095667 -0.329232,0.612366 0,0 z m 0.54445,-0.617355 c 0.944193,-1.095657 -0.329252,0.612376 0,0 z m 0.272223,-0.336275 c 0.238943,-0.484179 0.707953,-0.380153 0,0 z m 5.172267,-0.236984 c 0.381425,-0.865218 -0.02967,0.501487 0,0 z m 0.272224,-0.440967 c 0.381426,-0.865219 -0.02967,0.501487 0,0 z m 2.540762,-0.352774 c 0.0038,-0.428292 0.722011,0.920159 0,0 z m -6.261163,-0.926032 c 0.94419,-1.095654 -0.329249,0.612377 0,0 z m -5.988941,-0.08819 c 0.937194,-1.093743 -0.327403,0.615612 0,0 z m 6.261165,-0.24808 c 0.486022,-0.904717 0.448992,-0.04393 0,0 z m 4.8093,-0.677951 c 0.372203,-0.852719 -0.02801,0.509969 0,0 z m -4.083368,-0.132291 c 0.944185,-1.095642 -0.329265,0.612393 0,0 z m 1.497234,-0.09592 c -0.733619,-0.669031 1.127901,0.868575 0,0 z m 2.949099,-0.389144 c 0.381463,-0.86521 -0.02971,0.501485 0,0 z M 6.2991676,36.216633 c 0.262353,-0.437665 0.2242858,0.258884 0,0 z m 0.453708,-0.08819 c 0.2623533,-0.437666 0.2242865,0.258884 0,0 z m 27.5570634,21.84404 c 0.925543,-1.48965 -1.163456,-0.560972 0,0 z M 23.262875,57.480766 c -1.068515,-0.783475 -0.966805,1.087577 0,0 z m 18.649487,-0.0843 c -0.806016,-0.181035 -0.506423,0.892855 0,0 z m -8.373726,0.223246 c -0.141526,-0.414207 -0.153649,0.362014 0,0 z M 31.86232,57.283975 c -0.357388,-0.06799 -0.07038,0.306132 0,0 z m 0.562842,0.10607 c -0.212437,-0.260462 -0.163893,0.254853 0,0 z m 1.385699,-0.167199 c -0.69737,-0.707731 -0.895455,0.547426 0,0 z m 3.315623,-0.312221 c 1.234498,-2.969498 4.846661,-1.766053 7.295668,-2.47658 3.124077,-0.779304 2.952907,-5.450405 6.19587,-5.978835 3.36573,0.759668 -1.369352,-4.39565 1.977488,-4.393514 0.412398,-2.295653 5.331176,-5.51036 0.470604,-6.173668 -2.946616,-0.589677 -0.931758,-4.726582 -3.606292,-5.119307 -2.51974,0.201602 -4.823323,-1.860187 -7.136217,-0.0111 -2.536517,0.846254 -4.943322,-1.390576 -7.740034,-0.705241 -3.048591,0.834445 1.427433,1.578063 0.692575,3.700198 0.01243,2.247173 6.457287,-1.555189 5.277492,2.783706 -0.791961,1.629976 0.16915,7.126616 -2.590386,5.669389 -1.101189,-1.317265 -0.289861,-2.745841 0.968404,-2.865287 0.254494,-3.471202 -5.209754,-2.982572 -2.989327,0.317919 1.712586,3.883383 -4.051025,-1.881231 -4.109378,1.970039 0.922842,2.31004 -1.081195,7.454671 3.159053,7.170551 0.935084,1.746089 -2.236576,3.045035 -2.814935,1.164742 -0.822149,1.700049 0.255416,3.777063 2.03526,2.780543 1.147694,0.481894 1.621408,1.939835 2.914155,2.166446 z m -0.767697,-0.488871 c 0.168227,-0.275479 -0.04464,0.519362 0,0 z m -0.08357,-0.477715 c 0.07641,-0.413543 0.07641,0.413543 0,0 z m -0.09791,-0.492413 c 0.168227,-0.275483 -0.04464,0.519366 0,0 z m -0.08716,-0.455668 c -1.854189,0.393278 0.09985,-1.145431 0,0 z m -0.17789,-0.992177 c 0.07641,-0.413543 0.07641,0.413543 0,0 z m 4.06904,-0.176387 c -0.790548,-0.249615 0.389763,-0.495496 0,0 z m 4.854671,-0.176387 c -0.234342,-0.879603 0.593324,1.227478 0,0 z m -9.021617,-0.139639 c 0.168233,-0.275475 -0.04464,0.519372 0,0 z m 8.704021,-0.389522 c -0.04941,-0.589129 0.377555,0.910182 0,0 z m -8.787599,-0.08819 c 0.07641,-0.413547 0.07641,0.413534 0,0 z m 5.430163,0.08819 c 0.578945,-0.843146 0.118921,0.369276 0,0 z m -5.528067,-0.580607 c 0.168273,-0.275448 -0.04467,0.519415 0,0 z m 8.522538,-0.03674 c -0.04943,-0.589134 0.377538,0.910123 0,0 z m -1.542606,0 c 0.578957,-0.843146 0.118923,0.369278 0,0 z m 0.444062,-0.06615 c -2.513042,-1.267253 2.566361,-2.99193 1.133756,-0.463353 -0.272735,0.323339 -0.709024,0.535969 -1.133756,0.463353 z m 0.702855,-0.575106 c 1.177485,-3.302658 -3.293472,0.826414 0,0 z m -0.239502,-0.417071 c -0.04948,-0.589132 0.377581,0.910124 0,0 z m -0.543609,-0.395888 c -0.331866,-1.520096 1.101249,0.438719 0,0 z m 0.271381,-0.08397 c -0.07069,-0.411852 -0.290327,0.266605 0,0 z m -7.698701,1.097214 c 0.07641,-0.413543 0.07641,0.413543 0,0 z m -0.09791,-0.492416 c 0.168221,-0.275491 -0.04463,0.519348 0,0 z m 9.24847,-0.158239 c 0.0427,-0.734117 0.496211,0.0046 0,0 z m 0.63519,-0.440969 c 0.04266,-0.734129 0.496242,0.0046 0,0 z m 0.362966,-0.26458 c 0.04267,-0.734127 0.496234,0.0046 0,0 z m -9.45413,-0.11514 c 0.262353,-0.437664 0.224282,0.258886 0,0 z m 2.432873,-0.251842 c -0.549091,-0.679712 0.388799,0.148505 0,0 z m 7.384224,0.102406 c 0.0427,-0.73412 0.496211,0.0046 0,0 z m -10.874659,-0.31948 c 0.07641,-0.413536 0.0764,0.413543 0,0 z m 2.418679,0.116142 c 0.262354,-0.437668 0.224283,0.258887 0,0 z m 0.924494,-0.270481 c 0.51846,-0.805037 0.491094,0.370251 0,0 z m 3.17912,-0.08119 c -0.420897,-1.615694 -3.989025,-3.720026 -0.62659,-4.612791 1.090314,1.046977 1.924529,3.215858 1.545973,4.475901 -0.204717,0.290594 -0.640374,0.391554 -0.919383,0.13689 z m 0.640378,-0.118057 c 1.629137,-1.362205 -1.218669,-0.846706 0,0 z m 0.04279,-0.23792 c 0.114887,-0.335515 0.169277,0.690929 0,0 z m -1.146057,-1.124619 c 2.680248,-1.163731 -1.865491,-4.26604 -1.515076,-1.137186 0.323404,0.38553 0.819706,1.968463 1.515076,1.137186 z m -0.08479,-0.852456 c -2.274514,-0.814269 0.909017,-2.274178 0,0 z m -0.07656,-0.43524 c 0.496182,-1.546192 -1.220506,-0.147542 0,0 z m -0.286399,-0.259343 c -0.0495,-0.589138 0.377565,0.910066 0,0 z m 5.898197,3.141668 c 0.04266,-0.734129 0.496243,0.0046 0,0 z m 0.722506,-0.191198 c -1.455203,-0.222648 0.4195,-0.355861 0,0 z m -12.33026,-0.179719 c 0.168227,-0.275485 -0.04464,0.519367 0,0 z M 39.7998,49.46181 c 1.135165,-1.070984 -0.05795,0.454043 0,0 z M 38.313775,49.3702 c -0.549091,-0.679706 0.388799,0.148501 0,0 z m -3.308948,-0.217073 c 0.07641,-0.413549 0.07641,0.413541 0,0 z m 11.775201,-0.06615 c -0.679178,-0.797571 1.014777,1.003305 0,0 z M 40.97944,48.932638 c 1.135169,-1.070971 -0.05797,0.454044 0,0 z m -6.072518,-0.271929 c 0.168227,-0.275484 -0.04464,0.519366 0,0 z m 11.328657,-0.191087 c -0.592244,-0.7191 1.006482,1.009107 0,0 z m -8.28477,-0.06955 c -0.549135,-0.679714 0.388775,0.14845 0,0 z M 34.823344,48.183 c 0.07641,-0.413534 0.07641,0.413547 0,0 z m 7.517218,0.05611 c 0.246788,-0.789694 0.669621,0.07187 0,0 z m 3.44131,-0.298641 c -0.679184,-0.797572 1.014766,1.003287 0,0 z m 5.853987,-0.0441 c -0.743685,-0.863996 1.219415,1.213036 0,0 z M 34.718276,47.703264 c -1.163306,0.329304 -0.360997,-0.620095 0,0 z m -1.610662,-0.110217 c 0.386063,-0.451457 0.316507,0.281466 0,0 z M 51.04488,47.41131 c -0.590677,-0.713374 0.963035,0.966111 0,0 z m -5.807458,-0.08819 c -0.679177,-0.797574 1.014769,1.003301 0,0 z m -1.71722,0.122253 c 0.246796,-0.789683 0.669613,0.07186 0,0 z m -8.878341,-0.232494 c 0.07641,-0.413547 0.07641,0.413534 0,0 z m 2.751118,-0.271228 c -0.161595,-0.858583 0.42451,0.461753 0,0 z m 13.074486,0.01259 c -0.982411,-0.178078 -0.641816,-1.354159 0,0 z m -5.63122,-0.09383 c 2.021315,-1.088873 2.083918,-5.955494 4.54747,-5.164062 1.280764,1.552373 0.0273,3.398221 -1.589135,2.43672 -1.22372,0.599783 -2.216886,1.596495 -2.958335,2.727342 z m 4.930556,-2.606168 c 1.909736,-2.351904 -4.012252,-3.246903 -2.158963,-0.469527 0.680065,0.331564 1.467517,0.17818 2.158963,0.469527 z m -1.981748,-0.921879 c 0.836093,-1.217152 -0.34182,0.772601 0,0 z m 0.816674,-1.146516 c 0.836094,-1.21716 -0.34181,0.772591 0,0 z m -14.05777,4.534616 c 0.168224,-0.275483 -0.04464,0.519361 0,0 z m 3.622495,-0.213134 c 0.578953,-0.843148 0.118921,0.36928 0,0 z m -3.706073,-0.264581 c 0.07641,-0.413536 0.0764,0.413543 0,0 z m 9.778887,-0.06615 c -0.679184,-0.797572 1.014766,1.003287 0,0 z m 6.358774,-0.02205 c 0.836096,-1.217156 -0.341816,0.772592 0,0 z m -13.463905,0.04068 c -0.549093,-0.679713 0.388801,0.148505 0,0 z m 2.030475,-0.128881 c 0.578961,-0.84314 0.118923,0.369278 0,0 z m 10.06544,-0.15434 c -0.592246,-0.7191 1.006481,1.009102 0,0 z M 34.362474,45.750333 c 0.168231,-0.27548 -0.04464,0.519373 0,0 z m 9.378873,-0.14699 c -0.693152,-0.805594 1.11496,1.113484 0,0 z m -11.087441,0.127682 c -0.937826,-2.011012 2.757172,-0.02216 0,0 z m 0.524048,-0.348166 c 0.03933,-1.843561 -1.391875,1.24901 0,0 z m 6.886566,0.228038 c 0.123157,-0.563013 0.533036,0.673521 0,0 z m 8.62108,-0.139844 c -0.590677,-0.713375 0.96303,0.966104 0,0 z M 34.278895,45.272618 c 0.07641,-0.413547 0.07641,0.413534 0,0 z m 2.492274,-0.04751 c -0.561093,-0.686963 0.374666,0.124169 0,0 z m 3.028631,-0.04068 c -0.04943,-0.589135 0.377541,0.910128 0,0 z m 3.441309,-0.154339 c -0.592244,-0.719104 1.006475,1.009096 0,0 z m 4.809301,-0.08819 c -0.696711,-0.788287 0.912428,0.874374 0,0 z M 34.173826,44.765505 c -0.861747,-0.626932 0.322001,-0.639443 0,0 z m 8.569365,-0.308678 c -0.743686,-0.863996 1.219413,1.213035 0,0 z m -1.037819,0.165138 c 0.04266,-0.734127 0.496235,0.0046 0,0 z m 10.16305,-0.176387 c 0.0427,-0.734118 0.496212,0.0046 0,0 z M 36.388885,44.170199 c -1.116931,-0.810474 0.807893,-0.05325 0,0 z m 5.97827,0.0066 c 0.467928,-1.01227 2.793706,-2.269815 0.822123,-0.73626 l -0.413256,0.365683 -0.408867,0.370577 z m 9.773491,-0.08394 c 0.04266,-0.734128 0.496235,0.0046 0,0 z M 33.999507,43.810076 c 0.168231,-0.275477 -0.04464,0.51937 0,0 z M 46.28211,43.486699 c -0.693754,-0.810727 1.167465,1.164989 0,0 z m 6.218593,0.168071 c -0.868966,-0.353436 0.326918,-0.587031 0,0 z M 41.745034,43.310312 c -0.758318,-0.857043 1.099681,1.078782 0,0 z m -7.829105,0.02205 c 0.07641,-0.413534 0.07641,0.413547 0,0 z M 45.69113,43.001637 c -0.67918,-0.797574 1.014772,1.0033 0,0 z m 7.087486,0.198435 c -0.204734,-0.44451 0.442342,-0.04398 0,0 z m -1.051649,-0.26945 c -0.190967,-0.374452 0.832653,0.791853 0,0 z m -17.908943,-0.09068 c 0.168275,-0.275447 -0.04467,0.519416 0,0 z m 7.426772,-0.102886 c -0.592247,-0.719103 1.00647,1.009089 0,0 z m 3.857675,-0.220485 c -0.693757,-0.810728 1.167459,1.16498 0,0 z m 5.989306,0.06128 c -0.190956,-0.374425 0.832675,0.791883 0,0 z M 40.746878,42.163796 c -0.758318,-0.857037 1.099687,1.07879 0,0 z m 9.256001,-0.2033 c -0.19101,-0.374442 0.832643,0.791804 0,0 z m -9.65863,-0.199766 c 0.742403,-1.472586 2.009724,-1.460345 0.292675,-0.243809 -0.09756,0.08127 -0.195117,0.162539 -0.292675,0.243809 z m 13.069557,0.02825 c -0.204723,-0.444509 0.442341,-0.04399 0,0 z M 43.8763,41.50235 c -0.679185,-0.797571 1.014772,1.003293 0,0 z m 1.186508,-0.198436 c 0.836092,-1.217143 -0.341824,0.772602 0,0 z M 43.33185,41.061382 c -0.679177,-0.797571 1.014774,1.003301 0,0 z m -5.982071,-0.02205 c -0.04943,-0.589134 0.377539,0.910127 0,0 z m 11.985487,0.0441 c -0.07486,-0.729839 0.579221,-0.227556 0,0 z m 4.441507,-0.08819 c -0.204724,-0.444506 0.442337,-0.04399 0,0 z M 37.110569,40.642965 c -0.78419,-0.16117 0.481503,-0.122405 0,0 z m 5.586092,-0.110749 c -0.679191,-0.797571 1.014765,1.003283 0,0 z m 4.946938,0.105376 c -0.19097,-0.374382 0.832691,0.791875 0,0 z m -1.9456,-0.215618 c 0.836095,-1.217145 -0.341825,0.772601 0,0 z m 1.310409,-0.137156 c -0.190951,-0.374447 0.832648,0.791866 0,0 z m 7.040588,0.09306 c -0.204723,-0.444509 0.442341,-0.04399 0,0 z M 36.714589,39.981007 c -0.04943,-0.589134 0.377539,0.910127 0,0 z m 6.27573,-0.13644 c -0.215275,-3.564175 1.905602,0.751182 0,0 z m 0.511735,-0.05759 c 1.184163,-1.745884 -1.482763,0.06981 0,0 z m 2.535437,0.178033 c -0.240749,-1.108326 0.443528,0.199378 0,0 z m 1.276391,-0.172928 c -3.528526,1.210027 -5.799317,-5.560489 -1.257451,-4.693312 1.464867,-0.360883 3.933875,-0.560924 2.533247,1.700934 -0.412764,0.927558 -0.111585,2.60712 -1.275796,2.992378 z m 0.826296,-0.477239 c -0.453982,-1.32236 1.650107,-5.294203 -1.25234,-3.90822 -3.500973,-1.786725 -4.592444,4.148548 -0.605953,3.945692 0.605807,0.157344 1.263732,0.182178 1.858293,-0.03747 z M 46.884069,38.26123 c -0.02963,-0.613843 0.434923,-0.146979 0,0 z m -3.108644,-1.029813 c 0.439318,-0.930991 0.24859,0.834134 0,0 z m 1.731715,-0.170522 c -1.346747,-2.801993 2.561195,0.617177 0,0 z m 0.370953,-0.276908 c 0.767278,-1.216712 -1.015949,0.02931 5.2e-5,0 l -5.2e-5,0 z m 1.41824,0.41335 c 0.244968,-0.497438 0.267766,0.61257 0,0 z m -3.105637,-0.897212 c 0.008,-1.435289 0.497824,0.617849 0,0 z m 4.394017,-1.67098 c 0.262355,-0.437667 0.224288,0.258888 0,0 z m 1.295002,5.30776 c -0.07486,-0.729839 0.579221,-0.227556 0,0 z m -8.362694,-0.374823 c -0.592249,-0.719101 1.006479,1.009097 0,0 z m 12.766407,0.104674 c 0.07881,-0.721227 0.379995,0.489104 0,0 z M 42.340562,39.50674 c 0.04271,-0.73412 0.496205,0.0046 0,0 z m -1.36799,-0.38562 c -0.679186,-0.797572 1.014764,1.003286 0,0 z m 1.640215,0.03285 c 0.04266,-0.734129 0.496242,0.0046 0,0 z m 0.272225,-0.352774 c 0.0427,-0.734119 0.496209,0.0046 0,0 z m 7.535178,0.0055 c -0.413171,-0.921206 1.150973,-0.367913 0,0 z m -7.49515,-0.814859 c -0.190931,-0.374418 0.832676,0.791906 0,0 z m 7.770906,-0.0025 c 0.168215,-0.275495 -0.04463,0.519335 0,0 z m -8.406096,-0.35029 c -0.190998,-0.374439 0.832641,0.791815 0,0 z m -1.088898,-0.617356 c -0.190933,-0.374419 0.832674,0.791899 0,0 z m 9.767218,-0.0025 c 0.168231,-0.275477 -0.04464,0.51937 0,0 z M 39.930571,36.316102 c -0.190972,-0.374452 0.832649,0.791846 0,0 z m 1.233131,-0.259707 c -0.204724,-0.444511 0.44234,-0.04398 0,0 z m -2.906508,-0.220483 c 0.381426,-0.865219 -0.02967,0.501487 0,0 z m -1.458732,-0.154339 c -0.679182,-0.797573 1.014767,1.003292 0,0 z m 2.043211,0.01718 c -0.190961,-0.374451 0.832653,0.79186 0,0 z M 38.257194,35.38706 c -0.343307,-0.60973 1.514644,1.125849 0,0 z m 3.207372,-0.110828 c -0.04294,-1.047418 0.274501,0.393754 0,0 z m -5.301295,-0.123823 c -0.592243,-0.719104 1.006474,1.009095 0,0 z M 50.581026,34.98192 c 0.262353,-0.437666 0.224282,0.258887 0,0 z m -8.959231,-0.167586 c 0.168224,-0.275491 -0.04463,0.519357 0,0 z m 8.505523,0.07939 c 0.262355,-0.437666 0.224287,0.258889 0,0 z m -0.544448,-0.08819 c 0.262352,-0.437668 0.224284,0.258886 0,0 z m -4.785123,-0.255781 c 0.168227,-0.27548 -0.04464,0.519362 0,0 z m -3.085211,-0.08819 c 0.168231,-0.275478 -0.04464,0.519371 0,0 z m -5.230143,-0.08571 c -0.190958,-0.374446 0.832651,0.79186 0,0 z m 2.43332,-0.01829 c 0.08863,-1.034217 0.226466,0.375774 0,0 z m 8.670844,0.0952 c 0.262355,-0.437667 0.224284,0.258886 0,0 z m -0.453708,-0.08819 c 0.262352,-0.437668 0.224284,0.258886 0,0 z m 0.949143,-0.292528 c 0.0687,-0.715456 0.0687,0.715456 0,0 z M 46.5884,34.276369 c 0.262354,-0.437668 0.224283,0.258887 0,0 z M 35.897915,34.064155 c -0.448353,-0.553659 1.436753,1.010207 0,0 z m 5.905363,0.04463 c 0.168227,-0.275485 -0.04464,0.519368 0,0 z m 4.331414,0.07939 c 0.262366,-0.437616 0.224284,0.258856 0,0 z m -0.544449,-0.08819 c 0.262317,-0.437684 0.224299,0.258898 0,0 z m -0.616787,-0.182286 c 0.34592,0.553092 0.371366,-0.167217 0,0 z m -0.381369,0.0058 c 0.262352,-0.437668 0.224284,0.258886 0,0 z M 41.894019,33.75595 c 0.168231,-0.27548 -0.04464,0.519373 0,0 z m 2.24436,0.07939 c 0.262355,-0.437667 0.224288,0.258888 0,0 z M 43.59393,33.74715 c 0.262356,-0.437667 0.224289,0.258888 0,0 z M 36.4998,33.631035 c -0.200796,-0.640267 0.589118,-0.0182 0,0 z m 6.640422,0.02795 c 0.262362,-0.437627 0.224289,0.258856 0,0 z m -0.544448,-0.08819 c 0.262355,-0.437667 0.224284,0.258886 0,0 z m -0.605821,-0.270448 c 0.474915,-0.414985 0.08642,1.523258 0,0 z m -0.392336,0.0941 c 0.262352,-0.437668 0.224284,0.258886 0,0 z m 3.482881,-0.160238 c 0.106233,-0.455177 0.01805,0.65233 0,0 z m -5.727241,-0.05968 c -0.549427,-0.637056 1.078628,0.359328 0,0 z m -2.631504,-0.124061 c 0.16823,-0.275478 -0.04464,0.51937 0,0 z m 3.423999,0.07939 c 0.262316,-0.437682 0.224298,0.258897 0,0 z m -1.542605,-0.264579 c 0.262318,-0.437685 0.2243,0.258898 0,0 z m -1.797816,-0.153771 c -0.07901,-0.233334 -0.06323,-0.186748 0,0 z m 1.344108,0.06558 c 0.262353,-0.437666 0.224282,0.258887 0,0 z m -0.544449,-0.08819 c 0.262354,-0.437668 0.224283,0.258887 0,0 z m -0.453708,-0.08819 c 0.262353,-0.437667 0.224283,0.258888 0,0 z m 8.019957,-0.160238 c 0.106259,-0.455169 0.01805,0.652344 0,0 z m -9.018114,-0.01615 c 0.262352,-0.437665 0.224286,0.258888 0,0 z m -0.544449,-0.08819 c 0.262352,-0.437665 0.224286,0.258888 0,0 z m -2.886714,24.666243 c -0.648161,-0.490748 -0.470495,0.837779 0,0 z M 29.10062,55.336221 c 3.75558,0.814024 3.084998,-5.070366 2.453331,-6.774131 -2.157363,0.750581 -4.124273,-0.512599 -5.97389,-1.188074 1.682016,-1.655673 4.234411,-3.718444 6.255732,-3.663547 0.0994,-3.770588 0.05832,-7.54277 0.06951,-11.314168 -2.892424,-0.95567 0.05478,2.525449 -1.823686,3.414046 -1.820522,2.088398 -0.547892,5.265716 -3.707818,5.988956 -1.073984,-0.64575 -0.481556,-4.749554 1.303921,-3.205212 -0.02152,-1.796613 3.838752,-4.454468 1.755776,-5.609885 -1.832048,0.451377 -4.591771,-2.066686 -4.310044,1.651814 -2.117467,3.473819 -5.583818,-0.63897 -7.436418,-2.128815 -2.804928,0.145285 -5.456255,0.346924 -8.1755449,0.08152 -2.0766695,-1.206225 -4.8367144,0.368289 -2.8678992,2.655362 1.5934471,1.393509 1.5114646,3.318785 0.8433196,4.938077 3.1197735,0.855666 4.2322645,3.383432 5.1204945,6.272341 0.772643,3.225801 5.814379,0.141088 4.257225,-2.298613 1.40272,2.494296 5.285108,3.864368 6.668836,0.572818 2.347223,-1.043389 0.820363,1.955101 0.702946,2.374109 0.779065,1.366132 -3.624934,1.260506 -0.986394,1.694202 3.930344,-0.206703 4.091444,4.279517 3.727426,6.838565 0.562493,0.742615 1.697759,0.408705 2.123178,-0.299364 z m -1.54376,1.085527 c 0.168231,-0.27548 -0.04464,0.519373 0,0 z m 0.09791,-0.477714 c 0.0764,-0.41355 0.07641,0.41353 0,0 z m 0.08357,-0.492414 c 0.168231,-0.275479 -0.04464,0.519372 0,0 z m 0.128856,-0.54386 c 0.5706,-1.237131 1.285988,0.753278 0,0 z m 1.973721,-0.08522 c 0.831509,-0.338121 0.404699,0.219397 0,0 z m -1.823188,-0.818765 c 0.07641,-0.413543 0.07641,0.413543 0,0 z M 28.1013,53.51136 c 0.168225,-0.275486 -0.04464,0.51936 0,0 z m 0.09791,-0.477714 c 0.0764,-0.413546 0.07641,0.41354 0,0 z m 0.08357,-0.492414 c 0.168254,-0.275453 -0.04466,0.519407 0,0 z m 0.09791,-0.477715 c 0.0764,-0.413546 0.07641,0.41354 0,0 z m 0.08357,-0.492414 c 0.168224,-0.275487 -0.04463,0.519351 0,0 z m 0.10498,-0.477716 c -0.56288,-0.954933 0.688562,-0.379156 0,0 z m 2.405946,-0.06224 c 0.579171,-0.503775 0.384372,0.305417 0,0 z m -1.270381,-0.08819 c 0.579171,-0.503775 0.384372,0.305417 0,0 z m -2.081384,-0.350779 c 0.262355,-0.437667 0.224288,0.258888 0,0 z m 1.12024,-0.468915 c 0.07641,-0.413541 0.07641,0.413549 0,0 z m 0.08357,-0.492413 c 0.168227,-0.275484 -0.04464,0.519366 0,0 z m 0.09791,-0.477716 c 0.07641,-0.41354 0.0764,0.413546 0,0 z m 0.08357,-0.492413 c 0.168227,-0.275484 -0.04464,0.519366 0,0 z M 25.91912,48.491685 c -0.204723,-0.444508 0.442339,-0.04399 0,0 z m -13.069546,-1.05832 c 0.937196,-1.093747 -0.327393,0.615602 0,0 z m 0.577047,-0.455849 c 1.270579,-1.556115 -0.423758,0.937021 0,0 z m 12.217507,-0.470182 c 0.0038,-0.428293 0.722014,0.920161 0,0 z m 1.000935,0.0441 c -0.204736,-0.444511 0.442341,-0.04398 0,0 z m -13.341781,-0.39687 c -0.392247,-0.883177 0.861905,1.302179 0,0 z m 6.351905,0.0441 c 0.937195,-1.09374 -0.327404,0.615613 0,0 z m -5.263007,0.01651 c 0.238942,-0.484174 0.707955,-0.380166 0,0 z M 19.927412,45.8624 c 0.238936,-0.484162 0.707966,-0.380182 0,0 z M 12.92874,45.647459 c -0.05353,-0.381107 0.566532,0.927502 0,0 z m 2.280113,-0.154339 c 0.944191,-1.095655 -0.32925,0.612383 0,0 z m -2.552337,-0.198435 c -0.08127,-0.395785 0.666553,1.031488 0,0 z m 7.981779,-0.211679 c -1.923863,-1.929877 -4.924921,-5.127239 -0.999817,-6.715424 1.864441,-0.616308 5.26684,3.205443 2.247105,3.561648 -1.531251,0.976812 1.065462,3.481084 -1.247288,3.153776 z m 0.831723,-0.471821 c -0.402769,-0.679737 -0.100353,0.655656 0,0 z m -0.325033,-0.124303 c -0.169215,-1.27593 -2.065483,-2.398114 -0.01557,-1.412166 1.570227,-0.125008 0.602867,-3.89634 0.156284,-1.341582 -2.571072,-1.292247 3.067565,-1.608379 0.205332,-2.740015 -3.489336,-1.143471 -4.94749,3.734967 -1.371865,4.728013 0.323451,0.27865 0.661346,0.54241 1.025818,0.76575 z m -1.399056,-2.68139 c 0.238931,-0.484165 0.707968,-0.380174 0,0 z M 18.83851,41.303909 c -0.392232,-0.88317 0.861911,1.302207 0,0 z m 2.684396,-1.840236 c -0.405696,-0.322768 -0.617726,-0.491458 0,0 z m -0.05289,4.623537 c -0.197854,-0.418244 -0.291826,0.420455 0,0 z m -0.07656,-2.823843 c -0.799875,-1.639992 -1.034274,0.137564 -0.06976,0.435251 l 0.06976,-0.435251 z m -0.694742,-2.869844 c -0.169666,-0.500032 -0.213828,0.398156 0,0 z m -4.854671,6.570417 c 0.937196,-1.093744 -0.327402,0.615612 0,0 z m -3.538921,-0.132289 c -0.39224,-0.883175 0.861904,1.302187 0,0 z m 9.788508,-0.330727 c -0.05355,-0.381115 0.56654,0.927497 0,0 z M 11.930581,44.324537 c -0.08128,-0.395793 0.666563,1.031483 0,0 z m 15.531153,0.02205 c -0.204723,-0.444508 0.442339,-0.04399 0,0 z M 11.658357,43.971763 c -0.08128,-0.39579 0.666566,1.031484 0,0 z m 13.169094,-0.02205 c 0.381462,-0.865202 -0.02972,0.50149 0,0 z m 2.631503,-0.0898 c 0.304277,-0.392804 0.504219,0.889266 0,0 z M 17.56813,43.552837 c 0.944187,-1.09565 -0.329254,0.612385 0,0 z m 7.531545,-0.0441 c 0.372197,-0.852724 -0.028,0.509967 0,0 z M 16.025524,43.20006 c -0.725916,-1.324346 1.206046,1.74409 0,0 z m 6.170423,0.08819 c 0.944189,-1.095641 -0.329265,0.612391 0,0 z m 7.818097,0.0441 c 0.07641,-0.413547 0.07641,0.413534 0,0 z m -2.189344,0.0441 c -0.204725,-0.444512 0.44234,-0.04398 0,0 z M 11.091321,43.108467 c -0.549104,-0.679713 0.388802,0.148497 0,0 z m 7.111999,-0.08478 c 0.944188,-1.095661 -0.32924,0.612378 0,0 z m -6.170423,0.0062 c 0.166174,-0.551218 0.479492,0.15632 0,0 z m 13.246066,-0.175274 c 0.190302,-0.591615 0.538739,1.034892 0,0 z m -2.810792,0.09734 c 0.486046,-0.904736 0.448987,-0.04394 0,0 z m 7.629452,-0.112043 c 0.168225,-0.275486 -0.04464,0.51936 0,0 z M 12.668087,42.677083 c 0.166178,-0.551216 0.47949,0.15632 0,0 z m 12.23853,-0.116447 c -0.08127,-0.395781 0.666553,1.031488 0,0 z m -14.08752,-0.06955 c -0.561068,-0.686965 0.374693,0.124218 0,0 z m 19.376431,-0.12888 c 0.07641,-0.413547 0.07641,0.413534 0,0 z m -14.895936,-0.17636 c -0.392247,-0.883175 0.861905,1.302182 0,0 z m 9.244059,0.110241 c -0.05353,-0.381103 0.566534,0.927499 0,0 z m 1.281956,-0.02205 c 0.381426,-0.865219 -0.02967,0.501487 0,0 z m 2.362059,0.13229 c -0.204724,-0.444511 0.44234,-0.04398 0,0 z m -4.993563,-0.26458 c 0.944188,-1.095661 -0.32924,0.612378 0,0 z m 0.986582,-0.110242 c -0.08133,-0.395796 0.666586,1.031466 0,0 z m 6.112658,-0.198436 c -0.577953,-0.949767 0.614501,-0.36196 0,0 z M 14.921285,41.692172 c -2.971035,1.433894 -2.806108,-5.10531 -0.226892,-2.455197 0.425885,0.666311 1.153077,1.86197 0.226892,2.455197 z m 0.147743,-1.34896 c -0.538744,-3.504912 -4.443668,1.585935 -0.830504,1.072113 0.552085,0.03875 1.323514,-0.477942 0.830504,-1.072113 z m -0.571369,0.560049 c -0.682351,-1.052771 0.473413,0.368267 0,0 z m -0.54445,-1.146515 c -0.682361,-1.052773 0.473412,0.368251 0,0 z m 17.02198,1.929722 c 0.238842,-0.394478 0.254927,0.258876 0,0 z m -2.395624,-0.310715 c -0.558084,-0.274447 0.413396,-0.217387 0,0 z M 10.183906,41.080016 c -0.5490972,-0.679712 0.388802,0.148502 0,0 z m 14.008353,-0.08478 c 0.944187,-1.095659 -0.329241,0.612384 0,0 z m 6.26833,-0.09554 c 0.168227,-0.275484 -0.04464,0.519366 0,0 z M 16.116266,40.736858 c 0.166179,-0.551197 0.479486,0.156304 0,0 z m 8.348219,-0.07791 c 0.238929,-0.484156 0.707975,-0.380189 0,0 z m 6.094008,-0.236984 c 0.0764,-0.413554 0.07641,0.413534 0,0 z M 9.820941,40.28627 c -0.5610683,-0.686965 0.374693,0.124218 0,0 z m 6.930515,0.09781 c 0.166174,-0.551211 0.479493,0.156323 0,0 z m 8.416605,-0.496953 c -0.425629,-0.9598 -2.312956,-3.13717 -0.463741,-1.227815 0.312876,0.244906 1.218425,0.880829 0.463741,1.227815 z m 5.47401,0.04243 c 0.168231,-0.275481 -0.04464,0.519374 0,0 z M 9.582877,39.672329 c 0.1453879,-0.552738 0.133172,0.475897 0,0 z m 12.839924,-0.13229 c 0.701703,-0.951021 -0.132536,0.466829 0,0 z m 8.317175,-0.08819 c 0.07641,-0.41354 0.07641,0.41354 0,0 z M 22.921879,39.14317 c 0.944191,-1.095649 -0.329255,0.612384 0,0 z M 17.401387,39.0512 c -0.68236,-1.052775 0.473413,0.368255 0,0 z m 11.965919,0.180164 c -0.204723,-0.444509 0.442341,-0.04399 0,0 z M 9.408557,39.047625 c 0.1682051,-0.275473 -0.044636,0.519354 0,0 z m 21.42216,-0.03674 c 0.07641,-0.413543 0.07641,0.413543 0,0 z m -7.273648,-0.396874 c 0.944188,-1.095661 -0.32924,0.612378 0,0 z m 5.943569,0.13229 c 0.153649,-0.362014 0.141526,0.414207 0,0 z m 1.420821,-0.26458 c 0.07641,-0.413543 0.07641,0.413543 0,0 z M 9.227074,38.430281 c 0.16821,-0.275472 -0.044638,0.519362 0,0 z m 7.720605,-0.349202 c -0.68236,-1.052775 0.473413,0.368255 0,0 z m 12.782593,0.180164 c -0.204722,-0.444507 0.442339,-0.04399 0,0 z m -16.51057,-0.271931 c 0.168224,-0.275483 -0.04464,0.519361 0,0 z m 7.615121,0.101746 c 0.166174,-0.551207 0.479491,0.156324 0,0 z m 10.170214,-0.101746 c 0.168224,-0.275483 -0.04464,0.519361 0,0 z m -11.599392,-0.06074 c -2.05994,-1.788051 2.207411,0.118464 0,0 z m 0.310213,-0.224151 c 0.06269,-1.701371 -1.498237,0.720273 0,0 z m 5.020851,-0.06053 c 0.944189,-1.095657 -0.329239,0.612375 0,0 z m -3.266694,0.0944 c 0.166173,-0.55121 0.479492,0.156323 0,0 z m 5.593746,-0.09588 c -2.175863,-0.910586 -0.395434,-2.023208 0,0 z m 4.039181,-0.130803 c 0.0764,-0.413554 0.07641,0.413534 0,0 z M 8.95485,37.460148 c 0.1682099,-0.275473 -0.044638,0.519363 0,0 z m 16.326308,-0.257237 c 0.944191,-1.095657 -0.329248,0.612379 0,0 z m -8.789245,0.05172 c -0.183806,-0.478408 0.770213,0.404633 0,0 z m 3.582819,-0.05513 c -0.549135,-0.679709 0.388775,0.148447 0,0 z m 10.018506,0.09161 c -0.204723,-0.444509 0.442341,-0.04399 0,0 z M 12.947476,37.019175 c 0.168275,-0.275448 -0.04467,0.519418 0,0 z m 14.783703,-0.08084 c 0.944189,-1.095662 -0.329236,0.612375 0,0 z m 3.455342,0.08084 c 0.168251,-0.275455 -0.04466,0.5194 0,0 z M 8.773366,36.842787 c 0.1682118,-0.275468 -0.044649,0.519364 0,0 z m 7.713029,0 c 0.168227,-0.275482 -0.04464,0.519365 0,0 z M 12.856735,36.6664 c 0.168227,-0.275482 -0.04464,0.519365 0,0 z m 18.427691,-0.12494 c 0.07641,-0.413543 0.07641,0.413543 0,0 z M 16.395653,36.49002 c 0.16823,-0.275479 -0.04464,0.519371 0,0 z m 11.607751,0.112043 c 0.486019,-0.904713 0.448993,-0.04394 0,0 z m 2.227392,-0.224487 c -0.05621,-0.609921 0.896811,0.768158 0,0 z m -10.53024,-0.0125 c -1.302253,-0.505204 0.56285,-0.245152 0,0 z m 4.128739,0.0503 c 0.166168,-0.55121 0.479492,0.156323 0,0 z m 2.45002,0.01026 c 0.238934,-0.484163 0.707968,-0.380179 0,0 z m -9.974402,-0.288397 c 0.168227,-0.275482 -0.04464,0.519365 0,0 z m 15.06309,-0.08819 c 0.168221,-0.275492 -0.04463,0.519349 0,0 z m -23.6169708,-0.097 c 0.2623533,-0.437666 0.2242865,0.258884 0,0 z m 0.6116927,-0.01933 c -0.2335559,-0.495308 0.7859726,0.522005 0,0 z m 17.2814001,-0.09681 c -0.0495,-0.58914 0.377566,0.910063 0,0 z m -9.429954,-0.05145 c 0.168225,-0.275487 -0.04464,0.519358 0,0 z m 10.881817,-0.08084 c 0.944189,-1.095669 -0.329231,0.612371 0,0 z m -18.346799,0.07204 c 0.2623618,-0.437659 0.22428,0.258888 0,0 z m 3.835321,-0.07939 c 0.168227,-0.275483 -0.04464,0.519366 0,0 z m 12.333682,0.101747 c 0.166177,-0.551202 0.479487,0.156313 0,0 z M 9.293638,35.687478 c 0.2623587,-0.437655 0.2242833,0.258884 0,0 z m 22.172269,-0.116142 c 0.07641,-0.413543 0.07641,0.413543 0,0 z m -21.718561,0.02795 c 0.262362,-0.43766 0.2242807,0.258888 0,0 z m 0.544448,-0.08819 c 0.262362,-0.43766 0.22428,0.25889 0,0 z m 5.831636,-0.07939 c 0.168219,-0.275495 -0.04463,0.519349 0,0 z m 9.278717,0.01123 c 0.328654,-0.675229 0.506971,0.346385 0,0 z M 8.4313546,34.998073 c 0.169789,-0.760991 -0.065189,1.276948 0,0 z m 2.3141474,0.424819 c 0.262361,-0.437659 0.224279,0.258891 0,0 z m 1.741103,-0.05734 c -0.816096,-0.404177 0.405616,-1.012793 0,0 z m 14.972349,0.08999 c 0.48601,-0.904701 0.448993,-0.04394 0,0 z M 11.289951,35.334698 c 0.262362,-0.43766 0.22428,0.25889 0,0 z m 0.453708,-0.08819 c 0.262362,-0.437662 0.224282,0.258888 0,0 z m 4.289029,-0.167587 c 0.168219,-0.275495 -0.04463,0.519349 0,0 z m 15.516799,0 c 0.168223,-0.275488 -0.04464,0.51936 0,0 z m -18.807672,-0.0088 c 0.262353,-0.437668 0.224283,0.258887 0,0 z m 13.446758,0.02236 c 0.166174,-0.551212 0.479491,0.156322 0,0 z M 13.286264,34.981934 c 0.262352,-0.437665 0.224286,0.258888 0,0 z m 0.453708,-0.08819 c 0.262353,-0.437667 0.224283,0.258888 0,0 z m 14.393062,-0.124366 c 0.274598,-1.152549 0.441688,0.614937 0,0 z m -13.848614,0.03617 c 0.262354,-0.437665 0.224286,0.25889 0,0 z m 1.650362,-0.06558 c -0.128776,-0.232578 -0.08856,-0.159944 0,0 z m -1.196653,-0.02262 c 0.262352,-0.437668 0.224284,0.258886 0,0 z m 16.909262,-0.116141 c 0.07641,-0.413543 0.07641,0.413543 0,0 z m -16.364813,0.02795 c 0.262349,-0.437661 0.224287,0.258882 0,0 z m 0.998156,-0.176387 c 0.262353,-0.437669 0.224284,0.258886 0,0 z m 10.996737,0.02236 c 0.166183,-0.551195 0.479483,0.156302 0,0 z m 1.361123,0.01026 c 0.238942,-0.484182 0.707952,-0.38015 0,0 z M 16.734442,34.364546 c 0.262352,-0.437668 0.224284,0.258886 0,0 z m -0.865687,-0.380721 c 0.0687,-0.715467 0.06871,0.715446 0,0 z m 1.410135,0.292528 c 0.262354,-0.437665 0.224286,0.25889 0,0 z m 14.452079,-0.07939 c 0.168224,-0.275483 -0.04464,0.519361 0,0 z m -13.998371,-0.0088 c 0.262352,-0.437665 0.224286,0.258888 0,0 z m 9.998581,-0.02795 c 0.566967,-0.785414 0.550393,0.162356 0,0 z m -9.454132,-0.06024 c 0.262352,-0.437665 0.224286,0.258888 0,0 z m -5.945972,-0.424819 c 0.187991,-0.60734 -0.08878,1.103109 0,0 z m 6.4338,0.337122 c -0.239599,-1.120748 0.580812,0.308845 0,0 z M 8.340613,33.498783 c 0.1697834,-0.761 -0.065182,1.276934 0,0 z m 21.114655,0.264581 c 0.937197,-1.093745 -0.327398,0.615608 0,0 z m -2.124273,-0.211727 c -0.329772,-0.719454 0.549051,0.619878 0,0 z m -0.137101,-0.50117 c 0.168225,-0.275489 -0.04464,0.519362 0,0 z m -0.931593,-0.361574 c 0.262352,-0.437668 0.224284,0.258886 0,0 z m -6.266836,23.435424 c 1.596376,-2.474821 -4.95299,-1.479844 -1.05681,-1.648124 0.888435,0.04491 -0.0192,1.922296 1.05681,1.648124 z m 25.03982,0.01451 c 0.300639,-1.278253 2.825592,-2.228331 0.427282,-1.134283 -0.318736,0.238714 -0.7369,0.726662 -0.427282,1.134283 z M 19.293212,55.833792 c -1.051106,-2.378414 -2.357835,0.479243 0,0 z m 27.088245,-0.76102 c 1.017808,-0.688723 -1.661136,0.8429 0,0 z m -27.964706,0.453944 c -1.260039,-0.282577 0.324094,0.70957 0,0 z m 27.553472,0.152737 c -0.191687,-0.421208 -0.191687,0.421208 0,0 z M 17.831774,55.33954 c -0.680006,-0.113412 0.302477,0.493342 0,0 z m 28.504245,-0.08613 c -1.386221,-0.201487 0.649765,0.617654 0,0 z M 15.690353,53.603009 C 13.840316,51.132465 9.8695044,49.320295 11.459175,45.659312 11.018902,41.950219 4.5133452,42.414279 5.3583,38.340612 5.8218467,36.737493 4.169132,35.290624 4.4333953,37.689975 c 0.3289104,3.244604 3.2716688,5.22701 5.7447667,6.898763 -0.2111175,3.278211 0.72398,6.492775 3.791093,8.021105 0.455027,0.48669 1.016907,0.973371 1.721098,0.993166 z M 5.301011,36.393022 c 0.2623529,-0.437665 0.2242857,0.258884 0,0 z m 44.11891,16.801976 c 1.592795,-0.902735 1.674725,-2.694574 -0.09551,-1.133536 -0.153876,0.240047 -0.596581,1.45341 0.09551,1.133536 z m -15.312529,-0.29682 c 3.135415,-1.592428 -3.360247,-3.664909 -1.140926,-0.576858 0.0257,0.513518 0.735976,1.134682 1.140926,0.576858 z m -1.498857,-1.867029 c 0.579173,-0.503775 0.384372,0.305417 0,0 z m 1.270382,-0.08819 c 0.579171,-0.503775 0.384372,0.305417 0,0 z m 19.497057,-1.597212 c -1.299319,0.668863 -1.327247,2.044651 0,0 z m 0.171702,-0.220885 c -0.414913,-3.569621 1.355374,-6.97121 4.748107,-7.80376 1.027721,-1.129695 1.539015,-5.730334 0.709248,-5.264097 -0.379464,2.793146 -1.6266,6.09324 -4.620758,6.375664 -1.178058,1.963796 -1.856596,4.517757 -0.836597,6.692193 z M 30.975738,48.719733 c 2.52514,-1.537063 -0.575805,-4.949292 -2.126045,-3.101741 0.249011,-1.093457 3.369782,-1.485537 0.700795,-1.236348 -1.470125,0.617383 -4.961792,3.864787 -1.526084,3.653802 0.93854,0.362144 1.910183,0.869299 2.951334,0.684287 z m -1.782169,-1.043842 c 0.561636,-0.489316 0.944307,-0.08367 0,0 z m 1.373282,-0.08284 c 0.386064,-0.451458 0.316508,0.281466 0,0 z M 29.288112,47.21288 c 0.07639,-0.413551 0.07641,0.413534 0,0 z m 0.08357,-0.492415 c 0.168221,-0.27549 -0.04463,0.519347 0,0 z m 0.09791,-0.477714 c 0.0764,-0.413554 0.07641,0.413534 0,0 z m 24.879561,1.499289 c -0.601646,-1.315541 -0.419024,2.054887 -0.0802,0.438227 l 0.0802,-0.438227 z M 9.912239,47.82101 c 1.044634,-1.915247 -1.4050321,0.11675 0.157699,0.547176 L 9.9823931,48.09268 9.912239,47.82101 z M 9.361065,47.693044 c -0.6906182,-0.616044 0.5883417,0.943986 0,0 z m 45.406946,0.01241 c 0.508701,-1.497669 -1.223345,-0.591829 0,0 z m 0.367106,-0.519378 c -0.115213,-0.973837 -1.133471,-0.616154 0,0 z M 8.947087,46.349475 C 9.9116862,44.43673 5.7536501,44.584239 7.9503037,46.116696 c 0.032986,0.500155 1.0416167,1.117785 0.9967833,0.232779 z M 7.949529,45.322921 c 0.166174,-0.551206 0.4794913,0.156325 0,0 z m 46.278707,0.343735 c 0.355863,-2.034524 -0.572192,1.903824 0,0 z m -34.936018,0.904055 c -0.641421,-0.690285 -1.161877,-1.033843 0,0 z m 36.831258,-0.568932 c 2.189798,-1.388401 -1.817774,-2.37794 -0.631566,0.01837 0.0967,0.460406 0.682963,0.533768 0.631566,-0.01837 z m -0.313141,-0.778124 c -0.19095,-0.374448 0.832651,0.791873 0,0 z m -45.782316,0.959853 c -0.0034,-3.115 -0.8234078,1.203184 0,0 z m 13.52905,-0.455016 c 0.405508,-2.039842 0.999162,1.422393 1.191457,-0.578643 -1.527095,-1.537176 -2.367703,1.364377 -1.191457,0.578643 z m -14.064934,0.02919 c 0.038059,-0.634648 -0.5661978,0.873913 0,0 z m 14.429831,-0.15434 c 0.972985,-0.803275 -0.647387,0.02694 0,0 z m 0.140016,-0.356577 c 0.154585,-0.631788 0.137866,0.263831 0,0 z m 5.491192,0.444771 c 0.79425,-1.334721 -1.841095,0.522272 0,0 z m 2.352115,-0.217335 c -0.271328,-0.870873 -0.141892,1.324116 0,0 z m 7.713028,-1.465972 c -0.593286,-1.486972 2.04936,-5.594205 -0.36044,-5.22127 -0.36308,1.677808 -0.104836,4.005503 -1.677288,4.718832 0.25886,0.536142 2.07688,1.870142 2.037728,0.502438 z m -0.22102,0.496498 c 0.114888,-0.335513 0.169277,0.690929 0,0 z m -0.296235,-0.497984 c -2.732076,-0.749367 1.27672,-2.440142 0,0 z m -0.02719,-0.380325 c 0.552506,-1.710608 -1.559613,-0.222519 0,0 z M 38.710904,43.33236 c -0.04949,-0.58914 0.377566,0.910069 0,0 z m 0.544448,-0.915233 c 0.04266,-0.73413 0.496243,0.0046 0,0 z m 0.446841,-1.443943 c -0.592253,-0.7191 1.006475,1.009087 0,0 z m -0.453708,-0.529161 c -0.679182,-0.797573 1.014767,1.003292 0,0 z m 15.841262,3.417498 c 1.352717,-1.057389 -0.427449,0.144448 0,0 z M 9.195471,43.754896 C 8.6327196,42.740291 5.2704043,42.177943 7.8754307,43.264474 8.1131092,43.253793 9.4688736,44.69793 9.195471,43.754896 z m -1.3198648,0.118595 c -1.0262087,-0.504645 -0.4804129,0.392479 0,0 z M 54.853582,43.530797 c 0.319978,-1.176313 -0.830818,1.923867 0,0 z m -47.7870556,0.09649 c -0.2946198,-0.451304 -0.3016975,0.283071 0,0 z M 7.1852851,43.25527 c -0.6333774,-1.361827 -1.6719104,0.3482 0,0 z m 29.1798419,-0.4974 c -1.265386,-0.952633 -1.988615,-6.208323 0.167366,-4.553192 -0.971301,1.156698 0.925547,-0.678533 1.697157,0.611883 2.728575,1.588018 1.894867,-4.221984 -0.497901,-1.987864 -0.61237,1.348506 -1.144783,-0.944959 -2.390188,0.574609 -2.571864,0.830424 -4.076539,4.423295 -0.626063,5.225643 0.37843,0.14497 1.529736,1.002379 1.649629,0.128921 z m -2.910068,-1.858181 c 0.168219,-0.275491 -0.04463,0.519342 0,0 z m -0.08357,-0.477715 c 0.07641,-0.413543 0.07641,0.413543 0,0 z m 0.637237,-0.286629 c 0.396698,-1.454519 0.286449,0.758729 0,0 z m 0.856881,-0.02545 c -0.5611,-0.686958 0.374665,0.124161 0,0 z M 33.18748,39.919556 c -0.839261,-0.783677 0.737763,-0.257471 0,0 z m 1.315161,-0.779789 c -0.561099,-0.686963 0.374666,0.124163 0,0 z m 3.482338,-1.137901 c 0.05857,-1.455884 0.438789,0.786075 0,0 z m 1.172771,-0.380029 c -0.592244,-0.719098 1.006482,1.009106 0,0 z m 18.200538,5.18137 c 0.302524,-1.517477 -2.49268,1.235528 -0.03437,0.197604 l 0.02727,-0.156781 0.0071,-0.04082 z m 0.402003,-0.02023 c -0.331961,-0.751445 -0.409172,1.815054 0,0 z m -1.627009,0.334914 c -0.365083,-0.725419 -0.885238,0.345649 0,0 z M 26.914505,41.894302 c -0.312241,-1.977875 -2.204755,0.299958 0,0 z m -0.725932,-0.232413 c -0.129715,-0.57521 0.358799,0.20318 0,0 z m 11.576025,0.0054 c -0.296684,-0.758226 -0.228644,0.63913 0,0 z m -5.405602,-0.39059 c 0.07908,-1.490808 -0.556206,1.005136 0,0 z m -5.679308,-0.900872 c 0.533986,-2.097575 1.227211,0.268874 0.94426,0.270201 3.307557,-0.7664 -3.237554,-3.198388 -1.138608,-0.04007 0.148887,0.223817 0.53521,-0.123049 0.194348,-0.230131 z m 0.734045,-0.152259 c 1.649537,-1.498134 -1.524577,-0.472122 -0.209452,0.0036 l 0.159111,-0.0027 0.05034,-8.59e-4 z M 27.18673,39.981006 c 0.372235,-0.852713 -0.02804,0.509964 0,0 z m 5.172774,-0.25333 c 2.37899,-0.306595 2.261147,-5.304356 -0.204329,-3.187816 -0.371031,1.031532 -0.218713,2.196953 0.204329,3.187816 z m 0.64901,-1.24596 c 0.07641,-0.413543 0.07641,0.413543 0,0 z m -0.0979,-0.492414 c 0.168224,-0.275483 -0.04464,0.519361 0,0 z m -0.08357,-0.477715 c 0.07641,-0.413543 0.07641,0.413543 0,0 z m -0.0979,-0.492414 c 0.168227,-0.275482 -0.04464,0.519365 0,0 z m -0.08357,-0.477714 c 0.07641,-0.413543 0.07641,0.413543 0,0 z m -6.333203,1.920849 c -0.527349,-0.02783 0.30757,0.542678 0,0 z m 9.606197,-0.281217 c 0.09643,-0.900283 -0.290816,0.769175 0,0 z m -6.554019,-0.864335 c 0.437055,-1.877904 -1.139311,1.957296 0,0 z m -0.867808,0.268431 c 0.550273,-1.949337 -1.076599,0.701499 0,0 z m 6.635236,0.142051 c 0.232442,-0.446812 -1.407624,1.14257 0,0 z m 0.0044,-0.25259 c 0.654265,-2.335429 -2.076024,-1.012549 0,0 z m -0.418079,-0.844964 c -0.04948,-0.589132 0.37758,0.910124 0,0 z m -5.651059,0.351038 c -0.351667,-0.655269 -0.04805,0.951933 0,0 z M 4.3818555,36.701311 c -0.2634911,0.218538 0.4477526,0.261754 0,0 z m 24.6644335,-0.07065 c -0.339178,-0.192185 -0.02813,0.518661 0,0 z M 59.755163,36.10049 c -0.512078,0.109344 0.320327,1.248239 0,0 z M 22.700662,35.902054 c 3.084524,1.339557 3.10518,-6.067162 0.345531,-2.506167 -1.20062,0.770158 -5.385139,-1.743012 -3.166991,0.949181 0.852315,0.673001 1.954921,0.906874 2.82146,1.556986 z m -0.268153,-0.558423 c -0.547702,-0.956944 0.419348,0.233203 0,0 z m -0.138656,-0.529296 c 0.168224,-0.275489 -0.04463,0.519353 0,0 z m 1.950512,-0.271979 c 0.231562,-0.753143 0.291819,0.688724 0,0 z m -2.041254,-0.0808 c 0.168225,-0.275489 -0.04464,0.519361 0,0 z m -0.09075,-0.352774 c 0.168225,-0.275489 -0.04464,0.519361 0,0 z m 1.4447,0.0231 c -1.033084,-0.144524 0.265312,-0.757557 0,0 z m -3.828158,-0.296479 c 0.262363,-0.437629 0.22429,0.258856 0,0 z m 2.292716,-0.07939 c 0.168224,-0.275487 -0.04463,0.519351 0,0 z m -1.748267,-0.0088 c 0.262352,-0.437665 0.224286,0.258888 0,0 z m 0.453707,-0.08819 c 0.262355,-0.437666 0.224287,0.258889 0,0 z m 0.54445,-0.08819 c 0.262352,-0.437668 0.224284,0.258886 0,0 z m 3.294237,-0.358662 c -1.151246,-0.230797 0.94749,-0.330439 0,0 z M 25.26414,32.8653 c 0.262353,-0.437669 0.224284,0.258886 0,0 z m 8.812355,3.002834 c 3.051383,-1.236347 -3.427171,-4.550956 -1.160034,-1.552176 1.335855,-1.208724 1.470671,1.605401 -0.360421,0.563485 -0.991845,0.59118 1.094148,1.354024 1.520455,0.988691 z m -0.08416,-0.47317 c -0.04941,-0.589129 0.377553,0.91018 0,0 z m -1.306044,-1.109633 c -0.353093,-0.705839 0.411149,0.328556 0,0 z m 22.828567,0.677044 c 3.428269,1.428883 1.036605,-4.752651 -1.466813,-2.696083 -1.931124,0.453056 0.293152,4.709362 1.466813,2.696083 z M 55.617863,33.5429 c 0.06459,-1.025273 0.06459,1.025262 0,0 z m -25.360459,1.906729 c -0.403402,-1.178968 -0.764449,0.924809 0,0 z m -0.348432,-0.05467 c 0.381425,-0.865218 -0.02967,0.501487 0,0 z m 2.3485,-0.727597 c 0.73354,-1.918167 -1.093406,0.10237 0,0 z M 30.996485,34.05001 c -1.559959,-0.544695 0.06253,1.188458 0,0 z m 2.519826,0.352774 c 0.50547,-1.281725 -0.702874,0.790606 0,0 z m -0.187912,-0.523649 c -0.263508,0.218549 0.447763,0.261763 0,0 z M 4.8232129,32.815284 c -0.090293,-1.881265 -0.938915,2.24871 0,0 z m 17.1110351,0.39687 c 1.881803,0.869582 1.762,-2.197398 -0.0037,-1.282249 -2.531547,-0.472959 -2.947139,2.029921 0.0037,1.282249 z m -0.08357,-0.507112 c 0.106256,-0.455178 0.01805,0.652328 0,0 z m 7.060148,0.34107 c 1.224121,-1.964427 -2.801884,0.322521 -0.09191,0.219388 l 0.06149,-0.146774 7e-6,-1.6e-5 0.03041,-0.0726 0,2e-6 z m -1.196654,-0.6218 c 0.262355,-0.437667 0.224288,0.258888 0,0 z m 0.544449,-0.08819 c 0.262354,-0.437669 0.224285,0.258886 0,0 z m 12.878381,0.975103 c 2.629014,-1.968754 -2.843025,-1.287122 0,0 z m 18.89816,-0.206094 c -1.008373,-2.843207 -2.116699,0.796328 0,0 z M 4.4010168,32.555134 c 0.4662064,-1.500232 -0.9298289,1.311196 0,0 z m 10.9471382,0.404345 c -0.03598,-1.967437 -3.61133,0.03437 -0.676978,-0.03481 0.218409,0.07586 0.45195,0.02117 0.676978,0.03481 z m 33.478184,-0.629261 c -2.717823,-1.901859 -1.353089,1.804355 0,0 z M 9.894944,32.506605 c -1.0279673,-2.08588 -1.9436321,1.327333 0,0 z m 8.67778,-0.09513 c -1.504462,-1.475449 -1.558499,0.607604 0,0 z m 33.386439,-0.0592 c -0.237079,-1.48028 -0.121834,1.318954 0,0 z m -40.017007,-0.0441 c -0.850413,-1.652409 -0.859106,1.306121 0,0 z m 31.569001,-0.242542 c -0.878985,-0.521826 0.212278,0.925734 0,0 z m 12.168408,0.198435 c -0.225261,-2.002809 -0.377384,1.251857 0,0 z m 4.446337,0.247358 c -0.351348,-0.869256 -1.104223,-0.05982 0,0 z M 39.014063,32.219971 c -0.946994,-1.680596 -1.503749,1.431603 0,0 z M 18.850353,32.07905 c -0.504744,-1.116736 -0.184624,0.942697 0,0 z m 8.137788,-0.0639 c -0.981721,-0.89229 -0.685951,0.842239 0,0 z m 24.660758,-0.03792 c -0.479404,0.262713 0.544066,0.499852 0,0 z M 4.0476441,32.17589 c -0.085565,-0.529588 -0.3412346,0.694983 0,0 z M 30.761173,32.043598 c -1.055029,0.186782 -0.915156,-0.107945 0,0 z m 11.74484,0.05884 c -0.331547,-0.755459 -0.250516,1.045359 0,0 z m -27.841612,-0.01474 c -0.16529,-0.64511 -0.527564,0.617479 0,0 z m 0.969401,-0.06063 c -0.2635,0.218554 0.447773,0.261746 0,0 z m 9.102907,0.07166 c -0.32385,-0.630258 -0.407975,0.377287 0,0 z m 16.736467,-0.01382 c -0.394357,-0.634267 -0.50538,0.761659 0,0 z m -6.573417,-0.04129 c -0.496421,-0.529049 -0.35787,0.481315 0,0 z m -5.559809,-0.05329 c -0.212438,-0.260468 -0.163893,0.254851 0,0 z M 4.0476441,31.696022 c -0.015261,-0.751253 -0.3709788,0.430069 0,0 z m 0.453707,0.05539 c -0.4295936,-0.666544 -0.8122876,-0.510564 0,0 z m 1.0353917,-0.611806 c 1.5808822,-2.311991 1.6029131,-5.999529 2.7493289,-7.895893 2.5195203,-1.173934 4.1831143,-4.782941 3.9783323,-7.3273 0.417255,-0.398939 3.500991,0.680507 3.843361,-1.572198 0.655837,-1.7649 2.101846,-5.1313456 3.783552,-2.211201 1.157117,-0.06604 0.02316,-3.9183169 2.708058,-2.9596728 3.469258,0.8447288 0.938326,4.6158448 -1.577804,4.6539338 -1.059608,2.283349 -5.039239,-0.144822 -5.417353,2.480045 1.490799,3.023342 5.236334,0.734305 6.573316,-1.267656 -0.488196,1.28354 0.63922,3.615163 1.611025,1.448981 -0.197966,-2.864063 4.574814,-2.879577 2.832344,-6.11111 C 25.738418,8.2825426 27.750447,6.4158824 29.384954,8.5007345 30.793143,9.4173755 32.24418,7.4351691 30.05662,7.4172869 27.327901,5.1181078 24.506772,6.4825835 21.644638,7.3004385 19.399715,8.0574689 18.85205,10.241027 16.260733,10.14199 c -1.825754,1.022221 -2.429382,2.746107 -4.260137,3.727478 -1.348608,2.857298 -0.0866,7.306966 -4.2225274,8.250709 -3.6428347,1.181545 -1.4247422,5.344495 -3.6117373,7.716675 -0.6518868,0.715909 1.4342742,2.741007 1.3704115,1.302754 z M 6.5713924,27.57367 c 0.2623574,-0.437654 0.2242808,0.258886 0,0 z m -0.453708,-0.08819 c 0.2623659,-0.437616 0.2242846,0.258854 0,0 z M 22.921879,16.609725 c -0.04943,-0.589135 0.377539,0.910116 0,0 z m -2.812987,-0.03329 c 0.04271,-0.734116 0.496201,0.0046 0,0 z m -1.640215,-0.385622 c -0.679185,-0.797571 1.014772,1.003298 0,0 z m 4.090236,-0.198434 c -0.04943,-0.589134 0.377539,0.910127 0,0 z m -4.588156,-0.374823 c -0.743676,-0.863997 1.219422,1.213052 0,0 z m 5.223346,-0.94808 c 0.578953,-0.843148 0.118921,0.36928 0,0 z M 21.560756,14.3167 c -0.04943,-0.589135 0.377541,0.910128 0,0 z m 2.812987,-0.176387 c 0.578953,-0.843148 0.118921,0.36928 0,0 z M 21.19779,13.699344 c -0.04943,-0.589134 0.377539,0.910127 0,0 z m -5.269877,-0.41892 c -0.592235,-0.719102 1.006489,1.009118 0,0 z m -0.453706,-0.529161 c -0.592248,-0.719104 1.006474,1.009094 0,0 z m 9.500566,0.01864 c -0.549086,-0.679707 0.388799,0.148506 0,0 z M 24.611807,11.79978 c -0.549105,-0.679706 0.388802,0.148488 0,0 z m -4.77514,-0.393462 c -0.04941,-0.589129 0.377553,0.91018 0,0 z M 19.564444,10.96534 c -0.04943,-0.589134 0.377538,0.910123 0,0 z m 4.684397,-0.1357 c -0.549092,-0.679713 0.388799,0.148505 0,0 z m -5.047365,-0.481655 c -0.04943,-0.5891352 0.377541,0.910125 0,0 z m 3.867726,-2.6933107 c -0.549144,-0.6797079 0.388777,0.1484376 0,0 z M 27.38254,6.3792772 c 0.07641,-0.4135421 0.07641,0.4135435 0,0 z M 7.949529,31.470333 c 2.562087,0.210336 5.427175,-0.806591 7.590308,-0.01684 1.971954,-0.04985 3.946151,-0.9071 5.592762,0.51148 1.549884,0.260164 3.080904,-1.81305 0.587135,-1.058813 -4.475871,-0.642798 1.672781,-5.45391 3.102582,-2.067699 0.992424,1.64391 1.489709,3.59622 3.556917,1.758914 1.279375,-0.04509 3.113358,1.834172 3.546872,-0.650362 -0.375489,-3.094101 0.118645,-6.17623 -0.05661,-9.267499 -0.638011,-1.975851 -3.243744,-0.163564 -4.096121,-2.366706 -1.684781,-1.367835 -1.196974,-3.111929 1.037731,-3.07885 1.739755,-0.714591 3.829517,0.586589 2.949115,-2.077836 0.93124,-2.770065 -0.228585,-4.9612522 -3.158218,-4.9944637 -3.763365,-1.0809525 0.102514,4.2870577 -2.575259,5.6532357 -3.001417,1.050738 -1.658235,3.144897 -1.216012,5.370604 -1.872081,1.716248 -2.723367,-3.837881 -3.434695,-2.88426 -2.07396,3.107605 -5.67945,0.847544 -7.8712,-0.317658 -2.422649,1.344021 -1.225712,5.460845 -3.9889563,6.694496 -3.5321499,0.535895 -0.506966,4.167353 -2.8204194,6.016025 -1.4803896,1.185442 -0.5895727,4.216677 1.2540647,2.776233 z m 4.290804,-0.176388 c 0.187991,-0.60734 -0.08878,1.103109 0,0 z m 3.537681,-0.485064 c 0.06871,-0.71545 0.0687,0.715467 0,0 z m 10.756511,0.292528 c 0.262354,-0.437669 0.224284,0.258888 0,0 z m -0.453707,-0.08819 c 0.262352,-0.437668 0.224284,0.258886 0,0 z m 1.113076,-0.255781 c 0.168224,-0.275488 -0.04463,0.519352 0,0 z m 2.59104,0.0061 c 0.03439,-2.873463 3.112337,-1.037625 0,0 z m 1.212939,-0.789747 c -0.108607,-1.324928 -1.531164,0.196691 0,0 z m -22.65726,0.350017 c 0.1697896,-0.760991 -0.065188,1.276948 0,0 z m 21.063942,0.171522 c -0.190942,-0.374419 0.832678,0.791896 0,0 z m -2.19007,-0.08323 c -0.101174,-0.563252 0.493121,0.373864 0,0 z m -14.88341,-0.352873 c 0.187996,-0.607329 -0.08879,1.103125 0,0 z m 17.298808,0.06615 c -0.679187,-0.797575 1.014765,1.003287 0,0 z M 15.868755,29.750559 c 0.06871,-0.71545 0.0687,0.715467 0,0 z m 3.068265,0.132289 c -0.416179,-1.165525 0.727015,0.236142 0,0 z m 10.148413,-0.198434 c -0.592244,-0.7191 1.006478,1.009098 0,0 z m -1.405833,0.07591 c -0.4443,-0.690658 0.629156,0.04665 0,0 z m -9.130328,-0.07001 c 0.26235,-0.437662 0.224287,0.258882 0,0 z m -0.453707,-0.08819 c 0.262352,-0.437668 0.224284,0.258886 0,0 z m -0.54445,-0.08819 c 0.262352,-0.437665 0.224286,0.258888 0,0 z m -0.453707,-0.08819 c 0.262317,-0.437685 0.224299,0.258898 0,0 z m -0.54445,-0.08819 c 0.262354,-0.437665 0.224286,0.25889 0,0 z m 11.671314,-0.359646 c 0.385282,-1.578835 0.941328,0.56387 0,0 z M 8.4313546,28.824527 c 0.1697831,-0.761 -0.065183,1.276934 0,0 z m 7.4190644,0.418919 c -0.05213,-0.764798 0.522093,0.447266 0,0 z m 11.194857,-0.07101 c -0.19096,-0.374451 0.832652,0.79186 0,0 z m 4.594952,-0.0025 c 0.168227,-0.275481 -0.04464,0.519363 0,0 z M 12.416764,28.956825 c 0.155261,-1.79999 0.252707,0.593153 0,0 z m 3.138038,0.204335 c 0.262355,-0.437666 0.224287,0.258889 0,0 z m -0.453707,-0.08819 c 0.262354,-0.437668 0.224283,0.258887 0,0 z m 14.438046,-0.167513 c -0.981597,-2.171412 2.02374,-0.04983 0,0 z m 0.501034,-0.453061 c -0.250409,-1.053722 -0.526155,0.767059 0,0 z m -15.483529,0.532372 c 0.262355,-0.437668 0.224284,0.258887 0,0 z m -0.453707,-0.08819 c 0.262353,-0.437664 0.224282,0.258886 0,0 z m -0.54445,-0.08819 c 0.262355,-0.437667 0.224288,0.258888 0,0 z m 17.99816,-0.116142 c 0.0764,-0.413546 0.07641,0.41354 0,0 z m -18.451868,0.02794 c 0.262352,-0.437665 0.224286,0.258888 0,0 z m 2.927907,-0.07939 c 0.168258,-0.27545 -0.04466,0.519412 0,0 z m 3.266695,0 c 0.168258,-0.27545 -0.04466,0.519412 0,0 z m -7.192758,-0.09699 c 0.262359,-0.437658 0.22428,0.258886 0,0 z m -0.544449,-0.08819 c 0.262363,-0.437659 0.22428,0.25889 0,0 z m 13.827952,-0.02794 c -0.395184,-0.528708 0.664871,-0.113426 0,0 z m -14.281659,-0.06025 c 0.262363,-0.43766 0.224281,0.258888 0,0 z m 5.014961,-0.07939 c 0.168224,-0.275488 -0.04463,0.519352 0,0 z m 11.147173,-0.102897 c -0.592244,-0.7191 1.006478,1.009098 0,0 z m -16.706584,0.09409 c 0.262362,-0.43766 0.22428,0.25889 0,0 z m 20.894726,-0.07939 c 0.168221,-0.27549 -0.04463,0.519347 0,0 z m -21.348433,-0.0088 c 0.262362,-0.437661 0.224282,0.258888 0,0 z m -0.54445,-0.08819 c 0.2623689,-0.43762 0.2242829,0.258856 0,0 z M 8.4939775,27.942592 c 0.2729954,-0.448074 0.2491227,0.506274 0,0 z m 0.6181765,0.07204 c 0.2623611,-0.43766 0.2242803,0.258891 0,0 z m 7.102017,-0.07939 c 0.168221,-0.275492 -0.04463,0.519349 0,0 z m 8.471826,-0.08571 c -0.190992,-0.37441 0.832666,0.79184 0,0 z m 2.040157,-0.105376 c -0.679181,-0.797572 1.014763,1.003287 0,0 z m 1.814831,0 c -0.592253,-0.7191 1.006475,1.009087 0,0 z m -20.4269874,0.0941 c 0.262353,-0.437665 0.2242858,0.258884 0,0 z m 4.5612544,-0.07939 c 0.16823,-0.275479 -0.04464,0.519371 0,0 z m 6.89197,0.05145 c -0.22169,-1.101108 0.442571,0.223684 0,0 z m 11.807945,-0.08819 c 0.07641,-0.413543 0.07641,0.413543 0,0 z m -23.805618,0.02795 c 0.2623529,-0.437665 0.2242857,0.258884 0,0 z m 18.256058,-0.116153 c 0.381426,-0.865219 -0.02967,0.501487 0,0 z m -9.520694,-0.05145 c 0.168227,-0.275483 -0.04464,0.519365 0,0 z m 12.515165,-0.257234 c -2.233095,-1.369205 2.379407,-2.33735 0.786756,0.09158 -0.196711,0.259242 -0.656602,0.217064 -0.786756,-0.09158 z m 0.513407,0.09268 c 1.404038,-2.405753 -2.925653,-0.854532 0,0 z m -0.45106,-0.472333 c -1.599431,-1.21194 0.964294,-0.732337 0,0 z m 0.155159,-0.296502 c -0.213585,-0.433345 -0.231886,0.390747 0,0 z m -0.163062,-0.390992 c -0.453055,-0.272319 0.374015,0.649506 0,0 z m -16.108528,1.147993 c 0.168243,-0.275483 -0.04464,0.51936 0,0 z m 17.68743,0.04624 -0.02753,-0.151405 0.02753,0.151405 z M 26.233029,27.3679 c 0.188349,-1.710938 1.734491,-1.371769 0,0 z M 8.682625,27.229694 c 0.1682001,-0.275479 -0.044622,0.519342 0,0 z m 7.713028,0 c 0.16823,-0.275478 -0.04464,0.51937 0,0 z m 7.201445,0.0025 c -0.190946,-0.374422 0.832674,0.791893 0,0 z m 4.399437,-0.10538 c -0.592244,-0.7191 1.006478,1.009098 0,0 z m 2.802841,0.09409 c 0.262353,-0.437669 0.224284,0.258886 0,0 z m -10.95993,-0.07205 c -0.204721,-0.444507 0.44234,-0.04399 0,0 z m 3.191402,-0.0441 c -0.636821,-0.532659 0.606476,-0.195065 0,0 z M 16.486395,26.87692 c 0.168231,-0.27548 -0.04464,0.519373 0,0 z m 9.015909,-0.14699 c -0.693158,-0.805597 1.114948,1.113469 0,0 z m -5.93786,0.07334 c -1.916219,-2.440488 -2.504919,-6.107078 0.788652,-7.481414 2.484164,-1.588543 0.241845,3.508789 2.949593,3.464493 -0.782495,1.100865 -2.146262,3.320765 -3.74518,2.031732 0.443502,0.465063 1.086701,1.809206 0.0069,1.985189 z m 0.359397,-0.650866 c 0.245161,-2.171548 -1.463966,1.1468 0,0 z m 1.552139,-0.99101 c 3.185231,-1.866695 -2.006901,-3.826403 -0.72349,-5.547088 -2.797518,1.275218 -4.078832,5.12539 0.06248,5.368159 l 0.331202,0.08539 0.329808,0.09354 z m -0.371744,-0.57345 c -1.065549,-1.22248 0.971027,-3.685318 0.554845,-1.020731 -0.02279,0.392902 -0.19655,0.820726 -0.554845,1.020731 z m 0.491709,-1.556739 c 0.687147,-1.953533 -1.444865,0.966311 0,0 z m -0.12593,1.306266 c 0.0427,-0.734119 0.496206,0.0046 0,0 z m 0.342659,-0.423209 c -0.413064,-0.747939 0.502234,0.09286 0,0 z m -2.883422,-1.571973 c 0.836093,-1.217152 -0.34182,0.772601 0,0 z m 1.263513,0.02205 c -0.679184,-0.797572 1.014771,1.003294 0,0 z m 11.000919,4.387628 c 0.07641,-0.413543 0.07641,0.413543 0,0 z m -3.695068,-0.198418 c -0.693152,-0.805596 1.114959,1.113479 0,0 z m -18.634508,0.05879 c 0.1682364,-0.27544 -0.044677,0.519403 0,0 z m 7.70908,-0.05879 c -0.344287,-0.685119 0.748128,-0.856052 0,0 z m 5.753529,-0.02691 c -0.190937,-0.37442 0.832676,0.791901 0,0 z m -9.288499,-0.09067 c 0.168227,-0.275483 -0.04464,0.519365 0,0 z m 11.873105,-0.191086 c -0.592238,-0.7191 1.006483,1.009107 0,0 z m -4.708909,0.110241 c -0.204724,-0.444511 0.44234,-0.04398 0,0 z m 10.893365,-0.09553 c 0.168273,-0.275448 -0.04467,0.519415 0,0 z m -1.130223,-0.08426 c -0.549091,-0.679707 0.388799,0.148502 0,0 z M 13.12896,26.083187 c 0.168238,-0.275486 -0.04464,0.519354 0,0 z m 8.108858,-0.173903 c -0.190939,-0.374421 0.832673,0.7919 0,0 z m 3.136052,-0.0832 c 0.03127,-1.486603 2.884821,-2.676767 1.644039,-3.730387 3.015352,-0.933938 3.71247,4.733383 0.221652,3.101747 -0.912,-0.962385 -1.890382,-0.857461 -1.865691,0.62864 z m 3.601885,-0.666622 c 2.3482,-2.287268 -2.834703,-2.225539 -1.418609,-0.296133 0.280911,0.03353 1.206329,0.754717 1.418609,0.296133 z M 27.07673,24.481133 c -2.147648,-2.456321 1.988287,-0.294886 0,0 z m 0.446642,-0.110497 c 1.10578,-1.931061 -2.329208,-0.370529 0,0 z m -0.245901,-0.440847 c -0.04943,-0.589134 0.377538,0.910123 0,0 z m -0.230585,-0.358644 c -0.146656,-0.464236 0.310899,0.342068 0,0 z m -1.076297,-0.967538 c 3.260484,-0.570811 -0.977634,-0.97781 0,0 z m 5.041612,3.178243 c 0.07641,-0.413534 0.07639,0.413551 0,0 z M 9.136332,25.642211 c 0.1682011,-0.275481 -0.044622,0.519346 0,0 z m 11.466296,-0.08571 c -0.190951,-0.374422 0.832671,0.791887 0,0 z M 13.327226,25.37614 c -3.4839064,-1.400784 2.907601,-5.310536 1.693268,-1.481515 -0.401895,0.658649 -1.097278,1.029955 -1.693268,1.481515 z m 1.15916,-1.005388 c 2.099863,-3.667065 -5.3383257,-0.414877 -0.629787,0.537868 l 0.374453,-0.202028 0.255334,-0.33584 z m -0.904452,0.485065 c -0.02963,-0.613843 0.434923,-0.14698 0,0 z m 0.544449,-1.146516 c -0.02964,-0.613843 0.434926,-0.146979 0,0 z m 2.903728,1.852066 c -0.02963,-0.613844 0.434922,-0.146981 0,0 z m 13.884184,-0.27193 c 0.168262,-0.275447 -0.04466,0.519421 0,0 z m -1.313207,-0.08805 c -0.353082,-0.705838 0.411145,0.328557 0,0 z M 9.317815,25.024857 c 0.168236,-0.275443 -0.044677,0.519407 0,0 z m 13.825209,-0.235183 c -0.743687,-0.863999 1.219406,1.213023 0,0 z m 7.673366,0.0735 c -0.944213,-0.490928 0.752986,-0.0038 0,0 z M 17.481399,24.608908 c -0.08673,-0.806186 0.916821,-0.301152 0,0 z m 5.070646,-0.304299 c -0.592248,-0.719098 1.006479,1.009094 0,0 z m 8.180768,0.01469 c 0.16823,-0.27548 -0.04464,0.519372 0,0 z M 9.599562,23.973507 c 0.3660446,-0.778726 -0.103139,0.742707 0,0 z m 21.049673,-0.131918 c 0.07641,-0.41354 0.0764,0.413546 0,0 z m -5.64717,-0.154335 c -0.592238,-0.719097 1.006487,1.00911 0,0 z m 5.549266,-0.338074 c 0.168227,-0.275482 -0.04464,0.519364 0,0 z m -14.03207,-0.08571 c -0.190966,-0.37445 0.83265,0.791851 0,0 z m 7.984886,-0.149473 c -0.693153,-0.805596 1.114952,1.113476 0,0 z m -14.555526,0.15434 c -0.204757,-0.444503 0.442344,-0.04399 0,0 z m 5.935449,-0.357641 c -0.190941,-0.374419 0.832677,0.791897 0,0 z m 14.583681,-0.03923 c 0.0764,-0.413546 0.07641,0.41354 0,0 z M 24.003908,22.54074 c -0.679176,-0.797574 1.014773,1.003305 0,0 z m 4.453203,0.06774 c 0.539479,-0.949447 0.400521,0.3369 0,0 z m 1.917929,-0.200034 c -1.159203,-0.785991 1.074208,-0.542082 0,0 z m -1.95209,-0.378232 c -0.549135,-0.679709 0.388775,0.148447 0,0 z m -14.262969,-0.08965 c -0.190944,-0.374418 0.832676,0.791891 0,0 z m 16.99669,0.07875 c 0.238844,-0.39448 0.25493,0.258876 0,0 z m -7.145894,-0.151277 c 0.04271,-0.734115 0.496202,0.0046 0,0 z M 13.524791,21.587792 c -0.190948,-0.374418 0.832675,0.791888 0,0 z m 1.865542,-0.127423 c 0.82876,-1.21283 -0.337475,0.773021 0,0 z m 7.615419,-0.06615 c -0.592244,-0.719098 1.006481,1.0091 0,0 z m 1.367991,0.209233 c 0.04267,-0.734125 0.496233,0.0046 0,0 z m 5.814621,-0.194533 c 0.168224,-0.27549 -0.04463,0.519355 0,0 z m -5.451655,-0.07005 c 0.04271,-0.734115 0.496201,0.0046 0,0 z m 0.907416,-0.143089 c -0.0495,-0.58914 0.377566,0.910063 0,0 z m -14.788088,0.0441 c -0.204724,-0.444506 0.442337,-0.04399 0,0 z m 17.203948,-0.179793 c -0.549147,-0.679705 0.388778,0.148433 0,0 z m -15.624093,-0.08965 c -0.19094,-0.374419 0.832669,0.791897 0,0 z m 5.942043,-0.105375 c -0.592246,-0.719106 1.006469,1.009092 0,0 z m 6.842399,0.09553 c -0.520342,-0.851282 0.40272,-0.477205 0.189934,0.0581 l -0.189934,-0.0581 z m 4.884452,-0.02938 c 0.07641,-0.413536 0.0764,0.413543 0,0 z m -7.643483,-0.154339 c -0.592247,-0.719098 1.006481,1.009097 0,0 z M 11.800702,20.617664 c -0.19096,-0.374448 0.832652,0.791862 0,0 z m 6.032783,-0.193569 c -0.59224,-0.719102 1.00648,1.009105 0,0 z m -1.626478,-0.110242 c 0.836092,-1.217142 -0.341827,0.772603 0,0 z m 13.799874,0.124941 c 0.168227,-0.275483 -0.04464,0.519366 0,0 z m -18.790657,-0.0714 c 0.04911,-0.935616 0.335264,0.453923 0,0 z m 10.791372,-0.119678 c -0.679188,-0.797571 1.014764,1.003281 0,0 z m 5.610156,-0.205785 c -0.963,-1.631419 0.852223,0.39914 0,0 z M 17.198295,19.894942 c -0.592246,-0.719101 1.006475,1.009093 0,0 z m 7.719897,0.06615 c -0.04943,-0.589134 0.377538,0.910123 0,0 z m -13.248261,-0.1764 c 0.836095,-1.217145 -0.341825,0.772601 0,0 z m 5.036985,-0.162496 c -1.347133,-0.313452 0.287986,-0.614646 0,0 z m -4.76476,-0.223577 c 0.04266,-0.734128 0.496235,0.0046 0,0 z m 10.253791,-0.176387 c 0.0427,-0.734118 0.49621,0.0046 0,0 z m -6.177292,-0.297427 c -0.67918,-0.797574 1.014772,1.0033 0,0 z m -3.804275,0.12104 c 0.0427,-0.73412 0.49621,0.0046 0,0 z m 0.453707,-0.584056 c 0.836093,-1.217163 -0.341809,0.772593 0,0 z m 2.761909,-0.02205 c -0.693762,-0.810732 1.16745,1.164968 0,0 z m 5.034994,0.0441 c -0.59225,-0.7191 1.006477,1.009092 0,0 z m -5.625975,-0.529161 c -0.592239,-0.7191 1.006482,1.009108 0,0 z m 5.128056,-0.0441 c -0.693752,-0.810729 1.16746,1.164985 0,0 z m -7.026759,0.165137 c 0.04271,-0.734116 0.496202,0.0046 0,0 z m 0.272225,-0.352774 c 0.04267,-0.734122 0.49623,0.0046 0,0 z m 0.991288,-0.297428 c -0.67918,-0.797574 1.014772,1.003297 0,0 z m 5.349043,0 c -0.08133,-0.395797 0.666587,1.031461 0,0 z m 5.546807,0.06615 c 0.578953,-0.843148 0.118921,0.36928 0,0 z m -11.5198,-0.235369 c 0.511872,-1.400495 1.717724,-1.025494 0,0 z m -0.555689,-0.800903 c -0.592251,-0.7191 1.006471,1.009084 0,0 z m 15.991702,-1.344952 c 0.07641,-0.413536 0.0764,0.413543 0,0 z M 25.791447,14.97474 c -0.549142,-0.67971 0.388777,0.148441 0,0 z m 3.126536,-0.356715 c 0.168227,-0.275481 -0.04464,0.519363 0,0 z m -0.08357,-0.477715 c 0.07641,-0.413536 0.0764,0.413543 0,0 z m -0.09791,-0.492414 c 0.168279,-0.275443 -0.04467,0.519423 0,0 z m -0.08431,-0.455666 c -0.347354,-1.085567 1.121927,0.265427 0,0 z m -0.575065,-0.170488 c 0.262353,-0.437667 0.224283,0.258888 0,0 z m 2.082441,-0.26671 c 0.476354,-0.465575 0.334973,0.287056 0,0 z M 28.471441,12.20005 c 0.07641,-0.413547 0.07641,0.413534 0,0 z m -0.0979,-0.492414 c 0.168224,-0.27549 -0.04463,0.519355 0,0 z m -0.08357,-0.477716 c 0.07641,-0.413543 0.07641,0.413543 0,0 z m -0.0979,-0.492413 c 0.168225,-0.275488 -0.04464,0.519361 0,0 z m -0.08357,-0.477715 c 0.07641,-0.4135429 0.07641,0.413543 0,0 z m -0.09791,-0.492413 c 0.168227,-0.2754841 -0.04464,0.519366 0,0 z M 27.890465,9.245566 c 0.06725,-0.9242579 0.245548,0.7518421 0,0 z m 0.953557,-0.283769 c 0.919572,-0.4496929 0.38478,0.2371518 0,0 z M 27.829085,8.79725 c 0.168227,-0.2754846 -0.04464,0.5193651 0,0 z m 2.557531,0.07635 c 0.918853,-0.4494427 0.384607,0.2371556 0,0 z m -2.64111,-0.55407 c 0.07641,-0.4135363 0.07641,0.4135459 0,0 z m -0.0979,-0.4924124 c 0.168249,-0.2754734 -0.04465,0.5193786 0,0 z M 8.1935619,31.360091 c -0.2833299,0.313361 0.450927,0.36684 0,0 z m 1.7522801,0.377814 c -1.264257,-2.045836 -2.130352,1.258851 0,0 z m 1.582635,-0.08838 c -0.574343,-0.800879 -0.44041,0.49843 0,0 z m 2.682216,0.02933 c 2.49886,-0.626708 -3.4552,-0.684669 -0.396535,0.09609 0.132178,-0.03203 0.264357,-0.06406 0.396535,-0.09609 z m 4.332908,-0.01319 c 1.210408,0.85834 0.612429,-1.549677 -0.27299,-0.346103 -1.852806,0.05269 -1.261488,0.936855 0.27299,0.346103 z m 6.062922,-0.08119 c 2.855942,-2.897113 -3.813121,-5.694763 -4.460119,-1.768489 1.175505,1.25848 3.326708,-0.245539 4.163698,1.779817 l 0.296421,-0.01133 z m 0.476138,-0.747647 c 0.262353,-0.437669 0.224284,0.258886 0,0 z m -0.56025,-0.160238 c 0.223977,-0.488272 0.111911,0.509606 0,0 z m -0.437906,-0.01615 c 0.262317,-0.437683 0.224298,0.258897 0,0 z m -2.540764,-0.440968 c 0.262361,-0.437628 0.224289,0.258856 0,0 z m -0.453706,-0.08819 c 0.262334,-0.437673 0.22429,0.25889 0,0 z m -0.54445,-0.08819 c 0.262363,-0.437628 0.22429,0.258858 0,0 z m 3.010925,-0.05 c -0.843815,-0.587931 0.318292,-1.111076 0,0 z m -3.464632,-0.03819 c 0.262353,-0.437669 0.224284,0.258886 0,0 z m 2.020491,-0.255782 c 0.168256,-0.27545 -0.04466,0.519409 0,0 z m 0.09075,-0.352774 c 0.168219,-0.275491 -0.04463,0.519343 0,0 z m 2.015042,0.0294 c -0.112736,-0.958147 0.690996,0.566427 0,0 z M 22.29386,28.993575 c 0.168238,-0.275485 -0.04464,0.519353 0,0 z m 0.0592,-0.268321 c -0.104073,-0.855299 0.515925,-0.319708 0,0 z m 2.990096,2.860842 c -0.263509,0.218547 0.447761,0.261763 0,0 z m 0.482463,0.10473 c -0.675572,-0.716879 0.01475,0.433984 0,0 z m 0.908244,-0.04313 c -0.918196,-0.442515 -0.4097,0.536745 0,0 z m 2.176967,-0.0087 c 0.977731,-2.354113 -3.241026,0.617977 -0.231338,0.08251 l 0.149887,-0.05346 0.08145,-0.02905 z m -0.379981,-0.184784 c 0.262355,-0.437666 0.224287,0.258889 0,0 z m -0.453707,-0.08819 c 0.262352,-0.437665 0.224286,0.258888 0,0 z m 2.194811,0.28073 c -0.485065,-0.699264 -0.479511,0.494118 0,0 z m 1.150884,-0.06063 c -0.263509,0.218547 0.447761,0.261763 0,0 z m 2.826026,-0.10318 c -0.941243,-3.284723 -1.883644,2.198443 0,0 z m 0.696278,0.207914 c -0.475784,-0.546877 -0.609835,0.655227 0,0 z m 0.954017,-0.02122 c 2.4683,0.497926 4.912875,-1.648153 6.822282,-0.2482 2.580257,0.641612 7.101095,-0.671496 8.502025,-0.791726 -1.537744,-3.351831 2.026829,-5.112514 4.292909,-6.294749 -0.189335,-2.708694 -4.257873,-3.747201 -4.196641,-6.595337 1.579779,-3.712446 -3.72058,-2.870164 -4.322914,-5.961398 -1.395561,-3.4802906 -5.48295,-2.4308904 -8.360157,-3.1061876 -1.736287,-0.487765 -1.451576,-3.3238833 -2.860685,-0.8536211 -0.806103,1.7726086 -2.952046,0.6891456 -3.625923,1.1823646 -0.81833,1.1463901 0.383462,4.1439681 1.421125,1.8123851 2.791517,0.275684 1.178528,4.226645 -0.966338,3.183109 -1.367543,2.397443 -0.295412,5.860936 -0.106136,8.244056 1.914865,-1.500764 4.044041,-2.363214 6.47751,-2.90002 2.315158,-0.421165 0.418886,3.790812 -1.393003,1.972564 -3.141557,-0.831377 -2.667999,5.519275 0.464244,3.137431 0.647715,-1.145334 2.294887,-2.743342 2.372547,-0.287404 0.618834,2.341095 -0.548565,4.216025 -3.101177,3.167655 -1.815973,-0.559369 -3.17843,0.704833 -1.159248,1.844495 0.761555,0.746133 -3.583311,1.044935 -1.398936,2.369726 0.340641,0.180895 0.768553,0.274791 1.138516,0.124857 z m 9.275454,-0.331559 c 0.0716,-0.562444 0.0716,0.562444 0,0 z m -9.838148,0.116142 c 0.262352,-0.437668 0.224284,0.258886 0,0 z m 0.453706,-0.08819 c 0.262354,-0.437665 0.224286,0.25889 0,0 z m 0.54445,-0.08819 c 0.262317,-0.437684 0.224299,0.258898 0,0 z m 0.437609,-0.0087 c -0.361888,-0.760922 0.51811,0.165333 0,0 z m 0.560548,-0.167716 c 0.262354,-0.437668 0.224283,0.258887 0,0 z m 0.453707,-0.08819 c 0.262336,-0.437676 0.224292,0.258892 0,0 z m 0.54445,-0.08819 c 0.262355,-0.437667 0.224284,0.258886 0,0 z m 0.453707,-0.08819 c 0.262355,-0.437667 0.224288,0.258888 0,0 z m 0.528647,-0.16024 c 0.223974,-0.488273 0.111919,0.509609 0,0 z m 5.770584,-0.13229 c 0.07158,-0.562446 0.0716,0.562435 0,0 z m -5.301075,0.116141 c 0.262316,-0.437682 0.224298,0.258897 0,0 z m 2.207168,-0.131723 c -0.641441,-0.277379 0.449121,-0.645046 0,0 z m 0.333595,-0.309245 c 0.262362,-0.437627 0.224289,0.258856 0,0 z m 0.453707,-0.08819 c 0.262355,-0.437667 0.224288,0.258888 0,0 z m 0.54445,-0.08819 c 0.262367,-0.437618 0.224285,0.258857 0,0 z m 4.760279,-0.292572 c 0.0687,-0.715459 0.0687,0.715459 0,0 z m 0.837331,-0.08277 c -2.903213,-0.136741 -7.948295,-3.383403 -3.399986,-5.523984 3.039943,-0.575937 3.625477,3.749506 3.683352,5.640845 l -0.283363,-0.116861 -3e-6,0 z m 0.22174,-0.188793 c -0.621701,-2.211727 -1.677232,-7.291129 -4.76381,-4.263613 -1.316329,1.348968 3.493537,3.118827 0.498564,2.343129 -3.196336,-1.205981 1.901437,1.85602 3.447015,1.278978 0.320657,0.140811 0.605444,0.362989 0.818231,0.641506 z M 47.792222,28.288 c 0.168224,-0.275491 -0.04463,0.519357 0,0 z m -0.09075,-0.352774 c 0.168223,-0.275485 -0.04464,0.519357 0,0 z M 44.291501,27.72209 c -0.414241,-0.840921 0.442837,0.321464 0,0 z m 3.31923,-0.139638 c 0.168224,-0.275491 -0.04463,0.519357 0,0 z m -3.531343,-0.437397 c -0.68235,-1.052772 0.473412,0.368266 0,0 z m 3.440601,0.08462 c 0.168229,-0.275485 -0.04464,0.519363 0,0 z m -0.09075,-0.352774 c 0.168225,-0.275487 -0.04464,0.519358 0,0 z m -0.156087,-0.367473 c -0.923979,-1.25871 0.503907,0.08966 0,0 z m -0.471528,-1.128245 c -0.682367,-1.052788 0.47337,0.368214 0,0 z m -0.932289,2.164518 c -1.317221,-2.59853 -0.322527,2.261866 0,0 z m -2.09393,2.40922 c 0.262354,-0.437669 0.224284,0.258888 0,0 z m 1.207179,5.29e-4 c -0.657212,-0.473937 0.752037,-0.666874 0,0 z m -0.66273,-0.08876 c 0.262352,-0.437665 0.224286,0.258888 0,0 z M 41.80327,29.699104 c 0.168227,-0.275485 -0.04464,0.519368 0,0 z m 3.514742,-0.0088 c 0.262363,-0.437626 0.224289,0.258856 0,0 z M 38.98312,29.574203 c 0.141526,-0.414207 0.153649,0.362014 0,0 z m 6.788598,0.02794 c 0.262353,-0.437664 0.224286,0.258887 0,0 z m 0.54445,-0.08819 c 0.262353,-0.437665 0.224283,0.258886 0,0 z m -4.603639,-0.167586 c 0.168227,-0.27548 -0.04464,0.519363 0,0 z m 5.057346,0.07939 c 0.262349,-0.437662 0.224287,0.258881 0,0 z m 0.544449,-0.08819 c 0.262353,-0.437669 0.224284,0.258886 0,0 z m -10.599742,-0.06583 c 0.166175,-0.551206 0.47949,0.156313 0,0 z m 4.907206,-0.278135 c 0.168225,-0.275488 -0.04464,0.51936 0,0 z m 7.688849,-0.0088 c 0.262316,-0.437682 0.224298,0.258897 0,0 z m -11.960865,-0.06583 c 0.166171,-0.55121 0.479494,0.156325 0,0 z m 12.414574,-0.02236 c 0.262355,-0.437668 0.224284,0.258887 0,0 z m 0.544449,-0.08819 c 0.262353,-0.437664 0.224282,0.258886 0,0 z m -8.84894,-0.364656 c -0.369011,-1.173735 0.550863,0.995118 0,0 z m 3.156402,0.197069 c 0.168224,-0.275488 -0.04463,0.519352 0,0 z m 6.146245,0.07939 c 0.262354,-0.437668 0.224283,0.258887 0,0 z M 38.411629,28.192178 c 0.0384,-0.78846 0.600816,1.005492 0,0 z m -1.787782,0.015 c 0.944192,-1.09567 -0.329225,0.612365 0,0 z m -1.451864,-0.24808 c 0.238922,-0.484163 0.707977,-0.380177 0,0 z m 1.996313,-0.192888 c 0.937196,-1.093751 -0.327393,0.615604 0,0 z m 1.905573,0.182594 c 0.166175,-0.551201 0.479486,0.156313 0,0 z m 2.052893,-0.274197 c -0.5491,-0.679708 0.3888,0.148494 0,0 z M 41.433148,26.6259 c 0.166175,-0.551206 0.47949,0.156313 0,0 z m 9.444282,-0.189941 c 0.16824,-0.275488 -0.04464,0.519362 0,0 z m -0.09075,-0.352775 c 0.168224,-0.275482 -0.04464,0.519357 0,0 z m -7.357227,-0.398958 c -0.739164,-0.06179 0.240403,-0.515259 0,0 z m 7.116729,-0.336863 c 0.312792,-0.446707 -0.022,0.660013 0,0 z m -6.753762,-0.04436 c 0.166171,-0.55121 0.479494,0.156325 0,0 z M 42.978205,24.59366 c -0.545782,-2.058978 2.480692,1.600723 0,0 z m 0.995698,0.221089 c -0.152523,-1.534416 -1.496943,0.564567 0,0 z m -3.266695,0.04108 c 0.944191,-1.095655 -0.32925,0.612383 0,0 z m 2.166222,0.06615 c -0.05347,-0.3811 0.566508,0.927525 0,0 z m 7.423271,-0.158438 c -0.784291,-1.40953 0.596231,0.716712 0,0 z m -7.695496,-0.194336 c -0.08126,-0.395779 0.666555,1.03149 0,0 z m -1.258802,-0.242538 c 0.944189,-1.095669 -0.329231,0.612371 0,0 z m 0.986582,-0.110243 c -0.08127,-0.395784 0.666563,1.031489 0,0 z m -5.795881,-0.110242 c 0.372234,-0.852717 -0.02804,0.509961 0,0 z m 17.754148,-0.10639 c -0.04946,-0.724584 0.330597,0.816655 0,0 z M 41.819677,23.97324 c -2.027577,-2.117768 0.381132,-0.968296 0,0 z m 4.209564,-0.0021 c 0.357401,-0.761503 0.486848,0.307944 0,0 z m 3.723018,-0.354133 c -0.784293,-1.409527 0.596237,0.716719 0,0 z M 36.93938,23.422674 c 0.820055,-1.563388 0.0099,0.651209 0,0 z m 5.582666,-0.06615 c 0.9372,-1.093744 -0.327401,0.615604 0,0 z m 11.44817,-0.09197 c -0.682373,-1.052792 0.473368,0.368207 0,0 z m -6.729611,0.09818 c 0.166177,-0.5512 0.479485,0.156302 0,0 z M 45.50494,23.069896 c -0.05347,-0.381103 0.566503,0.927518 0,0 z m -2.619928,0.03855 c 0.485998,-0.904695 0.448998,-0.04393 0,0 z M 37.259037,22.87146 c 0.372231,-0.852714 -0.02804,0.509963 0,0 z m 10.616758,0.138497 c 0.16618,-0.551196 0.479484,0.156302 0,0 z m 1.42139,-0.353052 c -2.100669,-0.395855 -3.041743,-5.283422 -4.030487,-4.861424 0.898755,2.096858 5.861927,1.010743 4.399792,3.402985 -0.297261,0.40099 -0.685221,0.946968 -0.369305,1.458439 z m -0.360106,-0.296152 c 2.582331,-1.129859 -1.481587,-4.761577 -1.504265,-1.559876 0.199508,0.724737 0.772095,1.354056 1.504265,1.559876 z m -0.426094,-0.900385 c -0.392239,-0.883175 0.861903,1.302186 0,0 z m -0.816674,-1.146516 c -0.392232,-0.88317 0.861911,1.302207 0,0 z m 5.954781,2.245525 c -0.561098,-0.686962 0.374665,0.124165 0,0 z M 37.47723,22.532311 c -0.494001,-1.455341 1.548251,0.02764 0,0 z m 0.507741,-0.506641 c -0.750852,-0.47608 -0.257891,0.630716 0,0 z m 5.716714,0.36073 c 0.944191,-1.09565 -0.329257,0.612388 0,0 z m 1.168065,-0.198436 c -0.08133,-0.395792 0.666584,1.031465 0,0 z m -0.557678,-0.290752 c -0.546566,-1.240329 -1.924734,-2.239152 -0.252916,-0.722456 0.120074,0.08711 0.872531,0.722015 0.252916,0.722456 z m 5.287811,0.14262 c 0.166177,-0.551218 0.479492,0.156319 0,0 z m 3.735142,-0.18637 c -0.682348,-1.052777 0.473409,0.368266 0,0 z m -3.09995,-0.166404 c 0.166171,-0.551218 0.479493,0.15632 0,0 z m -9.527859,-0.0779 c 0.486122,-0.904803 0.448965,-0.04394 0,0 z m 4.174109,-0.192888 c 0.944191,-1.095655 -0.32925,0.612383 0,0 z M 53.0139,21.14828 c -0.549141,-0.67971 0.388775,0.148442 0,0 z M 33.825187,20.931208 c 0.07641,-0.413543 0.07641,0.413543 0,0 z m 11.691328,-0.0441 c 0.944185,-1.095655 -0.329245,0.612386 0,0 z m -4.083367,-0.08819 c 0.944191,-1.095657 -0.329245,0.612375 0,0 z m 10.526015,-0.08198 c 0.166174,-0.551212 0.479491,0.156322 0,0 z m -5.898198,-0.270786 c 0.937196,-1.09374 -0.327403,0.615606 0,0 z m -12.152199,-0.0073 c 0.16823,-0.275479 -0.04464,0.519371 0,0 z m 7.796606,0.02384 c 0.485994,-0.904688 0.448998,-0.04394 0,0 z m -7.698701,-0.501585 c 0.07641,-0.413549 0.07641,0.413541 0,0 z m 12.689484,-0.0441 c 0.944188,-1.095637 -0.329269,0.612395 0,0 z M 34.095442,19.460432 c -0.822906,-0.684846 0.629422,-0.24969 0,0 z m 13.145163,0.02638 c 0.0427,-0.734116 0.496209,0.0046 0,0 z m -5.489863,-0.283105 c -0.826131,-0.72102 1.093728,0.81616 0,0 z m 0.952786,0.112419 c 0.238962,-0.484201 0.707929,-0.380125 0,0 z m -6.167642,-0.104693 c -0.204723,-0.444509 0.442341,-0.04399 0,0 z M 33.031357,19.09204 c -2.489025,-0.747197 2.060828,-0.980565 0,0 z m 0.31921,-0.421661 c -0.34527,-1.29968 -0.912972,1.168036 0,0 z m 14.525228,0.276474 c 0.944187,-1.09565 -0.329254,0.612385 0,0 z m -15.583128,0.07118 c 0.31255,-0.414736 0.281639,0.272269 0,0 z m 8.550661,-0.431674 c -0.733628,-0.669032 1.127882,0.868555 0,0 z m 2.586132,-0.08047 c 0.944187,-1.095668 -0.329231,0.612377 0,0 z m 4.990783,0 c 0.944187,-1.095668 -0.329231,0.612377 0,0 z m -14.148511,-0.0073 c 0.168221,-0.275491 -0.04463,0.519348 0,0 z m 5.744445,-0.274901 c -3.181658,-2.118219 4.492694,-4.05175 2.09589,-0.39237 -0.580132,0.613623 -1.591395,-0.365299 -2.09589,0.39237 z m 1.416971,-0.305998 c 2.977285,-1.892176 -3.365361,-2.638548 -1.518315,-0.363675 2.067649,-1.672824 0.796807,-0.85732 0.820707,0.493998 l 0.358519,0.01114 0.339089,-0.141463 0,-3e-6 z M 40.978989,16.9405 c 0.645055,-0.938773 -0.848155,0.559496 -0.394098,0.332943 L 40.978989,16.9405 z m -0.362515,0.286629 c 0.372235,-0.852713 -0.02804,0.509964 0,0 z m -3.717623,1.014226 c -0.204723,-0.444509 0.442341,-0.04399 0,0 z m -2.529214,-0.220484 c 0.07641,-0.413543 0.07641,0.413543 0,0 z m 14.685798,-0.0441 c 0.944187,-1.09565 -0.329254,0.612385 0,0 z M 43.97391,17.88856 c 0.944188,-1.095667 -0.329229,0.612368 0,0 z m 5.44449,-0.159888 c 0.238927,-0.484163 0.707972,-0.380175 0,0 z m 1.088898,-0.236984 c -0.392239,-0.883175 0.861903,1.302186 0,0 z m -16.054083,0.03675 c 0.168222,-0.275483 -0.04463,0.519351 0,0 z m 0.0979,-0.477716 c 0.07641,-0.413534 0.07639,0.413551 0,0 z m 15.554704,0.0774 c -0.702822,-0.983561 -3.215566,-3.085519 -0.844717,-1.260271 0.43777,0.275605 0.880949,0.699122 0.844717,1.260271 z m -12.416482,-0.08486 c -1.483676,-0.228848 0.557612,-0.250452 0,0 z m 7.282726,-0.301223 c 0.937196,-1.093743 -0.327403,0.615609 0,0 z m 5.625973,0.0165 c 0.238952,-0.484199 0.707937,-0.380126 0,0 z m -15.963337,-0.20026 c 0.16823,-0.275479 -0.04464,0.519371 0,0 z m 9.055411,-0.102887 c -0.08128,-0.395788 0.666558,1.031482 0,0 z m 1.735663,-0.242533 c 0.944187,-1.095659 -0.329241,0.612384 0,0 z M 34.703666,16.102612 c 0.452391,-0.407135 -0.181684,1.098956 0,0 z m -0.87012,0.09354 c 0.3861,-0.451403 0.31648,0.281423 0,0 z m 17.581168,-0.15969 c 0.94419,-1.095647 -0.329259,0.612389 0,0 z m -18.670066,0.0715 c 0.3861,-0.451403 0.31648,0.281423 0,0 z m 4.970876,-0.0715 c -0.204724,-0.444511 0.44234,-0.04398 0,0 z M 42.51047,15.66164 c -0.05349,-0.381107 0.566516,0.927503 0,0 z m 3.459753,-0.06615 c 0.944191,-1.095655 -0.32925,0.612383 0,0 z M 34.81618,15.58819 c 0.168227,-0.275482 -0.04464,0.519365 0,0 z m 7.019962,-0.34262 c -1.876474,-1.687054 3.01614,-0.865566 0.0811,5.74e-4 l -0.0811,-5.74e-4 z m 0.802908,-0.537734 c -0.377873,-1.758798 -1.748206,0.988326 0,0 z m -7.724965,0.402637 c 0.07641,-0.413543 0.07641,0.413543 0,0 z m 11.328362,0.148791 c 0.238949,-0.484178 0.707951,-0.380162 0,0 z m -8.163956,-0.192911 c -0.204724,-0.444506 0.442337,-0.04399 0,0 z m -3.080827,-0.448318 c 0.168227,-0.275481 -0.04464,0.519363 0,0 z m 5.61881,0.05145 c 0.0038,-0.428293 0.722014,0.920161 0,0 z m -5.520905,-0.529161 c 0.07641,-0.413543 0.07641,0.413543 0,0 z m 4.341265,0 c 0.0038,-0.428293 0.722014,0.920161 0,0 z M 38.49124,13.963923 c -0.320603,-1.552089 0.642885,0.248352 0,0 z m 8.102599,-0.242532 c -0.05354,-0.381112 0.566541,0.927478 0,0 z m -11.414692,-0.0735 c 0.168224,-0.275482 -0.04464,0.519357 0,0 z m 8.114201,-0.144844 c -3.058464,-1.22839 3.380323,-2.600241 0.825494,-0.202542 -0.08152,0.349541 -0.593893,0.494181 -0.825494,0.202542 z m 0.765125,-0.324437 c 0.835888,-2.466957 -3.302363,0.782588 -0.194694,0.172372 l 0.119149,-0.105487 0.07554,-0.06688 0,-2e-6 z m -1.064571,-0.114267 c -0.02867,-1.013709 1.121956,0.0085 0,0 z m 3.236971,0.392462 c -0.05355,-0.381111 0.566543,0.9275 0,0 z m -0.362966,-0.264581 c -0.08133,-0.395793 0.666589,1.031471 0,0 z m -0.635191,-0.440968 c -0.05353,-0.381103 0.566531,0.927498 0,0 z m -9.774181,-0.551209 c 0.07641,-0.413543 0.07641,0.413543 0,0 z m 0.08357,-0.492413 c 0.168206,-0.275494 -0.04463,0.519348 0,0 z m 0.09791,-0.477716 c 0.07641,-0.413543 0.07641,0.413543 0,0 z m 6.700545,-0.08819 c 0.0038,-0.428293 0.722014,0.920161 0,0 z m 1.996314,-0.176387 c 0.381461,-0.865206 -0.02972,0.501486 0,0 z m -4.715779,-0.0441 c -0.204723,-0.444509 0.442341,-0.04399 0,0 z m -3.897501,-0.183736 c 0.16823,-0.275479 -0.04464,0.519371 0,0 z M 40.8887,10.52437 c 0.0038,-0.428293 0.722014,0.920161 0,0 z m 3.811143,-0.176387 c 0.37224,-0.8527097 -0.02805,0.509967 0,0 z M 35.8215,10.259793 c 0.07641,-0.4135429 0.07641,0.413543 0,0 z m 4.069105,-0.110242 c 0.484393,-0.4114661 0.523729,0.920373 0,0 z m 0.09346,-0.198436 c -0.204738,-0.4445077 0.442337,-0.043992 0,0 z M 35.905082,9.767379 c 0.168227,-0.2754841 -0.04464,0.519366 0,0 z m 0.06136,-0.521813 c 0.06725,-0.9242579 0.245548,0.7518421 0,0 z M 36.086557,8.79725 c 0.168227,-0.2754846 -0.04464,0.5193651 0,0 z m 0.0979,-0.477716 c 0.07641,-0.4135369 0.0764,0.4135426 0,0 z m 0.08358,-0.4924124 c 0.168218,-0.2754802 -0.04464,0.5193668 0,0 z m 0.09791,-0.4777153 c 0.07641,-0.4135429 0.07641,0.4135429 0,0 z m 0.08358,-0.4924137 c 0.168236,-0.2754728 -0.04465,0.5193787 0,0 z M 37.463206,31.7206 c -0.238844,-0.39448 -0.25493,0.258876 0,0 z m 0.453708,0 c -0.238844,-0.39448 -0.25493,0.258876 0,0 z m 1.004656,-0.107226 c -0.773375,-1.376336 -1.142641,1.292637 0,0 z m 1.785646,0.09378 c 3.475856,0.650332 -1.212983,-2.759992 0,0 z m 0.776644,-0.06324 c -0.532424,-0.723221 -0.527687,0.457452 0,0 z m 0.947444,0.0962 c -0.07068,-0.411893 -0.290339,0.26661 0,0 z m 1.267165,-0.02726 c 0.109832,-0.917489 -0.705498,0.249175 0,0 z m 4.198231,-0.06236 c 1.799492,-0.588256 -2.102935,0.03715 0,0 z m 2.971168,-0.227207 c -2.429218,-1.806787 -0.09488,2.214035 0,0 z m 2.996866,0.316975 c -3.356658,-3.151859 4.801452,-5.491243 3.72759,-1.108923 -2.800125,2.584688 2.988088,0.183673 1.688439,-1.915999 -1.460627,-2.107115 -0.302723,-5.270819 -2.957885,-6.600043 -3.199669,-0.331383 -3.652444,-3.698068 -3.368227,-6.310504 0.27145,-3.257104 -3.766993,-2.947773 -4.792825,-5.526528 -2.37257,-1.2937949 -5.033262,-3.2498962 -7.722737,-3.526703 -2.305485,-2.0743574 -6.22145,-0.8158991 -7.605934,1.5370788 1.922071,1.4719508 3.052443,-1.1805363 4.19569,-1.6930569 1.276375,2.543438 3.610284,2.1742344 6.002986,2.3096776 2.978441,0.6048316 4.864127,3.1981885 6.406584,5.5731145 1.41737,0.671494 3.930253,0.615333 2.098435,2.654704 -0.775093,3.470013 5.490187,4.893688 3.607516,7.949325 -3.121695,0.713177 -5.840316,4.111873 -2.773193,6.64706 0.459671,0.24191 1.027492,0.225735 1.493561,0.0108 z M 51.62215,30.059223 c 0.187981,-0.607328 -0.08879,1.103146 0,0 z m 0.138516,-1.515438 c 0.262353,-0.437666 0.224282,0.258887 0,0 z m 0.544448,-0.08819 c 0.262336,-0.437675 0.22429,0.258895 0,0 z m 0.453709,-0.08819 c 0.262354,-0.437668 0.224283,0.258887 0,0 z m 0.544449,-0.08819 c 0.262352,-0.437668 0.224284,0.258886 0,0 z m 0.453708,-0.08819 c 0.262355,-0.437667 0.224284,0.258886 0,0 z m 0.544448,-0.08819 c 0.262353,-0.437669 0.224284,0.258886 0,0 z m 1.451865,-0.264581 c 0.262352,-0.437668 0.224284,0.258886 0,0 z m 0.544445,-0.08819 c 0.262346,-0.437674 0.224293,0.258895 0,0 z m 0.453709,-0.08819 c 0.262352,-0.437648 0.224296,0.258871 0,0 z M 57.2959,27.57366 c 0.262357,-0.437671 0.224289,0.258891 0,0 z m 0.453708,-0.08819 c 0.262359,-0.437626 0.224277,0.258856 0,0 z m 0.544443,-0.08819 c 0.262345,-0.437672 0.224291,0.258894 0,0 z m -3.06103,-0.167588 c 0.16823,-0.275479 -0.04464,0.519371 0,0 z m -0.181483,-0.617354 c 0.168227,-0.275482 -0.04464,0.519364 0,0 z m -0.272224,-0.97014 c 0.168231,-0.275474 -0.04464,0.519365 0,0 z M 48.238761,12.966176 c 0.23939,-0.484707 0.707358,-0.379441 0,0 z M 36.631012,5.8868636 c 0.168253,-0.2754681 -0.04465,0.5193856 0,0 z M 54.953633,31.249849 c 3.752607,1.236512 1.7768,-4.931581 -1.051126,-2.526843 -0.988019,0.722889 -0.505979,4.25605 1.051126,2.526843 z m 0.663309,-1.014227 c 0.169758,-0.760988 -0.06518,1.27697 0,0 z m 0.06262,1.33949 c -0.222242,-1.84269 -1.146029,0.595822 0,0 z m 3.351099,-0.454672 c 1.436702,-2.164816 -1.482129,0.764235 -0.09436,0.169546 l 0.07739,-0.13905 0.01697,-0.0305 z m 0.567993,0.327844 c 1.52875,-1.603476 -1.38144,0.0025 0,0 z m 0.510584,0.08819 c -0.442549,-0.766136 -0.109306,0.733852 0,0 z M 4.394473,31.19523 c -1.1315383,-0.937344 1.426423,1.634833 0,0 z m 28.332968,-0.121768 c 1.822802,-2.269021 -1.8924,0.18899 0,0 z m -0.368445,-0.980928 c -0.186406,-1.282019 -0.210841,1.718161 0,0 z m 1.554168,-0.132256 c 3.033682,-0.527631 -2.326852,-3.25365 -0.857829,-1.25293 0.620622,0.08687 0.552898,0.868845 0.857829,1.25293 z m -0.102301,-1.268041 c 0.381462,-0.865202 -0.02972,0.50149 0,0 z m -0.723155,-0.220484 c -0.204722,-0.444507 0.442339,-0.04399 0,0 z m 0.447981,0.920679 c -0.838399,-1.186027 -0.375652,0.634355 0,0 z m -1.006808,-0.04923 c 0.01222,-0.921891 -0.927768,0.236299 0,0 z m 2.917808,-0.168475 c 0.64613,-1.522747 -1.527945,0.28911 0,0 z M 4.7068165,28.629963 c 0.149263,-3.196285 1.5008338,-7.255018 5.1388852,-7.749058 2.0342343,-2.375967 0.2171533,-6.505921 3.2198573,-8.234275 2.902786,-1.718545 -3.206244,0.09806 -2.411309,2.255839 0.438556,3.547494 -1.6170906,6.426988 -4.7843386,7.658796 -1.269249,1.521327 -1.7147516,4.616307 -1.1630949,6.068698 z M 10.708524,14.559225 c -1.1326653,-1.060227 0.715521,0.567476 0,0 z m 21.858327,13.14328 c 3.208577,0.45158 1.452222,-4.098167 -0.589069,-2.734196 -0.25545,0.972623 0.456306,2.394968 0.417904,3.091696 l 0.171165,-0.3575 z m 0.501064,-0.48161 c 0.262353,-0.437664 0.224282,0.258886 0,0 z m -0.331626,-0.468916 c 0.07641,-0.413534 0.0764,0.413554 0,0 z m 0.08357,-0.492413 c 0.168227,-0.275482 -0.04464,0.519364 0,0 z m 0.0979,-0.477716 c 0.07641,-0.413534 0.0764,0.413554 0,0 z m 0.08357,-0.492413 c 0.168271,-0.27545 -0.04466,0.519411 0,0 z m 26.518369,2.206715 c 0.04071,-3.107699 -1.505702,-6.641114 -4.891471,-6.946583 -1.905661,-1.80629 0.188541,-5.810651 -2.267415,-6.902898 2.155109,2.392517 -0.885889,7.161392 3.471606,8.154803 2.744911,0.796219 2.908568,3.542747 2.832226,5.655602 0.154588,0.232917 1.152933,0.848525 0.855054,0.03908 z m -25.285717,0.363944 c 0.349128,-0.614878 -0.518509,0.158205 0,0 z m 0.796724,-0.422192 c 1.27872,-1.637911 -1.795792,0.355109 0,0 z m -0.130961,-0.597731 c 0.372201,-0.852726 -0.028,0.509966 0,0 z m 4.21521,0.603198 c 2.693913,-0.495594 0.586216,-6.867714 -0.788825,-3.054497 -2.834821,3.530024 -5.066955,-4.375885 -0.703946,-3.373184 1.701859,1.50561 3.077365,-1.318424 1.155505,-1.523303 -0.623479,0.994035 0.779341,1.020207 -1.091451,0.872959 -2.875847,-0.777651 -7.167255,2.877127 -3.668452,5.047647 1.206521,1.535858 2.998915,1.347813 3.647047,1.111695 1.201827,0.552399 -0.249146,1.230705 1.450122,0.918683 z m -2.94483,-0.630794 c 0.486104,-0.904787 0.448971,-0.04394 0,0 z m 2.812988,-0.545662 c 0.937195,-1.093744 -0.327398,0.615604 0,0 z m -2.902025,-0.19469 c -2.143954,-0.660276 1.380911,-1.081096 0.168892,0.05051 l -0.152462,-0.0456 -0.01643,-0.0049 z m -0.1554,-0.347132 c -0.119835,-0.260172 -0.07016,-0.152315 0,0 z m 2.059273,0.200202 c 0.861678,-0.804077 0.06627,1.169319 0,0 z m 1.583876,-0.127269 c -0.88159,-1.273939 -0.196914,-1.646045 0.133805,-0.153867 l -0.06038,0.235728 -0.07342,-0.08186 z m -5.280953,-0.612594 c 0.08863,-1.034216 0.226465,0.375773 0,0 z m -1.151757,-0.875789 c -0.498821,-0.762232 0.639351,-0.317549 0,0 z m 1.494176,0.01702 c -0.204722,-0.444507 0.442339,-0.04399 0,0 z m 4.262072,-0.617355 c 0.944188,-1.095653 -0.329248,0.612382 0,0 z m -4.900041,0.06044 c 0.357231,-0.865182 0.778722,0.168178 0,0 z m -0.628027,-0.420555 c 0.168224,-0.275487 -0.04463,0.519351 0,0 z m 6.072517,-0.257231 c 0.944189,-1.095667 -0.329238,0.612376 0,0 z M 33.46221,22.871477 c 0.07641,-0.413534 0.0764,0.413554 0,0 z m 0.08693,-0.500978 c -0.896704,-0.863775 1.066585,-0.08629 0,0 z m 1.333582,0.08796 c 0.262355,-0.437666 0.224287,0.258889 0,0 z m -0.362965,-0.08819 c 0.262355,-0.437668 0.224284,0.258887 0,0 z m -0.362967,-0.08819 c 0.262353,-0.437667 0.224283,0.258888 0,0 z m 5.268447,-0.799642 c -0.08127,-0.395782 0.666556,1.031486 0,0 z m -0.362965,-0.26458 c -0.08128,-0.395788 0.666563,1.031486 0,0 z m -0.8051,-0.01684 c -0.129716,-0.57522 0.358801,0.20319 0,0 z m 0.998157,-1.680882 c 0.372234,-0.852708 -0.02805,0.509969 0,0 z m 20.342609,7.306747 c -0.606118,-0.876612 0.656042,1.860677 0,0 z M 35.807174,26.496834 c -0.174023,-0.97599 -0.408052,0.467766 0,0 z m 22.247621,-4.870152 c 0.08967,-1.961618 -4.75717,-1.250017 -1.460727,-0.58999 0.4967,0.01081 0.986994,0.914337 1.460727,0.58999 z M 6.7842075,21.315659 C 9.5931512,20.968137 5.5684602,20.46901 6.340009,21.64452 6.5114054,21.573653 6.6328289,21.418897 6.7842075,21.315659 z M 8.845776,20.434746 c 0.090164,-0.983218 -0.6965427,1.1774 0,0 z m 29.839166,0.07755 c 1.585739,-0.737679 -1.405279,0.205229 0,0 z m -29.236644,-0.7276 c -0.3681725,-0.251657 -0.1846231,1.51821 0,0 z m 47.909984,0.352774 c -0.421312,-0.647859 -0.312075,0.476777 0,0 z M 7.6822978,19.772975 c 2.0325827,-0.723737 -0.3717497,-3.121341 -0.5223042,-0.677002 -0.4951453,0.487833 -0.038603,1.411118 0.5223042,0.677002 z m 21.8152612,0.03948 c -0.08026,-0.748903 -0.623217,-3.240793 0.286561,-1.596837 0.494718,2.680653 3.518266,-0.817529 1.905091,-2.226901 -1.088285,-2.669197 -6.846543,0.02807 -3.776382,2.200631 0.409445,0.654059 1.176093,0.969169 1.58473,1.623107 z m 1.204985,-0.596101 c 0.03093,-0.766799 0.529255,0.555591 0,0 z m -1.240112,-1.687945 c 0.168221,-0.27549 -0.04463,0.519347 0,0 z m -0.08357,-0.477715 c 0.0764,-0.413546 0.07641,0.41354 0,0 z m -0.09455,-0.507113 c -0.713547,-0.422116 0.428894,-0.466946 0,0 z m 0.556608,-0.347423 c 0.386102,-0.451403 0.316481,0.281424 0,0 z m 1.088896,-0.08819 c 0.3861,-0.451402 0.31648,0.281423 0,0 z m 25.657166,3.764922 c -0.309981,-0.508404 -0.513931,0.61528 0,0 z M 24.35507,19.469981 c 1.541443,-0.698928 -1.045061,-2.582357 -0.09818,-0.65593 -1.207442,-2.59582 -1.448326,1.518364 0.09818,0.65593 z M 10.668413,17.437584 C 10.035405,16.317166 9.4729292,15.314682 9.7334749,17.233875 9.57191,18.847792 10.048857,19.362537 10.668413,17.437584 z m 46.281533,1.864558 c 0.205825,-1.994574 -3.077022,-2.020578 -1.241685,-0.225288 0.368905,0.225509 0.819356,0.284399 1.241685,0.225288 z M 54.17213,19.032294 c -0.654381,-0.728755 0.408274,0.740516 0,0 z m -0.08331,-0.664651 c 0.742891,-1.297465 -1.022807,-0.982153 0,0 z m -24.270594,-0.08225 c -1.215952,-1.424942 -0.02384,1.278949 0,0 z m -5.718105,-0.02205 c -0.05054,-0.738064 -0.50242,0.153832 0,0 z M 54.772147,17.92641 c -0.514844,-0.24307 -0.06554,0.671633 0,0 z m -1.148599,-0.474368 c -0.248954,-0.427524 -0.119649,0.871663 0,0 z m -44.214476,-0.3793 c -0.3277617,-1.263561 -0.6919327,-0.05064 0,0 z m 22.488815,-0.661453 c -0.1089,-1.062045 -0.272042,1.614002 0,0 z m 22.502614,-0.273646 c 0.187667,-1.941893 -0.769568,1.259378 0,0 z m 0.46239,0.0592 c -0.517991,-0.557438 -0.03457,0.771315 0,0 z m -35.247558,-0.95223 c 0.190642,-2.723109 6.784932,-2.035382 3.570651,-5.4549698 -1.973996,-1.5657269 -3.034539,1.2678708 -2.684456,2.6205618 -1.306861,0.346378 -2.846394,-2.9315535 -3.591749,0.103927 -0.873297,1.882216 1.274889,2.54738 2.705554,2.730481 z m -2.410169,-1.402185 c 0.04266,-0.734126 0.496235,0.0046 0,0 z m 0.362966,-0.264581 c 0.04271,-0.734116 0.496202,0.0046 0,0 z m 0.998156,-0.705548 c 0.04266,-0.73413 0.496244,0.0046 0,0 z m 0.362966,-0.26458 c 0.04267,-0.734124 0.49623,0.0046 0,0 z m 3.901886,2.10219 c -1.294255,-0.406575 -0.630271,1.588458 0,0 z m 11.545518,-1.297198 c 1.897408,-4.2891801 -5.374101,-0.196578 -0.347811,0.139903 l 0.347811,-0.139903 z m -0.859647,-0.657683 c 0.476353,-0.465573 0.334973,0.287052 0,0 z m 17.410342,-0.808085 c -0.645068,-1.773383 -3.365369,-1.147613 -0.853709,-0.05595 0.295051,0.258815 1.77321,0.994306 0.853709,0.05595 z m -36.87192,-0.824614 c 0.138718,-0.63344 -1.097574,1.584096 0,0 z m 0.642016,-0.193994 c 0.0012,-1.3798056 -0.47023,1.53925 0,0 z m 35.265403,0.08631 c -0.07061,-0.411912 -0.290382,0.266548 0,0 z M 18.415814,9.855313 c 1.734738,0.015252 0.649998,-2.9991622 0.167349,-0.8082718 -1.406582,0.3578332 -3.174929,1.2513758 -0.167349,0.8082718 z m -0.575398,-0.56568 c 2.826462,-1.8487861 -2.656945,0.1631623 0,0 z M 45.603937,8.870744 c -0.620691,-1.4649608 -2.445584,-1.1036721 0,0 z m 1.482359,-0.03092 c -0.682262,-0.2044558 -0.970995,0.3309832 0,0 z M 17.820742,8.597763 c 0.303547,-1.106004 -0.841063,0.5511908 0,0 z M 45.690737,8.370981 c -0.326492,-1.9227343 -1.843052,0.3409069 0,0 z m 0.861204,0.225874 c -0.393215,-0.3345968 -0.379075,0.4547331 0,0 z M 46.372184,8.309508 c -0.383497,-0.4379161 -0.160313,0.7598295 0,0 z M 45.888901,8.028832 c -0.961385,-0.600003 0.326597,0.6160276 0,0 z M 18.20332,8.054952 c -0.153639,-0.3620294 -0.141522,0.4141973 0,0 z M 22.765253,7.0171762 C 25.282512,5.1369843 28.920499,5.7970836 30.870209,7.6547995 31.986327,6.9776419 28.85314,5.8708896 28.203194,5.32324 26.140941,4.6910199 21.716345,5.9879115 21.580936,7.372608 c 0.419835,0.040746 0.861892,-0.076399 1.184317,-0.3554318 z M 33.292969,7.4924436 C 34.9632,7.629415 37.276884,4.0201894 34.279954,6.0067935 33.79716,6.2408574 31.075827,7.8689373 33.292969,7.4924436 z M 41.085433,7.2615829 C 44.150019,6.373727 35.778588,4.3679352 39.207992,5.9349718 c 0.649662,0.4082059 1.23783,0.9038054 1.877441,1.3266111 z M 30.050539,6.3588359 c -0.27548,-1.4770087 -0.161527,1.3715153 0,0 z M 32.721962,6.774348 C 33.996586,6.939679 36.066224,4.2030442 33.781416,5.9255279 33.681251,6.0456122 31.570014,6.8506118 32.721962,6.774348 z M 31.905289,6.5556643 c -1.091214,-0.4254204 -1.61878,0.4327691 0,0 z m -9.127867,-0.308677 c -0.714019,-0.6819038 -0.360734,0.9412699 0,0 z m 18.646419,0.029464 c 1.049342,-0.1339475 -0.708166,-0.1691467 0,0 z M 30.72565,5.9824062 c -0.201842,-0.8192787 -0.201833,0.8192843 0,0 z m 0.63519,-0.1322899 c -0.191688,-0.4212138 -0.191688,0.4212138 0,0 z m 0.544449,-0.6293425 c 0.09153,-1.8095667 -2.155571,0.8701349 -0.304187,0.2679326 0.335759,1.1981008 0.240814,0.1163476 0.304187,-0.2679326 z m 0.469801,0.3868105 c 1.893003,-1.0012828 -1.462279,-1.2604917 0,0 z m 2.070961,-0.3776679 c 0.831946,-1.1988404 -1.442213,1.2821258 0,0 z m -4.900041,0.091039 c -1.139716,-1.5796113 -1.652145,0.8047621 0,0 z m 4.349618,-0.529161 c -0.545614,0.2218426 0.23587,0.9781198 0,0 z m -4.349618,0.015271 c -0.52152,-0.307774 -0.552384,0.3838907 0,0 z"
     id="path3122"
     inkscape:connector-curvature="0" />
</svg>
