<?xml version="1.0" encoding="UTF-8" standalone="no"?>
<!-- Created with Inkscape (http://www.inkscape.org/) -->

<svg
   xmlns:dc="http://purl.org/dc/elements/1.1/"
   xmlns:cc="http://creativecommons.org/ns#"
   xmlns:rdf="http://www.w3.org/1999/02/22-rdf-syntax-ns#"
   xmlns:svg="http://www.w3.org/2000/svg"
   xmlns="http://www.w3.org/2000/svg"
   xmlns:sodipodi="http://sodipodi.sourceforge.net/DTD/sodipodi-0.dtd"
   xmlns:inkscape="http://www.inkscape.org/namespaces/inkscape"
   version="1.1"
   width="16"
   height="16"
   id="svg5188"
   inkscape:version="0.48.5 r10040"
   sodipodi:docname="phaser_rnp_pipeline.svg">
  <sodipodi:namedview
     pagecolor="#ffffff"
     bordercolor="#666666"
     borderopacity="1"
     objecttolerance="10"
     gridtolerance="10"
     guidetolerance="10"
     inkscape:pageopacity="0"
     inkscape:pageshadow="2"
     inkscape:window-width="747"
     inkscape:window-height="480"
     id="namedview3262"
     showgrid="false"
     inkscape:zoom="14.75"
     inkscape:cx="12.828364"
     inkscape:cy="8"
     inkscape:window-x="0"
     inkscape:window-y="0"
     inkscape:window-maximized="0"
     inkscape:current-layer="g3264" />
  <defs
     id="defs5190" />
  <metadata
     id="metadata5193">
    <rdf:RDF>
      <cc:Work
         rdf:about="">
        <dc:format>image/svg+xml</dc:format>
        <dc:type
           rdf:resource="http://purl.org/dc/dcmitype/StillImage" />
        <dc:title />
      </cc:Work>
    </rdf:RDF>
  </metadata>
  <g
     id="layer1">
    <g
       id="g3264"
       transform="matrix(1.0219924,0,0,1.0132797,-0.28028927,-0.51634398)">
      <path
         style="fill:#3dd03d;fill-opacity:1"
         d="M 5.9858708,13.92847 C 5.5482465,13.656537 5.5174063,13.107429 5.9200319,12.756216 6.0947496,12.603807 6.126149,12.532364 6.334726,11.812655 6.5350703,11.121355 6.5514961,11.028917 6.4811261,10.988784 6.261783,10.863689 6.0131823,10.572041 5.9352247,10.348354 L 5.8502457,10.104521 5.0831771,9.817048 C 4.6612893,9.6589381 4.0954885,9.4457404 3.8258422,9.3432759 L 3.335576,9.1569766 3.096936,9.3316966 C 2.7362002,9.5958088 2.4253594,9.6978476 1.9816682,9.6978013 1.6640776,9.6977685 1.5492351,9.6735437 1.3030177,9.5546473 0.9831859,9.4002035 0.70734808,9.1252971 0.52718699,8.7814361 0.43077237,8.5974159 0.41391051,8.4902932 0.41391906,8.0618476 0.41392796,7.6157919 0.42924237,7.5267161 0.54839357,7.2796804 0.73081999,6.9014565 1.0875777,6.5463146 1.4759,6.3563751 1.7577321,6.218523 1.8482741,6.1993321 2.2168239,6.1993321 c 0.3509357,0 0.4656526,0.021881 0.6988376,0.1332938 0.5773026,0.2758285 0.8825161,0.7501132 0.9201288,1.4298287 l 0.02243,0.4053426 1.175927,0.4411467 1.1759271,0.4411475 0.1981572,-0.1336391 C 6.6748505,8.7366426 7.1159028,8.6927833 7.4296228,8.8148818 7.7423065,8.9365775 7.9410875,9.1221385 8.0766989,9.4189233 8.3805206,10.083837 8.025908,10.886318 7.3502861,11.062781 l -0.2339931,0.06112 -0.2111376,0.753429 c -0.2026644,0.723193 -0.207472,0.756162 -0.1197876,0.821503 0.2763492,0.205931 0.3575007,0.656289 0.1736359,0.96361 -0.205956,0.344247 -0.651322,0.465999 -0.9731329,0.266031 z m 6.2645322,-1.809579 -1.015406,-1.260005 0,-1.3559316 0,-1.3559319 L 10.732527,7.3995161 10.230058,6.65201 10.163931,5.7532763 C 10.12756,5.2589635 10.09614,4.7035601 10.094092,4.519026 l -0.0036,-0.3355168 0.476918,-0.418914 c 0.461987,-0.4058243 0.51912,-0.437464 1.8284,-1.0125837 0.743331,-0.3265184 1.371132,-0.5936698 1.395113,-0.5936698 0.103075,0 2.185533,4.9985451 2.185992,5.2470798 4.6e-5,0.024924 -0.571693,0.2689747 -0.73665,0.8544225 L 14.503491,9.0689478 14.368665,9.794118 c -0.214779,1.155195 -0.244257,1.024728 0.553165,1.996433 0.377113,0.459533 0.664549,0.853365 0.638748,0.875182 -0.0258,0.02181 -0.341238,0.132289 -0.70097,0.245494 -0.359734,0.113203 -0.838098,0.264743 -1.063033,0.336749 -0.224934,0.072 -0.43637,0.13092 -0.469855,0.13092 -0.03349,0 -0.200809,-1.260005 -1.076287,-1.260005 z m 1.927862,0.871707 c 0,-0.0211 -0.261314,-0.262881 -0.580698,-0.537286 -0.44841,-0.385263 -0.606722,-0.491763 -0.694939,-0.467498 -0.06284,0.01729 -0.206217,0.0468 -0.318633,0.06559 -0.112418,0.0188 -0.204393,0.04574 -0.204393,0.05991 0,0.01415 0.210394,0.290075 0.467542,0.613159 l 0.467541,0.587423 0.431791,-0.141461 c 0.233251,-0.07642 0.431789,-0.158726 0.431789,-0.179833 z m 0.800966,-0.214402 0.501457,-0.166949 -0.501323,-0.617852 c -0.479179,-0.590561 -0.506097,-0.613251 -0.59814,-0.52458 -0.08688,0.08371 -0.09303,0.164207 -0.05983,0.7848 0.02366,0.442249 0.05851,0.69153 0.09669,0.69153 0.03283,0 0.285345,-0.07514 0.561142,-0.166949 z m -0.72706,-0.336886 c -0.0332,-0.601821 -0.06746,-0.803413 -0.136528,-0.803413 -0.03173,0 -0.265159,0.06465 -0.51874,0.143655 -0.311882,0.09717 -0.44316,0.16154 -0.405743,0.198933 0.174506,0.17439 1.020094,0.905101 1.050082,0.907425 0.01964,0.0015 0.02456,-0.199448 0.0109,-0.4466 z m -1.581369,-0.492642 0.263947,-0.06842 -0.724625,-0.625018 c -0.965425,-0.832718 -0.920622,-0.802842 -0.920622,-0.613726 0,0.11256 0.132883,0.317284 0.496964,0.76565 0.273329,0.336606 0.524732,0.611539 0.558676,0.61096 0.03394,-5.78e-4 0.180488,-0.03183 0.32566,-0.06945 z m 0.946756,-0.264945 0.560707,-0.17205 0,-0.254622 c 0,-0.140976 -0.0167,-0.27131 -0.03711,-0.291706 -0.02041,-0.0204 -0.03885,-0.157298 -0.04098,-0.304223 -0.0022,-0.146927 -0.01903,-0.282279 -0.03755,-0.300784 -0.02936,-0.02933 -2.051132,0.48342 -2.100443,0.532698 -0.01904,0.01902 1.023245,0.954456 1.069444,0.959812 0.01387,0.0016 0.277539,-0.0745 0.585938,-0.169125 z M 14.31413,11.19112 c -0.06729,-0.09027 -0.08493,-0.09821 -0.06081,-0.02737 0.01868,0.05489 0.03395,0.139439 0.03395,0.187917 0,0.06486 0.01607,0.07208 0.06081,0.02737 0.04475,-0.04472 0.03578,-0.09436 -0.03395,-0.187916 z m -2.22194,-0.949974 c -0.01499,-0.01498 -0.187435,0.01543 -0.383226,0.06756 l -0.355982,0.0948 0.227159,0.201796 0.227159,0.201797 0.156065,-0.269367 c 0.08583,-0.14815 0.143809,-0.281616 0.128825,-0.296588 z m 0.894665,0.272795 c 0.520376,-0.137752 0.963446,-0.266572 0.984601,-0.28627 0.02116,-0.0197 0.01287,-0.136568 -0.01841,-0.2597117 l -0.05687,-0.223897 -0.744663,0.1836712 c -0.40979,0.1010745 -0.776759,0.2019115 -0.815987,0.2242075 -0.09764,0.05549 -0.414007,0.612456 -0.347891,0.612456 0.02919,0 0.478839,-0.11271 0.999218,-0.250456 z M 12.524221,9.5714652 c 0.199653,-0.3451738 0.29142,-0.5631422 0.29142,-0.6946819 0,-0.1865472 -0.004,-0.1899853 -0.175188,-0.1524003 -0.510527,0.1120553 -0.520056,0.1235157 -0.920405,0.879674 l -0.378146,0.714223 0.445448,-0.121492 0.44545,-0.121494 z m 1.765027,0.1744273 0.09691,-0.5323777 -0.204774,0.239983 -0.204774,0.2399832 0.08463,0.315623 c 0.04655,0.173593 0.09508,0.30517 0.107863,0.292394 0.01278,-0.01277 0.06685,-0.262799 0.12015,-0.5556055 z M 11.643785,9.5660857 C 11.809163,9.2365501 11.921612,8.96693 11.89367,8.96693 c -0.02794,0 -0.175034,0.028657 -0.327484,0.063824 l -0.276684,0.063824 0,0.5353321 c 0,0.2950061 0.01206,0.5353327 0.0268,0.5353327 0.01474,0 0.162107,-0.2696208 0.327485,-0.5991563 z m 2.196624,0.082195 c 0.009,-0.00834 -0.0614,-0.2851044 -0.156534,-0.6150286 l -0.172959,-0.599861 -0.279507,0.09475 c -0.271222,0.091942 -0.280323,0.1016981 -0.307753,0.334855 -0.01741,0.1479758 -0.127206,0.4115558 -0.28615,0.6869344 -0.141848,0.2457556 -0.257904,0.456966 -0.257904,0.469356 0,0.02192 1.428058,-0.3407664 1.460807,-0.3710058 z m 0.176093,-0.1230465 c 9.65e-4,-0.022469 0.256367,-0.3227271 0.567565,-0.6672416 0.311198,-0.3445147 0.561761,-0.6305282 0.556808,-0.6355855 -0.0049,-0.00506 -0.290557,0.013421 -0.634672,0.041064 -0.539962,0.043376 -0.640497,0.065783 -0.742572,0.1726016 l -0.116909,0.1223412 0.142108,0.5038355 c 0.07816,0.2771095 0.160966,0.5038355 0.184014,0.5038355 0.02305,0 0.0427,-0.018382 0.04365,-0.040851 z M 12.30753,8.2842971 c 0.155216,-0.2986018 0.263839,-0.5618191 0.241385,-0.5849264 -0.02246,-0.023107 -0.326856,0.019787 -0.676447,0.09532 -0.349591,0.075534 -0.653205,0.1373337 -0.674698,0.1373337 -0.02149,0 -0.0097,0.029413 0.02632,0.065362 0.04084,0.040809 0.06541,0.2431695 0.06541,0.5386836 l 0,0.4733203 0.367908,-0.09109 0.367909,-0.091091 z m 0.225694,0.3809449 0.282417,-0.083813 0,-0.4381784 c 0,-0.2869929 -0.02013,-0.4314767 -0.05832,-0.4187539 -0.07685,0.025599 -0.618094,1.0245587 -0.555116,1.0245587 0.02673,0 0.174802,-0.037455 0.331016,-0.083814 z m 0.681494,-0.2208848 c -0.147736,3.764e-4 0.254983,-0.1090302 0.254983,-0.1361717 0,-0.027141 0.07316,-0.049349 0.163515,-0.049349 l 0.163515,0 0,-0.4357496 c 0,-0.2406392 -0.0066,-0.4357497 -0.01452,-0.4357497 -0.008,0 -0.198068,0.070376 -0.422413,0.1563926 l -0.4079,0.1563923 -0.01591,0.4155293 c -0.0087,0.2285402 -0.007,0.4155286 0.004,0.4155286 0.0109,0 0.134579,-0.039071 0.274818,-0.086823 z m 1.31783,-0.4843019 c 0.269799,-0.111193 0.512055,-0.2224753 0.538345,-0.247295 0.03627,-0.034238 -0.05554,-0.7691825 -0.09485,-0.7592979 -0.0042,0.00103 -0.247369,0.086113 -0.525252,0.1836849 l -0.517797,0.1818104 -0.01594,0.4494195 c -0.0126,0.3554511 -3.83e-4,0.4432826 0.0545,0.421633 0.03874,-0.015284 0.291189,-0.1187625 0.560994,-0.2299549 z m 0.616938,0.1584212 c 0.0622,-0.019473 0.04809,-0.2098936 -0.02133,-0.2880295 -0.01578,-0.017759 -0.840543,0.3068598 -0.887038,0.3491302 -0.02604,0.023672 0.819204,-0.033182 0.908366,-0.061101 z m 0.590229,-0.5506008 c -0.0093,-0.00928 -0.118908,0.025944 -0.243574,0.078305 -0.193053,0.081084 -0.226751,0.1190981 -0.227222,0.2563325 l -5.55e-4,0.1611299 0.244128,-0.2394358 C 15.646763,7.692518 15.749013,7.5771681 15.739715,7.5678757 z M 11.850463,7.711484 c 0.403245,-0.085988 0.579945,-0.1462752 0.562429,-0.1918914 -0.02274,-0.059239 -0.820407,-1.196409 -0.900552,-1.2838558 -0.01764,-0.019245 -0.295738,-0.052243 -0.617999,-0.073327 l -0.585928,-0.038336 0,0.2507428 c 0,0.2218223 0.04845,0.3234355 0.418579,0.8788134 0.230218,0.3454389 0.444887,0.6179819 0.477042,0.6056514 0.03215,-0.01233 0.323048,-0.078839 0.646429,-0.1477974 z m 3.716125,-0.1849773 c 0.165731,-0.073246 0.301331,-0.1438605 0.301331,-0.1569212 0,-0.053471 -0.283317,-0.7750128 -0.318607,-0.8114186 -0.021,-0.021656 -0.141643,0.051683 -0.2686,0.1634061 l -0.23043,0.2027805 0.08623,0.3676638 c 0.04743,0.2022185 0.09581,0.3676638 0.107484,0.3676638 0.01168,0 0.156848,-0.059928 0.322594,-0.1331744 z M 12.804616,7.267151 12.788389,6.9290896 12.252241,6.6135265 C 11.957117,6.4398246 11.703803,6.2979634 11.688782,6.2979634 c -0.02626,0 0.262295,0.4192069 0.702976,1.0212882 0.132662,0.1812512 0.249541,0.2859607 0.319193,0.2859607 0.100131,0 -0.160884,-0.1633447 0.09366,-0.3380613 z m 0.556962,0.1816839 0.4079,-0.1563776 0.01612,-0.3936801 c 0.0088,-0.2165242 -0.0049,-0.3851357 -0.03055,-0.3746925 -0.55967,0.2276847 -0.884246,0.4051187 -0.859406,0.4698069 0.01595,0.041549 0.02901,0.1960932 0.02901,0.3434321 0,0.1473388 0.0066,0.2678886 0.01452,0.2678886 0.008,0 0.198067,-0.070371 0.42241,-0.1563774 z m 1.13009,-0.4160666 c 0.311499,-0.1070305 0.448936,-0.1808961 0.447289,-0.2403969 -0.0055,-0.1995052 -0.140947,-0.7326462 -0.189807,-0.747243 -0.0292,-0.00872 -0.224778,0.075235 -0.434622,0.1865733 l -0.381535,0.2024334 -0.01616,0.401694 c -0.0127,0.3157581 -1.63e-4,0.3960027 0.0545,0.3765687 0.03886,-0.013819 0.273007,-0.094653 0.520331,-0.1796295 z M 13.784781,5.7601955 c 0.0084,-0.3632991 0.0084,-0.6600977 0,-0.6595524 -0.09881,0.0064 -1.311692,0.2147895 -1.322598,0.227241 -0.01282,0.014626 0.315442,1.2642862 0.37939,1.4443307 0.01597,0.044974 0.16405,8.4e-4 0.475627,-0.1428695 l 0.452278,-0.208606 z m -1.19541,0.4424477 C 12.501747,5.8805969 12.415638,5.5496996 12.398015,5.4673157 12.366578,5.320344 12.358498,5.3175267 11.964002,5.3175267 l -0.401975,0 0,0.3968263 0,0.3968265 0.558676,0.3334893 c 0.307677,0.1836608 0.57427,0.3357446 0.59333,0.338501 0.01906,0.00276 -0.03704,-0.2584805 -0.124662,-0.5805266 z m 2.897014,0.1826797 c 0,-0.031798 -0.06443,-0.2263251 -0.143189,-0.4322827 l -0.143187,-0.3744683 -0.165902,0.1657921 -0.165904,0.1657919 0.07028,0.3981615 c 0.03864,0.2189888 0.08107,0.4165395 0.09428,0.4390018 0.03076,0.052334 0.453629,-0.2851109 0.453629,-0.3619963 z M 14.753556,5.8079111 c -0.01269,-0.045028 -0.06405,-0.2902119 -0.11415,-0.5448532 -0.0501,-0.2546412 -0.100058,-0.4724878 -0.111018,-0.4841036 -0.01101,-0.011616 -0.15593,0.049894 -0.321157,0.1361718 l -0.301224,0.1572914 -1.09e-4,0.6437152 -1.1e-4,0.6437151 0.435441,-0.2350337 c 0.29973,-0.1617823 0.428245,-0.2605485 0.412369,-0.316903 z M 11.507142,5.6851904 11.50676,5.2902923 10.841348,4.7618692 C 10.475206,4.4711051 10.171226,4.2383827 10.16547,4.2444164 c -0.0057,0.00603 0.01564,0.4080724 0.04754,0.893419 0.06706,1.02011 -0.01543,0.9229781 0.790339,0.9348355 l 0.504172,0.00742 z m 3.554941,-0.483919 C 14.838579,4.6064875 14.813848,4.5709597 14.681631,4.6548307 c -0.05468,0.034686 -0.04622,0.1540346 0.04089,0.5770833 0.06041,0.2933447 0.109812,0.5485677 0.109812,0.5671622 0,0.018595 0.07641,-0.042546 0.16979,-0.1358683 L 15.17191,5.4935315 z m -2.7756,-0.1882645 C 12.255442,4.8217997 12.270999,4.8011232 12.9822,4.088932 13.382312,3.6882611 13.698605,3.3499456 13.685072,3.3371196 13.671543,3.3242934 13.200494,3.2959429 12.6385,3.2741268 l -1.021968,-0.039673 0,0.7343566 c 0,0.4038962 -0.0156,0.8480768 -0.03466,0.9870681 l -0.03467,0.2527114 0.385517,0 0.385516,0 z m 0.910693,0.097284 0.572302,-0.092408 0.01476,-0.7897631 0.01476,-0.7897631 -0.73966,0.7382812 c -0.708806,0.7074837 -0.737036,0.7451817 -0.683796,0.8851165 0.06507,0.1710114 0.06365,0.1709287 0.821642,0.048537 z M 11.495978,3.7436783 11.48027,3.253694 11.275697,3.3460248 c -0.197884,0.089312 -1.024589,0.7569614 -1.019107,0.8227221 0.0015,0.017694 0.274965,0.2471441 0.61318,0.5141716 l 0.6105,0.4820007 0.01571,-0.4656284 c 0.0086,-0.2560956 0.0086,-0.6861213 -5e-6,-0.9556125 z m 2.744624,1.0524298 C 14.488836,4.670402 14.51434,4.6409537 14.488268,4.5101475 14.472285,4.4299443 14.415767,4.1375977 14.36267,3.8604888 l -0.09653,-0.5038355 -0.1802,0 -0.180199,0 0,0.7897962 c 0,0.4357319 0.01308,0.7897963 0.02907,0.7897963 0.01598,0 0.153593,-0.063062 0.305799,-0.1401377 z m 0.386859,-0.6249556 c -0.07707,-0.1784778 -0.148845,-0.315776 -0.159521,-0.3051071 -0.01875,0.018734 0.07383,0.5301086 0.123362,0.6814365 0.01868,0.057059 0.04185,0.059648 0.100277,0.011204 0.06409,-0.053148 0.05403,-0.113866 -0.06412,-0.3875331 z M 14.178265,3.1978383 c 0,-0.07986 -0.393734,-0.9305592 -0.430697,-0.9305592 -0.01844,0 -0.474814,0.1955107 -1.014155,0.4344683 -0.824733,0.3654021 -0.950293,0.4357735 -0.789851,0.4426792 0.104925,0.00451 0.460567,0.025427 0.790322,0.046469 0.927031,0.059154 1.444381,0.061642 1.444381,0.00694 z M 3.0765947,5.5507629 C 3.0610921,5.5095922 3.1613311,5.3741249 3.3215941,5.2196603 4.1582991,4.413227 5.1586902,3.8120499 6.1079563,3.5452179 6.4161046,3.4585996 6.631989,3.4375034 7.2304091,3.435532 8.0435899,3.4328509 8.2699976,3.4780514 9.0005302,3.7889066 L 9.3875934,3.953609 9.353614,3.6921685 C 9.332217,3.527537 9.3369058,3.4493676 9.3662765,3.4810661 9.4876991,3.6121114 9.7649761,4.675099 9.7508309,4.689129 9.7366254,4.703219 9.1676229,4.3027074 8.9098367,4.1875411 8.8239654,4.1491781 8.8336541,4.1393711 8.9839291,4.1125477 L 9.1568113,4.0816888 8.9098367,3.9669518 C 8.3446015,3.7043605 7.9699288,3.6317665 7.2057117,3.6367737 6.5795129,3.6408767 6.4348515,3.6583399 6.0548405,3.7757038 5.2044131,4.0383529 4.3990058,4.5160635 3.5872463,5.2393059 3.3519657,5.4489309 3.1467214,5.6204421 3.1311477,5.6204421 c -0.015573,0 -0.040122,-0.031356 -0.054553,-0.069679 z"
         id="path3278"
         inkscape:connector-curvature="0"
         sodipodi:nodetypes="ssssscsscsssssssssscccsssscssssscccccscccsssscsscscsssccssscssccsccsccccscccccsssscccscccsccccscccscccccssccscsssccscccscscccccscscssscccscssccscssccscsssscscccsscscsscsscsssccsccsscscscssccscsccscsccscsscscscsccscssssssssscccssssccscscscsccsccscscccscscccccccccccscccscccssccsccsccsccscscscscccccscccsssccscscccccscccssccscccssscssssssscssssscsssssss" />
      <path
         style="fill:#5bd95b"
         d="M 6.0363104,13.953481 C 5.7561311,13.829282 5.5963513,13.458094 5.68373,13.134394 5.7140387,13.022114 5.815652,12.868581 5.9326423,12.7583 6.1157775,12.585666 6.1463816,12.515222 6.3481535,11.801873 6.5456749,11.103551 6.5583378,11.027114 6.4840636,10.981467 6.2478294,10.836279 6.0889166,10.651151 5.9664477,10.378462 L 5.8303282,10.075378 4.5633725,9.603795 3.2964167,9.1322121 3.1641285,9.2586025 C 3.0913699,9.3281171 2.9095878,9.4496115 2.7601681,9.5285902 2.5173991,9.656911 2.4385726,9.6722138 2.0192442,9.6724297 1.6045818,9.6726311 1.5170994,9.6562107 1.2672436,9.5311736 0.95699775,9.3759148 0.69716267,9.1006727 0.52528301,8.7452182 0.43464744,8.5577801 0.41390901,8.4303357 0.41390901,8.0607891 c 0,-0.4112806 0.0152508,-0.485673 0.16172458,-0.7888858 C 0.77724431,6.8545527 1.167045,6.4779687 1.5625061,6.3184919 1.9904237,6.1459266 2.5446832,6.1545028 2.9155745,6.3394284 c 0.558941,0.2786868 0.8873607,0.7977542 0.9126411,1.4424287 0.00944,0.2408366 0.037415,0.3868665 0.078405,0.4093318 0.035048,0.019209 0.5619343,0.2203278 1.1708591,0.4469315 L 6.1846157,9.0501276 6.4950777,8.889536 C 6.7662712,8.7492568 6.8428595,8.7316953 7.1005908,8.7506939 c 0.3876139,0.028573 0.714602,0.230351 0.9188312,0.5669936 0.1295386,0.2135243 0.1494908,0.2939694 0.1494908,0.6027282 0,0.3007233 -0.021868,0.3942303 -0.1401645,0.5993283 -0.1526654,0.264687 -0.4871531,0.51567 -0.7556486,0.567002 -0.1783804,0.0341 -0.1469697,-0.03928 -0.46083,1.076711 l -0.1342213,0.477253 0.1166337,0.09349 c 0.3972785,0.318469 0.3139473,0.986092 -0.1511559,1.211013 -0.2041388,0.09872 -0.3972275,0.101344 -0.6072158,0.0083 z M 3.0758296,5.5611905 C 2.9930589,5.424707 4.201176,4.433781 4.923448,4.0457304 6.3259025,3.2922423 7.7550297,3.2151178 9.0465302,3.8232234 L 9.4105917,3.9946426 9.3754768,3.7630235 C 9.3561633,3.635633 9.3468608,3.5242223 9.354805,3.5154442 9.3627487,3.506666 9.5609448,3.7533954 9.7952408,4.0637315 10.029537,4.3740676 10.213457,4.6359034 10.203953,4.6455889 10.172599,4.6775423 8.9345342,4.197564 8.9345342,4.153455 c 0,-0.023739 0.061126,-0.045105 0.135836,-0.04748 C 9.2951651,4.0988251 8.6872656,3.8318614 8.154816,3.7039019 7.7634174,3.60984 7.6040758,3.5976597 7.0681275,3.6208338 6.3163254,3.6533414 5.9068785,3.76029 5.2052171,4.1074303 4.6438161,4.3851782 4.0467815,4.8041016 3.5218745,5.2885872 3.3241263,5.4711074 3.1509543,5.6204421 3.1370477,5.6204421 c -0.013907,0 -0.041454,-0.026663 -0.061219,-0.059252 z"
         id="path3276"
         inkscape:connector-curvature="0"
         sodipodi:nodetypes="cssssscccsscssssssssscssssssscccccsscscssscsssssc" />
      <path
         style="fill:#5e5e5f"
         d="M 6.0363104,13.953481 C 5.7561311,13.829282 5.5963513,13.458094 5.68373,13.134394 5.7140387,13.022114 5.815652,12.868581 5.9326423,12.7583 6.1157775,12.585666 6.1463816,12.515222 6.3481535,11.801873 6.5456749,11.103551 6.5583378,11.027114 6.4840636,10.981467 6.2478294,10.836279 6.0889166,10.651151 5.9664477,10.378462 L 5.8303282,10.075378 4.5633725,9.603795 3.2964167,9.1322121 3.1641285,9.2586025 C 3.0913699,9.3281171 2.9095878,9.4496115 2.7601681,9.5285902 2.5173991,9.656911 2.4385726,9.6722138 2.0192442,9.6724297 1.6045818,9.6726311 1.5170994,9.6562107 1.2672436,9.5311736 0.95699775,9.3759148 0.69716267,9.1006727 0.52528301,8.7452182 0.43464744,8.5577801 0.41390901,8.4303357 0.41390901,8.0607891 c 0,-0.4112806 0.0152508,-0.485673 0.16172458,-0.7888858 C 0.77724431,6.8545527 1.167045,6.4779687 1.5625061,6.3184919 1.9904237,6.1459266 2.5446832,6.1545028 2.9155745,6.3394284 c 0.558941,0.2786868 0.8873607,0.7977542 0.9126411,1.4424287 0.00944,0.2408366 0.037415,0.3868665 0.078405,0.4093318 0.035048,0.019209 0.5619343,0.2203278 1.1708591,0.4469315 L 6.1846157,9.0501276 6.4950777,8.889536 C 6.7662712,8.7492568 6.8428595,8.7316953 7.1005908,8.7506939 c 0.3876139,0.028573 0.714602,0.230351 0.9188312,0.5669936 0.1295386,0.2135243 0.1494908,0.2939694 0.1494908,0.6027282 0,0.3007233 -0.021868,0.3942303 -0.1401645,0.5993283 -0.1526654,0.264687 -0.4871531,0.51567 -0.7556486,0.567002 -0.1783804,0.0341 -0.1469697,-0.03928 -0.46083,1.076711 l -0.1342213,0.477253 0.1166337,0.09349 c 0.3972785,0.318469 0.3139473,0.986092 -0.1511559,1.211013 -0.2041388,0.09872 -0.3972275,0.101344 -0.6072158,0.0083 z M 3.0758296,5.5611905 C 2.9930589,5.424707 4.201176,4.433781 4.923448,4.0457304 6.3259025,3.2922423 7.7550297,3.2151178 9.0465302,3.8232234 L 9.4105917,3.9946426 9.3754768,3.7630235 C 9.3561633,3.635633 9.3468608,3.5242223 9.354805,3.5154442 9.3627487,3.506666 9.5609448,3.7533954 9.7952408,4.0637315 10.029537,4.3740676 10.213457,4.6359034 10.203953,4.6455889 10.172599,4.6775423 8.9345342,4.197564 8.9345342,4.153455 c 0,-0.023739 0.061126,-0.045105 0.135836,-0.04748 C 9.2951651,4.0988251 8.6872656,3.8318614 8.154816,3.7039019 7.7634174,3.60984 7.6040758,3.5976597 7.0681275,3.6208338 6.3163254,3.6533414 5.9068785,3.76029 5.2052171,4.1074303 4.6438161,4.3851782 4.0467815,4.8041016 3.5218745,5.2885872 3.3241263,5.4711074 3.1509543,5.6204421 3.1370477,5.6204421 c -0.013907,0 -0.041454,-0.026663 -0.061219,-0.059252 z"
         id="path3274"
         inkscape:connector-curvature="0"
         sodipodi:nodetypes="cssssscccsscssssssssscssssssscccccsscscssscsssssc" />
      <path
         style="fill:#1dcb1d"
         d="M 6.0394045,13.929999 C 5.7998055,13.825051 5.6251312,13.428702 5.6944437,13.147265 5.730085,13.00255 6.0034307,12.668191 6.0870938,12.666974 6.1182386,12.666521 6.2448815,12.298882 6.368522,11.850001 L 6.5933232,11.033851 6.4179169,10.914228 C 6.1763298,10.749472 6.0374377,10.568684 5.9474875,10.3019 L 5.8711121,10.075378 4.624346,9.609749 C 3.9386247,9.3536531 3.3619018,9.1441202 3.3427396,9.1441202 c -0.019162,0 -0.1583429,0.088166 -0.3092902,0.195924 C 2.3256352,9.8453392 1.4563577,9.7927286 0.87353508,9.2093223 0.54712852,8.8825893 0.42213802,8.5658046 0.42031007,8.0606379 0.41904755,7.7117291 0.43986571,7.6109517 0.57317782,7.3206297 0.878302,6.6561419 1.4301472,6.2682698 2.1198125,6.2335559 c 0.2047322,-0.010301 0.4638482,0.0064 0.5758133,0.037127 0.4679825,0.1284212 0.9304685,0.6002619 1.0571267,1.0785093 0.030482,0.1151001 0.054691,0.3482322 0.053795,0.5180713 L 3.8049146,8.176062 4.9990129,8.6279245 C 6.0696254,9.0330564 6.203332,9.0725547 6.2919055,9.0098594 6.6512329,8.7555139 7.179235,8.6912344 7.5020812,8.862532 c 0.4308369,0.2285955 0.6589249,0.5961499 0.6589249,1.0618312 0,0.5319828 -0.3613407,1.0115538 -0.8526794,1.1316748 l -0.2344377,0.05731 -0.209765,0.757407 -0.209765,0.757406 0.1493891,0.148846 c 0.3034844,0.302378 0.3071213,0.730179 0.00868,1.02156 -0.1173238,0.11455 -0.2016894,0.147766 -0.408296,0.160752 -0.1432289,0.009 -0.3073589,-0.0042 -0.3647307,-0.02932 z m 0.4386719,-1.345558 c -0.033442,-0.01379 -0.1001251,-0.01462 -0.1481848,-0.0019 -0.04806,0.01276 -0.020698,0.02404 0.060804,0.02507 0.081502,0.001 0.120823,-0.0094 0.087381,-0.02321 z M 3.0851375,5.5262003 C 3.0704936,5.5020534 3.208105,5.3472283 3.3909406,5.1821445 4.2883494,4.3718674 5.2437971,3.8150109 6.1437207,3.577762 7.0948635,3.3270101 8.1405586,3.4199025 9.0181193,3.8331038 c 0.2061853,0.097083 0.3824402,0.176514 0.3916781,0.176514 0.00923,0 0.00276,-0.1075979 -0.01441,-0.2391067 L 9.3641814,3.5314044 9.7491205,4.034787 C 9.9608373,4.3116474 10.15638,4.5671374 10.18366,4.6025425 10.210941,4.6379478 10.046629,4.5958871 9.8185231,4.5090745 9.5904178,4.4222618 9.3093014,4.317539 9.19382,4.2763572 8.9783687,4.1995249 8.9549659,4.113662 9.1473779,4.1059653 9.3109601,4.0994216 8.7134992,3.8297596 8.2776685,3.7134246 7.4735512,3.498784 6.6854695,3.5303379 5.8610578,3.8101828 5.0882064,4.0725257 4.3179166,4.5459221 3.5758333,5.2146113 3.1738535,5.5768343 3.1319727,5.6034284 3.0851375,5.5262003 z"
         id="path3272"
         inkscape:connector-curvature="0"
         sodipodi:nodetypes="cscscsscssssssccsscssssccccssccccsccsssssccsssssssss" />
      <path
         style="fill:#0202f6"
         d="M 6.0394045,13.929999 C 5.7998055,13.825051 5.6251312,13.428702 5.6944437,13.147265 5.730085,13.00255 6.0034307,12.668191 6.0870938,12.666974 6.1182386,12.666521 6.2448815,12.298882 6.368522,11.850001 L 6.5933232,11.033851 6.4179169,10.914228 C 6.1763298,10.749472 6.0374377,10.568684 5.9474875,10.3019 L 5.8711121,10.075378 4.624346,9.609749 C 3.9386247,9.3536531 3.3619018,9.1441202 3.3427396,9.1441202 c -0.019162,0 -0.1583429,0.088166 -0.3092902,0.195924 C 2.3256352,9.8453392 1.4563577,9.7927286 0.87353508,9.2093223 0.54712852,8.8825893 0.42213802,8.5658046 0.42031007,8.0606379 0.41904755,7.7117291 0.43986571,7.6109517 0.57317782,7.3206297 0.878302,6.6561419 1.4301472,6.2682698 2.1198125,6.2335559 c 0.2047322,-0.010301 0.4638482,0.0064 0.5758133,0.037127 0.4679825,0.1284212 0.9304685,0.6002619 1.0571267,1.0785093 0.030482,0.1151001 0.054691,0.3482322 0.053795,0.5180713 L 3.8049146,8.176062 4.9990129,8.6279245 C 6.0696254,9.0330564 6.203332,9.0725547 6.2919055,9.0098594 6.6512329,8.7555139 7.179235,8.6912344 7.5020812,8.862532 c 0.4308369,0.2285955 0.6589249,0.5961499 0.6589249,1.0618312 0,0.5319828 -0.3613407,1.0115538 -0.8526794,1.1316748 l -0.2344377,0.05731 -0.209765,0.757407 -0.209765,0.757406 0.1493891,0.148846 c 0.3034844,0.302378 0.3071213,0.730179 0.00868,1.02156 -0.1173238,0.11455 -0.2016894,0.147766 -0.408296,0.160752 -0.1432289,0.009 -0.3073589,-0.0042 -0.3647326,-0.02932 z m 0.4386719,-1.345558 c -0.033442,-0.01379 -0.1001251,-0.01462 -0.1481848,-0.0019 -0.04806,0.01276 -0.020698,0.02404 0.060804,0.02507 0.081502,0.001 0.120823,-0.0094 0.087381,-0.02321 z M 3.0851375,5.5262003 C 3.0704936,5.5020534 3.208105,5.3472283 3.3909406,5.1821445 4.2883494,4.3718674 5.2437971,3.8150109 6.1437207,3.577762 7.0948635,3.3270101 8.1405586,3.4199025 9.0181193,3.8331038 c 0.2061853,0.097083 0.3824402,0.176514 0.3916781,0.176514 0.00923,0 0.00276,-0.1075979 -0.01441,-0.2391067 L 9.3641814,3.5314044 9.7491205,4.034787 C 9.9608373,4.3116474 10.15638,4.5671374 10.18366,4.6025425 10.210941,4.6379478 10.046629,4.5958871 9.8185231,4.5090745 9.5904178,4.4222618 9.3093014,4.317539 9.19382,4.2763572 8.9783687,4.1995249 8.9549659,4.113662 9.1473779,4.1059653 9.3109601,4.0994216 8.7134992,3.8297596 8.2776685,3.7134246 7.4735512,3.498784 6.6854695,3.5303379 5.8610578,3.8101828 5.0882064,4.0725257 4.3179166,4.5459221 3.5758333,5.2146113 3.1738535,5.5768343 3.1319727,5.6034284 3.0851375,5.5262003 z"
         id="path3270"
         inkscape:connector-curvature="0" />
      <path
         style="fill:#f40000"
         d="M 6.0394045,13.929999 C 5.7984679,13.824458 5.6251639,13.42857 5.695277,13.143884 c 0.017424,-0.07075 0.1068501,-0.212227 0.1987247,-0.314394 0.1537659,-0.170992 0.1904722,-0.186529 0.4617793,-0.195455 0.267038,-0.0088 0.3089545,0.0044 0.4460456,0.141062 0.3054029,0.30429 0.3098283,0.731328 0.010607,1.023475 -0.1173238,0.11455 -0.2016894,0.147766 -0.408296,0.160752 -0.1432289,0.009 -0.3073589,-0.0042 -0.3647327,-0.02932 z M 6.584283,11.011804 C 6.1716283,10.820808 5.8688493,10.347923 5.8742166,9.9028116 5.8768579,9.6839568 5.9811783,9.3722114 6.094468,9.2446367 c 0.046755,-0.05265 0.06724,-0.121196 0.046459,-0.1554607 -0.021745,-0.035857 -0.016564,-0.048311 0.012487,-0.030013 0.027311,0.017201 0.1216019,-0.022821 0.2095367,-0.088935 C 7.0966802,8.4185613 8.1616536,8.9836384 8.1611636,9.9243627 8.160719,10.753005 7.3030438,11.344481 6.5842834,11.011804 z M 1.6109688,9.6430704 C 1.1598052,9.5347478 0.72601222,9.1625233 0.53083933,8.716245 0.44709148,8.5247487 0.42053675,8.367952 0.41980727,8.0606379 0.41898055,7.7123493 0.44010269,7.6104356 0.57317782,7.3206297 0.878302,6.6561419 1.4301472,6.2682698 2.1198125,6.2335559 c 0.2047322,-0.010301 0.4638482,0.0064 0.5758133,0.037127 0.4679825,0.1284212 0.9304685,0.6002619 1.0571267,1.0785093 0.030482,0.1151001 0.054675,0.3508494 0.053762,0.5238871 -0.00105,0.1990484 0.018592,0.3146141 0.053479,0.3146141 0.030327,0 0.020002,0.028315 -0.022943,0.062923 -0.042946,0.034607 -0.1039082,0.1460802 -0.1354718,0.2477171 -0.031564,0.1016367 -0.121452,0.2749198 -0.1997513,0.3850731 -0.0783,0.1101532 -0.1290194,0.2138766 -0.1127112,0.2304963 0.016309,0.01662 0.00377,0.030218 -0.027862,0.030218 -0.031633,0 -0.1693066,0.08185 -0.3059432,0.1818877 C 2.6272526,9.63941 2.0883986,9.7576997 1.6109688,9.6430704 z M 3.0851375,5.5262003 C 3.0704936,5.5020534 3.208105,5.3472283 3.3909406,5.1821445 4.2883494,4.3718674 5.2437971,3.8150109 6.1437207,3.577762 7.0948635,3.3270101 8.1405586,3.4199025 9.0181193,3.8331038 c 0.2061853,0.097083 0.3824402,0.176514 0.3916781,0.176514 0.00923,0 0.00276,-0.1075979 -0.01441,-0.2391067 L 9.3641814,3.5314044 9.7491205,4.034787 C 9.9608373,4.3116474 10.15638,4.5671374 10.18366,4.6025425 10.210941,4.6379478 10.046629,4.5958873 9.8185231,4.5090745 9.5904178,4.4222618 9.3093014,4.317539 9.19382,4.2763572 8.9783687,4.1995249 8.9549659,4.113662 9.1473779,4.1059653 9.3109601,4.0994216 8.7134992,3.8297596 8.2776685,3.7134246 7.4735512,3.498784 6.6854695,3.5303379 5.8610578,3.8101828 5.0882064,4.0725257 4.3179166,4.5459221 3.5758333,5.2146113 3.1738535,5.5768343 3.1319727,5.6034284 3.0851375,5.5262003 z"
         id="path3268"
         inkscape:connector-curvature="0" />
      <path
         style="fill:#090506"
         d="M 6.584283,11.011804 C 6.1716283,10.820808 5.8688493,10.347923 5.8742166,9.9028114 c 0.00264,-0.2188546 0.1069617,-0.5306 0.2202514,-0.6581747 0.046754,-0.05265 0.067239,-0.121196 0.046459,-0.1554607 -0.021745,-0.035856 -0.016564,-0.048311 0.012487,-0.030013 0.027311,0.017201 0.1216018,-0.02282 0.2095367,-0.088936 0.4405741,-0.3312528 1.1116328,-0.2607556 1.4916048,0.1566986 0.1580934,0.1736881 0.2911772,0.4328631 0.2854143,0.555831 -0.00289,0.061626 -0.016287,0.050249 -0.041906,-0.03558 C 7.9122508,9.0246594 7.3608661,8.6954754 6.7529157,8.8441056 6.3027512,8.9541607 5.9214435,9.4495597 5.9214435,9.9243632 c 0,0.6408268 0.6354045,1.2109698 1.2398167,1.1124758 0.4707189,-0.07671 0.7972929,-0.367895 0.9368035,-0.83529 0.025346,-0.08492 0.039049,-0.09671 0.041906,-0.03607 0.00732,0.155371 -0.1816884,0.470789 -0.3921009,0.654334 C 7.4212771,11.104698 6.952205,11.182096 6.584283,11.011804 z M 8.1538448,9.9243632 c 0.00101,-0.083058 0.012077,-0.1109425 0.024601,-0.061965 0.012523,0.048977 0.0117,0.1169342 -0.00183,0.1510146 -0.013531,0.03408 -0.023777,-0.006 -0.022771,-0.08905 z M 1.6109688,9.6430704 C 1.1598052,9.5347476 0.72601222,9.1625233 0.53083933,8.716245 0.44709148,8.5247487 0.42053675,8.367952 0.41980727,8.0606379 0.41898055,7.7123493 0.44010269,7.6104356 0.57317782,7.3206297 0.878302,6.6561419 1.4301472,6.2682698 2.1198125,6.2335559 c 0.2047322,-0.010301 0.4638482,0.0064 0.5758133,0.037127 0.4679825,0.1284212 0.9304685,0.6002619 1.0571267,1.0785093 0.030482,0.1151001 0.054675,0.3508494 0.053762,0.5238871 -0.00105,0.1990484 0.018592,0.3146141 0.053479,0.3146141 0.030327,0 0.020002,0.028315 -0.022943,0.062923 -0.042946,0.034607 -0.1039082,0.1460802 -0.1354718,0.2477171 -0.031564,0.1016367 -0.121452,0.2749198 -0.1997513,0.3850731 -0.0783,0.1101532 -0.1290194,0.2138766 -0.1127112,0.2304963 0.016309,0.01662 0.00377,0.030218 -0.027862,0.030218 -0.031633,0 -0.1693066,0.08185 -0.3059432,0.1818877 C 2.6272526,9.6394104 2.0883986,9.7576998 1.6109688,9.6430704 z M 2.801355,9.345884 C 3.1464462,9.1584243 3.3907474,8.8899422 3.5611526,8.510882 3.7138646,8.1711799 3.7177253,7.5581166 3.5692269,7.228709 3.4185604,6.8944917 3.1863358,6.6501425 2.8679283,6.4907948 2.631217,6.3723323 2.5253922,6.3504463 2.1918945,6.3509828 1.8618563,6.3515133 1.7507438,6.3744342 1.5196551,6.4896546 0.49436801,7.0008607 0.21380149,8.3425841 0.9704181,9.1162121 1.3040996,9.4573962 1.5531919,9.549167 2.0933366,9.5299176 2.4324309,9.5178329 2.5328844,9.4917225 2.801355,9.345884 z M 3.0851375,5.5262003 C 3.0704936,5.5020534 3.208105,5.3472283 3.3909406,5.1821445 4.2883494,4.3718674 5.2437971,3.8150109 6.1437207,3.577762 7.0948635,3.3270101 8.1405586,3.4199025 9.0181193,3.8331038 c 0.2061853,0.097083 0.3824402,0.176514 0.3916781,0.176514 0.00923,0 0.00276,-0.1075979 -0.01441,-0.2391067 L 9.3641814,3.5314044 9.7491205,4.034787 C 9.9608371,4.3116476 10.15638,4.5671374 10.18366,4.6025425 10.210941,4.6379478 10.046629,4.5958871 9.8185231,4.5090745 9.5904178,4.4222618 9.3093014,4.317539 9.19382,4.2763572 8.9783687,4.1995249 8.9549659,4.113662 9.1473779,4.1059653 9.3109601,4.0994216 8.7134992,3.8297596 8.2776685,3.7134246 7.4735512,3.498784 6.6854695,3.5303379 5.8610578,3.8101828 5.0882064,4.0725257 4.3179166,4.5459221 3.5758333,5.2146113 3.1738535,5.5768343 3.1319727,5.6034284 3.0851375,5.5262003 z"
         id="path3266"
         inkscape:connector-curvature="0"
         sodipodi:nodetypes="ssssssscsssssssscsccssssccssssssssssssssssssssssssccsssssssss" />
    </g>
  </g>
</svg>
