<?xml version="1.0" encoding="UTF-8" standalone="no"?>
<!-- Created with Inkscape (http://www.inkscape.org/) -->

<svg
   xmlns:dc="http://purl.org/dc/elements/1.1/"
   xmlns:cc="http://creativecommons.org/ns#"
   xmlns:rdf="http://www.w3.org/1999/02/22-rdf-syntax-ns#"
   xmlns:svg="http://www.w3.org/2000/svg"
   xmlns="http://www.w3.org/2000/svg"
   version="1.1"
   width="64"
   height="64"
   id="svg2985">
  <defs
     id="defs2987" />
  <metadata
     id="metadata2990">
    <rdf:RDF>
      <cc:Work
         rdf:about="">
        <dc:format>image/svg+xml</dc:format>
        <dc:type
           rdf:resource="http://purl.org/dc/dcmitype/StillImage" />
        <dc:title></dc:title>
      </cc:Work>
    </rdf:RDF>
  </metadata>
  <g
     id="layer1">
    <path
       d="M 28.243403,44.177607 C 27.060338,43.910765 20.929913,42.59075 14.620235,41.244239 l -11.4721411,-2.448202 0,-4.877084 0,-4.877084 3.465543,-0.03063 3.4655421,-0.03063 0,0.95826 c 0,0.910836 -0.1064561,0.958261 -2.1510261,0.958261 -2.071359,0 -2.151027,0.03748 -2.151027,1.011962 0,0.931647 0.13278,1.011962 1.673021,1.011962 1.454284,0 1.67302,0.107462 1.67302,0.821929 0,0.680742 -0.266856,0.840087 -1.553519,0.927632 -1.325432,0.09018 -1.560601,0.241896 -1.601756,1.033334 -0.0455,0.875042 0.06967,0.927631 2.031525,0.927631 1.648564,0 2.0871051,0.12239 2.1151791,0.590312 0.01948,0.324671 0.652163,-0.354156 1.405965,-1.508504 l 1.37055,-2.098815 -1.166963,-2.02666 c -1.500654,-2.606179 -1.478019,-2.779169 0.346954,-2.651748 1.246819,0.08705 1.615664,0.313997 2.090624,1.286324 l 0.576708,1.180622 0.450288,-1.180622 0.450287,-1.180622 5.226684,0 5.226683,0 0.151252,0.927632 c 0.130233,0.798721 -0.01923,0.927631 -1.075513,0.927631 l -1.226765,0 0,3.710527 0,3.710526 1.420528,0 1.420529,0 0.13299,-4.638158 0.132991,-4.638158 2.746469,-0.10112 c 2.397601,-0.08828 2.898526,0.0062 3.943548,0.743638 1.422873,1.004098 1.60272,2.816649 0.419704,4.229911 -0.727527,0.869122 -0.715678,1.045393 0.184774,2.748815 l 0.96215,1.82014 0.542236,-1.347486 c 0.298229,-0.741117 1.046675,-2.865429 1.663212,-4.720692 l 1.120977,-3.373206 1.575356,0 1.575357,0 1.482126,4.553828 c 1.34659,4.13739 1.583221,4.563989 2.587615,4.664938 1.047523,0.105283 1.068472,0.06991 0.399516,-0.674642 -1.870591,-2.08198 -1.550963,-6.050069 0.619396,-7.689637 2.307228,-1.742963 5.732069,-1.139771 6.639907,1.169436 0.529329,1.346423 0.219438,1.855264 -1.129887,1.855264 -0.852671,0 -1.191778,-0.239611 -1.432162,-1.011962 -0.344914,-1.108191 -1.831116,-1.412176 -2.338888,-0.478392 -0.450538,0.828529 -0.341934,3.711554 0.17603,4.67294 0.619495,1.149836 1.38272,1.093726 1.995479,-0.146701 0.368347,-0.745652 0.80208,-1.011962 1.648159,-1.011962 0.970945,0 1.148252,0.165182 1.148252,1.069731 0,0.588353 -0.35599,1.347324 -0.791095,1.686603 -0.754336,0.588212 -0.698816,0.616872 1.195015,0.616872 l 1.986109,0 0,-3.710526 c 0,-3.442519 -0.06673,-3.710527 -0.923799,-3.710527 -0.924344,0 -1.758392,-1.080107 -1.267169,-1.640999 0.143425,-0.163764 1.854701,-0.31085 3.802833,-0.326856 3.484419,-0.02863 3.546105,-0.01423 3.790921,0.885046 0.136877,0.502782 0.180017,0.963487 0.09587,1.02379 -0.140987,0.101039 -1.420294,0.309444 -2.274519,0.370531 -0.550744,0.03938 0.193789,6.907526 0.777854,7.175531 0.281259,0.129057 0.401243,0.312367 0.266637,0.407356 -0.533976,0.376819 -27.469492,5.93365 -28.615884,5.903494 -0.674334,-0.01774 -2.194023,-0.250577 -3.377087,-0.517418 z M 15.337244,38.171485 c 0,-0.08069 -0.238792,-0.574017 -0.53065,-1.096292 -0.49306,-0.882324 -0.558402,-0.901801 -0.922415,-0.27495 -0.644951,1.110642 -0.51158,1.517942 0.497053,1.517942 0.525807,0 0.956012,-0.06602 0.956012,-0.1467 z m 5.355544,-2.538975 c 0.296069,-3.609149 0.03261,-4.735378 -1.107744,-4.735378 -0.608328,0 -0.910719,-0.246968 -0.929295,-0.758971 -0.01891,-0.521405 -0.392969,-0.191109 -1.195014,1.055221 -0.642114,0.997805 -1.167479,1.975665 -1.167479,2.173021 0,0.197357 0.591532,1.390373 1.314516,2.651149 1.870787,3.262374 2.795274,3.146989 3.085016,-0.385042 z m 10.86029,2.264025 c -0.02,-0.231908 -0.326291,-0.952931 -0.680643,-1.602273 l -0.644277,-1.180622 -0.03637,1.602273 c -0.02748,1.210767 0.138831,1.602272 0.680644,1.602272 0.394355,0 0.700644,-0.189742 0.680643,-0.42165 z m 9.886627,-0.111919 c -0.159579,-0.293463 -0.290144,-0.672949 -0.290144,-0.843301 0,-0.170353 -0.51268,-0.309733 -1.13929,-0.309733 -0.835654,0 -1.200173,0.224751 -1.367732,0.843302 -0.208154,0.768412 -0.08121,0.843301 1.429435,0.843301 1.31538,0 1.597936,-0.110228 1.367731,-0.533569 z m -0.76815,-3.134792 c 0,-0.162336 -0.148387,-0.807461 -0.32975,-1.433613 -0.318333,-1.099042 -0.341508,-1.109261 -0.669361,-0.295155 -0.56189,1.395251 -0.474263,2.023923 0.282103,2.023923 0.394354,0 0.717008,-0.13282 0.717008,-0.295155 z m -9.171327,-2.82506 c -0.204438,-1.496281 -1.538149,-1.496281 -1.623638,0 -0.0498,0.871636 0.125489,1.096292 0.855394,1.096292 0.747782,0 0.890253,-0.203307 0.768244,-1.096292 z m -28.5911371,-7.996587 0,-4.737266 6.632332,0 c 3.6477821,0 7.3014721,0.09444 8.1193101,0.209867 1.970597,0.278123 3.890587,1.669653 3.890587,2.819736 0,1.727632 -2.720415,2.775651 -7.854717,3.025969 l -3.7916671,0.184859 -0.03238,1.517943 -0.03238,1.517943 -3.465543,0.09911 -3.465543,0.09911 0,-4.737267 z M 14.297842,22.022819 c 0.142977,-0.531078 -0.134081,-0.596511 -2.142427,-0.50598 -1.775796,0.08005 -2.3444311,0.244351 -2.4708521,0.713934 -0.142976,0.531079 0.134082,0.596512 2.1424281,0.505981 1.775795,-0.08005 2.344431,-0.244351 2.470851,-0.713935 z m 8.687496,1.79058 0,-4.722488 6.458289,0 c 5.581056,0 6.750763,0.09702 8.611523,0.71425 3.117734,1.034184 4.223696,2.279698 3.93127,4.427325 -0.19671,1.44468 -0.491935,1.868049 -1.849977,2.652975 -2.23878,1.293977 -4.698232,1.650427 -11.387702,1.650427 l -5.763403,0 0,-4.722489 z m 10.690669,1.662121 c 0.902221,-0.500815 1.259478,-1.012239 1.259478,-1.802983 0,-1.338111 -1.054526,-2.05672 -3.465543,-2.361602 l -1.792522,-0.22667 0,2.545189 0,2.54519 1.369554,0 c 0.753256,0 1.93632,-0.314606 2.629033,-0.699124 z m 10.341589,-1.684822 0,-4.745189 7.838345,0.107031 c 6.90903,0.09434 7.957474,0.183217 8.843109,0.749623 1.41451,0.904644 1.299966,2.349124 -0.254715,3.212113 -1.009773,0.560516 -1.091297,0.699123 -0.4112,0.699123 1.741036,0 2.72983,1.976628 1.680769,3.359902 -0.797576,1.05167 -3.215741,1.362587 -10.597548,1.362587 l -7.09876,0 0,-4.74519 z m 11.233138,1.709304 c 0,-0.372562 -0.661722,-0.532865 -2.50953,-0.607939 -2.278174,-0.09256 -2.509531,-0.03651 -2.509531,0.607939 0,0.644452 0.231357,0.700498 2.509531,0.60794 1.847808,-0.07507 2.50953,-0.235377 2.50953,-0.60794 z m -0.330001,-3.626196 c -0.124788,-0.457267 -0.642946,-0.590311 -2.299031,-0.590311 -1.656085,0 -2.174242,0.133044 -2.299031,0.590311 -0.136577,0.500461 0.213352,0.590311 2.299031,0.590311 2.085678,0 2.435607,-0.08985 2.299031,-0.590311 z"
       id="path3079"
       style="fill:#000000" />
  </g>
</svg>
