<?xml version="1.0" encoding="UTF-8" standalone="no"?>
<!-- Created with Inkscape (http://www.inkscape.org/) -->

<svg
   xmlns:osb="http://www.openswatchbook.org/uri/2009/osb"
   xmlns:dc="http://purl.org/dc/elements/1.1/"
   xmlns:cc="http://creativecommons.org/ns#"
   xmlns:rdf="http://www.w3.org/1999/02/22-rdf-syntax-ns#"
   xmlns:svg="http://www.w3.org/2000/svg"
   xmlns="http://www.w3.org/2000/svg"
   xmlns:xlink="http://www.w3.org/1999/xlink"
   xmlns:sodipodi="http://sodipodi.sourceforge.net/DTD/sodipodi-0.dtd"
   xmlns:inkscape="http://www.inkscape.org/namespaces/inkscape"
   id="svg5378"
   sodipodi:docname="ProvideSequence.svg"
   viewBox="0 0 32 32"
   version="1.1"
   inkscape:version="0.48.5 r10040"
   width="100%"
   height="100%"
   inkscape:export-filename="/Users/jon/Desktop/Dropbox/Work/ccp4i2/icons/Data entry/db64.png"
   inkscape:export-xdpi="180.00002"
   inkscape:export-ydpi="180.00002">
  <defs
     id="defs3">
    <linearGradient
       id="linearGradient4751"
       osb:paint="solid">
      <stop
         style="stop-color:#000000;stop-opacity:1;"
         offset="0"
         id="stop4753" />
    </linearGradient>
    <linearGradient
       inkscape:collect="always"
       id="linearGradient4493">
      <stop
         style="stop-color:#000000;stop-opacity:1;"
         offset="0"
         id="stop4495" />
      <stop
         style="stop-color:#000000;stop-opacity:0;"
         offset="1"
         id="stop4497" />
    </linearGradient>
    <linearGradient
       x1="269.97"
       y1="511.97"
       gradientTransform="matrix(1.1818,0,0,1.1818,-30.649,-69.394)"
       x2="286.63"
       gradientUnits="userSpaceOnUse"
       spreadMethod="reflect"
       y2="511.97"
       id="linearGradient4319"
       osb:paint="gradient">
      <stop
         offset="0"
         style="stop-color:#87caee;stop-opacity:1;"
         id="stop4321" />
      <stop
         offset="0.24713178"
         style="stop-color:#abceda;stop-opacity:1;"
         id="stop4323" />
      <stop
         offset="1"
         style="stop-color:#1e9bcb;stop-opacity:1;"
         id="stop4325" />
    </linearGradient>
    <linearGradient
       id="linearGradient6035">
      <stop
         id="stop6037"
         style="stop-color:#ffffff"
         offset="0" />
      <stop
         id="stop6039"
         style="stop-color:#ffffff;stop-opacity:0"
         offset="1" />
    </linearGradient>
    <linearGradient
       id="linearGradient6110"
       y2="511.97"
       spreadMethod="reflect"
       gradientUnits="userSpaceOnUse"
       x2="286.63"
       gradientTransform="matrix(0.18117218,0,0,0.18117218,237.24383,463.72402)"
       y1="511.97"
       x1="269.97">
      <stop
         id="stop5497"
         style="stop-color:#87caee;stop-opacity:1;"
         offset="0" />
      <stop
         id="stop5501"
         style="stop-color:#abceda;stop-opacity:1;"
         offset="0.20485" />
      <stop
         id="stop5499"
         style="stop-color:#1e9bcb;stop-opacity:1;"
         offset="1" />
    </linearGradient>
    <linearGradient
       inkscape:collect="always"
       xlink:href="#linearGradient4319"
       id="linearGradient4317"
       x1="287.69586"
       y1="529.23523"
       x2="287.58078"
       y2="512.51025"
       gradientUnits="userSpaceOnUse"
       spreadMethod="pad" />
    <linearGradient
       inkscape:collect="always"
       xlink:href="#linearGradient6035"
       id="linearGradient4383"
       gradientUnits="userSpaceOnUse"
       gradientTransform="translate(0,12)"
       spreadMethod="reflect"
       x1="308.61908"
       y1="522.19324"
       x2="327.66092"
       y2="519.73468" />
    <linearGradient
       inkscape:collect="always"
       xlink:href="#linearGradient4493"
       id="linearGradient4499"
       x1="240.82143"
       y1="454.59592"
       x2="236.78358"
       y2="568.94885"
       gradientUnits="userSpaceOnUse" />
    <linearGradient
       inkscape:collect="always"
       xlink:href="#linearGradient4493"
       id="linearGradient4515"
       gradientUnits="userSpaceOnUse"
       x1="240.82143"
       y1="454.59592"
       x2="236.78358"
       y2="568.94885" />
    <linearGradient
       inkscape:collect="always"
       xlink:href="#linearGradient6035"
       id="linearGradient4583"
       gradientUnits="userSpaceOnUse"
       gradientTransform="matrix(0.15330189,0,0,0.15330189,241.94238,477.7349)"
       spreadMethod="reflect"
       x1="308.5"
       y1="522.60999"
       x2="327.78"
       y2="520.33002" />
    <linearGradient
       inkscape:collect="always"
       xlink:href="#linearGradient4319"
       id="linearGradient4619"
       gradientUnits="userSpaceOnUse"
       spreadMethod="reflect"
       x1="292.3436"
       y1="530.50989"
       x2="307.68152"
       y2="532.42096" />
    <linearGradient
       inkscape:collect="always"
       xlink:href="#linearGradient4319"
       id="linearGradient4621"
       gradientUnits="userSpaceOnUse"
       spreadMethod="reflect"
       x1="292.3436"
       y1="530.50989"
       x2="307.68152"
       y2="532.42096" />
    <linearGradient
       inkscape:collect="always"
       xlink:href="#linearGradient4319"
       id="linearGradient4633"
       gradientUnits="userSpaceOnUse"
       spreadMethod="reflect"
       x1="292.3436"
       y1="530.50989"
       x2="307.68152"
       y2="532.42096" />
    <linearGradient
       inkscape:collect="always"
       xlink:href="#linearGradient4319"
       id="linearGradient4637"
       gradientUnits="userSpaceOnUse"
       spreadMethod="reflect"
       x1="292.3436"
       y1="530.50989"
       x2="307.68152"
       y2="532.42096" />
  </defs>
  <sodipodi:namedview
     id="base"
     bordercolor="#666666"
     inkscape:pageshadow="2"
     inkscape:window-y="0"
     pagecolor="#ffffff"
     inkscape:window-height="719"
     inkscape:window-maximized="1"
     inkscape:zoom="1.9999999"
     inkscape:window-x="0"
     showgrid="false"
     borderopacity="1.0"
     inkscape:current-layer="text3129"
     inkscape:cx="19.516745"
     inkscape:cy="18.186815"
     inkscape:window-width="1366"
     inkscape:pageopacity="0.0"
     inkscape:document-units="mm"
     units="px"
     inkscape:snap-global="false" />
  <g
     id="layer1"
     inkscape:label="Layer 1"
     inkscape:groupmode="layer"
     transform="translate(-285.87,-684.76)">
    <g
       id="g6097"
       transform="matrix(4.1992,0,0,4.1992,-914.56,-1633.8)">
      <g
         transform="scale(1.0020277,0.9979764)"
         style="font-size:1.08643007px;font-style:normal;font-weight:normal;line-height:125%;letter-spacing:0px;word-spacing:0px;fill:#000000;fill-opacity:1;stroke:none;font-family:Sans"
         id="text3129">
        <path
           d="m 285.74311,554.27637 0,-0.0966 0.68008,0.24668 0,0.0881 -0.68008,0.24667 0,-0.0965 0.54639,-0.19362 -0.54639,-0.19469"
           style=""
           id="path3142" />
        <path
           d="m 286.75209,554.10714 0,0.29761 0.13474,0 c 0.0499,0 0.0884,-0.0129 0.11564,-0.0387 0.0272,-0.0258 0.0408,-0.0626 0.0408,-0.11034 0,-0.0474 -0.0136,-0.084 -0.0408,-0.10981 -0.0272,-0.0258 -0.0658,-0.0387 -0.11564,-0.0387 l -0.13474,0 m -0.10716,-0.0881 0.2419,0 c 0.0888,10e-6 0.15578,0.0202 0.20105,0.0605 0.0456,0.04 0.0684,0.0987 0.0684,0.17612 0,0.0782 -0.0228,0.13722 -0.0684,0.17718 -0.0453,0.04 -0.11228,0.0599 -0.20105,0.0599 l -0.13474,0 0,0.31829 -0.10716,0 0,-0.79202"
           style=""
           id="path3144" />
        <path
           d="m 287.67619,554.43976 c 0.023,0.008 0.0453,0.0244 0.0668,0.0499 0.0219,0.0255 0.0439,0.0605 0.0658,0.10504 l 0.10875,0.21644 -0.11512,0 -0.10132,-0.20318 c -0.0262,-0.053 -0.0516,-0.0882 -0.0764,-0.10557 -0.0244,-0.0173 -0.0578,-0.026 -0.10026,-0.026 l -0.11671,0 0,0.33474 -0.10715,0 0,-0.79202 0.2419,0 c 0.0905,10e-6 0.15808,0.0189 0.20264,0.0568 0.0446,0.0378 0.0668,0.095 0.0668,0.17134 0,0.0499 -0.0117,0.0912 -0.035,0.12414 -0.023,0.0329 -0.0566,0.0557 -0.10079,0.0684 m -0.26843,-0.33262 0,0.28116 0.13475,0 c 0.0516,0 0.0905,-0.0118 0.1167,-0.0355 0.0265,-0.024 0.0398,-0.0592 0.0398,-0.10557 0,-0.0463 -0.0133,-0.0812 -0.0398,-0.1045 -0.0262,-0.0237 -0.0651,-0.0355 -0.1167,-0.0356 l -0.13475,0"
           style=""
           id="path3146" />
        <path
           d="m 288.37749,554.09176 c -0.0778,0 -0.1397,0.029 -0.18567,0.087 -0.0456,0.058 -0.0684,0.13704 -0.0684,0.23713 0,0.0997 0.0228,0.17859 0.0684,0.23659 0.046,0.058 0.10786,0.087 0.18567,0.087 0.0778,0 0.13934,-0.029 0.1846,-0.087 0.0456,-0.058 0.0684,-0.13686 0.0684,-0.23659 0,-0.10009 -0.0228,-0.17913 -0.0684,-0.23713 -0.0453,-0.058 -0.1068,-0.087 -0.1846,-0.087 m 0,-0.087 c 0.11104,0 0.19981,0.0373 0.2663,0.11193 0.0665,0.0743 0.0997,0.174 0.0997,0.2992 0,0.12484 -0.0332,0.22457 -0.0997,0.29919 -0.0665,0.0743 -0.15526,0.1114 -0.2663,0.1114 -0.11141,0 -0.20053,-0.0371 -0.26737,-0.1114 -0.0665,-0.0743 -0.0997,-0.174 -0.0997,-0.29919 0,-0.1252 0.0333,-0.22493 0.0997,-0.2992 0.0668,-0.0746 0.15596,-0.11193 0.26737,-0.11193"
           style=""
           id="path3148" />
        <path
           d="m 288.80134,554.01908 0.67,0 0,0.0902 -0.28115,0 0,0.70183 -0.10769,0 0,-0.70183 -0.28116,0 0,-0.0902"
           style=""
           id="path3150" />
        <path
           d="m 289.57532,554.01908 0.50077,0 0,0.0902 -0.39361,0 0,0.23447 0.37717,0 0,0.0902 -0.37717,0 0,0.28699 0.40316,0 0,0.0902 -0.51032,0 0,-0.79202"
           style=""
           id="path3152" />
        <path
           d="m 290.26282,554.01908 0.10716,0 0,0.79202 -0.10716,0 0,-0.79202"
           style=""
           id="path3154" />
        <path
           d="m 290.58324,554.01908 0.14429,0 0.35118,0.66258 0,-0.66258 0.10397,0 0,0.79202 -0.14429,0 -0.35118,-0.66258 0,0.66258 -0.10397,0 0,-0.79202"
           style=""
           id="path3156" />
        <path
           d="m 291.84313,554.99146 0,0.0759 -0.56443,0 0,-0.0759 0.56443,0"
           style=""
           id="path3158" />
        <path
           d="m 292.20386,554.12465 -0.14535,0.39415 0.29124,0 -0.14589,-0.39415 m -0.0605,-0.10557 0.12148,0 0.30184,0.79202 -0.1114,0 -0.0721,-0.20318 -0.35702,0 -0.0721,0.20318 -0.113,0 0.30238,-0.79202"
           style=""
           id="path3160" />
        <path
           d="m 285.73462,555.37712 0.15967,0 0.20212,0.53897 0.20317,-0.53897 0.15968,0 0,0.79201 -0.10451,0 0,-0.69546 -0.20423,0.54322 -0.10769,0 -0.20424,-0.54322 0,0.69546 -0.10397,0 0,-0.79201"
           style=""
           id="path3162" />
        <path
           d="m 286.93722,555.48269 -0.14535,0.39415 0.29124,0 -0.14589,-0.39415 m -0.0605,-0.10557 0.12148,0 0.30184,0.79201 -0.1114,0 -0.0721,-0.20317 -0.35702,0 -0.0721,0.20317 -0.113,0 0.30238,-0.79201"
           style=""
           id="path3164" />
        <path
           d="m 287.55046,556.16913 -0.30237,-0.79201 0.11193,0 0.25092,0.66682 0.25145,-0.66682 0.1114,0 -0.30185,0.79201 -0.12148,0"
           style=""
           id="path3166" />
        <path
           d="m 288.19712,555.46518 0,0.61589 0.12944,0 c 0.10928,0 0.18921,-0.0247 0.23978,-0.0743 0.0509,-0.0495 0.0764,-0.12767 0.0764,-0.23448 0,-0.10609 -0.0255,-0.18372 -0.0764,-0.23288 -0.0506,-0.0495 -0.1305,-0.0743 -0.23978,-0.0743 l -0.12944,0 m -0.10716,-0.0881 0.22015,0 c 0.15349,0 0.26613,0.032 0.33792,0.096 0.0718,0.0637 0.10769,0.16339 0.10769,0.29919 0,0.13651 -0.0361,0.23677 -0.10822,0.30079 -0.0721,0.064 -0.18461,0.096 -0.33739,0.096 l -0.22015,0 0,-0.79201"
           style=""
           id="path3168" />
        <path
           d="m 288.92601,555.37712 0.10715,0 0,0.79201 -0.10715,0 0,-0.79201"
           style=""
           id="path3170" />
        <path
           d="m 289.7212,555.40312 0,0.1045 c -0.0407,-0.0195 -0.079,-0.034 -0.11511,-0.0435 -0.0361,-0.01 -0.0709,-0.0143 -0.10451,-0.0143 -0.0583,0 -0.10344,0.0113 -0.13527,0.034 -0.0315,0.0226 -0.0472,0.0548 -0.0472,0.0965 0,0.035 0.0104,0.0615 0.0313,0.0796 0.0212,0.0177 0.0612,0.032 0.11989,0.043 l 0.0647,0.0133 c 0.0799,0.0152 0.13881,0.0421 0.17665,0.0806 0.0382,0.0382 0.0573,0.0895 0.0573,0.15384 0,0.0768 -0.0258,0.13492 -0.0774,0.17453 -0.0513,0.0396 -0.12661,0.0594 -0.22598,0.0594 -0.0375,0 -0.0774,-0.004 -0.11989,-0.0127 -0.0421,-0.008 -0.0858,-0.021 -0.13103,-0.0377 l 0,-0.11034 c 0.0435,0.0244 0.0861,0.0428 0.12785,0.0552 0.0417,0.0124 0.0827,0.0186 0.12307,0.0186 0.0612,0 0.10839,-0.012 0.14164,-0.0361 0.0332,-0.024 0.0499,-0.0584 0.0499,-0.10292 0,-0.0389 -0.012,-0.0693 -0.0361,-0.0912 -0.0237,-0.0219 -0.0628,-0.0384 -0.11724,-0.0493 l -0.0652,-0.0127 c -0.0799,-0.0159 -0.13775,-0.0408 -0.17346,-0.0748 -0.0357,-0.034 -0.0536,-0.0812 -0.0536,-0.14164 0,-0.07 0.0246,-0.12519 0.0737,-0.16551 0.0495,-0.0403 0.11759,-0.0605 0.20424,-0.0605 0.0371,0 0.075,0.003 0.11352,0.0101 0.0386,0.007 0.078,0.0168 0.1183,0.0302"
           style=""
           id="path3172" />
        <path
           d="m 289.82624,555.37712 0.67,0 0,0.0902 -0.28116,0 0,0.70183 -0.10769,0 0,-0.70183 -0.28115,0 0,-0.0902"
           style=""
           id="path3174" />
        <path
           d="m 290.60021,555.37712 0.50078,0 0,0.0902 -0.39362,0 0,0.23448 0.37717,0 0,0.0902 -0.37717,0 0,0.28699 0.40317,0 0,0.0902 -0.51033,0 0,-0.79201"
           style=""
           id="path3176" />
        <path
           d="m 291.55243,555.48269 -0.14535,0.39415 0.29123,0 -0.14588,-0.39415 m -0.0605,-0.10557 0.12149,0 0.30184,0.79201 -0.1114,0 -0.0721,-0.20317 -0.35701,0 -0.0722,0.20317 -0.11299,0 0.30237,-0.79201"
           style=""
           id="path3178" />
        <path
           d="m 292.16567,556.16913 -0.30238,-0.79201 0.11194,0 0.25091,0.66682 0.25145,-0.66682 0.1114,0 -0.30184,0.79201 -0.12148,0"
           style=""
           id="path3180" />
        <path
           d="m 285.73462,556.73516 0.45515,0 0,0.0902 -0.34799,0 0,0.23341 0.31404,0 0,0.0902 -0.31404,0 0,0.37823 -0.10716,0 0,-0.79201"
           style=""
           id="path3182" />
        <path
           d="m 286.29003,556.73516 0.10822,0 0.16657,0.66947 0.16605,-0.66947 0.12042,0 0.16657,0.66947 0.16604,-0.66947 0.10875,0 -0.19893,0.79201 -0.13475,0 -0.1671,-0.68751 -0.16869,0.68751 -0.13475,0 -0.1984,-0.79201"
           style=""
           id="path3184" />
        <path
           d="m 287.63852,557.52717 -0.30237,-0.79201 0.11193,0 0.25092,0.66682 0.25145,-0.66682 0.1114,0 -0.30185,0.79201 -0.12148,0"
           style=""
           id="path3186" />
        <path
           d="m 288.06715,556.73516 0.67,0 0,0.0902 -0.28115,0 0,0.70183 -0.10769,0 0,-0.70183 -0.28116,0 0,-0.0902"
           style=""
           id="path3188" />
        <path
           d="m 288.94829,556.82322 0,0.2976 0.13474,0 c 0.0499,0 0.0884,-0.0129 0.11564,-0.0387 0.0272,-0.0258 0.0409,-0.0626 0.0409,-0.11034 0,-0.0474 -0.0136,-0.084 -0.0409,-0.10981 -0.0272,-0.0258 -0.0658,-0.0387 -0.11564,-0.0387 l -0.13474,0 m -0.10716,-0.0881 0.2419,0 c 0.0888,0 0.15578,0.0202 0.20105,0.0605 0.0456,0.04 0.0684,0.0987 0.0684,0.17613 -1e-5,0.0781 -0.0228,0.13721 -0.0684,0.17718 -0.0453,0.04 -0.11228,0.0599 -0.20105,0.0599 l -0.13474,0 0,0.31829 -0.10716,0 0,-0.79201"
           style=""
           id="path3190" />
        <path
           d="m 289.387,556.73516 0.67,0 0,0.0902 -0.28116,0 0,0.70183 -0.10769,0 0,-0.70183 -0.28115,0 0,-0.0902"
           style=""
           id="path3192" />
        <path
           d="m 290.16097,556.73516 0.10716,0 0,0.32466 0.38937,0 0,-0.32466 0.10716,0 0,0.79201 -0.10716,0 0,-0.37717 -0.38937,0 0,0.37717 -0.10716,0 0,-0.79201"
           style=""
           id="path3194" />
        <path
           d="m 291.08507,556.82322 0,0.2976 0.13475,0 c 0.0499,0 0.0884,-0.0129 0.11564,-0.0387 0.0272,-0.0258 0.0408,-0.0626 0.0408,-0.11034 0,-0.0474 -0.0136,-0.084 -0.0408,-0.10981 -0.0272,-0.0258 -0.0658,-0.0387 -0.11564,-0.0387 l -0.13475,0 m -0.10715,-0.0881 0.2419,0 c 0.0888,0 0.15578,0.0202 0.20105,0.0605 0.0456,0.04 0.0684,0.0987 0.0684,0.17613 0,0.0781 -0.0228,0.13721 -0.0684,0.17718 -0.0453,0.04 -0.11229,0.0599 -0.20105,0.0599 l -0.13475,0 0,0.31829 -0.10715,0 0,-0.79201"
           style=""
           id="path3196" />
        <path
           d="m 291.63359,556.73516 0.15968,0 0.20211,0.53897 0.20318,-0.53897 0.15967,0 0,0.79201 -0.1045,0 0,-0.69546 -0.20424,0.54321 -0.10769,0 -0.20423,-0.54321 0,0.69546 -0.10398,0 0,-0.79201"
           style=""
           id="path3198" />
        <path
           d="m 285.93885,558.88521 -0.30237,-0.79201 0.11193,0 0.25092,0.66681 0.25145,-0.66681 0.1114,0 -0.30185,0.79201 -0.12148,0"
           style=""
           id="path3200" />
        <path
           d="m 286.85288,558.51387 c 0.023,0.008 0.0453,0.0244 0.0668,0.0499 0.0219,0.0255 0.0439,0.0605 0.0658,0.10503 l 0.10875,0.21644 -0.11512,0 -0.10132,-0.20318 c -0.0262,-0.053 -0.0516,-0.0882 -0.0764,-0.10556 -0.0244,-0.0173 -0.0578,-0.026 -0.10026,-0.026 l -0.11671,0 0,0.33474 -0.10716,0 0,-0.79201 0.24191,0 c 0.0905,0 0.15808,0.0189 0.20264,0.0568 0.0446,0.0378 0.0668,0.095 0.0668,0.17135 0,0.0499 -0.0117,0.0912 -0.035,0.12413 -0.023,0.0329 -0.0566,0.0557 -0.10079,0.0684 m -0.26843,-0.33261 0,0.28115 0.13475,0 c 0.0516,0 0.0905,-0.0118 0.1167,-0.0355 0.0265,-0.024 0.0398,-0.0592 0.0398,-0.10556 0,-0.0463 -0.0133,-0.0812 -0.0398,-0.10451 -0.0262,-0.0237 -0.0651,-0.0355 -0.1167,-0.0355 l -0.13475,0"
           style=""
           id="path3202" />
        <path
           d="m 287.33986,558.18126 0,0.2976 0.13474,0 c 0.0499,0 0.0884,-0.0129 0.11565,-0.0387 0.0272,-0.0258 0.0408,-0.0626 0.0408,-0.11034 0,-0.0474 -0.0136,-0.084 -0.0408,-0.10981 -0.0272,-0.0258 -0.0658,-0.0387 -0.11565,-0.0387 l -0.13474,0 m -0.10716,-0.0881 0.2419,0 c 0.0888,0 0.15579,0.0202 0.20106,0.0605 0.0456,0.04 0.0684,0.0987 0.0684,0.17612 0,0.0782 -0.0228,0.13722 -0.0684,0.17718 -0.0453,0.04 -0.11229,0.0599 -0.20106,0.0599 l -0.13474,0 0,0.31829 -0.10716,0 0,-0.79201"
           style=""
           id="path3204" />
        <path
           d="m 287.88838,558.0932 0.45516,0 0,0.0902 -0.348,0 0,0.23341 0.31404,0 0,0.0902 -0.31404,0 0,0.37824 -0.10716,0 0,-0.79201"
           style=""
           id="path3206" />
        <path
           d="m 288.3865,558.0932 0.67001,0 0,0.0902 -0.28116,0 0,0.70183 -0.10769,0 0,-0.70183 -0.28116,0 0,-0.0902"
           style=""
           id="path3208" />
        <path
           d="m 289.16154,558.0932 0.10716,0 0,0.32465 0.38937,0 0,-0.32465 0.10716,0 0,0.79201 -0.10716,0 0,-0.37717 -0.38937,0 0,0.37717 -0.10716,0 0,-0.79201"
           style=""
           id="path3210" />
        <path
           d="m 289.97849,558.0932 0.10715,0 0,0.79201 -0.10715,0 0,-0.79201"
           style=""
           id="path3212" />
        <path
           d="m 290.2989,558.0932 0.10716,0 0,0.70183 0.38566,0 0,0.0902 -0.49282,0 0,-0.79201"
           style=""
           id="path3214" />
        <path
           d="m 290.90365,558.0932 0.15967,0 0.20212,0.53897 0.20317,-0.53897 0.15968,0 0,0.79201 -0.10451,0 0,-0.69546 -0.20423,0.54321 -0.10769,0 -0.20424,-0.54321 0,0.69546 -0.10397,0 0,-0.79201"
           style=""
           id="path3216" />
        <path
           d="m 291.84154,558.0932 0.50078,0 0,0.0902 -0.39362,0 0,0.23447 0.37717,0 0,0.0902 -0.37717,0 0,0.28699 0.40317,0 0,0.0902 -0.51033,0 0,-0.79201"
           style=""
           id="path3218" />
        <path
           d="m 285.84178,559.5393 0,0.61589 0.12943,0 c 0.10928,0 0.18921,-0.0248 0.23978,-0.0743 0.0509,-0.0495 0.0764,-0.12767 0.0764,-0.23448 0,-0.10609 -0.0255,-0.18372 -0.0764,-0.23288 -0.0506,-0.0495 -0.1305,-0.0743 -0.23978,-0.0743 l -0.12943,0 m -0.10716,-0.0881 0.22015,0 c 0.15348,10e-6 0.26612,0.032 0.33792,0.096 0.0718,0.0637 0.10768,0.16339 0.10768,0.29919 0,0.13652 -0.0361,0.23678 -0.10821,0.30079 -0.0722,0.064 -0.18461,0.096 -0.33739,0.096 l -0.22015,0 0,-0.79202"
           style=""
           id="path3220" />
        <path
           d="m 286.81733,559.5568 -0.14535,0.39415 0.29124,0 -0.14589,-0.39415 m -0.0605,-0.10557 0.12148,0 0.30185,0.79202 -0.11141,0 -0.0721,-0.20318 -0.35702,0 -0.0721,0.20318 -0.113,0 0.30238,-0.79202"
           style=""
           id="path3222" />
        <path
           d="m 287.59078,559.5568 -0.14535,0.39415 0.29123,0 -0.14588,-0.39415 m -0.0605,-0.10557 0.12149,0 0.30184,0.79202 -0.1114,0 -0.0721,-0.20318 -0.35701,0 -0.0722,0.20318 -0.11299,0 0.30237,-0.79202"
           style=""
           id="path3224" />
        <path
           d="m 288.36316,559.5568 -0.14535,0.39415 0.29124,0 -0.14589,-0.39415 m -0.0605,-0.10557 0.12148,0 0.30184,0.79202 -0.1114,0 -0.0721,-0.20318 -0.35702,0 -0.0721,0.20318 -0.113,0 0.30238,-0.79202"
           style=""
           id="path3226" />
        <path
           d="m 289.21671,559.87191 c 0.023,0.008 0.0453,0.0244 0.0668,0.0499 0.0219,0.0255 0.0439,0.0605 0.0658,0.10504 l 0.10875,0.21644 -0.11511,0 -0.10133,-0.20318 c -0.0262,-0.053 -0.0516,-0.0882 -0.0764,-0.10556 -0.0244,-0.0173 -0.0578,-0.026 -0.10026,-0.026 l -0.1167,0 0,0.33474 -0.10716,0 0,-0.79202 0.2419,0 c 0.0905,10e-6 0.15808,0.0189 0.20264,0.0568 0.0446,0.0378 0.0668,0.0949 0.0669,0.17134 -1e-5,0.0499 -0.0117,0.0912 -0.035,0.12414 -0.023,0.0329 -0.0566,0.0557 -0.10079,0.0684 m -0.26842,-0.33261 0,0.28115 0.13474,0 c 0.0516,0 0.0905,-0.0119 0.11671,-0.0355 0.0265,-0.024 0.0398,-0.0592 0.0398,-0.10557 0,-0.0463 -0.0133,-0.0812 -0.0398,-0.1045 -0.0262,-0.0237 -0.0651,-0.0355 -0.11671,-0.0355 l -0.13474,0"
           style=""
           id="path3228" />
        <path
           d="m 289.59654,559.45123 0.10715,0 0,0.70183 0.38567,0 0,0.0902 -0.49282,0 0,-0.79202"
           style=""
           id="path3230" />
        <path
           d="m 290.20129,559.45123 0.10716,0 0,0.33474 0.35542,-0.33474 0.13793,0 -0.39309,0.36922 0.4212,0.4228 -0.14111,0 -0.38035,-0.38142 0,0.38142 -0.10716,0 0,-0.79202"
           style=""
           id="path3232" />
        <path
           d="m 290.76731,559.45123 0.11512,0 0.21962,0.32572 0.21803,-0.32572 0.11511,0 -0.28009,0.41484 0,0.37718 -0.10769,0 0,-0.37718 -0.2801,-0.41484"
           style=""
           id="path3234" />
        <path
           d="m 291.46967,559.45123 0.10822,0 0.16657,0.66947 0.16605,-0.66947 0.12042,0 0.16657,0.66947 0.16604,-0.66947 0.10875,0 -0.19893,0.79202 -0.13475,0 -0.1671,-0.68751 -0.16869,0.68751 -0.13474,0 -0.19841,-0.79202"
           style=""
           id="path3236" />
      </g>
    </g>
  </g>
  <metadata
     id="metadata3539">
    <rdf:RDF>
      <cc:Work>
        <dc:format>image/svg+xml</dc:format>
        <dc:type
           rdf:resource="http://purl.org/dc/dcmitype/StillImage" />
        <cc:license
           rdf:resource="http://creativecommons.org/licenses/publicdomain/" />
        <dc:publisher>
          <cc:Agent
             rdf:about="http://openclipart.org/">
            <dc:title>Openclipart</dc:title>
          </cc:Agent>
        </dc:publisher>
        <dc:title />
        <dc:date>2010-11-08T22:08:43</dc:date>
        <dc:description>database symbol in metallic style</dc:description>
        <dc:source>https://openclipart.org/detail/94723/database-symbol-by-rg1024</dc:source>
        <dc:creator>
          <cc:Agent>
            <dc:title>rg1024</dc:title>
          </cc:Agent>
        </dc:creator>
        <dc:subject>
          <rdf:Bag>
            <rdf:li>database</rdf:li>
            <rdf:li>server</rdf:li>
            <rdf:li>symbol</rdf:li>
          </rdf:Bag>
        </dc:subject>
      </cc:Work>
      <cc:License
         rdf:about="http://creativecommons.org/licenses/publicdomain/">
        <cc:permits
           rdf:resource="http://creativecommons.org/ns#Reproduction" />
        <cc:permits
           rdf:resource="http://creativecommons.org/ns#Distribution" />
        <cc:permits
           rdf:resource="http://creativecommons.org/ns#DerivativeWorks" />
      </cc:License>
    </rdf:RDF>
  </metadata>
</svg>
