<?xml version="1.0" encoding="UTF-8" standalone="no"?>
<!-- Created with Inkscape (http://www.inkscape.org/) -->

<svg
   xmlns:dc="http://purl.org/dc/elements/1.1/"
   xmlns:cc="http://creativecommons.org/ns#"
   xmlns:rdf="http://www.w3.org/1999/02/22-rdf-syntax-ns#"
   xmlns:svg="http://www.w3.org/2000/svg"
   xmlns="http://www.w3.org/2000/svg"
   xmlns:xlink="http://www.w3.org/1999/xlink"
   xmlns:sodipodi="http://sodipodi.sourceforge.net/DTD/sodipodi-0.dtd"
   xmlns:inkscape="http://www.inkscape.org/namespaces/inkscape"
   width="512"
   height="512"
   id="svg2"
   version="1.1"
   inkscape:version="0.48.5 r10040"
   sodipodi:docname="splitMtz.svg">
  <defs
     id="defs4">
    <linearGradient
       id="linearGradient4877"
       y2="354.17999"
       xlink:href="#linearGradient4112"
       gradientUnits="userSpaceOnUse"
       x2="158"
       y1="353.76999"
       x1="111.83" />
    <linearGradient
       id="linearGradient4112">
      <stop
         id="stop4114"
         stop-color="#800000"
         offset="0" />
      <stop
         id="stop4120"
         stop-color="#ff4614"
         offset=".61238" />
      <stop
         id="stop4116"
         stop-color="#d40000"
         offset="1" />
    </linearGradient>
    <linearGradient
       id="linearGradient5449"
       y2="354.17999"
       xlink:href="#linearGradient5401"
       gradientUnits="userSpaceOnUse"
       x2="158"
       gradientTransform="translate(160.65,-136.03)"
       y1="353.76999"
       x1="111.83" />
    <linearGradient
       id="linearGradient5401">
      <stop
         id="stop5403"
         stop-color="#1d6a1d"
         offset="0" />
      <stop
         id="stop5405"
         stop-color="#2edd2e"
         offset=".61238" />
      <stop
         id="stop5407"
         stop-color="#1dbd1d"
         offset="1" />
    </linearGradient>
    <linearGradient
       id="linearGradient5451"
       y2="354.17999"
       xlink:href="#linearGradient5401"
       gradientUnits="userSpaceOnUse"
       x2="158"
       gradientTransform="matrix(1.0236,0,0,1.0236,205.05,-123.33)"
       y1="353.76999"
       x1="111.83" />
    <linearGradient
       id="linearGradient5453"
       y2="354.17999"
       xlink:href="#linearGradient5401"
       gradientUnits="userSpaceOnUse"
       x2="158"
       gradientTransform="matrix(1.0236,0,0,1.0236,262.46,-139.73)"
       y1="353.76999"
       x1="111.83" />
    <linearGradient
       id="linearGradient5455"
       y2="354.17999"
       xlink:href="#linearGradient5401"
       gradientUnits="userSpaceOnUse"
       x2="158"
       gradientTransform="matrix(0.98532,0,0,0.98532,324.7,-141.94)"
       y1="353.76999"
       x1="111.83" />
    <linearGradient
       id="linearGradient5457"
       y2="354.17999"
       xlink:href="#linearGradient5401"
       gradientUnits="userSpaceOnUse"
       x2="158"
       gradientTransform="matrix(0.98532,0,0,0.98532,381.02,-159.44)"
       y1="353.76999"
       x1="111.83" />
    <linearGradient
       id="linearGradient5459"
       y2="354.17999"
       xlink:href="#linearGradient5401"
       gradientUnits="userSpaceOnUse"
       x2="158"
       gradientTransform="translate(218.62,-151.89)"
       y1="353.76999"
       x1="111.83" />
    <linearGradient
       id="linearGradient5461"
       y2="354.17999"
       xlink:href="#linearGradient5401"
       gradientUnits="userSpaceOnUse"
       x2="158"
       gradientTransform="matrix(0.98099,0,0,0.98099,278.15,-160.7)"
       y1="353.76999"
       x1="111.83" />
    <linearGradient
       id="linearGradient5463"
       y2="354.17999"
       xlink:href="#linearGradient5401"
       gradientUnits="userSpaceOnUse"
       x2="158"
       gradientTransform="matrix(0.98099,0,0,0.98099,335.02,-177.1)"
       y1="353.76999"
       x1="111.83" />
    <linearGradient
       id="linearGradient5541"
       y2="354.17999"
       xlink:href="#linearGradient4112"
       gradientUnits="userSpaceOnUse"
       x2="158"
       gradientTransform="matrix(1.22253,0,0,1.22253,189.97268,334.70267)"
       y1="353.76999"
       x1="111.83" />
    <linearGradient
       id="linearGradient5289"
       y2="354.17999"
       xlink:href="#linearGradient4573"
       gradientUnits="userSpaceOnUse"
       x2="158"
       gradientTransform="matrix(1.2171575,0,0,1.2171575,214.61386,391.13418)"
       y1="353.76999"
       x1="111.83" />
    <linearGradient
       id="linearGradient4573">
      <stop
         id="stop4575"
         stop-color="#e06700"
         offset="0"
         style="stop-color:#0022e0;stop-opacity:1;" />
      <stop
         id="stop4577"
         stop-color="#ecde39"
         offset="0.61238003"
         style="stop-color:#3881ec;stop-opacity:1;" />
      <stop
         id="stop4579"
         stop-color="#faa900"
         offset="1"
         style="stop-color:#0042a1;stop-opacity:1;" />
    </linearGradient>
    <linearGradient
       id="linearGradient5287"
       y2="354.17999"
       xlink:href="#linearGradient4573"
       gradientUnits="userSpaceOnUse"
       x2="158"
       gradientTransform="matrix(1.2171575,0,0,1.2171575,144.05274,411.48238)"
       y1="353.76999"
       x1="111.83" />
    <linearGradient
       id="linearGradient5285"
       y2="354.17999"
       xlink:href="#linearGradient4573"
       gradientUnits="userSpaceOnUse"
       x2="158"
       gradientTransform="matrix(1.2405507,0.02190525,-0.02190525,1.2405507,126.80127,424.18789)"
       y1="353.76999"
       x1="111.83" />
    <linearGradient
       id="linearGradient5283"
       y2="362.02966"
       xlink:href="#linearGradient15363"
       gradientUnits="userSpaceOnUse"
       x2="146.23158"
       gradientTransform="matrix(1.22253,0,0,1.22253,259.68808,425.04572)"
       y1="363.27222"
       x1="111.83" />
    <linearGradient
       id="linearGradient15363">
      <stop
         offset="0"
         stop-color="#e06700"
         id="stop15365"
         style="stop-color:#1b3485;stop-opacity:1" />
      <stop
         offset=".61238"
         stop-color="#ecde39"
         id="stop15367"
         style="stop-color:#3986ec;stop-opacity:1" />
      <stop
         offset="1"
         stop-color="#faa900"
         id="stop15369"
         style="stop-color:#00119a;stop-opacity:1" />
    </linearGradient>
    <linearGradient
       id="linearGradient5281"
       y2="354.17999"
       xlink:href="#linearGradient15363"
       gradientUnits="userSpaceOnUse"
       x2="158"
       gradientTransform="matrix(1.2223395,0.02158368,-0.02158368,1.2223395,258.18093,438.85507)"
       y1="353.76999"
       x1="111.83" />
    <linearGradient
       id="linearGradient5279"
       y2="354.17999"
       xlink:href="#linearGradient15363"
       gradientUnits="userSpaceOnUse"
       x2="158"
       gradientTransform="matrix(1.2698278,0.02242221,-0.02242221,1.2698278,180.92065,440.23332)"
       y1="353.76999"
       x1="111.83" />
    <linearGradient
       id="linearGradient5277"
       y2="354.17999"
       xlink:href="#linearGradient15363"
       gradientUnits="userSpaceOnUse"
       x2="158"
       gradientTransform="matrix(1.2698278,0.02242221,-0.02242221,1.2698278,109.34138,459.32077)"
       y1="353.76999"
       x1="111.83" />
    <linearGradient
       id="linearGradient5275"
       y2="354.17999"
       xlink:href="#linearGradient4573"
       gradientUnits="userSpaceOnUse"
       x2="158"
       gradientTransform="matrix(1.2405507,0.02190525,-0.02190525,1.2405507,54.551536,442.59339)"
       y1="353.76999"
       x1="111.83" />
    <linearGradient
       inkscape:collect="always"
       xlink:href="#linearGradient4112"
       id="linearGradient15942"
       gradientUnits="userSpaceOnUse"
       x1="111.83"
       y1="353.76999"
       x2="158"
       y2="354.17999" />
    <linearGradient
       inkscape:collect="always"
       xlink:href="#linearGradient4112"
       id="linearGradient15944"
       gradientUnits="userSpaceOnUse"
       x1="111.83"
       y1="353.76999"
       x2="158"
       y2="354.17999" />
    <linearGradient
       inkscape:collect="always"
       xlink:href="#linearGradient4112"
       id="linearGradient15946"
       gradientUnits="userSpaceOnUse"
       x1="111.83"
       y1="353.76999"
       x2="158"
       y2="354.17999" />
    <linearGradient
       inkscape:collect="always"
       xlink:href="#linearGradient4112"
       id="linearGradient15948"
       gradientUnits="userSpaceOnUse"
       x1="111.83"
       y1="353.76999"
       x2="158"
       y2="354.17999" />
    <linearGradient
       inkscape:collect="always"
       xlink:href="#linearGradient4112"
       id="linearGradient15950"
       gradientUnits="userSpaceOnUse"
       x1="111.83"
       y1="353.76999"
       x2="158"
       y2="354.17999" />
    <linearGradient
       inkscape:collect="always"
       xlink:href="#linearGradient4112"
       id="linearGradient15952"
       gradientUnits="userSpaceOnUse"
       x1="111.83"
       y1="353.76999"
       x2="158"
       y2="354.17999" />
    <linearGradient
       inkscape:collect="always"
       xlink:href="#linearGradient4573"
       id="linearGradient3539"
       gradientUnits="userSpaceOnUse"
       gradientTransform="matrix(1.2169678,0.02148883,-0.02148883,1.2169678,200.84424,414.56265)"
       x1="111.83"
       y1="353.76999"
       x2="158"
       y2="354.17999" />
  </defs>
  <sodipodi:namedview
     id="base"
     pagecolor="#ffffff"
     bordercolor="#666666"
     borderopacity="1.0"
     inkscape:pageopacity="0.0"
     inkscape:pageshadow="2"
     inkscape:zoom="0.70000001"
     inkscape:cx="176.34147"
     inkscape:cy="214.49445"
     inkscape:document-units="px"
     inkscape:current-layer="layer1"
     showgrid="false"
     objecttolerance="20"
     inkscape:window-width="1366"
     inkscape:window-height="719"
     inkscape:window-x="0"
     inkscape:window-y="0"
     inkscape:window-maximized="1"
     gridtolerance="10">
    <inkscape:grid
       type="xygrid"
       id="grid2985"
       empspacing="5"
       visible="true"
       enabled="true"
       snapvisiblegridlinesonly="false" />
  </sodipodi:namedview>
  <metadata
     id="metadata7">
    <rdf:RDF>
      <cc:Work
         rdf:about="">
        <dc:format>image/svg+xml</dc:format>
        <dc:type
           rdf:resource="http://purl.org/dc/dcmitype/StillImage" />
        <dc:title />
      </cc:Work>
    </rdf:RDF>
  </metadata>
  <g
     inkscape:label="Layer 1"
     inkscape:groupmode="layer"
     id="layer1"
     transform="translate(0,-540.36218)">
    <path
       style="fill:#000ca0;fill-opacity:1;stroke:#000000;stroke-width:0.74444652;stroke-linecap:round;stroke-linejoin:round"
       inkscape:connector-curvature="0"
       d="m 96.0679,899.34459 -0.86682,98.33641 112.79713,43.2418 0.81101,-98.12402 z"
       id="path4345" />
    <path
       style="fill:#0044fc;fill-opacity:1;stroke:#000000;stroke-width:0.74444652;stroke-linecap:round;stroke-linejoin:round"
       inkscape:connector-curvature="0"
       d="M 209.16743,1040.5749 497.8058,966.99237 498.78286,866.83619 209.15991,945.57722 z"
       id="path4347" />
    <path
       style="fill:#0009c9;fill-opacity:1;stroke:#000000;stroke-width:0.74444652;stroke-linecap:round;stroke-linejoin:round"
       inkscape:connector-curvature="0"
       d="m 96.4103,898.92871 275.03917,-70.85428 126.88409,38.75259 -290.01992,78.73402 z"
       id="path4349" />
    <path
       style="fill:#aa0000;stroke:#000000;stroke-width:0.74444652;stroke-linecap:round;stroke-linejoin:round"
       inkscape:connector-curvature="0"
       d="m 21.059013,818.33229 1.265068,99.52257 114.727879,41.62945 -2.89738,-99.69503 z"
       id="path5111" />
    <path
       style="fill:#d40000;stroke:#000000;stroke-width:0.74444652;stroke-linecap:round;stroke-linejoin:round"
       inkscape:connector-curvature="0"
       d="m 135.83902,958.31305 287.3067,-78.54158 -0.28065,-100.20746 -288.70875,80.21783 z"
       id="path5113" />
    <path
       style="fill:#aa0000;stroke:#000000;stroke-width:0.74444652;stroke-linecap:round;stroke-linejoin:round"
       inkscape:connector-curvature="0"
       d="M 21.402704,818.29508 293.55992,743.39135 422.49804,779.50941 133.30541,859.78556 Z"
       id="path5115" />
    <g
       style="stroke:#000000;stroke-width:0.25"
       transform="matrix(1.2700257,0,0,1.2700257,42.87005,359.15773)"
       id="g5131">
      <path
         inkscape:connector-curvature="0"
         style="fill:url(#linearGradient15942)"
         d="m 111.63,347.86 0.10374,17.532 c 0,0 8.0893,5.1871 22.719,5.1871 16.599,0 23.238,-6.5357 23.238,-6.5357 l -0.20749,-16.495 z"
         id="path5133" />
      <path
         style="fill:#aa0000"
         inkscape:connector-curvature="0"
         d="m 157.5,347.49 c 0,2.9974 -10.268,5.4272 -22.935,5.4272 -12.666,0 -22.935,-2.4299 -22.935,-5.4272 0,-2.9974 10.268,-5.4272 22.935,-5.4272 12.502,0 22.7,2.3693 22.931,5.3272 l -0.1184,0.29339 z"
         id="path5135" />
    </g>
    <g
       style="stroke:#000000;stroke-width:0.25"
       transform="matrix(1.22253,0,0,1.22253,120.09397,356.41568)"
       id="g5137">
      <path
         inkscape:connector-curvature="0"
         style="fill:url(#linearGradient15944)"
         d="m 111.63,347.86 0.10374,17.532 c 0,0 8.0893,5.1871 22.719,5.1871 16.599,0 23.238,-6.5357 23.238,-6.5357 l -0.20749,-16.495 z"
         id="path5139" />
      <path
         style="fill:#aa0000"
         inkscape:connector-curvature="0"
         d="m 157.5,347.49 c 0,2.9974 -10.268,5.4272 -22.935,5.4272 -12.666,0 -22.935,-2.4299 -22.935,-5.4272 0,-2.9974 10.268,-5.4272 22.935,-5.4272 12.502,0 22.7,2.3693 22.931,5.3272 l -0.1184,0.29339 z"
         id="path5141" />
    </g>
    <path
       inkscape:connector-curvature="0"
       style="fill:url(#linearGradient5541);stroke:#000000;stroke-width:0.30563247"
       d="m 326.42972,759.9677 0.12682,21.43386 c 0,0 9.88948,6.34131 27.7753,6.34131 20.29237,0 28.40932,-7.99002 28.40932,-7.99002 l -0.25366,-20.16581 z"
       id="path5143" />
    <path
       style="fill:#aa0000;stroke:#000000;stroke-width:0.30563247"
       inkscape:connector-curvature="0"
       d="m 382.52376,759.52102 c 0,3.66442 -12.55261,6.63501 -28.03834,6.63501 -15.48449,0 -28.03833,-2.97059 -28.03833,-6.63501 0,-3.6644 12.5526,-6.63499 28.03833,-6.63499 15.28349,0 27.75172,2.89651 28.03337,6.51266 l -0.14474,0.35867 z"
       id="path5145" />
    <g
       style="stroke:#000000;stroke-width:0.25"
       transform="matrix(1.2407441,0,0,1.2407441,-11.531612,344.08268)"
       id="g5147">
      <path
         inkscape:connector-curvature="0"
         style="fill:url(#linearGradient15946)"
         d="m 111.63,347.86 0.10374,17.532 c 0,0 8.0893,5.1871 22.719,5.1871 16.599,0 23.238,-6.5357 23.238,-6.5357 l -0.20749,-16.495 z"
         id="path5149" />
      <path
         style="fill:#aa0000"
         inkscape:connector-curvature="0"
         d="m 157.5,347.49 c 0,2.9974 -10.268,5.4272 -22.935,5.4272 -12.666,0 -22.935,-2.4299 -22.935,-5.4272 0,-2.9974 10.268,-5.4272 22.935,-5.4272 12.502,0 22.7,2.3693 22.931,5.3272 l -0.1184,0.29339 z"
         id="path5151" />
    </g>
    <g
       style="stroke:#000000;stroke-width:0.25"
       transform="matrix(1.2171575,0,0,1.2171575,62.33733,333.14553)"
       id="g5153">
      <path
         inkscape:connector-curvature="0"
         style="fill:url(#linearGradient15948)"
         d="m 111.63,347.86 0.10374,17.532 c 0,0 8.0893,5.1871 22.719,5.1871 16.599,0 23.238,-6.5357 23.238,-6.5357 l -0.20749,-16.495 z"
         id="path5155" />
      <path
         style="fill:#aa0000"
         inkscape:connector-curvature="0"
         d="m 157.5,347.49 c 0,2.9974 -10.268,5.4272 -22.935,5.4272 -12.666,0 -22.935,-2.4299 -22.935,-5.4272 0,-2.9974 10.268,-5.4272 22.935,-5.4272 12.502,0 22.7,2.3693 22.931,5.3272 l -0.1184,0.29339 z"
         id="path5157" />
    </g>
    <g
       style="stroke:#000000;stroke-width:0.25"
       transform="matrix(1.2171575,0,0,1.2171575,132.89845,312.79236)"
       id="g5159">
      <path
         inkscape:connector-curvature="0"
         style="fill:url(#linearGradient15950)"
         d="m 111.63,347.86 0.10374,17.532 c 0,0 8.0893,5.1871 22.719,5.1871 16.599,0 23.238,-6.5357 23.238,-6.5357 l -0.20749,-16.495 z"
         id="path5161" />
      <path
         style="fill:#aa0000"
         inkscape:connector-curvature="0"
         d="m 157.5,347.49 c 0,2.9974 -10.268,5.4272 -22.935,5.4272 -12.666,0 -22.935,-2.4299 -22.935,-5.4272 0,-2.9974 10.268,-5.4272 22.935,-5.4272 12.502,0 22.7,2.3693 22.931,5.3272 l -0.1184,0.29339 z"
         id="path5163" />
    </g>
    <g
       transform="matrix(1.240655,0.01486728,-0.01486728,1.240655,-212.82393,337.98634)"
       id="g5427">
      <g
         style="stroke:#000000"
         transform="translate(-1.0936,3.2809)"
         id="g5465">
        <path
           style="fill:#1d8a1d;stroke-width:0.60000002;stroke-linecap:round;stroke-linejoin:round"
           inkscape:connector-curvature="0"
           d="m 244.88,230.34 1.0196,80.212 92.467,33.552 -2.3352,-80.351 z"
           id="path5183" />
        <path
           style="fill:#1dbd1d;stroke-width:0.60000002;stroke-linecap:round;stroke-linejoin:round"
           inkscape:connector-curvature="0"
           d="m 337.39,343.17 231.56,-63.302 -0.2262,-80.764 -232.69,64.653 z"
           id="path5185" />
        <path
           style="fill:#1d8a1d;stroke-width:0.60000002;stroke-linecap:round;stroke-linejoin:round"
           inkscape:connector-curvature="0"
           d="m 245.16,230.32 219.35,-60.37 103.92,29.11 -233.08,64.7 z"
           id="path5187" />
        <g
           id="g5409">
          <path
             inkscape:connector-curvature="0"
             style="fill:url(#linearGradient5449);stroke-width:0.25"
             d="m 272.28,211.83 0.10374,17.532 c 0,0 8.0893,5.1871 22.719,5.1871 16.599,0 23.238,-6.5357 23.238,-6.5357 l -0.20749,-16.495 z"
             id="path5193" />
          <path
             style="fill:#1d8a1d;stroke-width:0.25"
             inkscape:connector-curvature="0"
             d="m 318.15,211.46 c 0,2.9974 -10.268,5.4272 -22.935,5.4272 -12.666,0 -22.935,-2.4299 -22.935,-5.4272 0,-2.9974 10.268,-5.4272 22.935,-5.4272 12.502,0 22.7,2.3693 22.931,5.3272 l -0.1184,0.29339 z"
             id="path5195" />
          <path
             inkscape:connector-curvature="0"
             style="fill:url(#linearGradient5451);stroke-width:0.2559"
             d="m 319.31,232.74 0.10619,17.946 c 0,0 8.2804,5.3096 23.256,5.3096 16.991,0 23.787,-6.69 23.787,-6.69 l -0.21239,-16.884 z"
             id="path5199" />
          <path
             style="fill:#1d8a1d;stroke-width:0.2559"
             inkscape:connector-curvature="0"
             d="m 366.27,232.37 c 0,3.0682 -10.511,5.5554 -23.476,5.5554 -12.966,0 -23.476,-2.4872 -23.476,-5.5554 0,-3.0682 10.511,-5.5554 23.476,-5.5554 12.797,0 23.236,2.4252 23.472,5.453 l -0.1212,0.30032 z"
             id="path5201" />
          <path
             inkscape:connector-curvature="0"
             style="fill:url(#linearGradient5453);stroke-width:0.2559"
             d="m 376.72,216.34 0.10619,17.946 c 0,0 8.2804,5.3096 23.256,5.3096 16.991,0 23.787,-6.69 23.787,-6.69 l -0.21239,-16.884 z"
             id="path5205" />
          <path
             style="fill:#1d8a1d;stroke-width:0.2559"
             inkscape:connector-curvature="0"
             d="m 423.68,215.97 c 0,3.0682 -10.511,5.5554 -23.476,5.5554 -12.966,0 -23.476,-2.4872 -23.476,-5.5554 0,-3.0682 10.511,-5.5554 23.476,-5.5554 12.797,0 23.236,2.4252 23.472,5.453 l -0.1212,0.30032 z"
             id="path5207" />
          <path
             inkscape:connector-curvature="0"
             style="fill:url(#linearGradient5455);stroke-width:0.24632999"
             d="m 434.68,200.81 0.10222,17.275 c 0,0 7.9706,5.1109 22.386,5.1109 16.355,0 22.897,-6.4397 22.897,-6.4397 l -0.20444,-16.253 z"
             id="path5211" />
          <path
             style="fill:#1d8a1d;stroke-width:0.24632999"
             inkscape:connector-curvature="0"
             d="m 479.89,200.45 c 0,2.9534 -10.117,5.3476 -22.598,5.3476 -12.48,0 -22.598,-2.3942 -22.598,-5.3476 0,-2.9534 10.117,-5.3476 22.598,-5.3476 12.318,0 22.367,2.3345 22.594,5.249 l -0.11666,0.28908 z"
             id="path5213" />
          <path
             inkscape:connector-curvature="0"
             style="fill:url(#linearGradient5457);stroke-width:0.24632999"
             d="m 491,183.31 0.10222,17.275 c 0,0 7.9706,5.1109 22.386,5.1109 16.355,0 22.897,-6.4397 22.897,-6.4397 l -0.20444,-16.253 z"
             id="path5215" />
          <path
             style="fill:#1d8a1d;stroke-width:0.24632999"
             inkscape:connector-curvature="0"
             d="m 536.21,182.95 c 0,2.9534 -10.117,5.3476 -22.598,5.3476 -12.48,0 -22.598,-2.3942 -22.598,-5.3476 0,-2.9534 10.117,-5.3476 22.598,-5.3476 12.318,0 22.367,2.3345 22.594,5.249 l -0.11666,0.28908 z"
             id="path5217" />
          <path
             inkscape:connector-curvature="0"
             style="fill:url(#linearGradient5459);stroke-width:0.25"
             d="m 330.24,195.97 0.10374,17.532 c 0,0 8.0893,5.1871 22.719,5.1871 16.599,0 23.238,-6.5357 23.238,-6.5357 l -0.20749,-16.495 z"
             id="path5221" />
          <path
             style="fill:#1d8a1d;stroke-width:0.25"
             inkscape:connector-curvature="0"
             d="m 376.12,195.6 c 0,2.9974 -10.268,5.4272 -22.935,5.4272 -12.666,0 -22.935,-2.4299 -22.935,-5.4272 0,-2.9974 10.268,-5.4272 22.935,-5.4272 12.502,0 22.7,2.3693 22.931,5.3272 l -0.1184,0.29339 z"
             id="path5223" />
          <path
             inkscape:connector-curvature="0"
             style="fill:url(#linearGradient5461);stroke-width:0.24525"
             d="m 387.65,180.55 0.10177,17.199 c 0,0 7.9356,5.0884 22.287,5.0884 16.283,0 22.796,-6.4114 22.796,-6.4114 l -0.20354,-16.181 z"
             id="path5227" />
          <path
             style="fill:#1d8a1d;stroke-width:0.24525"
             inkscape:connector-curvature="0"
             d="m 432.66,180.19 c 0,2.9404 -10.073,5.3241 -22.499,5.3241 -12.426,0 -22.499,-2.3837 -22.499,-5.3241 0,-2.9404 10.073,-5.3241 22.499,-5.3241 12.264,0 22.269,2.3243 22.495,5.2259 l -0.11615,0.28781 z"
             id="path5229" />
          <path
             inkscape:connector-curvature="0"
             style="fill:url(#linearGradient5463);stroke-width:0.24525"
             d="m 444.52,164.14 0.10177,17.199 c 0,0 7.9356,5.0884 22.287,5.0884 16.283,0 22.796,-6.4114 22.796,-6.4114 l -0.20354,-16.181 z"
             id="path5233" />
          <path
             style="fill:#1d8a1d;stroke-width:0.24525"
             inkscape:connector-curvature="0"
             d="m 489.52,163.78 c 0,2.9404 -10.073,5.3241 -22.499,5.3241 -12.426,0 -22.499,-2.3837 -22.499,-5.3241 0,-2.9404 10.073,-5.3241 22.499,-5.3241 12.264,0 22.269,2.3243 22.495,5.2259 l -0.11615,0.28781 z"
             id="path5235" />
        </g>
      </g>
    </g>
    <g
       style="stroke:#000000;stroke-width:0.25"
       transform="matrix(1.2407441,0,0,1.2407441,-83.446375,363.74847)"
       id="g5119">
      <path
         inkscape:connector-curvature="0"
         style="fill:url(#linearGradient15952)"
         d="m 111.63,347.86 0.10374,17.532 c 0,0 8.0893,5.1871 22.719,5.1871 16.599,0 23.238,-6.5357 23.238,-6.5357 l -0.20749,-16.495 z"
         id="path5121" />
      <path
         style="fill:#aa0000"
         inkscape:connector-curvature="0"
         d="m 157.5,347.49 c 0,2.9974 -10.268,5.4272 -22.935,5.4272 -12.666,0 -22.935,-2.4299 -22.935,-5.4272 0,-2.9974 10.268,-5.4272 22.935,-5.4272 12.502,0 22.7,2.3693 22.931,5.3272 l -0.1184,0.29339 z"
         id="path5123" />
    </g>
    <g
       style="stroke:#000000;stroke-width:0.25"
       transform="matrix(1.2700257,0,0,1.2700257,-28.367266,379.51833)"
       id="g5125">
      <path
         inkscape:connector-curvature="0"
         style="fill:url(#linearGradient4877)"
         d="m 111.63,347.86 0.10374,17.532 c 0,0 8.0893,5.1871 22.719,5.1871 16.599,0 23.238,-6.5357 23.238,-6.5357 l -0.20749,-16.495 z"
         id="path5127" />
      <path
         style="fill:#aa0000"
         inkscape:connector-curvature="0"
         d="m 157.5,347.49 c 0,2.9974 -10.268,5.4272 -22.935,5.4272 -12.666,0 -22.935,-2.4299 -22.935,-5.4272 0,-2.9974 10.268,-5.4272 22.935,-5.4272 12.502,0 22.7,2.3693 22.931,5.3272 l -0.1184,0.29339 z"
         id="path5129" />
    </g>
  </g>
</svg>
