<?xml version="1.0" encoding="UTF-8" standalone="no"?>
<svg
   xmlns:dc="http://purl.org/dc/elements/1.1/"
   xmlns:cc="http://creativecommons.org/ns#"
   xmlns:rdf="http://www.w3.org/1999/02/22-rdf-syntax-ns#"
   xmlns:svg="http://www.w3.org/2000/svg"
   xmlns="http://www.w3.org/2000/svg"
   xmlns:sodipodi="http://sodipodi.sourceforge.net/DTD/sodipodi-0.dtd"
   xmlns:inkscape="http://www.inkscape.org/namespaces/inkscape"
   version="1.1"
   id="svg2"
   height="64"
   width="64"
   inkscape:version="0.91 r13725"
   sodipodi:docname="SyncToDjango.svg">
  <sodipodi:namedview
     pagecolor="#ffffff"
     bordercolor="#666666"
     borderopacity="1"
     objecttolerance="10"
     gridtolerance="10"
     guidetolerance="10"
     inkscape:pageopacity="0"
     inkscape:pageshadow="2"
     inkscape:window-width="1656"
     inkscape:window-height="1093"
     id="namedview3286"
     showgrid="false"
     inkscape:zoom="6.9252101"
     inkscape:cx="26.994856"
     inkscape:cy="48.903935"
     inkscape:window-x="374"
     inkscape:window-y="16"
     inkscape:window-maximized="0"
     inkscape:current-layer="svg2" />
  <defs
     id="defs4">
    <linearGradient
       id="linearGradient3893">
      <stop
         style="stop-color:#ffffff;stop-opacity:1;"
         offset="0"
         id="stop3895" />
      <stop
         id="stop3897"
         offset="0.5"
         style="stop-color:#464646;stop-opacity:1;" />
      <stop
         style="stop-color:#ffffff;stop-opacity:1;"
         offset="1"
         id="stop3899" />
    </linearGradient>
    <linearGradient
       id="linearGradient3871">
      <stop
         id="stop3873"
         offset="0"
         style="stop-color:#929292;stop-opacity:1;" />
      <stop
         style="stop-color:#878787;stop-opacity:1;"
         offset="0.5"
         id="stop3879" />
      <stop
         id="stop3875"
         offset="1"
         style="stop-color:#1a1a1a;stop-opacity:1;" />
    </linearGradient>
  </defs>
  <metadata
     id="metadata7">
    <rdf:RDF>
      <cc:Work
         rdf:about="">
        <dc:format>image/svg+xml</dc:format>
        <dc:type
           rdf:resource="http://purl.org/dc/dcmitype/StillImage" />
        <dc:title></dc:title>
      </cc:Work>
    </rdf:RDF>
  </metadata>
  <path
     style="fill:#000000"
     d="m 0.1254548,48.726928 0,-15.578205 32.1146102,0 32.114608,0 0,15.578205 0,15.578207 -32.114608,0 -32.1146102,0 0,-15.578207 z m 47.1711122,7.17104 1.131349,-0.964144 0.188025,-3.851869 c 0.122459,-2.50868 0.44112,-4.067596 0.913831,-4.470514 1.124025,-0.958073 0.879557,-1.321591 -1.101856,-1.638425 -1.920567,-0.307105 -5.115869,0.03394 -6.652501,0.71005 -1.438564,0.632959 -2.596969,2.934479 -2.217734,4.4062 0.447697,1.737404 2.70004,3.210259 4.554478,2.978269 1.602077,-0.20042 1.938962,0.541163 0.657606,1.447586 -0.510141,0.360871 -1.518392,0.456284 -2.872038,0.271784 l -2.085925,-0.284305 0,1.080898 c 0,1.362432 0.677047,1.61493 3.829444,1.428156 1.724101,-0.102151 2.882508,-0.455089 3.655321,-1.113686 z m -4.003506,-5.24231 c -0.576934,-0.491754 -0.391675,-2.603757 0.2785,-3.174986 1.289803,-1.099373 1.984317,-0.585289 1.984317,1.468802 l 0,2.002913 -0.957345,0 c -0.526541,0 -1.114004,-0.133528 -1.305472,-0.296729 z m -25.10248,4.702111 0.994764,-0.935717 0.17808,-4.627928 0.178079,-4.627928 -1.614098,0 -1.614099,0 0,4.026056 0,4.026055 -1.273616,1.085577 -1.273616,1.085576 0.881974,0.438479 c 1.383004,0.687566 2.464308,0.544054 3.542532,-0.47017 z m -4.618766,-2.460459 1.174925,-0.268381 0,-5.734278 0,-5.734281 -1.566566,0 -1.566566,0 0,1.741244 0,1.741245 -2.0866842,0.300492 c -2.6107221,0.375958 -4.1858947,1.956597 -4.1629736,4.177421 0.00913,0.884987 0.3241837,1.954231 0.7001097,2.376097 1.2636672,1.418089 4.6583531,2.051309 7.5077551,1.400441 z M 9.1071018,50.418276 C 7.7042652,49.222558 8.7312793,46.946562 10.673668,46.946562 l 0.93994,0 0,2.002912 0,2.002913 -0.93994,0 c -0.516967,0 -1.2219215,-0.24035 -1.5665662,-0.534111 z m 19.2165462,-1.034726 0,-3.794296 -1.436018,-0.469796 c -0.888832,-0.290783 -2.23193,-0.328795 -3.524775,-0.09976 l -2.088754,0.370044 -0.166198,0.996603 -0.166197,0.996604 2.385499,-0.278695 c 2.656187,-0.310318 3.433767,0.508228 0.94948,0.999503 -3.524646,0.69701 -4.772659,2.516765 -2.921652,4.260125 l 0.864216,0.813957 3.0522,0 3.052199,0 0,-3.794294 z m -4.699699,1.346291 c 0,-0.367201 0.09827,-0.667638 0.218387,-0.667638 0.120111,0 0.590082,-0.121574 1.044377,-0.270166 0.592136,-0.193676 0.825992,-0.0047 0.825992,0.667638 0,0.641076 -0.330449,0.937803 -1.044378,0.937803 -0.58021,0 -1.044378,-0.296727 -1.044378,-0.667637 z m 9.399399,-0.698594 0,-3.146598 1.174925,0.142229 1.174924,0.14223 0.154407,3.004368 0.154406,3.004368 1.542706,0 1.542708,0 -0.008,-3.226914 c -0.0044,-1.774803 -0.18064,-3.447293 -0.391645,-3.716646 -0.892628,-1.139462 -2.89139,-1.598935 -5.668849,-1.30315 l -2.808723,0.299116 0,3.973797 0,3.973797 1.566567,0 1.566566,0 0,-3.146597 z m 24.588125,2.576078 c 3.402984,-2.22698 2.257558,-7.032565 -1.832105,-7.686516 -5.002861,-0.799974 -8.07341,4.70263 -4.107804,7.361429 1.498543,1.004717 4.638766,1.176581 5.939909,0.325087 z m -4.241154,-2.574413 c -0.446618,-0.711302 -0.45915,-1.258022 -0.04652,-2.029921 1.05525,-1.974079 3.418259,-0.85093 3.105239,1.475932 -0.218766,1.626184 -2.164248,1.978548 -3.058711,0.553989 z m -33.923879,-7.537266 0,-1.335276 -1.566566,0 -1.566567,0 0,1.335276 0,1.335275 1.566567,0 1.566566,0 0,-1.335275 z"
     id="path3398"
     inkscape:connector-curvature="0" />
  <text
     xml:space="preserve"
     style="font-style:normal;font-variant:normal;font-weight:normal;font-stretch:normal;font-size:16.25px;line-height:125%;font-family:Sans;-inkscape-font-specification:'Sans, Normal';text-align:start;letter-spacing:0px;word-spacing:0px;writing-mode:lr-tb;text-anchor:start;fill:#000000;fill-opacity:1;stroke:none;stroke-width:1px;stroke-linecap:butt;stroke-linejoin:miter;stroke-opacity:1"
     x="1.5883994"
     y="20.824415"
     id="text3400"
     sodipodi:linespacing="125%"><tspan
       sodipodi:role="line"
       id="tspan3402"
       x="1.5883994"
       y="20.824415">Sync to</tspan></text>
  <path
     style="fill:#000cac;fill-opacity:0.79215686;stroke-width:2;stroke-miterlimit:10;stroke-dasharray:8, 2;stroke-dashoffset:0"
     d="m 0.25198543,48.755693 0,-15.522994 31.98458857,0 31.984589,0 0,15.522994 0,15.522995 -31.984589,0 -31.98458857,0 0,-15.522995 z M 46.055562,56.64003 c 0.452646,-0.175242 1.177844,-0.610754 1.611551,-0.967806 l 0.788558,-0.649183 0.08524,-1.400874 c 0.331749,-5.451903 0.494922,-6.407885 1.221723,-7.157754 0.79175,-0.816878 0.583089,-1.142077 -0.939834,-1.464735 -1.716573,-0.363687 -4.355696,-0.207471 -6.30927,0.373461 -1.643792,0.488813 -2.821407,1.933845 -3.073232,3.771114 -0.178487,1.302199 0.875904,2.809867 2.512029,3.591942 0.492114,0.235233 1.061169,0.34917 2.051324,0.41072 1.172799,0.0729 1.377529,0.123144 1.420558,0.34862 0.0604,0.316525 -0.322369,0.767734 -0.908342,1.070752 -0.349759,0.180868 -0.734909,0.203121 -2.09414,0.120998 -0.916058,-0.05535 -1.892988,-0.112997 -2.170958,-0.128112 l -0.5054,-0.02748 0.02764,0.823991 c 0.03155,0.940419 0.215348,1.371577 0.667697,1.566285 0.173504,0.07468 1.32265,0.113488 2.55366,0.08623 1.885291,-0.04174 2.367964,-0.09979 3.061191,-0.368172 z M 17.21898,56.066024 c 0.317679,-0.145379 0.908824,-0.563424 1.313654,-0.928989 l 0.736054,-0.664665 0.09619,-2.930539 c 0.0529,-1.611795 0.137299,-3.726542 0.187546,-4.699437 l 0.09136,-1.768899 -1.681701,0 -1.681699,0 0,4.032895 0,4.032894 -1.310402,1.120726 -1.310402,1.120724 0.552302,0.287304 c 1.383834,0.71986 2.097382,0.814296 3.007102,0.397986 z m 11.190996,-6.654729 0,-3.892997 -0.9747,-0.302278 c -1.441582,-0.44707 -2.490888,-0.501109 -4.280671,-0.220454 -0.863492,0.135404 -1.652929,0.278017 -1.754304,0.316919 -0.181261,0.06956 -0.579961,1.894304 -0.443675,2.03059 0.03838,0.03838 0.872637,-0.01152 1.853899,-0.110884 1.737166,-0.175916 2.855852,-0.115919 2.855852,0.153165 0,0.199863 -0.411516,0.381797 -1.447374,0.639893 -3.851097,0.959548 -4.798129,2.719811 -2.545516,4.731386 l 0.599491,0.535344 3.068499,0.0062 3.068499,0.0062 0,-3.892997 z m 4.620798,0.703505 0,-3.189491 0.5776,0.08489 c 0.31768,0.04669 0.82942,0.121726 1.137203,0.166745 l 0.559602,0.08185 0.09438,1.903648 c 0.05191,1.047006 0.133378,2.407242 0.181043,3.022747 l 0.08667,1.1191 1.569754,0 1.569753,0 -0.0029,-2.563099 c -0.0037,-3.282362 -0.140395,-4.272623 -0.665325,-4.820533 -0.938783,-0.979878 -3.237666,-1.321186 -6.47957,-0.962001 l -1.7328,0.191984 -0.03835,4.076825 -0.03835,4.076824 1.590649,0 1.590648,0 0,-3.189492 z m -19.279879,2.805863 1.088723,-0.239229 -0.03772,-5.789469 -0.03772,-5.789469 -1.588399,0 -1.588399,0 -0.04031,1.739206 -0.04031,1.739207 -1.5130854,0.240019 c -1.7654206,0.280046 -2.5436609,0.589844 -3.3801327,1.345546 -0.7793497,0.704096 -1.1763136,1.49358 -1.2698908,2.525565 -0.2645687,2.917711 1.6861965,4.424087 5.7703179,4.455823 0.951094,0.0074 1.968089,-0.08024 2.636917,-0.227199 z m 43.234417,0.02822 c 1.642275,-0.579429 2.669781,-2.134366 2.643325,-4.000179 -0.03185,-2.246436 -1.88351,-3.968907 -4.443168,-4.133175 -5.008373,-0.321418 -7.419096,5.524429 -3.184891,7.723154 1.184569,0.615121 3.795062,0.82994 4.984734,0.4102 z m -37.528133,-10.474591 0,-1.443999 -1.5884,0 -1.588399,0 0,1.443999 0,1.444 1.588399,0 1.5884,0 0,-1.444 z"
     id="path3404"
     inkscape:connector-curvature="0" />
  <path
     style="fill:#000cac;fill-opacity:0.79215686;stroke-width:2;stroke-miterlimit:10;stroke-dasharray:8, 2;stroke-dashoffset:0"
     d="M 9.7101822,50.645651 C 8.9607359,50.312557 8.5549826,49.749798 8.5549826,49.043449 c 0,-1.096477 0.8559582,-1.883766 2.2242624,-2.045822 l 0.735937,-0.08716 0,1.969513 0,1.969513 -0.6859,-0.0057 c -0.377245,-0.0031 -0.8808399,-0.09229 -1.1190998,-0.198189 z"
     id="path3406"
     inkscape:connector-curvature="0" />
  <path
     style="fill:#000cac;fill-opacity:0.79215686;stroke-width:2;stroke-miterlimit:10;stroke-dasharray:8, 2;stroke-dashoffset:0"
     d="m 23.870742,51.004241 c -0.386101,-0.426638 -0.175346,-0.812958 0.555071,-1.017463 0.345593,-0.09676 0.749854,-0.152862 0.898357,-0.124671 0.368056,0.06987 0.439328,0.785127 0.11405,1.144555 -0.336829,0.372192 -1.229705,0.370813 -1.567478,-0.0024 z"
     id="path3408"
     inkscape:connector-curvature="0" />
  <path
     style="fill:#000cac;fill-opacity:0.79215686;stroke-width:2;stroke-miterlimit:10;stroke-dasharray:8, 2;stroke-dashoffset:0"
     d="m 43.407468,50.573149 c -0.293934,-0.238273 -0.34059,-0.402511 -0.338666,-1.192168 0.0027,-1.112308 0.348105,-1.794865 1.119861,-2.213034 l 0.531792,-0.288146 0.328257,0.327875 c 0.296337,0.295991 0.332977,0.489006 0.376784,1.984846 l 0.04853,1.656971 -0.862829,0 c -0.634843,0 -0.952904,-0.07302 -1.203725,-0.276344 z"
     id="path3410"
     inkscape:connector-curvature="0" />
  <path
     style="fill:#000000;fill-opacity:0;stroke-width:2;stroke-miterlimit:10;stroke-dasharray:8, 2;stroke-dashoffset:0"
     d="m 54.02941,50.577201 c -0.468312,-0.285576 -0.927043,-1.075518 -0.927043,-1.596383 0,-0.438705 0.515297,-1.39251 0.896596,-1.659582 0.812017,-0.568758 1.991593,0.0016 2.289233,1.106991 0.458221,1.701703 -0.889538,2.98394 -2.258786,2.148974 z"
     id="path3412"
     inkscape:connector-curvature="0" />
  <path
     style="fill:#0f422d;fill-opacity:1;stroke-width:2;stroke-miterlimit:10;stroke-dasharray:8, 2;stroke-dashoffset:0"
     d="m 0.25198543,48.755693 0,-15.522994 31.98458857,0 31.984589,0 0,15.522994 0,15.522995 -31.984589,0 -31.98458857,0 0,-15.522995 z M 46.058055,56.661195 c 0.60435,-0.269755 1.418528,-0.78873 2.169051,-1.382602 0.209977,-0.166151 0.287143,-0.696788 0.472765,-3.251 0.3006,-4.136331 0.429814,-4.768115 1.1503,-5.624365 0.457731,-0.543981 0.429122,-0.89912 -0.09257,-1.14916 -1.400251,-0.671123 -4.755801,-0.620727 -7.208698,0.108267 -1.673015,0.497214 -2.907127,1.963329 -3.112533,3.697662 -0.116458,0.983311 0.341526,2.034067 1.231624,2.825715 0.921369,0.819463 1.688975,1.126186 3.212976,1.283857 0.719368,0.07443 1.366675,0.171618 1.438461,0.215984 0.155716,0.09624 -0.108889,0.637492 -0.435347,0.89051 -0.48121,0.372955 -1.172541,0.44366 -3.140891,0.321236 -1.093358,-0.068 -2.013237,-0.09833 -2.044178,-0.06738 -0.03094,0.03094 -0.0093,0.460682 0.04805,0.954981 0.07815,0.673384 0.193495,0.987912 0.460009,1.254426 0.355354,0.355354 0.358056,0.355639 2.762799,0.290792 2.044346,-0.05513 2.509734,-0.110726 3.08818,-0.368919 z M 17.454328,55.938412 c 0.367703,-0.217756 0.930762,-0.624863 1.251243,-0.904681 l 0.582692,-0.508759 0.158987,-4.256439 c 0.08744,-2.341041 0.186342,-4.467624 0.219778,-4.725739 l 0.06079,-0.469299 -1.723721,0 -1.723721,0 0,4.020633 0,4.020634 -1.176659,0.997264 c -0.647163,0.548496 -1.247684,1.043294 -1.334492,1.099552 -0.240869,0.156099 0.03909,0.369092 1.009555,0.768068 1.133019,0.465807 1.8377,0.454946 2.675544,-0.04123 z m 10.921868,-6.563155 -0.03842,-3.929034 -0.8664,-0.271551 c -1.284167,-0.40249 -3.049561,-0.456636 -4.756092,-0.145874 l -1.434896,0.261296 -0.186818,0.722 c -0.102753,0.3971 -0.188074,0.866466 -0.189606,1.043036 l -0.0028,0.321036 2.28843,-0.09009 c 1.516301,-0.0597 2.319585,-0.03968 2.380764,0.05931 0.106117,0.171698 -0.262311,0.330845 -1.781195,0.769408 -2.15528,0.622315 -3.321199,1.516289 -3.321199,2.546544 0,0.655009 0.548839,1.612801 1.260157,2.19913 l 0.538444,0.443831 3.07402,0 3.074018,0 -0.03842,-3.929035 z m 4.654578,0.745693 0,-3.183343 0.4693,0.08407 c 0.258115,0.04623 0.76171,0.132059 1.1191,0.19072 l 0.649799,0.106657 0.102774,2.090122 c 0.05653,1.149566 0.142923,2.496246 0.191994,2.992621 l 0.08922,0.9025 1.576905,0 1.576907,0 0,-2.72389 c 0,-3.944181 -0.173326,-4.564896 -1.458786,-5.224222 -1.123263,-0.576132 -3.807148,-0.711136 -6.735911,-0.338829 l -0.7581,0.09637 0,4.095285 0,4.095285 1.5884,0 1.588399,0 0,-3.183342 z m -19.556613,2.886491 c 0.47125,-0.08385 0.970535,-0.185696 1.109519,-0.226331 0.235283,-0.06879 0.2527,-0.476313 0.2527,-5.912347 l 0,-5.838467 -1.656155,0 -1.656154,0 -0.04054,1.763452 -0.04054,1.763453 -1.4462949,0.236436 c -1.703264,0.278445 -2.553801,0.623583 -3.3831362,1.372837 -0.8003504,0.723069 -1.1855017,1.514559 -1.2740983,2.618287 -0.1051106,1.309455 0.1697926,2.137346 0.9781179,2.945671 0.6374254,0.637425 1.7151367,1.133789 2.8872118,1.329769 0.756385,0.126473 3.4490497,0.0932 4.2693787,-0.05276 z m 44.130074,-0.317162 c 1.323736,-0.777265 2.023232,-2.067182 2.015345,-3.716425 -0.0078,-1.639984 -0.907178,-2.959161 -2.528004,-3.708168 -0.784593,-0.362572 -1.047874,-0.408788 -2.328609,-0.408762 -1.288452,2.6e-5 -1.532508,0.04349 -2.265657,0.403498 -1.612295,0.791704 -2.718609,2.447463 -2.714731,4.06298 0.002,0.809457 0.556598,1.924507 1.283079,2.579435 1.045897,0.942885 2.149689,1.256609 4.274908,1.215024 1.441932,-0.02821 1.650667,-0.06764 2.263669,-0.427582 z m -38.147056,-10.215984 0,-1.443999 -1.5884,0 -1.588399,0 0,1.443999 0,1.444 1.588399,0 1.5884,0 0,-1.444 z"
     id="path3425"
     inkscape:connector-curvature="0" />
  <path
     style="fill:#0f422d;fill-opacity:1;stroke-width:2;stroke-miterlimit:10;stroke-dasharray:8, 2;stroke-dashoffset:0"
     d="M 10.143382,50.715386 C 9.4575004,50.549863 9.0802108,50.295895 8.8452771,49.841583 8.155703,48.508094 9.0211098,47.358424 10.973682,47.014056 l 0.5415,-0.0955 0,1.96547 0,1.96547 -0.4693,-0.01478 c -0.258115,-0.0081 -0.66424,-0.06183 -0.9025,-0.119326 z"
     id="path3427"
     inkscape:connector-curvature="0" />
  <path
     style="fill:#0f422d;fill-opacity:1;stroke-width:2;stroke-miterlimit:10;stroke-dasharray:8, 2;stroke-dashoffset:0"
     d="m 24.114077,51.106453 c -0.468078,-0.225746 -0.427405,-0.760756 0.0722,-0.949704 0.845403,-0.319728 1.173096,-0.333084 1.322509,-0.0539 0.205424,0.383838 0.04446,0.830441 -0.366842,1.017844 -0.426532,0.194341 -0.600377,0.191933 -1.027867,-0.01424 z"
     id="path3429"
     inkscape:connector-curvature="0" />
  <path
     style="fill:#0f422d;fill-opacity:1;stroke-width:2;stroke-miterlimit:10;stroke-dasharray:8, 2;stroke-dashoffset:0"
     d="m 43.93297,50.745634 c -0.594584,-0.144851 -0.794211,-0.47835 -0.793975,-1.326421 2.74e-4,-0.98642 0.330475,-1.696255 0.99583,-2.140741 0.269859,-0.180278 0.544526,-0.327778 0.610371,-0.327778 0.331426,0 0.543275,0.754095 0.638921,2.274299 l 0.102208,1.6245 -0.632277,-0.01675 c -0.347753,-0.0092 -0.762238,-0.04841 -0.921078,-0.08711 z"
     id="path3431"
     inkscape:connector-curvature="0" />
  <path
     style="fill:#0f422d;fill-opacity:1;stroke-width:2;stroke-miterlimit:10;stroke-dasharray:8, 2;stroke-dashoffset:0"
     d="m 54.02941,50.577201 c -0.468312,-0.285576 -0.927043,-1.075518 -0.927043,-1.596383 0,-0.438705 0.515297,-1.39251 0.896596,-1.659582 0.812017,-0.568758 1.991593,0.0016 2.289233,1.106991 0.458221,1.701703 -0.889538,2.98394 -2.258786,2.148974 z"
     id="path3433"
     inkscape:connector-curvature="0" />
</svg>
