<?xml version="1.0" encoding="UTF-8" standalone="no"?>
<!-- Created with Inkscape (http://www.inkscape.org/) -->

<svg
   xmlns:dc="http://purl.org/dc/elements/1.1/"
   xmlns:cc="http://creativecommons.org/ns#"
   xmlns:rdf="http://www.w3.org/1999/02/22-rdf-syntax-ns#"
   xmlns:svg="http://www.w3.org/2000/svg"
   xmlns="http://www.w3.org/2000/svg"
   xmlns:xlink="http://www.w3.org/1999/xlink"
   version="1.1"
   width="196"
   height="154"
   id="svg2">
  <defs
     id="defs4">
    <linearGradient
       id="linearGradient4589">
      <stop
         id="stop4591"
         style="stop-color:#a2a2a2;stop-opacity:1"
         offset="0" />
      <stop
         id="stop4593"
         style="stop-color:#a2a2a2;stop-opacity:0"
         offset="1" />
    </linearGradient>
    <marker
       refX="0"
       refY="0"
       orient="auto"
       id="Arrow1Mend"
       style="overflow:visible">
      <path
         d="M 0,0 5,-5 -12.5,0 5,5 0,0 z"
         transform="matrix(-0.4,0,0,-0.4,-4,0)"
         id="path3772"
         style="fill-rule:evenodd;stroke:#000000;stroke-width:1pt" />
    </marker>
    <marker
       refX="0"
       refY="0"
       orient="auto"
       id="Arrow1Send"
       style="overflow:visible">
      <path
         d="M 0,0 5,-5 -12.5,0 5,5 0,0 z"
         transform="matrix(-0.2,0,0,-0.2,-1.2,0)"
         id="path3778"
         style="fill-rule:evenodd;stroke:#000000;stroke-width:1pt" />
    </marker>
    <marker
       refX="0"
       refY="0"
       orient="auto"
       id="Arrow1Lend"
       style="overflow:visible">
      <path
         d="M 0,0 5,-5 -12.5,0 5,5 0,0 z"
         transform="matrix(-0.8,0,0,-0.8,-10,0)"
         id="path3766"
         style="fill-rule:evenodd;stroke:#000000;stroke-width:1pt" />
    </marker>
    <linearGradient
       x1="140.8385"
       y1="987.71289"
       x2="158.41748"
       y2="931.57147"
       id="linearGradient4595"
       xlink:href="#linearGradient4589"
       gradientUnits="userSpaceOnUse" />
  </defs>
  <metadata
     id="metadata7">
    <rdf:RDF>
      <cc:Work
         rdf:about="">
        <dc:format>image/svg+xml</dc:format>
        <dc:type
           rdf:resource="http://purl.org/dc/dcmitype/StillImage" />
        <dc:title></dc:title>
      </cc:Work>
    </rdf:RDF>
  </metadata>
  <g
     transform="translate(0,-898.3622)"
     id="layer1">
    <rect
       width="148.57143"
       height="91.428574"
       rx="2.1397183"
       ry="2.0257998"
       x="20.688904"
       y="938.71429"
       id="rect2985"
       style="fill:none;stroke:url(#linearGradient4595);stroke-width:22.60000038;stroke-linecap:round;stroke-linejoin:round;stroke-miterlimit:4;stroke-opacity:1;stroke-dasharray:none;stroke-dashoffset:0" />
    <g
       transform="matrix(1.0681736,-0.00159652,0.02603372,0.96183252,-24.630759,28.402506)"
       id="g4577"
       style="stroke:none">
      <g
         transform="matrix(1.1655325,0.12540819,-0.13301698,1.2853558,123.65822,-300.10072)"
         id="g4585"
         style="stroke:none">
        <path
           d="m 141.37544,948.12858 c -1.01133,0.0732 -30.55793,-1.96662 -31.42843,-1.44665 -3.12288,-3.55433 -9.10676,-3.70604 -37.183337,30.16462 -8.930458,12.08734 -17.646318,36.05925 -16.863715,47.51965 14.152047,-17.0711 14.066127,-16.8354 18.568792,-21.4909 31.3908,-33.01026 74.9999,-55.2321 70.3034,-52.34431 2.59995,-1.4043 10.30493,-8.12589 9.47976,-10.9633 -0.82516,-2.83742 -5.82931,2.11789 -8.77688,2.3269 z"
           id="path3757"
           style="font-size:medium;font-style:normal;font-variant:normal;font-weight:normal;font-stretch:normal;text-indent:0;text-align:start;text-decoration:none;line-height:normal;letter-spacing:normal;word-spacing:normal;text-transform:none;direction:ltr;block-progression:tb;writing-mode:lr-tb;text-anchor:start;baseline-shift:baseline;color:#000000;fill:#000000;fill-opacity:1;stroke:none;stroke-width:13.04897308;marker:none;visibility:visible;display:inline;overflow:visible;enable-background:accumulate;font-family:Sans;-inkscape-font-specification:Sans" />
        <path
           d="m 114.48279,960.8151 -1.9459,28.01407 43.93282,-53.05332 -69.748459,7.68853 z"
           id="path4583"
           style="fill-rule:evenodd;stroke:none" />
      </g>
    </g>
  </g>
</svg>
