<?xml version="1.0" encoding="UTF-8" standalone="no"?>
<svg
   xmlns:dc="http://purl.org/dc/elements/1.1/"
   xmlns:cc="http://creativecommons.org/ns#"
   xmlns:rdf="http://www.w3.org/1999/02/22-rdf-syntax-ns#"
   xmlns:svg="http://www.w3.org/2000/svg"
   xmlns="http://www.w3.org/2000/svg"
   xmlns:xlink="http://www.w3.org/1999/xlink"
   xmlns:sodipodi="http://sodipodi.sourceforge.net/DTD/sodipodi-0.dtd"
   xmlns:inkscape="http://www.inkscape.org/namespaces/inkscape"
   inkscape:version="1.0 (4035a4f, 2020-05-01)"
   sodipodi:docname="MrBUMP-icon.svg"
   viewBox="0 0 203.16933 201.77733"
   height="201.77733"
   width="203.16933"
   xml:space="preserve"
   id="svg2772"
   version="1.1"><metadata
     id="metadata2778"><rdf:RDF><cc:Work
         rdf:about=""><dc:format>image/svg+xml</dc:format><dc:type
           rdf:resource="http://purl.org/dc/dcmitype/StillImage" /><dc:title></dc:title></cc:Work></rdf:RDF></metadata><defs
     id="defs2776"><linearGradient
       id="linearGradient3485"
       inkscape:collect="always"><stop
         id="stop3481"
         offset="0"
         style="stop-color:#0ec6e4;stop-opacity:1" /><stop
         id="stop3483"
         offset="1"
         style="stop-color:#dc645f;stop-opacity:1" /></linearGradient><linearGradient
       id="linearGradient2802"
       spreadMethod="pad"
       gradientTransform="matrix(78.67334,0,0,-78.67334,36.582031,50.108887)"
       gradientUnits="userSpaceOnUse"
       y2="0"
       x2="1"
       y1="0"
       x1="0"><stop
         id="stop2796"
         offset="0"
         style="stop-opacity:1;stop-color:#3db6a9" /><stop
         id="stop2798"
         offset="0.04385822"
         style="stop-opacity:1;stop-color:#3db6a9" /><stop
         id="stop2800"
         offset="1"
         style="stop-opacity:1;stop-color:#6ed0ea" /></linearGradient><linearGradient
       id="linearGradient2824"
       spreadMethod="pad"
       gradientTransform="matrix(78.67334,0,0,-78.67334,36.582031,66.29248)"
       gradientUnits="userSpaceOnUse"
       y2="0"
       x2="1"
       y1="0"
       x1="0"><stop
         id="stop2818"
         offset="0"
         style="stop-opacity:1;stop-color:#3db6a9" /><stop
         id="stop2820"
         offset="0.04385822"
         style="stop-opacity:1;stop-color:#3db6a9" /><stop
         id="stop2822"
         offset="1"
         style="stop-opacity:1;stop-color:#6ed0ea" /></linearGradient><linearGradient
       xlink:href="#linearGradient3485"
       id="linearGradient2846"
       spreadMethod="pad"
       gradientTransform="matrix(78.67334,0,0,-78.67334,36.582031,79.48291)"
       gradientUnits="userSpaceOnUse"
       y2="0"
       x2="1"
       y1="0"
       x1="0"><stop
         id="stop2840"
         offset="0"
         style="stop-opacity:1;stop-color:#3db6a9" /><stop
         id="stop2842"
         offset="0.04385822"
         style="stop-opacity:1;stop-color:#3db6a9" /><stop
         id="stop2844"
         offset="1"
         style="stop-opacity:1;stop-color:#6ed0ea" /></linearGradient><linearGradient
       id="linearGradient2868"
       spreadMethod="pad"
       gradientTransform="matrix(78.67334,0,0,-78.67334,36.582031,95.663574)"
       gradientUnits="userSpaceOnUse"
       y2="0"
       x2="1"
       y1="0"
       x1="0"><stop
         id="stop2862"
         offset="0"
         style="stop-opacity:1;stop-color:#3db6a9" /><stop
         id="stop2864"
         offset="0.04385822"
         style="stop-opacity:1;stop-color:#3db6a9" /><stop
         id="stop2866"
         offset="1"
         style="stop-opacity:1;stop-color:#6ed0ea" /></linearGradient><clipPath
       id="clipPath2878"
       clipPathUnits="userSpaceOnUse"><path
         id="path2876"
         d="M 0,151.333 H 152.377 V 0 H 0 Z" /></clipPath><linearGradient
       gradientUnits="userSpaceOnUse"
       y2="95.663581"
       x2="115.256"
       y1="95.663581"
       x1="36.582"
       id="linearGradient3487"
       xlink:href="#linearGradient3485"
       inkscape:collect="always" /><linearGradient
       gradientUnits="userSpaceOnUse"
       y2="79.482498"
       x2="115.256"
       y1="79.482498"
       x1="36.582001"
       id="linearGradient3503"
       xlink:href="#linearGradient3485"
       inkscape:collect="always" /><linearGradient
       gradientUnits="userSpaceOnUse"
       y2="66.292175"
       x2="115.256"
       y1="66.292175"
       x1="36.582001"
       id="linearGradient3511"
       xlink:href="#linearGradient3485"
       inkscape:collect="always" /><linearGradient
       gradientUnits="userSpaceOnUse"
       y2="50.109001"
       x2="115.256"
       y1="50.109001"
       x1="36.582001"
       id="linearGradient3519"
       xlink:href="#linearGradient3485"
       inkscape:collect="always" /></defs><sodipodi:namedview
     inkscape:current-layer="g2780"
     inkscape:window-maximized="1"
     inkscape:window-y="25"
     inkscape:window-x="0"
     inkscape:cy="100.88866"
     inkscape:cx="101.58466"
     inkscape:zoom="3.7318365"
     showgrid="false"
     id="namedview2774"
     inkscape:window-height="928"
     inkscape:window-width="1680"
     inkscape:pageshadow="2"
     inkscape:pageopacity="0"
     guidetolerance="10"
     gridtolerance="10"
     objecttolerance="10"
     borderopacity="1"
     bordercolor="#666666"
     pagecolor="#ffffff" /><g
     transform="matrix(1.3333333,0,0,-1.3333333,0,201.77733)"
     inkscape:label="MrBUMP-icon"
     inkscape:groupmode="layer"
     id="g2780"><path
       id="path2782"
       style="fill:#ffffff;fill-opacity:1;fill-rule:nonzero;stroke:none"
       d="M 0,0 H 152.377 V 151.333 H 0 Z" /><g
       id="g2784"><g
         id="g2786"><g
           id="g2792"><g
             id="g2794"><path
               id="path2804"
               style="fill:url(#linearGradient3519);stroke:none;fill-opacity:1.0"
               d="M 75.918,56.414 C 66.039,54.86 56.161,53.308 46.283,54.4 v 0 1.996 c -1.616,-1.069 -3.232,-2.065 -4.848,-2.979 v 0 c -1.617,-0.92 -3.235,-1.757 -4.853,-2.5 v 0 c 1.618,-1.752 3.236,-3.409 4.853,-4.983 v 0 c 1.616,-1.581 3.232,-3.081 4.848,-4.51 v 0 2.014 c 9.878,-1.092 19.756,0.46 29.635,2.014 v 0 c 13.112,2.061 26.225,4.122 39.338,0 v 0 10.962 c -5.542,1.742 -11.085,2.38 -16.627,2.38 v 0 c -7.571,0 -15.14,-1.19 -22.711,-2.38" /></g></g></g></g><g
       id="g2806"><g
         id="g2808"><g
           id="g2814"><g
             id="g2816"><path
               id="path2826"
               style="fill:url(#linearGradient3511);stroke:none;fill-opacity:1.0"
               d="m 105.551,72.967 c -9.877,1.09 -19.755,-0.463 -29.632,-2.015 v 0 c -13.112,-2.061 -26.225,-4.123 -39.337,0 v 0 -10.95 C 49.694,55.879 62.807,57.94 75.919,60.001 v 0 c 9.877,1.553 19.755,3.105 29.632,2.015 v 0 -2.01 c 1.616,1.068 3.232,2.065 4.847,2.98 v 0 c 1.62,0.918 3.239,1.752 4.858,2.492 v 0 c -1.619,1.756 -3.238,3.416 -4.858,4.995 v 0 c -1.615,1.575 -3.231,3.068 -4.847,4.49 v 0 z" /></g></g></g></g><g
       id="g2828"><g
         id="g2830"><g
           id="g2836"><g
             id="g2838"><path
               id="path2848"
               style="fill:url(#linearGradient3503);stroke:none;fill-opacity:1.0"
               d="M 75.918,85.78 C 66.039,84.227 56.161,82.674 46.283,83.766 v 0 2.003 C 44.667,84.7 43.051,83.702 41.435,82.786 v 0 C 39.818,81.871 38.2,81.04 36.582,80.303 v 0 c 1.618,-1.758 3.236,-3.421 4.853,-5.002 v 0 c 1.616,-1.577 3.232,-3.072 4.848,-4.496 v 0 2.009 c 9.878,-1.091 19.756,0.461 29.635,2.015 v 0 c 13.112,2.061 26.225,4.122 39.338,0 v 0 10.951 c -5.542,1.742 -11.085,2.38 -16.627,2.38 v 0 c -7.571,0 -15.14,-1.19 -22.711,-2.38" /></g></g></g></g><g
       style="fill-opacity:1;fill:url(#linearGradient3487)"
       id="g2850"><g
         style="fill-opacity:1;fill:url(#linearGradient3487)"
         id="g2852"><g
           style="fill-opacity:1;fill:url(#linearGradient3487)"
           id="g2858"><g
             style="fill-opacity:1;fill:url(#linearGradient3487)"
             id="g2860"><path
               id="path2870"
               style="fill:url(#linearGradient3487);stroke:none;fill-opacity:1"
               d="m 105.551,102.335 c -9.877,1.09 -19.755,-0.462 -29.632,-2.015 v 0 C 62.807,98.259 49.694,96.198 36.582,100.321 v 0 -10.955 c 13.112,-4.122 26.225,-2.061 39.337,0 v 0 c 9.877,1.553 19.755,3.105 29.632,2.016 v 0 -2.008 c 1.616,1.071 3.232,2.072 4.847,2.99 v 0 c 1.62,0.915 3.239,1.746 4.858,2.483 v 0 c -1.619,1.758 -3.238,3.422 -4.858,5.004 v 0 c -1.615,1.575 -3.231,3.068 -4.847,4.49 v 0 z" /></g></g></g></g><g
       id="g2872"><g
         clip-path="url(#clipPath2878)"
         id="g2874"><g
           transform="translate(62.5361,46.959)"
           id="g2880"><path
             id="path2882"
             style="fill:#353537;fill-opacity:1;fill-rule:nonzero;stroke:none"
             d="m 0,0 c 0,0 0.256,-1.832 2.838,-2.763 2.581,-0.919 6.994,-1.99 12.551,-2.32 5.563,-0.319 13.576,-0.911 17.83,-2.291 4.266,-1.376 4.29,-1.562 5.441,-2.354 1.138,-0.803 1.359,-2.614 1.359,-2.614 l 0.895,-5.05 1.311,-7.358 c 0,0 -0.229,1.812 -1.371,2.612 -1.139,0.804 -1.172,0.982 -5.426,2.363 -4.263,1.374 -12.267,1.955 -17.845,2.294 -5.563,0.329 -9.963,1.397 -12.545,2.325 -2.581,0.921 -2.841,2.758 -2.841,2.758 z" /></g><g
           transform="translate(62.5361,46.959)"
           id="g2884"><path
             id="path2886"
             style="fill:none;stroke:#ffffff;stroke-width:2.039;stroke-linecap:butt;stroke-linejoin:miter;stroke-miterlimit:10;stroke-dasharray:none;stroke-opacity:1"
             d="m 0,0 c 0,0 0.256,-1.832 2.838,-2.763 2.581,-0.919 6.994,-1.99 12.551,-2.32 5.563,-0.319 13.576,-0.911 17.83,-2.291 4.266,-1.376 4.29,-1.562 5.441,-2.354 1.138,-0.803 1.359,-2.614 1.359,-2.614 l 0.895,-5.05 1.311,-7.358 c 0,0 -0.229,1.812 -1.371,2.612 -1.139,0.804 -1.172,0.982 -5.426,2.363 -4.263,1.374 -12.267,1.955 -17.845,2.294 -5.563,0.329 -9.963,1.397 -12.545,2.325 -2.581,0.921 -2.841,2.758 -2.841,2.758 z" /></g><g
           transform="translate(49.3115,121.5781)"
           id="g2888"><path
             id="path2890"
             style="fill:#353537;fill-opacity:1;fill-rule:nonzero;stroke:none"
             d="m 0,0 c 0,0 0.253,-1.848 2.829,-2.764 2.585,-0.925 7,-1.985 12.554,-2.315 5.572,-0.335 13.576,-0.919 17.827,-2.299 4.269,-1.376 4.311,-1.561 5.45,-2.359 1.132,-0.794 1.365,-2.614 1.365,-2.614 l 0.894,-5.041 1.306,-7.362 c 0,0 -0.226,1.808 -1.371,2.616 -1.139,0.79 -1.175,0.974 -5.437,2.359 -4.258,1.372 -12.253,1.964 -17.834,2.284 -5.563,0.338 -9.96,1.406 -12.551,2.329 -2.57,0.922 -2.838,2.758 -2.838,2.758 z" /></g><g
           transform="translate(49.3115,121.5781)"
           id="g2892"><path
             id="path2894"
             style="fill:none;stroke:#ffffff;stroke-width:2.039;stroke-linecap:butt;stroke-linejoin:miter;stroke-miterlimit:10;stroke-dasharray:none;stroke-opacity:1"
             d="m 0,0 c 0,0 0.253,-1.848 2.829,-2.764 2.585,-0.925 7,-1.985 12.554,-2.315 5.572,-0.335 13.576,-0.919 17.827,-2.299 4.269,-1.376 4.311,-1.561 5.45,-2.359 1.132,-0.794 1.365,-2.614 1.365,-2.614 l 0.894,-5.041 1.306,-7.362 c 0,0 -0.226,1.808 -1.371,2.616 -1.139,0.79 -1.175,0.974 -5.437,2.359 -4.258,1.372 -12.253,1.964 -17.834,2.284 -5.563,0.338 -9.96,1.406 -12.551,2.329 -2.57,0.922 -2.838,2.758 -2.838,2.758 z" /></g><g
           transform="translate(55.9297,84.1719)"
           id="g2896"><path
             id="path2898"
             style="fill:#353537;fill-opacity:1;fill-rule:nonzero;stroke:none"
             d="m 0,0 c 0,0 0.262,-1.832 2.844,-2.761 2.582,-0.919 6.994,-1.988 12.557,-2.316 5.569,-0.325 13.576,-0.917 17.827,-2.293 4.263,-1.384 4.293,-1.557 5.438,-2.358 1.145,-0.806 1.371,-2.614 1.371,-2.614 l 0.895,-5.05 1.299,-7.358 c 0,0 -0.214,1.816 -1.365,2.616 -1.145,0.803 -1.175,0.982 -5.426,2.363 -4.263,1.374 -12.27,1.96 -17.845,2.285 -5.563,0.334 -9.972,1.413 -12.557,2.331 -2.576,0.92 -2.832,2.756 -2.832,2.756 z" /></g><g
           transform="translate(55.9297,84.1719)"
           id="g2900"><path
             id="path2902"
             style="fill:none;stroke:#ffffff;stroke-width:2.039;stroke-linecap:butt;stroke-linejoin:miter;stroke-miterlimit:10;stroke-dasharray:none;stroke-opacity:1"
             d="m 0,0 c 0,0 0.262,-1.832 2.844,-2.761 2.582,-0.919 6.994,-1.988 12.557,-2.316 5.569,-0.325 13.576,-0.917 17.827,-2.293 4.263,-1.384 4.293,-1.557 5.438,-2.358 1.145,-0.806 1.371,-2.614 1.371,-2.614 l 0.895,-5.05 1.299,-7.358 c 0,0 -0.214,1.816 -1.365,2.616 -1.145,0.803 -1.175,0.982 -5.426,2.363 -4.263,1.374 -12.27,1.96 -17.845,2.285 -5.563,0.334 -9.972,1.413 -12.557,2.331 -2.576,0.92 -2.832,2.756 -2.832,2.756 z" /></g><g
           transform="translate(58.0044,72.5361)"
           id="g2904"><path
             id="path2906"
             style="fill:#353537;fill-opacity:1;fill-rule:nonzero;stroke:none"
             d="m 0,0 c 0,0 -0.394,1.808 1.714,3.572 2.102,1.745 5.882,4.267 10.986,6.494 5.128,2.212 12.438,5.523 15.961,8.28 3.527,2.758 3.482,2.937 4.287,4.085 0.805,1.137 0.394,2.92 0.394,2.92 l -0.898,5.054 -1.314,7.356 c 0,0 0.423,-1.777 -0.373,-2.918 -0.802,-1.147 -0.772,-1.331 -4.296,-4.092 -3.515,-2.754 -10.842,-6.065 -15.955,-8.288 -5.11,-2.215 -8.884,-4.737 -10.995,-6.488 -2.104,-1.758 -1.714,-3.57 -1.714,-3.57 z" /></g><g
           transform="translate(58.0044,72.5361)"
           id="g2908"><path
             id="path2910"
             style="fill:none;stroke:#ffffff;stroke-width:2.039;stroke-linecap:butt;stroke-linejoin:miter;stroke-miterlimit:10;stroke-dasharray:none;stroke-opacity:1"
             d="m 0,0 c 0,0 -0.394,1.808 1.714,3.572 2.102,1.745 5.882,4.267 10.986,6.494 5.128,2.212 12.438,5.523 15.961,8.28 3.527,2.758 3.482,2.937 4.287,4.085 0.805,1.137 0.394,2.92 0.394,2.92 l -0.898,5.054 -1.314,7.356 c 0,0 0.423,-1.777 -0.373,-2.918 -0.802,-1.147 -0.772,-1.331 -4.296,-4.092 -3.515,-2.754 -10.842,-6.065 -15.955,-8.288 -5.11,-2.215 -8.884,-4.737 -10.995,-6.488 -2.104,-1.758 -1.714,-3.57 -1.714,-3.57 z" /></g><g
           transform="translate(64.6587,34.9839)"
           id="g2912"><path
             id="path2914"
             style="fill:#353537;fill-opacity:1;fill-rule:nonzero;stroke:none"
             d="m 0,0 c 0,0 -0.394,1.824 1.711,3.57 2.111,1.754 5.891,4.273 11,6.496 5.116,2.215 12.426,5.53 15.95,8.276 3.529,2.767 3.488,2.95 4.305,4.082 0.793,1.159 0.375,2.934 0.375,2.934 l -0.888,5.053 -1.318,7.347 c 0,0 0.418,-1.769 -0.375,-2.917 C 29.961,33.695 29.987,33.51 26.467,30.745 22.949,28 15.621,24.7 10.505,22.469 5.393,20.239 1.627,17.728 -0.489,15.97 -2.588,14.223 -2.197,12.391 -2.197,12.391 Z" /></g><g
           transform="translate(64.6587,34.9839)"
           id="g2916"><path
             id="path2918"
             style="fill:none;stroke:#ffffff;stroke-width:2.039;stroke-linecap:butt;stroke-linejoin:miter;stroke-miterlimit:10;stroke-dasharray:none;stroke-opacity:1"
             d="m 0,0 c 0,0 -0.394,1.824 1.711,3.57 2.111,1.754 5.891,4.273 11,6.496 5.116,2.215 12.426,5.53 15.95,8.276 3.529,2.767 3.488,2.95 4.305,4.082 0.793,1.159 0.375,2.934 0.375,2.934 l -0.888,5.053 -1.318,7.347 c 0,0 0.418,-1.769 -0.375,-2.917 C 29.961,33.695 29.987,33.51 26.467,30.745 22.949,28 15.621,24.7 10.505,22.469 5.393,20.239 1.627,17.728 -0.489,15.97 -2.588,14.223 -2.197,12.391 -2.197,12.391 Z" /></g></g></g></g></svg>
