<?xml version="1.0" encoding="UTF-8" standalone="no"?>
<svg
   xmlns:dc="http://purl.org/dc/elements/1.1/"
   xmlns:cc="http://creativecommons.org/ns#"
   xmlns:rdf="http://www.w3.org/1999/02/22-rdf-syntax-ns#"
   xmlns:svg="http://www.w3.org/2000/svg"
   xmlns="http://www.w3.org/2000/svg"
   xmlns:xlink="http://www.w3.org/1999/xlink"
   xmlns:sodipodi="http://sodipodi.sourceforge.net/DTD/sodipodi-0.dtd"
   xmlns:inkscape="http://www.inkscape.org/namespaces/inkscape"
   sodipodi:docname="MrParse-logo-tight.svg"
   viewBox="0 0 536.59198 132.967"
   height="132.967"
   width="536.59198"
   xml:space="preserve"
   id="svg2"
   version="1.1"
   inkscape:version="1.0 (4035a4f, 2020-05-01)"><metadata
     id="metadata8"><rdf:RDF><cc:Work
         rdf:about=""><dc:format>image/svg+xml</dc:format><dc:type
           rdf:resource="http://purl.org/dc/dcmitype/StillImage" /><dc:title></dc:title></cc:Work></rdf:RDF></metadata><defs
     id="defs6"><linearGradient
       id="linearGradient951"
       inkscape:collect="always"><stop
         id="stop947"
         offset="0"
         style="stop-color:#0ec6e4;stop-opacity:1" /><stop
         id="stop949"
         offset="1"
         style="stop-color:#dc645f;stop-opacity:1" /></linearGradient><linearGradient
       inkscape:collect="always"
       id="linearGradient935"><stop
         style="stop-color:#ce241a;stop-opacity:1"
         offset="0"
         id="stop931" /><stop
         style="stop-color:#008080;stop-opacity:1"
         offset="1"
         id="stop933" /></linearGradient><linearGradient
       x1="0"
       y1="0"
       x2="1"
       y2="0"
       gradientUnits="userSpaceOnUse"
       gradientTransform="matrix(78.67334,0,0,-78.67334,43.089844,58.135742)"
       spreadMethod="pad"
       id="linearGradient36"><stop
         style="stop-opacity:1;stop-color:#00b0ab"
         offset="0"
         id="stop30" /><stop
         style="stop-opacity:1;stop-color:#00b0ab"
         offset="0.04385822"
         id="stop32" /><stop
         style="stop-opacity:1;stop-color:#59c9e8"
         offset="1"
         id="stop34" /></linearGradient><linearGradient
       x1="0"
       y1="0"
       x2="1"
       y2="0"
       gradientUnits="userSpaceOnUse"
       gradientTransform="matrix(78.67334,0,0,-78.67334,43.089844,74.318359)"
       spreadMethod="pad"
       id="linearGradient58"
       xlink:href="#linearGradient951"><stop
         style="stop-opacity:1;stop-color:#00b0ab"
         offset="0"
         id="stop52" /><stop
         style="stop-opacity:1;stop-color:#00b0ab"
         offset="0.04385822"
         id="stop54" /><stop
         style="stop-opacity:1;stop-color:#59c9e8"
         offset="1"
         id="stop56" /></linearGradient><linearGradient
       x1="0"
       y1="0"
       x2="1"
       y2="0"
       gradientUnits="userSpaceOnUse"
       gradientTransform="matrix(78.67334,0,0,-78.67334,43.089844,87.508789)"
       spreadMethod="pad"
       id="linearGradient80"
       xlink:href="#linearGradient935"><stop
         style="stop-opacity:1;stop-color:#00b0ab"
         offset="0"
         id="stop74" /><stop
         style="stop-opacity:1;stop-color:#00b0ab"
         offset="0.04385822"
         id="stop76" /><stop
         style="stop-opacity:1;stop-color:#59c9e8"
         offset="1"
         id="stop78" /></linearGradient><linearGradient
       x1="0"
       y1="0"
       x2="1"
       y2="0"
       gradientUnits="userSpaceOnUse"
       gradientTransform="matrix(78.67334,0,0,-78.67334,43.089844,103.68994)"
       spreadMethod="pad"
       id="linearGradient102"><stop
         style="stop-opacity:1;stop-color:#00b0ab"
         offset="0"
         id="stop96" /><stop
         style="stop-opacity:1;stop-color:#00b0ab"
         offset="0.04385822"
         id="stop98" /><stop
         style="stop-opacity:1;stop-color:#59c9e8"
         offset="1"
         id="stop100" /></linearGradient><clipPath
       clipPathUnits="userSpaceOnUse"
       id="clipPath112"><path
         d="M 0,170.597 H 482.581 V 0 H 0 Z"
         id="path110" /></clipPath><linearGradient
       inkscape:collect="always"
       xlink:href="#linearGradient951"
       id="linearGradient937"
       x1="43.09"
       y1="103.69018"
       x2="121.763"
       y2="103.69018"
       gradientUnits="userSpaceOnUse" /><linearGradient
       inkscape:collect="always"
       xlink:href="#linearGradient951"
       id="linearGradient945"
       x1="43.09"
       y1="87.509003"
       x2="121.763"
       y2="87.509003"
       gradientUnits="userSpaceOnUse" /><linearGradient
       inkscape:collect="always"
       xlink:href="#linearGradient951"
       id="linearGradient959"
       x1="43.09"
       y1="74.318214"
       x2="121.763"
       y2="74.318214"
       gradientUnits="userSpaceOnUse" /><linearGradient
       inkscape:collect="always"
       xlink:href="#linearGradient951"
       id="linearGradient967"
       x1="43.09"
       y1="58.135502"
       x2="121.763"
       y2="58.135502"
       gradientUnits="userSpaceOnUse" /><clipPath
       id="clipPath112-3"
       clipPathUnits="userSpaceOnUse"><path
         id="path110-5"
         d="M 0,170.597 H 482.581 V 0 H 0 Z" /></clipPath><clipPath
       id="clipPath112-35"
       clipPathUnits="userSpaceOnUse"><path
         id="path110-8"
         d="M 0,170.597 H 482.581 V 0 H 0 Z" /></clipPath><clipPath
       id="clipPath112-9"
       clipPathUnits="userSpaceOnUse"><path
         id="path110-0"
         d="M 0,170.597 H 482.581 V 0 H 0 Z" /></clipPath><linearGradient
       y2="103.69018"
       x2="121.763"
       y1="103.69018"
       x1="43.09"
       gradientUnits="userSpaceOnUse"
       id="linearGradient1324"
       xlink:href="#linearGradient951"
       inkscape:collect="always" /><linearGradient
       y2="103.69018"
       x2="121.763"
       y1="103.69018"
       x1="43.09"
       gradientUnits="userSpaceOnUse"
       id="linearGradient1326"
       xlink:href="#linearGradient951"
       inkscape:collect="always" /><linearGradient
       y2="103.69018"
       x2="121.763"
       y1="103.69018"
       x1="43.09"
       gradientUnits="userSpaceOnUse"
       id="linearGradient1328"
       xlink:href="#linearGradient951"
       inkscape:collect="always" /></defs><sodipodi:namedview
     pagecolor="#ffffff"
     bordercolor="#666666"
     borderopacity="1"
     objecttolerance="10"
     gridtolerance="10"
     guidetolerance="10"
     inkscape:pageopacity="0"
     inkscape:pageshadow="2"
     inkscape:window-width="2560"
     inkscape:window-height="1296"
     id="namedview4"
     inkscape:document-rotation="0"
     showgrid="false"
     inkscape:zoom="1.7996978"
     inkscape:cx="321.72067"
     inkscape:cy="135.95729"
     inkscape:window-x="0"
     inkscape:window-y="25"
     inkscape:window-maximized="1"
     inkscape:current-layer="g10"
     inkscape:snap-text-baseline="false" /><g
     id="g10"
     inkscape:groupmode="layer"
     inkscape:label="MrBUMP-logo"
     transform="matrix(1.3333333,0,0,-1.3333333,0,227.46267)"><path
       d="M 0,70.871758 H 402.44375 V 170.59701 H 0 Z"
       style="fill:#ffffff;fill-opacity:1;fill-rule:nonzero;stroke:none;stroke-width:0.698212"
       id="path12" /><g
       aria-label="MrParse"
       transform="matrix(1,0,0,-1,96.792671,92.591891)"
       id="text16"
       style="font-variant:normal;font-weight:normal;font-stretch:normal;font-size:75.4439px;font-family:Young;-inkscape-font-specification:Young;writing-mode:lr-tb;fill:#3b3b3d;fill-opacity:1;fill-rule:nonzero;stroke:none"><path
         d="m 183.24757,0 h -6.88868 v -4.3837032 q -0.92094,0.6262433 -2.50497,1.7682164 -1.54719,1.1051353 -3.0207,1.76821643 Q 169.10184,0 166.85473,0.55256763 q -2.24711,0.58940547 -5.26781,0.58940547 -5.56252,0 -9.43049,-3.6837842 -3.86797,-3.6837843 -3.86797,-9.3936499 0,-4.678406 1.98924,-7.551758 2.02608,-2.910189 5.7467,-4.567892 3.75746,-1.657703 9.02528,-2.247108 5.26781,-0.589406 11.30921,-0.884109 v -1.068297 q 0,-2.357622 -0.84727,-3.904811 -0.81043,-1.54719 -2.35762,-2.431298 -1.47351,-0.84727 -3.53643,-1.141973 -2.06292,-0.294703 -4.31003,-0.294703 -2.726,0 -6.07824,0.736757 -3.35225,0.699919 -6.92552,2.062919 h -0.36838 v -7.036028 q 2.02608,-0.552567 5.85722,-1.215648 3.83114,-0.663082 7.55176,-0.663082 4.34686,0 7.55176,0.736757 3.24173,0.699919 5.59935,2.431298 2.32078,1.694541 3.53643,4.383703 1.21565,2.689163 1.21565,6.66765 z m -6.88868,-10.130407 v -11.456569 q -3.16805,0.18419 -7.47808,0.552568 -4.27319,0.368378 -6.77816,1.068297 -2.98387,0.847271 -4.82576,2.652325 -1.84189,1.768217 -1.84189,4.899433 0,3.536433 2.13659,5.3414873 2.1366,1.7682164 6.5203,1.7682164 3.64695,0 6.66765,-1.399838 3.0207,-1.4366759 5.59935,-3.4259197 z"
         id="path1300" /><path
         d="m 258.32308,-11.861785 q 0,5.6361896 -4.67841,9.2462982 -4.64156,3.61010854 -12.70905,3.61010854 -4.56789,0 -8.39903,-1.06829742 -3.7943,-1.10513532 -6.37295,-2.39445972 V -10.24092 h 0.36838 q 3.27857,2.4681353 7.29389,3.941649 4.01533,1.4366758 7.69911,1.4366758 4.5679,0 7.14655,-1.4735137 2.57864,-1.4735137 2.57864,-4.6415681 0,-2.431298 -1.39983,-3.683784 -1.39984,-1.252487 -5.37833,-2.136595 -1.47351,-0.331541 -3.86797,-0.773595 -2.35762,-0.442054 -4.31003,-0.957784 -5.41516,-1.436676 -7.69911,-4.199514 -2.24711,-2.799676 -2.24711,-6.851838 0,-2.541811 1.03146,-4.78892 1.0683,-2.247108 3.20489,-4.015325 2.06292,-1.731378 5.23098,-2.726 3.20489,-1.03146 7.14654,-1.03146 3.68378,0 7.44124,0.920946 3.7943,0.884109 6.29927,2.173433 v 7.404406 h -0.36837 q -2.65233,-1.952405 -6.44663,-3.278568 -3.79429,-1.363 -7.44124,-1.363 -3.7943,0 -6.40978,1.473514 -2.61549,1.436676 -2.61549,4.310028 0,2.541811 1.58403,3.831135 1.54718,1.289325 5.00994,2.099757 1.91557,0.442054 4.27319,0.884108 2.39446,0.442054 3.97849,0.810433 4.82576,1.105135 7.44124,3.794298 2.61549,2.726 2.61549,7.220217 z"
         id="path1304" /><path
         d="m 302.7127,-19.855597 h -30.31755 q 0,3.794298 1.14198,6.630812 1.14197,2.799676 3.13121,4.6047299 1.91557,1.7682164 4.53106,2.6523246 2.65232,0.8841083 5.82038,0.8841083 4.19951,0 8.43586,-1.6577029 4.27319,-1.6945408 6.07825,-3.3154059 h 0.36838 v 7.5517577 q -3.4996,1.4735137 -7.14655,2.46813546 -3.64694,0.99462174 -7.66227,0.99462174 -10.24092,0 -15.98762,-5.5256763 -5.7467,-5.5625146 -5.7467,-15.7665966 0,-10.093569 5.48883,-16.024461 5.52568,-5.930893 14.51411,-5.930893 8.32536,0 12.81957,4.862595 4.53106,4.862595 4.53106,13.814191 z m -6.74133,-5.304649 q -0.0368,-5.452001 -2.76283,-8.435866 -2.68917,-2.983865 -8.21484,-2.983865 -5.56252,0 -8.87792,3.278568 -3.27857,3.278568 -3.72063,8.141163 z"
         id="path1306" /><path
         style="font-variant:normal;font-weight:normal;font-stretch:normal;font-size:75.4439px;font-family:Young;-inkscape-font-specification:Young;writing-mode:lr-tb;opacity:1;fill:#3b3b3d;fill-opacity:1;fill-rule:nonzero;stroke:none;stroke-width:1.06662"
         d="m 58.816178,-0.132291 h -7.941622 v -42.74095 l -18.709279,30.249455 -18.80302,-30.327125 v 42.740957 l -7.73084,0.07766 -0.0777,-57.080717 h 7.56306 l 18.95678,30.666801 18.901301,-30.666802 h 7.763618 z"
         id="path1294-2"
         sodipodi:nodetypes="ccccccccccccc" /></g><g
       transform="translate(-40.586229,40.814991)"
       id="g18"><g
         id="g20"><g
           id="g26"><g
             id="g28"><path
               d="M 82.426,64.44 C 72.548,62.887 62.669,61.335 52.79,62.427 v 0 1.995 c -1.615,-1.068 -3.231,-2.065 -4.847,-2.979 v 0 c -1.618,-0.92 -3.235,-1.757 -4.853,-2.5 v 0 c 1.618,-1.751 3.235,-3.408 4.853,-4.983 v 0 c 1.616,-1.582 3.232,-3.08 4.847,-4.509 v 0 2.014 c 9.879,-1.092 19.758,0.461 29.637,2.013 v 0 c 13.113,2.061 26.224,4.122 39.336,10e-4 v 0 10.961 c -5.541,1.742 -11.084,2.38 -16.626,2.38 v 0 c -7.571,0 -15.14,-1.19 -22.711,-2.38"
               style="fill:url(#linearGradient967);fill-opacity:1;stroke:none"
               id="path38" /></g></g></g></g><g
       transform="translate(-40.586229,40.814991)"
       id="g40"><g
         id="g42"><g
           id="g48"><g
             id="g50"><path
               d="m 112.059,80.993 c -9.877,1.09 -19.755,-0.463 -29.633,-2.015 v 0 c -13.112,-2.061 -26.224,-4.122 -39.336,0 v 0 -10.95 c 13.112,-4.123 26.224,-2.062 39.336,0 v 0 c 9.878,1.553 19.756,3.105 29.633,2.015 v 0 -2.011 c 1.615,1.068 3.232,2.065 4.847,2.982 v 0 c 1.619,0.916 3.239,1.75 4.857,2.491 v 0 c -1.618,1.755 -3.238,3.415 -4.857,4.994 v 0 c -1.615,1.575 -3.232,3.068 -4.847,4.49 v 0 z"
               style="fill:url(#linearGradient959);fill-opacity:1;stroke:none"
               id="path60" /></g></g></g></g><g
       transform="translate(-40.586229,40.814991)"
       id="g62"><g
         id="g64"><g
           id="g70"><g
             id="g72"><path
               d="M 82.427,93.806 C 72.548,92.254 62.669,90.701 52.79,91.793 v 0 2.003 c -1.615,-1.069 -3.231,-2.068 -4.847,-2.984 v 0 C 46.325,89.898 44.708,89.066 43.09,88.329 v 0 c 1.618,-1.758 3.235,-3.421 4.853,-5.002 v 0 c 1.616,-1.576 3.232,-3.071 4.847,-4.495 v 0 2.009 c 9.879,-1.092 19.757,0.46 29.636,2.014 v 0 c 13.112,2.061 26.225,4.122 39.337,0 v 0 10.952 c -5.541,1.742 -11.083,2.379 -16.624,2.379 v 0 c -7.57,0 -15.141,-1.19 -22.712,-2.38"
               style="fill:url(#linearGradient945);fill-opacity:1;stroke:none"
               id="path82" /></g></g></g></g><g
       transform="translate(-40.586229,40.814991)"
       id="g84"><g
         id="g86"
         style="fill:url(#linearGradient937);fill-opacity:1;stroke-width:1.00063;stroke-miterlimit:4;stroke-dasharray:none"><g
           id="g92"
           style="fill:url(#linearGradient1328);fill-opacity:1;stroke-width:1.00063;stroke-miterlimit:4;stroke-dasharray:none"><g
             id="g94"
             style="fill:url(#linearGradient1326);fill-opacity:1;stroke-width:1.00063;stroke-miterlimit:4;stroke-dasharray:none"><path
               d="m 112.059,110.362 c -9.877,1.09 -19.755,-0.463 -29.632,-2.016 v 0 c -13.113,-2.06 -26.225,-4.121 -39.337,10e-4 v 0 -10.953 c 13.112,-4.123 26.224,-2.062 39.337,-0.001 v 0 c 9.877,1.552 19.755,3.105 29.632,2.015 v 0 -2.007 c 1.615,1.072 3.232,2.072 4.847,2.99 v 0 c 1.619,0.914 3.239,1.746 4.857,2.483 v 0 c -1.618,1.758 -3.238,3.421 -4.857,5.003 v 0 c -1.615,1.575 -3.232,3.068 -4.847,4.49 v 0 z"
               style="fill:url(#linearGradient1324);fill-opacity:1;stroke:none;stroke-width:1.00063;stroke-miterlimit:4;stroke-dasharray:none"
               id="path104" /></g></g></g></g><g
       transform="translate(-40.586229,40.814991)"
       id="g106"><g
         id="g108"
         clip-path="url(#clipPath112)"><g
           id="g114"
           transform="translate(69.0439,54.9854)"><path
             d="m 0,0 c 0,0 0.256,-1.832 2.838,-2.763 2.581,-0.919 6.994,-1.99 12.551,-2.32 5.563,-0.319 13.576,-0.911 17.83,-2.291 4.266,-1.376 4.29,-1.562 5.441,-2.354 1.138,-0.803 1.359,-2.614 1.359,-2.614 l 0.895,-5.05 1.311,-7.358 c 0,0 -0.229,1.812 -1.371,2.612 -1.139,0.804 -1.172,0.982 -5.426,2.363 -4.263,1.374 -12.267,1.955 -17.845,2.294 -5.563,0.329 -9.963,1.397 -12.545,2.325 -2.581,0.921 -2.841,2.758 -2.841,2.758 z"
             style="fill:#3a3b3d;fill-opacity:1;fill-rule:nonzero;stroke:none"
             id="path116" /></g><g
           id="g118"
           transform="translate(69.0439,54.9854)"><path
             d="m 0,0 c 0,0 0.256,-1.832 2.838,-2.763 2.581,-0.919 6.994,-1.99 12.551,-2.32 5.563,-0.319 13.576,-0.911 17.83,-2.291 4.266,-1.376 4.29,-1.562 5.441,-2.354 1.138,-0.803 1.359,-2.614 1.359,-2.614 l 0.895,-5.05 1.311,-7.358 c 0,0 -0.229,1.812 -1.371,2.612 -1.139,0.804 -1.172,0.982 -5.426,2.363 -4.263,1.374 -12.267,1.955 -17.845,2.294 -5.563,0.329 -9.963,1.397 -12.545,2.325 -2.581,0.921 -2.841,2.758 -2.841,2.758 z"
             style="fill:none;stroke:#ffffff;stroke-width:2.039;stroke-linecap:butt;stroke-linejoin:miter;stroke-miterlimit:10;stroke-dasharray:none;stroke-opacity:1"
             id="path120" /></g><g
           id="g122"
           transform="translate(55.8193,129.6045)"><path
             d="m 0,0 c 0,0 0.253,-1.848 2.829,-2.764 2.585,-0.925 7,-1.985 12.554,-2.315 5.572,-0.335 13.576,-0.919 17.827,-2.299 4.269,-1.376 4.311,-1.561 5.45,-2.359 1.132,-0.794 1.365,-2.614 1.365,-2.614 l 0.894,-5.041 1.306,-7.362 c 0,0 -0.226,1.808 -1.371,2.616 -1.139,0.79 -1.175,0.974 -5.437,2.359 -4.258,1.372 -12.253,1.964 -17.834,2.284 -5.563,0.338 -9.96,1.406 -12.551,2.329 -2.57,0.922 -2.838,2.758 -2.838,2.758 z"
             style="fill:#3a3b3d;fill-opacity:1;fill-rule:nonzero;stroke:none"
             id="path124" /></g><g
           id="g126"
           transform="translate(55.8193,129.6045)"><path
             d="m 0,0 c 0,0 0.253,-1.848 2.829,-2.764 2.585,-0.925 7,-1.985 12.554,-2.315 5.572,-0.335 13.576,-0.919 17.827,-2.299 4.269,-1.376 4.311,-1.561 5.45,-2.359 1.132,-0.794 1.365,-2.614 1.365,-2.614 l 0.894,-5.041 1.306,-7.362 c 0,0 -0.226,1.808 -1.371,2.616 -1.139,0.79 -1.175,0.974 -5.437,2.359 -4.258,1.372 -12.253,1.964 -17.834,2.284 -5.563,0.338 -9.96,1.406 -12.551,2.329 -2.57,0.922 -2.838,2.758 -2.838,2.758 z"
             style="fill:none;stroke:#ffffff;stroke-width:2.039;stroke-linecap:butt;stroke-linejoin:miter;stroke-miterlimit:10;stroke-dasharray:none;stroke-opacity:1"
             id="path128" /></g><g
           id="g130"
           transform="translate(62.4375,92.1982)"><path
             d="m 0,0 c 0,0 0.262,-1.832 2.844,-2.761 2.582,-0.919 6.994,-1.988 12.557,-2.316 5.569,-0.325 13.576,-0.917 17.827,-2.293 4.263,-1.384 4.293,-1.557 5.438,-2.358 1.145,-0.806 1.371,-2.614 1.371,-2.614 l 0.895,-5.05 1.299,-7.358 c 0,0 -0.214,1.816 -1.365,2.616 -1.145,0.803 -1.175,0.982 -5.426,2.363 -4.263,1.374 -12.27,1.96 -17.845,2.285 -5.563,0.334 -9.972,1.413 -12.557,2.331 -2.576,0.92 -2.832,2.756 -2.832,2.756 z"
             style="fill:#3a3b3d;fill-opacity:1;fill-rule:nonzero;stroke:none"
             id="path132" /></g><g
           id="g134"
           transform="translate(62.4375,92.1982)"><path
             d="m 0,0 c 0,0 0.262,-1.832 2.844,-2.761 2.582,-0.919 6.994,-1.988 12.557,-2.316 5.569,-0.325 13.576,-0.917 17.827,-2.293 4.263,-1.384 4.293,-1.557 5.438,-2.358 1.145,-0.806 1.371,-2.614 1.371,-2.614 l 0.895,-5.05 1.299,-7.358 c 0,0 -0.214,1.816 -1.365,2.616 -1.145,0.803 -1.175,0.982 -5.426,2.363 -4.263,1.374 -12.27,1.96 -17.845,2.285 -5.563,0.334 -9.972,1.413 -12.557,2.331 -2.576,0.92 -2.832,2.756 -2.832,2.756 z"
             style="fill:none;stroke:#ffffff;stroke-width:2.039;stroke-linecap:butt;stroke-linejoin:miter;stroke-miterlimit:10;stroke-dasharray:none;stroke-opacity:1"
             id="path136" /></g><g
           id="g138"
           transform="translate(64.5122,80.5625)"><path
             d="m 0,0 c 0,0 -0.394,1.808 1.714,3.572 2.102,1.745 5.882,4.267 10.986,6.494 5.128,2.212 12.438,5.523 15.961,8.28 3.527,2.758 3.482,2.937 4.287,4.085 0.805,1.137 0.394,2.92 0.394,2.92 l -0.898,5.054 -1.314,7.356 c 0,0 0.423,-1.777 -0.373,-2.918 -0.802,-1.147 -0.772,-1.331 -4.296,-4.092 -3.515,-2.754 -10.842,-6.065 -15.955,-8.288 -5.11,-2.215 -8.884,-4.737 -10.995,-6.488 -2.104,-1.758 -1.714,-3.57 -1.714,-3.57 z"
             style="fill:#3a3b3d;fill-opacity:1;fill-rule:nonzero;stroke:none"
             id="path140" /></g><g
           id="g142"
           transform="translate(64.5122,80.5625)"><path
             d="m 0,0 c 0,0 -0.394,1.808 1.714,3.572 2.102,1.745 5.882,4.267 10.986,6.494 5.128,2.212 12.438,5.523 15.961,8.28 3.527,2.758 3.482,2.937 4.287,4.085 0.805,1.137 0.394,2.92 0.394,2.92 l -0.898,5.054 -1.314,7.356 c 0,0 0.423,-1.777 -0.373,-2.918 -0.802,-1.147 -0.772,-1.331 -4.296,-4.092 -3.515,-2.754 -10.842,-6.065 -15.955,-8.288 -5.11,-2.215 -8.884,-4.737 -10.995,-6.488 -2.104,-1.758 -1.714,-3.57 -1.714,-3.57 z"
             style="fill:none;stroke:#ffffff;stroke-width:2.039;stroke-linecap:butt;stroke-linejoin:miter;stroke-miterlimit:10;stroke-dasharray:none;stroke-opacity:1"
             id="path144" /></g><g
           id="g146"
           transform="translate(71.1665,43.0103)"><path
             d="m 0,0 c 0,0 -0.394,1.824 1.711,3.57 2.111,1.754 5.891,4.273 11,6.496 5.116,2.215 12.426,5.53 15.95,8.276 3.529,2.767 3.488,2.95 4.305,4.082 0.793,1.159 0.375,2.934 0.375,2.934 l -0.888,5.053 -1.318,7.347 c 0,0 0.418,-1.769 -0.375,-2.917 C 29.961,33.695 29.987,33.51 26.467,30.745 22.949,28 15.621,24.7 10.505,22.469 5.393,20.239 1.627,17.728 -0.489,15.97 -2.588,14.223 -2.197,12.391 -2.197,12.391 Z"
             style="fill:#3a3b3d;fill-opacity:1;fill-rule:nonzero;stroke:none"
             id="path148" /></g><g
           id="g150"
           transform="translate(71.1665,43.0103)"><path
             d="m 0,0 c 0,0 -0.394,1.824 1.711,3.57 2.111,1.754 5.891,4.273 11,6.496 5.116,2.215 12.426,5.53 15.95,8.276 3.529,2.767 3.488,2.95 4.305,4.082 0.793,1.159 0.375,2.934 0.375,2.934 l -0.888,5.053 -1.318,7.347 c 0,0 0.418,-1.769 -0.375,-2.917 C 29.961,33.695 29.987,33.51 26.467,30.745 22.949,28 15.621,24.7 10.505,22.469 5.393,20.239 1.627,17.728 -0.489,15.97 -2.588,14.223 -2.197,12.391 -2.197,12.391 Z"
             style="fill:none;stroke:#ffffff;stroke-width:2.039;stroke-linecap:butt;stroke-linejoin:miter;stroke-miterlimit:10;stroke-dasharray:none;stroke-opacity:1"
             id="path152" /></g></g></g><path
       sodipodi:nodetypes="ccsccccccccsccc"
       style="font-variant:normal;font-weight:normal;font-stretch:normal;font-size:75.4439px;font-family:Young;-inkscape-font-specification:Young;writing-mode:lr-tb;opacity:1;fill:#3b3b3d;fill-opacity:1;fill-rule:nonzero;stroke:none;stroke-width:0.999998"
       d="m 189.95353,126.14352 c -0.69992,0.12279 0.35615,-0.0398 -0.62619,0.0584 -0.95779,0.1228 -2.15552,0.35146 -3.48168,0.35146 -2.13659,0 -3.92073,-0.14435 -5.90998,-1.10214 -1.98924,-0.93322 -5.18719,-4.71364 -5.63519,-7.27108 l -0.11151,-25.588273 h -6.92551 v 38.867283 h 6.92551 v -3.79765 c 1.96279,2.27321 5.11485,3.87919 7.25705,4.6784 2.77495,0.76698 4.09468,0.7287 6.33512,0.61925 1.20194,-0.0587 1.57339,-0.14835 3.05919,-0.35095 0.54028,-0.0491 -0.88681,-6.46469 -0.88681,-6.46469 z"
       id="path1296-3" /><path
       id="path1296-3-5"
       d="m 316.13927,126.14352 c -0.69992,0.12279 0.35615,-0.0398 -0.62619,0.0584 -0.95779,0.1228 -2.15552,0.35146 -3.48168,0.35146 -2.13659,0 -3.92073,-0.14435 -5.90998,-1.10214 -1.98924,-0.93322 -5.18719,-4.71364 -5.63519,-7.27108 l -0.11151,-25.588273 h -6.92551 v 38.867283 h 6.92551 v -3.79765 c 1.96279,2.27322 5.11485,3.8792 7.25705,4.6784 2.77495,0.76699 4.09468,0.72871 6.33512,0.61925 1.20194,-0.0587 1.57339,-0.14835 3.05919,-0.35095 0.54028,-0.0491 -0.88681,-6.46469 -0.88681,-6.46469 z"
       style="font-variant:normal;font-weight:normal;font-stretch:normal;font-size:75.4439px;font-family:Young;-inkscape-font-specification:Young;writing-mode:lr-tb;opacity:1;fill:#3b3b3d;fill-opacity:1;fill-rule:nonzero;stroke:none;stroke-width:0.999998"
       sodipodi:nodetypes="ccsccccccccsccc" /><path
       sodipodi:nodetypes="sssssccccssssssssssccsssss"
       style="font-variant:normal;font-weight:normal;font-stretch:normal;font-size:75.4439px;font-family:Young;-inkscape-font-specification:Young;writing-mode:lr-tb;opacity:1;fill:#3b3b3d;fill-opacity:1;fill-rule:nonzero;stroke:none;stroke-width:1.18596"
       d="m 241.89902,129.21277 c 0,-2.88343 -0.51708,-5.55995 -1.52909,-8.03864 -0.99766,-2.44354 -2.3883,-4.57271 -4.19409,-6.37849 -2.24265,-2.24267 -4.88835,-3.94478 -7.95126,-5.06785 -3.0535,-1.11962 -6.91731,-0.86684 -11.57739,-0.86684 -3.11863,0 -9.35547,0.0882 -9.35547,0.0882 V 91.489345 l -7.9451,-0.08814 0.0881,57.118705 c 0,0 11.76671,0 17.65007,0 3.90281,0 7.11705,0.004 9.82909,-0.65225 2.70538,-0.65453 4.93729,-2.00966 7.03227,-3.41076 2.47773,-1.65708 4.01958,-3.73417 5.37058,-6.20373 1.35771,-2.48183 2.58224,-5.25408 2.58224,-9.0404 z m -7.67761,-0.39473 c 0.14515,2.23796 -0.96083,4.76191 -1.9729,6.29496 -1.09597,1.66015 -1.9482,2.57641 -3.67058,3.79857 -1.35726,0.96308 -2.97518,1.62942 -5.24644,1.92228 -2.62695,0.33873 -3.94573,0.25905 -6.68354,0.25905 -3.0895,0 -9.26808,0.0881 -9.26808,0.0881 l -0.0881,-24.84862 c 0,0 5.33408,-0.0588 8.00112,-0.0882 3.49486,-0.0385 6.27366,-0.28143 8.51922,0.12414 2.97878,0.538 4.77732,1.30458 6.15769,2.66192 1.51232,1.48707 2.20694,2.63916 2.84903,4.14807 0.80533,1.89255 1.24784,3.25297 1.40263,5.63964 z"
       id="path1298-9" /></g></svg>
