<?xml version="1.0" encoding="UTF-8" standalone="no"?>
<svg
   xmlns:dc="http://purl.org/dc/elements/1.1/"
   xmlns:cc="http://creativecommons.org/ns#"
   xmlns:rdf="http://www.w3.org/1999/02/22-rdf-syntax-ns#"
   xmlns:svg="http://www.w3.org/2000/svg"
   xmlns="http://www.w3.org/2000/svg"
   width="129.77879mm"
   height="41.810165mm"
   viewBox="0 0 129.77879 41.810165"
   version="1.1"
   id="svg8">
  <defs
     id="defs2" />
  <metadata
     id="metadata5">
    <rdf:RDF>
      <cc:Work
         rdf:about="">
        <dc:format>image/svg+xml</dc:format>
        <dc:type
           rdf:resource="http://purl.org/dc/dcmitype/StillImage" />
        <dc:title></dc:title>
      </cc:Work>
    </rdf:RDF>
  </metadata>
  <path
     id="path190"
     d=""
     style="fill:#7dacd3;fill-opacity:1;stroke-width:0.122492" />
  <path
     id="path1086"
     d=""
     style="fill:#7dacd3;fill-opacity:1;stroke:none;stroke-width:0.00376531;stroke-miterlimit:4;stroke-dasharray:none;stroke-opacity:1" />
  <path
     id="path1088"
     d=""
     style="fill:#7dacd3;fill-opacity:1;stroke:none;stroke-width:0.00376531;stroke-miterlimit:4;stroke-dasharray:none;stroke-opacity:1" />
  <path
     id="path1094"
     d=""
     style="fill:#7dacd3;fill-opacity:1;stroke:none;stroke-width:0.00376531;stroke-miterlimit:4;stroke-dasharray:none;stroke-opacity:1" />
  <path
     id="path1100"
     d=""
     style="fill:#7dacd3;fill-opacity:1;stroke:none;stroke-width:0.00376531;stroke-miterlimit:4;stroke-dasharray:none;stroke-opacity:1" />
  <path
     id="path1106"
     d=""
     style="fill:#7dacd3;fill-opacity:1;stroke:none;stroke-width:0.00376531;stroke-miterlimit:4;stroke-dasharray:none;stroke-opacity:1" />
  <path
     id="path1126"
     d=""
     style="fill:#7dacd3;fill-opacity:1;stroke:none;stroke-width:0.00188266;stroke-miterlimit:4;stroke-dasharray:none;stroke-opacity:1" />
  <path
     id="path1134"
     d=""
     style="fill:#7dacd3;fill-opacity:1;stroke:none;stroke-width:0.00188266;stroke-miterlimit:4;stroke-dasharray:none;stroke-opacity:1" />
  <path
     id="path1138"
     d=""
     style="fill:#7dacd3;fill-opacity:1;stroke:none;stroke-width:0.00188266;stroke-miterlimit:4;stroke-dasharray:none;stroke-opacity:1" />
  <path
     style="display:inline;fill:#9bbca1;stroke-width:0.185666;fill-opacity:1"
     d="M 16.317408,41.39721 C 12.036921,40.61307 7.78909,38.41135 4.810963,35.43322 2.851027,33.47328 1.032736,30.87826 0.171174,28.8114 c -0.458036,-1.09881 0.06273,-0.87081 0.856974,0.37519 0.81497,1.27852 2.586308,3.24134 3.919795,4.34352 0.958228,0.79202 0.964786,0.79423 0.458165,0.15436 C 3.023062,30.67468 1.658432,28.13019 0.906394,25.29428 -1.427465,16.49341 2.171875,7.15968 9.869092,2.05242 c 2.070217,-1.37363 3.13288,-1.91749 3.336073,-1.70738 0.07787,0.0805 -0.06674,0.28348 -0.321348,0.45103 -2.456908,1.61671 -6.815896,6.31971 -8.613468,9.29323 -4.758424,7.87133 -3.743607,17.99562 2.501884,24.95999 2.368602,2.64123 6.673777,5.23649 10.195009,6.14578 1.876061,0.48446 1.511074,0.59799 -0.649834,0.20214 z m 24.415139,-22.9018 c 0,-0.69975 -0.79375,-3.3262 -1.405129,-4.64945 -1.249606,-2.70461 -3.382824,-5.44952 -5.928697,-7.62872 -1.045062,-0.89455 -0.870282,-0.83842 0.722646,0.23206 1.426872,0.95888 4.074978,3.60222 5.202133,5.19275 0.620991,0.87629 0.999657,1.66516 1.247712,2.59933 0.444376,1.67353 0.682333,4.59039 0.374484,4.59039 -0.117232,0 -0.213149,-0.15136 -0.213149,-0.33636 z"
     id="path156" />
  <path
     style="display:inline;fill:#3c8046;stroke-width:0.185666;fill-opacity:1"
     d="M 18.174073,41.48869 C 14.913078,40.78101 12.006068,39.42747 9.367508,37.38826 1.026404,30.94183 -1.182947,19.11007 4.270046,10.0898 7.218412,5.21264 11.802813,1.84678 17.461131,0.40492 c 1.42663,-0.36354 2.090482,-0.41626 5.076103,-0.40315 2.909267,0.0128 3.657659,0.0762 4.891141,0.4146 3.964243,1.08755 6.865942,2.73805 9.689871,5.51164 2.020409,1.9844 3.049196,3.37268 4.178002,5.63793 1.169257,2.34644 1.844498,4.71895 2.133999,7.49797 0.109476,1.0509 0.08535,1.25325 -0.149428,1.25325 -0.194549,0 -0.368325,-0.39117 -0.569482,-1.28193 C 41.423681,13.33331 37.051477,7.72537 31.852397,5.10717 29.910378,4.12919 27.069576,3.27596 24.604676,2.93033 18.844493,2.12264 14.467994,3.74954 10.180592,8.29228 7.79046,10.82476 6.376981,13.71291 5.756102,17.3328 c -1.369473,7.9844 2.241178,15.26827 9.261642,18.68375 2.417459,1.17611 4.473951,1.63442 7.333825,1.63442 4.909034,0 9.080481,-1.7998 12.39337,-5.34721 l 1.310815,-1.40361 h 1.303891 1.303891 l 0.384673,1.02813 c 0.21157,0.56547 0.384673,1.15654 0.384673,1.31349 0,0.15695 -0.942813,1.21908 -2.095138,2.36028 -3.034262,3.00498 -5.881475,4.64732 -9.898692,5.7098 -2.196657,0.58097 -6.981868,0.6723 -9.264979,0.17684 z m 93.546737,-0.60897 c 0.13334,-0.53589 4.20664,-19.66194 4.20664,-19.75214 0,-0.0373 0.88391,-0.0677 1.96425,-0.0677 h 1.96425 l -0.12145,0.60341 c -0.0668,0.33188 -0.16896,0.76962 -0.22703,0.97276 -0.0679,0.23743 0.18954,0.0657 0.72081,-0.48096 1.02366,-1.05327 2.14732,-1.46654 3.98743,-1.46654 4.19099,0 6.22345,3.02042 5.37223,7.98365 -0.57261,3.33877 -2.28943,5.89965 -4.6987,7.00881 -1.55296,0.71494 -4.02967,0.81866 -5.40637,0.22642 -0.55816,-0.24011 -1.23741,-0.72803 -1.59483,-1.14559 l -0.62259,-0.72735 -0.37174,1.6356 c -0.20446,0.89958 -0.56123,2.53376 -0.79283,3.63152 l -0.42108,1.99591 h -2.03147 c -2.01373,0 -2.03056,-0.004 -1.92752,-0.41775 z m 10.94301,-7.81602 c 0.7546,-0.31591 1.92917,-1.60712 2.36965,-2.60499 0.8281,-1.87597 0.90393,-4.2604 0.17367,-5.46121 -1.07969,-1.77542 -3.78848,-1.78673 -5.27338,-0.022 -1.10452,1.31265 -1.77243,3.22755 -1.77611,5.09208 -0.004,2.04848 1.06931,3.24626 2.90904,3.24626 0.54982,0 1.26853,-0.11255 1.59713,-0.25011 z m -58.004415,2.94108 c -1.49352,-0.47872 -2.57449,-1.35545 -3.28909,-2.66768 -0.57816,-1.06168 -0.653386,-1.36757 -0.730586,-2.97079 -0.19232,-3.99383 1.634026,-7.44324 4.753706,-8.97828 1.19333,-0.58718 1.3078,-0.6067 3.55712,-0.6067 2.11402,0 2.41643,0.0435 3.34528,0.4809 1.46136,0.68821 2.13691,1.33083 2.7868,2.65094 0.62718,1.27399 0.88995,3.11764 0.66149,4.64114 l -0.12905,0.86051 h -5.55861 -5.55862 v 0.99371 c 0,1.80473 1.18423,2.90443 3.12827,2.905 1.26169,3.7e-4 2.17605,-0.43374 2.79205,-1.32555 l 0.48517,-0.70241 1.99592,-0.007 c 1.36227,-0.005 1.99591,0.0595 1.99591,0.20243 0,0.42821 -1.11832,2.13691 -1.89213,2.89101 -0.44002,0.42882 -1.30133,1.00961 -1.91403,1.29067 -0.98618,0.45236 -1.36964,0.51712 -3.342,0.56433 -1.58709,0.038 -2.47526,-0.0259 -3.0876,-0.22219 z m 7.20062,-9.84232 c -0.23941,-1.74667 -1.1022,-2.5033 -2.85453,-2.5033 -1.4322,0 -2.78288,0.77506 -3.52668,2.02371 -0.32846,0.5514 -0.55329,1.07358 -0.49962,1.16041 0.0537,0.0868 1.64966,0.15787 3.54667,0.15787 h 3.44911 z m 29.863935,9.87157 c -1.243,-0.40862 -1.872905,-0.8124 -2.656955,-1.70312 -1.34651,-1.52973 -1.81461,-3.9745 -1.26123,-6.58709 0.62827,-2.96612 2.16533,-5.09632 4.515335,-6.25776 1.27385,-0.62957 1.57176,-0.70042 3.2244,-0.7668 2.58972,-0.10402 4.09424,0.36407 5.45191,1.69618 1.40108,1.37471 1.80317,2.54073 1.73352,5.02709 l -0.0527,1.87946 -5.63852,0.0492 -5.63853,0.0492 0.0779,1.07697 c 0.13601,1.88029 1.20181,2.81651 3.20636,2.81651 1.2663,0 1.90251,-0.30299 2.73133,-1.30078 l 0.62713,-0.75498 1.9973,0.0531 1.9973,0.0531 -0.51563,1.02116 c -0.72439,1.43458 -2.19935,2.8403 -3.52402,3.35856 -1.32951,0.52017 -5.05154,0.69217 -6.27494,0.28999 z m 7.14816,-9.68867 c 0,-1.66685 -1.03982,-2.6843 -2.74454,-2.68551 -1.14434,-7.4e-4 -2.14748,0.37309 -2.88887,1.07674 -0.51949,0.49305 -1.23625,1.69407 -1.23625,2.0715 0,0.12668 1.18099,0.19306 3.43483,0.19306 h 3.43483 z m -66.000498,9.15003 c 0.0571,-0.22976 0.753607,-3.55087 1.547791,-7.38024 l 1.443975,-6.96249 1.915385,-0.0532 1.915387,-0.0532 -0.117245,0.7332 c -0.06448,0.40327 -0.175722,0.88672 -0.247196,1.07436 -0.07775,0.20409 0.226996,0.0276 0.758538,-0.43925 1.413145,-1.24123 2.350515,-1.60759 4.336517,-1.69488 1.556577,-0.0684 1.808664,-0.0305 2.702015,0.40659 0.72671,0.35555 1.10394,0.69023 1.43749,1.27536 0.69822,1.22488 0.60216,2.44011 -0.66078,8.35923 l -1.099306,5.15224 h -2.024872 -2.024873 l 0.107321,-0.51058 c 1.074479,-5.11192 1.98118,-9.69539 1.981287,-10.01563 7.6e-5,-0.22407 -0.192764,-0.63166 -0.428535,-0.90576 -0.509782,-0.59266 -1.915071,-0.81077 -2.973398,-0.46149 -0.932454,0.30774 -2.086751,1.53568 -2.510004,2.67015 -0.276739,0.74175 -2.071581,8.64666 -2.071581,9.12373 0,0.0548 -0.92064,0.0996 -2.045867,0.0996 -2.028625,0 -2.044994,-0.004 -1.942049,-0.41775 z m 33.558063,-0.46416 c 0.1044,-0.48506 1.08144,-5.10119 2.17119,-10.25807 l 1.98137,-9.37616 4.44387,-0.0556 c 5.95083,-0.0744 7.69426,0.27928 9.53504,1.9343 2.78412,2.50316 3.1692,7.93308 0.9004,12.69607 -1.37133,2.87889 -4.08969,4.98983 -7.29124,5.66201 -0.96635,0.20289 -2.66286,0.27369 -6.61506,0.27609 l -5.31541,0.003 z m 11.67008,-3.41408 c 2.74766,-1.28684 4.26577,-3.92167 4.26103,-7.39544 -0.003,-2.5074 -0.5415,-3.73032 -2.02505,-4.60244 -0.83175,-0.48894 -0.96726,-0.50894 -3.44925,-0.50894 h -2.5835 l -1.35651,6.31266 c -0.74608,3.47196 -1.35894,6.42476 -1.36192,6.56177 -0.004,0.20018 0.53249,0.23654 2.73317,0.18509 2.49584,-0.0583 2.83108,-0.10734 3.78203,-0.5527 z m -47.957328,1.30411 -0.868607,-2.24909 1.594579,-2.39373 c 0.877018,-1.31655 1.613089,-2.37229 1.635712,-2.34609 0.08386,0.0971 -1.292305,9.23813 -1.390781,9.23806 -0.05626,-4e-5 -0.493169,-1.01216 -0.970903,-2.24915 z m -6.177433,-2.73835 c 0.400624,-0.36396 8.061566,-4.81202 7.930883,-4.60479 -0.0782,0.124 -0.833113,1.24686 -1.677591,2.49524 l -1.535413,2.26979 h -2.447132 c -1.385027,0 -2.370576,-0.0695 -2.270747,-0.16024 z M 11.889378,24.50058 c -7.926252,-16.33372 -3.963126,-8.16686 0,0 z M 9.565539,12.87886 c -6.377026,-8.5859067 -3.188513,-4.2929533 0,0 z"
     id="path148" />
  <path
     style="display:inline;fill:#965b24;stroke-width:0.185666;fill-opacity:1"
     d="m 32.683328,19.97597 c -0.288936,-0.31927 -0.285265,-0.36248 0.05714,-0.67235 0.426563,-0.38604 0.936751,-0.26191 0.936751,0.22792 0,0.33206 -0.326398,0.78562 -0.565356,0.78562 -0.06587,0 -0.258708,-0.15354 -0.428537,-0.34119 z m 3.036224,-0.58068 c 0,-0.5363 -1.034541,-1.62243 -1.779579,-1.86832 -0.387,-0.12772 -1.017115,-0.16263 -1.567945,-0.0869 -0.81959,0.11273 -0.983897,0.0737 -1.493174,-0.35485 -0.658591,-0.55417 -1.299391,-0.75658 -1.89269,-0.59786 -0.375941,0.10057 -3.765913,-0.8681 -4.059162,-1.15989 -0.0642,-0.0639 -0.170754,-0.42056 -0.236781,-0.7926 -0.111858,-0.63028 -0.08137,-0.68993 0.44663,-0.874 0.499761,-0.17421 1.139272,-0.007 5.415391,1.41912 5.38761,1.79634 5.909977,2.08638 5.909977,3.28152 0,0.7276 -0.27037,1.39863 -0.563532,1.39863 -0.09852,0 -0.179134,-0.16419 -0.179134,-0.36487 z M 23.683717,19.17505 22.50937,18.81034 23.34839,18.07181 c 0.461459,-0.4062 0.891109,-0.90266 0.954776,-1.10326 0.140505,-0.44269 0.352466,-0.44801 1.232876,-0.0309 l 0.677976,0.32117 -0.445893,0.51838 c -0.245242,0.28511 -0.445893,0.67399 -0.445893,0.86417 0,0.43755 -0.188606,0.93852 -0.344781,0.9158 -0.06566,-0.01 -0.647842,-0.18149 -1.293733,-0.38208 z m 10.086337,-3.27198 c -0.941888,-0.37204 -0.946578,-0.37642 -0.683871,-0.63913 0.385273,-0.38527 0.23821,-1.35814 -0.425439,-2.81442 -0.722542,-1.58551 -0.848254,-1.64636 -2.165994,-1.04842 -0.445146,0.20199 -1.163736,0.36909 -1.596867,0.37133 -0.583563,0.003 -0.847566,0.10024 -1.019409,0.37541 -0.127545,0.20423 -0.42068,0.37133 -0.651408,0.37133 -0.493679,0 -0.502836,-0.043 -0.153246,-0.71899 0.364053,-0.704 0.753186,-0.99422 1.504472,-1.12206 l 0.637271,-0.10844 -0.632742,-0.43192 c -0.692293,-0.47256 -1.041597,-0.40044 -1.915335,0.39543 -0.327848,0.29863 -0.628739,0.37168 -1.388124,0.33703 -0.533249,-0.0243 -0.999955,-0.0746 -1.037126,-0.11182 -0.03717,-0.0372 0.372716,-0.61703 0.910857,-1.28857 1.09106,-1.36153 1.142614,-1.37751 3.093385,-0.95898 0.638229,0.13693 1.160416,0.2154 1.160416,0.17438 0,-0.20536 1.1296,0.54551 1.30019,0.86426 0.1685,0.31485 0.108502,0.42256 -0.412244,0.74005 -0.335195,0.20437 -0.525897,0.37169 -0.42378,0.37183 0.102116,1.4e-4 0.677356,-0.33375 1.278308,-0.74197 1.241661,-0.84345 1.920808,-0.93279 2.466612,-0.32447 0.551541,0.61471 1.917906,4.46193 1.917906,5.40018 0,1.25496 -0.384389,1.45283 -1.763832,0.90796 z m -4.101726,-1.26908 -0.759731,-0.26953 0.01706,-1.18579 c 0.01682,-1.16929 0.02481,-1.18703 0.574064,-1.27462 0.30635,-0.0488 0.727083,-0.14437 0.934962,-0.21227 0.361448,-0.11805 0.377966,-0.0499 0.377966,1.55881 0,1.04583 -0.07275,1.6767 -0.192298,1.66759 -0.105763,-0.008 -0.534176,-0.13595 -0.952027,-0.28419 z"
     id="path146" />
  <path
     style="display:inline;fill:#0f69a0;stroke-width:0.185666;fill-opacity:1"
     d="M 17.456893,33.42023 C 16.658824,33.12788 15.824347,32.40228 15.286048,31.53261 15.034838,31.12676 14.562006,30.80454 13.674472,30.43435 11.850725,29.67367 10.950327,29.1175 10.202458,28.2897 9.674508,27.70532 9.540584,27.40574 9.540584,26.80913 c 0,-0.52571 0.09161,-0.78312 0.308293,-0.86626 0.264085,-0.10134 0.25094,-0.13952 -0.09166,-0.26626 -0.5652,-0.20908 -1.143454,-1.24522 -1.144272,-2.05035 -5.76e-4,-0.55905 0.120926,-0.78298 0.670675,-1.23613 0.649782,-0.53561 2.040604,-1.04423 2.188278,-0.80025 0.03988,0.0659 -9.4e-5,0.57579 -0.08882,1.13313 -0.08873,0.55735 -0.100949,1.05865 -0.02716,1.114 0.07379,0.0554 0.26008,0.34664 0.413977,0.6473 0.165708,0.32374 0.655824,0.74016 1.201876,1.02117 0.75905,0.39062 1.180436,0.47451 2.383533,0.47451 1.377826,0 1.48517,-0.0297 1.875571,-0.51933 0.413869,-0.51904 0.414809,-0.51922 1.677008,-0.31758 0.694599,0.11096 1.273171,0.17756 1.285714,0.14799 0.201153,-0.47407 0.767646,-1.45754 1.046957,-1.81758 l 0.360091,-0.46416 0.0041,1.16041 c 0.0039,1.09572 -0.02022,1.16042 -0.43258,1.16042 -0.755288,0 -1.690876,0.76952 -1.756635,1.44484 -0.06674,0.68536 -0.05093,0.68247 -1.850642,0.33925 -0.955137,-0.18216 -1.30332,-0.19572 -1.18654,-0.0462 0.0909,0.11638 0.212962,0.46225 0.271238,0.7686 0.05828,0.30635 0.159716,0.69591 0.225424,0.86568 0.08096,0.20919 0.01036,0.33129 -0.21908,0.37884 -0.287136,0.0595 -0.274411,0.0877 0.08379,0.18573 0.523709,0.14329 2.275754,-0.74618 2.558829,-1.29906 0.140507,-0.27443 0.272222,-0.33504 0.464166,-0.2136 0.147397,0.0933 0.831954,0.17084 1.521241,0.1724 0.689287,0.001 1.251825,0.0655 1.250083,0.1421 -0.01027,0.45181 -2.393326,4.81546 -2.781831,5.09385 -0.658397,0.47178 -1.463924,0.5622 -2.295346,0.25764 z m 1.192905,-3.04051 c 0.137187,-0.27541 0.27919,-0.5634 0.31556,-0.63999 0.03637,-0.0766 -0.02615,-0.13925 -0.138934,-0.13925 -0.358457,0 -1.117989,0.89413 -1.006448,1.1848 0.146642,0.38214 0.531025,0.19428 0.829822,-0.40556 z m -4.502246,-2.95424 c -0.15008,-0.54354 -0.137074,-0.70796 0.06138,-0.77598 0.138496,-0.0475 -0.580912,-0.23423 -1.598684,-0.41503 -1.017772,-0.18079 -1.867327,-0.31188 -1.887901,-0.2913 -0.179969,0.17997 0.706523,0.81253 1.994067,1.42289 0.857265,0.40638 1.572815,0.74117 1.590113,0.74398 0.0173,0.003 -0.05424,-0.30524 -0.158977,-0.68456 z m 1.048365,-3.26151 c -0.283946,-0.24423 -0.469546,-0.57017 -0.431187,-0.7572 0.05602,-0.27314 0.171582,-0.22058 0.686898,0.31241 0.711826,0.73622 0.503789,1.09809 -0.255711,0.44479 z"
     id="path144" />
  <path
     style="fill:#7dacd3;fill-opacity:1;stroke-width:0.185666"
     d="m 28.994633,32.839764 c -0.05879,-0.0588 -1.025291,-0.10277 -2.147772,-0.0977 -1.404012,0.006 -2.099383,-0.0624 -2.228368,-0.22006 -0.430842,-0.52677 -2.659015,-6.77944 -2.758672,-7.74134 -0.153947,-1.48592 0.189149,-2.53865 1.135946,-3.48545 0.984186,-0.98418 1.685222,-1.06289 2.281661,-0.25616 0.498134,0.67376 1.56253,0.94455 3.908629,0.99439 1.844342,0.0392 2.339687,0.2507 1.881104,0.80326 -0.205113,0.24715 -0.705536,0.28377 -3.293389,0.24101 -2.812714,-0.0465 -3.071637,-0.0229 -3.308531,0.30105 -0.141355,0.19332 -0.257009,0.47592 -0.257009,0.62801 0,0.44014 2.616718,6.86245 2.887674,7.08733 0.342326,0.2841 0.933102,-0.061 1.291793,-0.75465 0.156374,-0.3024 0.783679,-1.85733 1.394013,-3.45542 1.617681,-4.23569 2.229908,-5.41739 3.24322,-6.25993 0.683928,-0.56867 0.847504,-0.81445 0.802125,-1.20524 -0.06545,-0.56369 -0.569247,-0.74563 -1.02499,-0.37017 -0.165172,0.13608 -0.581206,0.68563 -0.92452,1.22123 -0.955037,1.48994 -1.151244,1.56969 -3.490069,1.41848 -1.755261,-0.11348 -2.056761,-0.18422 -2.548376,-0.59788 -0.490976,-0.41313 -0.547309,-0.56031 -0.471591,-1.23209 0.194519,-1.72577 0.876418,-2.43782 2.747524,-2.869 1.364446,-0.31443 1.900985,-0.24551 2.594245,0.33325 l 0.638529,0.53306 -0.311972,0.62735 c -0.171583,0.34504 -0.385451,0.878 -0.475259,1.18435 -0.23627,0.80594 -0.648723,0.77719 -1.219278,-0.085 -0.521678,-0.78831 -1.048406,-0.9914 -1.048406,-0.40423 0,0.89655 1.515174,1.83925 2.132594,1.32683 0.143396,-0.11901 0.396519,-0.62523 0.562496,-1.12494 0.178135,-0.53631 0.539229,-1.10836 0.881341,-1.39623 0.491422,-0.41351 0.694153,-0.47003 1.332982,-0.37165 0.92359,0.14223 1.540197,0.57378 1.973068,1.38092 0.300571,0.56044 0.305525,0.69246 0.05735,1.52816 -0.368199,1.23986 -4.862442,11.71746 -5.14022,11.98359 -0.280726,0.26895 -0.957389,0.47533 -1.09787,0.33486 z m -2.048021,-2.82144 c -0.123379,-0.28082 -0.280336,-0.55235 -0.348797,-0.60341 -0.06846,-0.0511 -0.153709,-0.25636 -0.189445,-0.45622 -0.049,-0.27404 0.0495,-0.37316 0.400637,-0.40316 0.256084,-0.0219 0.837671,-0.16798 1.292415,-0.32465 0.454743,-0.15667 0.857088,-0.25457 0.894103,-0.21756 0.103163,0.10316 -0.923015,2.21863 -1.151346,2.37349 -0.382731,0.25959 -0.674196,0.13993 -0.897567,-0.36849 z m 4.873944,-0.61724 c 0,-0.31362 0.951701,-2.47733 1.225321,-2.78579 0.143006,-0.16121 0.258984,-0.41186 0.257731,-0.557 -0.0027,-0.31018 0.98043,-2.57577 1.116279,-2.57248 0.118904,0.003 1.313842,1.59207 1.644531,2.18711 0.280765,0.50521 0.181574,1.56755 -0.187934,2.01278 -0.45229,0.54498 -4.055927,2.06907 -4.055928,1.71538 z m -11.306425,-1.63519 c -0.758605,-0.13812 -1.045857,-0.53339 -0.876882,-1.20664 0.122463,-0.48793 0.416778,-0.67408 1.468308,-0.92867 0.464723,-0.11252 0.546312,-0.0572 0.795697,0.53968 0.152833,0.36578 0.32712,0.91127 0.387304,1.21219 0.104497,0.52248 0.0812,0.54603 -0.517198,0.52269 -0.344643,-0.0135 -0.910397,-0.0761 -1.257229,-0.13925 z m 4.973128,-0.89642 c -0.695903,-1.77774 -0.722394,-1.90939 -0.388874,-1.93254 0.174173,-0.0121 0.379513,-0.012 0.456309,1.2e-4 0.157391,0.0249 3.473943,-0.4841 4.290582,-0.65852 0.491574,-0.10499 0.521097,-0.0804 0.395628,0.32988 -0.07457,0.24383 -0.289974,0.78778 -0.478665,1.20877 l -0.343076,0.76543 -1.537883,0.23409 c -0.845835,0.12875 -1.684884,0.30985 -1.864553,0.40246 -0.260773,0.1344 -0.367581,0.0639 -0.529468,-0.34969 z m 9.695053,-2.9632 -0.630074,-0.66435 0.314645,-0.99817 c 0.173054,-0.54899 0.384317,-0.99816 0.469471,-0.99816 0.570438,0 0.933562,1.77418 0.596775,2.91576 -0.116525,0.39498 -0.142757,0.38607 -0.750817,-0.25508 z m -4.181918,-1.8932 c -0.05468,-0.0885 0.06842,-0.31274 0.273537,-0.49837 0.205123,-0.18564 0.546034,-0.61758 0.757583,-0.95987 0.303622,-0.49127 0.438089,-0.57799 0.638427,-0.41172 0.20746,0.17218 0.110732,0.37675 -0.529879,1.12063 -0.797553,0.92611 -0.963125,1.03498 -1.139668,0.74933 z"
     id="path150" />
  <path
     id="path1144"
     d=""
     style="fill:#7dacd3;fill-opacity:1;stroke:none;stroke-width:0.00188266;stroke-miterlimit:4;stroke-dasharray:none;stroke-opacity:1" />
  <g
     transform="translate(0,1.2708286e-4)"
     id="g2287">
    <path
       style="fill:#48b148;fill-opacity:1;stroke-width:0.032263"
       d="m 55.026065,97.457826 c -0.750594,-0.14914 -1.956589,-0.464867 -2.679988,-0.701615 -1.971585,-0.645242 -5.461346,-2.486642 -6.487888,-3.423385 -0.853049,-0.778428 -0.919189,-0.913741 -1.12079,-2.292978 -0.346638,-2.3715 0.195104,-9.086987 1.843537,-22.85268 0.932667,-7.788495 3.903302,-31.580619 4.055408,-32.480185 0.08077,-0.477708 0.462651,-0.905905 1.681286,-1.885219 2.576233,-2.070301 4.577498,-2.921088 8.142763,-3.461686 4.273424,-0.647976 8.443012,-0.107394 11.903621,1.543291 2.007024,0.957334 3.742959,2.605776 7.478635,7.101703 6.705462,8.070095 12.398224,16.227181 12.691996,18.186201 0.181217,1.208434 -0.209865,3.052616 -1.020047,4.81014 -2.084529,4.521948 -6.496108,8.33075 -10.968337,9.469676 -1.63901,0.417401 -2.38651,0.280983 -5.155166,-0.940803 -2.970009,-1.310642 -4.921656,-1.699877 -7.002548,-1.396584 -3.180888,0.463618 -6.693982,2.356039 -8.285259,4.463072 -0.987564,1.307646 -1.544445,1.46353 -2.209216,0.61841 -0.522646,-0.664436 -0.551316,-2.44857 -0.08801,-5.477219 0.244601,-1.598978 0.405548,-2.152557 0.646322,-2.223025 0.525252,-0.153726 2.406317,-0.458059 8.062803,-1.304467 9.386441,-1.404538 12.212554,-2.074291 13.491655,-3.197357 0.782687,-0.687209 1.186405,-1.712638 1.003012,-2.547619 -0.436426,-1.987011 -9.74983,-14.837038 -14.022973,-19.347973 l -1.711992,-1.807264 -1.067255,0.0128 c -1.302732,0.01562 -2.385584,0.505817 -3.379305,1.529779 -1.353086,1.394262 -1.286126,0.980245 -3.744475,23.152263 -2.336189,21.070239 -2.626744,24.604123 -2.193277,26.675752 0.312546,1.493717 1.196353,2.644353 2.59568,3.379335 0.957544,0.50294 1.251995,0.562612 2.4521,0.496939 1.135599,-0.06214 1.426338,-0.151767 1.737029,-0.535454 0.769868,-0.950747 0.381098,-2.173109 -1.266249,-3.981323 -1.692055,-1.857286 -1.672427,-1.738804 -1.058816,-6.391296 0.293035,-2.221839 0.661739,-4.556917 0.819342,-5.189061 0.672904,-2.699016 2.295463,-4.944533 4.307062,-5.960693 0.575227,-0.290578 1.79326,-0.717002 2.706739,-0.94761 3.575174,-0.902555 6.240746,-0.18669 8.501886,2.283262 3.805424,4.156853 4.575131,9.077002 2.213323,14.148062 -1.087405,2.334778 -3.025126,3.417089 -7.471701,4.173306 -2.800471,0.47627 -3.206955,0.292988 -3.51199,-1.583548 -0.07864,-0.483791 -0.435921,-1.116596 -1.008749,-1.786659 -1.284366,-1.502387 -1.748623,-2.574263 -1.596307,-3.685545 0.06781,-0.494738 0.262715,-1.112305 0.433114,-1.372371 0.388879,-0.593502 0.70687,-0.375355 1.375106,0.943348 0.255927,0.505049 0.601374,1.031182 0.767658,1.169186 0.541515,0.449418 1.188146,0.179924 1.614554,-0.672892 0.552558,-1.105114 0.573071,-4.903739 0.03403,-6.300801 -0.621678,-1.611225 -1.887444,-2.191072 -2.953111,-1.352819 -1.137893,0.895067 -2.143115,4.422787 -2.143115,7.521034 0,2.110017 0.322836,3.1574 1.310008,4.250081 0.97789,1.082407 1.323781,2.003571 1.323781,3.525435 0,1.53662 -0.345911,2.44305 -1.361166,3.566816 -1.845813,2.043093 -5.702496,2.871495 -9.684716,2.080241 z"
       id="path2266"
       transform="scale(0.26458332)" />
    <path
       style="fill:#48b148;fill-opacity:1;stroke-width:0.032263"
       d="m 40.665551,69.930119 c -5.152283,-5.492658 -6.854003,-7.641312 -7.945654,-10.032475 -0.426624,-0.934482 -0.522986,-1.446932 -0.534375,-2.841794 -0.0132,-1.616476 0.02854,-1.787396 0.833114,-3.411702 1.339607,-2.704448 5.235222,-7.702192 9.063746,-11.628017 2.219764,-2.276179 3.547188,-3.338576 4.520034,-3.617584 1.532244,-0.439442 1.83777,0.208242 1.537164,3.258629 -0.492102,4.993593 -0.883616,6.060117 -3.799714,10.350803 -2.368025,3.484261 -2.813363,4.341233 -2.658464,5.115727 0.141295,0.706473 1.440176,2.557373 2.990091,4.260867 l 1.125816,1.237371 -0.722637,5.086693 c -0.397449,2.797684 -0.786197,5.258518 -0.863883,5.468522 -0.118269,0.319713 -0.695005,-0.208513 -3.545238,-3.24704 z"
       id="path2268"
       transform="scale(0.26458332)" />
    <path
       style="fill:#48b148;fill-opacity:1;stroke-width:0.032263"
       d="m 38.127157,76.525386 c -3.270146,-0.283583 -4.337855,-0.825569 -4.998308,-2.537222 -1.26662,-3.282616 0.856612,-6.992799 3.271136,-5.716055 1.368319,0.723535 7.467289,7.669498 7.064375,8.045439 -0.276278,0.257783 -3.371384,0.378311 -5.337203,0.207838 z"
       id="path2270"
       transform="scale(0.26458332)" />
    <path
       style="fill:#48b148;fill-opacity:1;stroke-width:0.032263"
       d="m 58.475217,63.954235 c 0,-0.238707 1.012682,-7.761013 1.047766,-7.782914 0.316373,-0.197495 10.869983,-5.11974 11.701632,-5.457688 0.917559,-0.372858 1.227984,-0.419812 1.613677,-0.244078 0.556513,0.253564 3.489184,3.858242 4.486196,5.514183 l 0.684906,1.137563 -0.459072,0.371734 c -0.702518,0.568864 -7.246585,3.823417 -9.747614,4.847769 -3.163774,1.295793 -4.819097,1.677493 -7.274812,1.677493 -1.128973,0 -2.052679,-0.02883 -2.052679,-0.06406 z"
       id="path2272"
       transform="scale(0.26458332)" />
    <path
       style="fill:#48b148;fill-opacity:1;stroke-width:0.032263"
       d="m 66.713699,48.275381 c -0.327554,-0.130765 -0.997551,-0.478248 -1.488882,-0.772184 -0.861752,-0.515537 -1.882789,-0.83253 -3.402356,-1.056304 -0.56534,-0.08325 -0.775353,-0.234295 -0.966113,-0.69483 -0.315976,-0.762832 -0.104238,-2.594778 0.429914,-3.719597 0.485982,-1.023381 0.97128,-1.092696 2.203639,-0.314742 1.869671,1.180272 5.232711,5.105838 5.357192,6.253273 0.04465,0.411548 -0.03895,0.468074 -0.74377,0.502902 -0.436739,0.02158 -1.06207,-0.06775 -1.389624,-0.198518 z"
       id="path2274"
       transform="scale(0.26458332)" />
    <path
       style="fill:#48b148;fill-opacity:1;stroke-width:0.032263"
       d="m 56.580348,86.242384 c -0.608154,-0.672002 -0.605624,-2.61733 0.0084,-6.458536 0.295247,-1.847008 0.650959,-3.576328 0.790472,-3.842932 l 0.253659,-0.484735 0.115387,0.583994 c 0.39791,2.013889 0.263943,6.398872 -0.284487,9.311795 -0.232937,1.237218 -0.40899,1.414662 -0.883428,0.890414 z"
       id="path2276"
       transform="scale(0.26458332)" />
    <path
       style="fill:#48b148;fill-opacity:1;stroke-width:0.032263"
       d="m 91.329806,50.174596 c -0.436785,-0.318338 -1.229005,-1.062455 -1.760488,-1.653593 -1.094993,-1.217895 -3.500147,-4.599466 -3.500147,-4.921097 0,-0.555375 5.853346,-1.631962 8.932345,-1.642898 3.54651,-0.0126 4.475372,0.823123 3.9603,3.563172 -0.23443,1.247108 -0.327526,1.404323 -1.558414,2.63178 -1.409745,1.405816 -3.118135,2.363331 -4.485372,2.513954 -0.645699,0.07113 -0.942458,-0.02067 -1.588224,-0.491318 z"
       id="path2278"
       transform="scale(0.26458332)" />
  </g>
</svg>
