<?xml version="1.0" encoding="UTF-8" standalone="no"?>
<svg
   xmlns:dc="http://purl.org/dc/elements/1.1/"
   xmlns:cc="http://creativecommons.org/ns#"
   xmlns:rdf="http://www.w3.org/1999/02/22-rdf-syntax-ns#"
   xmlns:svg="http://www.w3.org/2000/svg"
   xmlns="http://www.w3.org/2000/svg"
   xmlns:xlink="http://www.w3.org/1999/xlink"
   xmlns:sodipodi="http://sodipodi.sourceforge.net/DTD/sodipodi-0.dtd"
   xmlns:inkscape="http://www.inkscape.org/namespaces/inkscape"
   version="1.1"
   id="svg3190"
   height="48px"
   width="48px"
   inkscape:version="0.91+devel r13918"
   sodipodi:docname="data_reduction.svg">
  <sodipodi:namedview
     pagecolor="#ffffff"
     bordercolor="#666666"
     borderopacity="1"
     objecttolerance="10"
     gridtolerance="10"
     guidetolerance="10"
     inkscape:pageopacity="0"
     inkscape:pageshadow="2"
     inkscape:window-width="1366"
     inkscape:window-height="719"
     id="namedview7407"
     showgrid="false"
     inkscape:zoom="6.9532167"
     inkscape:cx="20.953874"
     inkscape:cy="27.641066"
     inkscape:window-x="0"
     inkscape:window-y="0"
     inkscape:window-maximized="1"
     inkscape:current-layer="layer1" />
  <defs
     id="defs3192">
    <marker
       inkscape:stockid="Arrow1Mend"
       orient="auto"
       refY="0.0"
       refX="0.0"
       id="Arrow1Mend"
       style="overflow:visible;"
       inkscape:isstock="true">
      <path
         id="path6693"
         d="M 0.0,0.0 L 5.0,-5.0 L -12.5,0.0 L 5.0,5.0 L 0.0,0.0 z "
         style="fill-rule:evenodd;stroke:#000000;stroke-width:1pt;stroke-opacity:1;fill:#000000;fill-opacity:1"
         transform="scale(0.4) rotate(180) translate(10,0)" />
    </marker>
    <marker
       inkscape:stockid="Arrow2Lend"
       orient="auto"
       refY="0.0"
       refX="0.0"
       id="Arrow2Lend"
       style="overflow:visible;"
       inkscape:isstock="true">
      <path
         id="path6705"
         style="fill-rule:evenodd;stroke-width:0.625;stroke-linejoin:round;stroke:#000000;stroke-opacity:1;fill:#000000;fill-opacity:1"
         d="M 8.7185878,4.0337352 L -2.2072895,0.016013256 L 8.7185884,-4.0017078 C 6.9730900,-1.6296469 6.9831476,1.6157441 8.7185878,4.0337352 z "
         transform="scale(1.1) rotate(180) translate(1,0)" />
    </marker>
    <marker
       inkscape:stockid="Arrow2Mstart"
       orient="auto"
       refY="0.0"
       refX="0.0"
       id="marker7979"
       style="overflow:visible"
       inkscape:isstock="true">
      <path
         id="path7981"
         style="fill-rule:evenodd;stroke-width:0.625;stroke-linejoin:round;stroke:#000000;stroke-opacity:1;fill:#000000;fill-opacity:1"
         d="M 8.7185878,4.0337352 L -2.2072895,0.016013256 L 8.7185884,-4.0017078 C 6.9730900,-1.6296469 6.9831476,1.6157441 8.7185878,4.0337352 z "
         transform="scale(0.6) translate(0,0)" />
    </marker>
    <marker
       style="overflow:visible"
       id="Arrow2Sstart"
       refX="0.0"
       refY="0.0"
       orient="auto">
      <path
         transform="scale(0.3) translate(-2.3,0)"
         d="M 8.7185878,4.0337352 L -2.2072895,0.016013256 L 8.7185884,-4.0017078 C 6.9730900,-1.6296469 6.9831476,1.6157441 8.7185878,4.0337352 z "
         style="fill-rule:evenodd;stroke-width:0.625;stroke-linejoin:round;stroke:#000000;stroke-opacity:1;fill:#000000;fill-opacity:1"
         id="path6714" />
    </marker>
    <marker
       style="overflow:visible"
       id="Arrow2Mstart"
       refX="0.0"
       refY="0.0"
       orient="auto">
      <path
         transform="scale(0.6) translate(0,0)"
         d="M 8.7185878,4.0337352 L -2.2072895,0.016013256 L 8.7185884,-4.0017078 C 6.9730900,-1.6296469 6.9831476,1.6157441 8.7185878,4.0337352 z "
         style="fill-rule:evenodd;stroke-width:0.625;stroke-linejoin:round;stroke:#000000;stroke-opacity:1;fill:#000000;fill-opacity:1"
         id="path6708" />
    </marker>
    <marker
       style="overflow:visible;"
       id="Arrow1Send"
       refX="0.0"
       refY="0.0"
       orient="auto">
      <path
         transform="scale(0.2) rotate(180) translate(6,0)"
         style="fill-rule:evenodd;stroke:#000000;stroke-width:1pt;stroke-opacity:1;fill:#000000;fill-opacity:1"
         d="M 0.0,0.0 L 5.0,-5.0 L -12.5,0.0 L 5.0,5.0 L 0.0,0.0 z "
         id="path6699" />
    </marker>
    <marker
       style="overflow:visible"
       id="Arrow1Mstart"
       refX="0.0"
       refY="0.0"
       orient="auto">
      <path
         transform="scale(0.4) translate(10,0)"
         style="fill-rule:evenodd;stroke:#000000;stroke-width:1pt;stroke-opacity:1;fill:#000000;fill-opacity:1"
         d="M 0.0,0.0 L 5.0,-5.0 L -12.5,0.0 L 5.0,5.0 L 0.0,0.0 z "
         id="path6690" />
    </marker>
    <marker
       style="overflow:visible"
       id="Arrow1Lstart"
       refX="0.0"
       refY="0.0"
       orient="auto">
      <path
         transform="scale(0.8) translate(12.5,0)"
         style="fill-rule:evenodd;stroke:#000000;stroke-width:1pt;stroke-opacity:1;fill:#000000;fill-opacity:1"
         d="M 0.0,0.0 L 5.0,-5.0 L -12.5,0.0 L 5.0,5.0 L 0.0,0.0 z "
         id="path6684" />
    </marker>
    <linearGradient
       id="linearGradient9990">
      <stop
         id="stop9992"
         offset="0"
         style="stop-color:#000000;stop-opacity:1;" />
      <stop
         id="stop9994"
         offset="1"
         style="stop-color:#9b9b9b;stop-opacity:1;" />
    </linearGradient>
    <linearGradient
       id="linearGradient9982">
      <stop
         id="stop9984"
         offset="0"
         style="stop-color:#000000;stop-opacity:1;" />
      <stop
         id="stop9986"
         offset="1"
         style="stop-color:#000000;stop-opacity:0;" />
    </linearGradient>
    <linearGradient
       id="linearGradient9972">
      <stop
         id="stop9974"
         offset="0"
         style="stop-color:#000000;stop-opacity:1;" />
      <stop
         id="stop9976"
         offset="1"
         style="stop-color:#000000;stop-opacity:0;" />
    </linearGradient>
    <linearGradient
       id="linearGradient6104">
      <stop
         id="stop6106"
         offset="0"
         style="stop-color:#706773;stop-opacity:1;" />
      <stop
         id="stop6108"
         offset="1"
         style="stop-color:#000000;stop-opacity:1;" />
    </linearGradient>
    <linearGradient
       gradientTransform="matrix(0.73102902,0,0,0.73102902,9.6550637,9.8127696)"
       gradientUnits="userSpaceOnUse"
       y2="26.383081"
       x2="9.3690271"
       y1="35.476406"
       x1="6.7043839"
       id="linearGradient9978"
       xlink:href="#linearGradient9972" />
    <radialGradient
       gradientUnits="userSpaceOnUse"
       gradientTransform="matrix(0.91479204,0,0,0.8148779,2.7804264,3.6918021)"
       r="5.4061031"
       fy="27.458502"
       fx="26.019031"
       cy="27.458502"
       cx="26.019031"
       id="radialGradient9988"
       xlink:href="#linearGradient9982" />
  </defs>
  <metadata
     id="metadata3195">
    <rdf:RDF>
      <cc:Work
         rdf:about="">
        <dc:format>image/svg+xml</dc:format>
        <dc:type
           rdf:resource="http://purl.org/dc/dcmitype/StillImage" />
        <dc:title />
      </cc:Work>
    </rdf:RDF>
  </metadata>
  <g
     id="layer1">
    <g
       id="g7167"
       transform="translate(-12.656013,52.349871)">
      <path
         style="fill:#2e2e2e;stroke-width:0.25694633"
         d="m 30.609618,-10.678606 c -0.164498,-0.263392 -0.299085,-0.525197 -0.299085,-0.58179 0,-0.05659 1.384129,-0.600747 2.700967,-1.728748 l 2.700995,-1.625855 -0.08451,-0.266071 -0.08451,-0.266072 -8.115059,-4.881981 -8.115084,-4.88198 0.240245,-0.449656 0.240245,-0.449656 0.324317,0 c 0.178373,0 1.450642,0.693756 2.827283,1.541679 1.376642,0.847923 2.554946,1.541677 2.618489,1.541677 0.06352,0 0.145753,-4.422688 0.182766,-9.828196 l 0.06728,-9.828197 0.578129,-0.08211 0.57813,-0.08211 0,3.358174 0,3.358172 0.192709,-0.0042 c 0.10599,-0.0023 0.655214,-0.282392 1.220496,-0.622373 0.565282,-0.339981 1.605914,-0.954846 2.312517,-1.366366 0.706601,-0.41152 3.922511,-2.340485 7.146447,-4.286576 l 5.861716,-3.538356 0.346441,0.473789 c 0.190552,0.260585 0.305869,0.53947 0.256253,0.619742 -0.04962,0.08027 -1.311249,0.874748 -2.803618,1.765504 -1.492396,0.890756 -2.712712,1.693549 -2.711813,1.783982 0.0025,0.157411 0.409111,0.416192 2.696319,1.712011 0.565281,0.320259 2.357482,1.400916 3.982667,2.401455 1.625185,1.00054 4.483637,2.718209 6.352125,3.817043 1.868487,1.098833 3.40053,2.062497 3.404538,2.141478 0.0042,0.07898 -0.149414,0.35791 -0.340942,0.619849 l -0.348223,0.47607 -2.715588,-1.688568 -2.71559,-1.688567 -0.148,0.148 -0.148001,0.148002 0,9.721137 0,9.721135 -0.634914,0 -0.63489,0 -0.07172,-3.318106 -0.07168,-3.318111 -1.413205,0.841979 c -0.777262,0.46309 -3.956973,2.378047 -7.066024,4.255461 -3.109051,1.877414 -6.120208,3.863126 -6.831174,4.114772 l -1.178382,0.701291 -0.29906,-0.4789 z"
         id="path7171"
         inkscape:connector-curvature="0"
         sodipodi:nodetypes="csscccccccssssccccccssscccscssscccccccccccccsssccc" />
    </g>
    <path
       sodipodi:type="star"
       style="opacity:0.83;fill:#777777;fill-opacity:1;stroke:#ffffff;stroke-width:1.25999999;stroke-linecap:butt;stroke-linejoin:round;stroke-miterlimit:4;stroke-dasharray:none;stroke-dashoffset:0;stroke-opacity:1"
       id="path7198"
       sodipodi:sides="6"
       sodipodi:cx="24.880571"
       sodipodi:cy="24.269976"
       sodipodi:r1="11.521634"
       sodipodi:r2="9.9780283"
       sodipodi:arg1="0.42456138"
       sodipodi:arg2="0.94816016"
       inkscape:flatsided="true"
       inkscape:rounded="0"
       inkscape:randomized="0"
       d="M 35.379309,29.01598 26.01978,35.735152 15.521042,30.989147 14.381834,19.523971 23.741363,12.8048 34.240101,17.550805 Z"
       transform="matrix(0.96296229,0.08354109,-0.08354109,0.96296229,2.5895139,-1.0856248)" />
  </g>
</svg>
