<?xml version="1.0" encoding="UTF-8" standalone="no"?>
<!-- Created with Inkscape (http://www.inkscape.org/) -->

<svg
   xmlns:dc="http://purl.org/dc/elements/1.1/"
   xmlns:cc="http://creativecommons.org/ns#"
   xmlns:rdf="http://www.w3.org/1999/02/22-rdf-syntax-ns#"
   xmlns:svg="http://www.w3.org/2000/svg"
   xmlns="http://www.w3.org/2000/svg"
   version="1.1"
   width="1000"
   height="1000"
   id="svg3058"
   xml:space="preserve"><metadata
     id="metadata3064"><rdf:RDF><cc:Work
         rdf:about=""><dc:format>image/svg+xml</dc:format><dc:type
           rdf:resource="http://purl.org/dc/dcmitype/StillImage" /><dc:title></dc:title></cc:Work></rdf:RDF></metadata><defs
     id="defs3062"><clipPath
       id="clipPath3072"><path
         d="M 0,800 800,800 800,0 0,0 0,800 z"
         id="path3074" /></clipPath></defs><g
     transform="matrix(1.25,0,0,-1.25,0,1000)"
     id="g3066"><g
       id="g3068"><g
         clip-path="url(#clipPath3072)"
         id="g3070"><g
           transform="translate(618.9307,277.3125)"
           id="g3076"><path
             d="m 0,0 c -112.9,78.906 -205.863,0 -205.863,0 l -1.537,219.605 c 117.524,93.315 207.4,0 207.4,0 L 0,0 z m -232.22,3.854 c 0,0 -92.958,78.91 -205.849,0 l 0,219.61 c 0,0 89.867,93.318 207.386,0 L -232.22,3.854 z m 13.296,243.57 c 0,0 -112.451,130.711 -259.505,0 l 1.913,-307.567 c 0,0 116.31,110.512 257.592,0 141.278,110.512 257.583,0 257.583,0 l 1.908,307.567 c -147.048,130.711 -259.491,0 -259.491,0"
             id="path3078"
             style="fill:#404040;fill-opacity:1;fill-rule:nonzero;stroke:none" /></g></g></g></g></svg>