<?xml version="1.0" encoding="UTF-8" standalone="no"?>
<!-- Created with Inkscape (http://www.inkscape.org/) -->

<svg
   xmlns:dc="http://purl.org/dc/elements/1.1/"
   xmlns:cc="http://creativecommons.org/ns#"
   xmlns:rdf="http://www.w3.org/1999/02/22-rdf-syntax-ns#"
   xmlns:svg="http://www.w3.org/2000/svg"
   xmlns="http://www.w3.org/2000/svg"
   xmlns:sodipodi="http://sodipodi.sourceforge.net/DTD/sodipodi-0.dtd"
   xmlns:inkscape="http://www.inkscape.org/namespaces/inkscape"
   width="48px"
   height="48px"
   id="svg3190"
   version="1.1"
   inkscape:version="0.48.2 r9819"
   sodipodi:docname="coot_script_lines.svg">
  <defs
     id="defs3192" />
  <sodipodi:namedview
     id="base"
     pagecolor="#ffffff"
     bordercolor="#666666"
     borderopacity="1.0"
     inkscape:pageopacity="0.0"
     inkscape:pageshadow="2"
     inkscape:zoom="1.75"
     inkscape:cx="10"
     inkscape:cy="24"
     inkscape:current-layer="g3100"
     showgrid="true"
     inkscape:grid-bbox="true"
     inkscape:document-units="px"
     inkscape:window-width="1366"
     inkscape:window-height="720"
     inkscape:window-x="0"
     inkscape:window-y="0"
     inkscape:window-maximized="1" />
  <metadata
     id="metadata3195">
    <rdf:RDF>
      <cc:Work
         rdf:about="">
        <dc:format>image/svg+xml</dc:format>
        <dc:type
           rdf:resource="http://purl.org/dc/dcmitype/StillImage" />
        <dc:title />
      </cc:Work>
    </rdf:RDF>
  </metadata>
  <g
     id="layer1"
     inkscape:label="Layer 1"
     inkscape:groupmode="layer">
    <g
       id="g3100"
       transform="matrix(0.127173,0,0,0.13096743,-66.91732,-16.036755)"
       style="fill:none;stroke:#000000;stroke-width:2.64207029;stroke-linecap:butt;stroke-linejoin:miter;stroke-miterlimit:4;stroke-opacity:1;stroke-dasharray:none;stroke-dashoffset:0">
      <path
         style="fill:none;stroke:#000000;stroke-width:0.33104628;stroke-linecap:butt;stroke-linejoin:miter;stroke-miterlimit:4;stroke-opacity:1;stroke-dasharray:none;stroke-dashoffset:0"
         d="m 40.53125,7.1875 c -1.036022,0.0026 -1.257025,0.01001 -1.71875,0.125 -0.855941,0.2131759 -1.595796,0.7099321 -2.59375,1.75 -1.199985,1.250634 -1.84451,2.358785 -2.21875,3.84375 -0.03547,0.140747 -0.07019,0.250501 -0.09375,0.25 -0.02356,-5.58e-4 -0.252045,-0.145209 -0.5,-0.34375 -1.466996,-1.174624 -4.363542,-2.024011 -7.8125,-2.25 -2.239262,-0.14672 -3.96697,0.04274 -5.6875,0.625 -1.868509,0.632335 -5.347806,2.345828 -8.25,4.0625 -2.030647,1.201147 -2.3889925,1.324516 -5.40625,1.96875 -1.0744547,0.229417 -1.319872,0.326581 -1.40625,0.4375 -0.1986413,0.255071 -0.53125,0.907782 -0.53125,1.0625 0,0.198651 0.331259,0.373674 0.875,0.46875 0.6161269,0.107734 1.5625,0.472418 1.5625,0.59375 0,0.09125 -0.8557469,0.894157 -1.0625,1 C 5.558656,20.84721 4.9747053,20.998395 4.375,21.125 1.6059968,21.709551 0.3714492,22.133766 0.5,22.46875 c 0.050346,0.131208 0.9345224,0.535925 1.5625,0.71875 0.5840606,0.170032 1.5289757,0.317771 2.46875,0.375 0.6945447,0.04229 0.7128359,0.07429 0.71875,0.6875 l 0,0.375 0.3125,0.21875 c 2.7309126,1.807485 6.786777,4.194431 7.75,4.5625 0.471819,0.18029 0.492316,0.17488 0.78125,1.0625 0.107798,0.331162 0.427019,1.106104 0.71875,1.71875 0.651388,1.367949 0.710461,1.643804 0.6875,2.34375 l 0,0.53125 -0.71875,0 -0.71875,0 -0.5,0.25 c -0.423351,0.221065 -0.72558,0.338996 -1.53125,0.53125 -0.189343,0.04518 -0.362203,0.200844 -0.3125,0.28125 0.0191,0.03092 0.142754,0.116541 0.28125,0.1875 0.199982,0.102462 0.343543,0.126128 0.75,0.125 0.512736,-0.0013 0.733442,-0.06673 2.28125,-0.5625 l 0.375,-0.125 0,0.34375 c 0,0.447198 0.232099,0.948682 0.65625,1.375 0.332513,0.334214 1.327654,1.043912 1.84375,1.3125 0.315859,0.164376 0.329613,0.163376 0.59375,0.0625 0.146344,-0.05589 0.366968,-0.196574 0.46875,-0.3125 l 0.1875,-0.1875 -0.34375,-0.40625 -0.34375,-0.40625 0.1875,0.0625 c 1.174023,0.197891 2.582749,0.24499 6.03125,0.21875 1.665751,-0.01268 1.823193,0.01256 2.875,0.46875 0.3076,0.133412 0.584628,0.25 0.59375,0.25 0.0091,0 -0.02594,-0.111123 -0.0625,-0.21875 C 27.98005,37.97777 27.691545,37.67175 27,37.15625 26.633196,36.882825 26.211523,36.586939 26.0625,36.46875 L 25.78125,36.25 23.5,36.21875 c -1.258417,-0.01752 -2.573225,-0.05929 -2.9375,-0.09375 -0.685633,-0.06485 -2.644119,-0.373607 -3.15625,-0.5 l -0.28125,-0.09375 -0.03125,-0.875 c -0.05164,-1.152284 -0.249003,-1.834732 -1.03125,-3.875 -0.198993,-0.519013 -0.34375,-0.981222 -0.34375,-1.03125 0,-0.07666 0.07548,-0.09528 0.46875,-0.0625 3.1215,0.260217 5.234273,0.653138 6.9375,1.25 0.542358,0.190058 0.776499,0.249624 1.09375,0.25 0.480077,7.57e-4 0.513626,0.04486 0.65625,0.65625 0.05009,0.214722 0.124005,0.395499 0.15625,0.40625 0.03225,0.01075 0.103967,0.155101 0.15625,0.3125 0.07603,0.228916 0.175836,0.326995 0.5,0.59375 0.409023,0.336589 1.47012,1.367702 3.75,3.59375 1.714906,1.674414 2.184696,2.060058 3.125,2.53125 1.546702,0.775049 2.36463,1.039836 3.3125,1.125 0.21526,0.01933 1.137116,0.07587 2.03125,0.125 0.894131,0.04912 1.681899,0.126061 1.78125,0.15625 0.09934,0.03019 0.255833,0.05967 0.3125,0.0625 0.119132,0.006 0.342697,-0.250631 0.3125,-0.34375 -0.07292,-0.224895 -1.288074,-0.47605 -3.875,-0.8125 -0.537298,-0.06988 -1.039215,-0.133304 -1.125,-0.15625 -0.08579,-0.02296 0.914923,-0.04378 2.25,-0.03125 1.745612,0.01638 2.495481,0.039 2.65625,0.09375 C 40.471875,39.5862 40.5,39.57714 40.5,39.375 40.5,39.095959 40.335273,38.883519 40.0625,38.8125 39.534471,38.675022 39.518548,38.660252 39.5,38.53125 39.48978,38.4602 39.43102,38.398126 39.375,38.375 39.31898,38.35187 38.724828,38.30995 38.0625,38.28125 35.642307,38.176379 34.824098,38.094642 34.34375,37.96875 33.433139,37.730096 32.086712,37.111153 31.4375,36.625 c -0.497415,-0.372476 -3.54278,-3.369551 -4,-3.9375 -0.270481,-0.335963 -0.345111,-0.46947 -0.375,-0.6875 -0.02096,-0.15297 -0.118711,-0.458072 -0.21875,-0.65625 -0.363129,-0.719362 -0.228186,-0.969149 0.875,-1.5625 2.8279,-1.520997 6.717208,-4.126985 8.4375,-5.6875 1.312586,-1.190671 2.163202,-2.356035 2.71875,-3.71875 l 0.1875,-0.5 0.0625,-1.8125 c 0.07206,-2.076669 0.157734,-3.311601 0.25,-3.65625 0.10197,-0.380931 0.259773,-0.660992 0.53125,-0.90625 0.524124,-0.473516 0.98164,-0.582288 2.75,-0.625 1.392604,-0.03364 1.691703,0.0045 2.25,0.21875 0.183549,0.07043 0.04907,-0.11806 -0.15625,-0.21875 -0.22226,-0.108988 -0.726397,-0.658469 -0.90625,-1 -0.125319,-0.237959 -0.128496,-0.733011 0,-0.875 0.05502,-0.06079 0.221079,-0.13572 0.34375,-0.15625 0.122659,-0.02052 0.262828,-0.06107 0.3125,-0.09375 0.07594,-0.04997 0.04775,-0.07288 -0.09375,-0.1875 -0.135172,-0.109489 -0.177199,-0.204609 -0.21875,-0.5 C 44.159059,9.8602476 44.000708,9.3529946 43.84375,8.9375 43.561942,8.191558 43.54178,7.8896914 43.75,8.0625 c 0.156204,0.1296409 0.530235,0.829633 0.625,1.15625 0.132795,0.4576888 0.239618,0.6238937 0.78125,1.21875 0.271383,0.298046 0.689298,0.772737 0.9375,1.0625 0.397494,0.464054 0.624743,0.644341 0.5625,0.46875 -0.02647,-0.07467 -0.560174,-0.717898 -1.1875,-1.4375 C 44.737214,9.6921063 44.653797,9.5945683 44.5,9.125 44.217903,8.2637788 43.700118,7.6914924 43,7.46875 42.259096,7.2330293 41.794283,7.1843425 40.53125,7.1875 z m 6.5,5.5 c -0.02636,0.02356 -0.0016,0.125248 0.125,0.375 0.124469,0.245627 0.218484,0.527504 0.15625,0.53125 -0.0083,5.02e-4 -0.148796,0.04603 -0.28125,0.09375 l -0.21875,0.09375 0.25,0 C 47.313946,13.783891 47.5,13.652052 47.5,13.5 c 0,-0.126168 -0.372663,-0.8125 -0.4375,-0.8125 -0.02148,0 -0.02246,-0.0079 -0.03125,0 z m -1.71875,0.46875 c -0.262974,-0.0022 -0.04332,0.138314 0.4375,0.28125 0.289773,0.08614 0.529379,0.175847 0.5625,0.1875 0.108805,0.03831 0.15625,0.02478 0.15625,-0.03125 0,-0.0753 -0.946417,-0.435771 -1.15625,-0.4375 z m -25.216706,2.687804 c 0.921501,8e-6 1.700151,0.353313 2.29224,1.087844 0.592071,0.73009 0.893576,1.683166 0.893584,2.836161 -8e-6,1.153003 -0.301513,2.101628 -0.893584,2.836163 -0.592089,0.730084 -1.370739,1.087842 -2.29224,1.087842 -0.52086,0 -0.959154,-0.10604 -1.359805,-0.310812 -0.40066,-0.209231 -0.758417,-0.535018 -1.087842,-0.971288 l 0,3.924005 -2.408795,0 0,-10.334508 2.408795,0 0,1.087843 c 0.329425,-0.436264 0.687182,-0.72765 1.087842,-0.932437 0.400651,-0.209226 0.838945,-0.310805 1.359805,-0.310813 z m 4.58448,0.155407 2.408795,0 2.02028,5.08955 1.709467,-5.08955 2.369944,0 -3.146974,8.197674 c -0.316079,0.832472 -0.664933,1.418888 -1.087844,1.748318 -0.418467,0.333878 -0.980599,0.50507 -1.670616,0.50507 l -1.398655,0 0,-1.592912 0.738179,0 c 0.405106,0 0.711062,-0.06516 0.893586,-0.194258 0.18697,-0.129102 0.324974,-0.365448 0.427366,-0.699328 l 0.07771,-0.194258 z m -5.439214,1.554061 c -0.511956,6e-6 -0.928394,0.20438 -1.204398,0.582773 -0.27156,0.373951 -0.38852,0.923943 -0.388515,1.631764 -5e-6,0.707831 0.116952,1.25337 0.388515,1.631765 0.276004,0.373948 0.692442,0.543923 1.204398,0.543921 0.511943,2e-6 0.898434,-0.169973 1.165545,-0.543921 0.271549,-0.373944 0.388508,-0.919483 0.388516,-1.631765 -8e-6,-0.712273 -0.116966,-1.257812 -0.388516,-1.631764 -0.267111,-0.373939 -0.653602,-0.582767 -1.165545,-0.582773 z m -8.353081,3.341232 2.408796,0 0,2.603052 -2.408796,0 z"
         id="path4119"
         inkscape:connector-curvature="0"
         transform="matrix(7.9809695,0,0,7.9809695,524.49114,108.32854)"
         sodipodi:nodetypes="sssscsssssssssssccscccssscccccccscccsssscccccssscscccccccsscscsccssscccccscssssccsssccsssccccsscccccccccsssscscssccccccssccscscccccsccccccccccccccccsccsccccccccsccccccccc" />
    </g>
    <g
       style="font-size:14px;font-style:normal;font-weight:normal;line-height:125%;letter-spacing:0px;word-spacing:0px;fill:#ffffff;fill-opacity:1;stroke:none;font-family:Sans;stroke-opacity:1"
       id="text3805" />
  </g>
</svg>
