<?xml version="1.0" encoding="UTF-8" standalone="no"?>
<!-- Created with Inkscape (http://www.inkscape.org/) -->

<svg
   width="48px"
   height="48px"
   id="svg3190"
   version="1.1"
   inkscape:version="1.1.1 (c3084ef, 2021-09-22)"
   sodipodi:docname="coot_morph.svg"
   inkscape:export-filename="/Users/stuart/ccp4i2-pyside2/svgicons/coot_morph.png"
   inkscape:export-xdpi="96"
   inkscape:export-ydpi="96"
   xmlns:inkscape="http://www.inkscape.org/namespaces/inkscape"
   xmlns:sodipodi="http://sodipodi.sourceforge.net/DTD/sodipodi-0.dtd"
   xmlns:xlink="http://www.w3.org/1999/xlink"
   xmlns="http://www.w3.org/2000/svg"
   xmlns:svg="http://www.w3.org/2000/svg"
   xmlns:rdf="http://www.w3.org/1999/02/22-rdf-syntax-ns#"
   xmlns:cc="http://creativecommons.org/ns#"
   xmlns:dc="http://purl.org/dc/elements/1.1/">
  <defs
     id="defs3192">
    <linearGradient
       id="linearGradient6104">
      <stop
         style="stop-color:#706773;stop-opacity:1;"
         offset="0"
         id="stop6106" />
      <stop
         style="stop-color:#000000;stop-opacity:1;"
         offset="1"
         id="stop6108" />
    </linearGradient>
    <linearGradient
       inkscape:collect="always"
       xlink:href="#linearGradient6104"
       id="linearGradient197"
       gradientUnits="userSpaceOnUse"
       gradientTransform="matrix(0.02866025,-0.00389198,0.00354789,0.03332245,74.737006,34.759563)"
       x1="-1823.2515"
       y1="-661.48767"
       x2="-1255.1293"
       y2="-1081.7112" />
  </defs>
  <sodipodi:namedview
     id="base"
     pagecolor="#ffffff"
     bordercolor="#666666"
     borderopacity="1.0"
     inkscape:pageopacity="0.0"
     inkscape:pageshadow="2"
     inkscape:zoom="9.8994949"
     inkscape:cx="14.495689"
     inkscape:cy="24.849753"
     inkscape:current-layer="layer1"
     showgrid="true"
     inkscape:grid-bbox="true"
     inkscape:document-units="px"
     inkscape:window-width="1310"
     inkscape:window-height="732"
     inkscape:window-x="20"
     inkscape:window-y="25"
     inkscape:window-maximized="0"
     inkscape:pagecheckerboard="0" />
  <metadata
     id="metadata3195">
    <rdf:RDF>
      <cc:Work
         rdf:about="">
        <dc:format>image/svg+xml</dc:format>
        <dc:type
           rdf:resource="http://purl.org/dc/dcmitype/StillImage" />
        <dc:title />
      </cc:Work>
    </rdf:RDF>
  </metadata>
  <g
     id="layer1"
     inkscape:label="Layer 1"
     inkscape:groupmode="layer">
    <path
       style="fill:url(#linearGradient197);fill-opacity:1;stroke-width:0.94989"
       d="m 36.412177,34.847179 c -0.09014,-0.01891 -0.807941,0.0117 -1.595122,0.06788 -0.78718,0.05624 -1.586945,0.107046 -1.777267,0.112955 -0.838069,0.02599 -1.587212,-0.164512 -3.02359,-0.768829 -0.873246,-0.367393 -1.317016,-0.691623 -2.997835,-2.190323 -2.234555,-1.992451 -3.278516,-2.900355 -3.672619,-3.193989 -0.31233,-0.232706 -0.413299,-0.346891 -0.504558,-0.570598 -0.06278,-0.153813 -0.13812,-0.285468 -0.167478,-0.292568 -0.02937,-0.007 -0.108234,-0.186656 -0.175283,-0.399021 -0.190898,-0.604639 -0.241242,-0.649842 -0.661124,-0.593607 -0.277472,0.03716 -0.491171,0.01181 -0.985993,-0.117024 -1.553971,-0.404568 -3.443715,-0.535378 -6.201418,-0.429269 -0.347444,0.01336 -0.410701,0.0304 -0.402407,0.108311 0.0054,0.0509 0.198184,0.504874 0.428372,1.008913 0.90487,1.98141 1.137044,2.661182 1.306936,3.826549 l 0.128704,0.882975 0.263007,0.03858 c 0.461507,0.06769 2.193579,0.15235 2.800145,0.13687 0.322274,-0.0082 1.487814,-0.122641 2.590102,-0.254262 l 2.004174,-0.239314 0.260184,0.186298 c 0.143107,0.102472 0.546831,0.378111 0.89717,0.612532 0.660513,0.441985 0.948769,0.720323 1.084427,1.047134 0.0436,0.10509 0.07279,0.191945 0.06479,0.193033 -0.008,0.0011 -0.246399,-0.07913 -0.529809,-0.178238 -0.969116,-0.3389 -1.126094,-0.347204 -2.581317,-0.136517 -3.012639,0.436178 -4.238254,0.549155 -5.286278,0.487396 l -0.18511,-0.01091 0.343683,0.357985 0.343676,0.357983 -0.13902,0.236272 c -0.07645,0.129947 -0.238757,0.296974 -0.360671,0.371175 -0.220054,0.133916 -0.223828,0.133951 -0.517818,0.0044 -0.48036,-0.211815 -1.434611,-0.817113 -1.761545,-1.117415 -0.417039,-0.383064 -0.680466,-0.857171 -0.728873,-1.311836 l -0.03747,-0.351897 -0.316018,0.16723 c -1.299785,0.687835 -1.479996,0.765164 -1.928204,0.827389 -0.355276,0.0496 -0.495581,0.04126 -0.681542,-0.03915 -0.128782,-0.05569 -0.250569,-0.125131 -0.270623,-0.154299 -0.05213,-0.07586 0.0855,-0.25883 0.246168,-0.327255 0.68369,-0.291131 0.942345,-0.433309 1.28861,-0.708329 l 0.400982,-0.318477 0.631726,-0.08647 0.63174,-0.08646 -0.04244,-0.54413 C 14.539654,30.744487 14.442817,30.490535 13.725119,29.177127 13.403702,28.588899 13.034277,27.842632 12.904171,27.518747 12.555434,26.650633 12.547495,26.640508 12.115405,26.513236 11.233289,26.253409 7.4278909,24.306474 4.8442353,22.793135 L 4.5594125,22.626299 4.5136488,22.229811 C 4.4421193,21.607078 4.4105215,21.580094 3.7986022,21.61957 2.9706376,21.672967 2.1417816,21.642383 1.6126569,21.538865 1.0437351,21.427564 0.21358395,21.11157 0.15535169,20.984155 0.00668973,20.658844 1.0361852,20.077127 3.3942131,19.15402 3.9049122,18.954094 4.4090951,18.723131 4.5146261,18.640767 4.683964,18.508611 5.3320914,17.59435 5.3222133,17.501575 5.3090794,17.378219 4.4437186,17.132964 3.8932885,17.096601 3.4075359,17.064501 3.1253422,16.93429 3.1038386,16.732324 3.087091,16.575027 3.3016409,15.844802 3.4477206,15.561889 3.5112563,15.438864 3.7116232,15.339757 4.6263268,14.978927 7.1949738,13.96566 7.4907694,13.791912 9.1364078,12.3296 11.488366,10.239668 14.333513,8.0937184 15.898944,7.2289633 17.340417,6.432683 18.832713,6.0337585 20.806679,5.9170255 c 3.04034,-0.1797939 5.676716,0.3179623 7.086646,1.3379708 0.238318,0.1724069 0.450207,0.3116447 0.470873,0.3094164 0.02064,-0.00217 0.05047,-0.1245724 0.06625,-0.2718735 0.166498,-1.5541791 0.608858,-2.7694183 1.522791,-4.1834007 0.760053,-1.1759159 1.336729,-1.7560247 2.062123,-2.0744016 0.391293,-0.17173444 0.60186,-0.22001844 1.507508,-0.34568344 1.10408,-0.1533348 1.511977,-0.1535591 2.185359,-0.00188 0.63632,0.1433211 1.154131,0.66601474 1.494029,1.50810234 0.185323,0.4591304 0.249608,0.5451426 0.980124,1.3114194 0.626443,0.6571055 1.162727,1.2522683 1.193958,1.3250427 0.07345,0.1711266 -0.130947,0.011641 -0.528784,-0.4131761 C 38.599159,4.1534331 38.175367,3.71496 37.905805,3.4441643 37.367793,2.9037057 37.27129,2.7679395 37.105626,2.3183888 36.987408,1.9975756 36.56207,1.3108544 36.411439,1.1975992 c -0.200781,-0.1509628 -0.132211,0.160411 0.194949,0.8853261 0.182232,0.4037876 0.369603,0.899637 0.416368,1.101885 0.0683,0.2953842 0.116888,0.3910587 0.246941,0.4863165 0.136145,0.099736 0.150364,0.1299147 0.08937,0.1897349 -0.0399,0.039078 -0.158486,0.1001173 -0.263525,0.1355675 -0.105046,0.035411 -0.224956,0.1203427 -0.266489,0.1886799 -0.09699,0.1596137 -0.04723,0.6614431 0.08803,0.8884921 0.194237,0.3258686 0.690452,0.834368 0.896592,0.9187887 0.190437,0.077982 0.318309,0.2394243 0.150184,0.1896115 -0.511378,-0.1515128 -0.753944,-0.14476 -1.96805,0.054757 -1.541677,0.2534363 -1.932173,0.4131251 -2.339227,0.9567753 -0.21084,0.2815916 -0.323329,0.5776251 -0.371267,0.9770162 -0.04338,0.3613537 0.01782,1.6435267 0.17959,3.7633881 l 0.140747,1.843894 -0.119574,0.513044 c -0.338281,1.451407 -0.958152,2.73842 -1.977031,4.10481 -1.335365,1.790815 -4.434635,4.915144 -6.742793,6.797305 -0.900436,0.734244 -0.998911,1.011617 -0.603505,1.699851 0.108927,0.189605 0.226599,0.469945 0.261497,0.622982 0.04974,0.218122 0.138659,0.363544 0.411538,0.672991 0.461296,0.523124 3.421371,3.186658 3.896639,3.506285 0.620325,0.417166 1.888785,0.902296 2.710886,1.036801 0.433663,0.07096 1.158659,0.03988 3.28631,-0.140898 0.582259,-0.04948 1.100787,-0.07615 1.152273,-0.05928 0.05146,0.0169 0.107211,0.08876 0.123837,0.159779 0.03017,0.128961 0.0567,0.139731 0.533305,0.216801 0.246209,0.03982 0.412508,0.234456 0.442715,0.518151 0.02187,0.205506 -0.0071,0.226019 -0.23775,0.168444 -0.146506,-0.03655 -0.800624,0.02354 -2.328807,0.214229 -1.168798,0.145793 -2.061676,0.275844 -1.984172,0.288974 0.07749,0.01315 0.531496,0.02982 1.008886,0.03705 2.298515,0.03487 3.39203,0.151647 3.480139,0.371631 0.03648,0.09108 -0.148719,0.359769 -0.25354,0.367829 -0.04983,0.004 -0.164404,-0.0085 -0.254542,-0.0274 z M 39.912721,6.5232003 c 0.110665,-0.064275 0.207091,-0.1180215 0.214274,-0.1195219 0.054,-0.011452 -0.0418,-0.3008279 -0.177218,-0.5357721 -0.183602,-0.3185184 -0.192809,-0.3464212 -0.117675,-0.3566234 0.0567,-0.00772 0.443168,0.6546158 0.456825,0.7828868 0.01645,0.154589 -0.136959,0.2914819 -0.357122,0.3186513 l -0.220301,0.02714 0.201211,-0.1168128 z m -0.638199,0.025747 C 39.244313,6.5409963 39.004637,6.491041 38.74193,6.4378696 38.306008,6.3496477 38.113719,6.240095 38.343901,6.2110877 c 0.18371,-0.022883 1.051442,0.218489 1.059593,0.2950466 0.0061,0.057004 -0.0297,0.068852 -0.12897,0.042822 z"
       id="path5594-8"
       inkscape:connector-curvature="0" />
    <path
       style="fill:none;fill-opacity:1;stroke:#000000;stroke-width:0.96547;stroke-opacity:1"
       d="m 46.728543,41.192844 c -0.09947,0.0061 -0.859385,0.221671 -1.688761,0.479118 -0.829372,0.257483 -1.673115,0.513244 -1.874996,0.568375 -0.888976,0.242783 -1.721414,0.261946 -3.359761,0.07743 -0.99603,-0.112179 -1.526515,-0.296485 -3.583618,-1.245082 -2.734806,-1.261126 -4.008422,-1.829066 -4.480538,-1.998015 -0.37416,-0.133886 -0.502019,-0.213194 -0.638851,-0.396495 -0.09414,-0.126005 -0.197742,-0.228191 -0.230254,-0.227153 -0.03255,0.0012 -0.148384,-0.144545 -0.257436,-0.323606 -0.310442,-0.509857 -0.372108,-0.538565 -0.809861,-0.376924 -0.289275,0.106797 -0.52161,0.13911 -1.071977,0.148992 -1.728414,0.03108 -3.766436,0.403158 -6.688009,1.221064 -0.368099,0.10301 -0.432525,0.135324 -0.409907,0.205275 0.01472,0.04571 0.300566,0.415615 0.635117,0.822094 1.31511,1.59791 1.682842,2.166542 2.070023,3.200911 l 0.293339,0.783723 0.287242,-0.03293 c 0.504038,-0.05779 2.365785,-0.431446 3.009787,-0.604072 0.342171,-0.09168 1.564664,-0.501808 2.716679,-0.911305 l 2.094592,-0.744557 0.310347,0.104551 c 0.170695,0.05752 0.6499,0.207279 1.064882,0.332845 0.782406,0.236723 1.138955,0.419147 1.341382,0.686246 0.06507,0.08589 0.111554,0.15868 0.10322,0.161759 -0.0083,0.003 -0.276701,-0.009 -0.596409,-0.02672 -1.093213,-0.06078 -1.262059,-0.02749 -2.776403,0.547294 -3.135037,1.189965 -4.421847,1.614394 -5.550196,1.830736 l -0.199302,0.03821 0.429732,0.241681 0.42973,0.241662 -0.106409,0.254999 c -0.05852,0.140247 -0.20206,0.337199 -0.318934,0.437694 -0.210949,0.181389 -0.214961,0.182412 -0.551333,0.139204 -0.549624,-0.07069 -1.674084,-0.381946 -2.075766,-0.574599 -0.512388,-0.245728 -0.877077,-0.615841 -1.009076,-1.024062 l -0.102169,-0.315943 -0.307376,0.237266 c -1.264257,0.975895 -1.442729,1.094506 -1.909618,1.269075 -0.370041,0.138624 -0.521113,0.167516 -0.733601,0.141625 -0.147152,-0.01796 -0.289282,-0.05046 -0.315835,-0.07216 -0.06897,-0.05665 0.0455,-0.261872 0.2046,-0.367169 0.677497,-0.447905 0.928145,-0.647017 1.248721,-0.99195 l 0.371243,-0.399425 0.658276,-0.244896 0.65829,-0.244901 -0.14145,-0.492591 C 22.682177,43.10343 22.534034,42.893633 21.536593,41.865198 21.08987,41.404619 20.564064,40.810231 20.368072,40.544393 19.842757,39.831845 19.8325,39.824546 19.349295,39.819505 18.362821,39.809163 13.96119,39.000168 10.93888,38.273574 L 10.605701,38.19346 10.486802,37.838401 C 10.30042,37.280672 10.261959,37.263943 9.6164878,37.460195 8.7431304,37.725698 7.8539763,37.9137 7.2715067,37.955966 c -0.6262749,0.04545 -1.5672712,-0.0304 -1.6518873,-0.133144 -0.2160224,-0.262325 0.7788034,-1.069455 3.1297901,-2.5393 0.5091729,-0.318335 1.0059121,-0.663704 1.1038693,-0.767484 0.1571702,-0.166539 0.6865932,-1.181936 0.6596562,-1.265239 -0.03584,-0.110728 -1.0018411,-0.111974 -1.5951555,-0.0019 -0.5235953,0.09706 -0.8474995,0.05016 -0.9061323,-0.131174 -0.045663,-0.141222 0.053987,-0.873142 0.1597219,-1.173142 0.046034,-0.13044 0.2421239,-0.274465 1.1535926,-0.847196 2.5596103,-1.608268 2.8442773,-1.84629 4.3403643,-3.629326 2.138219,-2.548312 4.792387,-5.277191 6.308599,-6.486181 1.396152,-1.113251 2.916747,-1.871963 5.000804,-2.495169 3.209901,-0.959874 6.108876,-1.187161 7.792519,-0.610962 0.284579,0.0974 0.535126,0.170963 0.55676,0.163513 0.02163,-0.0074 0.03187,-0.128464 0.02257,-0.268944 -0.09726,-1.482058 0.159543,-2.722369 0.884012,-4.269714 0.602489,-1.286823 1.11479,-1.974291 1.831935,-2.458304 0.386843,-0.26108 0.60282,-0.360725 1.546226,-0.713396 1.150089,-0.4300674 1.58496,-0.536726 2.329755,-0.5720639 0.703798,-0.033393 1.348315,0.3152829 1.859606,1.0060459 0.278772,0.376621 0.362517,0.439468 1.276894,0.95811 0.784108,0.444746 1.461131,0.855699 1.507298,0.914911 0.108582,0.139236 -0.137555,0.04496 -0.636844,-0.244438 -0.311733,-0.180614 -0.841111,-0.475878 -1.176396,-0.656199 -0.669183,-0.359889 -0.796098,-0.460344 -1.05221,-0.83323 -0.182773,-0.266099 -0.757692,-0.79075 -0.938316,-0.856278 -0.240774,-0.087328 -0.112612,0.182977 0.364387,0.768611 0.265685,0.326204 0.553136,0.736279 0.638755,0.911282 0.12505,0.255597 0.193768,0.331474 0.349278,0.385704 0.162799,0.05678 0.183291,0.08101 0.128819,0.152307 -0.03553,0.04663 -0.151278,0.134035 -0.257009,0.194259 -0.105733,0.06021 -0.21858,0.170098 -0.250775,0.244199 -0.07519,0.173061 0.06659,0.624581 0.250945,0.799445 0.264705,0.250952 0.883692,0.592135 1.118409,0.616486 0.216834,0.02248 0.381722,0.138542 0.193648,0.136313 -0.572028,-0.0068 -0.829464,0.0628 -2.088702,0.564296 -1.59897,0.636929 -1.987093,0.886653 -2.324986,1.496105 -0.175019,0.315676 -0.242588,0.619064 -0.223111,1.001252 0.01759,0.345807 0.309571,1.516658 0.85685,3.436659 l 0.476069,1.670042 -0.0368,0.506094 c -0.104074,1.431757 -0.537446,2.784835 -1.382231,4.315515 -1.107183,2.006139 -3.859322,5.706958 -5.987573,8.051524 -0.830283,0.914604 -0.886213,1.197077 -0.342937,1.73094 0.149682,0.147055 0.32469,0.375866 0.388955,0.508417 0.0916,0.188919 0.212117,0.300318 0.557778,0.51554 0.584333,0.363836 4.211356,2.056794 4.774609,2.228621 0.735164,0.224249 2.173398,0.342273 3.073725,0.252228 0.474928,-0.04749 1.242441,-0.265469 3.479036,-0.988059 0.612073,-0.197757 1.160224,-0.357768 1.218105,-0.355592 0.05783,0.0024 0.129994,0.05421 0.160284,0.115581 0.05498,0.111487 0.08516,0.114518 0.606957,0.06149 0.269557,-0.02747 0.481275,0.109376 0.56364,0.364084 0.05965,0.18451 0.03242,0.211053 -0.223706,0.217964 -0.162677,0.0044 -0.849478,0.230762 -2.445159,0.806061 -1.220427,0.439976 -2.149445,0.793375 -2.064485,0.785303 0.08494,-0.008 0.571968,-0.111099 1.082252,-0.228995 2.4569,-0.567574 3.643481,-0.744865 3.776316,-0.564233 0.05499,0.07478 -0.09497,0.371824 -0.205327,0.406627 -0.05242,0.01673 -0.176804,0.035 -0.276245,0.04107 z M 45.453229,14.06161 c 0.106627,-0.08837 0.199943,-0.163286 0.207335,-0.166554 0.05556,-0.0247 -0.09775,-0.26755 -0.283685,-0.449677 -0.252034,-0.246963 -0.266838,-0.270325 -0.188516,-0.299394 0.05908,-0.02192 0.588255,0.490278 0.625489,0.605453 0.04487,0.138792 -0.09446,0.305557 -0.324431,0.388154 l -0.230086,0.08262 0.193886,-0.160637 z m -0.675912,0.190385 c -0.0336,4.89e-4 -0.297996,0.01685 -0.587504,0.03613 -0.480389,0.03213 -0.704783,-0.01906 -0.464493,-0.105994 0.19183,-0.06912 1.159704,-0.07215 1.181928,-0.0034 0.01654,0.05117 -0.01953,0.07145 -0.129944,0.07329 z"
       id="path5594-8-5-4-2-5"
       inkscape:connector-curvature="0" />
  </g>
</svg>
