<?xml version="1.0" encoding="UTF-8" standalone="no"?>
<!-- Created with Inkscape (http://www.inkscape.org/) -->

<svg
   xmlns:dc="http://purl.org/dc/elements/1.1/"
   xmlns:cc="http://creativecommons.org/ns#"
   xmlns:rdf="http://www.w3.org/1999/02/22-rdf-syntax-ns#"
   xmlns:svg="http://www.w3.org/2000/svg"
   xmlns="http://www.w3.org/2000/svg"
   xmlns:xlink="http://www.w3.org/1999/xlink"
   xmlns:sodipodi="http://sodipodi.sourceforge.net/DTD/sodipodi-0.dtd"
   xmlns:inkscape="http://www.inkscape.org/namespaces/inkscape"
   width="48px"
   height="48px"
   id="svg3190"
   version="1.1"
   inkscape:version="0.48.2 r9819"
   sodipodi:docname="coot_rebuild.svg">
  <defs
     id="defs3192">
    <linearGradient
       id="linearGradient6104">
      <stop
         style="stop-color:#706773;stop-opacity:1;"
         offset="0"
         id="stop6106" />
      <stop
         style="stop-color:#000000;stop-opacity:1;"
         offset="1"
         id="stop6108" />
    </linearGradient>
    <linearGradient
       inkscape:collect="always"
       xlink:href="#linearGradient6104"
       id="linearGradient6110"
       x1="-1823.2515"
       y1="-661.48767"
       x2="-1255.1293"
       y2="-1081.7112"
       gradientUnits="userSpaceOnUse"
       gradientTransform="matrix(0.03276826,0,0,0.03276826,82.779151,46.672611)" />
  </defs>
  <sodipodi:namedview
     id="base"
     pagecolor="#ffffff"
     bordercolor="#666666"
     borderopacity="1.0"
     inkscape:pageopacity="0.0"
     inkscape:pageshadow="2"
     inkscape:zoom="3.5"
     inkscape:cx="-2.8151335"
     inkscape:cy="24.999995"
     inkscape:current-layer="layer1"
     showgrid="true"
     inkscape:grid-bbox="true"
     inkscape:document-units="px"
     inkscape:window-width="1021"
     inkscape:window-height="586"
     inkscape:window-x="20"
     inkscape:window-y="46"
     inkscape:window-maximized="0" />
  <metadata
     id="metadata3195">
    <rdf:RDF>
      <cc:Work
         rdf:about="">
        <dc:format>image/svg+xml</dc:format>
        <dc:type
           rdf:resource="http://purl.org/dc/dcmitype/StillImage" />
        <dc:title></dc:title>
      </cc:Work>
    </rdf:RDF>
  </metadata>
  <g
     id="layer1"
     inkscape:label="Layer 1"
     inkscape:groupmode="layer">
    <path
       style="fill:url(#linearGradient6110);fill-opacity:1"
       d="m 39.575043,41.712632 c -0.09932,-0.0302 -0.911982,-0.09506 -1.805912,-0.144178 -0.89393,-0.04912 -1.801396,-0.105118 -2.016604,-0.124457 -0.947654,-0.08514 -1.769109,-0.368404 -3.315447,-1.143278 -0.940097,-0.471083 -1.401337,-0.843793 -3.115845,-2.517819 -2.279344,-2.225535 -3.346983,-3.243038 -3.755917,-3.579551 -0.324085,-0.266689 -0.424179,-0.390664 -0.500187,-0.619527 -0.05229,-0.157364 -0.121411,-0.294902 -0.153645,-0.305649 -0.03224,-0.01075 -0.09959,-0.195184 -0.14967,-0.409865 -0.142595,-0.611238 -0.193911,-0.661684 -0.673883,-0.662443 -0.317181,-5.01e-4 -0.554985,-0.05321 -1.09721,-0.243229 -1.702839,-0.596727 -3.816959,-0.972286 -6.93773,-1.23244 -0.393189,-0.03277 -0.466527,-0.02459 -0.466527,0.05202 0,0.05004 0.162777,0.515489 0.361726,1.034382 0.78206,2.039799 0.962158,2.729301 1.013791,3.881316 l 0.0391,0.872858 0.291789,0.07202 c 0.512015,0.126362 2.453969,0.436435 3.13945,0.501274 0.364198,0.03449 1.691544,0.07696 2.949659,0.09448 l 2.2875,0.03184 0.270882,0.214839 c 0.148991,0.118166 0.570927,0.438506 0.937644,0.71186 0.691388,0.515385 0.982862,0.823138 1.096538,1.157791 0.03653,0.107604 0.05901,0.195645 0.04985,0.195645 -0.0091,0 -0.268205,-0.109133 -0.575727,-0.242517 -1.051565,-0.456084 -1.227489,-0.484798 -2.892864,-0.472126 -3.447703,0.02624 -4.842578,-0.02558 -6.016331,-0.223403 l -0.207316,-0.03495 0.344386,0.392254 0.344379,0.392253 -0.185031,0.210731 c -0.101762,0.115898 -0.304726,0.256443 -0.451033,0.312321 -0.264078,0.100846 -0.268337,0.100384 -0.58412,-0.06396 -0.515971,-0.268522 -1.518817,-0.980883 -1.851249,-1.315017 -0.424053,-0.426222 -0.664052,-0.920474 -0.664052,-1.367578 l 0,-0.346047 -0.376231,0.120508 c -1.547447,0.495657 -1.759832,0.546893 -2.272447,0.548212 -0.406363,0.0013 -0.56349,-0.02526 -0.763428,-0.127667 -0.13846,-0.07094 -0.267387,-0.154279 -0.286489,-0.185195 -0.04964,-0.08039 0.127411,-0.239642 0.316713,-0.28482 0.805481,-0.192211 1.114057,-0.295984 1.537312,-0.516994 l 0.490139,-0.255935 0.722357,-6.59e-4 0.72237,-6.6e-4 0.01747,-0.533041 C 15.41615,34.856469 15.33749,34.597554 14.686226,33.229923 14.394561,32.617411 14.067754,31.845386 13.959985,31.5143 13.671116,30.626884 13.663382,30.616025 13.191672,30.435774 12.22867,30.067792 8.1734658,27.679598 5.4431816,25.872538 L 5.142194,25.673326 5.1382389,25.282965 C 5.1323039,24.6699 5.0999304,24.639583 4.4055358,24.5973 3.4659796,24.54007 2.535496,24.401318 1.9515734,24.231321 1.3237322,24.04854 0.42603743,23.632953 0.37569694,23.501777 0.24718546,23.166867 1.4772722,22.738495 4.2456332,22.154079 c 0.5995687,-0.126574 1.1955177,-0.28409 1.3243391,-0.350037 0.2067089,-0.105816 1.0468829,-0.90674 1.0468829,-0.997973 0,-0.121305 -0.9458657,-0.472956 -1.5618586,-0.580659 -0.5436107,-0.09506 -0.8460292,-0.258427 -0.8460292,-0.457034 0,-0.15468 0.3294315,-0.834285 0.5280175,-1.089297 0.086366,-0.110895 0.3240842,-0.180586 1.3982904,-0.40995 3.0165558,-0.644088 3.3707787,-0.773575 5.4009517,-1.974446 2.901534,-1.716283 6.365636,-3.421943 8.23371,-4.054129 1.720147,-0.582129 3.449893,-0.772388 5.68864,-0.625699 3.448158,0.225936 6.359728,1.055475 7.826378,2.229821 0.247904,0.198494 0.470003,0.361357 0.493561,0.361917 0.02353,5.74e-4 0.07184,-0.114112 0.107301,-0.25482 0.374147,-1.484631 1.018531,-2.604397 2.218242,-3.854739 0.997717,-1.039828 1.717265,-1.526248 2.573019,-1.739379 0.461609,-0.114963 0.704721,-0.13405 1.740501,-0.136648 1.262743,-0.0033 1.722486,0.05017 2.463212,0.285849 0.69996,0.222692 1.22083,0.797529 1.502861,1.658551 0.153771,0.469455 0.215901,0.561294 0.947271,1.400248 0.627175,0.71943 1.160171,1.366947 1.186637,1.441603 0.06224,0.175549 -0.148985,-0.0059 -0.546381,-0.470121 -0.248148,-0.2897 -0.673163,-0.770522 -0.944475,-1.068503 -0.541507,-0.594716 -0.633979,-0.739025 -0.766743,-1.196606 -0.09474,-0.326543 -0.491708,-1.048208 -0.647885,-1.17782 -0.208173,-0.172767 -0.168256,0.138091 0.113479,0.883855 0.156929,0.415402 0.308603,0.920719 0.33704,1.122925 0.04154,0.295323 0.08481,0.394461 0.219955,0.503918 0.141474,0.1146 0.153876,0.145727 0.07795,0.195685 -0.04965,0.03263 -0.190635,0.07619 -0.313272,0.09672 -0.122636,0.0205 -0.267974,0.08704 -0.322983,0.147817 -0.128466,0.141955 -0.132613,0.634955 -0.0074,0.872851 0.179809,0.341451 0.678044,0.899686 0.900241,1.008655 0.205271,0.100661 0.330017,0.273988 0.146511,0.20357 -0.558163,-0.214185 -0.832354,-0.23957 -2.224645,-0.205944 -1.767942,0.04273 -2.22721,0.146122 -2.751211,0.619527 -0.271417,0.245208 -0.43372,0.517362 -0.535673,0.898203 -0.09224,0.34457 -0.177138,1.595504 -0.24919,3.671693 l -0.06263,1.805913 -0.19633,0.48158 c -0.55542,1.362396 -1.408478,2.528369 -2.720758,3.718763 -1.719902,1.560151 -5.587813,4.180755 -8.415054,5.701399 -1.102934,0.593212 -1.247203,0.849121 -0.884152,1.568314 0.100015,0.198131 0.198995,0.485371 0.219961,0.638311 0.02987,0.217984 0.112649,0.370654 0.383063,0.706539 0.457125,0.567815 3.473628,3.539372 3.97092,3.911765 0.649072,0.486038 2.020462,1.123275 2.930862,1.361876 0.480242,0.125867 1.301071,0.191168 3.720708,0.296016 0.662167,0.02868 1.249768,0.07109 1.305772,0.09421 0.05597,0.02315 0.110183,0.100154 0.120396,0.171184 0.01853,0.128974 0.04714,0.142912 0.575041,0.280358 0.272709,0.07101 0.436778,0.28157 0.436778,0.560548 0,0.202087 -0.03508,0.218162 -0.288164,0.131986 -0.160733,-0.05472 -0.905165,-0.08252 -2.650365,-0.09889 -1.334776,-0.01253 -2.356691,-0.004 -2.270917,0.01893 0.08576,0.02294 0.59544,0.09887 1.132609,0.16873 2.586332,0.336368 3.804754,0.59351 3.877657,0.818351 0.0302,0.09309 -0.210783,0.329167 -0.329886,0.32318 -0.05664,-0.0027 -0.184271,-0.02987 -0.283594,-0.06006 z m 7.344059,-26.995145 c 0.132435,-0.04774 0.247562,-0.08715 0.255837,-0.08765 0.06224,-0.004 -0.01101,-0.297111 -0.135441,-0.542681 -0.168705,-0.332926 -0.175734,-0.361185 -0.08983,-0.361185 0.06482,0 0.420915,0.692891 0.420915,0.819029 0,0.152017 -0.189336,0.264519 -0.440728,0.261876 l -0.251543,-0.0027 0.240789,-0.08675 z m -0.722363,-0.05908 c -0.0331,-0.01167 -0.297223,-0.09165 -0.586923,-0.177777 -0.480716,-0.142899 -0.684287,-0.274409 -0.421382,-0.272227 0.209794,0.002 1.158799,0.3502 1.158799,0.425484 0,0.05605 -0.04173,0.06284 -0.150494,0.02453 z"
       id="path5594"
       inkscape:connector-curvature="0" />
  </g>
</svg>
