<?xml version="1.0" encoding="UTF-8" standalone="no"?>
<!-- Created with Inkscape (http://www.inkscape.org/) -->

<svg
   xmlns:dc="http://purl.org/dc/elements/1.1/"
   xmlns:cc="http://creativecommons.org/ns#"
   xmlns:rdf="http://www.w3.org/1999/02/22-rdf-syntax-ns#"
   xmlns:svg="http://www.w3.org/2000/svg"
   xmlns="http://www.w3.org/2000/svg"
   xmlns:xlink="http://www.w3.org/1999/xlink"
   xmlns:sodipodi="http://sodipodi.sourceforge.net/DTD/sodipodi-0.dtd"
   xmlns:inkscape="http://www.inkscape.org/namespaces/inkscape"
   width="64"
   height="64"
   id="svg2"
   version="1.1"
   inkscape:version="0.48.5 r10040"
   sodipodi:docname="freerflag.svg">
  <defs
     id="defs4">
    <linearGradient
       id="linearGradient3893">
      <stop
         id="stop3895"
         offset="0"
         style="stop-color:#ffffff;stop-opacity:1;" />
      <stop
         style="stop-color:#464646;stop-opacity:1;"
         offset="0.5"
         id="stop3897" />
      <stop
         id="stop3899"
         offset="1"
         style="stop-color:#ffffff;stop-opacity:1;" />
    </linearGradient>
    <linearGradient
       id="linearGradient3871">
      <stop
         style="stop-color:#929292;stop-opacity:1;"
         offset="0"
         id="stop3873" />
      <stop
         id="stop3879"
         offset="0.5"
         style="stop-color:#878787;stop-opacity:1;" />
      <stop
         style="stop-color:#1a1a1a;stop-opacity:1;"
         offset="1"
         id="stop3875" />
    </linearGradient>
    <linearGradient
       inkscape:collect="always"
       xlink:href="#linearGradient3871"
       id="linearGradient3877"
       x1="7.0503254"
       y1="1034.054"
       x2="11.157475"
       y2="1033.549"
       gradientUnits="userSpaceOnUse"
       gradientTransform="matrix(0.85008082,-0.10973865,0.12802964,0.99177034,-126.58404,8.4261595)" />
    <linearGradient
       inkscape:collect="always"
       xlink:href="#linearGradient3893"
       id="linearGradient3891"
       x1="24.339031"
       y1="1007.0131"
       x2="58.377037"
       y2="1015.8519"
       gradientUnits="userSpaceOnUse"
       gradientTransform="matrix(1.0248199,0,0,1,-1.4332415,-1)" />
  </defs>
  <sodipodi:namedview
     id="base"
     pagecolor="#ffffff"
     bordercolor="#666666"
     borderopacity="1.0"
     inkscape:pageopacity="0.0"
     inkscape:pageshadow="2"
     inkscape:zoom="1.4"
     inkscape:cx="-114.07996"
     inkscape:cy="38.877112"
     inkscape:document-units="px"
     inkscape:current-layer="layer1"
     showgrid="false"
     inkscape:window-width="1366"
     inkscape:window-height="719"
     inkscape:window-x="0"
     inkscape:window-y="0"
     inkscape:window-maximized="1" />
  <metadata
     id="metadata7">
    <rdf:RDF>
      <cc:Work
         rdf:about="">
        <dc:format>image/svg+xml</dc:format>
        <dc:type
           rdf:resource="http://purl.org/dc/dcmitype/StillImage" />
        <dc:title />
      </cc:Work>
    </rdf:RDF>
  </metadata>
  <g
     inkscape:label="Layer 1"
     inkscape:groupmode="layer"
     id="layer1"
     transform="translate(0,-988.36218)">
    <path
       d="m 5.5445788,992.86363 c 2.925639,-0.97997 5.8642722,-1.89655 8.8938682,-2.54141 2.791981,-0.59414 5.641509,-0.9365 8.491037,-1.06149 3.40087,-0.14853 6.844436,-0.29888 10.221173,0.1105 2.652753,0.32243 5.316644,0.64124 7.861728,1.52521 1.843375,0.63942 3.37488,1.81684 4.941656,2.89644 1.561207,1.07417 3.140978,2.30231 4.137849,3.8891 0.514215,0.81876 1.106397,1.89832 0.348997,2.79502 -0.736978,0.8713 -1.510315,2.1382 -1.070354,3.3754 0.480799,1.3495 1.788769,1.702 3.039963,2.2671 2.24992,1.0126 4.568527,2.4617 5.335207,4.889 0.796383,2.5197 -0.579187,5.2894 -1.678158,7.2294 -1.098972,1.94 -1.637319,3.775 -2.504244,5.3038 -0.866924,1.5288 -0.545773,2.9598 -0.844648,4.4126 -0.178211,0.8695 -0.569905,1.6393 -0.694282,2.5341 -0.233902,1.6629 -0.348998,3.3783 -0.367562,5.0702 -0.02228,1.844 -0.566192,4.0738 -2.062426,4.9451 -0.618171,0.3605 -0.07663,-0.2606 -0.539891,-2.9005 -0.164851,-0.9394 -0.5165,-1.8719 -1.497721,-2.6252 -0.645952,-0.496 -0.819345,-0.7236 -2.597748,-1.2453 -1.869364,-0.5489 -4.137848,-0.6594 -5.509706,-2.1085 -0.870637,-0.9202 0.163361,-2.2697 1.013579,-2.8349 0.744404,-0.4927 1.711573,-1.0633 0.454811,-1.6846 -1.121249,-0.5543 -2.445166,-0.3415 -3.640342,-0.5905 -2.110651,-0.4398 -1.378014,-1.2729 -7.829908,-1.3744 -1.44426,-0.023 -5.247778,0.3129 -7.371561,0.5035 -6.15216,0.552 -7.08009,0.9184 -11.540947,2.2571 -1.5556372,-12.1455 -3.4347353,-22.7124 -4.9903733,-34.8579 z"
       style="fill:url(#linearGradient3891);fill-opacity:1;fill-rule:evenodd;stroke:#000000;stroke-width:0.60740035999999997;stroke-miterlimit:4;stroke-opacity:1;stroke-dasharray:none"
       sodipodi:nodetypes="csssssssssszzsssssssssssssccc"
       id="path3234"
       inkscape:connector-curvature="0" />
    <g
       style="font-size:14px;font-style:normal;font-weight:normal;line-height:125%;letter-spacing:0px;word-spacing:0px;fill:#ffffff;fill-opacity:0.73777777;stroke:#000000;stroke-width:0.53528045999999996;stroke-miterlimit:4;stroke-opacity:1;stroke-dasharray:none;font-family:Sans"
       id="text3881"
       transform="matrix(1.369208,0,0,1.4800546,-10.324961,-483.3473)">
      <path
         d="m 23.273004,999.9985 0.215136,2.0582 -1.651994,0.1958 c -0.422692,0.049 -0.708993,0.167 -0.858783,0.3502 -0.150384,0.1774 -0.20483,0.4647 -0.163336,0.8616 l 0.07141,0.6832 2.553095,-0.3028 0.234353,2.2421 -2.553086,0.3026 0.790953,7.5668 -2.986951,0.3542 -0.790956,-7.5667 -1.485137,0.1761 -0.234351,-2.2421 1.485126,-0.1759 -0.0714,-0.6834 c -0.111692,-1.0683 0.08959,-1.89 0.603852,-2.4654 0.513641,-0.581 1.365638,-0.9421 2.555969,-1.0834 l 2.2861,-0.2711"
         style="font-size:16px;font-weight:bold;fill:#ffffff;fill-opacity:0.73777777;stroke:#000000;stroke-width:0.53528045999999996;stroke-miterlimit:4;stroke-opacity:1;stroke-dasharray:none;-inkscape-font-specification:Sans Bold"
         id="path3902"
         inkscape:connector-curvature="0" />
      <path
         d="m 32.830418,1006.6132 c -0.2461,-0.1141 -0.491824,-0.196 -0.737333,-0.2447 -0.240261,-0.055 -0.48266,-0.081 -0.728207,-0.072 -0.719531,0.017 -1.272807,0.2742 -1.659846,0.7704 -0.381877,0.4906 -0.5691,1.1871 -0.56167,2.0895 l 0.03485,4.2329 -2.799903,0.068 -0.07563,-9.1879 2.799902,-0.068 0.01243,1.5094 c 0.354795,-0.6102 0.763102,-1.0577 1.224894,-1.3424 0.466967,-0.2903 1.026318,-0.4433 1.678068,-0.4591 0.09385,0 0.195631,0.01 0.305132,0.01 0.109834,0.01 0.268724,0.015 0.477601,0.037 l 0.02968,2.6577"
         style="font-size:16px;font-weight:bold;fill:#ffffff;fill-opacity:0.73777777;stroke:#000000;stroke-width:0.53528045999999996;stroke-miterlimit:4;stroke-opacity:1;stroke-dasharray:none;-inkscape-font-specification:Sans Bold"
         id="path3904"
         inkscape:connector-curvature="0" />
      <path
         d="m 39.792926,1010.1394 -0.127276,0.7388 -4.18355,-0.9647 c -0.06151,0.6184 0.01147,1.1098 0.218977,1.4739 0.207498,0.3641 0.544492,0.6001 1.011,0.7076 0.376532,0.087 0.775135,0.096 1.19578,0.027 0.424812,-0.073 0.873763,-0.2253 1.346869,-0.4576 l -0.344421,1.9992 c -0.463126,0.1341 -0.916262,0.2104 -1.35941,0.2288 -0.444006,0.023 -0.87759,-0.014 -1.300771,-0.1117 -1.012986,-0.2335 -1.736975,-0.7871 -2.171988,-1.6607 -0.430853,-0.8775 -0.530222,-1.99 -0.29811,-3.3373 0.227958,-1.3232 0.682149,-2.3003 1.362573,-2.9318 0.683756,-0.6306 1.508792,-0.8344 2.475126,-0.6116 0.87969,0.2029 1.516648,0.7489 1.910861,1.6381 0.397517,0.89 0.48563,1.9773 0.26434,3.2618 m -1.690856,-1.2861 c 0.08486,-0.4927 0.05311,-0.9117 -0.09523,-1.2571 -0.144193,-0.3497 -0.376223,-0.5613 -0.69611,-0.6351 -0.346549,-0.079 -0.652669,0 -0.918344,0.2327 -0.264851,0.2301 -0.469688,0.6047 -0.614513,1.1235 l 2.324195,0.536"
         style="font-size:16px;font-weight:bold;fill:#ffffff;fill-opacity:0.73777777;stroke:#000000;stroke-width:0.53528045999999996;stroke-miterlimit:4;stroke-opacity:1;stroke-dasharray:none;-inkscape-font-specification:Sans Bold"
         id="path3906"
         inkscape:connector-curvature="0" />
      <path
         d="m 45.76815,1013.936 -0.151493,0.7518 -2.778988,-2.2677 c -0.09599,0.6426 -0.08885,1.1892 0.02142,1.6398 0.110291,0.4503 0.320355,0.802 0.630241,1.0549 0.250117,0.2041 0.522204,0.3312 0.815961,0.3827 0.297076,0.047 0.617599,0.017 0.961616,-0.091 l -0.409899,2.0343 c -0.328631,0.013 -0.645384,-0.046 -0.950261,-0.1576 -0.305877,-0.1068 -0.599369,-0.2743 -0.880475,-0.5037 -0.67289,-0.5492 -1.120127,-1.3547 -1.34171,-2.4167 -0.218378,-1.0653 -0.18944,-2.2834 0.08679,-3.6543 0.271321,-1.3465 0.667294,-2.2564 1.187964,-2.7299 0.522883,-0.4717 1.105275,-0.4456 1.747178,0.078 0.584348,0.4768 0.972688,1.2486 1.164975,2.3154 0.194493,1.0685 0.160039,2.2564 -0.103316,3.5634 m -1.04508,-1.8742 c 0.100984,-0.5012 0.115779,-0.9584 0.04436,-1.3714 -0.06822,-0.4161 -0.208557,-0.711 -0.421046,-0.8845 -0.230201,-0.1877 -0.446448,-0.1954 -0.648742,-0.023 -0.201326,0.1677 -0.374135,0.5074 -0.518452,1.019 l 1.543881,1.2597"
         style="font-size:16px;font-weight:bold;fill:#ffffff;fill-opacity:0.73777777;stroke:#000000;stroke-width:0.53528045999999996;stroke-miterlimit:4;stroke-opacity:1;stroke-dasharray:none;-inkscape-font-specification:Sans Bold"
         id="path3908"
         inkscape:connector-curvature="0" />
    </g>
    <path
       d="m 18.305426,1066.6553 -16.7564694,-72.07069 1.5250359,-1.44214 1.5066271,-0.47255 1.6396832,-0.0396 3.9791802,15.89596 13.72524,57.2916 -1.087057,0.7639 -1.839917,0.6023 z"
       style="fill:url(#linearGradient3877);fill-opacity:1;fill-rule:evenodd;stroke:none"
       sodipodi:nodetypes="cccccccccc"
       id="path3232"
       inkscape:connector-curvature="0" />
  </g>
</svg>
