<?xml version="1.0" encoding="UTF-8"?>
<svg xmlns="http://www.w3.org/2000/svg" height="1000" width="937.5"><path d="M0 500.288q0 -95.648 37.088 -182.268t99.796 -149.328 149.328 -99.796 182.268 -37.088q95.16 0 182.024 37.088t149.572 99.796 99.796 149.328 37.088 182.268q0 95.16 -37.088 181.78t-99.796 149.572 -149.572 100.04 -182.024 37.088q-95.648 0 -182.268 -37.088t-149.328 -100.04 -99.796 -149.572 -37.088 -181.78zm117.12 0q0 71.248 27.816 136.396t74.908 112.24 112.24 74.908 136.396 27.816 136.396 -27.816 112.24 -74.908 74.908 -112.24 27.816 -136.396q0 -95.648 -47.092 -176.412t-128.1 -127.856 -176.168 -47.092 -176.168 47.092 -128.1 127.856 -47.092 176.412zm216.184 -176.656l30.744 101.504q44.896 -28.792 92.72 -28.792 49.288 0 49.288 22.936 0 3.904 -1.708 7.32t-3.66 5.612 -6.1 5.124 -6.588 4.392 -8.296 4.392l-7.808 3.904 -40.016 21.472q-21.472 11.712 -27.572 24.888t-6.1 36.6v36.6h116.632v-15.616q0 -7.32 .488 -10.248t2.44 -5.612 6.344 -5.124q.976 -.488 10.492 -4.88t17.324 -8.296 18.544 -10.492 18.544 -12.932q19.032 -17.08 29.28 -37.088t10.248 -55.144q0 -49.288 -41.724 -83.204t-105.652 -33.916q-82.96 0 -147.864 36.6zm47.824 334.28q0 31.72 20.496 49.044t55.144 17.324q33.672 0 54.168 -17.324t20.496 -49.044 -20.496 -49.288 -54.168 -17.568q-34.648 0 -55.144 17.568t-20.496 49.288z" fill="#000000"/></svg>
