<?xml version="1.0" encoding="UTF-8" standalone="no"?>
<!-- Created with Inkscape (http://www.inkscape.org/) -->

<svg
   xmlns:dc="http://purl.org/dc/elements/1.1/"
   xmlns:cc="http://creativecommons.org/ns#"
   xmlns:rdf="http://www.w3.org/1999/02/22-rdf-syntax-ns#"
   xmlns:svg="http://www.w3.org/2000/svg"
   xmlns="http://www.w3.org/2000/svg"
   xmlns:xlink="http://www.w3.org/1999/xlink"
   xmlns:sodipodi="http://sodipodi.sourceforge.net/DTD/sodipodi-0.dtd"
   xmlns:inkscape="http://www.inkscape.org/namespaces/inkscape"
   version="1.1"
   width="64"
   height="64"
   id="svg2"
   inkscape:version="0.91+devel r13918"
   sodipodi:docname="import_xia2.svg">
  <sodipodi:namedview
     pagecolor="#ffffff"
     bordercolor="#666666"
     borderopacity="1"
     objecttolerance="10"
     gridtolerance="10"
     guidetolerance="10"
     inkscape:pageopacity="0"
     inkscape:pageshadow="2"
     inkscape:window-width="1366"
     inkscape:window-height="719"
     id="namedview7020"
     showgrid="false"
     inkscape:zoom="3.6875"
     inkscape:cx="32.949153"
     inkscape:cy="32"
     inkscape:window-x="0"
     inkscape:window-y="0"
     inkscape:window-maximized="1"
     inkscape:current-layer="svg2" />
  <defs
     id="defs4">
    <linearGradient
       id="linearGradient8391"
       inkscape:collect="always">
      <stop
         id="stop8393"
         offset="0"
         style="stop-color:#c1c1c1;stop-opacity:1" />
      <stop
         id="stop8395"
         offset="1"
         style="stop-color:#f7f7f7;stop-opacity:1" />
    </linearGradient>
    <marker
       refX="0"
       refY="0"
       orient="auto"
       id="Arrow1Mend"
       style="overflow:visible">
      <path
         d="M 0,0 5,-5 -12.5,0 5,5 0,0 z"
         transform="matrix(-0.4,0,0,-0.4,-4,0)"
         id="path5185"
         style="fill-rule:evenodd;stroke:#000000;stroke-width:1pt;marker-start:none" />
    </marker>
    <marker
       refX="0"
       refY="0"
       orient="auto"
       id="Arrow2Mend"
       style="overflow:visible">
      <path
         d="M 8.7185878,4.0337352 -2.2072895,0.01601326 8.7185884,-4.0017078 c -1.7454984,2.3720609 -1.7354408,5.6174519 -6e-7,8.035443 z"
         transform="scale(-0.6,-0.6)"
         id="path5203"
         style="font-size:12px;fill-rule:evenodd;stroke-width:0.625;stroke-linejoin:round" />
    </marker>
    <marker
       refX="0"
       refY="0"
       orient="auto"
       id="Arrow2Lend"
       style="overflow:visible">
      <path
         d="M 8.7185878,4.0337352 -2.2072895,0.01601326 8.7185884,-4.0017078 c -1.7454984,2.3720609 -1.7354408,5.6174519 -6e-7,8.035443 z"
         transform="matrix(-1.1,0,0,-1.1,-1.1,0)"
         id="path5197"
         style="font-size:12px;fill-rule:evenodd;stroke-width:0.625;stroke-linejoin:round" />
    </marker>
    <linearGradient
       id="linearGradient6799">
      <stop
         id="stop6801"
         style="stop-color:#000000;stop-opacity:1"
         offset="0" />
      <stop
         id="stop6803"
         style="stop-color:#000000;stop-opacity:0"
         offset="1" />
    </linearGradient>
    <linearGradient
       id="linearGradient6775">
      <stop
         id="stop6777"
         style="stop-color:#000000;stop-opacity:1"
         offset="0" />
      <stop
         id="stop6779"
         style="stop-color:#ffffff;stop-opacity:1"
         offset="1" />
    </linearGradient>
    <marker
       refX="0"
       refY="0"
       orient="auto"
       id="Arrow2Lstart"
       style="overflow:visible">
      <path
         d="M 8.7185878,4.0337352 -2.2072895,0.01601326 8.7185884,-4.0017078 c -1.7454984,2.3720609 -1.7354408,5.6174519 -6e-7,8.035443 z"
         transform="matrix(1.1,0,0,1.1,1.1,0)"
         id="path4334"
         style="font-size:12px;fill-rule:evenodd;stroke-width:0.625;stroke-linejoin:round" />
    </marker>
    <marker
       refX="0"
       refY="0"
       orient="auto"
       id="Arrow1Lend"
       style="overflow:visible">
      <path
         d="M 0,0 5,-5 -12.5,0 5,5 0,0 z"
         transform="matrix(-0.8,0,0,-0.8,-10,0)"
         id="path4319"
         style="fill-rule:evenodd;stroke:#000000;stroke-width:1pt;marker-start:none" />
    </marker>
    <linearGradient
       x1="421.16345"
       y1="68.845291"
       x2="631.55121"
       y2="68.845291"
       id="linearGradient6805"
       xlink:href="#linearGradient6799"
       gradientUnits="userSpaceOnUse" />
    <linearGradient
       x1="308.5"
       y1="522.60999"
       x2="327.78"
       y2="520.33002"
       id="linearGradient4583"
       xlink:href="#linearGradient6035"
       gradientUnits="userSpaceOnUse"
       gradientTransform="matrix(0.81256321,0,0,0.81256321,-228.8117,-369.08861)"
       spreadMethod="reflect" />
    <linearGradient
       id="linearGradient6035">
      <stop
         id="stop6037"
         style="stop-color:#ffffff;stop-opacity:1"
         offset="0" />
      <stop
         id="stop6039"
         style="stop-color:#ffffff;stop-opacity:0"
         offset="1" />
    </linearGradient>
    <linearGradient
       x1="308.61908"
       y1="522.19324"
       x2="327.66092"
       y2="519.73468"
       id="linearGradient4383"
       xlink:href="#linearGradient6035"
       gradientUnits="userSpaceOnUse"
       gradientTransform="translate(0,12)"
       spreadMethod="reflect" />
    <linearGradient
       id="linearGradient6402">
      <stop
         id="stop6404"
         style="stop-color:#ffffff;stop-opacity:1"
         offset="0" />
      <stop
         id="stop6406"
         style="stop-color:#ffffff;stop-opacity:0"
         offset="1" />
    </linearGradient>
    <linearGradient
       x1="287.69586"
       y1="529.23523"
       x2="287.58078"
       y2="512.51025"
       id="linearGradient4317"
       xlink:href="#linearGradient4319"
       gradientUnits="userSpaceOnUse"
       spreadMethod="pad"
       gradientTransform="matrix(0.96028721,0,0,0.96028721,-253.71595,-467.72891)" />
    <linearGradient
       x1="269.97"
       y1="511.97"
       x2="286.63"
       y2="511.97"
       id="linearGradient4319"
       gradientUnits="userSpaceOnUse"
       gradientTransform="matrix(1.1818,0,0,1.1818,-30.649,-69.394)"
       spreadMethod="reflect">
      <stop
         id="stop4321"
         style="stop-color:#87caee;stop-opacity:1"
         offset="0" />
      <stop
         id="stop4323"
         style="stop-color:#abceda;stop-opacity:1"
         offset="0.24713178" />
      <stop
         id="stop4325"
         style="stop-color:#1e9bcb;stop-opacity:1"
         offset="1" />
    </linearGradient>
    <linearGradient
       x1="308.5"
       y1="522.60999"
       x2="327.78"
       y2="520.33002"
       id="linearGradient6114"
       xlink:href="#linearGradient6035"
       gradientUnits="userSpaceOnUse"
       gradientTransform="matrix(0.81256321,0,0,0.81256321,-228.8117,-386.76193)"
       spreadMethod="reflect" />
    <linearGradient
       id="linearGradient6414">
      <stop
         id="stop6416"
         style="stop-color:#ffffff;stop-opacity:1"
         offset="0" />
      <stop
         id="stop6418"
         style="stop-color:#ffffff;stop-opacity:0"
         offset="1" />
    </linearGradient>
    <linearGradient
       x1="269.97"
       y1="511.97"
       x2="286.63"
       y2="511.97"
       id="linearGradient6110"
       gradientUnits="userSpaceOnUse"
       gradientTransform="matrix(1.203669,0,0,1.203669,-317.8861,411.94756)"
       spreadMethod="reflect">
      <stop
         id="stop5497"
         style="stop-color:#87caee;stop-opacity:1"
         offset="0" />
      <stop
         id="stop5501"
         style="stop-color:#abceda;stop-opacity:1"
         offset="0.20485" />
      <stop
         id="stop5499"
         style="stop-color:#1e9bcb;stop-opacity:1"
         offset="1" />
    </linearGradient>
    <linearGradient
       x1="269.97"
       y1="511.97"
       x2="286.63"
       y2="511.97"
       id="linearGradient6513"
       xlink:href="#linearGradient6110"
       gradientUnits="userSpaceOnUse"
       gradientTransform="matrix(0.96028721,0,0,0.96028721,-253.71595,-443.35204)"
       spreadMethod="reflect" />
    <linearGradient
       inkscape:collect="always"
       xlink:href="#linearGradient8391"
       id="linearGradient8344"
       x1="306.96509"
       y1="741.81738"
       x2="309.99164"
       y2="438.77164"
       gradientUnits="userSpaceOnUse"
       gradientTransform="matrix(0.11267658,0,0,0.11267658,-1.9835393,-29.915769)" />
    <linearGradient
       inkscape:collect="always"
       id="linearGradient8330">
      <stop
         style="stop-color:#c0c0c0;stop-opacity:1"
         offset="0"
         id="stop8332" />
      <stop
         style="stop-color:#ffffff;stop-opacity:1"
         offset="1"
         id="stop8334" />
    </linearGradient>
    <linearGradient
       inkscape:collect="always"
       xlink:href="#linearGradient8330"
       id="linearGradient8336"
       x1="49.018143"
       y1="489.71555"
       x2="541.05945"
       y2="489.71555"
       gradientUnits="userSpaceOnUse"
       gradientTransform="matrix(0.11267658,0,0,0.11267658,-1.9835393,-29.915769)" />
  </defs>
  <metadata
     id="metadata7">
    <rdf:RDF>
      <cc:Work
         rdf:about="">
        <dc:format>image/svg+xml</dc:format>
        <dc:type
           rdf:resource="http://purl.org/dc/dcmitype/StillImage" />
        <dc:title />
      </cc:Work>
    </rdf:RDF>
  </metadata>
  <path
     inkscape:connector-curvature="0"
     d="m 7.2292234,10.756411 c -1.9780694,0 -3.5705213,1.159653 -3.5705213,2.600113 l 0,6.305256 0,4.383654 0,13.658368 c 0,1.440461 1.5924519,2.600106 3.5705213,2.600106 l 49.8480056,0 c 1.97807,0 3.570521,-1.159645 3.570521,-2.600106 l 0,-18.042151 c 0,-1.440453 -1.592451,-2.600105 -3.570521,-2.600105 l -20.908957,0 c -1.347472,-0.153979 -1.7488,-0.890319 -1.8522,-1.470621 l 0,-0.731284 0,-1.503117 c 0,-1.44046 -1.592452,-2.600113 -3.570522,-2.600113 l -23.515436,0 z"
     style="fill:#999999;fill-opacity:1;stroke-width:0.15234609"
     id="rect4815" />
  <path
     inkscape:connector-curvature="0"
     d="m 7.0132227,12.047152 c -1.9243509,0 -3.4735596,1.037416 -3.4735596,2.32605 l 0,5.640667 0,3.921606 0,12.218734 c 0,1.288633 1.5492087,2.326049 3.4735596,2.326049 l 48.4944013,0 c 1.924358,0 3.473566,-1.037416 3.473566,-2.326049 l 0,-16.140454 c 0,-1.288634 -1.549208,-2.32605 -3.473566,-2.32605 l -20.341181,0 C 33.855555,17.549958 33.46513,16.89123 33.364536,16.372095 l 0,-0.654205 0,-1.344688 c 0,-1.288634 -1.549209,-2.32605 -3.47356,-2.32605 l -22.8768844,0 z"
     style="opacity:1;fill:url(#linearGradient8336);fill-opacity:1;stroke-width:0.14212385"
     id="path4873" />
  <rect
     x="1.1897799"
     y="18.977247"
     width="60.893543"
     height="37.742737"
     ry="2.0257998"
     rx="2.1397183"
     style="fill:url(#linearGradient8344);fill-opacity:1;stroke:#000000;stroke-width:0.16606271;stroke-opacity:1"
     id="rect4869" />
  <g
     style="stroke:none;stroke-width:0.31108692;stroke-miterlimit:4;stroke-dasharray:none;stroke-opacity:1"
     id="g4787"
     transform="matrix(0.32145357,0,0,0.32145357,9.7471623,-295.06781)">
    <path
       inkscape:connector-curvature="0"
       style="fill:#cfcfcf;stroke:none;stroke-width:0.31108692;stroke-miterlimit:4;stroke-dasharray:none;stroke-opacity:1"
       id="path4801"
       d="m 91.50558,1074.3622 c 0.0129,-6.3834 2.10567,-10.2347 10.21877,-18.8056 4.47889,-4.7316 12.94341,-12.3688 18.81004,-16.9714 11.68729,-9.1692 15.92559,-13.5141 18.93298,-19.4091 6.19163,-12.1366 1.38318,-22.06392 -10.687,-22.06392 -4.58029,0 -13.14001,2.38508 -18.67144,5.20262 l -3.89108,1.982 0.70619,-5.32355 c 0.38841,-2.92794 1.23939,-5.67118 1.89108,-6.09609 6.28286,-4.09655 26.90064,-6.10001 34.17723,-3.32105 14.57364,5.56572 16.48455,24.61249 3.87032,38.57699 -2.12447,2.3519 -9.48767,8.6425 -16.36267,13.9791 -12.98256,10.0774 -18.77165,15.7239 -21.46911,20.9402 l -1.58225,3.0598 18.52568,0 c 20.64149,0 19.18011,-0.5925 17.88383,7.25 l -0.61983,3.75 -25.86916,0 -25.86916,0 0.006,-2.75 z m -32.585271,-17.0766 c -8.901184,-5.5981 -6.026888,-19.2598 5.355471,-25.4549 3.45887,-1.8825 7.68936,-3.0837 13.36841,-3.7958 4.56952,-0.573 8.49653,-1.2301 8.72669,-1.4603 0.23017,-0.2301 0.62972,-2.6169 0.8879,-5.3038 0.41041,-4.2712 0.17568,-5.0911 -1.86718,-6.522 -3.0801,-2.1574 -7.33433,-2.0658 -15.00958,0.323 -3.4629,1.0777 -6.482008,1.7737 -6.709136,1.5466 -0.227128,-0.2271 -0.131917,-1.9111 0.21158,-3.7421 0.773312,-4.1221 4.094486,-5.6272 14.239986,-6.4535 9.19692,-0.7491 13.53035,0.1169 16.76347,3.35 3.36284,3.3629 3.37999,6.9063 0.12326,25.4727 -2.60741,14.8648 -2.41617,16.8667 1.61126,16.8667 3.02902,0 2.60215,5.78 -0.48407,6.5546 -4.92386,1.2358 -9.01986,0.087 -11.11136,-3.1166 l -1.99908,-3.062 -4.8308,3.003 c -6.28518,3.9071 -14.675675,4.6881 -19.276821,1.7944 z m 17.680471,-7.315 c 4.85115,-1.6292 6.61226,-3.4719 7.33439,-7.6738 0.34828,-2.0265 0.88927,-4.9707 1.20221,-6.5426 l 0.56898,-2.8581 -5.35318,0.7066 c -7.70295,1.0168 -13.42248,3.7759 -15.282181,7.3722 -2.072335,4.0074 -1.981702,5.7266 0.429001,8.1373 2.25146,2.2514 6.07291,2.5469 11.10078,0.8584 z m -95.934113,7.1529 c 0.183333,-0.5438 5.442224,-6.4087 11.686425,-13.0333 l 11.353092,-12.0445 -7.103092,-12.323 C -7.303609,1012.945 -10.5,1007.11 -10.5,1006.7559 c 0,-0.354 2.441182,-0.6437 5.424848,-0.6437 l 5.424848,0 5.24269,9.1614 5.24269,9.1615 8.82778,-9.1615 c 8.242356,-8.5539 9.093356,-9.1614 12.832462,-9.1614 2.202575,0 4.004682,0.3641 4.004682,0.8092 0,0.4451 -4.725,5.8047 -10.5,11.9102 -5.775,6.1056 -10.498297,11.7039 -10.496215,12.4408 0.0021,0.7369 3.152081,6.6827 7,13.2128 3.847918,6.5302 6.996215,12.2677 6.996215,12.75 0,0.4824 -2.451358,0.877 -5.447463,0.877 l -5.447462,0 -5.302538,-9.4782 c -2.916395,-5.213 -5.557927,-9.488 -5.870069,-9.5 -0.312143,-0.012 -4.521636,4.2532 -9.35443,9.4782 -8.581626,9.278 -8.89153,9.5 -13.265801,9.5 -2.509833,0 -4.33236,-0.4347 -4.14557,-0.9887 z M 35.5,1057.6065 c 0,-0.7995 6.936735,-40.4199 8.096451,-46.2443 l 1.045345,-5.25 4.370085,0 c 2.403547,0 4.54741,0.3375 4.76414,0.75 0.432576,0.8233 -7.518553,46.8337 -8.564389,49.5591 -0.477232,1.2436 -1.84746,1.6909 -5.180247,1.6909 -2.492262,0 -4.531385,-0.2276 -4.531385,-0.5057 z m 11,-61.36932 c 0,-1.03125 0.28125,-3.28125 0.625,-5 0.59838,-2.9919 0.834562,-3.125 5.545313,-3.125 l 4.920313,0 -0.623226,3.75 c -1.021071,6.14386 -1.121878,6.25 -5.936015,6.25 -3.764021,0 -4.531385,-0.31752 -4.531385,-1.875 z" />
    <path
       inkscape:connector-curvature="0"
       style="fill:#fe9c9c;stroke:none;stroke-width:0.31108692;stroke-miterlimit:4;stroke-dasharray:none;stroke-opacity:1"
       id="path4799"
       d="m 91.92531,1071.9637 c 0.42261,-3.1858 1.77437,-6.7122 3.54581,-9.25 3.9501,-5.6592 14.6927,-15.8951 26.12531,-24.8929 15.24649,-11.9996 20.91108,-19.8967 20.89983,-29.1368 -0.0137,-11.28975 -14.02735,-14.95739 -29.49475,-7.7193 -7.1622,3.3516 -7.0991,3.3952 -5.86784,-4.05214 0.57579,-3.48262 0.97106,-3.82431 6.739,-5.82535 7.92291,-2.74866 21.02013,-3.68494 27.22914,-1.94652 13.08515,3.66361 17.75587,17.35111 10.73932,31.47151 -3.31234,6.6659 -5.64588,9.0143 -20.34113,20.4706 -13.10327,10.2152 -19.74448,16.7008 -22.44086,21.915 l -1.6105,3.1144 18.63922,0 18.63923,0 -0.71092,4.75 c -0.391,2.6125 -0.91865,5.0875 -1.17256,5.5 -0.2539,0.4125 -11.96806,0.75 -26.03146,0.75 l -25.56981,0 0.68297,-5.1485 z M 61,1057.7638 c -4.727192,-2.1719 -6.670937,-5.005 -6.743873,-9.8297 -0.169948,-11.2418 11.513873,-19.8219 26.992093,-19.8219 5.72706,0 6.22265,-0.6122 6.51937,-8.0531 0.12226,-3.0659 -0.33493,-4.523 -1.74204,-5.5519 -2.71147,-1.9827 -10.24968,-1.7263 -16.94215,0.5763 l -5.729707,1.9713 0.678507,-3.2213 c 0.899744,-4.2717 1.031923,-4.3745 7.9279,-6.1698 11.74938,-3.0586 21.21754,-1.2645 24.49264,4.6411 1.35544,2.4442 1.23838,4.2504 -1.26814,19.5682 -1.51878,9.2815 -2.48109,17.606 -2.13846,18.4988 0.34263,0.8929 1.59741,1.7622 2.78841,1.9319 1.56089,0.2224 2.16545,1.0064 2.16545,2.8085 0,2.0689 -0.66355,2.6639 -3.84785,3.4502 -4.64136,1.1463 -8.97539,-0.791 -9.4717,-4.2336 -0.17575,-1.2192 -0.52007,-2.2166 -0.76515,-2.2166 -0.24508,0 -2.8334,1.3476 -5.75182,2.9946 -6.33396,3.5747 -12.940134,4.5973 -17.16348,2.657 z m 17.5,-7.6006 c 2.475,-0.4404 3.825,-0.8713 3,-0.9577 -1.28379,-0.1343 -1.26704,-0.3343 0.11618,-1.3875 1.43997,-1.0964 3.88382,-9.437 3.88382,-13.255 0,-1.9291 -5.12285,-1.9005 -11.74345,0.066 -6.59377,1.9582 -10.600525,6.4115 -10.045561,11.1651 0.386257,3.3086 0.373878,3.319 -4.16179,3.4866 -4.347035,0.1606 -4.282562,0.1976 1.450801,0.8319 8.58101,0.9493 12.38923,0.9604 17.5,0.051 z m 7.72917,-0.6552 c -0.3323,-0.3323 -1.1948,-0.3678 -1.91667,-0.079 -0.79773,0.3192 -0.56078,0.5561 0.60417,0.6041 1.05416,0.043 1.64479,-0.1929 1.3125,-0.5252 z M -16,1053.1122 c 3.372165,-3.4534 4.499516,-4 8.250071,-4 l 4.344175,0 -3.214487,4 c -2.982669,3.7115 -3.577639,4 -8.250071,4 l -5.035584,0 3.905896,-4 z m 32.48904,0.75 c -1.08986,-1.7875 -1.983246,-3.5616 -1.985302,-3.9425 -0.0021,-0.3809 1.908762,-0.8648 4.246262,-1.0753 l 4.25,-0.3828 -5.001717,-0.1747 c -4.848004,-0.1694 -5.075082,-0.313 -7.388962,-4.6747 -1.312984,-2.475 -2.681018,-4.5 -3.040075,-4.5 -0.359056,0 -2.640217,2.025 -5.069246,4.5 -3.90771,3.9816 -4.92297,4.5 -8.814154,4.5 l -4.397739,0 7.105947,-7.8825 C 0.302324,1035.8943 3.5,1032.0539 3.5,1031.6955 c 0,-0.3585 -2.925,-5.746 -6.5,-11.9722 -3.575,-6.2262 -6.500349,-11.7233 -6.500775,-12.2157 -4.27e-4,-0.4925 2.137073,-0.8523 4.75,-0.7997 L 0,1006.8036 l 4.654973,7.7593 c 2.560236,4.2676 5.118511,8.2228 5.685057,8.7893 0.706778,0.7068 3.59554,-1.6801 9.203885,-7.605 7.968563,-8.4182 8.289663,-8.635 12.788123,-8.635 l 4.614323,0 -6.480605,6.75 c -3.564332,3.7125 -8.657692,9.059 -11.318577,11.8812 l -4.837973,5.1312 4.538718,7.8688 c 2.496295,4.3278 4.525789,8.2685 4.509987,8.757 -0.0158,0.4885 0.370957,1.1635 0.859465,1.5 0.488508,0.3365 1.913645,2.2993 3.16697,4.3618 l 2.278773,3.75 -5.596258,0 c -5.240586,0 -5.722197,-0.2066 -7.577821,-3.25 z m 19.930684,-0.5 c 0.593786,-3.6812 0.694266,-3.7557 5.474955,-4.0602 4.658129,-0.2967 4.843142,-0.2097 4.251349,2 -0.340295,1.2706 -0.624863,3.0977 -0.632373,4.0602 -0.01111,1.4238 -0.916123,1.75 -4.856237,1.75 l -4.842581,0 0.604887,-3.75 z M 37.5,1047.5738 c 0,-0.2962 1.575,-9.2476 3.5,-19.8922 1.925,-10.6445 3.5,-19.6272 3.5,-19.9615 0,-0.3344 2.025,-0.6079 4.5,-0.6079 2.475,0 4.5,0.3493 4.5,0.7762 0,0.9735 -5.835644,34.9198 -6.52801,37.9738 -0.435891,1.9227 -1.161939,2.25 -4.991042,2.25 -2.464521,0 -4.480948,-0.2423 -4.480948,-0.5384 z m 9.586026,-54.21162 c 0.931073,-5.16 1.024895,-5.25 5.472991,-5.25 3.424324,0 3.939193,0.29497 3.927328,2.25 -0.03417,5.63093 -0.970588,6.75 -5.648289,6.75 l -4.428682,0 0.676652,-3.75 z" />
    <path
       inkscape:connector-curvature="0"
       style="fill:#aeaeae;stroke:none;stroke-width:0.31108692;stroke-miterlimit:4;stroke-dasharray:none;stroke-opacity:1"
       id="path4797"
       d="m 92.04052,1072.3622 c 1.20775,-8.6519 8.30943,-17.1652 26.45948,-31.7189 14.62956,-11.7307 18.64981,-15.8311 21.60071,-22.0311 4.4602,-9.3712 2.65271,-17.4956 -4.55672,-20.4818 -4.46559,-1.84971 -14.48364,-0.81834 -21.9955,2.2645 -3.54834,1.4561 -6.57673,2.5224 -6.72976,2.3693 -0.15304,-0.153 0.0623,-2.2748 0.47855,-4.71512 0.74535,-4.36978 0.85472,-4.47316 7.22976,-6.83375 5.11681,-1.89468 8.56806,-2.41845 16.47296,-2.5 9.24215,-0.0953 10.36011,0.10853 14.75169,2.68999 9.08178,5.33847 11.67137,16.64228 6.43355,28.08318 -3.04898,6.6599 -7.96806,11.7212 -21.18524,21.7977 -12.24582,9.3359 -23.5,20.842 -23.5,24.0259 0,0.4152 8.2125,0.8776 18.25,1.0275 l 18.25,0.2726 -0.28431,4 c -0.15637,2.2 -0.47975,4.5625 -0.71862,5.25 -0.3322,0.9561 -6.45113,1.25 -26.02696,1.25 l -25.59266,0 0.66307,-4.75 z M 61,1057.7638 c -4.727192,-2.1719 -6.670937,-5.005 -6.743873,-9.8297 -0.169948,-11.2418 11.513873,-19.8219 26.992093,-19.8219 5.72706,0 6.22265,-0.6122 6.51937,-8.0531 0.12226,-3.0659 -0.33493,-4.523 -1.74204,-5.5519 -2.71147,-1.9827 -10.24968,-1.7263 -16.94215,0.5763 l -5.729707,1.9713 0.678507,-3.2213 c 0.899744,-4.2717 1.031923,-4.3745 7.9279,-6.1698 11.74938,-3.0586 21.21754,-1.2645 24.49264,4.6411 1.35544,2.4442 1.23838,4.2504 -1.26814,19.5682 -1.51878,9.2815 -2.48109,17.606 -2.13846,18.4988 0.34263,0.8929 1.59741,1.7622 2.78841,1.9319 1.56089,0.2224 2.16545,1.0064 2.16545,2.8085 0,2.0689 -0.66355,2.6639 -3.84785,3.4502 -4.64136,1.1463 -8.97539,-0.791 -9.4717,-4.2336 -0.17575,-1.2192 -0.52007,-2.2166 -0.76515,-2.2166 -0.24508,0 -2.8334,1.3476 -5.75182,2.9946 -6.33396,3.5747 -12.940134,4.5973 -17.16348,2.657 z m 17.5,-7.6006 c 2.475,-0.4404 3.825,-0.8713 3,-0.9577 -1.28379,-0.1343 -1.26704,-0.3343 0.11618,-1.3875 1.43997,-1.0964 3.88382,-9.437 3.88382,-13.255 0,-1.9291 -5.12285,-1.9005 -11.74345,0.066 -6.59377,1.9582 -10.600525,6.4115 -10.045561,11.1651 0.386257,3.3086 0.373878,3.319 -4.16179,3.4866 -4.347035,0.1606 -4.282562,0.1976 1.450801,0.8319 8.58101,0.9493 12.38923,0.9604 17.5,0.051 z m 7.72917,-0.6552 c -0.3323,-0.3323 -1.1948,-0.3678 -1.91667,-0.079 -0.79773,0.3192 -0.56078,0.5561 0.60417,0.6041 1.05416,0.043 1.64479,-0.1929 1.3125,-0.5252 z M -16,1053.1122 c 3.372165,-3.4534 4.499516,-4 8.250071,-4 l 4.344175,0 -3.214487,4 c -2.982669,3.7115 -3.577639,4 -8.250071,4 l -5.035584,0 3.905896,-4 z m 32.48904,0.75 c -1.08986,-1.7875 -1.983246,-3.5616 -1.985302,-3.9425 -0.0021,-0.3809 1.908762,-0.8648 4.246262,-1.0753 l 4.25,-0.3828 -5.001717,-0.1747 c -4.848004,-0.1694 -5.075082,-0.313 -7.388962,-4.6747 -1.312984,-2.475 -2.681018,-4.5 -3.040075,-4.5 -0.359056,0 -2.640217,2.025 -5.069246,4.5 -3.90771,3.9816 -4.92297,4.5 -8.814154,4.5 l -4.397739,0 7.105947,-7.8825 C 0.302324,1035.8943 3.5,1032.0539 3.5,1031.6955 c 0,-0.3585 -2.925,-5.746 -6.5,-11.9722 -3.575,-6.2262 -6.500349,-11.7233 -6.500775,-12.2157 -4.27e-4,-0.4925 2.137073,-0.8523 4.75,-0.7997 L 0,1006.8036 l 4.654973,7.7593 c 2.560236,4.2676 5.118511,8.2228 5.685057,8.7893 0.706778,0.7068 3.59554,-1.6801 9.203885,-7.605 7.968563,-8.4182 8.289663,-8.635 12.788123,-8.635 l 4.614323,0 -6.480605,6.75 c -3.564332,3.7125 -8.657692,9.059 -11.318577,11.8812 l -4.837973,5.1312 4.538718,7.8688 c 2.496295,4.3278 4.525789,8.2685 4.509987,8.757 -0.0158,0.4885 0.370957,1.1635 0.859465,1.5 0.488508,0.3365 1.913645,2.2993 3.16697,4.3618 l 2.278773,3.75 -5.596258,0 c -5.240586,0 -5.722197,-0.2066 -7.577821,-3.25 z m 19.930684,-0.5 c 0.593786,-3.6812 0.694266,-3.7557 5.474955,-4.0602 4.658129,-0.2967 4.843142,-0.2097 4.251349,2 -0.340295,1.2706 -0.624863,3.0977 -0.632373,4.0602 -0.01111,1.4238 -0.916123,1.75 -4.856237,1.75 l -4.842581,0 0.604887,-3.75 z M 37.5,1047.5738 c 0,-0.2962 1.575,-9.2476 3.5,-19.8922 1.925,-10.6445 3.5,-19.6272 3.5,-19.9615 0,-0.3344 2.025,-0.6079 4.5,-0.6079 2.475,0 4.5,0.3493 4.5,0.7762 0,0.9735 -5.835644,34.9198 -6.52801,37.9738 -0.435891,1.9227 -1.161939,2.25 -4.991042,2.25 -2.464521,0 -4.480948,-0.2423 -4.480948,-0.5384 z m 9.586026,-54.21162 c 0.931073,-5.16 1.024895,-5.25 5.472991,-5.25 3.424324,0 3.939193,0.29497 3.927328,2.25 -0.03417,5.63093 -0.970588,6.75 -5.648289,6.75 l -4.428682,0 0.676652,-3.75 z" />
    <path
       inkscape:connector-curvature="0"
       style="fill:#fe6969;stroke:none;stroke-width:0.31108692;stroke-miterlimit:4;stroke-dasharray:none;stroke-opacity:1"
       id="path4795"
       d="m 92.04052,1072.3622 c 1.20775,-8.6519 8.30943,-17.1652 26.45948,-31.7189 14.62956,-11.7307 18.64981,-15.8311 21.60071,-22.0311 4.4602,-9.3712 2.65271,-17.4956 -4.55672,-20.4818 -4.46559,-1.84971 -14.48364,-0.81834 -21.9955,2.2645 -3.54834,1.4561 -6.57673,2.5224 -6.72976,2.3693 -0.15304,-0.153 0.0623,-2.2748 0.47855,-4.71512 0.74535,-4.36978 0.85472,-4.47316 7.22976,-6.83375 5.11681,-1.89468 8.56806,-2.41845 16.47296,-2.5 9.24215,-0.0953 10.36011,0.10853 14.75169,2.68999 9.08178,5.33847 11.67137,16.64228 6.43355,28.08318 -3.04898,6.6599 -7.96806,11.7212 -21.18524,21.7977 -12.24582,9.3359 -23.5,20.842 -23.5,24.0259 0,0.4152 8.2125,0.8776 18.25,1.0275 l 18.25,0.2726 -0.28431,4 c -0.15637,2.2 -0.47975,4.5625 -0.71862,5.25 -0.3322,0.9561 -6.45113,1.25 -26.02696,1.25 l -25.59266,0 0.66307,-4.75 z m -4.31056,-14.2886 c -1.37387,-0.5518 -2.50263,-2.0748 -2.85921,-3.8577 l -0.58917,-2.9458 -6.22384,3.421 c -6.99384,3.8443 -13.537196,4.5173 -18.577756,1.9107 -2.607149,-1.3482 -4.979984,-4.2131 -4.979984,-6.0127 0,-0.36 2.8125,-0.3932 6.25,-0.074 8.26558,0.7682 11.64886,0.7701 21.58834,0.013 7.00086,-0.5336 8.88557,-0.3408 11.75,1.2018 4.55764,2.4544 4.70271,5.8743 0.28666,6.7575 -3.7308,0.7461 -3.76268,0.7442 -6.64504,-0.4136 z m -103.213293,-4.4215 c 2.520913,-2.5041 4.72665,-3.6446 7.983333,-4.1279 l 4.5,-0.6678 -3.952948,4.1279 c -3.352179,3.5005 -4.565485,4.1279 -7.983333,4.1279 l -4.030386,0 3.483334,-3.4601 z m 32.082109,-0.097 c -1.154327,-1.9564 -2.098776,-3.7564 -2.098776,-4 0,-0.2435 2.256614,-0.4428 5.014698,-0.4428 4.584468,0 5.184705,0.2788 6.996262,3.25 1.08986,1.7875 1.983246,3.5875 1.985302,4 0.0021,0.4125 -2.201813,0.75 -4.897486,0.75 -4.556391,0 -5.048887,-0.2503 -7,-3.5572 z M 36.5,1054.694 c 0,-4.6369 0.952449,-5.5818 5.626041,-5.5818 4.292572,0 4.395744,0.074 3.809488,2.75 -1.109944,5.0655 -1.299853,5.25 -5.404144,5.25 -3.597118,0 -4.031385,-0.2605 -4.031385,-2.4182 z m 46.01082,-5.7248 c 0.006,-0.1964 0.68096,-2.566 1.5,-5.266 0.81905,-2.6999 1.48918,-6.1874 1.48918,-7.75 0,-2.6766 -0.24597,-2.8407 -4.25,-2.8354 -10.08078,0.013 -17.75,5.0759 -17.75,11.7172 0,3.2311 -0.0651,3.2772 -4.630842,3.2772 l -4.630843,0 0.569514,-3.5095 c 1.380029,-8.5041 8.965027,-13.9398 21.811751,-15.6309 4.60923,-0.6068 8.89629,-1.2414 9.5268,-1.4103 0.6305,-0.1688 1.46386,-2.6154 1.8519,-5.4368 0.99933,-7.266 -0.74916,-9.0273 -8.90327,-8.9686 -3.35225,0.024 -7.89501,0.6923 -10.09501,1.4849 -2.2,0.7926 -4.1125,1.4478 -4.25,1.4561 -0.1375,0.01 -0.25,-1.0548 -0.25,-2.3625 0,-3.2266 1.55188,-4.2928 9.04012,-6.2112 11.34029,-2.9053 21.06229,-0.3216 22.82603,6.0662 0.5276,1.9108 0.80224,4.2726 0.61031,5.2484 -0.19193,0.9758 -1.35347,7.9617 -2.5812,15.5242 l -2.23224,13.75 -3.24972,0 c -1.78735,0 -3.96153,0.2731 -4.83151,0.607 -0.86999,0.3338 -1.57692,0.4463 -1.57097,0.25 z m -85.684472,-8.8032 7.591714,-7.9461 -6.076676,-10.8039 c -3.342171,-5.9421 -6.473735,-11.2313 -6.959031,-11.7538 -1.770371,-1.9061 -0.782798,-2.55 3.910998,-2.55 l 4.793352,0 5.376576,9.2178 5.376576,9.2179 8.727578,-9.2843 c 8.289063,-8.8179 8.91396,-9.2685 12.437069,-8.9679 l 3.709491,0.3165 -8.29678,9 c -4.563229,4.95 -9.384398,10.1997 -10.71371,11.6661 l -2.416929,2.6661 4.606712,8.1917 c 2.533691,4.5055 4.606712,8.3682 4.606712,8.5839 0,0.2157 -2.190201,0.3922 -4.867114,0.3922 -4.566082,0 -5.029958,-0.2461 -7.5,-3.9786 -1.448087,-2.1882 -2.632886,-4.4382 -2.632886,-5 0,-2.0157 -1.569025,-0.9403 -5.805481,3.9791 -3.999392,4.6441 -4.630887,4.9995 -8.882683,4.9995 l -4.577203,0 7.591715,-7.9462 z m 41.134003,5.6962 c 0.448017,-2.0223 1.615374,-8.4848 5.690092,-31.5 l 1.28357,-7.25 4.302045,0 c 3.94307,0 4.260266,0.1877 3.801347,2.25 C 52.523608,1011.671 46.5,1047.0141 46.5,1047.72 c 0,0.2157 -2.033573,0.3922 -4.519052,0.3922 -4.167448,0 -4.48027,-0.1751 -4.020597,-2.25 z m 8.987511,-50.00002 c 0.211801,-0.6875 0.644307,-2.43991 0.961126,-3.89425 0.488798,-2.2438 1.195323,-2.70331 4.665369,-3.03423 4.044533,-0.38571 4.082961,-0.35811 3.507489,2.51925 -0.320015,1.60008 -0.581846,3.52798 -0.581846,4.28423 0,0.96153 -1.34373,1.375 -4.468615,1.375 -3.113608,0 -4.351845,-0.37903 -4.083523,-1.25 z" />
    <path
       inkscape:connector-curvature="0"
       style="fill:#8e8e8e;stroke:none;stroke-width:0.31108692;stroke-miterlimit:4;stroke-dasharray:none;stroke-opacity:1"
       id="path4793"
       d="m 92.13453,1072.8622 c 1.70045,-9.4547 9.17813,-18.2117 28.99447,-33.9553 16.94195,-13.4599 21.371,-19.6122 21.371,-29.6859 0,-6.2306 -3.27646,-10.56763 -9.18562,-12.1588 -5.65376,-1.5224 -11.89187,-0.32225 -22.92165,4.4099 l -3.60728,1.5477 0.81372,-4.20383 c 0.44755,-2.31209 0.83333,-4.47969 0.85728,-4.8169 0.061,-0.85804 9.39874,-3.67914 16.42741,-4.963 10.07727,-1.84071 20.08555,0.62335 25.29953,6.22879 7.74096,8.32214 4.8418,24.36634 -6.31877,34.96854 -2.67554,2.5417 -9.13962,7.8894 -14.36462,11.8837 -5.225,3.9943 -11.021,8.6647 -12.88,10.3787 -3.75643,3.4634 -9.12,11.2925 -9.12,13.3122 0,1.025 3.93984,1.3042 18.40638,1.3042 20.30093,0 18.58332,-0.6265 17.1348,6.25 l -0.57928,2.75 -25.45595,0 -25.45595,0 0.58453,-3.25 z m -4.40457,-14.7886 c -1.37387,-0.5518 -2.50263,-2.0748 -2.85921,-3.8577 l -0.58917,-2.9458 -6.22384,3.421 c -6.99384,3.8443 -13.537196,4.5173 -18.577756,1.9107 -2.607149,-1.3482 -4.979984,-4.2131 -4.979984,-6.0127 0,-0.36 2.8125,-0.3932 6.25,-0.074 8.26558,0.7682 11.64886,0.7701 21.58834,0.013 7.00086,-0.5336 8.88557,-0.3408 11.75,1.2018 4.55764,2.4544 4.70271,5.8743 0.28666,6.7575 -3.7308,0.7461 -3.76268,0.7442 -6.64504,-0.4136 z m -103.213293,-4.4215 c 2.520913,-2.5041 4.72665,-3.6446 7.983333,-4.1279 l 4.5,-0.6678 -3.952948,4.1279 c -3.352179,3.5005 -4.565485,4.1279 -7.983333,4.1279 l -4.030386,0 3.483334,-3.4601 z m 32.082109,-0.097 c -1.154327,-1.9564 -2.098776,-3.7564 -2.098776,-4 0,-0.2435 2.256614,-0.4428 5.014698,-0.4428 4.584468,0 5.184705,0.2788 6.996262,3.25 1.08986,1.7875 1.983246,3.5875 1.985302,4 0.0021,0.4125 -2.201813,0.75 -4.897486,0.75 -4.556391,0 -5.048887,-0.2503 -7,-3.5572 z M 36.5,1054.694 c 0,-4.6369 0.952449,-5.5818 5.626041,-5.5818 4.292572,0 4.395744,0.074 3.809488,2.75 -1.109944,5.0655 -1.299853,5.25 -5.404144,5.25 -3.597118,0 -4.031385,-0.2605 -4.031385,-2.4182 z m 46.01082,-5.7248 c 0.006,-0.1964 0.68096,-2.566 1.5,-5.266 0.81905,-2.6999 1.48918,-6.1874 1.48918,-7.75 0,-2.6766 -0.24597,-2.8407 -4.25,-2.8354 -10.08078,0.013 -17.75,5.0759 -17.75,11.7172 0,3.2311 -0.0651,3.2772 -4.630842,3.2772 l -4.630843,0 0.569514,-3.5095 c 1.380029,-8.5041 8.965027,-13.9398 21.811751,-15.6309 4.60923,-0.6068 8.89629,-1.2414 9.5268,-1.4103 0.6305,-0.1688 1.46386,-2.6154 1.8519,-5.4368 0.99933,-7.266 -0.74916,-9.0273 -8.90327,-8.9686 -3.35225,0.024 -7.89501,0.6923 -10.09501,1.4849 -2.2,0.7926 -4.1125,1.4478 -4.25,1.4561 -0.1375,0.01 -0.25,-1.0548 -0.25,-2.3625 0,-3.2266 1.55188,-4.2928 9.04012,-6.2112 11.34029,-2.9053 21.06229,-0.3216 22.82603,6.0662 0.5276,1.9108 0.80224,4.2726 0.61031,5.2484 -0.19193,0.9758 -1.35347,7.9617 -2.5812,15.5242 l -2.23224,13.75 -3.24972,0 c -1.78735,0 -3.96153,0.2731 -4.83151,0.607 -0.86999,0.3338 -1.57692,0.4463 -1.57097,0.25 z m -85.684472,-8.8032 7.591714,-7.9461 -6.076676,-10.8039 c -3.342171,-5.9421 -6.473735,-11.2313 -6.959031,-11.7538 -1.770371,-1.9061 -0.782798,-2.55 3.910998,-2.55 l 4.793352,0 5.376576,9.2178 5.376576,9.2179 8.727578,-9.2843 c 8.289063,-8.8179 8.91396,-9.2685 12.437069,-8.9679 l 3.709491,0.3165 -8.29678,9 c -4.563229,4.95 -9.384398,10.1997 -10.71371,11.6661 l -2.416929,2.6661 4.606712,8.1917 c 2.533691,4.5055 4.606712,8.3682 4.606712,8.5839 0,0.2157 -2.190201,0.3922 -4.867114,0.3922 -4.566082,0 -5.029958,-0.2461 -7.5,-3.9786 -1.448087,-2.1882 -2.632886,-4.4382 -2.632886,-5 0,-2.0157 -1.569025,-0.9403 -5.805481,3.9791 -3.999392,4.6441 -4.630887,4.9995 -8.882683,4.9995 l -4.577203,0 7.591715,-7.9462 z m 41.134003,5.6962 c 0.448017,-2.0223 1.615374,-8.4848 5.690092,-31.5 l 1.28357,-7.25 4.302045,0 c 3.94307,0 4.260266,0.1877 3.801347,2.25 C 52.523608,1011.671 46.5,1047.0141 46.5,1047.72 c 0,0.2157 -2.033573,0.3922 -4.519052,0.3922 -4.167448,0 -4.48027,-0.1751 -4.020597,-2.25 z m 8.987511,-50.00002 c 0.211801,-0.6875 0.644307,-2.43991 0.961126,-3.89425 0.488798,-2.2438 1.195323,-2.70331 4.665369,-3.03423 4.044533,-0.38571 4.082961,-0.35811 3.507489,2.51925 -0.320015,1.60008 -0.581846,3.52798 -0.581846,4.28423 0,0.96153 -1.34373,1.375 -4.468615,1.375 -3.113608,0 -4.351845,-0.37903 -4.083523,-1.25 z" />
    <path
       inkscape:connector-curvature="0"
       style="fill:#737373;stroke:none;stroke-width:0.31108692;stroke-miterlimit:4;stroke-dasharray:none;stroke-opacity:1"
       id="path4791"
       d="m 92.13453,1072.8622 c 1.70045,-9.4547 9.17813,-18.2117 28.99447,-33.9553 16.94195,-13.4599 21.371,-19.6122 21.371,-29.6859 0,-6.2306 -3.27646,-10.56763 -9.18562,-12.1588 -5.65376,-1.5224 -11.89187,-0.32225 -22.92165,4.4099 l -3.60728,1.5477 0.81372,-4.20383 c 0.44755,-2.31209 0.83333,-4.47969 0.85728,-4.8169 0.061,-0.85804 9.39874,-3.67914 16.42741,-4.963 10.07727,-1.84071 20.08555,0.62335 25.29953,6.22879 7.74096,8.32214 4.8418,24.36634 -6.31877,34.96854 -2.67554,2.5417 -9.13962,7.8894 -14.36462,11.8837 -5.225,3.9943 -11.021,8.6647 -12.88,10.3787 -3.75643,3.4634 -9.12,11.2925 -9.12,13.3122 0,1.025 3.93984,1.3042 18.40638,1.3042 20.30093,0 18.58332,-0.6265 17.1348,6.25 l -0.57928,2.75 -25.45595,0 -25.45595,0 0.58453,-3.25 z m -5.23002,-15.9045 c -0.44208,-0.7153 -0.27432,-0.8831 0.44098,-0.441 2.29108,1.416 3.17441,-0.4654 1.62516,-3.4613 -1.43264,-2.7704 -1.40783,-2.9432 0.42263,-2.9432 3.04451,0 8.09341,3.309 8.1004,5.309 0.0035,0.995 -0.44368,1.5309 -0.99368,1.191 -0.55,-0.3399 -1,-0.1415 -1,0.441 0,1.4378 -7.7007,1.3523 -8.59549,-0.096 z m -69.786336,-2.9148 c -0.997172,-1.688 -1.656696,-3.2222 -1.465607,-3.4092 0.191088,-0.187 2.277428,-0.4776 4.63631,-0.6459 3.806772,-0.2715 4.508583,0.027 6.243411,2.6592 1.074993,1.6309 1.957499,3.3027 1.961123,3.7152 0.0036,0.4125 -2.146388,0.75 -4.777803,0.75 -4.279499,0 -4.975722,-0.3239 -6.597434,-3.0693 z m 19.756826,-0.056 c 0.34375,-1.7188 0.625,-3.4611 0.625,-3.8718 0,-0.4108 1.8,-0.6997 4,-0.642 4.188991,0.1099 4.605785,0.7764 3.369714,5.3888 -0.498147,1.8588 -1.299845,2.25 -4.611345,2.25 -3.95604,0 -4.00021,-0.041 -3.383369,-3.125 z m 31.64031,0.375 c -0.0084,-1.2375 0.43469,-2.25 0.98469,-2.25 1.25292,0 1.25292,1.0612 0,3 -0.78387,1.2129 -0.9723,1.0694 -0.98469,-0.75 z M 82,1051.1122 c 0.33992,-0.55 0.81648,-1 1.05902,-1 0.24254,0 0.44098,0.45 0.44098,1 0,0.55 -0.47656,1 -1.05902,1 -0.58246,0 -0.7809,-0.45 -0.44098,-1 z m -86.5,-3.7095 c 2.823862,-1.0383 5,-3.6003 5,-5.8865 0,-1.2573 0.45,-2.5641 1,-2.904 0.55,-0.3399 1,-1.1257 1,-1.7461 0,-0.6205 -1.4625,0.1893 -3.25,1.7994 -1.941821,1.7492 -1.438675,0.9263 1.25,-2.0443 2.475,-2.7345 4.684198,-5.2052 4.909329,-5.4904 0.225132,-0.2852 0.122759,0.2793 -0.227494,1.2545 -0.517884,1.442 -0.314179,1.5972 1.09067,0.8309 0.950122,-0.5182 2.35984,-1.8377 3.132705,-2.9322 0.772866,-1.0945 2.010366,-1.7577 2.75,-1.4739 0.826425,0.3171 1.350692,-0.1997 1.360103,-1.3409 0.0129,-1.5649 0.167786,-1.6211 0.984687,-0.357 0.533156,0.825 0.976265,1.0457 0.984687,0.4905 0.0084,-0.5552 1.027813,-1.622 2.265313,-2.3707 1.608615,-0.9732 1.330178,-0.3937 -0.976767,2.0331 l -3.226767,3.3944 1.784796,2.9763 c 0.981638,1.637 3.254209,5.5639 5.050158,8.7264 l 3.265361,5.75 -5.015705,0 c -4.977609,0 -5.03703,-0.038 -7.82339,-4.999 -1.544227,-2.7494 -3.049602,-4.9994 -3.345278,-5 -0.295675,-6e-4 -2.753759,2.249 -5.462408,4.999 -2.708649,2.75 -5.616733,4.9645 -6.462408,4.921 -1.341538,-0.069 -1.346331,-0.1492 -0.037592,-0.6305 z m 43.882719,-7.4245 c 1.403285,-7.3629 1.627243,-7.8369 2.362359,-5 0.446658,1.7237 1.205218,3.134 1.685689,3.134 1.017119,0 3.069233,5.4486 3.069233,8.1492 0,1.5163 -0.78314,1.8508 -4.333767,1.8508 l -4.333768,0 1.550254,-8.134 z m 44.284921,5.0829 c 0.58498,-1.678 1.29061,-2.824 1.56808,-2.5465 0.79322,0.7932 -0.66824,5.5976 -1.70275,5.5976 -0.54248,0 -0.48645,-1.2693 0.13467,-3.0511 z m 5.50548,-2.9604 c 0.13857,-3.8244 -0.24392,-6.4429 -1.05131,-7.1971 -0.69802,-0.652 -1.06146,-2.2719 -0.80765,-3.5996 0.40564,-2.1219 0.18762,-2.3272 -1.80157,-1.6958 -1.54342,0.4898 -2.04547,0.3662 -1.5788,-0.3889 0.37633,-0.6089 1.30511,-1.1071 2.06395,-1.1071 1.52248,0 3.08022,-7.6819 2.2227,-10.961 -0.27989,-1.0704 0.0993,-2.7545 0.84272,-3.7425 1.17356,-1.5599 1.2741,-1.1141 0.76321,3.3836 -0.58224,5.1259 1.33324,14.6483 2.76821,13.7614 1.46413,-0.9049 1.67516,2.5095 0.61145,9.8931 -0.84099,5.8376 -1.47944,7.6654 -2.67752,7.6654 -1.28063,0 -1.5327,-1.118 -1.35539,-6.0115 z m -42.594173,-1.5719 c 0.04798,-1.1649 0.284941,-1.4019 0.604167,-0.6041 0.288871,0.7219 0.253344,1.5844 -0.07895,1.9166 -0.332292,0.3323 -0.568641,-0.2583 -0.52522,-1.3125 z m 18.485346,-2.7097 c 0.375531,-0.9863 0.934687,-1.5413 1.242577,-1.2334 0.30789,0.3079 6.4e-4,1.1148 -0.68278,1.7931 -0.987618,0.9803 -1.102482,0.8655 -0.559797,-0.5597 z m 1.145957,-4.7069 c 0.28766,-1.1 0.69553,-2 0.90638,-2 0.21085,0 0.38337,0.9 0.38337,2 0,1.1 -0.40787,2 -0.90638,2 -0.49851,0 -0.67103,-0.9 -0.38337,-2 z m 13.045,-2.5 c 0.26285,-1.375 0.87544,-2.5 1.36133,-2.5 1.03182,0 1.12865,1.1973 0.27643,3.4182 -0.96291,2.5093 -2.16422,1.8358 -1.63776,-0.9182 z m 13.59262,-3.6972 c 0.18442,-1.2085 0.8566,-2.371 1.49372,-2.5834 1.27716,-0.4257 1.48333,0.7703 0.55142,3.1988 -0.9077,2.3654 -2.43014,1.9073 -2.04514,-0.6154 z M 48.5,1021.0532 c 0,-0.5825 0.45,-0.7809 1,-0.441 0.55,0.3399 1,0.8165 1,1.059 0,0.2425 -0.45,0.441 -1,0.441 -0.55,0 -1,-0.4766 -1,-1.059 z m 31.5,-8.941 c -2.2,-0.3939 -3.22662,-0.7801 -2.28138,-0.8581 2.12459,-0.1754 1.31466,-2.8417 -1.05376,-3.469 -0.91567,-0.2425 -0.23916,-0.4931 1.50335,-0.5569 1.74252,-0.064 3.99252,-0.4049 5,-0.758 1.73098,-0.6066 1.73789,-0.5422 0.12548,1.1706 -1.61253,1.7129 -1.59037,1.9131 0.40301,3.642 1.16013,1.0061 1.70297,1.7655 1.20631,1.6875 C 84.40635,1012.8922 82.2,1012.5061 80,1012.1122 Z m -81.6875,-4.6831 c 0.721875,-0.2889 1.584375,-0.2534 1.916667,0.079 0.332291,0.3323 -0.258334,0.5687 -1.3125,0.5252 -1.164943,-0.048 -1.4019,-0.2849 -0.604167,-0.6041 z" />
    <path
       inkscape:connector-curvature="0"
       style="fill:#fe0202;stroke:none;stroke-width:0.31108692;stroke-miterlimit:4;stroke-dasharray:none;stroke-opacity:1"
       id="path4789"
       d="m 92.13453,1072.8622 c 1.70045,-9.4547 9.17813,-18.2117 28.99447,-33.9553 16.94195,-13.4599 21.371,-19.6122 21.371,-29.6859 0,-6.2306 -3.27646,-10.56763 -9.18562,-12.1588 -5.65376,-1.5224 -11.89187,-0.32225 -22.92165,4.4099 l -3.60728,1.5477 0.81372,-4.20383 c 0.44755,-2.31209 0.83333,-4.47969 0.85728,-4.8169 0.061,-0.85804 9.39874,-3.67914 16.42741,-4.963 10.07727,-1.84071 20.08555,0.62335 25.29953,6.22879 7.74096,8.32214 4.8418,24.36634 -6.31877,34.96854 -2.67554,2.5417 -9.13962,7.8894 -14.36462,11.8837 -5.225,3.9943 -11.021,8.6647 -12.88,10.3787 -3.75643,3.4634 -9.12,11.2925 -9.12,13.3122 0,1.025 3.93984,1.3042 18.40638,1.3042 20.30093,0 18.58332,-0.6265 17.1348,6.25 l -0.57928,2.75 -25.45595,0 -25.45595,0 0.58453,-3.25 z" />
  </g>
</svg>
