<?xml version="1.0" encoding="UTF-8" standalone="no"?>
<!-- Created with Inkscape (http://www.inkscape.org/) -->

<svg
   xmlns:dc="http://purl.org/dc/elements/1.1/"
   xmlns:cc="http://creativecommons.org/ns#"
   xmlns:rdf="http://www.w3.org/1999/02/22-rdf-syntax-ns#"
   xmlns:svg="http://www.w3.org/2000/svg"
   xmlns="http://www.w3.org/2000/svg"
   xmlns:xlink="http://www.w3.org/1999/xlink"
   xmlns:sodipodi="http://sodipodi.sourceforge.net/DTD/sodipodi-0.dtd"
   xmlns:inkscape="http://www.inkscape.org/namespaces/inkscape"
   version="1.1"
   width="64"
   height="64"
   id="svg2985"
   inkscape:version="0.48.5 r10040"
   sodipodi:docname="LidiaAcedrg.svg">
  <sodipodi:namedview
     pagecolor="#ffffff"
     bordercolor="#666666"
     borderopacity="1"
     objecttolerance="10"
     gridtolerance="10"
     guidetolerance="10"
     inkscape:pageopacity="0"
     inkscape:pageshadow="2"
     inkscape:window-width="640"
     inkscape:window-height="480"
     id="namedview33"
     showgrid="false"
     inkscape:zoom="3.6875"
     inkscape:cx="32"
     inkscape:cy="32"
     inkscape:window-x="0"
     inkscape:window-y="0"
     inkscape:window-maximized="0"
     inkscape:current-layer="svg2985" />
  <defs
     id="defs2987">
    <linearGradient
       id="linearGradient4769">
      <stop
         id="stop4771"
         style="stop-color:#ff0000;stop-opacity:1"
         offset="0" />
      <stop
         id="stop4773"
         style="stop-color:#ff0000;stop-opacity:0"
         offset="1" />
    </linearGradient>
    <linearGradient
       id="linearGradient4749">
      <stop
         id="stop4751"
         style="stop-color:#00ad00;stop-opacity:1"
         offset="0" />
      <stop
         id="stop4753"
         style="stop-color:#00ad00;stop-opacity:0"
         offset="1" />
    </linearGradient>
    <marker
       refX="0"
       refY="0"
       orient="auto"
       id="Arrow1Mend"
       style="overflow:visible">
      <path
         d="M 0,0 5,-5 -12.5,0 5,5 0,0 z"
         transform="matrix(-0.4,0,0,-0.4,-4,0)"
         id="path4128"
         style="fill-rule:evenodd;stroke:#000000;stroke-width:1pt" />
    </marker>
    <marker
       refX="0"
       refY="0"
       orient="auto"
       id="Arrow1Lend"
       style="overflow:visible">
      <path
         d="M 0,0 5,-5 -12.5,0 5,5 0,0 z"
         transform="matrix(-0.8,0,0,-0.8,-10,0)"
         id="path4122"
         style="fill-rule:evenodd;stroke:#000000;stroke-width:1pt" />
    </marker>
    <linearGradient
       x1="12.227273"
       y1="56.090908"
       x2="26.681818"
       y2="56.090908"
       id="linearGradient4759"
       xlink:href="#linearGradient4749"
       gradientUnits="userSpaceOnUse" />
    <linearGradient
       x1="12.227273"
       y1="56.090908"
       x2="26.681818"
       y2="56.090908"
       id="linearGradient4775"
       xlink:href="#linearGradient4769"
       gradientUnits="userSpaceOnUse" />
    <linearGradient
       inkscape:collect="always"
       xlink:href="#linearGradient4769"
       id="linearGradient3015"
       gradientUnits="userSpaceOnUse"
       x1="12.227273"
       y1="56.090908"
       x2="26.681818"
       y2="56.090908"
       gradientTransform="translate(-9.8181817,-20.181818)" />
    <linearGradient
       inkscape:collect="always"
       xlink:href="#linearGradient4749"
       id="linearGradient3027"
       gradientUnits="userSpaceOnUse"
       x1="12.227273"
       y1="56.090908"
       x2="26.681818"
       y2="56.090908"
       gradientTransform="translate(28.909091,-12)" />
  </defs>
  <metadata
     id="metadata2990">
    <rdf:RDF>
      <cc:Work
         rdf:about="">
        <dc:format>image/svg+xml</dc:format>
        <dc:type
           rdf:resource="http://purl.org/dc/dcmitype/StillImage" />
        <dc:title />
      </cc:Work>
    </rdf:RDF>
  </metadata>
  <path
     inkscape:connector-curvature="0"
     style="fill:url(#linearGradient3027);fill-opacity:1;stroke:#000000;stroke-opacity:1"
     id="path4090"
     d="m 55.090909,44.090908 a 6.7272725,6.6363635 0 0 1 -13.454545,0 6.7272725,6.6363635 0 1 1 13.454545,0 z" />
  <path
     style="fill:#000000"
     d="m 37.130051,20.983191 c -0.555104,-1.663247 -1.012072,-3.181278 -1.015485,-3.373402 -0.0036,-0.20542 -1.634822,-0.850205 -3.959782,-1.565259 l -3.953578,-1.215943 -3.805688,2.110927 c -2.093128,1.16101 -4.026325,2.110928 -4.295993,2.110928 -0.563303,0 -7.892734,-4.016999 -8.209596,-4.499386 -0.115521,-0.175868 -0.211997,-2.262662 -0.214392,-4.6373196 -0.0033,-3.3082096 0.08737,-4.4064016 0.387975,-4.6975821 0.494901,-0.4793774 7.275203,-4.26293054 7.860989,-4.38659974 0.239325,-0.050525 2.207031,0.89095084 4.372681,2.09216954 l 3.937546,2.1840338 4.024426,-1.2890497 c 2.213435,-0.7089774 4.275645,-1.2827939 4.582691,-1.2751478 0.372184,0.00927 1.197906,0.8811851 2.477273,2.6158621 1.055454,1.4310782 1.919008,2.7259916 1.919008,2.8775851 0,0.6914208 -0.620099,0.084075 -2.406637,-2.3571411 C 37.771793,4.2298452 36.760353,3.0982045 36.583845,3.1631094 36.407336,3.2280144 34.503828,3.81392 32.353828,4.465122 l -3.90909,1.1840039 0,4.3045985 0,4.3045976 3.787069,1.146557 c 2.082888,0.630607 3.978113,1.217568 4.211611,1.304359 0.296255,0.110117 1.014921,-0.635697 2.378286,-2.468124 1.818732,-2.444461 2.416422,-3.026553 2.416422,-2.35336 0,0.14991 -0.821088,1.3571 -1.824643,2.682643 -1.003553,1.325543 -1.698742,2.485449 -1.544865,2.577568 0.331686,0.198563 2.278556,6.080179 2.077166,6.275251 -0.292004,0.282845 -0.665652,-0.474906 -1.579114,-3.20241 -0.550592,-1.644014 -1.098148,-2.822642 -1.311314,-2.822642 -0.464401,0 -0.524165,-0.287789 0.629051,3.029177 1.049454,3.018519 1.163148,3.579936 0.724983,3.579936 -0.148532,0 -0.724235,-1.360839 -1.279339,-3.024086 z m -13.04692,-4.609466 3.793011,-2.125958 0,-4.2955296 0,-4.2955306 -3.873337,-2.1596872 -3.873338,-2.1596871 -1.220929,0.6460392 c -0.671511,0.3553216 -2.414707,1.3369411 -3.87377,2.1813768 l -2.65284,1.5353372 -0.07842,4.1857517 -0.07842,4.1857516 0.772868,0.490518 c 1.585066,1.005997 6.785117,3.904529 7.033931,3.920746 0.142026,0.0093 1.965083,-0.939852 4.05124,-2.109128 z M 16.65282,15.465259 c -2.530143,-1.43579 -3.748936,-2.420007 -2.668923,-2.155246 0.743996,0.182388 6.216213,3.321976 6.216213,3.566443 0,0.476656 -0.737653,0.1832 -3.54729,-1.411197 z m 9.517537,-5.5023476 c 0,-2.2030382 0.109345,-3.5799368 0.284298,-3.5799368 0.174952,0 0.284297,1.3768986 0.284297,3.5799368 0,2.2030376 -0.109345,3.5799356 -0.284297,3.5799356 -0.174953,0 -0.284298,-1.376898 -0.284298,-3.5799356 z m -12.50909,-3.549889 c 0,-0.2704001 5.778855,-3.6099842 6.246759,-3.6099842 0.80041,0 0.0162,0.609786 -2.772794,2.1560731 -3.136971,1.739213 -3.473965,1.8802507 -3.473965,1.4539111 z m 30.988429,3.549889 c 0,-0.1689 1.374104,-0.27538 3.553719,-0.27538 2.179615,0 3.553719,0.10648 3.553719,0.27538 0,0.1688986 -1.374104,0.2753796 -3.553719,0.2753796 -2.179615,0 -3.553719,-0.106481 -3.553719,-0.2753796 z"
     id="path3034"
     inkscape:connector-curvature="0" />
  <text
     x="39.912312"
     y="11.359229"
     id="text3250"
     xml:space="preserve"
     style="font-size:4.47684956px;font-style:normal;font-weight:normal;line-height:125%;letter-spacing:0px;word-spacing:0px;fill:#0000ff;fill-opacity:1;stroke:none;font-family:Sans"
     sodipodi:linespacing="125%"
     transform="scale(1.0160628,0.98419115)"><tspan
       x="39.912312"
       y="11.359229"
       id="tspan3252">N</tspan></text>
  <text
     x="37.241467"
     y="27.893047"
     id="text3254"
     xml:space="preserve"
     style="font-size:4.47684956px;font-style:normal;font-weight:normal;line-height:125%;letter-spacing:0px;word-spacing:0px;fill:#0000ff;fill-opacity:1;stroke:none;font-family:Sans"
     sodipodi:linespacing="125%"
     transform="scale(1.0160628,0.98419115)"><tspan
       x="37.241467"
       y="27.893047"
       id="tspan3256"
       style="fill:#ff0000">O</tspan></text>
  <rect
     style="fill:#008000;stroke:#000000;stroke-width:1;stroke-opacity:1"
     id="rect4084"
     transform="matrix(0.86856634,-0.49557292,0.49557292,0.86856634,0,0)"
     y="60.296413"
     x="-3.1890833"
     height="3.4545455"
     width="21.636364" />
  <path
     inkscape:connector-curvature="0"
     style="fill:#00ad00;fill-opacity:1;stroke:#000000;stroke-opacity:1"
     id="path4086"
     d="m 33.090909,56.636363 a 6.7272725,6.6363635 0 0 1 -13.454545,0 6.7272725,6.6363635 0 1 1 13.454545,0 z" />
  <rect
     style="fill:#ff0000;stroke:#000000;stroke-width:0.80469257;stroke-opacity:1"
     id="rect4088"
     transform="matrix(-0.6136529,-0.78957591,0.79323583,-0.60891454,0,0)"
     y="-16.187578"
     x="-58.194778"
     height="2.782021"
     width="17.397017" />
  <path
     inkscape:connector-curvature="0"
     style="fill:url(#linearGradient3015);fill-opacity:1;stroke:#000000;stroke-opacity:1"
     id="path4092"
     d="m 16.363636,35.90909 a 6.7272725,6.6363635 0 0 1 -13.4545447,0 6.7272725,6.6363635 0 1 1 13.4545447,0 z" />
  <path
     inkscape:connector-curvature="0"
     style="fill:none;stroke:#000000;stroke-width:1.07275498px;stroke-linecap:butt;stroke-linejoin:miter;stroke-opacity:1;marker-end:url(#Arrow1Mend)"
     id="path4113"
     d="m 28.272727,18.144306 0,12.990249" />
  <text
     sodipodi:linespacing="125%"
     style="font-size:6.46532297px;font-style:normal;font-weight:normal;line-height:125%;letter-spacing:0px;word-spacing:0px;fill:#000000;fill-opacity:1;stroke:none;font-family:Sans"
     xml:space="preserve"
     id="text4777"
     transform="scale(1.0154178,0.9848163)"
     y="41.318275"
     x="20.942919"><tspan
       id="tspan4779"
       y="41.318275"
       x="20.942919">109</tspan></text>
  <path
     inkscape:connector-curvature="0"
     style="fill:none;stroke:#000000;stroke-width:1px;stroke-linecap:butt;stroke-linejoin:miter;stroke-opacity:1"
     id="path4783"
     d="m 20.181818,45.090909 c 8,-3.454545 8.181818,-3.454545 8.181818,-3.454545 l 8.363637,4 0,0 0,0" />
</svg>
