<?xml version="1.0" encoding="UTF-8" standalone="no"?>
<svg
   xmlns:dc="http://purl.org/dc/elements/1.1/"
   xmlns:cc="http://creativecommons.org/ns#"
   xmlns:rdf="http://www.w3.org/1999/02/22-rdf-syntax-ns#"
   xmlns:svg="http://www.w3.org/2000/svg"
   xmlns="http://www.w3.org/2000/svg"
   width="64"
   height="64"
   id="svg2"
   version="1.1">
  <defs
     id="defs4">
    <linearGradient
       id="linearGradient3893">
      <stop
         id="stop3895"
         offset="0"
         style="stop-color:#ffffff;stop-opacity:1;" />
      <stop
         style="stop-color:#464646;stop-opacity:1;"
         offset="0.5"
         id="stop3897" />
      <stop
         id="stop3899"
         offset="1"
         style="stop-color:#ffffff;stop-opacity:1;" />
    </linearGradient>
    <linearGradient
       id="linearGradient3871">
      <stop
         style="stop-color:#929292;stop-opacity:1;"
         offset="0"
         id="stop3873" />
      <stop
         id="stop3879"
         offset="0.5"
         style="stop-color:#878787;stop-opacity:1;" />
      <stop
         style="stop-color:#1a1a1a;stop-opacity:1;"
         offset="1"
         id="stop3875" />
    </linearGradient>
  </defs>
  <metadata
     id="metadata7">
    <rdf:RDF>
      <cc:Work
         rdf:about="">
        <dc:format>image/svg+xml</dc:format>
        <dc:type
           rdf:resource="http://purl.org/dc/dcmitype/StillImage" />
        <dc:title></dc:title>
      </cc:Work>
    </rdf:RDF>
  </metadata>
  <g
     id="g3387">
    <g
       id="g3693"
       transform="matrix(0.53235293,0,0,0.57349995,-214.43174,205.1593)"
       style="opacity:0.1125">
      <g
         id="g4949"
         transform="matrix(2.1082892,0,0,1.9260905,-484.21421,261.31413)">
        <path
           id="path3215"
           style="fill:none;stroke:#000000;stroke-width:0.56414336;stroke-miterlimit:4;stroke-dasharray:none"
           d="m 423.74699,-289.41264 18.0135,2.52076 -0.56359,20.67141 -15.2604,-5.29274 -2.18951,-17.89943 z" />
        <path
           id="path3217"
           style="fill:none;stroke:#000000;stroke-width:0.56414336;stroke-miterlimit:4;stroke-dasharray:none"
           d="m 423.67231,-289.41121 10.84896,-2.44037 15.61123,1.65658 -8.2903,3.36484 -18.16989,-2.58105 z" />
        <path
           id="path3219"
           style="fill:none;stroke:#000000;stroke-width:0.56414336;stroke-miterlimit:4;stroke-dasharray:none;stroke-opacity:0.19607999"
           d="m 423.78784,-289.45284 2.11344,17.94393 9.5809,-5.74205 -0.69884,-14.68245 -10.9955,2.48057 z" />
        <path
           id="path3221"
           style="fill:none;stroke:#000000;stroke-width:0.56414336;stroke-miterlimit:4;stroke-dasharray:none;stroke-opacity:0.19607999"
           d="m 434.80306,-291.85445 15.09132,1.63792 -1.26805,16.50842 -13.12443,-3.50696 -0.69884,-14.63938 z" />
        <path
           id="path3223"
           style="fill:none;stroke:#000000;stroke-width:0.56414336;stroke-miterlimit:4;stroke-dasharray:none"
           d="m 441.77316,-286.84163 8.15363,-3.30456 -1.34978,16.32323 -7.32657,7.60824 0.52272,-20.62691 z" />
        <path
           id="path3695"
           style="fill:none;stroke:#000000;stroke-width:0.56414336;stroke-miterlimit:4;stroke-dasharray:none"
           d="m 434.73825,-291.89321 c -0.0141,0 -0.0268,0 0,0 z" />
      </g>
    </g>
    <g
       id="g5089"
       transform="matrix(0.52509323,-0.50237205,0.48698518,0.54168418,-164.5876,0.35413998)"
       style="stroke-width:0.1;stroke-miterlimit:4;stroke-dasharray:none">
      <path
         id="path3034"
         d="m 144.26122,230.26977 c -0.55511,-1.66325 -1.01208,-3.18128 -1.01549,-3.3734 -0.004,-0.20542 -1.63482,-0.85021 -3.95978,-1.56526 l -3.95358,-1.21594 -3.80569,2.11092 c -2.09313,1.16101 -4.02632,2.11093 -4.29599,2.11093 -0.5633,0 -7.89273,-4.017 -8.2096,-4.49938 -0.11552,-0.17587 -0.21199,-2.26267 -0.21439,-4.63732 -0.003,-3.30821 0.0874,-4.4064 0.38798,-4.69759 0.4949,-0.47937 7.2752,-4.26293 7.86099,-4.38659 0.23932,-0.0505 2.20703,0.89095 4.37268,2.09216 l 3.93754,2.18404 4.02443,-1.28905 c 2.21343,-0.70898 4.27564,-1.2828 4.58269,-1.27515 0.37218,0.009 1.19791,0.88119 2.47727,2.61586 1.05546,1.43108 1.91901,2.72599 1.91901,2.87759 0,0.69142 -0.6201,0.0841 -2.40664,-2.35714 -1.05969,-1.44802 -2.07113,-2.57967 -2.24764,-2.51476 -0.17651,0.0649 -2.08002,0.65081 -4.23002,1.30201 l -3.90909,1.18401 0,4.30459 0,4.3046 3.78707,1.14656 c 2.08289,0.63061 3.97811,1.21757 4.21161,1.30436 0.29626,0.11012 1.01492,-0.6357 2.37829,-2.46813 1.81873,-2.44446 2.41642,-3.02655 2.41642,-2.35336 0,0.14991 -0.82109,1.3571 -1.82464,2.68265 -1.00356,1.32554 -1.69874,2.48545 -1.54487,2.57757 0.33169,0.19856 2.27856,6.08017 2.07717,6.27525 -0.29201,0.28284 -0.66565,-0.47491 -1.57912,-3.20241 -0.55059,-1.64402 -1.09814,-2.82265 -1.31131,-2.82265 -0.4644,0 -0.52416,-0.28778 0.62905,3.02918 1.04946,3.01852 1.16315,3.57994 0.72498,3.57994 -0.14853,0 -0.72423,-1.36084 -1.27933,-3.02409 z m -13.04692,-4.60946 3.79301,-2.12596 0,-4.29553 0,-4.29553 -3.87334,-2.15969 -3.87334,-2.15969 -1.22093,0.64604 c -0.67151,0.35532 -2.4147,1.33694 -3.87377,2.18138 l -2.65284,1.53534 -0.0784,4.18575 -0.0784,4.18575 0.77287,0.49052 c 1.58507,1.00599 6.78512,3.90453 7.03393,3.92074 0.14203,0.009 1.96508,-0.93985 4.05124,-2.10912 z m -7.43031,-0.90847 c -2.53015,-1.43579 -3.74894,-2.42001 -2.66893,-2.15525 0.744,0.18239 6.21622,3.32198 6.21622,3.56645 0,0.47665 -0.73766,0.1832 -3.54729,-1.4112 z m 9.51753,-5.50235 c 0,-2.20304 0.10935,-3.57993 0.2843,-3.57993 0.17495,0 0.2843,1.37689 0.2843,3.57993 0,2.20304 -0.10935,3.57994 -0.2843,3.57994 -0.17495,0 -0.2843,-1.3769 -0.2843,-3.57994 z m -12.50909,-3.54989 c 0,-0.2704 5.77886,-3.60998 6.24676,-3.60998 0.80041,0 0.0162,0.60978 -2.77279,2.15607 -3.13697,1.73921 -3.47397,1.88025 -3.47397,1.45391 z m 30.98843,3.54989 c 0,-0.1689 1.3741,-0.27538 3.55372,-0.27538 2.17961,0 3.55372,0.10648 3.55372,0.27538 0,0.1689 -1.37411,0.27538 -3.55372,0.27538 -2.17962,0 -3.55372,-0.10648 -3.55372,-0.27538 z"
         style="fill:#000000;stroke-width:0.1;stroke-miterlimit:4;stroke-dasharray:none" />
      <text
         transform="scale(1.0160628,0.98419114)"
         style="font-style:normal;font-weight:normal;font-size:4.47684956px;line-height:125%;font-family:Sans;letter-spacing:0px;word-spacing:0px;fill:#0000ff;fill-opacity:1;stroke:none"
         xml:space="preserve"
         id="text3250"
         y="224.00754"
         x="145.34985"><tspan
           id="tspan3252"
           y="224.00754"
           x="145.34985">N</tspan></text>
      <text
         transform="scale(1.0160628,0.98419114)"
         style="font-style:normal;font-weight:normal;font-size:4.47684956px;line-height:125%;font-family:Sans;letter-spacing:0px;word-spacing:0px;fill:#0000ff;fill-opacity:1;stroke:none"
         xml:space="preserve"
         id="text3254"
         y="240.54135"
         x="142.67902"><tspan
           style="fill:#ff0000"
           id="tspan3256"
           y="240.54135"
           x="142.67902">O</tspan></text>
    </g>
  </g>
  <g
     transform="translate(8.8208577,-2.6846089)"
     id="g3403">
    <g
       style="opacity:0.1125"
       transform="matrix(0.53235293,0,0,0.57349995,-214.43174,205.1593)"
       id="g3405">
      <g
         transform="matrix(2.1082892,0,0,1.9260905,-484.21421,261.31413)"
         id="g3407">
        <path
           d="m 423.74699,-289.41264 18.0135,2.52076 -0.56359,20.67141 -15.2604,-5.29274 -2.18951,-17.89943 z"
           style="fill:none;stroke:#000000;stroke-width:0.56414336;stroke-miterlimit:4;stroke-dasharray:none"
           id="path3409" />
        <path
           d="m 423.67231,-289.41121 10.84896,-2.44037 15.61123,1.65658 -8.2903,3.36484 -18.16989,-2.58105 z"
           style="fill:none;stroke:#000000;stroke-width:0.56414336;stroke-miterlimit:4;stroke-dasharray:none"
           id="path3411" />
        <path
           d="m 423.78784,-289.45284 2.11344,17.94393 9.5809,-5.74205 -0.69884,-14.68245 -10.9955,2.48057 z"
           style="fill:none;stroke:#000000;stroke-width:0.56414336;stroke-miterlimit:4;stroke-dasharray:none;stroke-opacity:0.19607999"
           id="path3413" />
        <path
           d="m 434.80306,-291.85445 15.09132,1.63792 -1.26805,16.50842 -13.12443,-3.50696 -0.69884,-14.63938 z"
           style="fill:none;stroke:#000000;stroke-width:0.56414336;stroke-miterlimit:4;stroke-dasharray:none;stroke-opacity:0.19607999"
           id="path3415" />
        <path
           d="m 441.77316,-286.84163 8.15363,-3.30456 -1.34978,16.32323 -7.32657,7.60824 0.52272,-20.62691 z"
           style="fill:none;stroke:#000000;stroke-width:0.56414336;stroke-miterlimit:4;stroke-dasharray:none"
           id="path3417" />
        <path
           d="m 434.73825,-291.89321 c -0.0141,0 -0.0268,0 0,0 z"
           style="fill:none;stroke:#000000;stroke-width:0.56414336;stroke-miterlimit:4;stroke-dasharray:none"
           id="path3419" />
      </g>
    </g>
    <g
       style="stroke-width:0.1;stroke-miterlimit:4;stroke-dasharray:none"
       transform="matrix(0.52509323,-0.50237205,0.48698518,0.54168418,-164.5876,0.35413998)"
       id="g3421">
      <path
         style="fill:#000000;stroke-width:0.1;stroke-miterlimit:4;stroke-dasharray:none"
         d="m 144.26122,230.26977 c -0.55511,-1.66325 -1.01208,-3.18128 -1.01549,-3.3734 -0.004,-0.20542 -1.63482,-0.85021 -3.95978,-1.56526 l -3.95358,-1.21594 -3.80569,2.11092 c -2.09313,1.16101 -4.02632,2.11093 -4.29599,2.11093 -0.5633,0 -7.89273,-4.017 -8.2096,-4.49938 -0.11552,-0.17587 -0.21199,-2.26267 -0.21439,-4.63732 -0.003,-3.30821 0.0874,-4.4064 0.38798,-4.69759 0.4949,-0.47937 7.2752,-4.26293 7.86099,-4.38659 0.23932,-0.0505 2.20703,0.89095 4.37268,2.09216 l 3.93754,2.18404 4.02443,-1.28905 c 2.21343,-0.70898 4.27564,-1.2828 4.58269,-1.27515 0.37218,0.009 1.19791,0.88119 2.47727,2.61586 1.05546,1.43108 1.91901,2.72599 1.91901,2.87759 0,0.69142 -0.6201,0.0841 -2.40664,-2.35714 -1.05969,-1.44802 -2.07113,-2.57967 -2.24764,-2.51476 -0.17651,0.0649 -2.08002,0.65081 -4.23002,1.30201 l -3.90909,1.18401 0,4.30459 0,4.3046 3.78707,1.14656 c 2.08289,0.63061 3.97811,1.21757 4.21161,1.30436 0.29626,0.11012 1.01492,-0.6357 2.37829,-2.46813 1.81873,-2.44446 2.41642,-3.02655 2.41642,-2.35336 0,0.14991 -0.82109,1.3571 -1.82464,2.68265 -1.00356,1.32554 -1.69874,2.48545 -1.54487,2.57757 0.33169,0.19856 2.27856,6.08017 2.07717,6.27525 -0.29201,0.28284 -0.66565,-0.47491 -1.57912,-3.20241 -0.55059,-1.64402 -1.09814,-2.82265 -1.31131,-2.82265 -0.4644,0 -0.52416,-0.28778 0.62905,3.02918 1.04946,3.01852 1.16315,3.57994 0.72498,3.57994 -0.14853,0 -0.72423,-1.36084 -1.27933,-3.02409 z m -13.04692,-4.60946 3.79301,-2.12596 0,-4.29553 0,-4.29553 -3.87334,-2.15969 -3.87334,-2.15969 -1.22093,0.64604 c -0.67151,0.35532 -2.4147,1.33694 -3.87377,2.18138 l -2.65284,1.53534 -0.0784,4.18575 -0.0784,4.18575 0.77287,0.49052 c 1.58507,1.00599 6.78512,3.90453 7.03393,3.92074 0.14203,0.009 1.96508,-0.93985 4.05124,-2.10912 z m -7.43031,-0.90847 c -2.53015,-1.43579 -3.74894,-2.42001 -2.66893,-2.15525 0.744,0.18239 6.21622,3.32198 6.21622,3.56645 0,0.47665 -0.73766,0.1832 -3.54729,-1.4112 z m 9.51753,-5.50235 c 0,-2.20304 0.10935,-3.57993 0.2843,-3.57993 0.17495,0 0.2843,1.37689 0.2843,3.57993 0,2.20304 -0.10935,3.57994 -0.2843,3.57994 -0.17495,0 -0.2843,-1.3769 -0.2843,-3.57994 z m -12.50909,-3.54989 c 0,-0.2704 5.77886,-3.60998 6.24676,-3.60998 0.80041,0 0.0162,0.60978 -2.77279,2.15607 -3.13697,1.73921 -3.47397,1.88025 -3.47397,1.45391 z m 30.98843,3.54989 c 0,-0.1689 1.3741,-0.27538 3.55372,-0.27538 2.17961,0 3.55372,0.10648 3.55372,0.27538 0,0.1689 -1.37411,0.27538 -3.55372,0.27538 -2.17962,0 -3.55372,-0.10648 -3.55372,-0.27538 z"
         id="path3423" />
      <text
         x="145.34985"
         y="224.00754"
         id="text3425"
         xml:space="preserve"
         style="font-style:normal;font-weight:normal;font-size:4.47684956px;line-height:125%;font-family:Sans;letter-spacing:0px;word-spacing:0px;fill:#0000ff;fill-opacity:1;stroke:none"
         transform="scale(1.0160628,0.98419114)"><tspan
           x="145.34985"
           y="224.00754"
           id="tspan3427">N</tspan></text>
      <text
         x="142.67902"
         y="240.54135"
         id="text3429"
         xml:space="preserve"
         style="font-style:normal;font-weight:normal;font-size:4.47684956px;line-height:125%;font-family:Sans;letter-spacing:0px;word-spacing:0px;fill:#0000ff;fill-opacity:1;stroke:none"
         transform="scale(1.0160628,0.98419114)"><tspan
           x="142.67902"
           y="240.54135"
           id="tspan3431"
           style="fill:#ff0000">O</tspan></text>
    </g>
  </g>
  <g
     id="g3433"
     transform="translate(16.874684,-4.6021867)">
    <g
       id="g3435"
       transform="matrix(0.53235293,0,0,0.57349995,-214.43174,205.1593)"
       style="opacity:0.1125">
      <g
         id="g3437"
         transform="matrix(2.1082892,0,0,1.9260905,-484.21421,261.31413)">
        <path
           id="path3439"
           style="fill:none;stroke:#000000;stroke-width:0.56414336;stroke-miterlimit:4;stroke-dasharray:none"
           d="m 423.74699,-289.41264 18.0135,2.52076 -0.56359,20.67141 -15.2604,-5.29274 -2.18951,-17.89943 z" />
        <path
           id="path3441"
           style="fill:none;stroke:#000000;stroke-width:0.56414336;stroke-miterlimit:4;stroke-dasharray:none"
           d="m 423.67231,-289.41121 10.84896,-2.44037 15.61123,1.65658 -8.2903,3.36484 -18.16989,-2.58105 z" />
        <path
           id="path3443"
           style="fill:none;stroke:#000000;stroke-width:0.56414336;stroke-miterlimit:4;stroke-dasharray:none;stroke-opacity:0.19607999"
           d="m 423.78784,-289.45284 2.11344,17.94393 9.5809,-5.74205 -0.69884,-14.68245 -10.9955,2.48057 z" />
        <path
           id="path3445"
           style="fill:none;stroke:#000000;stroke-width:0.56414336;stroke-miterlimit:4;stroke-dasharray:none;stroke-opacity:0.19607999"
           d="m 434.80306,-291.85445 15.09132,1.63792 -1.26805,16.50842 -13.12443,-3.50696 -0.69884,-14.63938 z" />
        <path
           id="path3447"
           style="fill:none;stroke:#000000;stroke-width:0.56414336;stroke-miterlimit:4;stroke-dasharray:none"
           d="m 441.77316,-286.84163 8.15363,-3.30456 -1.34978,16.32323 -7.32657,7.60824 0.52272,-20.62691 z" />
        <path
           id="path3449"
           style="fill:none;stroke:#000000;stroke-width:0.56414336;stroke-miterlimit:4;stroke-dasharray:none"
           d="m 434.73825,-291.89321 c -0.0141,0 -0.0268,0 0,0 z" />
      </g>
    </g>
    <g
       id="g3451"
       transform="matrix(0.52509323,-0.50237205,0.48698518,0.54168418,-164.5876,0.35413998)"
       style="stroke-width:0.1;stroke-miterlimit:4;stroke-dasharray:none">
      <path
         id="path3453"
         d="m 144.26122,230.26977 c -0.55511,-1.66325 -1.01208,-3.18128 -1.01549,-3.3734 -0.004,-0.20542 -1.63482,-0.85021 -3.95978,-1.56526 l -3.95358,-1.21594 -3.80569,2.11092 c -2.09313,1.16101 -4.02632,2.11093 -4.29599,2.11093 -0.5633,0 -7.89273,-4.017 -8.2096,-4.49938 -0.11552,-0.17587 -0.21199,-2.26267 -0.21439,-4.63732 -0.003,-3.30821 0.0874,-4.4064 0.38798,-4.69759 0.4949,-0.47937 7.2752,-4.26293 7.86099,-4.38659 0.23932,-0.0505 2.20703,0.89095 4.37268,2.09216 l 3.93754,2.18404 4.02443,-1.28905 c 2.21343,-0.70898 4.27564,-1.2828 4.58269,-1.27515 0.37218,0.009 1.19791,0.88119 2.47727,2.61586 1.05546,1.43108 1.91901,2.72599 1.91901,2.87759 0,0.69142 -0.6201,0.0841 -2.40664,-2.35714 -1.05969,-1.44802 -2.07113,-2.57967 -2.24764,-2.51476 -0.17651,0.0649 -2.08002,0.65081 -4.23002,1.30201 l -3.90909,1.18401 0,4.30459 0,4.3046 3.78707,1.14656 c 2.08289,0.63061 3.97811,1.21757 4.21161,1.30436 0.29626,0.11012 1.01492,-0.6357 2.37829,-2.46813 1.81873,-2.44446 2.41642,-3.02655 2.41642,-2.35336 0,0.14991 -0.82109,1.3571 -1.82464,2.68265 -1.00356,1.32554 -1.69874,2.48545 -1.54487,2.57757 0.33169,0.19856 2.27856,6.08017 2.07717,6.27525 -0.29201,0.28284 -0.66565,-0.47491 -1.57912,-3.20241 -0.55059,-1.64402 -1.09814,-2.82265 -1.31131,-2.82265 -0.4644,0 -0.52416,-0.28778 0.62905,3.02918 1.04946,3.01852 1.16315,3.57994 0.72498,3.57994 -0.14853,0 -0.72423,-1.36084 -1.27933,-3.02409 z m -13.04692,-4.60946 3.79301,-2.12596 0,-4.29553 0,-4.29553 -3.87334,-2.15969 -3.87334,-2.15969 -1.22093,0.64604 c -0.67151,0.35532 -2.4147,1.33694 -3.87377,2.18138 l -2.65284,1.53534 -0.0784,4.18575 -0.0784,4.18575 0.77287,0.49052 c 1.58507,1.00599 6.78512,3.90453 7.03393,3.92074 0.14203,0.009 1.96508,-0.93985 4.05124,-2.10912 z m -7.43031,-0.90847 c -2.53015,-1.43579 -3.74894,-2.42001 -2.66893,-2.15525 0.744,0.18239 6.21622,3.32198 6.21622,3.56645 0,0.47665 -0.73766,0.1832 -3.54729,-1.4112 z m 9.51753,-5.50235 c 0,-2.20304 0.10935,-3.57993 0.2843,-3.57993 0.17495,0 0.2843,1.37689 0.2843,3.57993 0,2.20304 -0.10935,3.57994 -0.2843,3.57994 -0.17495,0 -0.2843,-1.3769 -0.2843,-3.57994 z m -12.50909,-3.54989 c 0,-0.2704 5.77886,-3.60998 6.24676,-3.60998 0.80041,0 0.0162,0.60978 -2.77279,2.15607 -3.13697,1.73921 -3.47397,1.88025 -3.47397,1.45391 z m 30.98843,3.54989 c 0,-0.1689 1.3741,-0.27538 3.55372,-0.27538 2.17961,0 3.55372,0.10648 3.55372,0.27538 0,0.1689 -1.37411,0.27538 -3.55372,0.27538 -2.17962,0 -3.55372,-0.10648 -3.55372,-0.27538 z"
         style="fill:#000000;stroke-width:0.1;stroke-miterlimit:4;stroke-dasharray:none" />
      <text
         transform="scale(1.0160628,0.98419114)"
         style="font-style:normal;font-weight:normal;font-size:4.47684956px;line-height:125%;font-family:Sans;letter-spacing:0px;word-spacing:0px;fill:#0000ff;fill-opacity:1;stroke:none"
         xml:space="preserve"
         id="text3455"
         y="224.00754"
         x="145.34985"><tspan
           id="tspan3457"
           y="224.00754"
           x="145.34985">N</tspan></text>
      <text
         transform="scale(1.0160628,0.98419114)"
         style="font-style:normal;font-weight:normal;font-size:4.47684956px;line-height:125%;font-family:Sans;letter-spacing:0px;word-spacing:0px;fill:#0000ff;fill-opacity:1;stroke:none"
         xml:space="preserve"
         id="text3459"
         y="240.54135"
         x="142.67902"><tspan
           style="fill:#ff0000"
           id="tspan3461"
           y="240.54135"
           x="142.67902">O</tspan></text>
    </g>
  </g>
  <g
     transform="translate(23.394448,-6.1362489)"
     id="g3463">
    <g
       style="opacity:0.1125"
       transform="matrix(0.53235293,0,0,0.57349995,-214.43174,205.1593)"
       id="g3465">
      <g
         transform="matrix(2.1082892,0,0,1.9260905,-484.21421,261.31413)"
         id="g3467">
        <path
           d="m 423.74699,-289.41264 18.0135,2.52076 -0.56359,20.67141 -15.2604,-5.29274 -2.18951,-17.89943 z"
           style="fill:none;stroke:#000000;stroke-width:0.56414336;stroke-miterlimit:4;stroke-dasharray:none"
           id="path3469" />
        <path
           d="m 423.67231,-289.41121 10.84896,-2.44037 15.61123,1.65658 -8.2903,3.36484 -18.16989,-2.58105 z"
           style="fill:none;stroke:#000000;stroke-width:0.56414336;stroke-miterlimit:4;stroke-dasharray:none"
           id="path3471" />
        <path
           d="m 423.78784,-289.45284 2.11344,17.94393 9.5809,-5.74205 -0.69884,-14.68245 -10.9955,2.48057 z"
           style="fill:none;stroke:#000000;stroke-width:0.56414336;stroke-miterlimit:4;stroke-dasharray:none;stroke-opacity:0.19607999"
           id="path3473" />
        <path
           d="m 434.80306,-291.85445 15.09132,1.63792 -1.26805,16.50842 -13.12443,-3.50696 -0.69884,-14.63938 z"
           style="fill:none;stroke:#000000;stroke-width:0.56414336;stroke-miterlimit:4;stroke-dasharray:none;stroke-opacity:0.19607999"
           id="path3475" />
        <path
           d="m 441.77316,-286.84163 8.15363,-3.30456 -1.34978,16.32323 -7.32657,7.60824 0.52272,-20.62691 z"
           style="fill:none;stroke:#000000;stroke-width:0.56414336;stroke-miterlimit:4;stroke-dasharray:none"
           id="path3477" />
        <path
           d="m 434.73825,-291.89321 c -0.0141,0 -0.0268,0 0,0 z"
           style="fill:none;stroke:#000000;stroke-width:0.56414336;stroke-miterlimit:4;stroke-dasharray:none"
           id="path3479" />
      </g>
    </g>
    <g
       style="stroke-width:0.1;stroke-miterlimit:4;stroke-dasharray:none"
       transform="matrix(0.52509323,-0.50237205,0.48698518,0.54168418,-164.5876,0.35413998)"
       id="g3481">
      <path
         style="fill:#000000;stroke-width:0.1;stroke-miterlimit:4;stroke-dasharray:none"
         d="m 144.26122,230.26977 c -0.55511,-1.66325 -1.01208,-3.18128 -1.01549,-3.3734 -0.004,-0.20542 -1.63482,-0.85021 -3.95978,-1.56526 l -3.95358,-1.21594 -3.80569,2.11092 c -2.09313,1.16101 -4.02632,2.11093 -4.29599,2.11093 -0.5633,0 -7.89273,-4.017 -8.2096,-4.49938 -0.11552,-0.17587 -0.21199,-2.26267 -0.21439,-4.63732 -0.003,-3.30821 0.0874,-4.4064 0.38798,-4.69759 0.4949,-0.47937 7.2752,-4.26293 7.86099,-4.38659 0.23932,-0.0505 2.20703,0.89095 4.37268,2.09216 l 3.93754,2.18404 4.02443,-1.28905 c 2.21343,-0.70898 4.27564,-1.2828 4.58269,-1.27515 0.37218,0.009 1.19791,0.88119 2.47727,2.61586 1.05546,1.43108 1.91901,2.72599 1.91901,2.87759 0,0.69142 -0.6201,0.0841 -2.40664,-2.35714 -1.05969,-1.44802 -2.07113,-2.57967 -2.24764,-2.51476 -0.17651,0.0649 -2.08002,0.65081 -4.23002,1.30201 l -3.90909,1.18401 0,4.30459 0,4.3046 3.78707,1.14656 c 2.08289,0.63061 3.97811,1.21757 4.21161,1.30436 0.29626,0.11012 1.01492,-0.6357 2.37829,-2.46813 1.81873,-2.44446 2.41642,-3.02655 2.41642,-2.35336 0,0.14991 -0.82109,1.3571 -1.82464,2.68265 -1.00356,1.32554 -1.69874,2.48545 -1.54487,2.57757 0.33169,0.19856 2.27856,6.08017 2.07717,6.27525 -0.29201,0.28284 -0.66565,-0.47491 -1.57912,-3.20241 -0.55059,-1.64402 -1.09814,-2.82265 -1.31131,-2.82265 -0.4644,0 -0.52416,-0.28778 0.62905,3.02918 1.04946,3.01852 1.16315,3.57994 0.72498,3.57994 -0.14853,0 -0.72423,-1.36084 -1.27933,-3.02409 z m -13.04692,-4.60946 3.79301,-2.12596 0,-4.29553 0,-4.29553 -3.87334,-2.15969 -3.87334,-2.15969 -1.22093,0.64604 c -0.67151,0.35532 -2.4147,1.33694 -3.87377,2.18138 l -2.65284,1.53534 -0.0784,4.18575 -0.0784,4.18575 0.77287,0.49052 c 1.58507,1.00599 6.78512,3.90453 7.03393,3.92074 0.14203,0.009 1.96508,-0.93985 4.05124,-2.10912 z m -7.43031,-0.90847 c -2.53015,-1.43579 -3.74894,-2.42001 -2.66893,-2.15525 0.744,0.18239 6.21622,3.32198 6.21622,3.56645 0,0.47665 -0.73766,0.1832 -3.54729,-1.4112 z m 9.51753,-5.50235 c 0,-2.20304 0.10935,-3.57993 0.2843,-3.57993 0.17495,0 0.2843,1.37689 0.2843,3.57993 0,2.20304 -0.10935,3.57994 -0.2843,3.57994 -0.17495,0 -0.2843,-1.3769 -0.2843,-3.57994 z m -12.50909,-3.54989 c 0,-0.2704 5.77886,-3.60998 6.24676,-3.60998 0.80041,0 0.0162,0.60978 -2.77279,2.15607 -3.13697,1.73921 -3.47397,1.88025 -3.47397,1.45391 z m 30.98843,3.54989 c 0,-0.1689 1.3741,-0.27538 3.55372,-0.27538 2.17961,0 3.55372,0.10648 3.55372,0.27538 0,0.1689 -1.37411,0.27538 -3.55372,0.27538 -2.17962,0 -3.55372,-0.10648 -3.55372,-0.27538 z"
         id="path3483" />
      <text
         x="145.34985"
         y="224.00754"
         id="text3485"
         xml:space="preserve"
         style="font-style:normal;font-weight:normal;font-size:4.47684956px;line-height:125%;font-family:Sans;letter-spacing:0px;word-spacing:0px;fill:#0000ff;fill-opacity:1;stroke:none"
         transform="scale(1.0160628,0.98419114)"><tspan
           x="145.34985"
           y="224.00754"
           id="tspan3487">N</tspan></text>
      <text
         x="142.67902"
         y="240.54135"
         id="text3489"
         xml:space="preserve"
         style="font-style:normal;font-weight:normal;font-size:4.47684956px;line-height:125%;font-family:Sans;letter-spacing:0px;word-spacing:0px;fill:#0000ff;fill-opacity:1;stroke:none"
         transform="scale(1.0160628,0.98419114)"><tspan
           x="142.67902"
           y="240.54135"
           id="tspan3491"
           style="fill:#ff0000">O</tspan></text>
    </g>
  </g>
  <g
     id="g3493"
     transform="translate(29.914212,-7.2867956)">
    <g
       id="g3495"
       transform="matrix(0.53235293,0,0,0.57349995,-214.43174,205.1593)"
       style="opacity:0.1125">
      <g
         id="g3497"
         transform="matrix(2.1082892,0,0,1.9260905,-484.21421,261.31413)">
        <path
           id="path3499"
           style="fill:none;stroke:#000000;stroke-width:0.56414336;stroke-miterlimit:4;stroke-dasharray:none"
           d="m 423.74699,-289.41264 18.0135,2.52076 -0.56359,20.67141 -15.2604,-5.29274 -2.18951,-17.89943 z" />
        <path
           id="path3501"
           style="fill:none;stroke:#000000;stroke-width:0.56414336;stroke-miterlimit:4;stroke-dasharray:none"
           d="m 423.67231,-289.41121 10.84896,-2.44037 15.61123,1.65658 -8.2903,3.36484 -18.16989,-2.58105 z" />
        <path
           id="path3503"
           style="fill:none;stroke:#000000;stroke-width:0.56414336;stroke-miterlimit:4;stroke-dasharray:none;stroke-opacity:0.19607999"
           d="m 423.78784,-289.45284 2.11344,17.94393 9.5809,-5.74205 -0.69884,-14.68245 -10.9955,2.48057 z" />
        <path
           id="path3505"
           style="fill:none;stroke:#000000;stroke-width:0.56414336;stroke-miterlimit:4;stroke-dasharray:none;stroke-opacity:0.19607999"
           d="m 434.80306,-291.85445 15.09132,1.63792 -1.26805,16.50842 -13.12443,-3.50696 -0.69884,-14.63938 z" />
        <path
           id="path3507"
           style="fill:none;stroke:#000000;stroke-width:0.56414336;stroke-miterlimit:4;stroke-dasharray:none"
           d="m 441.77316,-286.84163 8.15363,-3.30456 -1.34978,16.32323 -7.32657,7.60824 0.52272,-20.62691 z" />
        <path
           id="path3509"
           style="fill:none;stroke:#000000;stroke-width:0.56414336;stroke-miterlimit:4;stroke-dasharray:none"
           d="m 434.73825,-291.89321 c -0.0141,0 -0.0268,0 0,0 z" />
      </g>
    </g>
    <g
       id="g3511"
       transform="matrix(0.52509323,-0.50237205,0.48698518,0.54168418,-164.5876,0.35413998)"
       style="stroke-width:0.1;stroke-miterlimit:4;stroke-dasharray:none">
      <path
         id="path3513"
         d="m 144.26122,230.26977 c -0.55511,-1.66325 -1.01208,-3.18128 -1.01549,-3.3734 -0.004,-0.20542 -1.63482,-0.85021 -3.95978,-1.56526 l -3.95358,-1.21594 -3.80569,2.11092 c -2.09313,1.16101 -4.02632,2.11093 -4.29599,2.11093 -0.5633,0 -7.89273,-4.017 -8.2096,-4.49938 -0.11552,-0.17587 -0.21199,-2.26267 -0.21439,-4.63732 -0.003,-3.30821 0.0874,-4.4064 0.38798,-4.69759 0.4949,-0.47937 7.2752,-4.26293 7.86099,-4.38659 0.23932,-0.0505 2.20703,0.89095 4.37268,2.09216 l 3.93754,2.18404 4.02443,-1.28905 c 2.21343,-0.70898 4.27564,-1.2828 4.58269,-1.27515 0.37218,0.009 1.19791,0.88119 2.47727,2.61586 1.05546,1.43108 1.91901,2.72599 1.91901,2.87759 0,0.69142 -0.6201,0.0841 -2.40664,-2.35714 -1.05969,-1.44802 -2.07113,-2.57967 -2.24764,-2.51476 -0.17651,0.0649 -2.08002,0.65081 -4.23002,1.30201 l -3.90909,1.18401 0,4.30459 0,4.3046 3.78707,1.14656 c 2.08289,0.63061 3.97811,1.21757 4.21161,1.30436 0.29626,0.11012 1.01492,-0.6357 2.37829,-2.46813 1.81873,-2.44446 2.41642,-3.02655 2.41642,-2.35336 0,0.14991 -0.82109,1.3571 -1.82464,2.68265 -1.00356,1.32554 -1.69874,2.48545 -1.54487,2.57757 0.33169,0.19856 2.27856,6.08017 2.07717,6.27525 -0.29201,0.28284 -0.66565,-0.47491 -1.57912,-3.20241 -0.55059,-1.64402 -1.09814,-2.82265 -1.31131,-2.82265 -0.4644,0 -0.52416,-0.28778 0.62905,3.02918 1.04946,3.01852 1.16315,3.57994 0.72498,3.57994 -0.14853,0 -0.72423,-1.36084 -1.27933,-3.02409 z m -13.04692,-4.60946 3.79301,-2.12596 0,-4.29553 0,-4.29553 -3.87334,-2.15969 -3.87334,-2.15969 -1.22093,0.64604 c -0.67151,0.35532 -2.4147,1.33694 -3.87377,2.18138 l -2.65284,1.53534 -0.0784,4.18575 -0.0784,4.18575 0.77287,0.49052 c 1.58507,1.00599 6.78512,3.90453 7.03393,3.92074 0.14203,0.009 1.96508,-0.93985 4.05124,-2.10912 z m -7.43031,-0.90847 c -2.53015,-1.43579 -3.74894,-2.42001 -2.66893,-2.15525 0.744,0.18239 6.21622,3.32198 6.21622,3.56645 0,0.47665 -0.73766,0.1832 -3.54729,-1.4112 z m 9.51753,-5.50235 c 0,-2.20304 0.10935,-3.57993 0.2843,-3.57993 0.17495,0 0.2843,1.37689 0.2843,3.57993 0,2.20304 -0.10935,3.57994 -0.2843,3.57994 -0.17495,0 -0.2843,-1.3769 -0.2843,-3.57994 z m -12.50909,-3.54989 c 0,-0.2704 5.77886,-3.60998 6.24676,-3.60998 0.80041,0 0.0162,0.60978 -2.77279,2.15607 -3.13697,1.73921 -3.47397,1.88025 -3.47397,1.45391 z m 30.98843,3.54989 c 0,-0.1689 1.3741,-0.27538 3.55372,-0.27538 2.17961,0 3.55372,0.10648 3.55372,0.27538 0,0.1689 -1.37411,0.27538 -3.55372,0.27538 -2.17962,0 -3.55372,-0.10648 -3.55372,-0.27538 z"
         style="fill:#000000;stroke-width:0.1;stroke-miterlimit:4;stroke-dasharray:none" />
      <text
         transform="scale(1.0160628,0.98419114)"
         style="font-style:normal;font-weight:normal;font-size:4.47684956px;line-height:125%;font-family:Sans;letter-spacing:0px;word-spacing:0px;fill:#0000ff;fill-opacity:1;stroke:none"
         xml:space="preserve"
         id="text3515"
         y="224.00754"
         x="145.34985"><tspan
           id="tspan3517"
           y="224.00754"
           x="145.34985">N</tspan></text>
      <text
         transform="scale(1.0160628,0.98419114)"
         style="font-style:normal;font-weight:normal;font-size:4.47684956px;line-height:125%;font-family:Sans;letter-spacing:0px;word-spacing:0px;fill:#0000ff;fill-opacity:1;stroke:none"
         xml:space="preserve"
         id="text3519"
         y="240.54135"
         x="142.67902"><tspan
           style="fill:#ff0000"
           id="tspan3521"
           y="240.54135"
           x="142.67902">O</tspan></text>
    </g>
  </g>
  <text
     id="text3523"
     y="14.771098"
     x="6.9616628"
     style="font-style:normal;font-variant:normal;font-weight:normal;font-stretch:normal;font-size:18px;line-height:81.99999928%;font-family:Sans;-inkscape-font-specification:Sans;text-align:start;letter-spacing:0px;word-spacing:0px;writing-mode:lr-tb;text-anchor:start;fill:#000000;fill-opacity:1;stroke:none;stroke-width:1px;stroke-linecap:butt;stroke-linejoin:miter;stroke-opacity:1"
     xml:space="preserve"><tspan
       y="14.771098"
       x="6.9616628"
       id="tspan3525">Meta-</tspan><tspan
       id="tspan3527"
       y="29.531099"
       x="6.9616628">task</tspan></text>
</svg>
