<?xml version="1.0" encoding="UTF-8" standalone="no"?>
<!-- Created with Inkscape (http://www.inkscape.org/) -->

<svg
   xmlns:dc="http://purl.org/dc/elements/1.1/"
   xmlns:cc="http://creativecommons.org/ns#"
   xmlns:rdf="http://www.w3.org/1999/02/22-rdf-syntax-ns#"
   xmlns:svg="http://www.w3.org/2000/svg"
   xmlns="http://www.w3.org/2000/svg"
   xmlns:xlink="http://www.w3.org/1999/xlink"
   xmlns:sodipodi="http://sodipodi.sourceforge.net/DTD/sodipodi-0.dtd"
   xmlns:inkscape="http://www.inkscape.org/namespaces/inkscape"
   width="512"
   height="512"
   id="svg2"
   version="1.1"
   inkscape:version="0.48.5 r10040"
   sodipodi:docname="mergeMtz.svg">
  <defs
     id="defs4">
    <linearGradient
       id="linearGradient4877"
       y2="354.17999"
       xlink:href="#linearGradient4112"
       gradientUnits="userSpaceOnUse"
       x2="158"
       y1="353.76999"
       x1="111.83" />
    <linearGradient
       id="linearGradient4112">
      <stop
         id="stop4114"
         stop-color="#800000"
         offset="0" />
      <stop
         id="stop4120"
         stop-color="#ff4614"
         offset=".61238" />
      <stop
         id="stop4116"
         stop-color="#d40000"
         offset="1" />
    </linearGradient>
    <linearGradient
       id="linearGradient5449"
       y2="354.17999"
       xlink:href="#linearGradient5401"
       gradientUnits="userSpaceOnUse"
       x2="158"
       gradientTransform="translate(160.65,-136.03)"
       y1="353.76999"
       x1="111.83" />
    <linearGradient
       id="linearGradient5401">
      <stop
         id="stop5403"
         stop-color="#1d6a1d"
         offset="0" />
      <stop
         id="stop5405"
         stop-color="#2edd2e"
         offset=".61238" />
      <stop
         id="stop5407"
         stop-color="#1dbd1d"
         offset="1" />
    </linearGradient>
    <linearGradient
       id="linearGradient5451"
       y2="354.17999"
       xlink:href="#linearGradient5401"
       gradientUnits="userSpaceOnUse"
       x2="158"
       gradientTransform="matrix(1.0236,0,0,1.0236,205.05,-123.33)"
       y1="353.76999"
       x1="111.83" />
    <linearGradient
       id="linearGradient5453"
       y2="354.17999"
       xlink:href="#linearGradient5401"
       gradientUnits="userSpaceOnUse"
       x2="158"
       gradientTransform="matrix(1.0236,0,0,1.0236,262.46,-139.73)"
       y1="353.76999"
       x1="111.83" />
    <linearGradient
       id="linearGradient5455"
       y2="354.17999"
       xlink:href="#linearGradient5401"
       gradientUnits="userSpaceOnUse"
       x2="158"
       gradientTransform="matrix(0.98532,0,0,0.98532,324.7,-141.94)"
       y1="353.76999"
       x1="111.83" />
    <linearGradient
       id="linearGradient5457"
       y2="354.17999"
       xlink:href="#linearGradient5401"
       gradientUnits="userSpaceOnUse"
       x2="158"
       gradientTransform="matrix(0.98532,0,0,0.98532,381.02,-159.44)"
       y1="353.76999"
       x1="111.83" />
    <linearGradient
       id="linearGradient5459"
       y2="354.17999"
       xlink:href="#linearGradient5401"
       gradientUnits="userSpaceOnUse"
       x2="158"
       gradientTransform="translate(218.62,-151.89)"
       y1="353.76999"
       x1="111.83" />
    <linearGradient
       id="linearGradient5461"
       y2="354.17999"
       xlink:href="#linearGradient5401"
       gradientUnits="userSpaceOnUse"
       x2="158"
       gradientTransform="matrix(0.98099,0,0,0.98099,278.15,-160.7)"
       y1="353.76999"
       x1="111.83" />
    <linearGradient
       id="linearGradient5463"
       y2="354.17999"
       xlink:href="#linearGradient5401"
       gradientUnits="userSpaceOnUse"
       x2="158"
       gradientTransform="matrix(0.98099,0,0,0.98099,335.02,-177.1)"
       y1="353.76999"
       x1="111.83" />
    <linearGradient
       id="linearGradient5541"
       y2="354.17999"
       xlink:href="#linearGradient4112"
       gradientUnits="userSpaceOnUse"
       x2="158"
       gradientTransform="matrix(1.22253,0,0,1.22253,225.97268,334.20267)"
       y1="353.76999"
       x1="111.83" />
    <linearGradient
       id="linearGradient5289"
       y2="354.17999"
       xlink:href="#linearGradient4573"
       gradientUnits="userSpaceOnUse"
       x2="158"
       gradientTransform="matrix(1.2171575,0,0,1.2171575,212.61386,364.63418)"
       y1="353.76999"
       x1="111.83" />
    <linearGradient
       id="linearGradient4573">
      <stop
         id="stop4575"
         stop-color="#e06700"
         offset="0" />
      <stop
         id="stop4577"
         stop-color="#ecde39"
         offset=".61238" />
      <stop
         id="stop4579"
         stop-color="#faa900"
         offset="1" />
    </linearGradient>
    <linearGradient
       id="linearGradient5287"
       y2="354.17999"
       xlink:href="#linearGradient4573"
       gradientUnits="userSpaceOnUse"
       x2="158"
       gradientTransform="matrix(1.2171575,0,0,1.2171575,144.05274,411.48238)"
       y1="353.76999"
       x1="111.83" />
    <linearGradient
       id="linearGradient5285"
       y2="354.17999"
       xlink:href="#linearGradient4573"
       gradientUnits="userSpaceOnUse"
       x2="158"
       gradientTransform="matrix(1.2407441,0,0,1.2407441,70.19124,422.41334)"
       y1="353.76999"
       x1="111.83" />
    <linearGradient
       id="linearGradient5283"
       y2="362.02966"
       xlink:href="#linearGradient15363"
       gradientUnits="userSpaceOnUse"
       x2="146.23158"
       gradientTransform="matrix(1.22253,0,0,1.22253,259.68808,425.04572)"
       y1="363.27222"
       x1="111.83" />
    <linearGradient
       id="linearGradient15363">
      <stop
         offset="0"
         stop-color="#e06700"
         id="stop15365"
         style="stop-color:#1b3485;stop-opacity:1" />
      <stop
         offset=".61238"
         stop-color="#ecde39"
         id="stop15367"
         style="stop-color:#3986ec;stop-opacity:1" />
      <stop
         offset="1"
         stop-color="#faa900"
         id="stop15369"
         style="stop-color:#00119a;stop-opacity:1" />
    </linearGradient>
    <linearGradient
       id="linearGradient5281"
       y2="354.17999"
       xlink:href="#linearGradient4573"
       gradientUnits="userSpaceOnUse"
       x2="158"
       gradientTransform="matrix(1.22253,0,0,1.22253,201.80938,434.75874)"
       y1="353.76999"
       x1="111.83" />
    <linearGradient
       id="linearGradient5279"
       y2="354.17999"
       xlink:href="#linearGradient4573"
       gradientUnits="userSpaceOnUse"
       x2="158"
       gradientTransform="matrix(1.2700257,0,0,1.2700257,124.58547,437.5008)"
       y1="353.76999"
       x1="111.83" />
    <linearGradient
       id="linearGradient5277"
       y2="354.17999"
       xlink:href="#linearGradient4573"
       gradientUnits="userSpaceOnUse"
       x2="158"
       gradientTransform="matrix(1.2700257,0,0,1.2700257,53.354346,457.849)"
       y1="353.76999"
       x1="111.83" />
    <linearGradient
       id="linearGradient5275"
       y2="354.17999"
       xlink:href="#linearGradient4573"
       gradientUnits="userSpaceOnUse"
       x2="158"
       gradientTransform="matrix(1.2407441,0,0,1.2407441,-1.722281,442.09154)"
       y1="353.76999"
       x1="111.83" />
    <linearGradient
       inkscape:collect="always"
       xlink:href="#linearGradient4112"
       id="linearGradient15942"
       gradientUnits="userSpaceOnUse"
       x1="111.83"
       y1="353.76999"
       x2="158"
       y2="354.17999" />
    <linearGradient
       inkscape:collect="always"
       xlink:href="#linearGradient4112"
       id="linearGradient15944"
       gradientUnits="userSpaceOnUse"
       x1="111.83"
       y1="353.76999"
       x2="158"
       y2="354.17999" />
    <linearGradient
       inkscape:collect="always"
       xlink:href="#linearGradient4112"
       id="linearGradient15946"
       gradientUnits="userSpaceOnUse"
       x1="111.83"
       y1="353.76999"
       x2="158"
       y2="354.17999" />
    <linearGradient
       inkscape:collect="always"
       xlink:href="#linearGradient4112"
       id="linearGradient15948"
       gradientUnits="userSpaceOnUse"
       x1="111.83"
       y1="353.76999"
       x2="158"
       y2="354.17999" />
    <linearGradient
       inkscape:collect="always"
       xlink:href="#linearGradient4112"
       id="linearGradient15950"
       gradientUnits="userSpaceOnUse"
       x1="111.83"
       y1="353.76999"
       x2="158"
       y2="354.17999" />
    <linearGradient
       inkscape:collect="always"
       xlink:href="#linearGradient4112"
       id="linearGradient15952"
       gradientUnits="userSpaceOnUse"
       x1="111.83"
       y1="353.76999"
       x2="158"
       y2="354.17999" />
  </defs>
  <sodipodi:namedview
     id="base"
     pagecolor="#ffffff"
     bordercolor="#666666"
     borderopacity="1.0"
     inkscape:pageopacity="0.0"
     inkscape:pageshadow="2"
     inkscape:zoom="0.70000001"
     inkscape:cx="224.9129"
     inkscape:cy="214.49445"
     inkscape:document-units="px"
     inkscape:current-layer="layer1"
     showgrid="false"
     objecttolerance="20"
     inkscape:window-width="1366"
     inkscape:window-height="719"
     inkscape:window-x="0"
     inkscape:window-y="0"
     inkscape:window-maximized="1"
     gridtolerance="10">
    <inkscape:grid
       type="xygrid"
       id="grid2985"
       empspacing="5"
       visible="true"
       enabled="true"
       snapvisiblegridlinesonly="false" />
  </sodipodi:namedview>
  <metadata
     id="metadata7">
    <rdf:RDF>
      <cc:Work
         rdf:about="">
        <dc:format>image/svg+xml</dc:format>
        <dc:type
           rdf:resource="http://purl.org/dc/dcmitype/StillImage" />
        <dc:title />
      </cc:Work>
    </rdf:RDF>
  </metadata>
  <g
     inkscape:label="Layer 1"
     inkscape:groupmode="layer"
     id="layer1"
     transform="translate(0,-540.36218)">
    <g
       id="g16090"
       transform="matrix(0.99984414,0.01765493,-0.01765493,0.99984414,14.578644,-28.898839)">
      <path
         id="path4345"
         d="m 55.991511,905.8961 0.869445,98.3364 113.542974,41.2436 -0.92149,-98.12303 z"
         inkscape:connector-curvature="0"
         style="fill:#000ca0;fill-opacity:1;stroke:#000000;stroke-width:0.74444652;stroke-linecap:round;stroke-linejoin:round" />
      <path
         id="path4347"
         d="M 171.56683,1045.1076 458.86112,966.44068 458.06977,866.28286 169.88213,950.12489 z"
         inkscape:connector-curvature="0"
         style="fill:#0044fc;fill-opacity:1;stroke:#000000;stroke-width:0.74444652;stroke-linecap:round;stroke-linejoin:round" />
      <path
         id="path4349"
         d="M 56.326517,905.47424 330.07189,829.7752 457.62038,866.28162 169.03571,950.12365 z"
         inkscape:connector-curvature="0"
         style="fill:#0009c9;fill-opacity:1;stroke:#000000;stroke-width:0.74444652;stroke-linecap:round;stroke-linejoin:round" />
      <path
         inkscape:connector-curvature="0"
         style="fill:url(#linearGradient5275);stroke:#000000;stroke-width:0.31018603"
         d="m 136.76957,873.68437 0.12872,21.75273 c 0,0 10.03675,6.43586 28.18846,6.43586 20.59511,0 28.83241,-8.10913 28.83241,-8.10913 l -0.25744,-20.46607 z"
         id="path4355" />
      <path
         style="fill:#faa900;stroke:#000000;stroke-width:0.31018603"
         inkscape:connector-curvature="0"
         d="m 193.69491,873.23771 c 0,3.719 -12.73996,6.73376 -28.45647,6.73376 -15.71526,0 -28.45646,-3.01488 -28.45646,-6.73376 0,-3.71902 12.73996,-6.73377 28.45646,-6.73377 15.51178,0 28.1649,2.93969 28.45151,6.60969 l -0.1469,0.36402 z"
         id="path4357" />
      <path
         inkscape:connector-curvature="0"
         style="fill:url(#linearGradient5277);stroke:#000000;stroke-width:0.3175064"
         d="m 195.12177,899.64074 0.13175,22.26639 c 0,0 10.27387,6.58786 28.85475,6.58786 21.08148,0 29.51358,-8.30058 29.51358,-8.30058 l -0.26352,-20.94873 z"
         id="path4361" />
      <path
         style="fill:#faa900;stroke:#000000;stroke-width:0.3175064"
         inkscape:connector-curvature="0"
         d="m 253.38711,899.18166 c 0,3.80685 -13.04146,6.89283 -29.12771,6.89283 -16.08748,0 -29.12771,-3.08598 -29.12771,-6.89283 0,-3.80685 13.04147,-6.89283 29.12771,-6.89283 15.87781,0 28.82993,3.00905 29.12275,6.76578 l -0.15038,0.37263 z"
         id="path4363" />
      <path
         inkscape:connector-curvature="0"
         style="fill:url(#linearGradient5279);stroke:#000000;stroke-width:0.3175064"
         d="m 266.3653,879.29253 0.13175,22.2664 c 0,0 10.27386,6.58786 28.85474,6.58786 21.08148,0 29.51358,-8.30058 29.51358,-8.30058 l -0.26352,-20.94873 z"
         id="path4367" />
      <path
         style="fill:#faa900;stroke:#000000;stroke-width:0.3175064"
         inkscape:connector-curvature="0"
         d="m 324.61823,878.82105 c 0,3.80685 -13.04146,6.89283 -29.12771,6.89283 -16.08749,0 -29.1277,-3.08598 -29.1277,-6.89283 0,-3.80685 13.04145,-6.89283 29.1277,-6.89283 15.8778,0 28.82993,3.00906 29.12275,6.76578 l -0.15039,0.37262 z"
         id="path4369" />
      <path
         inkscape:connector-curvature="0"
         style="fill:url(#linearGradient5281);stroke:#000000;stroke-width:0.30563247"
         d="m 338.27882,860.02379 0.12683,21.43384 c 0,0 9.88947,6.34133 27.7753,6.34133 20.29237,0 28.40932,-7.99003 28.40932,-7.99003 l -0.25367,-20.1658 z"
         id="path4373" />
      <path
         style="fill:#faa900;stroke:#000000;stroke-width:0.30563247"
         inkscape:connector-curvature="0"
         d="m 394.36045,859.57711 c 0,3.66442 -12.5526,6.63501 -28.03833,6.63501 -15.48448,0 -28.03834,-2.97059 -28.03834,-6.63501 0,-3.66441 12.55262,-6.635 28.03834,-6.635 15.28348,0 27.75173,2.89652 28.03337,6.51266 l -0.14475,0.35868 z"
         id="path4375" />
      <path
         inkscape:connector-curvature="0"
         style="fill:url(#linearGradient5285);stroke:#000000;stroke-width:0.31018603"
         d="m 208.6831,854.01858 0.12871,21.75272 c 0,0 10.03675,6.43587 28.18847,6.43587 20.59512,0 28.83241,-8.10913 28.83241,-8.10913 l -0.25744,-20.46608 z"
         id="path4385" />
      <path
         style="fill:#faa900;stroke:#000000;stroke-width:0.31018603"
         inkscape:connector-curvature="0"
         d="m 265.60844,853.55951 c 0,3.719 -12.73996,6.73376 -28.45646,6.73376 -15.71527,0 -28.45647,-3.01488 -28.45647,-6.73376 0,-3.71901 12.73996,-6.73377 28.45647,-6.73377 15.51178,0 28.16488,2.9397 28.4515,6.60969 l -0.14691,0.36402 z"
         id="path4387" />
      <path
         inkscape:connector-curvature="0"
         style="fill:url(#linearGradient5287);stroke:#000000;stroke-width:0.3042925"
         d="m 279.92663,834.8739 0.12626,21.33956 c 0,0 9.84606,6.3134 27.65247,6.3134 20.20304,0 28.28401,-7.95491 28.28401,-7.95491 l -0.25255,-20.07647 z"
         id="path4391" />
      <path
         style="fill:#faa900;stroke:#000000;stroke-width:0.3042925"
         inkscape:connector-curvature="0"
         d="m 335.76011,834.43964 c 0,3.64828 -12.49802,6.60584 -27.9155,6.60584 -15.41749,0 -27.9155,-2.95756 -27.9155,-6.60584 0,-3.64829 12.49801,-6.60585 27.9155,-6.60585 15.21649,0 27.63013,2.88386 27.91054,6.484 l -0.14412,0.35711 z"
         id="path4393" />
    </g>
    <path
       id="path4397"
       d="m 348.47534,788.0257 0.12627,21.33956 c 0,0 9.84604,6.3134 27.65246,6.3134 20.20303,0 28.284,-7.95491 28.284,-7.95491 l -0.25254,-20.07649 z"
       style="fill:url(#linearGradient5289);stroke:#000000;stroke-width:0.3042925"
       inkscape:connector-curvature="0" />
    <path
       id="path4399"
       d="m 404.32122,787.57902 c 0,3.64829 -12.49801,6.60585 -27.91549,6.60585 -15.41749,0 -27.91551,-2.95756 -27.91551,-6.60585 0,-3.64827 12.49802,-6.60584 27.91551,-6.60584 15.21648,0 27.63013,2.88386 27.91053,6.484 l -0.14411,0.3571 z"
       inkscape:connector-curvature="0"
       style="fill:#faa900;stroke:#000000;stroke-width:0.3042925" />
    <g
       id="g3247"
       transform="translate(-3,-27)">
      <path
         id="path5111"
         d="m 57.059013,817.83229 1.265068,99.52257 114.727879,41.62945 -2.89738,-99.69503 z"
         inkscape:connector-curvature="0"
         style="fill:#aa0000;stroke:#000000;stroke-width:0.74444652;stroke-linecap:round;stroke-linejoin:round" />
      <path
         id="path5113"
         d="m 171.83902,957.81305 287.3067,-78.54158 -0.28065,-100.20746 -288.70875,80.21783 z"
         inkscape:connector-curvature="0"
         style="fill:#d40000;stroke:#000000;stroke-width:0.74444652;stroke-linecap:round;stroke-linejoin:round" />
      <path
         id="path5115"
         d="M 57.402704,817.79508 329.55992,742.89135 458.49804,779.00941 169.30541,859.28556 z"
         inkscape:connector-curvature="0"
         style="fill:#aa0000;stroke:#000000;stroke-width:0.74444652;stroke-linecap:round;stroke-linejoin:round" />
      <g
         id="g5131"
         transform="matrix(1.2700257,0,0,1.2700257,78.87005,358.65773)"
         style="stroke:#000000;stroke-width:0.25">
        <path
           id="path5133"
           d="m 111.63,347.86 0.10374,17.532 c 0,0 8.0893,5.1871 22.719,5.1871 16.599,0 23.238,-6.5357 23.238,-6.5357 l -0.20749,-16.495 z"
           style="fill:url(#linearGradient15942)"
           inkscape:connector-curvature="0" />
        <path
           id="path5135"
           d="m 157.5,347.49 c 0,2.9974 -10.268,5.4272 -22.935,5.4272 -12.666,0 -22.935,-2.4299 -22.935,-5.4272 0,-2.9974 10.268,-5.4272 22.935,-5.4272 12.502,0 22.7,2.3693 22.931,5.3272 l -0.1184,0.29339 z"
           inkscape:connector-curvature="0"
           style="fill:#aa0000" />
      </g>
      <g
         id="g5137"
         transform="matrix(1.22253,0,0,1.22253,156.09397,355.91568)"
         style="stroke:#000000;stroke-width:0.25">
        <path
           id="path5139"
           d="m 111.63,347.86 0.10374,17.532 c 0,0 8.0893,5.1871 22.719,5.1871 16.599,0 23.238,-6.5357 23.238,-6.5357 l -0.20749,-16.495 z"
           style="fill:url(#linearGradient15944)"
           inkscape:connector-curvature="0" />
        <path
           id="path5141"
           d="m 157.5,347.49 c 0,2.9974 -10.268,5.4272 -22.935,5.4272 -12.666,0 -22.935,-2.4299 -22.935,-5.4272 0,-2.9974 10.268,-5.4272 22.935,-5.4272 12.502,0 22.7,2.3693 22.931,5.3272 l -0.1184,0.29339 z"
           inkscape:connector-curvature="0"
           style="fill:#aa0000" />
      </g>
      <path
         id="path5143"
         d="m 362.42972,759.4677 0.12682,21.43386 c 0,0 9.88948,6.34131 27.7753,6.34131 20.29237,0 28.40932,-7.99002 28.40932,-7.99002 l -0.25366,-20.16581 z"
         style="fill:url(#linearGradient5541);stroke:#000000;stroke-width:0.30563247"
         inkscape:connector-curvature="0" />
      <path
         id="path5145"
         d="m 418.52376,759.02102 c 0,3.66442 -12.55261,6.63501 -28.03834,6.63501 -15.48449,0 -28.03833,-2.97059 -28.03833,-6.63501 0,-3.6644 12.5526,-6.63499 28.03833,-6.63499 15.28349,0 27.75172,2.89651 28.03337,6.51266 l -0.14474,0.35867 z"
         inkscape:connector-curvature="0"
         style="fill:#aa0000;stroke:#000000;stroke-width:0.30563247" />
      <g
         id="g5147"
         transform="matrix(1.2407441,0,0,1.2407441,24.468388,343.58268)"
         style="stroke:#000000;stroke-width:0.25">
        <path
           id="path5149"
           d="m 111.63,347.86 0.10374,17.532 c 0,0 8.0893,5.1871 22.719,5.1871 16.599,0 23.238,-6.5357 23.238,-6.5357 l -0.20749,-16.495 z"
           style="fill:url(#linearGradient15946)"
           inkscape:connector-curvature="0" />
        <path
           id="path5151"
           d="m 157.5,347.49 c 0,2.9974 -10.268,5.4272 -22.935,5.4272 -12.666,0 -22.935,-2.4299 -22.935,-5.4272 0,-2.9974 10.268,-5.4272 22.935,-5.4272 12.502,0 22.7,2.3693 22.931,5.3272 l -0.1184,0.29339 z"
           inkscape:connector-curvature="0"
           style="fill:#aa0000" />
      </g>
      <g
         id="g5153"
         transform="matrix(1.2171575,0,0,1.2171575,98.33733,332.64553)"
         style="stroke:#000000;stroke-width:0.25">
        <path
           id="path5155"
           d="m 111.63,347.86 0.10374,17.532 c 0,0 8.0893,5.1871 22.719,5.1871 16.599,0 23.238,-6.5357 23.238,-6.5357 l -0.20749,-16.495 z"
           style="fill:url(#linearGradient15948)"
           inkscape:connector-curvature="0" />
        <path
           id="path5157"
           d="m 157.5,347.49 c 0,2.9974 -10.268,5.4272 -22.935,5.4272 -12.666,0 -22.935,-2.4299 -22.935,-5.4272 0,-2.9974 10.268,-5.4272 22.935,-5.4272 12.502,0 22.7,2.3693 22.931,5.3272 l -0.1184,0.29339 z"
           inkscape:connector-curvature="0"
           style="fill:#aa0000" />
      </g>
      <g
         id="g5159"
         transform="matrix(1.2171575,0,0,1.2171575,168.89845,312.29236)"
         style="stroke:#000000;stroke-width:0.25">
        <path
           id="path5161"
           d="m 111.63,347.86 0.10374,17.532 c 0,0 8.0893,5.1871 22.719,5.1871 16.599,0 23.238,-6.5357 23.238,-6.5357 l -0.20749,-16.495 z"
           style="fill:url(#linearGradient15950)"
           inkscape:connector-curvature="0" />
        <path
           id="path5163"
           d="m 157.5,347.49 c 0,2.9974 -10.268,5.4272 -22.935,5.4272 -12.666,0 -22.935,-2.4299 -22.935,-5.4272 0,-2.9974 10.268,-5.4272 22.935,-5.4272 12.502,0 22.7,2.3693 22.931,5.3272 l -0.1184,0.29339 z"
           inkscape:connector-curvature="0"
           style="fill:#aa0000" />
      </g>
      <g
         id="g5119"
         transform="matrix(1.2407441,0,0,1.2407441,-47.446375,363.24847)"
         style="stroke:#000000;stroke-width:0.25">
        <path
           id="path5121"
           d="m 111.63,347.86 0.10374,17.532 c 0,0 8.0893,5.1871 22.719,5.1871 16.599,0 23.238,-6.5357 23.238,-6.5357 l -0.20749,-16.495 z"
           style="fill:url(#linearGradient15952)"
           inkscape:connector-curvature="0" />
        <path
           id="path5123"
           d="m 157.5,347.49 c 0,2.9974 -10.268,5.4272 -22.935,5.4272 -12.666,0 -22.935,-2.4299 -22.935,-5.4272 0,-2.9974 10.268,-5.4272 22.935,-5.4272 12.502,0 22.7,2.3693 22.931,5.3272 l -0.1184,0.29339 z"
           inkscape:connector-curvature="0"
           style="fill:#aa0000" />
      </g>
      <g
         id="g5125"
         transform="matrix(1.2700257,0,0,1.2700257,7.632734,379.01833)"
         style="stroke:#000000;stroke-width:0.25">
        <path
           id="path5127"
           d="m 111.63,347.86 0.10374,17.532 c 0,0 8.0893,5.1871 22.719,5.1871 16.599,0 23.238,-6.5357 23.238,-6.5357 l -0.20749,-16.495 z"
           style="fill:url(#linearGradient4877)"
           inkscape:connector-curvature="0" />
        <path
           id="path5129"
           d="m 157.5,347.49 c 0,2.9974 -10.268,5.4272 -22.935,5.4272 -12.666,0 -22.935,-2.4299 -22.935,-5.4272 0,-2.9974 10.268,-5.4272 22.935,-5.4272 12.502,0 22.7,2.3693 22.931,5.3272 l -0.1184,0.29339 z"
           inkscape:connector-curvature="0"
           style="fill:#aa0000" />
      </g>
    </g>
    <g
       transform="matrix(1.240655,0.01486728,-0.01486728,1.240655,-244.82393,398.98634)"
       id="g5427">
      <g
         style="stroke:#000000"
         transform="translate(-1.0936,3.2809)"
         id="g5465">
        <path
           style="fill:#1d8a1d;stroke-width:0.60000002;stroke-linecap:round;stroke-linejoin:round"
           inkscape:connector-curvature="0"
           d="m 244.88,230.34 1.0196,80.212 92.467,33.552 -2.3352,-80.351 z"
           id="path5183" />
        <path
           style="fill:#1dbd1d;stroke-width:0.60000002;stroke-linecap:round;stroke-linejoin:round"
           inkscape:connector-curvature="0"
           d="m 337.39,343.17 231.56,-63.302 -0.2262,-80.764 -232.69,64.653 z"
           id="path5185" />
        <path
           style="fill:#1d8a1d;stroke-width:0.60000002;stroke-linecap:round;stroke-linejoin:round"
           inkscape:connector-curvature="0"
           d="m 245.16,230.32 219.35,-60.37 103.92,29.11 -233.08,64.7 z"
           id="path5187" />
        <g
           id="g5409">
          <path
             inkscape:connector-curvature="0"
             style="fill:url(#linearGradient5449);stroke-width:0.25"
             d="m 272.28,211.83 0.10374,17.532 c 0,0 8.0893,5.1871 22.719,5.1871 16.599,0 23.238,-6.5357 23.238,-6.5357 l -0.20749,-16.495 z"
             id="path5193" />
          <path
             style="fill:#1d8a1d;stroke-width:0.25"
             inkscape:connector-curvature="0"
             d="m 318.15,211.46 c 0,2.9974 -10.268,5.4272 -22.935,5.4272 -12.666,0 -22.935,-2.4299 -22.935,-5.4272 0,-2.9974 10.268,-5.4272 22.935,-5.4272 12.502,0 22.7,2.3693 22.931,5.3272 l -0.1184,0.29339 z"
             id="path5195" />
          <path
             inkscape:connector-curvature="0"
             style="fill:url(#linearGradient5451);stroke-width:0.2559"
             d="m 319.31,232.74 0.10619,17.946 c 0,0 8.2804,5.3096 23.256,5.3096 16.991,0 23.787,-6.69 23.787,-6.69 l -0.21239,-16.884 z"
             id="path5199" />
          <path
             style="fill:#1d8a1d;stroke-width:0.2559"
             inkscape:connector-curvature="0"
             d="m 366.27,232.37 c 0,3.0682 -10.511,5.5554 -23.476,5.5554 -12.966,0 -23.476,-2.4872 -23.476,-5.5554 0,-3.0682 10.511,-5.5554 23.476,-5.5554 12.797,0 23.236,2.4252 23.472,5.453 l -0.1212,0.30032 z"
             id="path5201" />
          <path
             inkscape:connector-curvature="0"
             style="fill:url(#linearGradient5453);stroke-width:0.2559"
             d="m 376.72,216.34 0.10619,17.946 c 0,0 8.2804,5.3096 23.256,5.3096 16.991,0 23.787,-6.69 23.787,-6.69 l -0.21239,-16.884 z"
             id="path5205" />
          <path
             style="fill:#1d8a1d;stroke-width:0.2559"
             inkscape:connector-curvature="0"
             d="m 423.68,215.97 c 0,3.0682 -10.511,5.5554 -23.476,5.5554 -12.966,0 -23.476,-2.4872 -23.476,-5.5554 0,-3.0682 10.511,-5.5554 23.476,-5.5554 12.797,0 23.236,2.4252 23.472,5.453 l -0.1212,0.30032 z"
             id="path5207" />
          <path
             inkscape:connector-curvature="0"
             style="fill:url(#linearGradient5455);stroke-width:0.24632999"
             d="m 434.68,200.81 0.10222,17.275 c 0,0 7.9706,5.1109 22.386,5.1109 16.355,0 22.897,-6.4397 22.897,-6.4397 l -0.20444,-16.253 z"
             id="path5211" />
          <path
             style="fill:#1d8a1d;stroke-width:0.24632999"
             inkscape:connector-curvature="0"
             d="m 479.89,200.45 c 0,2.9534 -10.117,5.3476 -22.598,5.3476 -12.48,0 -22.598,-2.3942 -22.598,-5.3476 0,-2.9534 10.117,-5.3476 22.598,-5.3476 12.318,0 22.367,2.3345 22.594,5.249 l -0.11666,0.28908 z"
             id="path5213" />
          <path
             inkscape:connector-curvature="0"
             style="fill:url(#linearGradient5457);stroke-width:0.24632999"
             d="m 491,183.31 0.10222,17.275 c 0,0 7.9706,5.1109 22.386,5.1109 16.355,0 22.897,-6.4397 22.897,-6.4397 l -0.20444,-16.253 z"
             id="path5215" />
          <path
             style="fill:#1d8a1d;stroke-width:0.24632999"
             inkscape:connector-curvature="0"
             d="m 536.21,182.95 c 0,2.9534 -10.117,5.3476 -22.598,5.3476 -12.48,0 -22.598,-2.3942 -22.598,-5.3476 0,-2.9534 10.117,-5.3476 22.598,-5.3476 12.318,0 22.367,2.3345 22.594,5.249 l -0.11666,0.28908 z"
             id="path5217" />
          <path
             inkscape:connector-curvature="0"
             style="fill:url(#linearGradient5459);stroke-width:0.25"
             d="m 330.24,195.97 0.10374,17.532 c 0,0 8.0893,5.1871 22.719,5.1871 16.599,0 23.238,-6.5357 23.238,-6.5357 l -0.20749,-16.495 z"
             id="path5221" />
          <path
             style="fill:#1d8a1d;stroke-width:0.25"
             inkscape:connector-curvature="0"
             d="m 376.12,195.6 c 0,2.9974 -10.268,5.4272 -22.935,5.4272 -12.666,0 -22.935,-2.4299 -22.935,-5.4272 0,-2.9974 10.268,-5.4272 22.935,-5.4272 12.502,0 22.7,2.3693 22.931,5.3272 l -0.1184,0.29339 z"
             id="path5223" />
          <path
             inkscape:connector-curvature="0"
             style="fill:url(#linearGradient5461);stroke-width:0.24525"
             d="m 387.65,180.55 0.10177,17.199 c 0,0 7.9356,5.0884 22.287,5.0884 16.283,0 22.796,-6.4114 22.796,-6.4114 l -0.20354,-16.181 z"
             id="path5227" />
          <path
             style="fill:#1d8a1d;stroke-width:0.24525"
             inkscape:connector-curvature="0"
             d="m 432.66,180.19 c 0,2.9404 -10.073,5.3241 -22.499,5.3241 -12.426,0 -22.499,-2.3837 -22.499,-5.3241 0,-2.9404 10.073,-5.3241 22.499,-5.3241 12.264,0 22.269,2.3243 22.495,5.2259 l -0.11615,0.28781 z"
             id="path5229" />
          <path
             inkscape:connector-curvature="0"
             style="fill:url(#linearGradient5463);stroke-width:0.24525"
             d="m 444.52,164.14 0.10177,17.199 c 0,0 7.9356,5.0884 22.287,5.0884 16.283,0 22.796,-6.4114 22.796,-6.4114 l -0.20354,-16.181 z"
             id="path5233" />
          <path
             style="fill:#1d8a1d;stroke-width:0.24525"
             inkscape:connector-curvature="0"
             d="m 489.52,163.78 c 0,2.9404 -10.073,5.3241 -22.499,5.3241 -12.426,0 -22.499,-2.3837 -22.499,-5.3241 0,-2.9404 10.073,-5.3241 22.499,-5.3241 12.264,0 22.269,2.3243 22.495,5.2259 l -0.11615,0.28781 z"
             id="path5235" />
        </g>
      </g>
    </g>
  </g>
</svg>
