<?xml version="1.0" encoding="UTF-8" standalone="no"?>
<!-- Created with Inkscape (http://www.inkscape.org/) -->

<svg
   xmlns:dc="http://purl.org/dc/elements/1.1/"
   xmlns:cc="http://creativecommons.org/ns#"
   xmlns:rdf="http://www.w3.org/1999/02/22-rdf-syntax-ns#"
   xmlns:svg="http://www.w3.org/2000/svg"
   xmlns="http://www.w3.org/2000/svg"
   xmlns:xlink="http://www.w3.org/1999/xlink"
   xmlns:sodipodi="http://sodipodi.sourceforge.net/DTD/sodipodi-0.dtd"
   xmlns:inkscape="http://www.inkscape.org/namespaces/inkscape"
   version="1.1"
   width="512"
   height="512"
   id="svg2"
   inkscape:version="0.48.5 r10040"
   sodipodi:docname="molrep_den.svg">
  <sodipodi:namedview
     pagecolor="#ffffff"
     bordercolor="#666666"
     borderopacity="1"
     objecttolerance="10"
     gridtolerance="10"
     guidetolerance="10"
     inkscape:pageopacity="0"
     inkscape:pageshadow="2"
     inkscape:window-width="1366"
     inkscape:window-height="719"
     id="namedview4813"
     showgrid="false"
     inkscape:zoom="0.921875"
     inkscape:cx="256"
     inkscape:cy="256"
     inkscape:window-x="0"
     inkscape:window-y="0"
     inkscape:window-maximized="1"
     inkscape:current-layer="svg2" />
  <defs
     id="defs4">
    <linearGradient
       id="linearGradient5327">
      <stop
         id="stop5329"
         style="stop-color:#ffffff;stop-opacity:1"
         offset="0" />
      <stop
         id="stop5331"
         style="stop-color:#ffffff;stop-opacity:0"
         offset="1" />
    </linearGradient>
    <linearGradient
       id="linearGradient4203">
      <stop
         id="stop4205"
         style="stop-color:#d95a0e;stop-opacity:1"
         offset="0" />
      <stop
         id="stop4207"
         style="stop-color:#fdc200;stop-opacity:1"
         offset="1" />
    </linearGradient>
    <marker
       refX="0"
       refY="0"
       orient="auto"
       id="marker4655"
       style="overflow:visible">
      <path
         d="M 0,0 5,-5 -12.5,0 5,5 0,0 z"
         transform="matrix(-0.8,0,0,-0.8,-10,0)"
         id="path4657"
         style="fill:#000000;fill-opacity:1;fill-rule:evenodd;stroke:#000000;stroke-width:1pt;stroke-opacity:1" />
    </marker>
    <marker
       refX="0"
       refY="0"
       orient="auto"
       id="marker4651"
       style="overflow:visible">
      <path
         d="M 0,0 5,-5 -12.5,0 5,5 0,0 z"
         transform="matrix(0.8,0,0,0.8,10,0)"
         id="path4653"
         style="fill:#000000;fill-opacity:1;fill-rule:evenodd;stroke:#000000;stroke-width:1pt;stroke-opacity:1" />
    </marker>
    <marker
       refX="0"
       refY="0"
       orient="auto"
       id="marker4647"
       style="overflow:visible">
      <path
         d="M 0,0 5,-5 -12.5,0 5,5 0,0 z"
         transform="matrix(-0.8,0,0,-0.8,-10,0)"
         id="path4649"
         style="fill:#000000;fill-opacity:1;fill-rule:evenodd;stroke:#000000;stroke-width:1pt;stroke-opacity:1" />
    </marker>
    <marker
       refX="0"
       refY="0"
       orient="auto"
       id="Arrow2Mstart"
       style="overflow:visible">
      <path
         d="M 8.7185878,4.0337352 -2.2072895,0.01601326 8.7185884,-4.0017078 c -1.7454984,2.3720609 -1.7354408,5.6174519 -6e-7,8.035443 z"
         transform="scale(0.6,0.6)"
         id="path4328"
         style="fill:#000000;fill-opacity:1;fill-rule:evenodd;stroke:#000000;stroke-width:0.625;stroke-linejoin:round;stroke-opacity:1" />
    </marker>
    <marker
       refX="0"
       refY="0"
       orient="auto"
       id="marker4641"
       style="overflow:visible">
      <path
         d="M 8.7185878,4.0337352 -2.2072895,0.01601326 8.7185884,-4.0017078 c -1.7454984,2.3720609 -1.7354408,5.6174519 -6e-7,8.035443 z"
         transform="matrix(-1.1,0,0,-1.1,-1.1,0)"
         id="path4643"
         style="fill:#000000;fill-opacity:1;fill-rule:evenodd;stroke:#000000;stroke-width:0.625;stroke-linejoin:round;stroke-opacity:1" />
    </marker>
    <marker
       refX="0"
       refY="0"
       orient="auto"
       id="Arrow2Mend"
       style="overflow:visible">
      <path
         d="M 8.7185878,4.0337352 -2.2072895,0.01601326 8.7185884,-4.0017078 c -1.7454984,2.3720609 -1.7354408,5.6174519 -6e-7,8.035443 z"
         transform="scale(-0.6,-0.6)"
         id="path4331"
         style="fill:#000000;fill-opacity:1;fill-rule:evenodd;stroke:#000000;stroke-width:0.625;stroke-linejoin:round;stroke-opacity:1" />
    </marker>
    <marker
       refX="0"
       refY="0"
       orient="auto"
       id="marker4635"
       style="overflow:visible">
      <path
         d="M 8.7185878,4.0337352 -2.2072895,0.01601326 8.7185884,-4.0017078 c -1.7454984,2.3720609 -1.7354408,5.6174519 -6e-7,8.035443 z"
         transform="matrix(1.1,0,0,1.1,1.1,0)"
         id="path4637"
         style="fill:#000000;fill-opacity:1;fill-rule:evenodd;stroke:#000000;stroke-width:0.625;stroke-linejoin:round;stroke-opacity:1" />
    </marker>
    <marker
       refX="0"
       refY="0"
       orient="auto"
       id="marker4631"
       style="overflow:visible">
      <path
         d="M 0,0 5,-5 -12.5,0 5,5 0,0 z"
         transform="matrix(-0.8,0,0,-0.8,-10,0)"
         id="path4633"
         style="fill:#000000;fill-opacity:1;fill-rule:evenodd;stroke:#000000;stroke-width:1pt;stroke-opacity:1" />
    </marker>
    <marker
       refX="0"
       refY="0"
       orient="auto"
       id="marker4627"
       style="overflow:visible">
      <path
         d="M 0,0 5,-5 -12.5,0 5,5 0,0 z"
         transform="matrix(-0.8,0,0,-0.8,-10,0)"
         id="path4629"
         style="fill:#000000;fill-opacity:1;fill-rule:evenodd;stroke:#000000;stroke-width:1pt;stroke-opacity:1" />
    </marker>
    <marker
       refX="0"
       refY="0"
       orient="auto"
       id="marker4623"
       style="overflow:visible">
      <path
         d="M 0,0 5,-5 -12.5,0 5,5 0,0 z"
         transform="matrix(0.8,0,0,0.8,10,0)"
         id="path4625"
         style="fill:#000000;fill-opacity:1;fill-rule:evenodd;stroke:#000000;stroke-width:1pt;stroke-opacity:1" />
    </marker>
    <marker
       refX="0"
       refY="0"
       orient="auto"
       id="marker4619"
       style="overflow:visible">
      <path
         d="M 8.7185878,4.0337352 -2.2072895,0.01601326 8.7185884,-4.0017078 c -1.7454984,2.3720609 -1.7354408,5.6174519 -6e-7,8.035443 z"
         transform="matrix(1.1,0,0,1.1,1.1,0)"
         id="path4621"
         style="fill:#000000;fill-opacity:1;fill-rule:evenodd;stroke:#000000;stroke-width:0.625;stroke-linejoin:round;stroke-opacity:1" />
    </marker>
    <marker
       refX="0"
       refY="0"
       orient="auto"
       id="marker4615"
       style="overflow:visible">
      <path
         d="M 0,0 5,-5 -12.5,0 5,5 0,0 z"
         transform="matrix(0.8,0,0,0.8,10,0)"
         id="path4617"
         style="fill:#000000;fill-opacity:1;fill-rule:evenodd;stroke:#000000;stroke-width:1pt;stroke-opacity:1" />
    </marker>
    <marker
       refX="0"
       refY="0"
       orient="auto"
       id="marker4611"
       style="overflow:visible">
      <path
         d="M 0,0 5,-5 -12.5,0 5,5 0,0 z"
         transform="matrix(-0.8,0,0,-0.8,-10,0)"
         id="path4613"
         style="fill:#000000;fill-opacity:1;fill-rule:evenodd;stroke:#000000;stroke-width:1pt;stroke-opacity:1" />
    </marker>
    <marker
       refX="0"
       refY="0"
       orient="auto"
       id="marker4607"
       style="overflow:visible">
      <path
         d="M 0,0 5,-5 -12.5,0 5,5 0,0 z"
         transform="matrix(-0.8,0,0,-0.8,-10,0)"
         id="path4609"
         style="fill:#000000;fill-opacity:1;fill-rule:evenodd;stroke:#000000;stroke-width:1pt;stroke-opacity:1" />
    </marker>
    <marker
       refX="0"
       refY="0"
       orient="auto"
       id="Arrow1Lend"
       style="overflow:visible">
      <path
         d="M 0,0 5,-5 -12.5,0 5,5 0,0 z"
         transform="matrix(-0.8,0,0,-0.8,-10,0)"
         id="path4307"
         style="fill:#000000;fill-opacity:1;fill-rule:evenodd;stroke:#000000;stroke-width:1pt;stroke-opacity:1" />
    </marker>
    <marker
       refX="0"
       refY="0"
       orient="auto"
       id="marker4601"
       style="overflow:visible">
      <path
         d="M 8.7185878,4.0337352 -2.2072895,0.01601326 8.7185884,-4.0017078 c -1.7454984,2.3720609 -1.7354408,5.6174519 -6e-7,8.035443 z"
         transform="matrix(-1.1,0,0,-1.1,-1.1,0)"
         id="path4603"
         style="fill:#000000;fill-opacity:1;fill-rule:evenodd;stroke:#000000;stroke-width:0.625;stroke-linejoin:round;stroke-opacity:1" />
    </marker>
    <marker
       refX="0"
       refY="0"
       orient="auto"
       id="marker4593"
       style="overflow:visible">
      <path
         d="M 8.7185878,4.0337352 -2.2072895,0.01601326 8.7185884,-4.0017078 c -1.7454984,2.3720609 -1.7354408,5.6174519 -6e-7,8.035443 z"
         transform="matrix(-1.1,0,0,-1.1,-1.1,0)"
         id="path4595"
         style="fill:#000000;fill-opacity:1;fill-rule:evenodd;stroke:#000000;stroke-width:0.625;stroke-linejoin:round;stroke-opacity:1" />
    </marker>
    <marker
       refX="0"
       refY="0"
       orient="auto"
       id="Arrow2Lend"
       style="overflow:visible">
      <path
         d="M 8.7185878,4.0337352 -2.2072895,0.01601326 8.7185884,-4.0017078 c -1.7454984,2.3720609 -1.7354408,5.6174519 -6e-7,8.035443 z"
         transform="matrix(-1.1,0,0,-1.1,-1.1,0)"
         id="path4325"
         style="fill:#000000;fill-opacity:1;fill-rule:evenodd;stroke:#000000;stroke-width:0.625;stroke-linejoin:round;stroke-opacity:1" />
    </marker>
    <marker
       refX="0"
       refY="0"
       orient="auto"
       id="Arrow1Mend"
       style="overflow:visible">
      <path
         d="M 0,0 5,-5 -12.5,0 5,5 0,0 z"
         transform="matrix(-0.4,0,0,-0.4,-4,0)"
         id="path4313"
         style="fill:#000000;fill-opacity:1;fill-rule:evenodd;stroke:#000000;stroke-width:1pt;stroke-opacity:1" />
    </marker>
    <marker
       refX="0"
       refY="0"
       orient="auto"
       id="marker4585"
       style="overflow:visible">
      <path
         d="M 8.7185878,4.0337352 -2.2072895,0.01601326 8.7185884,-4.0017078 c -1.7454984,2.3720609 -1.7354408,5.6174519 -6e-7,8.035443 z"
         transform="matrix(1.1,0,0,1.1,1.1,0)"
         id="path4587"
         style="fill:#000000;fill-opacity:1;fill-rule:evenodd;stroke:#000000;stroke-width:0.625;stroke-linejoin:round;stroke-opacity:1" />
    </marker>
    <marker
       refX="0"
       refY="0"
       orient="auto"
       id="marker4579"
       style="overflow:visible">
      <path
         d="M 8.7185878,4.0337352 -2.2072895,0.01601326 8.7185884,-4.0017078 c -1.7454984,2.3720609 -1.7354408,5.6174519 -6e-7,8.035443 z"
         transform="matrix(1.1,0,0,1.1,1.1,0)"
         id="path4581"
         style="fill:#000000;fill-opacity:1;fill-rule:evenodd;stroke:#000000;stroke-width:0.625;stroke-linejoin:round;stroke-opacity:1" />
    </marker>
    <marker
       refX="0"
       refY="0"
       orient="auto"
       id="Arrow2Lstart"
       style="overflow:visible">
      <path
         d="M 8.7185878,4.0337352 -2.2072895,0.01601326 8.7185884,-4.0017078 c -1.7454984,2.3720609 -1.7354408,5.6174519 -6e-7,8.035443 z"
         transform="matrix(1.1,0,0,1.1,1.1,0)"
         id="path4322"
         style="fill:#000000;fill-opacity:1;fill-rule:evenodd;stroke:#000000;stroke-width:0.625;stroke-linejoin:round;stroke-opacity:1" />
    </marker>
    <marker
       refX="0"
       refY="0"
       orient="auto"
       id="marker4573"
       style="overflow:visible">
      <path
         d="M 0,0 5,-5 -12.5,0 5,5 0,0 z"
         transform="matrix(0.8,0,0,0.8,10,0)"
         id="path4575"
         style="fill:#000000;fill-opacity:1;fill-rule:evenodd;stroke:#000000;stroke-width:1pt;stroke-opacity:1" />
    </marker>
    <marker
       refX="0"
       refY="0"
       orient="auto"
       id="marker4569"
       style="overflow:visible">
      <path
         d="M 0,0 5,-5 -12.5,0 5,5 0,0 z"
         transform="matrix(0.8,0,0,0.8,10,0)"
         id="path4571"
         style="fill:#000000;fill-opacity:1;fill-rule:evenodd;stroke:#000000;stroke-width:1pt;stroke-opacity:1" />
    </marker>
    <marker
       refX="0"
       refY="0"
       orient="auto"
       id="marker4565"
       style="overflow:visible">
      <path
         d="M 0,0 5,-5 -12.5,0 5,5 0,0 z"
         transform="matrix(0.8,0,0,0.8,10,0)"
         id="path4567"
         style="fill:#000000;fill-opacity:1;fill-rule:evenodd;stroke:#000000;stroke-width:1pt;stroke-opacity:1" />
    </marker>
    <marker
       refX="0"
       refY="0"
       orient="auto"
       id="Arrow1Lstart"
       style="overflow:visible">
      <path
         d="M 0,0 5,-5 -12.5,0 5,5 0,0 z"
         transform="matrix(0.8,0,0,0.8,10,0)"
         id="path4304"
         style="fill:#000000;fill-opacity:1;fill-rule:evenodd;stroke:#000000;stroke-width:1pt;stroke-opacity:1" />
    </marker>
    <linearGradient
       x1="311.05215"
       y1="840.93604"
       x2="396.80634"
       y2="780.3269"
       id="linearGradient4209"
       xlink:href="#linearGradient4203"
       gradientUnits="userSpaceOnUse"
       gradientTransform="matrix(0.9858322,-0.16773452,0.16773452,0.9858322,-129.08526,64.72034)" />
    <linearGradient
       x1="314.99213"
       y1="251.46838"
       x2="-88.89344"
       y2="647.44818"
       id="linearGradient5333"
       xlink:href="#linearGradient5327"
       gradientUnits="userSpaceOnUse" />
  </defs>
  <metadata
     id="metadata7">
    <rdf:RDF>
      <cc:Work
         rdf:about="">
        <dc:format>image/svg+xml</dc:format>
        <dc:type
           rdf:resource="http://purl.org/dc/dcmitype/StillImage" />
        <dc:title />
      </cc:Work>
    </rdf:RDF>
  </metadata>
  <g
     transform="translate(0,-540.36218)"
     id="layer1">
    <path
       d="m 249.07654,964.84892 c -2.60883,5.55793 -8.06755,7.21042 -12.18461,3.68855 -4.11706,-3.52196 -5.34111,-10.89104 -2.73227,-16.44905 2.60885,-5.55792 8.06758,-7.21032 12.18462,-3.68845 4.11705,3.52187 5.3411,10.89103 2.73226,16.44895 z"
       id="path3625"
       style="fill:#000000;fill-rule:evenodd;stroke:none;stroke-width:6.63536549;marker-start:none;marker-end:none" />
    <path
       d="m 426.87366,833.97733 c 3.0838,5.09545 2.5232,12.60958 -1.25128,16.77262 -3.77446,4.16299 -9.34057,3.40626 -12.42433,-1.6892 -3.08375,-5.09549 -2.52319,-12.60957 1.25128,-16.77262 3.77448,-4.163 9.34056,-3.40625 12.42433,1.6892 z"
       id="path3635"
       style="fill:#c0c0c0;fill-opacity:1;fill-rule:evenodd;stroke:none;stroke-width:6.63536549;marker-start:none;marker-end:none" />
    <path
       d="m 461.89722,958.38332 0.0787,-0.95783 -0.31534,-0.95782 -40.91658,-117.0717 -0.63071,-1.70287 -1.34022,0 -216.8027,0 -1.81324,0 -0.3942,2.44787 4.02071,3.51214 213.57035,0 40.04936,114.51744 4.49374,0.21277 z"
       id="path3637"
       style="fill:#c0c0c0;fill-opacity:1;fill-rule:evenodd;stroke:none" />
    <path
       d="m 462.79621,554.51702 -42.15809,284.5629"
       id="path3639"
       style="fill:none;stroke:#c0c0c0;stroke-width:5.54246092;stroke-linecap:butt;stroke-linejoin:miter;stroke-miterlimit:4;stroke-opacity:1;stroke-dasharray:none" />
    <path
       d="m 283.92538,678.91163 -42.1581,284.56288"
       id="path3601"
       style="fill:none;stroke:#000000;stroke-width:5.54246092;stroke-linecap:butt;stroke-linejoin:miter;stroke-miterlimit:4;stroke-opacity:1;stroke-dasharray:none" />
    <path
       d="m 240.79549,559.63448 -42.17798,281.29132 -0.0786,0.95784 0.31536,0.95787 40.91656,117.07169 0.63071,1.70279 1.34025,0 216.80268,0 1.81325,0 0.39418,-2.44776 42.17798,-279.69494 -4.33605,-1.1707 -41.86265,277.35337 -213.57032,0 -40.04937,-114.51731 42.0203,-280.33345 -4.33605,-1.17072 z"
       id="path3599"
       style="fill:#000000;fill-opacity:1;fill-rule:evenodd;stroke:none" />
    <path
       d="m 465.28145,951.20543 c 3.08379,5.09549 2.5232,12.60958 -1.25128,16.77261 -3.77446,4.16303 -9.34058,3.40626 -12.42434,-1.68922 -3.08376,-5.09541 -2.52318,-12.60959 1.25129,-16.77253 3.77447,-4.16312 9.34056,-3.40626 12.42433,1.68914 z"
       id="path3627"
       style="fill:#000000;fill-rule:evenodd;stroke:none;stroke-width:6.63536549;marker-start:none;marker-end:none" />
    <path
       d="m 239.45527,558.88949 1.49791,4.25715 42.17797,117.07166 0.63069,1.70288 1.34023,0 216.80269,0 3.54767,0 -1.49789,-4.25716 -40.99542,-117.07167 -0.55187,-1.70286 -1.41907,0 -217.98524,0 -3.54767,0 z m 7.09535,5.96001 213.09731,0 38.78799,111.11166 -211.83593,0 -40.04937,-111.11166 z"
       id="path2430"
       style="fill:#000000;fill-opacity:1;fill-rule:evenodd;stroke:none" />
    <path
       d="m 468.2987,568.08697 c -2.60884,5.55792 -8.06754,7.21036 -12.18461,3.6885 -4.11703,-3.52192 -5.3411,-10.89104 -2.73227,-16.44903 2.60886,-5.55792 8.06759,-7.21037 12.18463,-3.68845 4.11705,3.52187 5.34112,10.89105 2.73225,16.44898 z"
       id="path3609"
       style="fill:#000000;fill-opacity:1;fill-rule:evenodd;stroke:none;stroke-width:6.63536549;marker-start:none;marker-end:none" />
    <path
       d="m 497.31138,688.779 c -4.11705,-3.52189 -5.3411,-10.89103 -2.73227,-16.449 2.60886,-5.55792 8.06755,-7.21038 12.18463,-3.68846 4.11705,3.52187 5.3411,10.89104 2.73226,16.44896 -2.60885,5.55794 -8.06757,7.21037 -12.18462,3.6885 z"
       id="path3611"
       style="fill:#000000;fill-opacity:1;fill-rule:evenodd;stroke:none;stroke-width:6.63536549;marker-start:none;marker-end:none" />
    <path
       d="m 277.79457,672.71482 c 2.58554,-5.57775 8.03725,-7.27177 12.16898,-3.78132 4.13174,3.49046 5.3866,10.85014 2.80104,16.42789 -2.58556,5.57772 -8.03727,7.27176 -12.16898,3.78135 -4.13172,-3.49046 -5.38658,-10.85015 -2.80104,-16.42792 z"
       id="path3613"
       style="fill:#000000;fill-opacity:1;fill-rule:evenodd;stroke:none;stroke-width:6.63536549;marker-start:none;marker-end:none" />
    <path
       d="m 247.56208,551.93179 c 4.13175,3.49045 5.3866,10.85015 2.80105,16.42789 -2.58557,5.57778 -8.03729,7.2718 -12.16902,3.78134 -4.1317,-3.49045 -5.38657,-10.85013 -2.80102,-16.42786 2.58556,-5.57777 8.03728,-7.27181 12.16899,-3.78137 z"
       id="path3615"
       style="fill:#000000;fill-opacity:1;fill-rule:evenodd;stroke:none;stroke-width:6.63536549;marker-start:none;marker-end:none" />
    <path
       d="m 201.85625,853.11557 c -4.83852,0.79276 -9.24204,-3.86506 -9.82933,-10.39697 -0.58726,-6.53193 2.86304,-12.47662 7.70158,-13.26943 4.83853,-0.79275 9.24208,3.86504 9.82936,10.39698 0.58724,6.53192 -2.86306,12.4766 -7.70161,13.26942 z"
       id="path3623"
       style="fill:#000000;fill-rule:evenodd;stroke:none;stroke-width:6.63536549;marker-start:none;marker-end:none" />
    <path
       d="m 206.20603,873.45733 c -7.05618,-0.57154 -15.38949,-1.56855 -21.5109,-2.57358 l -3.26893,-0.53671 7.98912,0.14901 c 11.04593,0.20602 18.2019,-0.17637 28.91427,-1.5451 22.29616,-2.84879 44.23861,-9.2353 65.89823,-19.18015 9.01878,-4.1409 14.96858,-7.28613 23.58962,-12.47009 25.75488,-15.48682 48.11425,-34.76553 69.61072,-60.01982 6.48713,-7.62115 17.50643,-22.01282 17.32935,-22.63285 -0.0492,-0.17226 -6.92267,-3.71294 -15.27438,-7.86819 -8.35171,-4.15525 -15.94396,-7.94517 -16.87168,-8.42203 l -1.68676,-0.86705 16.87677,-5.93014 c 9.28223,-3.26158 29.10221,-10.23187 44.04442,-15.48952 14.9422,-5.25767 27.22224,-9.49981 27.28898,-9.42699 0.0668,0.0728 3.45785,15.79101 7.53581,34.92935 4.07798,19.13832 8.40166,39.42569 9.60818,45.08304 1.20653,5.65735 2.14602,10.33475 2.08777,10.39423 -0.0582,0.0595 -6.934,-4.47313 -15.27943,-10.07247 -8.34544,-5.59934 -15.27176,-10.18491 -15.39184,-10.19014 -0.12007,-0.005 -1.3738,1.56277 -2.78607,3.48445 -13.1415,17.88168 -29.50048,34.16644 -47.65858,47.44231 -21.54342,15.75096 -46.94756,27.96684 -74.46161,35.80574 -32.59685,9.28702 -70.72198,12.84141 -106.58306,9.9367 z"
       id="path4201"
       style="fill:url(#linearGradient4209);fill-opacity:1;stroke:#000000;stroke-width:2.70000005;stroke-miterlimit:4;stroke-opacity:1;stroke-dasharray:none" />
    <g
       transform="matrix(0.51272006,0,0,0.51272006,143.44611,434.71046)"
       id="g3311">
      <path
         d="m 65.99493,1193.5166 c -7.89372,-4.3022 -10.39588,-9.1982 -11.11086,-21.7407 -0.29036,-5.0938 -0.91261,-9.6549 -1.38277,-10.1357 -1.54569,-1.5808 -6.59861,1.0617 -11.60678,6.0698 -3.51737,3.5174 -6.30476,5.2979 -9.84613,6.2894 -3.42909,0.9601 -6.18048,2.6731 -8.99663,5.6013 -4.71899,4.9067 -10.01488,6.7131 -16.05683,5.4769 -2.2,-0.4502 -8.95,-2.9715 -15,-5.6029 -6.05,-2.6315 -12.35,-4.7825 -14,-4.78 -2.57999,0 -10.9692,3.7557 -24.5,10.957 -2.34316,1.247 -5.38428,1.8267 -9.20083,1.7537 -8.20358,-0.1569 -19.02807,-6.4248 -24.76028,-14.3373 -4.25109,-5.8681 -16.86675,-17.1735 -21.75545,-19.496 -1.53089,-0.7273 -8.63344,-2.3184 -15.78344,-3.5359 -17.87792,-3.0443 -19.83054,-3.9777 -23.94072,-11.4454 -2.86863,-5.2119 -3.44434,-7.4279 -4.04646,-15.5758 -0.38609,-5.2247 -0.99949,-9.7247 -1.3631,-10 -1.37156,-1.0385 -5.84998,-7.6595 -7.92656,-11.7187 -1.18682,-2.32 -3.33652,-6.0853 -4.77712,-8.3674 l -2.61928,-4.1492 -5.16338,0.802 c -13.42547,2.0853 -19.68433,-0.3772 -24.45113,-9.6198 -1.76674,-3.4256 -3.21225,-7.2674 -3.21225,-8.5373 0,-1.2698 -1.31773,-3.5691 -2.9283,-5.1095 -3.73588,-3.5731 -8.66115,-13.4835 -9.59207,-19.3007 -1.18076,-7.3785 -6.40592,-20.6158 -9.99096,-25.3111 -4.21085,-5.5147 -8.43092,-13.2871 -12.42956,-22.89226 -2.90505,-6.97825 -3.72155,-7.96951 -12.35869,-15.00381 -12.77129,-10.40126 -14.69955,-14.33311 -14.7027,-29.97988 l -0.002,-11.31295 -5.07955,-9 c -13.82022,-24.48681 -14.09091,-27.16502 -4.03236,-39.89765 2.6514,-3.35629 6.83005,-9.96582 9.28587,-14.68784 2.45582,-4.72202 7.45965,-12.4204 11.11961,-17.10751 l 6.65448,-8.52202 -1.13451,-11.57961 -1.1345,-11.57961 4.29168,-10.77481 4.29168,-10.77482 -0.67923,-10.73427 c -1.05774,-16.71599 1.73953,-29.12846 8.86606,-39.34186 2.30262,-3.3 5.40746,-9.15 6.89964,-13 3.16175,-8.15764 5.86265,-11.54461 11.49924,-14.42018 4.81372,-2.45578 9.84911,-2.65291 14.8107,-0.57982 5.15314,2.15312 5.65405,1.95685 4.92494,-1.92964 -0.93439,-4.98074 1.14541,-11.88861 4.90006,-16.27507 3.19439,-3.73192 3.24644,-3.94302 2.21445,-8.98083 -2.00683,-9.79673 0.60829,-14.26358 14.51809,-24.79812 7.55241,-5.71979 7.78394,-6.4151 7.7938,-23.40591 0.01,-16.60936 2.49362,-21.00584 15.39244,-27.24357 6.18523,-2.99124 9.19147,-3.86686 13.27574,-3.86686 4.55106,0 5.50965,-0.35074 6.94476,-2.54098 1.68848,-2.57695 9.05802,-7.45902 11.25947,-7.45902 0.66141,0 6.02188,-2.05499 11.91214,-4.56664 l 10.70958,-4.56663 8.79035,-10.68337 c 4.8347,-5.87585 9.1097,-11.15345 9.5,-11.72801 1.85656,-2.733 8.54535,-5.45535 13.40372,-5.45535 4.23009,0 7.05452,1.00358 16.88614,6 11.42079,5.80404 16.1006,7.13449 17.44483,4.95948 0.35369,-0.57229 2.39631,-2.14729 4.53915,-3.5 4.23349,-2.67249 11.54028,-3.29369 17.75996,-1.50991 3.90839,1.12091 7.5195,0.0122 11.17585,-3.43124 1.375,-1.29494 5.875,-4.18499 10,-6.42232 9.44868,-5.12481 16.04092,-5.49805 26.63094,-1.50778 7.20313,2.7141 22.01021,5.75158 23.5123,4.82324 1.79849,-1.11152 20.62833,-0.42438 28.02289,1.02263 6.76305,1.32342 8.32987,1.32726 13.30054,0.0326 3.09893,-0.80717 7.03382,-2.19124 8.74421,-3.07572 5.33485,-2.75875 12.79597,-1.47882 24.28912,4.16674 l 10,4.91211 19.70208,0.0151 19.70208,0.0151 4.54602,4.45635 c 2.50032,2.45099 4.78433,5.20716 5.07559,6.12483 0.35462,1.11732 2.1135,1.87861 5.32443,2.30456 3.68937,0.48941 6.04625,1.67568 10.22234,5.14513 9.67692,8.03947 13.57713,12.35645 14.77465,16.35344 0.64317,2.14669 3.37297,8.72815 6.06624,14.62547 4.41023,9.6569 5.3286,10.96675 9.24171,13.18124 2.38967,1.35236 6.59486,4.78957 9.34486,7.63826 2.94142,3.04697 7.84332,6.60991 11.90602,8.65387 3.79831,1.91095 7.84831,4.19367 9,5.0727 1.15169,0.87903 4.21498,2.60823 6.80732,3.84266 6.24526,2.97389 18.98741,16.56439 22.96833,24.49753 1.68466,3.35718 5.57395,9.92896 8.64285,14.60396 4.74713,7.2315 5.64048,9.33417 5.98625,14.08966 0.53531,7.36247 -1.04652,10.2673 -11.0248,20.24558 -7.07234,7.07234 -7.76834,8.08855 -6.13192,8.95299 2.99003,1.57949 8.4032,6.99529 9.95695,9.96177 1.32369,2.52725 1.919,2.75 7.34958,2.75 7.22659,0 10.56723,1.18495 14.77058,5.23924 3.63363,3.50477 5.01358,6.96705 5.68389,14.26076 1.90818,20.76328 1.32022,18.70805 7.3361,25.64348 3.03254,3.49609 6.69162,6.97374 8.13128,7.72812 6.49868,3.40528 11.39,11.88442 10.96925,19.01526 -0.17751,3.00841 0.53171,4.88856 3.29084,8.72401 6.7104,9.32811 6.80678,10.28272 3.37098,33.38913 l -1.70998,11.5 5.04893,13.82978 c 6.80943,18.65205 7.02363,20.73344 2.84507,27.64588 -2.84765,4.71077 -4.89441,6.47428 -14.65223,12.6245 l -11.3422,7.14884 -5.98851,9.8755 c -3.29368,5.43153 -7.05022,12.98695 -8.34786,16.78982 -2.22365,6.51662 -2.29211,7.41941 -1.19023,15.69543 0.91948,6.90602 0.89891,10.02052 -0.0963,14.58562 -1.84144,8.4466 -4.88105,14.7412 -8.93361,18.5001 -13.49936,12.5213 -19.5503,19.5672 -23.17617,26.987 -4.25968,8.7168 -6.1172,11.5159 -12.64593,19.0562 -4.21717,4.8705 -11.50465,18.6468 -12.98586,24.5484 -0.65949,2.6276 -3.73808,8.3318 -6.33859,11.7444 -0.825,1.0827 -5.20046,4.4435 -9.72323,7.4685 l -8.22324,5.5 -7.0486,14 c -3.87672,7.7 -7.85322,14.9567 -8.83665,16.126 -2.86001,3.4006 -7.89436,5.4835 -13.481,5.5777 -3.60649,0.061 -6.52395,0.8582 -9.57348,2.6167 -5.35036,3.0853 -9.56829,3.2268 -28.02105,0.9407 l -13.40726,-1.6611 -4.59274,2.6162 c -2.52601,1.4388 -5.49275,3.3685 -6.59275,4.2881 -2.59829,2.1722 -6.58808,3.6094 -14,5.0431 -3.3,0.6384 -6.675,1.7383 -7.5,2.4443 -0.825,0.7061 -4.22692,2.6475 -7.55983,4.3144 -3.33291,1.6669 -6.67514,3.7721 -7.42717,4.6782 -2.05847,2.4803 -6.15645,4.3314 -15.79264,7.1335 -8.83531,2.5693 -13.2926,3.0497 -23.22036,2.5027 -3.025,-0.1667 -10,-0.01 -15.5,0.3568 -8.25053,0.5444 -10.52484,0.3738 -13,-0.9751 z"
         id="path3319"
         style="fill:#a0a0fe" />
      <path
         style="fill:#5f5ff3"
         d="m 67.70638,1193.9445 c -20.337182,-6.3665 -5.441991,-52.7173 -30.819333,-22.5264 -18.669881,16.2614 -39.9676445,14.0855 -60.450509,1.7198 -28.28609,26.7362 -56.809951,4.6339 -77.334438,-19.1976 -26.79569,-2.187 -49.80968,-13.6905 -48.59932,-43.8286 -6.88105,-18.2952 -17.31789,-24.6109 -35.90649,-22.4115 -20.56265,-21.7143 -22.502,-52.9654 -39.10136,-77.249 -6.02837,-24.88036 -39.77231,-33.79112 -32.67713,-62.77002 -2.59729,-19.07132 -29.14559,-38.61135 -7.00854,-56.53152 22.07742,-23.82758 23.39911,-50.82065 29.91507,-80.03336 -1.38545,-29.13311 7.2612,-81.42783 43.14576,-80.03998 15.09104,-3.69138 3.70291,-47.2311 28.68043,-53.94963 13.50402,-11.02141 -3.73176,-35.97597 14.37332,-46.16688 13.56676,-1.59313 50.373688,-24.64477 31.64645,-10.33077 13.18139,7.95549 46.853742,-28.87916 34.32276,-20.61464 -10.352947,11.32453 21.945875,-38.48841 36.719695,-19.5145 24.051679,15.45116 51.5448741,1.79827 74.827264,-10.08514 33.166242,2.87669 68.575681,13.15299 101.848341,3.30134 14.73028,4.83831 27.84091,13.5034 44.07325,10.33447 22.65749,4.03721 -30.26253,-4.11971 -16.4203,13.86238 -17.16296,-5.44634 20.06663,39.07947 28.47861,19.71748 9.44358,23.43284 33.19011,-0.18046 8.75959,-12.25132 2.96651,-15.24031 -15.57855,-31.37124 6.76552,-13.78377 29.1095,8.28745 33.42542,42.04322 54.43253,59.93074 23.67431,17.11503 51.80315,30.40543 62.62277,59.98412 22.39302,22.98013 -34.99701,37.96491 -0.0575,53.66877 31.13329,-3.91604 20.56082,29.94256 32.63751,45.36063 20.72805,17.88512 33.27074,46.40006 25.61103,74.07148 -4.35023,17.58648 19.84933,36.47864 3.28658,52.19383 -24.50346,13.76022 -43.95324,40.20157 -37.51578,69.31099 -11.93127,32.2763 -43.86648,54.1869 -56.50091,87.4721 -13.08174,23.2553 -34.22317,42.1705 -48.85723,64.0004 -19.16484,8.1236 -39.76175,4.566 -59.28595,4.1074 -25.93077,10.5566 -49.20679,29.0276 -77.63601,32.2071 -11.323181,-0.8432 -22.729291,1.1491 -33.97566,0.042 z m 18.37237,-12.9168 c 28.04818,7.7479 34.62626,-36.2032 8.620444,-35.0677 -19.540776,-5.7995 -48.116233,20.9929 -27.531184,36.0353 6.306502,-0.2634 12.608167,-0.6264 18.91074,-0.9676 z m -152.96611,-13.2633 c -14.669803,-33.9581 -8.308381,17.4066 0,0 z m 36.29896,-0.4473 c -4.961915,1.3351 -11.104957,7.5475 0,0 z m 186.52446,-8.8345 c 2.89974,-5.5918 -12.27951,2.6141 0,0 z m -163.56924,-9.5734 c 19.98311,-24.9667 -40.409618,-8.4145 0,0 z m 203.12811,-5.3267 c -7.71542,-7.1254 -6.75567,-3.1133 0,0 z m -40.57271,-3.1513 c 32.5553,4.187 -17.41972,-23.2086 -13.26041,1.9801 4.34587,-1.1017 8.82351,-1.4593 13.26041,-1.9801 z M -47.4477,1133.015 c 21.005684,-9.4455 -3.69944,-30.1869 -9.52282,-9.1451 1.7614,4.4134 2.446557,12.9781 9.52282,9.1451 z m 129.32775,-7.0889 c 23.23425,-32.253 -18.359998,13.1643 0,0 z m 20.98709,-25.9117 c 5.89313,-28.0241 -10.118883,-14.75 -10.93759,3.5 -14.076017,28.5996 4.948076,1.8489 10.93759,-3.5 z m -164.42711,8.0964 c 28.749859,-21.0617 -16.506566,-10.0077 -26.543642,-8.2621 -22.452718,-12.3337 21.791874,30.4267 26.543642,8.2621 z m 199.98461,-13.0607 c -5.14187,-1.8431 -0.56405,10.6743 0,0 z m 94.33181,-8.7488 c 10.16162,-9.2607 36.49373,-26.9008 17.7033,-37.2212 -0.78225,-20.224 -12.60664,-30.1419 -31.90838,-37.8931 12.59188,-13.29041 -23.51883,-36.51671 -34.04245,-22.72014 -6.35518,25.66714 -8.94924,-27.71286 -31.38913,-20.40095 -25.70523,3.365 23.26881,-16.59712 -7.67577,-17.88798 -28.16783,-17.74223 -44.15336,28.86847 -16.64202,37.58643 15.19485,14.00324 34.54624,52.75404 16.1389,59.27004 -8.07778,-15.4455 -15.45744,37.1542 3.16236,16.505 -5.72158,-25.218 11.21501,20.8827 27.65539,10.6467 17.64253,5.471 40.68181,36.0796 56.9978,12.1152 z m -69.26152,-64.7165 c 5.4716,-4.8053 5.23697,-0.8886 0,0 z m -112.88928,69.3508 c 21.33473,-30.2431 -15.304282,-60.7379 -25.7166,-16.571 -4.944902,10.2414 18.736146,21.6804 25.7166,16.571 z m -39.64778,-3.0228 c 12.318566,-21.1173 -13.8420828,-67.2325 -38.39378,-42.1867 -6.492495,23.1873 17.175366,49.8479 38.39378,42.1867 z m -134.27076,-9.4239 c -3.61608,-19.4418 -27.13426,-27.9396 -31.25938,-39.9015 -30.92009,-19.5461 -55.96366,45.1208 -16.52158,38.6973 15.97454,-0.6257 32.09392,-0.305 47.78096,1.2042 z m 89.27944,-9.5041 c -8.21675,-12.0621 -41.314567,-9.0101 -12.65835,-2.7457 1.530111,0.8213 19.880163,10.5223 12.65835,2.7457 z m 140.0027,-0.9207 c 4.25478,-29.4445 -18.710439,4.8601 0,0 z m -76.62027,-9.7997 c 8.972367,-17.0667 -12.605135,17.5751 -2.667936,4.4251 l 2.667936,-4.4251 z m -113.57193,-2.7031 c 11.572985,-7.3077 30.610504,-23.7977 3.764303,-17.3809 -14.954547,-4.0983 -18.257088,23.329 -3.764303,17.3809 z m 229.71788,-30.6248 c 1.61404,-14.9865 -21.5144,-34.61683 -9.18796,-8.892 4.60145,11.2075 -2.34011,42.8862 8.30203,14.3032 l 0.88593,-5.4112 z m -232,13.5035 c 21.904166,-6.2575 31.539036,-20.0426 51.74033,-12.2931 17.064652,-2.0595 40.6608749,17.3048 53.09729,-1.5559 21.124689,10.2544 42.410929,-2.0976 49.09317,-14.7958 26.077594,-6.6045 -44.910827,-31.57692 -3.041193,-25.14622 -20.195402,-18.70294 -43.015342,-12.73441 -51.386048,-39.5266 -16.5581012,-4.43778 9.5357,-19.98026 -16.3360106,-16.56626 -19.2001334,11.03476 2.55858671,20.1208 -23.5603844,22.89842 -25.228355,22.08026 -63.720458,14.54008 -81.392724,47.22402 -4.63363,12.51724 -27.46829,10.28534 -35.02187,10.13734 15.43975,-3.7701 -5.7882,-19.78118 17.4121,-10.0969 16.68336,-1.04217 54.857263,-30.36455 23.07932,-35.49219 -11.22546,-22.81646 -35.27002,-26.503 -45.69548,-18.67257 -7.40805,-25.62823 -35.03126,15.52121 -41.58141,19.78162 -5.1203,7.41754 -3.66707,9.10349 -6.98371,-5.60979 -15.65822,-10.98021 34.92415,-56.72317 -2.16921,-30.31873 -5.88356,22.1013 -41.57035,37.71342 -20.70996,59.61291 14.48235,17.39375 19.17147,44.02225 47.889,33.76965 27.43056,-3.9051 46.82988,6.7457 68.41373,21.2544 5.978009,-0.4471 11.562892,-2.663 17.15306,-4.6043 z m -13.5,-21.1556 c -26.1911,-13.4501 36.669547,10.0201 41.31376,-13.7278 19.959538,-17.85749 43.644985,-12.64186 63.3169525,5.3904 7.4894015,8.5095 -31.6157395,-25.04378 -42.5146925,-6.9369 -18.343803,11.1671 -37.219914,19.7515 -62.11602,15.2743 z m -81.75,-15.0282 c -9.27662,-11.10262 12.26444,5.8048 0,0 z m 222.75,-2.73136 c -15.897089,3.48586 -47.6995201,-30.95737 -21.03529,-9.05879 2.629645,4.72861 44.480664,6.98763 21.03529,9.05879 z m 83.15287,30.12956 c 15.34704,-17.9878 -21.8342,-28.8974 -27.284985,-31.61464 8.808275,8.65864 16.342585,57.88204 27.284985,31.61464 z m 150.10055,-5.2393 c 9.31866,-22.0737 69.58286,-36.58005 38.27538,-62.03217 -26.27208,-27.92005 -36.07522,37.07661 -55.21717,27.86992 -6.99064,8.63448 -3.68266,46.75575 16.94179,34.16225 z M 88.9862,976.7644 c -1.261818,-29.9547 -22.978221,-3.558 -2.854943,4.35369 3.153916,3.5391 4.007764,-3.31927 2.854943,-4.35369 z m 10.08496,-15.75892 c -8.208578,-26.01715 3.78793,20.61105 0,0 z m -340.32623,-0.61121 c 10.81493,-20.57557 -9.0146,-11.87539 -4.64461,-31.37987 -0.72493,-8.06663 -15.63227,47.72493 1.35216,33.69315 l 3.29245,-2.31328 0,0 z m 166.75,3.04138 c 22.016656,0.75957 61.592118,-18.12331 58.732895,-39.22252 -26.709928,-21.30011 -56.028609,-38.23842 -90.411375,-27.9226 -26.91391,-14.696 -15.29031,20.40312 3.74807,14.72387 -27.33253,17.2093 -8.11095,64.40383 24.196035,52.70077 l 3.734375,-0.27952 0,0 z m 313,-0.42125 c -8.63482,-3.66558 -7.82693,2.70316 0,0 z M 50.02061,954.06406 c -1.139314,-17.30945 -6.313044,-26.6204 -2.973413,-2.60563 -1.381857,0.79885 7.589253,9.9221 2.973413,2.60563 z m -302.02478,-18.98007 c -3.58471,-17.16741 -17.31338,-22.10759 -4.74061,-1.40665 1.49625,14.94751 5.90412,19.87721 4.74061,1.40665 z m 31.24934,7.94406 c 20.64864,-20.35139 49.79213,-38.24629 69.70533,-45.04204 14.17575,-23.44967 -19.44814,-44.21214 -26.83809,-15.22359 -12.40262,25.21476 -53.96823,28.66774 -57.83332,54.26551 2.73296,5.64973 9.23258,7.59706 14.96608,6.00012 z m 412.15427,-2.9119 c 11.70659,-1.68224 -39.18837,-22.62969 -12.79788,-2.0543 3.09629,3.39793 8.72331,5.34607 12.79788,2.0543 z m -69.40451,-0.10175 c -6.58108,-3.64373 0.11692,2.85298 0,0 z m 170.9114,-4.07707 c 7.88231,-14.33433 -0.63084,-62.28454 -10.09499,-22.99118 -0.46624,10.4344 -12.74808,31.36872 10.09499,22.99118 z M 242.1906,935.0584 c 22.78958,-14.42484 5.84072,-65.58881 -12.10975,-61.87335 -14.89872,17.78637 -24.9586,69.14427 12.10975,61.87335 z m -376.19567,-5.044 c -3.58829,-3.8072 -1.24187,3.94236 0,0 z m 2.62207,-2.675 c -3.64324,-4.57658 2.71436,7.37812 0,0 z m 218.20972,1.67003 c 0.468502,-10.90621 -17.29345,0.0415 0,0 z m -46.24338,-8.33342 c 22.776663,-13.15828 11.859519,-40.8209 -13.08814,-29.66175 -26.1417881,1.8977 -49.331731,-34.78107 -75.00027,-24.84608 4.950547,13.5796 23.605878,19.42242 5.347791,22.13046 -1.035987,17.19477 55.808047,22.80229 37.761079,25.09093 -12.644772,0.89593 23.131944,7.63125 -1.10887,6.56054 16.230036,-1.49964 30.290284,4.59497 46.08841,0.7259 z m -184.97076,-5.54396 c 16.14298,-20.66928 -30.52202,-8.39514 -5.11513,3.88235 l 5.11513,-3.88235 0,0 z m -72.59978,-1.79185 c 13.65782,-5.86056 20.79242,-21.18138 -0.52301,-16.64014 20.12457,1.56624 -28.4279,-27.20244 -5.5827,-14.57839 13.43687,15.51149 58.85884,-8.82397 44.05435,-16.53605 -28.18364,-10.09581 -61.3309,-46.1758 -23.70353,-68.74944 12.05866,-19.33955 8.58815,-44.38972 10.15995,-62.23318 -24.339,-8.68189 -35.25803,33.08154 -33.77379,52.23328 -0.56982,25.95768 -31.73928,74.72765 6.36155,81.41272 -15.43588,6.51156 -38.39792,-3.20054 -38.04218,24.4538 -4.97017,11.7527 11.61723,27.6804 11.39014,12.98987 12.53565,-9.49764 13.42817,19.30096 29.65922,7.64753 z m -45.91014,-2.92939 c 3.81599,-35.57144 -16.46849,8.42944 0,0 z M 142.24319,897.7644 c 16.33198,-15.63714 -17.36554,-22.27678 -10.82519,-41.54422 -21.9188,-20.50181 -31.672284,37.58558 1.55282,43.87397 2.68064,3.42825 8.53694,1.88149 9.27237,-2.32975 z m 131.63421,-8.28936 c 30.32191,-10.45128 36.22034,-46.37073 30.53677,-73.96064 10.0506,-31.93849 -32.08834,-37.55803 -46.04647,-51.14222 -8.68853,24.75536 12.45379,36.6417 11.19237,57.01493 7.02067,20.46995 -7.01915,37.98502 -13.30149,61.30037 2.4865,12.69346 7.57348,12.96462 17.61882,6.78756 z m -371.38247,1.53018 c -21.70151,-0.74238 17.338367,2.40432 0,0 z m 15.5399,-2.60223 c 16.70012,-1.95402 33.980424,1.11022 23.008627,-17.60307 -7.892377,6.01467 -58.196817,23.03823 -23.008627,17.60307 l 0,0 z m 278.44304,-1.02769 c 11.03413,-24.30457 33.70883,-46.24556 36.13891,-69.81941 2.14143,-18.65831 -7.72881,-68.75259 -37.09599,-52.74409 -24.24987,5.90274 -59.15023,11.87074 -72.01055,32.42048 15.42459,7.99998 16.70998,34.68404 38.89815,45.2725 21.10674,12.57407 -12.69667,32.25778 15.27515,43.32999 4.14891,5.36867 13.75491,5.61665 18.79433,1.54053 z M 144.10192,786.43261 c 1.48752,-9.09305 20.40974,6.73307 0,0 z m -69.43797,96.68151 c 19.649267,13.76946 45.52893,-40.36873 22.33098,-29.39473 -13.312371,7.4657 16.53602,-11.22935 -6.63217,-2.29327 -9.798823,6.81987 34.51567,-32.25892 10.96583,-14.86896 -20.230525,6.17575 -65.666918,23.27147 -35.928537,47.38383 l 4.14978,0.0392 5.114117,-0.8661 0,0 z m -40.09476,-8.10378 c 23.695495,-12.37517 -17.890404,-0.54506 0,0 z m -202.07426,-8.60293 c -6.18625,-2.2642 -3.21764,3.352 0,0 z m 318.92736,-4.14301 c -19.03056,-26.66265 4.85484,23.70483 0,0 z m -297.92736,-19.80623 c -15.32304,-18.51434 -9.70927,4.42556 0,0 z m 503.06251,-1.69377 c 10.33951,-25.49071 -39.57778,-15.62227 -12.06251,0.24853 4.14316,0.18818 9.06006,6.61621 12.06251,-0.24853 z m -380.41873,-0.54411 c -8.456599,0.82888 2.807639,1.76617 0,0 z M 91.49493,840.0144 c -1.209361,-3.65615 -2.466294,3.56228 0,0 z m -109.75,-0.66228 c -5.506826,-1.62308 -0.999422,1.75023 0,0 z m -62.5,-5.32676 c 24.064988,-13.80829 -4.312412,-27.51477 -15.935079,-37.33752 -7.079351,-3.92634 -47.684701,-5.94176 -27.495141,8.28862 13.51805,9.20656 24.533251,37.63105 43.43022,29.0489 z m -127.76059,-7.96682 c 0.26956,-34.10254 -17.91788,11.177 0,0 l 0,0 z M 0.49493,818.96643 c -3.0810893,-7.73879 -6.55378,7.85133 0,0 z m -175.13427,-22.00371 c 16.01266,-14.81341 35.14295,-44.6868 16.08458,-66.82694 -8.06396,9.86458 -12.42967,42.55027 -31.99659,53.56012 -6.86592,11.53814 5.44455,23.32403 15.91201,13.26682 z M 4.88005,795.9261 c 9.947656,-9.04434 10.656216,-64.20056 0.062501,-25.3102 1.2008085,6.33013 -15.9674524,28.67432 -0.062501,25.3102 z m -139.16924,-5.1617 c 9.98613,-32.64154 -36.2204,-11.02459 -11.05769,4.69643 4.93415,-0.8275 13.38992,4.47496 11.05769,-4.69643 z m 194.22112,0.0221 c 23.745663,-4.97008 51.98604,-37.80807 35.334595,-55.10531 -20.394246,-4.36598 -41.48226,15.42909 -36.864895,26.08197 -16.269509,3.19387 -15.335912,40.37843 1.5303,29.02334 z m -125.43796,-1.0221 c 12.295827,-26.78613 37.777223,-34.43267 38.973418,-66.15489 1.531608,-25.92968 15.877463,-41.74015 37.586984,-50.04224 6.868032,-23.74885 33.730573,-39.27364 42.440558,-61.39962 -6.665711,-17.01282 -22.178664,-5.79783 -24.5,-17.13863 -7.33538,-9.29885 -29.87805575,-5.6154 -10.5,2.62164 -18.59409882,-15.12617 -44.460438,-18.21138 -47.00691,12.28696 -15.550722,31.34069 -47.188089,45.63659 -79.35113,53.23821 -26.95064,0.094 -32.8596,22.92382 -16.08629,41.53832 8.40636,11.15963 -5.20437,41.28563 12.55823,21.10366 7.62762,-2.62776 27.749231,2.58982 4.5411,7.10074 -25.036,0.1948 -34.80783,41.27343 -3.155,27.61498 23.883518,-5.77979 -16.68805,5.06841 5.05873,10.22189 12.247325,6.23009 23.942247,26.8428 39.44031,19.00898 z m -0.42224,-89.25 c -1.9282,-15.25658 24.205204,-39.27139 9.43525,-10.69375 1.323096,2.2247 -10.582179,16.50084 -9.43525,10.69375 z M 25.76396,599.32141 c 6.59095,-1.4799 1.279737,1.65833 0,0 z m 96.94541,185.69299 c 11.00909,1.18188 4.71111,-20.29184 15.78556,-11.06574 9.72595,-20.48374 9.44217,-36.52162 27.38152,-52.18327 2.57503,-0.36818 -47.93987,15.79114 -41.98703,33.84194 -2.22385,0.93528 -5.335,45.42052 -1.18005,29.40707 z m 40.53658,-15.07839 c 21.1079,-9.77453 42.86205,-17.03327 61.83275,-14.29659 21.43357,-10.99136 16.63278,-41.32741 -2.28562,-36.62502 11.38951,-9.75069 -32.81846,-2.01185 -38.05522,6.53721 -25.79071,-2.23709 -31.02745,46.11115 -29.64176,46.88739 l 4.97387,-1.2186 3.17598,-1.28439 0,0 z m 124.94679,-3.17161 c 4.79995,-18.50658 -19.10789,-28.69328 -8.59641,-5.08107 1.81393,3.11135 12.15988,22.63076 8.59641,5.08107 z m -473.69781,1.8922 c -2.98534,1.49078 -2.85594,7.35003 0,0 z m 3.02411,-10.1273 c 4.55358,24.47447 11.39344,-36.22558 -2.20626,-19.49839 -1.28297,2.59783 -2.72514,37.37089 2.20626,19.49839 z m 45.8195,-16.41412 c -2.04713,-18.38648 11.62625,5.3677 11.65106,-18.36268 6.74181,-29.84468 -29.71139,-53.65809 -41.34476,-18.29244 9.65509,12.41831 19.79845,31.78591 27.19401,42.06076 l 2.49965,-5.40564 4e-5,0 z m 420.39649,-2.72494 c 2.51946,-9.10832 -27.94749,-5.39506 -3.44044,1.61478 l 3.44044,-1.61478 0,0 z M 15.46046,735.12777 c 15.504508,-12.68772 -8.9501157,-16.35103 -11.0898,0.88663 3.7091427,-0.11445 7.434409,3.8e-4 11.0898,-0.88663 z m 295.93886,-6.68637 c 10.57875,-16.05663 -12.84916,-36.65334 -22.96388,-47.06804 -32.53186,-17.09568 -14.12101,16.65747 -12.46109,23.82654 -6.79618,6.05031 26.06508,34.27326 35.42497,23.2415 z m -127.49856,-5.92578 c 12.27257,-19.27098 52.12864,-5.00663 53.0778,-20.74423 4.86266,-38.36082 -41.14017,-17.57301 -56.37998,-4.2786 0.85805,5.96422 -13.15134,36.31389 3.30218,25.02283 z m -362.48191,-6.92248 c 4.41351,-21.09626 -9.26274,23.96907 0,0 z m 219.32608,6.75898 c -5.506826,-1.62308 -0.999422,1.75023 0,0 z m 22.11435,-9.87357 c 25.232012,-5.45844 42.82785,-5.11733 64.92985,-9.93457 -16.60538,-26.46749 28.30146,-1.20277 18.66619,-29.36499 1.3359,-22.77244 -37.60152,-35.38495 -26.11567,-6.2192 9.48105,27.98261 -20.811502,-20.28402 -36.352815,-3.92357 -27.57407,4.17713 -7.963113,17.19166 5.330755,24.48885 -19.598587,-13.6269 -57.936293,27.17551 -42.124027,31.2976 5.116636,-2.36335 10.300113,-4.59781 15.665717,-6.34412 z m -234.89545,-19.72047 c 14.73864,-22.81792 -13.83085,7.97399 0,0 z m 420.74592,-1.99368 c 6.34116,-15.92596 4.15297,-61.59245 -13.0982,-27.28856 -1.5862,9.21528 -29.65256,14.51133 -4.94764,13.12758 8.91454,-3.43861 14.89168,20.91482 18.04584,14.16098 z m -402.64482,-6.07504 c 18.20024,-9.98795 15.23706,-28.43058 33.85997,-25.78827 13.99426,3.11595 52.894777,-19.64817 17.59358,-14.18936 15.454586,-3.5559 44.170973,-15.76687 12.297089,-15.83704 -11.987439,-6.70963 -35.379649,-10.32722 -36.085269,5.40116 -35.82595,-17.46051 -17.74609,36.90131 -32.66537,53.6596 l 5,-3.24609 0,0 z m 83.71289,-38.42969 c 16.494466,-18.19463 -32.20311,9.69598 0,0 z m 187.37213,-8.49527 c 20.10252,0.12821 34.39786,-24.73293 6.73668,-29.88726 -11.11776,-9.03862 -57.677651,-14.64078 -52.63781,-8.86274 5.483756,1.184 -20.247779,12.98809 2.522815,21.91403 14.531636,2.7977 1.548315,11.12494 22.66205,15.93618 6.484085,1.48822 15.597545,9.8514 20.716265,0.89979 z m -170.52263,-4.34031 c 23.955768,-14.21221 -34.11337,0.26062 -4.485248,1.29584 l 4.485248,-1.29584 0,0 z m 282.95567,-7.77574 c 4.38967,-19.36708 -36.95467,-29.19558 -11.08806,-7.86868 0.73062,6.52806 18.94993,27.03861 11.08806,7.86868 z m -301.08806,-0.5804 c 16.798041,-19.44352 32.84803,13.07319 41.243066,-18.54356 2.006057,-26.82504 -47.120054,10.41614 -64.682906,11.72534 -16.46244,7.75638 20.705904,9.82467 23.43984,6.81822 z m 239,0.94899 c -19.25069,-11.05194 -30.09251,-70.31523 -53,-40.36007 -18.509233,29.877 33.55223,-13.12682 24.88226,18.05821 4.61003,11.35478 19.65727,18.37049 28.11774,22.30186 z m -232.7075,-19.47832 c 23.460439,-0.33368 9.295434,-34.40598 31.965155,-14.05244 21.131915,3.10366 -30.446562,-22.91487 -35.69121,-7.46765 -1.500078,5.87313 -12.075238,29.44322 3.726055,21.52009 z m 175.7075,-21.6175 c -8.40374,-3.64639 -43.534982,3.40353 -17.3565,-5.58293 -20.984347,4.60662 -69.678222,-18.04061 -73.061277,3.16079 18.748177,11.31772 46.988624,7.18837 52.988667,11.64603 14.589232,-2.41882 29.92892,9.49806 37.42911,-9.22389 z m -214,27.09328 c 7.328405,-4.19286 -2.47946,3.93854 0,0 z m 12,-5 c 7.328405,-4.19286 -2.479459,3.93854 0,0 z"
         id="path3317"
         inkscape:connector-curvature="0" />
      <path
         style="fill:#3030cf"
         d="m 70.49493,1194.4168 c -24.908298,-0.9982 -9.730195,-56.1896 -12.9975,-16.0623 17.859181,21.1388 65.91004,2.2671 75.9975,-10.2531 -19.82218,6.8771 -17.33504,-0.9383 -11.75,-15.1725 -28.023089,-16.5778 -54.723537,-2.7195 -80.237868,9.2534 5.517847,3.9624 -26.23837,25.1334 -39.4500033,20.9968 -20.8173447,-25.3078 -51.6796717,12.5044 -66.7971087,-0.094 -21.867663,-18.7258 -44.6668,-35.7347 -73.90007,-40.8053 -9.98106,-20.1478 -5.26165,-7.4312 7.49191,-1.997 15.99351,-1.8306 -19.23633,-25.6419 -13.34101,-23.1478 5.01735,25.1898 -17.76507,-35.1961 -14.5915,-28.9425 32.95984,-9.3783 -34.09445,14.1813 -33.65783,-10.245 -13.716,-26.6514 -22.44535,-55.4389 -38.27182,-81.4327 -12.59058,-4.05631 -31.36086,-48.77873 -24.53359,-37.5 11.2225,35.26177 24.40293,-10.72608 15.25815,-26.62161 14.29188,14.07395 0.91476,39.19759 16.00874,57.12832 11.55392,11.45039 24.42484,35.11689 31.63734,41.46169 -2.29965,13.5299 2.71777,24.5186 -7.52421,16.2193 1.60664,26.1627 18.36312,44.1128 45.31188,33.2498 16.16535,6.4732 51.72903,4.3634 44.09707,-15.8022 -10.40231,-7.9286 -39.0272,-35.118 -30.79521,-35.9495 13.57719,10.2139 21.06142,17.7143 38.77177,22.0959 18.231281,20.5255 58.773108,7.7746 80.44395,32.443 20.0034634,22.887 41.784245,-1.0993 63.49027,15.4187 19.639464,3.8723 22.588902,-24.7923 29.896493,-37.8359 3.318874,-6.1045 -9.866332,-21.3771 -13.057273,-8.3369 -11.542261,-20.8071 5.504091,-28.4473 20.47438,-38.9032 2.353194,-36.19056 -38.896209,-38.79043 -57.23094,-63.92224 -1.781285,-14.47307 -12.2949265,-26.54788 -25.571565,-25.01552 20.58285,2.47021 44.73564,-1.78854 39.98193,25.57789 1.713335,11.6692 26.621141,31.60898 28.656586,23.3362 -31.07415,-22.30342 0.393033,-59.97172 -10.144446,-83.71992 -22.458597,0.0512 -48.655197,2.652 -61.3277513,-17.9098 -25.5989947,-14.47953 -2.9237687,1.91715 -6.3381937,0.72373 -21.258457,-21.31362 -45.919012,-2.73073 -67.39374,8.33184 -32.43068,27.09657 -55.34335,-22.28086 -88.8182,-15.55823 -22.35263,2.67316 -55.3379,-33.64418 -50.30755,-43.41138 1.61437,15.12577 39.55316,41.68507 43.29517,31.00493 -18.03669,-14.74838 -18.59008,-33.39499 -30.84023,-48.96188 9.53963,-13.4559 6.92292,-7.14682 16.54244,-22.61795 -19.69098,32.19863 31.77716,25.14413 34.58037,8.22269 11.01609,19.12284 34.40278,12.43969 26.15165,30.46921 18.01719,7.89453 45.135999,35.71441 62.480671,9.26307 16.697699,-7.70262 -1.309573,-22.91926 -4.414001,-32.10695 15.008926,-4.43923 47.327081,-20.8579 29.23355,-29.02108 30.003619,-15.27862 10.957301,-60.08701 38.9583178,-78.24209 29.0947792,-12.70609 32.3886652,-53.16704 61.8069712,-69.01233 13.199749,10.28355 49.514351,16.64307 13.98724,19.03087 31.325731,-2.56518 -44.781601,25.39865 -4.978231,13.85529 3.760239,-0.39677 -24.615169,14.21181 -3.312074,19.69725 -28.106694,3.96516 -50.091756,70.07384 -7.743948,41.85319 23.560267,-17.0889 75.797344,12.25667 82.035584,-18.33983 37.06197,-13.07205 -13.86881,-50.8936 7.42884,-70.82328 -3.75781,-15.83677 -11.30605,-20.90125 3.88309,-5.03164 23.74637,0.89079 7.10418,46.24169 13.20325,41.26056 3.4113,-29.32982 15.50206,-34.68086 41.247,-26.49227 27.715,-6.23625 -21.38072,-63.26811 -1.40012,-44.57155 5.84024,15.33833 25.98792,54.82172 35.15986,48.13427 -2.05423,-16.09296 -14.67222,-39.50669 -25.28599,-42.01342 19.23914,7.70006 49.30504,51.78158 16.68235,49.66935 -11.94098,9.96243 -24.42379,29.79218 -32.42369,37.17723 -0.83741,-18.26869 2.98544,-34.73544 -13.80032,-11.40365 -3.63027,27.97296 -17.06349,56.91458 -48.40989,64.6379 -27.65365,20.48007 -17.86205,69.87111 5.1623,92.07989 17.16568,2.04002 31.33983,45.65113 14.28925,16.61919 -15.51467,-20.58658 -7.96525,22.53704 -20.2323,-4.69273 -6.82157,-8.36726 -12.10093,-4.0772 -15.88155,-10.60778 -6.39749,28.82541 -21.593396,65.70509 19.50606,76.49747 22.87303,2.14769 23.02122,-25.19027 14.10779,-35.13501 18.07358,11.25269 49.24741,42.53457 59.44722,2.60107 11.12279,-26.59618 45.56385,-51.06593 23.09664,-81.36678 -27.40461,-27.99353 24.11307,-46.90076 7.4398,-71.81896 -12.65394,-8.93542 19.36771,3.54601 1.62545,-14.00376 5.3243,-14.0909 -21.07563,-45.14236 1.28474,-20.21598 3.48791,21.94549 15.1197,-9.90918 19.60615,18.02609 15.95243,12.09167 23.68452,18.34711 -1.7843,15.18349 -8.52251,7.85019 32.01505,26.56515 7.81434,17.7321 -16.57153,2.51626 3.16652,42.32736 21.396,43.17105 -23.3739,1.18334 -40.43913,-46.54919 -47.8321,-20.76479 -6.94696,25.21156 5.44525,34.95808 13.69384,56.39334 6.79329,17.02351 -9.28247,53.51428 -14.63073,58.04569 -2.84959,-42.00437 -33.57488,-2.55543 -37.0619,18.07354 -6.58769,25.8588 37.07595,75.58859 50.08946,30.02053 -3.90284,-16.66352 28.31285,-42.74048 15.43065,-13.46177 -7.44495,14.37741 -8.09513,35.49425 6.67902,34.98621 25.30838,-3.37171 -19.89475,17.33674 -18.38502,31.17561 -24.60321,-6.91634 3.71667,48.57463 -15.08446,20.27437 -19.81093,-5.91909 -38.13407,-36.31293 -59.00239,-20.67938 -2.70726,-12.89427 -32.69464,-19.24209 -16.46942,-26.7706 -18.52495,-9.52275 -44.75468,-27.45603 -60.35296,-18.07561 8.83506,25.28644 -3.14284,51.93255 21.77683,70.59515 12.04333,6.1922 6.41905,59.869 5.53339,30.049 -0.92258,6.8469 -4.71253,37.1233 -5.45725,18.6817 -4.00304,19.4943 7.27108,32.9683 -8.74186,47.7523 21.66968,29.8834 27.75482,-16.6687 9.55013,-28.7506 -4.81851,-23.166 6.13334,16.0572 21.06576,3.8955 29.24206,-0.09 56.46697,41.1786 82.51044,19.3868 24.93893,-15.5698 42.02492,-38.047 22.09863,-63.839 21.28457,11.8859 40.54168,-25.4244 61.50617,-35.84459 32.87917,-27.27666 -37.11618,-43.08578 -18.17309,-74.22401 -7.08392,-27.41169 7.63562,-50.67357 11.91292,-77.06948 -2.48139,-17.35214 0.56907,-39.76708 -8.62051,-54.76482 -15.3433,1.66173 -14.19163,-38.94408 -4.0172,-8.37389 11.59307,11.35601 19.28755,13.03708 3.8446,-0.86499 -5.71936,-16.19217 -36.39118,-42.67766 -1.80794,-41.25059 39.4779,-3.8072 4.07814,-44.54226 -8.17632,-60.621 16.60304,14.83909 52.45603,59.38462 13.27927,68.0366 -28.67622,2.53207 -9.8648,-3.08847 1.94123,6.25365 -14.61649,0.10138 3.69836,31.81597 6.5172,20.33826 11.91768,33.05254 -14.54161,-37.1985 4.19778,-5.46716 16.09463,0.19568 27.88874,55.00113 22.57501,15.84503 -3.84547,-27.49916 4.22154,18.72017 9.6893,28.58547 17.78136,23.95788 -35.97775,-28.31858 -11.5514,2.36086 3.99233,6.75983 33.80693,20.30215 22.54691,8.14399 16.85455,20.10065 21.54296,47.0745 15.38988,73.03721 8.95603,19.55812 16.18548,46.51719 -11.45991,55.13436 -27.98784,15.95478 -18.18583,49.27668 -27.23008,73.7385 -22.62203,23.031 -41.77398,50.234 -54.89995,79.9601 -17.86097,16.7313 -30.79409,36.3804 -44.92959,55.7687 -18.90249,8.7762 -38.03401,6.3453 -58.1836,3.1662 -15.98175,12.4429 -37.95092,14.2355 -41.68675,18.5927 -17.54452,18.5801 -45.640908,13.3227 -68.50003,15.2256 z m -120.2986,-13.6137 c 12.071397,-6.0107 31.276617,-21.9076 6.7986,-6.2955 -5.354028,5.5262 -25.090304,13.4759 -6.7986,6.2955 l 0,0 z m -2.2014,-9.2971 c 14.273217,-8.5519 -18.488808,-0.9367 -10.115638,-18.769 -15.29598,-26.5484 -17.276597,-1.7433 -19.692802,-5.2226 -19.65297,-28.0099 -18.26072,7.1134 0.71012,16.3781 6.194168,12.0541 17.998167,17.3578 29.09832,7.6135 z m 66.5,-9.8339 c 24.21761,-9.2191 -41.034617,10.2142 0,0 z m 148.80555,-2.0456 c 18.38164,-9.3567 7.75432,-15.0196 -6.87323,-16.4942 13.21525,-1.1233 34.23156,0.4206 14.70598,-17.0535 -12.64622,-10.5203 -33.82362,-15.8938 -27.11679,7.0614 -0.50442,18.4284 -29.21661,17.0325 -5.07948,20.427 5.57025,7.4255 16.46701,18.2064 24.36352,6.0593 z m -162.69726,1.0222 c 30.903653,-12.4581 -30.763785,8.6635 0,0 z m 28.64171,-0.3236 c -7.745453,-1.5561 -1.487087,1.6084 0,0 z m 151.66661,-2.8523 c 9.28425,-12.1882 -15.20948,11.7864 0,0 z m 12.50006,2.1901 c -6.59985,-3.8523 -12.08045,-0.4484 0,0 z m 16.8125,-2.2527 c -3.68144,-1.1343 -1.83717,1.7415 0,0 z m -214.43933,-4.5401 c 8.1203583,-7.9932 54.655595,-25.6872 25.99212,-11.2404 17.86748,-5.6276 20.445684,-10.2619 21.21804,-8.0934 29.485838,-3.9031 -30.521645,-11.2219 -36.886824,6.4593 -7.9690145,4.7683 5.90241,-24.2903 -9.024966,-16.4766 -6.7542654,-11.4693 -50.454685,22.4321 -24.86841,-9.4344 10.844668,-9.8144 -10.694361,0.4684 -2.4822,-11.8211 -23.01633,0.889 -12.564159,-2.6963 -5.781491,-13.8458 -16.337378,-20.4735 -48.827253,2.4485 -71.828079,-4.7799 -17.82223,3.4326 21.817131,21.4981 24.774585,32.2867 20.393966,-1.8049 21.209203,33.5413 43.196889,19.8539 11.021033,1.3413 20.916123,26.5563 35.690336,17.0917 z m -26.78984,-1.8557 c -5.296262,-3.6533 1.120967,3.4464 0,0 z m 272.18659,-4.2429 c 17.33836,-25.0081 -18.56255,-3.8004 -4.99492,3.4195 l 1.28634,-0.6652 3.70858,-2.7543 0,0 z m -27.68659,0.1076 c 28.28514,-9.509 4.20977,-7.5044 -7.99846,-8.861 -11.87776,-10.8752 -43.40098,-46.5839 -49.47033,-32.4577 25.39912,7.3845 24.44186,56.4504 57.46879,41.3187 z m -260,0.1353 c -9.827458,-5.9711 -19.658353,-1.6098 0,0 z m 3.72917,0.3958 c -3.681442,-1.1343 -1.837168,1.7415 0,0 z m -57.63643,-5.214 c -7.62851,-13.0683 -31.3698,-24.5266 -9.93632,-5.3507 2.68398,1.0688 15.036541,14.4626 9.93632,5.3507 z m 202.65726,3.1289 c -7.745453,-1.5561 -1.48709,1.6084 0,0 z m 33.49014,-9.4429 c 5.46477,-12.472 -0.64127,-37.9067 -12.16049,-12.3101 -9.34736,10.5345 1.38609,30.2209 12.16049,12.3101 z m -47.9756,3.6945 c 4.121389,-4.6894 -29.602924,8.0584 0,0 l 0,0 z m -18.76454,0.4377 c -9.244248,-2.685 5.116128,3.4218 0,0 z m 13.78774,-8.1679 c 25.0722,-18.6985 36.85168,-56.5335 21.61377,-83.1934 -10.065937,-18.221 -11.800628,-15.0167 -1.78709,1.9148 -28.904498,-12.523 -1.98153,25.4376 -20.11442,33.4439 2.220382,15.5718 -35.196414,50.0693 -5.231535,50.1735 l 5.519275,-2.3385 0,-3e-4 z m 121.71226,-19.7969 c -4.5412,-6.7884 -4.136,2.8793 0,0 z m -345.80481,-8.23 c -21.35991,2.319 14.93311,7.3418 0,0 z m 414.25325,1.8019 c 7.41232,-12.8417 21.68368,-45.2 17.4462,-52.4204 -9.77566,16.1908 -16.43511,51.6475 -26.71678,55.4578 l 5.23513,-0.8158 4.03545,-2.2216 0,0 z m -370.44844,0.089 c -8.4833,-8.9394 -9.66738,-8.2889 0,0 z m 119.5,-2.7703 c 4.575582,-1.2003 -39.192,1.3408 -11.686342,1.3968 l 6.155342,-0.5238 5.531,-0.873 0,0 z m -165.85173,-10.5241 c -27.48662,-5.3401 10.48753,7.3355 2.52391,1.0849 l -1.66391,-0.7154 -0.86,-0.3698 0,3e-4 z m 315.35173,0.098 c -14.21472,-5.5665 5.54323,4.9934 0,0 z m 21.09221,-0.8889 c -24.09778,-9.9938 -2.14592,2.5165 0,0 z m 66.99757,-5.7789 c 1.77714,-6.3535 -8.17129,10.8475 0,0 z m -80.36061,1.5636 c -3.68146,-1.1343 -1.83714,1.7415 0,0 z m 73.9002,-8.2336 c -5.50024,-0.9433 -13.27506,12.7373 0,0 z m 19.46502,-9.3386 c 2.17365,-6.0809 -7.16938,9.1642 0,0 z m -476.01341,-25.5352 c -5.83413,-31.5161 -6.4805,-2.5973 0.62834,10.3356 l 0.0412,-3.2618 -0.6695,-7.0738 0,0 z m 486.30058,9.1597 c 0.083,-4.2094 -2.96727,4.9863 0,0 z m -150.85784,-26.799 c 3.58819,-24.5899 -50.508747,-38.95429 -50.629556,-48.32157 29.661536,32.69097 14.878173,-28.7198 -1.894164,-33.37364 5.764836,23.22278 -17.437433,-0.24335 -5.549072,20.46209 4.855053,23.32535 -14.900411,-42.55042 -6.280732,-0.41845 -3.531147,16.90872 34.989844,23.02732 16.333454,29.88852 10.019482,12.21525 15.002397,60.28405 31.85085,49.96805 5.73317,-5.7422 12.00529,-11.1333 16.16922,-18.205 z m 156.97628,3.5458 c 13.89123,-15.779 -18.64504,17.1277 0,0 z m 18.46499,-9.6768 c 12.3162,-14.3616 -31.29402,27.7636 -6.62644,5.3249 l 2.70731,-2.3867 3.91913,-2.9382 0,0 z m 28.11616,-6.9533 c 1.4743,-28.87872 -15.42909,22.1579 0,0 z m -15.04818,-1.0648 c 3.29681,-5.9378 -6.08013,7.8516 0,0 z m 6.10341,-15 c 4.67255,-7.95398 -18.35633,18.7666 0,0 z M 106.72826,981.09112 C 118.81993,957.59849 90.827346,937.15231 98.6883,924.5144 87.919512,900.00289 64.086468,909.13023 76.098526,930.78416 c 18.824319,13.21767 18.564128,40.86141 28.239254,56.08986 l 2.39048,-5.78293 0,3e-5 z M 344.84631,960.5144 c 9.19352,-18.33212 -18.43255,28.57698 0,0 z m -98.88555,5.18636 c 22.68503,-17.00714 -22.26783,-18.39662 -25.10535,-12.62784 -10.39827,-21.78262 -29.48876,-33.0413 -55.7757,-40.95508 -31.76522,-6.21783 8.44869,21.07173 13.84466,32.33919 25.05351,0.4741 44.34661,26.8432 67.03639,21.24373 z m 85.89338,-3.77135 c 12.72465,-9.04142 19.98865,-35.378 13.10635,-42.9136 4.81349,9.39696 -40.95194,53.92123 -13.10635,42.9136 z m -145.37452,0.27597 c -0.85301,-4.31679 -2.81853,7.54374 0,0 z M 57.0842,940.0144 c 0.911986,-14.86445 26.079527,-34.21881 3.807,-43.24895 12.858872,6.58105 -13.526318,61.29489 -3.807,43.24895 z m 296.09384,1.8125 c -1.71452,-1.71931 0.86336,5.59056 0,0 z M 73.3939,932.83873 c -4.742881,-13.5764 0.753818,17.74151 0,0 z m 307.11282,-5.07433 c 5.13675,-13.19999 -5.63211,-42.81853 -6.46358,-14.35457 -10.85358,7.59164 -8.4854,26.07283 6.46358,14.35457 z m -274.04692,-28.5 c -0.31766,-15.54744 -7.656987,-29.36996 -5.49839,-5.22731 0.39305,-0.0986 3.11864,8.32001 5.49839,5.22731 z M 86.49493,887.28887 c 15.46014,-0.95032 20.25894,-17.44503 25.24814,-29.77407 -3.76467,-8.39126 0.13668,-38.16069 -2.18209,-30.75028 -5.5097,8.90083 -29.686309,20.58365 -40.70844,19.28775 14.036477,-7.11045 24.184759,-44.61884 2.27363,-19.03787 -12.993205,-0.20993 -31.91545,47.49294 -13.14672,29.5 -13.471141,22.35039 6.022988,44.25234 28.51548,30.77447 z m -28,-33.65203 c 3.237659,-4.63196 3.521994,-0.78294 0,0 z m -39,30.2063 c -6.418304,-18.83717 -19.52270933,-3.57217 0,0 z m 29.56291,-0.99452 c 10.634274,-10.88282 -14.108471,11.21518 0,0 z m 260.85784,-1.83422 c 1.87836,-8.40332 -5.62099,13.95482 0,0 z m -414.67025,2.93713 c 24.299304,-20.69519 -33.82467,-4.84232 -4.91695,0.92211 l 4.91695,-0.9221 0,-10e-6 z m 143.98696,-4.90458 c 19.839894,-8.65254 2.732577,-39.38385 -13.02132,-21.51193 -18.3328568,0.18202 -26.99198642,-0.32535 -6.548342,11.07188 0.377186,11.48545 9.50634,15.03087 19.569662,10.44005 z m 331.70355,-8.95357 c 15.494,-15.67831 -8.23765,-32.99274 -3.08881,-8.09143 -2.43959,11.15577 -9.18127,30.09503 3.08881,8.09143 z M 343.35115,859.8827 c 30.689,-12.77807 16.84079,-41.96563 -11.01051,-44.42838 -19.74049,2.57678 -1.08852,32.36077 6.47066,33.27347 33.26218,-4.02427 -33.01837,37.01334 1.03887,14.24966 l 3.50098,-3.09475 0,0 z m -401.06393,3.78494 c 9.687021,-12.24419 -12.787784,8.61505 0,0 z m 373.20771,-1.90339 c -2.89399,-0.87708 -3.16347,8.85701 0,0 z m -451.32466,-1.40784 c 3.02849,-9.07975 -13.25856,1.18499 0,0 z m 61.57466,-0.004 c -5.506826,-1.62308 -0.999422,1.75023 0,0 z m 27.66667,-0.93171 c -6.620409,-1.69568 -7.446089,2.8787 0,0 z m -23.1875,-0.0102 c -3.681542,-1.13412 -1.837033,1.74158 0,0 z m -75.72917,-2.3961 c -16.79864,-3.42067 4.76305,2.90327 0,0 z m 103,-3.63619 c -7.863527,3.69718 -8.144138,7.66882 0,0 z m 5.13671,2.84843 c -6.195461,0.46536 0.365891,2.39429 0,0 z m 16.59246,-1.81641 c -3.681542,-1.13412 -1.837033,1.74158 0,0 z m -13.49349,-7.07718 c 10.277695,-7.87012 40.5359894,-12.69415 11.325146,-7.45264 -6.045339,-0.18028 -26.247915,18.86053 -11.325146,7.45264 z m -101.4338,1.78481 c 9.12581,-0.97421 -9.89358,-5.7325 -1.59916,-17.75931 -14.62977,-5.67708 -35.78854,-33.17855 -43.88594,-9.37105 3.83807,10.02452 32.58407,31.04147 45.4851,27.13036 z m 23.19812,-0.89259 c -6.88176,0.1239 -7.54532,4.16347 0,0 z M -3.7759,839.41023 c -3.6815424,-1.13412 -1.8370328,1.74158 0,0 z m 12.52083,-1.05811 c -5.5068257,-1.62308 -0.9994224,1.75023 0,0 z m 8.13817,-0.15678 c -6.286288,-1.71619 -8.0867575,2.81599 0,0 z M 4.49493,836.2152 c -8.6484598,-1.82912 -14.0198608,2.63454 0,0 z m 22.83127,-2.71228 c 23.387331,-26.96335 -10.070643,6.46876 0,0 z m 72.29629,-3.23852 c 3.37092,-4.3328 -7.808431,5.67875 0,0 z m -120.87756,-0.91228 c -5.506826,-1.62308 -0.999422,1.75023 0,0 z m 15.05845,-1.43529 c 31.74359,-1.74721 0.4343645,-25.23811 22.19155,-36.09246 0.505097,-20.36405 -2.226606,-42.98423 10.025671,-60.35613 C 28.359609,714.45479 7.8278698,695.22606 -0.64611156,719.16537 -11.964254,731.26923 -16.781166,748.37429 5.49497,742.61747 c -18.006837,15.13717 -15.0077974,46.68594 -27.46388,57.38642 21.46635653,0.92651 4.483638,8.15488 4.689619,19.77835 -27.361567,4.95489 11.7245157,4.41328 -0.975384,8.44774 -7.036879,1.8861 13.1578711,-0.21482 12.058055,-0.31315 z m 109.81911,-0.65243 c 3.08913,-4.50194 -5.581284,5.32311 0,0 z m 7.81962,-9.53518 c -7.57361,-2.69336 -15.659393,13.85494 -1.73362,2.02785 l 1.73362,-2.02785 z m 6.48989,4.67988 c 3.38352,-24.13671 -10.53018,-8.46665 -0.74533,1.98259 l 0.74533,-1.98262 0,3e-5 z m 10.34954,-0.58956 c -11.00515,-11.76258 -1.62369,9.00446 0,0 z M 27.49493,818.0144 c -1.209361,-3.65615 -2.466294,3.56228 0,0 z m -65.69738,-11.54667 c 24.18551,-21.20321 -38.145338,23.29465 0,0 z m 88.89901,-3.87408 c 29.274614,-12.37115 53.01162,-30.79627 64.73667,-60.68568 8.04457,-10.6474 -24.585816,16.94108 -10.76719,-5.57693 -3.16969,-33.28122 -61.89123,-5.60815 -60.73309,19.72803 -16.202055,12.97522 -10.332039,44.91332 -5.68802,50.54371 4.113555,-1.4492 8.278129,-2.74582 12.45163,-4.00913 z M 42.49493,746.0144 c -11.052463,-7.44746 6.266717,7.15546 0,0 z m 91.93285,-16.83271 c -10.88242,3.35045 -13.3392,11.13919 0,0 z m 9.79632,-1.77146 c -3.68154,-1.13412 -1.83703,1.74158 0,0 z m 7.27083,-1.39583 c 5.67667,-2.82555 -14.52304,2.85445 0,0 z m -0.23153,-9.54773 c 19.58398,-8.87723 7.41333,-21.07298 -6.75519,-6.95227 1.29278,2.30332 0.63289,13.34719 6.75519,6.95227 z M 43.63822,664.14609 c 12.42927,-10.32691 20.914817,-23.96451 4.89126,-6.73413 0.722055,-18.10797 -23.793809,15.80039 -4.89126,6.73413 z m 105.5497,-21.86266 c -1.65823,1.2799 1.47998,6.59088 0,0 z M 60.49493,1161.215 c 5.604082,-15.1243 7.216748,-7.342 0,0 z m 12.8125,-12.8837 c 5.590556,-0.8632 -1.719427,1.7146 0,0 z m -114.3125,-99.023 c -15.266936,-4.7497 -33.427015,0.8851 -11.37055,-14.0033 11.402719,-17.9415 26.351764,26.6795 11.37055,14.0033 z m 54.94413,-1.9722 c -16.4196142,-19.0287 36.499788,-16.7154 22.72537,-13.42 -7.298476,-3.6049 -24.693936,27.8398 -22.72537,13.42 z m 238.55587,-23.8217 c 0.86541,-5.2821 2.37355,5.247 0,0 z m -304.5,-18.5 c 7.52048,-7.27688 -5.183244,7.1238 0,0 z m -74.5,-1.1387 c 6.61462,-2.9447 6.60168,1.6923 0,0 z m 357.5,-0.8613 c 1.20936,-3.65615 2.46629,3.5623 0,0 z m -279.5,-0.4296 c 5.471601,-4.80534 5.236972,-0.8886 0,0 z m -19.1875,-35.25351 c 5.590535,-0.8633 -1.719373,1.71436 0,0 z m 8,-1 c 5.590535,-0.8633 -1.719373,1.71436 0,0 z m 7,-1 c 5.590535,-0.8633 -1.719373,1.71436 0,0 z m 18.1875,-11.08584 c 8.533174,-9.0108 14.620923,-8.26366 1.656258,-0.45906 l -1.656258,0.45906 z m -229.20497,-23.85081 c -9.54471,-13.97865 -12.96216,-35.25075 -1.93833,-8.59669 6.82078,7.64943 12.79386,29.40579 1.93833,8.59669 z m 78.23715,1.61976 c 2.8775,-10.83394 22.15203,-28.6206 22.29804,-11.23419 -3.96672,-3.1915 -28.50813,18.84946 -22.29804,11.23419 z m 54.71782,1.19689 c -6.85787,-14.83617 -6.04507,-32.23718 -13.20755,-54.69689 -18.15891,-28.81065 39.65357,24.53622 30.35333,16.46041 -18.81017,-13.03082 -27.19683,-6.34883 -15.78274,14.03959 14.88614,2.91882 -0.1254,16.32705 -1.36304,24.19689 z m -107.4627,-6.38959 c -3.45842,-23.99977 10.7372,-0.92026 0,0 z m 92.7127,0.27449 c -3.73903,-11.53043 13.3379,-1.66312 0,0 z m -65.5,-15.8634 c 10.66298,-7.92203 38.61633,-40.65456 16.60242,-14.37276 0.88264,5.77103 -35.11034,26.75044 -16.60242,14.37276 z m 16.5,-15.21839 c 2.45201,-7.09778 -4.75454,7.17619 0,0 z m 139.52311,1.30084 c -13.123894,-12.0958 17.327047,12.09374 0,0 z m -90.44416,-3.88417 c 0.64328,-3.85396 1.01442,4.55158 0,0 z m -58.07895,-1.41667 c -5.35043,-3.54883 10.017,2.10956 0,0 z m 7,-1.44931 c 7.64975,-11.77153 10.94827,-2.3287 0,0 z m -52,-21.47509 c 3.82346,-4.65631 4.15017,1.68572 0,0 z m 7.52975,-10.5756 c 3.57905,-11.86052 3.97415,0.0636 0,0 z m 1.62814,-8.5 c 0.87512,-4.5074 0.87512,4.5074 0,0 z m -1.53289,-12.125 c -2.11413,-19.95305 3.93577,11.8759 0,0 z M 133.08248,818.259 c -13.23754,-11.34923 3.76192,-10.15012 0.69452,1.47464 l -0.69452,-1.47464 0,0 z m -365.95832,-8.7446 c 0.78427,-9.1755 9.18982,-16.10166 0,0 z m -0.78272,-13.59618 c 0.38412,-21.55082 2.09706,18.09786 0,0 z m 3.15349,-6.02626 c -6.1618,-7.70276 3.01348,-30.06937 0.91073,-2.78256 0.22241,1.96178 -0.44352,15.51395 -0.91073,2.78256 z m 36.35994,-9.62756 c 7.42191,-12.83304 4.39415,-55.83434 6.04251,-19.15199 4.06123,5.53594 -10.87859,31.24811 -6.04251,19.15199 z m 97.17577,1.80778 c -9.42513,-2.62855 -39.02833,0.56067 -26.47349,-12.93246 8.51385,0.62112 25.038625,10.03556 26.47349,12.93246 z m 230.96429,-1.29903 c 13.30955,-7.82028 -3.50621,4.4227 0,0 z m -320,-4.75875 c 15.02429,-14.34619 -12.67505,14.19004 0,0 z m 31.56777,1.5 c 3.66262,-8.40295 6.28652,-4.45809 0,0 l 0,0 z m -23.06777,-9 c 9.41089,-9.02636 -7.06119,8.89018 0,0 z m 33.70678,-2 c 3.70372,-11.83343 27.25793,-41.6997 9.96132,-15.64198 2.99344,5.66814 -19.30998,27.06947 -9.96132,15.64198 z m 296.29322,0.65893 c -4.31474,-18.51747 23.90508,-53.06393 22.29898,-49.35134 -11.65357,14.95343 -18.68421,33.40206 -22.29898,49.35134 z m -323.61842,-9.15893 c 7.37986,-12.71664 -1.68924,-47.94492 -4.42484,-34.75 7.716,-22.15242 4.37965,-31.08239 13.84782,-29.17464 -15.41677,16.41933 7.06498,44.86904 -9.42298,63.92464 z m -15.53805,-19.64499 c -5.93533,-16.08151 16.6241,-8.99308 -0.39483,1.38163 l 0.39483,-1.38163 0,0 z m -4.84353,-6.35501 c -2.86406,-3.61661 5.55843,3.27538 0,0 z m 4.56429,-8.29313 c 3.50436,-4.56352 -1.26619,4.16137 0,0 z m 8.5212,-17.54713 c -4.91106,-12.18952 13.42514,2.99733 0,0 z m -2.07018,-7.85072 c 0.90228,-6.47675 3.88384,-0.0712 0,0 z m 14.48469,-7.30902 c 2.46629,-3.56228 1.20936,3.65615 0,0 z m 7.5,0.67146 c 17.23785,-12.226 21.09826,-9.2173 0,0 z m 23.25316,-19.38127 c 32.6704,-28.24619 -10.97495,15.08805 0,0 z m -20.26847,-2.34019 c -7.7986,-16.42283 12.8105,-56.8182 2.30141,-19.14348 0.14097,0.77944 -0.67568,32.29715 -2.30141,19.14348 z m 428.42706,1.95249 c -11.7703,-14.83127 -22.01183,8.828 -16.2153,-15.5552 -14.21696,-24.33689 14.26354,13.73299 22.68056,10.56513 6.83586,2.39024 -9.97088,3.59591 -6.46526,4.99007 z m -394.59925,-6.5856 c 5.59053,-0.8633 -1.71937,1.71436 0,0 z m 5.94025,-2.7623 c 22.211162,-9.37038 -7.40482,7.81829 0,10e-6 l 0,-10e-6 z m 24.74725,-7.50789 c 11.216927,-3.12627 1.878253,1.90306 0,0 z m 8,-1.59185 c 25.996458,-10.01531 15.53037,-0.98152 0,0 z m 183.5,-3.99181 c -20.666258,-4.42153 26.79868,1.36925 0,0 z m -166,-1.8406 c 3.237659,-4.63196 3.521994,-0.78294 0,0 z m 7.22619,-7.20116 c 7.073794,-5.01278 -4.423911,4.77031 0,0 z m 5,-4 c 7.073794,-5.01278 -4.423911,4.77031 0,0 z m -84.41369,-9.10439 c 5.59054,-0.86323 -1.7194,1.7146 0,0 z M -33.94782,615.7644 c 6.262949,-17.40943 1.130084,5.29123 0,0 z m 3.47338,-8.25 c 0.814653,-5.58593 3.504292,-1.35954 0,0 z m 154.4515,-2.2073 c -21.68472,-6.13545 6.62751,-11.05462 4.21862,2.7073 l -4.21862,-2.7073 0,0 z m -74.98213,-3.93434 c -12.810967,-2.43688 -25.532699,-14.90697 -6.71194,-3.71959 4.742486,1.32177 21.987273,5.4157 6.71194,3.71959 z m -14.5,-9.4194 c -37.9187258,-15.20611 49.98946,12.05911 5.098524,1.61538 l -5.098524,-1.61538 z m -63,2.06104 c -0.253752,-3.88771 7.277349,2.85613 0,0 z m 4,-2.37756 c 3.237659,-4.63196 3.521994,-0.78294 0,0 z m 27.5,-6.17378 c -10.5637743,-4.46125 29.427214,4.69711 0,0 z m 155.5,-0.44866 c 13.68757,-3.95467 17.03099,3.00176 0,0 z m -15.97621,-2.94258 c -16.52568,-16.59132 19.08167,6.08144 0,0 z m -31.52379,-3.05742 c 5.77573,-4.06005 1.55729,3.16634 0,0 z m -23.6875,-2.68311 c 5.590543,-0.86323 -1.719396,1.7146 0,0 z"
         id="path3315"
         inkscape:connector-curvature="0" />
      <path
         style="fill:#0f0fa6"
         d="m 69.92557,1193.9732 c -11.840012,-4.6917 -17.760594,-15.7558 -2.89641,-4.0613 32.560012,7.3179 56.51387,-14.5787 85.82894,-21.8838 22.04866,1.3015 25.15456,-38.091 44.26326,-15.7169 22.08794,-9.0338 48.94763,14.5496 53.36347,-20.7519 19.88521,-23.9199 -36.42589,9.6927 -6.77316,-9.8293 34.06158,-16.5864 -19.33997,-0.3308 -28.07221,8.7217 -17.57025,2.2426 17.39551,-6.3398 -9.04628,-9.9514 -21.78494,-5.3719 -32.39039,-32.8696 -59.29125,-28.1862 0.97265,23.7832 -2.73783,72.9242 -38.63987,54.8327 -30.911683,-16.6015 -48.759985,17.4613 -77.69062,13.1571 -17.85076,-6.0028 -34.1964965,8.3541 -52.379966,5.8388 -21.934875,2.7273 -48.48771,33.6718 -64.965722,-0.8279 -9.631458,-17.8706 -52.772542,-16.1296 -53.008052,-25.6754 25.68416,11.4999 21.71355,-13.3148 2.38063,-20.6305 -31.99888,-23.6488 21.62568,4.4849 25.16041,20.0271 23.252616,16.8592 44.855182,61.1129 74.897315,26.3059 21.38827,-12.4882 -27.471877,0.091 -21.076037,-16.9045 -6.487867,-13.3801 -34.947118,-28.0081 -26.816638,-13.996 -15.66334,-14.7512 -21.11771,-12.7786 -15.04917,0.073 -7.68269,-19.5184 -43.68219,-17.6189 -30.34512,-32.3797 -14.15593,-10.1595 19.11043,7.1079 0.44335,-6.8437 -11.45787,-20.2707 -59.76432,1.0627 -56.96751,-11.6468 28.21534,2.1361 63.05797,-5.2654 86.37054,17.5197 24.162807,23.9072 -24.77095,-19.2702 0.949976,3.6894 21.245134,18.6874 41.929129,37.3526 69.582378,42.9859 14.733679,28.4154 57.077568,-15.739 53.622186,-7.5489 -8.312909,10.423 -41.081569,26.1298 -37.91076,21.141 12.4304174,6.1357 45.093332,-10.3012 25.375949,-8.5654 19.205452,-25.2018 50.60856,-10.998 75.562871,-11.1909 20.77165,-15.2064 -23.890999,8.8566 -30.880408,-6.123 12.61128,5.7514 41.3533,-3.9441 50.303838,-25.0385 14.02776,-19.5695 -2.89912,-62.7695 18.9931,-68.7936 -7.24325,20.926 2.23098,37.6626 -10.02113,56.1037 20.8849,14.621 -24.911251,44.3106 10.06754,49.2539 26.26041,-5.6635 13.67712,-55.9943 20.88269,-59.8279 21.62465,3.9083 -31.71455,-21.6154 -8.6023,-11.3164 29.63314,0.7688 56.55745,15.5793 82.07156,28.0682 20.49977,-9.8071 55.49937,-27.4659 50.35451,-55.1671 -6.02136,-20.2639 25.16109,-27.5202 35.52746,-44.4188 17.5301,-5.71668 26.93975,-21.98198 24.18095,-37.0345 25.71959,-15.61627 20.70357,-51.75047 23.7557,-75.30377 -5.91867,-2.5964 -15.72792,15.03237 -9.61313,14.78382 -3.54741,20.13564 -34.0124,35.49136 -22.33702,55.7968 -21.70114,-18.07138 -24.02281,-50.40949 -18.32577,-76.36138 13.0112,-29.32615 9.42722,-59.96323 7.05594,-90.83277 -9.81824,-23.50379 18.4435,27.32585 8.75344,-0.20335 -7.76304,-11.06863 -39.3157,-43.35142 -24.04315,-49.24585 20.103,2.01644 7.18106,6.97181 0.53434,6.52888 4.90855,24.33574 38.51437,51.16599 40.60824,63.04792 -25.45413,-27.32632 -16.03792,25.97891 -8.53108,31.86097 -4.74542,8.38727 20.37853,1.04674 0.0334,12.34207 -5.26604,8.73221 -23.44192,54.78599 -16.42256,48.7976 10.01569,-27.83004 31.76887,-45.35199 52.76779,-64.66188 2.52374,-12.89142 -6.485,-18.09003 5.16057,-15.16554 9.61437,19.03162 -18.10489,44.55654 -6.98544,68.06321 0.65094,5.17124 8.1872,-29.40872 16.71759,-35.44252 1.24999,-32.53423 0.48502,63.05788 -2.33383,27.47869 2.31199,-35.42379 -7.71514,6.49505 -9.47788,19.32617 -27.80758,18.117 13.98409,43.10027 18.07784,14.89922 3.67931,-18.09877 1.77923,23.72489 -14.77614,21.79466 -34.94106,15.37648 -19.96926,57.44805 -36.27198,82.62695 -22.65625,19.9229 -38.09313,47.4869 -50.42814,74.6381 -20.43067,14.8351 -29.67708,38.5731 -46.64843,55.228 -8.03419,1.3981 -57.24795,-4.5429 -28.4146,1.9547 33.16234,-5.0081 -1.73968,9.707 -15.90018,1.5982 7.46389,-6.4407 -24.20199,3.6749 -5.84525,-6.8044 -14.15207,3.9056 -30.35813,24.3024 -46.64751,20.8888 -15.22726,22.471 -46.54805,17.1787 -70.2131,18.9589 z m -23.4135,-36.4613 c 28.474352,-15.7879 -38.4060034,-8.374 -4.01714,1.0202 l 4.01714,-1.0202 0,0 z m -70.51714,-2.105 c -8.624043,-9.2029 -52.607414,-15.7134 -21.57428,-6.6311 2.630392,-4.5768 26.907013,12.0175 21.57428,6.6311 z m 218.05887,-0.9243 c -12.67402,-4.7295 2.88267,5.27 0,0 z m -258.55887,-17.772 c -8.184214,-8.6759 -9.751252,-8.2878 0,0 z m 164,-2.6962 c -1.209361,-3.6562 -2.466294,3.5623 0,0 z m -198.49668,-16.9946 c -7.17517,-6.5234 -1.48641,1.7094 0,0 z m 314.99668,-1.0054 c 1.41247,-4.0763 -37.605,-29.2028 -18.90424,-3.8896 4.79373,5.1039 12.53663,5.476 18.90424,3.8896 z m -330.5,-3.5 c -7.09822,-5.6778 3.48612,5.1939 0,0 z m 16.91375,0.1039 c -4.88816,-12.2646 -10.99839,1.6931 0,0 z m 371.1656,-3.8539 c 11.70706,-11.8796 18.95379,-54.2007 27.69963,-54.9978 4.61836,18.6439 16.06489,-29.6367 30.59383,-30.0842 17.63339,-13.153 -2.9915,-49.95863 -14.68182,-18.7648 -2.74032,14.0809 -46.1711,29.8436 -34.34945,33.4055 8.15354,-10.9103 28.53036,-23.7571 9.59536,-5.3798 -5.12553,18.2855 -31.25418,42.541 -18.9369,41.9597 -0.9517,19.1872 -21.563,29.3944 -42.64196,35.8028 13.95296,-3.8847 30.19068,5.9882 42.72131,-1.9414 z m 22.8277,-64.8822 c -14.70813,-6.3881 19.10278,-31.4451 25.51725,-27.4196 -3.92939,8.8 -37.11094,46.4184 -24.50577,32.4567 l -1.01148,-5.0371 z m 18.09295,-29.8257 c 14.69567,-25.67097 11.92707,0.2257 0,0 z m -426.32643,93.6725 c -1.2181,-11.9019 -22.00223,-10.0721 -2.67357,1.2351 l 2.67357,-1.2351 z m 335.0556,0.6812 c -3.68144,-1.1343 -1.83717,1.7415 0,0 z m 7.95604,-1.3958 c 10.73257,-8.6042 47.24453,-35.333 17.19437,-14.281 -2.27775,2.7205 -34.87721,20.714 -17.19437,14.281 z m -341.68521,-9.906 c -16.25653,-8.8152 -9.9341,-1.7611 0,0 z m 287.5,-3.6201 c -8.59494,-8.7832 43.12536,8.5662 6.75652,-5.1276 -16.03017,-4.1415 -45.67349,-8.6344 -13.75652,-0.3597 13.42338,3.6122 -24.79744,1.7992 6.72384,7.373 3.54626,3.6121 3.48273,-3.0444 0.27616,-1.8857 z m -301.5,-1.9739 c -16.05843,-5.5551 8.60375,5.2487 0,0 z m 431.13922,-78.4139 c 7.20884,-8.3351 -10.45033,7.1678 0,0 z m 30.54869,-35.42774 c 3.53399,-1.07181 5.40269,-13.53045 12.31209,-25.15459 -5.72223,2.43007 -20.18432,27.20792 -12.31209,25.15459 z m 18.2362,-35.89945 c 10.67484,-21.04332 -17.58447,16.47248 0,0 z m -43.92411,0.31252 c 6.93143,-14.40086 16.24553,-37.75801 31.94133,-56.42564 8.09525,-5.81917 20.90723,-18.96741 8.53666,-23.70388 -9.04304,4.88885 -33.82503,29.67221 -9.81574,18.38705 -14.00191,18.13145 -22.9235,40.37067 -32.02159,60.99842 l 0.42556,2.67262 0.93378,-1.92857 0,0 z m -4.33772,-14.32143 c -1.75023,0.99942 1.62308,5.50683 0,0 z m 47.75418,-14.65599 c 2.13439,-15.94519 -7.11028,28.94468 -1.36288,4.58048 l 1.36288,-4.58048 z m -46.0349,5.35405 c 0.0829,-4.20925 -2.96714,4.98625 0,0 z m 0.46918,-33.76316 c 1.61329,-19.75473 -14.92081,45.50744 -3.02084,8.92041 l 1.26689,-3.89378 1.75395,-5.02663 z m 48.53082,20.76316 c 0.0829,-4.20925 -2.96714,4.98625 0,0 z m -40.59393,-47.27579 c -0.66671,-7.34381 4.07686,-26.15004 -2.43714,-5.67311 -1.61934,11.02141 -6.34296,30.23372 3.45793,7.11898 l -0.0853,-1.0637 -0.93554,-0.38217 z m 49.1415,-9.67227 c -4.3808,3.92399 -1.93957,7.31481 0,0 z m -429.32673,337.2348 c 10.64992,2.3913 23.061859,-12.6588 35.15714,-16.3149 15.006851,-0.065 69.636925,-17.5831 64.10011,1.437 -28.9458339,1.7155 -61.283115,-5.701 -87.12788,14.886 -3.870426,0.8662 -8.37424,2.0445 -12.12937,-0.01 z m 69.3976,-1.7162 c -14.8109831,-5.0551 -40.036147,-12.7393 -9.32047,-12.3354 18.720649,-2.8849 41.593852,9.4212 9.32047,12.3354 z m 138,-8.0186 c 2.46629,-3.5623 1.20936,3.6562 0,0 z m -88.92105,-6.5833 c 0.643276,-3.854 1.014429,4.5516 0,0 z m 83.74487,-8.9262 c -22.53067,4.1519 -8.46078,-14.8802 1.09285,0.4826 l -1.09285,-0.4826 0,0 z M 32.22826,1135.8903 c 5.368846,-2.9794 -2.436681,3.0733 0,0 z m 9.35,-1.2404 c 11.63818,-2.9547 10.32323,0.8164 0,0 z M 9.58651,1124.2735 c 5.249168,-19.6273 -35.533434,-4.4379 -35.289189,-11.0272 24.5784176,-13.6445 -17.520943,-11.6295 -3.468231,-27.8035 -11.892006,-11.8603 -27.278274,-16.7824 -43.723294,-12.4624 -11.931822,7.6479 -48.898826,4.3693 -23.860866,-8.4226 33.514981,-4.2043 61.749608,9.8124 87.25,29.9991 18.1776285,7 38.359168,0.6521 57.517297,7.634 17.53378,-8.3708 25.613448,-32.5862 26.924789,-50.7058 0.194784,-19.2713 -1.284435,-9.1114 -7.315306,-10.0143 -19.232283,-15.3261 33.62713,-23.179 8.362854,-44.57639 -7.215313,-16.93562 -9.941125,-28.03216 1.910195,-10.01478 3.957639,21.26037 12.582485,32.50027 12.352084,50.55417 11.405597,12.0167 -15.092686,-8.3609 -10.290123,15.6331 7.465048,22.2036 -10.552694,41.6021 -19.353017,61.0867 -5.495073,15.8166 -31.114718,-1.3807 -50.43152,11.9705 -2.8324758,1.9751 -0.8182294,-0.8141 -0.585673,-1.8506 z m 36.62497,-15.5554 c -19.644371,-6.4618 -9.450345,4.6414 0,0 l 0,0 z m -15.21655,-4.8594 c -12.317352,-4.181 -58.824336,-0.7202 -21.5330663,0.9368 2.8472523,-2.2031 32.8425673,3.0551 21.5330663,-0.9368 z m -45.5,-9.2373 c -4.94958,-4.3328 -2.046459,2.1832 0,0 z m 99.53256,-72.7096 c 0.409855,-14.2264 -7.520892,12.0213 0,0 z m 83.91744,94.1904 c -14.15818,0.2204 -31.31607,-16.8566 -9.49117,-6.4542 0.66652,0 14.86693,8.8968 9.49117,6.4542 z m -323.72962,-14.8658 c -13.49194,-16.3255 3.52111,-8.2149 2.26608,3.0885 l -2.26608,-3.0884 0,-10e-5 z m -44.81917,-37.3278 c -1.77842,-1.8473 -5.30464,-26.9482 1.24402,-6.6902 1.82269,0.4488 5.78799,16.7667 -1.24402,6.6902 z m 92.54282,-5.6037 c -16.58055,-10.8904 -0.41982,-11.5436 4.79358,1.3798 l -4.79358,-1.3798 0,0 z m -101.36508,-15.8738 c 0.64328,-3.854 1.01443,4.5516 0,0 z m 161.92105,-3.3124 c -5.634433,-4.1915 8.809464,1.379 0,0 z m -157.04903,-4.1043 c -11.56435,-23.6747 -32.05813,-44.22179 -50.25275,-63.31947 12.95723,11.75629 23.89652,-7.74352 25.66929,17.45971 7.48455,2.99307 39.97114,52.64226 24.58346,45.85976 z m -9.83194,-26.75 c -10.58187,-16.68102 -2.6444,3.4054 -11.46281,-10.18115 -2.42971,3.27455 16.84823,18.57785 11.46281,10.18115 z m 346.13315,27.25 c 0.95349,-6.5287 0.61657,7.7707 0,0 z m -346.46234,-7.1921 c -8.60939,-12.2561 -11.5305,-23.2329 0.29223,-4.4001 2.96778,1.9838 3.76486,14.8844 -0.29223,4.4001 z m 347.89138,-11.6309 c -3.2028,-14.8539 -32.78753,-18.9062 -22.68815,-34.58251 7.7598,3.25093 33.64892,44.58061 22.68815,34.58251 z m -27.18122,-21.677 c -6.8871,-10.71844 12.26633,10.5053 0,0 z m 134.5,-6.86526 c -16.81457,-15.50683 -36.40145,-25.06067 -55.60409,-27.94785 -12.24668,7.08031 -22.58004,-37.3235 -48.28004,-33.89209 -16.41883,-16.22589 -32.1348,3.50966 -37.46546,-22.67983 -20.537071,-6.22201 -8.120851,-18.90553 -0.57333,-10.13036 -0.321892,16.56641 35.49627,15.16307 10.77384,1.26714 12.61412,8.98524 49.23978,23.13924 61.02928,45.24981 18.54802,17.18802 58.87532,16.67036 69.24339,39.08458 -0.34769,2.68654 12.42472,18.75853 0.87641,9.0486 z m -96.45999,-69.07 c -13.02587,-7.75208 -23.2645,-8.10081 -4.5225,-0.27666 l 4.79151,1.10483 -0.26901,-0.82817 0,0 z m -57.26426,65.03509 c -20.468505,-14.87429 19.90383,11.78683 0,0 z M 61.29276,967.7644 c -16.456078,-13.84217 5.672957,-54.09636 12.825201,-51.8074 -5.249323,16.80826 -1.404196,30.09044 2.677025,20.43673 6.086028,22.19554 -17.106672,1.71839 -5.300056,24.12067 5.369064,22.44199 -10.783824,-27.64803 -2.506415,-34.13215 -9.499785,11.23565 -11.332684,24.71696 -6.541593,38.37389 -0.52668,0.42936 4.548822,12.32331 -1.154162,3.00826 z m -297.71888,-0.33333 c 0.64328,-3.85396 1.01442,4.55158 0,0 z m 276.92105,0.89694 c -15.80799,-5.03483 -28.240064,-51.58628 -11.652136,-24.46333 8.172459,16.26358 -7.182995,-1.46611 7.432016,17.89972 -4.638225,-2.25729 11.411783,10.10802 4.22012,6.56361 z m 211.35006,-0.10543 c -5.06682,-6.04556 24.09734,-29.98855 6.67665,-8.73377 -5.19924,0.76341 -0.73259,9.92912 -6.67665,8.73377 z m -490.10006,-19.8242 c -4.22164,-16.07922 4.964,10.78103 0,0 z m 345.16246,-4.1893 c -7.101789,-14.99759 7.39895,-2.64721 3.21419,5.53746 l -3.21419,-5.53746 z m 141.15514,-0.0853 c 10.77871,-21.99936 18.01233,-2.3735 0,0 z m -28.42125,-2.24665 c 0.89788,-4.66205 -0.0486,-1.59587 0,0 z M -261.8349,933.2644 c -7.94641,-12.43248 0.1591,-3.9945 2.81643,3.75 l -2.81643,-3.75 z m 471.89288,-7.18628 C 199.0491,912.66627 162.11006,906.17484 157.65,901.58673 c 20.22506,-2.29519 -8.63684,-33.13805 15.03213,-10.17285 17.50668,5.75371 41.84855,26.00249 41.61047,38.85676 l -4.23467,-4.1925 5e-5,-2e-5 z m -19.56305,-20.12815 c -24.5519,-12.87539 -8.95675,-1.00292 0,0 z m -99,2.44452 c -12.079578,-10.50797 -42.068603,-7.45471 -38.590494,-27.72651 8.138595,17.25223 38.116634,14.14317 44.63386,31.8359 l -2.088329,-1.38056 -3.955037,-2.72883 0,0 z m -298,1.24235 c 3.23766,-4.63196 3.52199,-0.78294 0,0 z m 304.5,-3.80092 c -10.629642,-9.77522 9.12473,4.99091 3.92122,3.85707 l -3.92122,-3.85707 z m 281.95888,-2.88805 c -1.22162,-5.01547 3.25477,3.80848 0,0 z M 14.84524,889.56571 C 4.838397,880.9118 -29.762932,853.6737 1.1551886,875.53063 c 0.6121032,3.24759 27.4955944,19.776 13.6900514,14.03508 z m -124.85031,-0.43913 c 11.370188,-3.64779 58.262105,-24.52231 18.326135,-20.60186 -18.514105,-15.90199 -28.666805,12.07528 -42.985095,1.67046 -15.56527,-8.47898 8.34637,9.75698 -10.30472,-2.52866 -26.35868,3.1466 -61.96698,-14.24227 -69.63799,-30.33126 11.75055,15.56363 45.56293,32.93105 50.75879,11.78221 -17.93926,-2.21808 -33.5885,-34.81241 -32.11542,-41.23217 13.90174,21.96564 42.11167,53.4251 69.91169,40.28036 31.72105,-3.25915 -13.21883,-6.30029 -10.58753,-23.04106 -8.64362,-11.60758 -46.60747,-24.32022 -15.49692,-24.68459 18.8105,18.50653 37.98989,36.53017 58.88745,54.09873 16.155655,12.20338 41.473991,-20.156 11.77689,-8.78638 -18.76018,5.79507 -44.42823,-27.81876 -15.67409,-4.23424 26.699816,18.68626 56.831877,-54.3071 71.670479,-28.90952 -16.750789,6.13955 -20.388652,15.22853 -15.568939,16.26675 -8.377733,7.64517 -39.63867,28.06632 -9.4513,11.53087 13.113876,-9.0742 50.99807826,-11.44011 16.187009,-2.11529 -14.777483,9.48262 -20.863133,20.02386 -2.333399,4.76551 23.50342,-11.04054 60.178826,-11.97358 52.84351,-45.71644 8.658654,-14.9481 -4.245794,-34.25709 6.35136,-49.8256 4.214781,-19.2234 16.741868,-21.11552 21.504951,-26.14051 26.936172,-20.78461 58.522919,-4.58421 87.636269,-8.86479 9.12979,9.25534 28.76148,13.77901 34.13925,-8.86213 -1.98232,-19.74501 -5.42431,-68.17741 16.5229,-61.56122 11.42445,-5.87761 38.06224,1.73172 32.6458,-23.54363 19.63863,22.13375 -3.66529,34.51027 -18.50708,49.687 11.14807,-18.96836 5.4221,-30.02493 -10,-12.2884 -27.46742,20.63161 2.35818,59.97722 -36.96356,69.48623 -12.81339,-1.24921 -39.4948,21.00897 -18.93222,2.37898 -13.67713,0.0374 -24.76645,12.67616 -21.06707,-6.35064 -22.118202,-19.24511 -65.716721,-2.261 -70.06113,24.72578 -24.350756,21.49937 -0.739391,52.03383 -20.762133,72.30243 3.911888,29.47983 17.409605,-20.98925 37.288102,-13.57902 22.620764,-15.88285 51.827861,-26.00899 55.584341,-56.44344 -2.55468,-4.33223 51.71013,-30.9116 27.34334,-13.72062 -24.1043,6.80022 -25.69572,46.06271 -34.41183,58.84246 13.79403,-19.29899 14.53727,-5.39404 12.68865,9.77581 -14.17615,1.47523 -40.480274,38.51648 -26.89959,8.41468 9.257421,-21.80639 -41.301534,15.55289 -43.92845,31.23525 2.331112,-29.33317 -17.274834,20.48295 -39.37845,6.48875 -16.5441899,-1.3574 -24.835816,2.06774 -8.53647,8.48056 11.732338,9.16232 22.241923,13.15667 0.03647,5.07606 25.108648,29.49681 -23.476712,-12.4178 -38.29311,-1.17713 -24.6918,4.12016 -44.451685,28.33778 -70.20689,27.24972 z m 52.64311,-24.33925 c 14.357239,-6.35678 26.213033,-19.82327 38.31686,-21.73969 23.0882793,-2.97749 54.157401,1.45177 59.67547,-27.04688 -17.122671,32.53119 -47.0242933,11.13653 -73.370001,28.59388 -5.371463,2.91392 -49.53341,35.84781 -24.622329,20.19269 z m -73.94981,-4.59775 c 37.076047,-10.23268 -61.78802,-2.60533 -15.11737,-1.88889 4.47035,-1.80811 11.80726,7.27474 15.11737,1.88889 z m 64.13572,0.52836 c 19.049393,-10.54814 -34.88666,4.81875 0,0 z m 43.67098,-4.04725 c 31.1341861,-5.36801 -41.62139,0.98702 -9.296875,0.12424 l 4.516016,-0.1219 4.780859,-0.002 z m -74.75,-2.31857 c -5.50683,-1.62308 -0.999422,1.75023 0,0 z m -18,-3.66864 c 17.551945,-8.78467 -25.23508,6.73749 0,0 z m 184.9207,-46.4083 c -1.600625,-5.3551 -13.730669,12.5828 0,0 z m 5.95686,-7.01078 c 3.345091,-4.77429 -6.084687,5.89208 0,0 z m 12.87244,-7.25 c 2.479459,-3.93854 -7.328405,4.19286 0,0 z m -57.09374,-49 c -8.416679,11.11629 -5.08673,14.49375 0,0 z m 139.38349,-46 c -2.28182,-6.96363 -0.70891,6.96035 0,0 z m 3.01707,-36 c 8.88649,-14.23762 -13.08695,15.90742 -2.44275,3.76563 l 2.44275,-3.76563 z m -146.32047,229.75 c 1.009137,-9.85209 27.773729,-6.16923 28.631243,-24.64349 0.01005,14.77191 -15.829028,27.55367 -28.631243,24.64349 z m -162.84713,-7.78327 c -22.9829,-19.39768 1.17805,-5.08521 0,0 z m 108.88974,-14.92767 c -3.568097,-4.97819 5.656246,3.55563 0,0 z m 267.98635,-8.38793 c -11.08212,-16.56209 7.88843,-32.86997 1.33886,-53.15113 -12.44778,-12.53021 -15.32954,-42.57078 -5.03059,-49.35633 -12.91614,27.47959 15.94905,47.05928 13.39438,72.65058 6.6792,5.16599 -8.45341,35.89766 -9.70265,29.85688 z M 80.22273,839.25687 c 9.552763,-11.28033 46.44337,-26.36562 15.694115,-7.3932 -1.582292,3.48852 -33.067151,24.5833 -15.694115,7.3932 z m 12.30362,-2.45729 c 11.90751,-14.49338 24.96602,-11.24983 0,0 z m 4.96858,0.83726 c 3.23766,-4.63196 3.52199,-0.78294 0,0 z m 37.87566,-4.60544 c -5.94623,-15.62878 8.66733,12.77107 0,0 z m -21.87566,-0.57602 c -2.94126,-14.0771 0.8654,-5.5427 0,0 z m -304.19196,-20.00136 c -8.5927,-10.96257 -8.86549,-28.67094 0.15985,-5.96187 4.85327,0.32179 7.55173,19.69582 -0.15985,5.96187 z m 540.15281,0.39839 c -16.90047,-6.50967 -38.88233,-47.97806 -31.01942,-47.91375 7.46764,7.49202 21.23302,50.6511 26.04311,35.72445 -2.3068,-15.21479 -2.3767,-39.32302 1.14303,-10.48849 -6.86858,7.48426 18.30718,32.46985 3.83328,22.67779 z M 119.61746,808.5144 c -3.06991,-15.16278 1.75668,1.85038 0,0 z m -179.12253,-1.40476 c -12.130888,-21.36998 40.01419,-17.72451 28.218043,-38.94985 13.06418,-21.47583 4.605388,-62.04207 33.3509726,-77.01411 C 27.214024,678.5227 25.36415,640.79316 54.473154,629.28047 c 22.858281,-2.52096 6.667057,13.7809 -5.57402,10.60911 -16.842237,6.06192 -36.977096,43.97287 -2.666824,27.78713 2.033119,8.85613 -26.995319,21.24668 -24.114299,43.15824 -11.818047,-35.62587 -41.966881,15.75187 -39.646721,34.17945 20.6842863,-2.12965 -7.626938,33.33601 -7.22636,43.96767 -14.119063,1.95614 -25.699634,11.32745 -34.75,18.12757 z M 22.321,682.15711 c 0.742031,-8.74924 -6.388327,14.39921 0,0 z m 245.05216,87.57133 c -13.01824,-11.19883 -28.45596,-46.13334 -16.24118,-47.93423 -9.41202,-11.23038 -12.25065,-51.58338 -0.46999,-20.33283 14.11154,6.60947 15.23412,12.53229 1.40204,14.44122 12.84119,13.54441 3.22667,45.78197 15.30913,53.82584 l 0,0 z m -433.79928,-27.29737 c 0.64328,-3.85396 1.01442,4.55158 0,0 z m 281.83127,-0.24891 c 9.26302,-11.65425 -3.03298,7.06565 0,0 z m 176.08978,-0.26845 c 14.37568,0.18508 34.36145,-6.99034 32.05328,-23.84734 12.99596,24.49865 -33.72813,29.24118 -36.12424,24.90084 1.35699,-0.35116 2.71397,-0.70233 4.07096,-1.0535 z m -456.87359,-7.39931 c -7.05771,-15.27788 -4.40335,-31.93645 -0.3086,-6.84201 0.65963,1.1024 1.21942,12.09644 0.3086,6.84201 z m -21.12641,-0.5 c -2.86406,-3.61661 5.55843,3.27538 0,0 z m 338.387,-6.2782 c 9.81743,-8.13795 14.97489,-6.39526 0,0 z m -322.22911,-19.7218 c 0.87512,-4.5074 0.87512,4.5074 0,0 z m 483.93635,-3.67144 c -10.77046,-19.35306 11.83073,16.09913 0,0 z m -164.851,-9.5003 c 13.46484,-17.52794 -14.13556,-66.74921 0.48828,-72.37351 3.69869,9.25346 10.2459,15.72109 4.03099,30.91629 -0.91221,14.56521 21.30156,40.00924 -2.4879,42.82651 -0.89862,4.49878 -8.19695,-0.18248 -2.03137,-1.36929 z m 0.68647,-50.24493 c -0.57517,-23.26537 -2.24352,29.54908 0,0 z m 159.06824,49.91128 c -5.71324,-12.63358 6.09215,8.3017 0,0 z M -154.11971,660.0144 c 0.64879,-22.22311 0.64879,22.22311 0,0 z m 416.56458,0.26561 c -15.90014,-20.49321 10.09705,5.60054 0,0 z M 227.49493,640.0144 c -2.47946,-3.93854 7.32841,4.19286 0,0 z m 9.86614,-1.36124 c -4.409,-10.71375 -4.88917,-32.40299 2.13761,-8.03466 1.47618,1.37286 3.65745,12.00785 -2.13761,8.03466 z M 208.12943,607.7644 c -6.63306,-15.85857 -0.99714,-7.73311 2.011,2.25 l -2.011,-2.25 0,0 z m -87.1345,-4.75 c 1.24187,-3.94236 3.58829,3.8072 0,0 z m 98.37244,-0.75 c -3.08913,-4.50194 5.58128,5.32311 0,0 z"
         id="path3313"
         inkscape:connector-curvature="0" />
    </g>
  </g>
</svg>
