<?xml version="1.0" encoding="UTF-8" standalone="no"?>
<!-- Created with Inkscape (http://www.inkscape.org/) -->

<svg
   xmlns:dc="http://purl.org/dc/elements/1.1/"
   xmlns:cc="http://creativecommons.org/ns#"
   xmlns:rdf="http://www.w3.org/1999/02/22-rdf-syntax-ns#"
   xmlns:svg="http://www.w3.org/2000/svg"
   xmlns="http://www.w3.org/2000/svg"
   xmlns:sodipodi="http://sodipodi.sourceforge.net/DTD/sodipodi-0.dtd"
   xmlns:inkscape="http://www.inkscape.org/namespaces/inkscape"
   version="1.1"
   width="64"
   height="64"
   id="svg2"
   inkscape:version="0.48.5 r10040"
   sodipodi:docname="pdbview_edit.svg">
  <sodipodi:namedview
     pagecolor="#ffffff"
     bordercolor="#666666"
     borderopacity="1"
     objecttolerance="10"
     gridtolerance="10"
     guidetolerance="10"
     inkscape:pageopacity="0"
     inkscape:pageshadow="2"
     inkscape:window-width="1347"
     inkscape:window-height="721"
     id="namedview6160"
     showgrid="false"
     inkscape:zoom="7.375"
     inkscape:cx="16.962262"
     inkscape:cy="29.170432"
     inkscape:window-x="0"
     inkscape:window-y="0"
     inkscape:window-maximized="0"
     inkscape:current-layer="g11196" />
  <defs
     id="defs4">
    <linearGradient
       id="linearGradient3893">
      <stop
         id="stop3895"
         style="stop-color:#ffffff;stop-opacity:1"
         offset="0" />
      <stop
         id="stop3897"
         style="stop-color:#464646;stop-opacity:1"
         offset="0.5" />
      <stop
         id="stop3899"
         style="stop-color:#ffffff;stop-opacity:1"
         offset="1" />
    </linearGradient>
    <linearGradient
       id="linearGradient3871">
      <stop
         id="stop3873"
         style="stop-color:#929292;stop-opacity:1"
         offset="0" />
      <stop
         id="stop3879"
         style="stop-color:#878787;stop-opacity:1"
         offset="0.5" />
      <stop
         id="stop3875"
         style="stop-color:#1a1a1a;stop-opacity:1"
         offset="1" />
    </linearGradient>
  </defs>
  <metadata
     id="metadata7">
    <rdf:RDF>
      <cc:Work
         rdf:about="">
        <dc:format>image/svg+xml</dc:format>
        <dc:type
           rdf:resource="http://purl.org/dc/dcmitype/StillImage" />
        <dc:title></dc:title>
      </cc:Work>
    </rdf:RDF>
  </metadata>
  <g
     transform="translate(0,-988.36218)"
     id="layer1">
    <g
       transform="matrix(0.40601429,0,0,0.40601429,-45.867314,590.50948)"
       id="g11196">
      <path
         d="m 129,1032.9138 c 0,-0.2466 1.15328,-4.0992 2.56285,-8.5612 3.2998,-10.4457 4.95183,-10.4426 8.14071,0.015 1.25683,4.1218 2.28768,7.8317 2.29079,8.2442 0.0125,1.6582 -2.90223,0.6156 -3.49435,-1.25 -0.39406,-1.2416 -1.51303,-2 -2.95076,-2 -1.47497,0 -2.5059,0.7262 -2.83899,2 -0.43181,1.6512 -3.71025,3.0223 -3.71025,1.5516 z m 7.92971,-7.3016 c -0.14357,-1.5321 -1.79173,-4.7069 -1.85943,-3.5818 -0.0387,0.6425 -0.34343,1.88 -0.67727,2.75 -0.39831,1.038 -0.0545,1.5818 1,1.5818 0.88384,0 1.57536,-0.3375 1.5367,-0.75 z m 11.07029,0.75 c 0,-6.8 -0.0714,-7 -2.5,-7 -1.55556,0 -2.5,-0.5667 -2.5,-1.5 0,-1.1795 1.38889,-1.5 6.5,-1.5 5.11111,0 6.5,0.3205 6.5,1.5 0,0.9333 -0.94444,1.5 -2.5,1.5 -2.42857,0 -2.5,0.2 -2.5,7 0,5.5555 -0.30952,7 -1.5,7 -1.19048,0 -1.5,-1.4445 -1.5,-7 z m 11.03518,5.0657 c -1.54919,-2.8947 -1.24779,-10.3172 0.52152,-12.8432 1.88807,-2.6956 5.53818,-2.8801 7.78831,-0.3938 1.97553,2.183 2.29936,12.1269 0.45499,13.9713 -1.95411,1.9541 -7.5782,1.4829 -8.76482,-0.7343 z m 6.35783,-1.6475 c 1.0831,-2.8225 0.64195,-9.1443 -0.7168,-10.272 -2.0627,-1.7119 -3.67621,0.6379 -3.67621,5.3538 0,5.3353 2.9609,8.6502 4.39301,4.9182 z M 171,1024.8622 c 0,-7.0957 0.26217,-8.5 1.58686,-8.5 0.87278,0 2.09644,1.35 2.71924,3 0.62281,1.65 1.38506,3 1.6939,3 0.30884,0 1.07109,-1.35 1.6939,-3 0.6228,-1.65 1.84646,-3 2.71924,-3 1.32469,0 1.58686,1.4043 1.58686,8.5 0,6.8889 -0.28431,8.5 -1.5,8.5 -1.10653,0 -1.53043,-1.246 -1.616,-4.75 -0.0638,-2.6125 -0.3218,-3.9625 -0.57333,-3 -0.6461,2.4724 -3.20492,2.1734 -4.27951,-0.5 -0.7167,-1.7831 -0.91754,-1.1605 -0.96777,3 -0.048,3.9718 -0.42858,5.25 -1.56339,5.25 -1.21569,0 -1.5,-1.6111 -1.5,-8.5 z m 69,7.4064 c 0,-0.6015 0.9,-1.329 2,-1.6167 1.66025,-0.4341 2,-1.364 2,-5.4737 0,-4.4957 -0.18384,-4.8924 -2,-4.316 -3.02264,0.9593 -2.52544,-1.9396 0.57494,-3.3522 1.41621,-0.6453 2.99121,-0.916 3.5,-0.6015 0.50878,0.3144 0.92506,3.422 0.92506,6.9057 0,4.7077 0.38513,6.4818 1.5,6.9096 3.17402,1.218 1.28978,2.6384 -3.5,2.6384 -2.95202,0 -5,-0.448 -5,-1.0936 z m 14.5567,-1.1289 c -0.85618,-1.2224 -1.5567,-4.0473 -1.5567,-6.2775 0,-7.2854 5.33956,-11.0973 9.34501,-6.6713 1.88671,2.0848 2.26496,10.163 0.61981,13.237 -1.46332,2.7343 -6.40987,2.5647 -8.40812,-0.2882 z m 5.83631,-1.3593 c 0.33385,-0.87 0.60402,-2.5575 0.6004,-3.75 -0.006,-1.9614 -0.19128,-1.888 -1.94306,0.7694 -1.85154,2.8088 -1.88933,4.5624 -0.0983,4.5624 0.4587,0 1.10714,-0.7118 1.44096,-1.5818 z M 260,1019.838 c 0,-0.2617 -0.62686,-0.4758 -1.39301,-0.4758 -1.57375,0 -2.60879,2.1199 -2.60325,5.3318 0.003,1.8566 0.29062,1.6976 2,-1.106 1.09794,-1.8008 1.99626,-3.4883 1.99626,-3.75 z m -131,-12.9242 c 0,-0.2466 1.15328,-4.0992 2.56285,-8.56122 3.2998,-10.44572 4.95183,-10.44259 8.14071,0.0154 1.25683,4.12182 2.28768,7.83172 2.29079,8.24422 0.0125,1.6582 -2.90223,0.6156 -3.49435,-1.25 -0.39907,-1.2574 -1.51303,-2 -3,-2 -1.48697,0 -2.60093,0.7426 -3,2 -0.52908,1.667 -3.5,2.984 -3.5,1.5516 z m 7.92971,-7.30162 c -0.14357,-1.53207 -1.79173,-4.70689 -1.85943,-3.58179 -0.0386,0.64252 -0.34343,1.88002 -0.67727,2.75 -0.39831,1.03799 -0.0545,1.58181 1,1.58181 0.88384,0 1.57536,-0.3375 1.5367,-0.75002 z M 148,1000.3622 c 0,-6.80002 -0.0714,-7.00002 -2.5,-7.00002 -1.55556,0 -2.5,-0.56667 -2.5,-1.5 0,-1.17949 1.38889,-1.5 6.5,-1.5 5.11111,0 6.5,0.32051 6.5,1.5 0,0.93333 -0.94444,1.5 -2.5,1.5 -2.42857,0 -2.5,0.2 -2.5,7.00002 0,5.5555 -0.30952,7 -1.5,7 -1.19048,0 -1.5,-1.4445 -1.5,-7 z m 11.03518,5.0657 c -1.54919,-2.8947 -1.24779,-10.31716 0.52152,-12.84321 1.88806,-2.69559 5.53818,-2.88013 7.78831,-0.39377 1.97553,2.18294 2.29936,12.12688 0.45499,13.97128 -1.95411,1.9541 -7.5782,1.4829 -8.76482,-0.7343 z m 6.77278,-5.47158 c 0.34872,-5.37795 -1.21732,-8.32921 -3.44064,-6.48403 -1.6944,1.40623 -1.805,9.05221 -0.15482,10.70241 2.09123,2.0912 3.27651,0.7006 3.59546,-4.21838 z M 171,998.86218 c 0,-7.09568 0.26217,-8.5 1.58686,-8.5 0.87278,0 2.09644,1.35 2.71924,3 0.62281,1.65 1.38506,3 1.6939,3 0.30884,0 1.07109,-1.35 1.6939,-3 0.6228,-1.65 1.84646,-3 2.71924,-3 1.32469,0 1.58686,1.40432 1.58686,8.5 0,6.88892 -0.28431,8.50002 -1.5,8.50002 -1.10653,0 -1.53043,-1.246 -1.616,-4.75 -0.0638,-2.61252 -0.3218,-3.96252 -0.57333,-3.00002 -0.6461,2.47242 -3.20492,2.17342 -4.27951,-0.5 -0.7167,-1.78306 -0.91754,-1.16046 -0.96777,3.00002 -0.048,3.9718 -0.42858,5.25 -1.56339,5.25 -1.21569,0 -1.5,-1.6111 -1.5,-8.50002 z m 83,6.93262 c 0,-1.1246 0.57862,-1.3838 2.04799,-0.9174 1.12639,0.3575 2.70139,0.1077 3.5,-0.555 2.08279,-1.7286 1.78927,-2.8612 -0.58087,-2.2414 -4.63864,1.2131 -7.99894,-6.54415 -4.39569,-10.14739 2.10733,-2.10734 5.7425,-1.98701 7.77358,0.25731 2.12315,2.34605 2.18106,9.97518 0.0983,12.94878 -1.9074,2.7232 -8.44331,3.2303 -8.44331,0.6551 z m 6.82109,-8.74214 c 0.51451,-2.6716 -1.73675,-5.00537 -3.45377,-3.58037 -1.45875,1.21066 -1.82468,4.09919 -0.66608,5.25779 1.21775,1.21775 3.76177,0.18194 4.11985,-1.67742 z"
         id="path11218"
         style="fill:#cdcecd"
         inkscape:connector-curvature="0"
         sodipodi:nodetypes="cscssscccccsscssssssssssscssscssssssssssssccssscssccscsscssscccsscsscssssssssssscsssssssssssssssssssssssssssssssscssscccssssssss" />
      <path
         d="m 129.40878,1031.6122 c 0.29895,-0.9625 1.35837,-4.45 2.35427,-7.75 1.33684,-4.4298 2.32448,-6.074 3.77383,-6.2826 1.92736,-0.2775 2.58815,1.2174 6.20278,14.0326 0.3126,1.1082 -0.0564,1.75 -1.0064,1.75 -0.825,0 -1.73535,-0.9 -2.02301,-2 -0.3489,-1.3342 -1.36402,-2 -3.04924,-2 -1.64798,0 -2.74692,0.6953 -3.16101,2 -0.34913,1.1 -1.30978,2 -2.13478,2 -0.96897,0 -1.30757,-0.6196 -0.95644,-1.75 z m 7.52093,-6 c -0.0976,-2.4304 -1.7634,-6.21 -1.87308,-4.25 -0.0462,0.825 -0.35528,2.5125 -0.68692,3.75 -0.44329,1.6541 -0.17484,2.25 1.01366,2.25 0.89976,0 1.58546,-0.776 1.54634,-1.75 z m 11.07029,0.75 c 0,-6.8 -0.0714,-7 -2.5,-7 -1.375,0 -2.5,-0.45 -2.5,-1 0,-0.5641 2.83333,-1 6.5,-1 3.66667,0 6.5,0.4359 6.5,1 0,0.55 -1.125,1 -2.5,1 -2.42857,0 -2.5,0.2 -2.5,7 0,5.5555 -0.30952,7 -1.5,7 -1.19048,0 -1.5,-1.4445 -1.5,-7 z m 11.57143,5.4286 c -2.0646,-2.0646 -2.07374,-10.2665 -0.0147,-13.2061 1.88806,-2.6956 5.53818,-2.8801 7.78831,-0.3938 1.8867,2.0848 2.26496,10.163 0.6198,13.237 -1.2745,2.3814 -6.16346,2.5928 -8.39341,0.3629 z m 6.23653,-5.7653 c 0.34801,-5.4452 -1.20702,-8.4069 -3.44064,-6.5532 -1.40506,1.1661 -1.85528,7.4547 -0.74149,10.3572 0.3442,0.897 1.3567,1.4922 2.25,1.3228 1.17697,-0.2233 1.70896,-1.6349 1.93213,-5.1268 z M 171,1025.3622 c 0,-7.3077 0.17143,-8 1.98095,-8 1.27902,0 2.20328,0.8858 2.60841,2.5 0.3451,1.375 0.97989,2.5 1.41064,2.5 0.43075,0 1.06554,-1.125 1.41064,-2.5 0.40513,-1.6142 1.32939,-2.5 2.60841,-2.5 1.80952,0 1.98095,0.6923 1.98095,8 0,6.4444 -0.29167,8 -1.5,8 -1.13481,0 -1.51543,-1.2782 -1.56339,-5.25 -0.0502,-4.1605 -0.25107,-4.7831 -0.96777,-3 -0.49742,1.2375 -1.38339,2.25 -1.96884,2.25 -0.58545,0 -1.47142,-1.0125 -1.96884,-2.25 -0.7167,-1.7831 -0.91754,-1.1605 -0.96777,3 -0.048,3.9718 -0.42858,5.25 -1.56339,5.25 -1.20833,0 -1.5,-1.5556 -1.5,-8 z m 70,7 c 0,-0.55 0.675,-1 1.5,-1 1.16764,0 1.5,-1.3373 1.5,-6.0352 0,-5.7253 -0.10269,-5.9802 -2,-4.9648 -1.56606,0.8381 -2,0.7605 -2,-0.3578 0,-1.5607 2.08009,-2.6422 5.08179,-2.6422 1.70826,0 1.91821,0.7661 1.91821,7 0,5.5555 0.30952,7 1.5,7 0.825,0 1.5,0.45 1.5,1 0,0.55 -2.025,1 -4.5,1 -2.475,0 -4.5,-0.45 -4.5,-1 z m 13.39521,-1.5196 c -3.24143,-4.947 -0.41315,-14.4804 4.29592,-14.4804 2.79542,0 5.30887,3.9189 5.30887,8.2775 0,7.9139 -5.96121,11.7637 -9.60479,6.2029 z m 5.9978,-1.0622 c 0.33385,-0.87 0.59698,-2.5575 0.58475,-3.75 -0.0217,-2.1138 -0.0713,-2.1055 -1.97776,0.3318 -1.07554,1.375 -1.96553,3.0625 -1.97776,3.75 -0.0321,1.804 2.65258,1.5398 3.37077,-0.3318 z m -0.96018,-10.5269 c -1.11222,-1.7996 -3.43297,1.2331 -3.42909,4.4811 l 0.004,3.1276 2.01812,-3.3101 c 1.10997,-1.8206 1.74322,-3.755 1.40723,-4.2986 z m -130.41388,-12.1413 c 0.0104,-0.1375 1.05664,-3.625 2.32494,-7.75002 1.73467,-5.64182 2.78341,-7.57112 4.23294,-7.78704 1.59469,-0.23754 2.25635,0.88318 3.83751,6.5 1.05082,3.73286 2.11062,7.34956 2.35511,8.03706 0.24449,0.6875 -0.22613,1.25 -1.04583,1.25 -0.8197,0 -1.72571,-0.9 -2.01337,-2 -0.3489,-1.3342 -1.36402,-2 -3.04924,-2 -1.64798,0 -2.74692,0.6953 -3.16101,2 -0.34913,1.1 -1.27945,2 -2.06739,2 -0.78793,0 -1.42408,-0.1125 -1.41366,-0.25 z m 7.91076,-7.50002 c -0.0976,-2.43035 -1.7634,-6.21001 -1.87308,-4.25 -0.0462,0.825 -0.35528,2.5125 -0.68692,3.75 -0.44329,1.65412 -0.17484,2.25002 1.01366,2.25002 0.89976,0 1.58546,-0.776 1.54634,-1.75002 z M 148,1000.3622 c 0,-6.80002 -0.0714,-7.00002 -2.5,-7.00002 -1.375,0 -2.5,-0.45 -2.5,-1 0,-0.5641 2.83333,-1 6.5,-1 3.66667,0 6.5,0.4359 6.5,1 0,0.55 -1.125,1 -2.5,1 -2.42857,0 -2.5,0.2 -2.5,7.00002 0,5.5555 -0.30952,7 -1.5,7 -1.19048,0 -1.5,-1.4445 -1.5,-7 z m 11.57143,5.4286 c -2.0646,-2.0646 -2.07374,-10.26646 -0.0147,-13.20611 0.85619,-1.22238 2.58645,-2.22251 3.84502,-2.22251 3.66724,0 5.59828,3.02069 5.59828,8.75731 0,5.68871 -1.70415,8.24271 -5.5,8.24271 -1.29643,0 -3.06429,-0.7072 -3.92857,-1.5714 z m 6.23653,-5.7653 c 0.34801,-5.44517 -1.20702,-8.40694 -3.44064,-6.55321 -1.40506,1.1661 -1.85528,7.45471 -0.74149,10.35721 0.3442,0.897 1.3567,1.4922 2.25,1.3228 1.17697,-0.2233 1.70896,-1.6349 1.93213,-5.1268 z M 171,999.36218 c 0,-7.30769 0.17143,-8 1.98095,-8 1.27902,0 2.20328,0.88585 2.60841,2.5 0.3451,1.375 0.97989,2.5 1.41064,2.5 0.43075,0 1.06554,-1.125 1.41064,-2.5 0.40513,-1.61415 1.32939,-2.5 2.60841,-2.5 1.80952,0 1.98095,0.69231 1.98095,8 0,6.44442 -0.29167,8.00002 -1.5,8.00002 -1.13481,0 -1.51543,-1.2782 -1.56339,-5.25 -0.0502,-4.16048 -0.25107,-4.78308 -0.96777,-3.00002 -0.49742,1.23752 -1.38339,2.25002 -1.96884,2.25002 -0.58545,0 -1.47142,-1.0125 -1.96884,-2.25002 -0.7167,-1.78306 -0.91754,-1.16046 -0.96777,3.00002 -0.048,3.9718 -0.42858,5.25 -1.56339,5.25 -1.20833,0 -1.5,-1.5556 -1.5,-8.00002 z m 83,6.43262 c 0,-1.1246 0.57862,-1.3838 2.04799,-0.9174 2.01694,0.6402 4.95201,-0.9232 4.95201,-2.6377 0,-0.4826 -1.26,-0.8775 -2.8,-0.8775 -3.53323,0 -5.2,-1.64389 -5.2,-5.12859 0,-5.50783 6.40718,-7.98359 9.4433,-3.64892 0.85618,1.22237 1.5567,4.04725 1.5567,6.27749 0,5.60852 -2.23039,8.50002 -6.5567,8.50002 -2.45984,0 -3.4433,-0.4477 -3.4433,-1.5674 z m 6.79826,-9.03034 c 0.33398,-2.32612 -2.14708,-4.92276 -3.75446,-3.92935 -1.17665,0.72721 -1.41466,4.82288 -0.34256,5.89497 1.31177,1.31182 3.79769,0.1191 4.09702,-1.96562 z"
         id="path11216"
         style="fill:#e3ca94"
         inkscape:connector-curvature="0"
         sodipodi:nodetypes="csccssssscscsssssssssssssccssssscsssssssssscsccsssssssssssssssssscssscccscccssssssssscscsssssssssssscssssccssscssssssssssssscssssssssssssscs" />
      <path
         d="m 129.97522,1030.6122 c 0.47915,-1.5125 1.6169,-5.1125 2.52834,-8 1.12903,-3.5768 2.18928,-5.2496 3.32681,-5.2486 1.5381,0 2.64034,2.659 5.90929,14.2486 0.32396,1.1485 -0.062,1.75 -1.12303,1.75 -0.94996,0 -1.61663,-0.8248 -1.61663,-2 0,-1.5454 -0.66667,-2 -2.93261,-2 -2.05436,0 -3.12272,0.5989 -3.56739,2 -0.34913,1.1 -1.25604,2 -2.01537,2 -1.05063,0 -1.17238,-0.6573 -0.50941,-2.75 z m 7.00947,-5.5 c -0.0182,-2.6683 -1.93396,-6.2912 -1.98303,-3.75 -0.0159,0.825 -0.30031,2.5125 -0.63195,3.75 -0.44329,1.6541 -0.17484,2.25 1.01366,2.25 1.01438,0 1.61092,-0.8382 1.60132,-2.25 z m 12.01531,1.25 c 0,-6.7549 -0.0855,-7 -2.44098,-7 -1.34254,0 -2.7191,-0.45 -3.05902,-1 -0.38803,-0.6279 1.82295,-1 5.94098,-1 3.70601,0 6.55902,0.435 6.55902,1 0,0.55 -1.125,1 -2.5,1 -2.42857,0 -2.5,0.2 -2.5,7 0,4 -0.42857,7 -1,7 -0.57143,0 -1,-3 -1,-7 z m 10.5567,4.7775 c -3.17045,-4.5265 -1.3736,-13.2834 2.94823,-14.3681 4.08602,-1.0255 6.49507,1.8717 6.49507,7.8113 0,2.7009 -0.46583,5.7812 -1.03518,6.845 -1.46332,2.7343 -6.40987,2.5647 -8.40812,-0.2882 z m 6.40996,-1.7152 c 1.17113,-2.1883 0.58879,-8.9069 -0.90116,-10.3968 -2.73701,-2.737 -5.4264,5.6244 -3.45851,10.7527 0.83341,2.1718 3.10617,1.9863 4.35967,-0.3559 z M 171,1025.3622 c 0,-7.1962 0.19112,-8 1.90217,-8 1.22846,0 2.33544,1.1511 3.12544,3.25 l 1.22326,3.25 1.01922,-3.25 c 0.66881,-2.1327 1.65711,-3.25 2.87457,-3.25 1.65251,0 1.85534,0.8746 1.85534,8 0,9.1505 -1.74021,10.9179 -2.21547,2.25 -0.29879,-5.4496 -0.37849,-5.6063 -1.52515,-3 -0.66543,1.5125 -1.63352,2.75 -2.1513,2.75 -0.51778,0 -1.39339,-1.2375 -1.9458,-2.75 -0.8829,-2.4174 -1.01393,-2.0545 -1.08333,3 -0.0605,4.4093 -0.42868,5.75 -1.57895,5.75 -1.20833,0 -1.5,-1.5556 -1.5,-8 z m 70,7 c 0,-0.55 0.675,-1 1.5,-1 1.16764,0 1.5,-1.3373 1.5,-6.0352 0,-5.7253 -0.10269,-5.9802 -2,-4.9648 -1.56606,0.8381 -2,0.7605 -2,-0.3578 0,-1.5607 2.08009,-2.6422 5.08179,-2.6422 1.70826,0 1.91821,0.7661 1.91821,7 0,5.5555 0.30952,7 1.5,7 0.825,0 1.5,0.45 1.5,1 0,0.55 -2.025,1 -4.5,1 -2.475,0 -4.5,-0.45 -4.5,-1 z m 14.08881,-0.393 c -1.09103,-1.3146 -1.5842,-5.4002 -1.24159,-10.2856 0.17727,-2.5277 2.65743,-5.3214 4.72421,-5.3214 0.78571,0 2.32857,0.9 3.42857,2 2.46487,2.4649 2.71036,9.5408 0.4433,12.7775 -1.75125,2.5002 -5.60697,2.9351 -7.35449,0.8295 z m 5.93594,-3.1721 c 1.83791,-4.8341 1.11651,-6.195 -1.55575,-2.9349 -1.35248,1.65 -2.4613,3.5625 -2.46403,4.25 -0.009,2.2847 3.02901,1.2908 4.01978,-1.3151 z m -2.50956,-5.4643 c 1.77779,-3.4379 1.12379,-5.7458 -1.10422,-3.8967 -1.27799,1.0606 -2.07121,6.9261 -0.93665,6.9261 0.26088,0 1.17927,-1.3632 2.04087,-3.0294 z m -128.53997,-18.7206 c 0.47915,-1.5125 1.6169,-5.11252 2.52834,-8.00002 2.38782,-7.56474 4.49863,-7.10729 6.92139,1.5 1.04498,3.71252 2.10001,7.31252 2.3445,8.00002 0.24449,0.6875 -0.27862,1.25 -1.16246,1.25 -0.94032,0 -1.60699,-0.8297 -1.60699,-2 0,-1.5454 -0.66667,-2 -2.93261,-2 -2.05436,0 -3.12272,0.5989 -3.56739,2 -0.34913,1.1 -1.25604,2 -2.01537,2 -1.05063,0 -1.17238,-0.6573 -0.50941,-2.75 z m 7.00947,-5.50002 c -0.0182,-2.66827 -1.93396,-6.29113 -1.98303,-3.75 -0.0159,0.825 -0.30031,2.5125 -0.63195,3.75 -0.44329,1.65412 -0.17484,2.25002 1.01366,2.25002 1.01438,0 1.61092,-0.8382 1.60132,-2.25002 z M 149,1000.3622 c 0,-6.75489 -0.0855,-7.00002 -2.44098,-7.00002 -1.34254,0 -2.7191,-0.45 -3.05902,-1 -0.38803,-0.62784 1.82295,-1 5.94098,-1 3.70601,0 6.55902,0.43497 6.55902,1 0,0.55 -1.125,1 -2.5,1 -2.42857,0 -2.5,0.2 -2.5,7.00002 0,4 -0.42857,7 -1,7 -0.57143,0 -1,-3 -1,-7 z m 10.5567,4.7775 c -1.76305,-2.5171 -2.02268,-7.42169 -0.59207,-11.18449 1.27975,-3.36599 5.45411,-4.42904 8.07567,-2.05656 2.52096,2.28143 2.77866,11.50175 0.38827,13.89215 -2.2554,2.2553 -6.05628,1.941 -7.87187,-0.6511 z m 6.40996,-1.7152 c 1.17113,-2.1883 0.58879,-8.90687 -0.90116,-10.39682 -2.73701,-2.73701 -5.4264,5.62447 -3.45851,10.75272 0.83341,2.1718 3.10617,1.9863 4.35967,-0.3559 z M 171,999.36218 c 0,-7.19619 0.19112,-8 1.90217,-8 1.22846,0 2.33544,1.1511 3.12544,3.25 l 1.22326,3.25 1.01922,-3.25 c 0.66881,-2.13263 1.65711,-3.25 2.87457,-3.25 1.65251,0 1.85534,0.87459 1.85534,8 0,9.15052 -1.74021,10.91792 -2.21547,2.25002 -0.29879,-5.44956 -0.37849,-5.60632 -1.52515,-3.00002 -0.66543,1.51252 -1.63352,2.75002 -2.1513,2.75002 -0.51778,0 -1.39339,-1.2375 -1.9458,-2.75002 -0.8829,-2.41738 -1.01393,-2.05453 -1.08333,3.00002 -0.0605,4.4093 -0.42868,5.75 -1.57895,5.75 -1.20833,0 -1.5,-1.5556 -1.5,-8.00002 z m 84,6.59362 c 0,-0.8763 0.69764,-1.2239 1.85092,-0.9224 1.01801,0.2663 2.6782,-0.3384 3.68932,-1.3436 1.78271,-1.7723 1.72674,-1.837 -1.84795,-2.1378 -4.05773,-0.3414 -5.89817,-2.52449 -5.19715,-6.16461 0.62406,-3.24047 2.42492,-5.02521 5.0706,-5.02521 3.14134,0 5.43426,3.58647 5.43426,8.5 0,5.32602 -2.26161,8.50002 -6.0567,8.50002 -1.86252,0 -2.9433,-0.5164 -2.9433,-1.4064 z m 5.5,-10.10732 c 0,-2.31277 -0.44799,-2.9863 -1.9863,-2.9863 -2.07927,0 -3.10726,2.51082 -2.1013,5.13232 1.04496,2.7231 4.0876,1.12572 4.0876,-2.14602 z"
         id="path11214"
         style="fill:#fbf926"
         inkscape:connector-curvature="0"
         sodipodi:nodetypes="ssccssscssccsscsscssssssssscsscssssscssssssssssssssssssssssssscssscsscssssssssscssccsscsssssssssssscsssssssscssssssssssscscsssssssss" />
      <path
         d="m 131.49477,1077.7782 c 1.28696,-4.1712 2.58271,-7.8268 2.87945,-8.1236 1.502,-1.502 3.49167,1.1689 5.07534,6.8131 0.97056,3.459 1.9896,6.8753 2.26453,7.5918 0.28289,0.7372 -0.1977,1.3027 -1.1071,1.3027 -0.94032,0 -1.60699,-0.8297 -1.60699,-2 0,-1.569 -0.66667,-2 -3.09362,-2 -2.25262,0 -3.2358,0.5437 -3.61663,2 -0.28766,1.1 -1.11069,2 -1.82896,2 -0.98371,0 -0.72858,-1.8714 1.03398,-7.584 z m 5.48992,-0.666 c -0.008,-1.2375 -0.39599,-2.8506 -0.86127,-3.5846 -0.63183,-0.9967 -1.00415,-0.7436 -1.47103,1 -0.97878,3.6556 -0.77207,4.8346 0.84761,4.8346 0.89343,0 1.49381,-0.9099 1.48469,-2.25 z m 12.01531,1.25 c 0,-6.7549 -0.0855,-7 -2.44098,-7 -1.34254,0 -2.7191,-0.45 -3.05902,-1 -0.38803,-0.6279 1.82295,-1 5.94098,-1 3.70601,0 6.55902,0.435 6.55902,1 0,0.55 -1.125,1 -2.5,1 -2.42857,0 -2.5,0.2 -2.5,7 0,4 -0.42857,7 -1,7 -0.57143,0 -1,-3 -1,-7 z m 10.5567,4.7775 c -3.22502,-4.6044 -1.37058,-13.2842 3.07665,-14.4003 2.10652,-0.5287 3.10877,-0.179 4.53537,1.5828 2.34736,2.8989 2.50791,11.2205 0.25985,13.4686 -2.2554,2.2553 -6.05628,1.941 -7.87187,-0.6511 z m 6.40724,-2.1827 c 1.05662,-2.7791 0.5411,-8.4898 -0.89615,-9.927 -1.93596,-1.936 -4.06779,1.3594 -4.06779,6.288 0,2.5909 0.3,5.0108 0.66667,5.3775 1.39373,1.3937 3.41771,0.5749 4.29727,-1.7385 z M 171,1077.3622 c 0,-7.223 0.18653,-8 1.92054,-8 1.32085,0 2.1263,0.9367 2.57946,3 0.3624,1.65 1.0374,3 1.5,3 0.4626,0 1.1376,-1.35 1.5,-3 0.45316,-2.0633 1.25861,-3 2.57945,-3 1.73402,0 1.92055,0.777 1.92055,8 0,9.1505 -1.74021,10.9179 -2.21547,2.25 -0.29879,-5.4496 -0.37849,-5.6063 -1.52515,-3 -1.58691,3.607 -2.77096,3.4719 -4.38184,-0.5 l -1.31811,-3.25 -0.32743,6.25 c -0.47453,9.0577 -2.232,7.6797 -2.232,-1.75 z m 70,7 c 0,-0.55 0.675,-1 1.5,-1 1.16764,0 1.5,-1.3373 1.5,-6.0352 0,-5.7253 -0.10269,-5.9802 -2,-4.9648 -1.56606,0.8381 -2,0.7605 -2,-0.3578 0,-1.4608 2.04866,-2.6422 4.58179,-2.6422 1.08089,0 1.41821,1.5683 1.41821,6.5936 0,5.7526 0.2551,6.6603 2,7.1166 3.584,0.9373 2.1073,2.2898 -2.5,2.2898 -2.475,0 -4.5,-0.45 -4.5,-1 z m 13,-0.32 c 0,-0.726 1.575,-3.1601 3.5,-5.409 3.88707,-4.5411 4.15601,-5.4817 2.06392,-7.218 -1.06596,-0.8846 -1.96801,-0.9071 -3.5,-0.087 -1.66339,0.8902 -2.06392,0.8103 -2.06392,-0.4116 0,-2.0152 4.28092,-3.0094 6.90686,-1.6041 3.01701,1.6147 2.62967,5.5846 -0.99089,10.156 l -3.08403,3.8939 3.08403,0 c 1.69622,0 3.08403,0.45 3.08403,1 0,0.55 -2.025,1 -4.5,1 -3.06061,0 -4.5,-0.4222 -4.5,-1.32 z m -122.50523,-32.264 c 1.28696,-4.1712 2.58271,-7.8268 2.87945,-8.1236 1.502,-1.502 3.49167,1.1689 5.07534,6.8131 0.97056,3.459 1.9896,6.8753 2.26453,7.5918 0.28289,0.7372 -0.1977,1.3027 -1.1071,1.3027 -0.94032,0 -1.60699,-0.8297 -1.60699,-2 0,-1.569 -0.66667,-2 -3.09362,-2 -2.25262,0 -3.2358,0.5437 -3.61663,2 -0.28766,1.1 -1.11069,2 -1.82896,2 -0.98371,0 -0.72858,-1.8714 1.03398,-7.584 z m 5.48992,-0.666 c -0.008,-1.2375 -0.39599,-2.8506 -0.86127,-3.5846 -0.63183,-0.9967 -1.00415,-0.7436 -1.47103,1 -0.97878,3.6556 -0.77207,4.8346 0.84761,4.8346 0.89343,0 1.49381,-0.9099 1.48469,-2.25 z m 12.01531,1.25 c 0,-6.7549 -0.0855,-7 -2.44098,-7 -1.34254,0 -2.7191,-0.45 -3.05902,-1 -0.38803,-0.6279 1.82295,-1 5.94098,-1 3.70601,0 6.55902,0.435 6.55902,1 0,0.55 -1.125,1 -2.5,1 -2.42857,0 -2.5,0.2 -2.5,7 0,4 -0.42857,7 -1,7 -0.57143,0 -1,-3 -1,-7 z m 10.5567,4.7775 c -3.22502,-4.6044 -1.37058,-13.2842 3.07665,-14.4003 2.10652,-0.5287 3.10877,-0.179 4.53537,1.5828 2.34736,2.8989 2.50791,11.2205 0.25985,13.4686 -2.2554,2.2553 -6.05628,1.941 -7.87187,-0.6511 z m 6.40724,-2.1827 c 1.05662,-2.7791 0.5411,-8.4898 -0.89615,-9.927 -1.93596,-1.936 -4.06779,1.3594 -4.06779,6.288 0,2.5909 0.3,5.0108 0.66667,5.3775 1.39373,1.3937 3.41771,0.5749 4.29727,-1.7385 z M 171,1051.3622 c 0,-7.223 0.18653,-8 1.92054,-8 1.32085,0 2.1263,0.9367 2.57946,3 0.3624,1.65 1.0374,3 1.5,3 0.4626,0 1.1376,-1.35 1.5,-3 0.45316,-2.0633 1.25861,-3 2.57945,-3 1.73402,0 1.92055,0.777 1.92055,8 0,9.1505 -1.74021,10.9179 -2.21547,2.25 -0.29879,-5.4496 -0.37849,-5.6063 -1.52515,-3 -1.58691,3.607 -2.77096,3.4719 -4.38184,-0.5 l -1.31811,-3.25 -0.32743,6.25 c -0.47453,9.0577 -2.232,7.6797 -2.232,-1.75 z m 70,7 c 0,-0.55 0.675,-1 1.5,-1 1.16764,0 1.5,-1.3373 1.5,-6.0352 0,-5.7253 -0.10269,-5.9802 -2,-4.9648 -1.56606,0.8381 -2,0.7605 -2,-0.3578 0,-1.4608 2.04866,-2.6422 4.58179,-2.6422 1.08089,0 1.41821,1.5683 1.41821,6.5936 0,5.7526 0.2551,6.6603 2,7.1166 3.584,0.9373 2.1073,2.2898 -2.5,2.2898 -2.475,0 -4.5,-0.45 -4.5,-1 z m 14,0 c 0,-0.55 0.675,-1 1.5,-1 1.16764,0 1.5,-1.3373 1.5,-6.0352 0,-5.7253 -0.10269,-5.9802 -2,-4.9648 -1.56606,0.8381 -2,0.7605 -2,-0.3578 0,-1.4608 2.04866,-2.6422 4.58179,-2.6422 1.08089,0 1.41821,1.5683 1.41821,6.5936 0,5.7526 0.2551,6.6603 2,7.1166 3.584,0.9373 2.1073,2.2898 -2.5,2.2898 -2.475,0 -4.5,-0.45 -4.5,-1 z m -125.02478,-27.75 c 0.47915,-1.5125 1.6169,-5.1125 2.52834,-8 1.12903,-3.5768 2.18928,-5.2496 3.32681,-5.2486 1.5381,0 2.64034,2.659 5.90929,14.2486 0.32396,1.1485 -0.062,1.75 -1.12303,1.75 -0.94996,0 -1.61663,-0.8248 -1.61663,-2 0,-1.5454 -0.66667,-2 -2.93261,-2 -2.05436,0 -3.12272,0.5989 -3.56739,2 -0.34913,1.1 -1.25604,2 -2.01537,2 -1.05063,0 -1.17238,-0.6573 -0.50941,-2.75 z m 7.00947,-5.5 c -0.0182,-2.6683 -1.93396,-6.2912 -1.98303,-3.75 -0.0159,0.825 -0.30031,2.5125 -0.63195,3.75 -0.44329,1.6541 -0.17484,2.25 1.01366,2.25 1.01438,0 1.61092,-0.8382 1.60132,-2.25 z m 12.01531,1.25 c 0,-6.7549 -0.0855,-7 -2.44098,-7 -1.34254,0 -2.7191,-0.45 -3.05902,-1 -0.38803,-0.6279 1.82295,-1 5.94098,-1 3.70601,0 6.55902,0.435 6.55902,1 0,0.55 -1.125,1 -2.5,1 -2.42857,0 -2.5,0.2 -2.5,7 0,4 -0.42857,7 -1,7 -0.57143,0 -1,-3 -1,-7 z m 10.5567,4.7775 c -3.17045,-4.5265 -1.3736,-13.2834 2.94823,-14.3681 4.08602,-1.0255 6.49507,1.8717 6.49507,7.8113 0,2.7009 -0.46583,5.7812 -1.03518,6.845 -1.46332,2.7343 -6.40987,2.5647 -8.40812,-0.2882 z m 6.40996,-1.7152 c 1.17113,-2.1883 0.58879,-8.9069 -0.90116,-10.3968 -2.73701,-2.737 -5.4264,5.6244 -3.45851,10.7527 0.83341,2.1718 3.10617,1.9863 4.35967,-0.3559 z M 171,1025.3622 c 0,-7.1962 0.19112,-8 1.90217,-8 1.22846,0 2.33544,1.1511 3.12544,3.25 l 1.22326,3.25 1.01922,-3.25 c 0.66881,-2.1327 1.65711,-3.25 2.87457,-3.25 1.65251,0 1.85534,0.8746 1.85534,8 0,9.1505 -1.74021,10.9179 -2.21547,2.25 -0.29879,-5.4496 -0.37849,-5.6063 -1.52515,-3 -0.66543,1.5125 -1.63352,2.75 -2.1513,2.75 -0.51778,0 -1.39339,-1.2375 -1.9458,-2.75 -0.8829,-2.4174 -1.01393,-2.0545 -1.08333,3 -0.0605,4.4093 -0.42868,5.75 -1.57895,5.75 -1.20833,0 -1.5,-1.5556 -1.5,-8 z m 70,7 c 0,-0.55 0.675,-1 1.5,-1 1.16764,0 1.5,-1.3373 1.5,-6.0352 0,-5.7253 -0.10269,-5.9802 -2,-4.9648 -1.56606,0.8381 -2,0.7605 -2,-0.3578 0,-1.5607 2.08009,-2.6422 5.08179,-2.6422 1.70826,0 1.91821,0.7661 1.91821,7 0,5.5555 0.30952,7 1.5,7 0.825,0 1.5,0.45 1.5,1 0,0.55 -2.025,1 -4.5,1 -2.475,0 -4.5,-0.45 -4.5,-1 z m 14.08881,-0.393 c -1.09103,-1.3146 -1.5842,-5.4002 -1.24159,-10.2856 0.17727,-2.5277 2.65743,-5.3214 4.72421,-5.3214 0.78571,0 2.32857,0.9 3.42857,2 2.46487,2.4649 2.71036,9.5408 0.4433,12.7775 -1.75125,2.5002 -5.60697,2.9351 -7.35449,0.8295 z m 5.93594,-3.1721 c 1.83791,-4.8341 1.11651,-6.195 -1.55575,-2.9349 -1.35248,1.65 -2.4613,3.5625 -2.46403,4.25 -0.009,2.2847 3.02901,1.2908 4.01978,-1.3151 z m -2.50956,-5.4643 c 1.77779,-3.4379 1.12379,-5.7458 -1.10422,-3.8967 -1.27799,1.0606 -2.07121,6.9261 -0.93665,6.9261 0.26088,0 1.17927,-1.3632 2.04087,-3.0294 z m -128.53997,-18.7206 c 0.47915,-1.5125 1.6169,-5.11252 2.52834,-8.00002 2.38782,-7.56474 4.49863,-7.10729 6.92139,1.5 1.04498,3.71252 2.10001,7.31252 2.3445,8.00002 0.24449,0.6875 -0.27862,1.25 -1.16246,1.25 -0.94032,0 -1.60699,-0.8297 -1.60699,-2 0,-1.5454 -0.66667,-2 -2.93261,-2 -2.05436,0 -3.12272,0.5989 -3.56739,2 -0.34913,1.1 -1.25604,2 -2.01537,2 -1.05063,0 -1.17238,-0.6573 -0.50941,-2.75 z m 7.00947,-5.50002 c -0.0182,-2.66827 -1.93396,-6.29113 -1.98303,-3.75 -0.0159,0.825 -0.30031,2.5125 -0.63195,3.75 -0.44329,1.65412 -0.17484,2.25002 1.01366,2.25002 1.01438,0 1.61092,-0.8382 1.60132,-2.25002 z M 149,1000.3622 c 0,-6.75489 -0.0855,-7.00002 -2.44098,-7.00002 -1.34254,0 -2.7191,-0.45 -3.05902,-1 -0.38803,-0.62784 1.82295,-1 5.94098,-1 3.70601,0 6.55902,0.43497 6.55902,1 0,0.55 -1.125,1 -2.5,1 -2.42857,0 -2.5,0.2 -2.5,7.00002 0,4 -0.42857,7 -1,7 -0.57143,0 -1,-3 -1,-7 z m 10.5567,4.7775 c -1.76305,-2.5171 -2.02268,-7.42169 -0.59207,-11.18449 1.27975,-3.36599 5.45411,-4.42904 8.07567,-2.05656 2.52096,2.28143 2.77866,11.50175 0.38827,13.89215 -2.2554,2.2553 -6.05628,1.941 -7.87187,-0.6511 z m 6.40996,-1.7152 c 1.17113,-2.1883 0.58879,-8.90687 -0.90116,-10.39682 -2.73701,-2.73701 -5.4264,5.62447 -3.45851,10.75272 0.83341,2.1718 3.10617,1.9863 4.35967,-0.3559 z M 171,999.36218 c 0,-7.19619 0.19112,-8 1.90217,-8 1.22846,0 2.33544,1.1511 3.12544,3.25 l 1.22326,3.25 1.01922,-3.25 c 0.66881,-2.13263 1.65711,-3.25 2.87457,-3.25 1.65251,0 1.85534,0.87459 1.85534,8 0,9.15052 -1.74021,10.91792 -2.21547,2.25002 -0.29879,-5.44956 -0.37849,-5.60632 -1.52515,-3.00002 -0.66543,1.51252 -1.63352,2.75002 -2.1513,2.75002 -0.51778,0 -1.39339,-1.2375 -1.9458,-2.75002 -0.8829,-2.41738 -1.01393,-2.05453 -1.08333,3.00002 -0.0605,4.4093 -0.42868,5.75 -1.57895,5.75 -1.20833,0 -1.5,-1.5556 -1.5,-8.00002 z m 84,6.59362 c 0,-0.8763 0.69764,-1.2239 1.85092,-0.9224 1.01801,0.2663 2.6782,-0.3384 3.68932,-1.3436 1.78271,-1.7723 1.72674,-1.837 -1.84795,-2.1378 -4.05773,-0.3414 -5.89817,-2.52449 -5.19715,-6.16461 0.62406,-3.24047 2.42492,-5.02521 5.0706,-5.02521 3.14134,0 5.43426,3.58647 5.43426,8.5 0,5.32602 -2.26161,8.50002 -6.0567,8.50002 -1.86252,0 -2.9433,-0.5164 -2.9433,-1.4064 z m 5.5,-10.10732 c 0,-2.31277 -0.44799,-2.9863 -1.9863,-2.9863 -2.07927,0 -3.10726,2.51082 -2.1013,5.13232 1.04496,2.7231 4.0876,1.12572 4.0876,-2.14602 z"
         id="path11212"
         style="fill:#61aed4"
         inkscape:connector-curvature="0"
         sodipodi:nodetypes="scscsssssscccscsscssssssscscsscscssssssssssscssssssssscssssccscscsssssscscsssssscccscsscssssssscscsscscssssssssssscssssssssscssssssssscssssccssscssccsscsscssssssssscsscssssscssssssssssssssssssssssssscssscsscssssssssscssccsscsssssssssssscsssssssscssssssssssscscsssssssss" />
      <path
         d="m 131.49477,1077.7782 c 1.28696,-4.1712 2.58271,-7.8268 2.87945,-8.1236 1.502,-1.502 3.49167,1.1689 5.07534,6.8131 0.97056,3.459 1.9896,6.8753 2.26453,7.5918 0.28289,0.7372 -0.1977,1.3027 -1.1071,1.3027 -0.94032,0 -1.60699,-0.8297 -1.60699,-2 0,-1.569 -0.66667,-2 -3.09362,-2 -2.25262,0 -3.2358,0.5437 -3.61663,2 -0.28766,1.1 -1.11069,2 -1.82896,2 -0.98371,0 -0.72858,-1.8714 1.03398,-7.584 z m 5.48992,-0.666 c -0.008,-1.2375 -0.39599,-2.8506 -0.86127,-3.5846 -0.63183,-0.9967 -1.00415,-0.7436 -1.47103,1 -0.97878,3.6556 -0.77207,4.8346 0.84761,4.8346 0.89343,0 1.49381,-0.9099 1.48469,-2.25 z m 12.01531,1.25 c 0,-6.7549 -0.0855,-7 -2.44098,-7 -1.34254,0 -2.7191,-0.45 -3.05902,-1 -0.38803,-0.6279 1.82295,-1 5.94098,-1 3.70601,0 6.55902,0.435 6.55902,1 0,0.55 -1.125,1 -2.5,1 -2.42857,0 -2.5,0.2 -2.5,7 0,4 -0.42857,7 -1,7 -0.57143,0 -1,-3 -1,-7 z m 10.5567,4.7775 c -3.22502,-4.6044 -1.37058,-13.2842 3.07665,-14.4003 2.10652,-0.5287 3.10877,-0.179 4.53537,1.5828 2.34736,2.8989 2.50791,11.2205 0.25985,13.4686 -2.2554,2.2553 -6.05628,1.941 -7.87187,-0.6511 z m 6.40724,-2.1827 c 1.05662,-2.7791 0.5411,-8.4898 -0.89615,-9.927 -1.93596,-1.936 -4.06779,1.3594 -4.06779,6.288 0,2.5909 0.3,5.0108 0.66667,5.3775 1.39373,1.3937 3.41771,0.5749 4.29727,-1.7385 z M 171,1077.3622 c 0,-7.223 0.18653,-8 1.92054,-8 1.32085,0 2.1263,0.9367 2.57946,3 0.3624,1.65 1.0374,3 1.5,3 0.4626,0 1.1376,-1.35 1.5,-3 0.45316,-2.0633 1.25861,-3 2.57945,-3 1.73402,0 1.92055,0.777 1.92055,8 0,9.1505 -1.74021,10.9179 -2.21547,2.25 -0.29879,-5.4496 -0.37849,-5.6063 -1.52515,-3 -1.58691,3.607 -2.77096,3.4719 -4.38184,-0.5 l -1.31811,-3.25 -0.32743,6.25 c -0.47453,9.0577 -2.232,7.6797 -2.232,-1.75 z m 70,7 c 0,-0.55 0.675,-1 1.5,-1 1.16764,0 1.5,-1.3373 1.5,-6.0352 0,-5.7253 -0.10269,-5.9802 -2,-4.9648 -1.56606,0.8381 -2,0.7605 -2,-0.3578 0,-1.4608 2.04866,-2.6422 4.58179,-2.6422 1.08089,0 1.41821,1.5683 1.41821,6.5936 0,5.7526 0.2551,6.6603 2,7.1166 3.584,0.9373 2.1073,2.2898 -2.5,2.2898 -2.475,0 -4.5,-0.45 -4.5,-1 z m 13,-0.32 c 0,-0.726 1.575,-3.1601 3.5,-5.409 3.88707,-4.5411 4.15601,-5.4817 2.06392,-7.218 -1.06596,-0.8846 -1.96801,-0.9071 -3.5,-0.087 -1.66339,0.8902 -2.06392,0.8103 -2.06392,-0.4116 0,-2.0152 4.28092,-3.0094 6.90686,-1.6041 3.01701,1.6147 2.62967,5.5846 -0.99089,10.156 l -3.08403,3.8939 3.08403,0 c 1.69622,0 3.08403,0.45 3.08403,1 0,0.55 -2.025,1 -4.5,1 -3.06061,0 -4.5,-0.4222 -4.5,-1.32 z m -122.50523,-32.264 c 1.28696,-4.1712 2.58271,-7.8268 2.87945,-8.1236 1.502,-1.502 3.49167,1.1689 5.07534,6.8131 0.97056,3.459 1.9896,6.8753 2.26453,7.5918 0.28289,0.7372 -0.1977,1.3027 -1.1071,1.3027 -0.94032,0 -1.60699,-0.8297 -1.60699,-2 0,-1.569 -0.66667,-2 -3.09362,-2 -2.25262,0 -3.2358,0.5437 -3.61663,2 -0.28766,1.1 -1.11069,2 -1.82896,2 -0.98371,0 -0.72858,-1.8714 1.03398,-7.584 z m 5.48992,-0.666 c -0.008,-1.2375 -0.39599,-2.8506 -0.86127,-3.5846 -0.63183,-0.9967 -1.00415,-0.7436 -1.47103,1 -0.97878,3.6556 -0.77207,4.8346 0.84761,4.8346 0.89343,0 1.49381,-0.9099 1.48469,-2.25 z m 12.01531,1.25 c 0,-6.7549 -0.0855,-7 -2.44098,-7 -1.34254,0 -2.7191,-0.45 -3.05902,-1 -0.38803,-0.6279 1.82295,-1 5.94098,-1 3.70601,0 6.55902,0.435 6.55902,1 0,0.55 -1.125,1 -2.5,1 -2.42857,0 -2.5,0.2 -2.5,7 0,4 -0.42857,7 -1,7 -0.57143,0 -1,-3 -1,-7 z m 10.5567,4.7775 c -3.22502,-4.6044 -1.37058,-13.2842 3.07665,-14.4003 2.10652,-0.5287 3.10877,-0.179 4.53537,1.5828 2.34736,2.8989 2.50791,11.2205 0.25985,13.4686 -2.2554,2.2553 -6.05628,1.941 -7.87187,-0.6511 z m 6.40724,-2.1827 c 1.05662,-2.7791 0.5411,-8.4898 -0.89615,-9.927 -1.93596,-1.936 -4.06779,1.3594 -4.06779,6.288 0,2.5909 0.3,5.0108 0.66667,5.3775 1.39373,1.3937 3.41771,0.5749 4.29727,-1.7385 z M 171,1051.3622 c 0,-7.223 0.18653,-8 1.92054,-8 1.32085,0 2.1263,0.9367 2.57946,3 0.3624,1.65 1.0374,3 1.5,3 0.4626,0 1.1376,-1.35 1.5,-3 0.45316,-2.0633 1.25861,-3 2.57945,-3 1.73402,0 1.92055,0.777 1.92055,8 0,9.1505 -1.74021,10.9179 -2.21547,2.25 -0.29879,-5.4496 -0.37849,-5.6063 -1.52515,-3 -1.58691,3.607 -2.77096,3.4719 -4.38184,-0.5 l -1.31811,-3.25 -0.32743,6.25 c -0.47453,9.0577 -2.232,7.6797 -2.232,-1.75 z m 70,7 c 0,-0.55 0.675,-1 1.5,-1 1.16764,0 1.5,-1.3373 1.5,-6.0352 0,-5.7253 -0.10269,-5.9802 -2,-4.9648 -1.56606,0.8381 -2,0.7605 -2,-0.3578 0,-1.4608 2.04866,-2.6422 4.58179,-2.6422 1.08089,0 1.41821,1.5683 1.41821,6.5936 0,5.7526 0.2551,6.6603 2,7.1166 3.584,0.9373 2.1073,2.2898 -2.5,2.2898 -2.475,0 -4.5,-0.45 -4.5,-1 z m 14,0 c 0,-0.55 0.675,-1 1.5,-1 1.16764,0 1.5,-1.3373 1.5,-6.0352 0,-5.7253 -0.10269,-5.9802 -2,-4.9648 -1.56606,0.8381 -2,0.7605 -2,-0.3578 0,-1.4608 2.04866,-2.6422 4.58179,-2.6422 1.08089,0 1.41821,1.5683 1.41821,6.5936 0,5.7526 0.2551,6.6603 2,7.1166 3.584,0.9373 2.1073,2.2898 -2.5,2.2898 -2.475,0 -4.5,-0.45 -4.5,-1 z m -123.50523,-32.584 c 1.28696,-4.1712 2.58271,-7.8268 2.87945,-8.1236 1.45992,-1.4599 3.39873,1.0702 4.86754,6.352 0.8956,3.2206 1.93073,6.6431 2.30029,7.6056 0.46821,1.2194 0.18471,1.75 -0.93506,1.75 -0.94032,0 -1.60699,-0.8297 -1.60699,-2 0,-1.569 -0.66667,-2 -3.09362,-2 -2.25262,0 -3.2358,0.5437 -3.61663,2 -0.28766,1.1 -1.11069,2 -1.82896,2 -0.98371,0 -0.72858,-1.8714 1.03398,-7.584 z m 5.48992,-0.666 c -0.008,-1.2375 -0.39599,-2.8506 -0.86127,-3.5846 -0.63183,-0.9967 -1.00415,-0.7436 -1.47103,1 -0.97878,3.6556 -0.77207,4.8346 0.84761,4.8346 0.89343,0 1.49381,-0.9099 1.48469,-2.25 z m 12.01531,1.25 c 0,-6.7549 -0.0855,-7 -2.44098,-7 -1.34254,0 -2.7191,-0.45 -3.05902,-1 -0.38824,-0.6282 1.84262,-1 6,-1 4.15738,0 6.38824,0.3718 6,1 -0.33992,0.55 -1.49148,1 -2.55902,1 -1.73645,0 -1.94098,0.7376 -1.94098,7 0,4 -0.42857,7 -1,7 -0.57143,0 -1,-3 -1,-7 z m 10.39521,4.4804 c -3.24143,-4.947 -0.41315,-14.4804 4.29592,-14.4804 2.79542,0 5.30887,3.9189 5.30887,8.2775 0,7.9139 -5.96121,11.7637 -9.60479,6.2029 z m 6.57145,-1.4181 c 1.0133,-1.8934 0.7134,-8.1529 -0.48338,-10.0894 -0.93079,-1.506 -3.2016,-1.1494 -3.87629,0.6089 -0.817,2.129 -0.77377,9.9181 0.0597,10.7515 1.25806,1.2581 3.26375,0.6652 4.3,-1.271 z M 171,1025.3622 c 0,-7.223 0.18653,-8 1.92054,-8 1.32085,0 2.1263,0.9367 2.57946,3 0.3624,1.65 1.0374,3 1.5,3 0.4626,0 1.1376,-1.35 1.5,-3 0.45316,-2.0633 1.25861,-3 2.57945,-3 1.73402,0 1.92055,0.777 1.92055,8 0,4.6666 -0.41667,8 -1,8 -0.55,0 -1,-2.475 -1,-5.5 0,-5.3466 -1.53803,-7.6943 -2.18045,-3.3283 -0.50311,3.4191 -2.46599,3.231 -3.92617,-0.3763 l -1.33395,-3.2954 -0.32743,6.25 c -0.47453,9.0577 -2.232,7.6797 -2.232,-1.75 z m 70,7 c 0,-0.55 0.675,-1 1.5,-1 1.16764,0 1.5,-1.3373 1.5,-6.0352 0,-5.7253 -0.10269,-5.9802 -2,-4.9648 -1.56606,0.8381 -2,0.7605 -2,-0.3578 0,-1.4608 2.04866,-2.6422 4.58179,-2.6422 1.08921,0 1.41821,1.6238 1.41821,7 0,6.3333 0.19048,7 2,7 1.1,0 2,0.45 2,1 0,0.55 -2.025,1 -4.5,1 -2.475,0 -4.5,-0.45 -4.5,-1 z m 14.15514,-0.3131 c -2.70938,-3.2646 -1.66302,-13.8943 1.4867,-15.103 4.19786,-1.6108 7.35816,2.151 7.35816,8.7587 0,6.0365 -5.70444,10.1283 -8.84486,6.3443 z m 5.86961,-3.252 c 1.1768,-3.0952 1.25897,-5.4349 0.19086,-5.4349 -0.94413,0 -4.21561,5.358 -4.21561,6.9043 0,2.1632 3.06974,1.0424 4.02475,-1.4694 z m -2.50956,-5.4643 c 1.77779,-3.4379 1.12379,-5.7458 -1.10422,-3.8967 -1.27799,1.0606 -2.07121,6.9261 -0.93665,6.9261 0.26088,0 1.17927,-1.3632 2.04087,-3.0294 z M 131.49477,999.77817 c 1.28696,-4.17121 2.58271,-7.8268 2.87945,-8.12354 1.45992,-1.45992 3.39873,1.07018 4.86754,6.35199 0.8956,3.22058 1.93073,6.64308 2.30029,7.60558 0.46821,1.2194 0.18471,1.75 -0.93506,1.75 -0.94032,0 -1.60699,-0.8297 -1.60699,-2 0,-1.569 -0.66667,-2 -3.09362,-2 -2.25262,0 -3.2358,0.5437 -3.61663,2 -0.28766,1.1 -1.11069,2 -1.82896,2 -0.98371,0 -0.72858,-1.8714 1.03398,-7.58403 z m 5.48992,-0.66599 c -0.008,-1.2375 -0.39599,-2.85054 -0.86127,-3.58453 -0.63183,-0.99676 -1.00415,-0.74366 -1.47103,1 -0.97878,3.65555 -0.77207,4.83455 0.84761,4.83455 0.89343,0 1.49381,-0.9099 1.48469,-2.25002 z M 149,1000.3622 c 0,-6.75489 -0.0855,-7.00002 -2.44098,-7.00002 -1.34254,0 -2.7191,-0.45 -3.05902,-1 -0.38824,-0.62819 1.84262,-1 6,-1 4.15738,0 6.38824,0.37181 6,1 -0.33992,0.55 -1.49148,1 -2.55902,1 -1.73645,0 -1.94098,0.73761 -1.94098,7.00002 0,4 -0.42857,7 -1,7 -0.57143,0 -1,-3 -1,-7 z m 10.39521,4.4804 c -3.24143,-4.94705 -0.41315,-14.48042 4.29592,-14.48042 2.79542,0 5.30887,3.91892 5.30887,8.27749 0,7.91393 -5.96121,11.76373 -9.60479,6.20293 z m 6.57145,-1.4181 c 1.0133,-1.8934 0.7134,-8.15294 -0.48338,-10.08937 -0.93079,-1.50606 -3.2016,-1.14939 -3.87629,0.60884 -0.817,2.12907 -0.77377,9.91813 0.0597,10.75153 1.25806,1.2581 3.26375,0.6652 4.3,-1.271 z M 171,999.36218 c 0,-7.22301 0.18653,-8 1.92054,-8 1.32085,0 2.1263,0.93676 2.57946,3 0.84272,3.83689 2.15728,3.83689 3,0 0.45316,-2.06324 1.25861,-3 2.57945,-3 1.73402,0 1.92055,0.77699 1.92055,8 0,4.66662 -0.41667,8.00002 -1,8.00002 -0.55,0 -1,-2.475 -1,-5.5 0,-5.34655 -1.53803,-7.69426 -2.18045,-3.32835 -0.50311,3.41915 -2.46599,3.23105 -3.92617,-0.37623 l -1.33395,-3.29544 -0.32743,6.25002 c -0.47453,9.0577 -2.232,7.6797 -2.232,-1.75002 z m 84,7.12502 c 0,-0.4813 1.29318,-1.1337 2.87373,-1.4498 1.58055,-0.3161 3.14142,-1.2723 3.46861,-2.125 0.46618,-1.2148 -0.14798,-1.5502 -2.83854,-1.5502 -3.86352,0 -5.72379,-2.26141 -4.99089,-6.06706 1.09995,-5.71158 7.55135,-6.48718 9.60749,-1.15503 1.40839,3.65235 0.42967,10.34669 -1.7452,11.93699 -1.99086,1.4557 -6.3752,1.7378 -6.3752,0.4101 z m 5.5,-10.62502 c 0,-2.33333 -0.44444,-3 -2,-3 -1.5355,0 -2.07414,0.77307 -2.31922,3.32862 -0.2859,2.9811 -0.0771,3.29431 2,3 1.83722,-0.26032 2.31922,-0.95211 2.31922,-3.32862 z"
         id="path11210"
         style="fill:#989999"
         inkscape:connector-curvature="0"
         sodipodi:nodetypes="scscsssssscccscsscssssssscscsscscssssssssssscssssssssscssssccscscsssssscscsssssscccscsscssssssscscsscscssssssssssscssssssssscssssssssscssscsssssssscccscsscscssssssssccccccssssssssssscsssssssssssssscssssssscssssssssssssccsscssssssssssssscsscccsssssssssscsssscssscssssss" />
      <text
         xml:space="preserve"
         style="font-size:40.10308075px;font-style:normal;font-weight:normal;line-height:125%;letter-spacing:0px;word-spacing:0px;fill:#000000;fill-opacity:1;stroke:none;font-family:Sans"
         x="125.07519"
         y="1245.4706"
         id="text6181"
         sodipodi:linespacing="125%"
         transform="scale(1.1086437,0.90200306)"><tspan
           sodipodi:role="line"
           id="tspan6183"
           x="125.07519"
           y="1245.4706"
           style="font-style:normal;font-variant:normal;font-weight:bold;font-stretch:normal;font-family:Courier New;-inkscape-font-specification:Courier New Bold">EDIT</tspan></text>
      <rect
         style="fill:none;stroke:#8f8f8f;stroke-width:0.80000001;stroke-linecap:butt;stroke-linejoin:miter;stroke-miterlimit:3.29999995;stroke-opacity:1;stroke-dasharray:none;stroke-dashoffset:0"
         id="rect6185"
         width="53.966106"
         height="14.779662"
         x="3.7966101"
         y="44.338982"
         transform="matrix(2.4629675,0,0,2.4629675,116.76852,985.15816)"
         rx="7.5816789"
         ry="0" />
    </g>
  </g>
</svg>
