<?xml version="1.0" encoding="UTF-8" standalone="no"?>
<!-- Created with Inkscape (http://www.inkscape.org/) -->

<svg
   xmlns:dc="http://purl.org/dc/elements/1.1/"
   xmlns:cc="http://creativecommons.org/ns#"
   xmlns:rdf="http://www.w3.org/1999/02/22-rdf-syntax-ns#"
   xmlns:svg="http://www.w3.org/2000/svg"
   xmlns="http://www.w3.org/2000/svg"
   version="1.1"
   width="512"
   height="512"
   id="svg2">
  <defs
     id="defs4">
    <linearGradient
       id="linearGradient5327">
      <stop
         id="stop5329"
         style="stop-color:#ffffff;stop-opacity:1"
         offset="0" />
      <stop
         id="stop5331"
         style="stop-color:#ffffff;stop-opacity:0"
         offset="1" />
    </linearGradient>
    <linearGradient
       id="linearGradient4203">
      <stop
         id="stop4205"
         style="stop-color:#d95a0e;stop-opacity:1"
         offset="0" />
      <stop
         id="stop4207"
         style="stop-color:#fdc200;stop-opacity:1"
         offset="1" />
    </linearGradient>
    <marker
       refX="0"
       refY="0"
       orient="auto"
       id="marker4655"
       style="overflow:visible">
      <path
         d="M 0,0 5,-5 -12.5,0 5,5 0,0 z"
         transform="matrix(-0.8,0,0,-0.8,-10,0)"
         id="path4657"
         style="fill:#000000;fill-opacity:1;fill-rule:evenodd;stroke:#000000;stroke-width:1pt;stroke-opacity:1" />
    </marker>
    <marker
       refX="0"
       refY="0"
       orient="auto"
       id="marker4651"
       style="overflow:visible">
      <path
         d="M 0,0 5,-5 -12.5,0 5,5 0,0 z"
         transform="matrix(0.8,0,0,0.8,10,0)"
         id="path4653"
         style="fill:#000000;fill-opacity:1;fill-rule:evenodd;stroke:#000000;stroke-width:1pt;stroke-opacity:1" />
    </marker>
    <marker
       refX="0"
       refY="0"
       orient="auto"
       id="marker4647"
       style="overflow:visible">
      <path
         d="M 0,0 5,-5 -12.5,0 5,5 0,0 z"
         transform="matrix(-0.8,0,0,-0.8,-10,0)"
         id="path4649"
         style="fill:#000000;fill-opacity:1;fill-rule:evenodd;stroke:#000000;stroke-width:1pt;stroke-opacity:1" />
    </marker>
    <marker
       refX="0"
       refY="0"
       orient="auto"
       id="Arrow2Mstart"
       style="overflow:visible">
      <path
         d="M 8.7185878,4.0337352 -2.2072895,0.01601326 8.7185884,-4.0017078 c -1.7454984,2.3720609 -1.7354408,5.6174519 -6e-7,8.035443 z"
         transform="scale(0.6,0.6)"
         id="path4328"
         style="fill:#000000;fill-opacity:1;fill-rule:evenodd;stroke:#000000;stroke-width:0.625;stroke-linejoin:round;stroke-opacity:1" />
    </marker>
    <marker
       refX="0"
       refY="0"
       orient="auto"
       id="marker4641"
       style="overflow:visible">
      <path
         d="M 8.7185878,4.0337352 -2.2072895,0.01601326 8.7185884,-4.0017078 c -1.7454984,2.3720609 -1.7354408,5.6174519 -6e-7,8.035443 z"
         transform="matrix(-1.1,0,0,-1.1,-1.1,0)"
         id="path4643"
         style="fill:#000000;fill-opacity:1;fill-rule:evenodd;stroke:#000000;stroke-width:0.625;stroke-linejoin:round;stroke-opacity:1" />
    </marker>
    <marker
       refX="0"
       refY="0"
       orient="auto"
       id="Arrow2Mend"
       style="overflow:visible">
      <path
         d="M 8.7185878,4.0337352 -2.2072895,0.01601326 8.7185884,-4.0017078 c -1.7454984,2.3720609 -1.7354408,5.6174519 -6e-7,8.035443 z"
         transform="scale(-0.6,-0.6)"
         id="path4331"
         style="fill:#000000;fill-opacity:1;fill-rule:evenodd;stroke:#000000;stroke-width:0.625;stroke-linejoin:round;stroke-opacity:1" />
    </marker>
    <marker
       refX="0"
       refY="0"
       orient="auto"
       id="marker4635"
       style="overflow:visible">
      <path
         d="M 8.7185878,4.0337352 -2.2072895,0.01601326 8.7185884,-4.0017078 c -1.7454984,2.3720609 -1.7354408,5.6174519 -6e-7,8.035443 z"
         transform="matrix(1.1,0,0,1.1,1.1,0)"
         id="path4637"
         style="fill:#000000;fill-opacity:1;fill-rule:evenodd;stroke:#000000;stroke-width:0.625;stroke-linejoin:round;stroke-opacity:1" />
    </marker>
    <marker
       refX="0"
       refY="0"
       orient="auto"
       id="marker4631"
       style="overflow:visible">
      <path
         d="M 0,0 5,-5 -12.5,0 5,5 0,0 z"
         transform="matrix(-0.8,0,0,-0.8,-10,0)"
         id="path4633"
         style="fill:#000000;fill-opacity:1;fill-rule:evenodd;stroke:#000000;stroke-width:1pt;stroke-opacity:1" />
    </marker>
    <marker
       refX="0"
       refY="0"
       orient="auto"
       id="marker4627"
       style="overflow:visible">
      <path
         d="M 0,0 5,-5 -12.5,0 5,5 0,0 z"
         transform="matrix(-0.8,0,0,-0.8,-10,0)"
         id="path4629"
         style="fill:#000000;fill-opacity:1;fill-rule:evenodd;stroke:#000000;stroke-width:1pt;stroke-opacity:1" />
    </marker>
    <marker
       refX="0"
       refY="0"
       orient="auto"
       id="marker4623"
       style="overflow:visible">
      <path
         d="M 0,0 5,-5 -12.5,0 5,5 0,0 z"
         transform="matrix(0.8,0,0,0.8,10,0)"
         id="path4625"
         style="fill:#000000;fill-opacity:1;fill-rule:evenodd;stroke:#000000;stroke-width:1pt;stroke-opacity:1" />
    </marker>
    <marker
       refX="0"
       refY="0"
       orient="auto"
       id="marker4619"
       style="overflow:visible">
      <path
         d="M 8.7185878,4.0337352 -2.2072895,0.01601326 8.7185884,-4.0017078 c -1.7454984,2.3720609 -1.7354408,5.6174519 -6e-7,8.035443 z"
         transform="matrix(1.1,0,0,1.1,1.1,0)"
         id="path4621"
         style="fill:#000000;fill-opacity:1;fill-rule:evenodd;stroke:#000000;stroke-width:0.625;stroke-linejoin:round;stroke-opacity:1" />
    </marker>
    <marker
       refX="0"
       refY="0"
       orient="auto"
       id="marker4615"
       style="overflow:visible">
      <path
         d="M 0,0 5,-5 -12.5,0 5,5 0,0 z"
         transform="matrix(0.8,0,0,0.8,10,0)"
         id="path4617"
         style="fill:#000000;fill-opacity:1;fill-rule:evenodd;stroke:#000000;stroke-width:1pt;stroke-opacity:1" />
    </marker>
    <marker
       refX="0"
       refY="0"
       orient="auto"
       id="marker4611"
       style="overflow:visible">
      <path
         d="M 0,0 5,-5 -12.5,0 5,5 0,0 z"
         transform="matrix(-0.8,0,0,-0.8,-10,0)"
         id="path4613"
         style="fill:#000000;fill-opacity:1;fill-rule:evenodd;stroke:#000000;stroke-width:1pt;stroke-opacity:1" />
    </marker>
    <marker
       refX="0"
       refY="0"
       orient="auto"
       id="marker4607"
       style="overflow:visible">
      <path
         d="M 0,0 5,-5 -12.5,0 5,5 0,0 z"
         transform="matrix(-0.8,0,0,-0.8,-10,0)"
         id="path4609"
         style="fill:#000000;fill-opacity:1;fill-rule:evenodd;stroke:#000000;stroke-width:1pt;stroke-opacity:1" />
    </marker>
    <marker
       refX="0"
       refY="0"
       orient="auto"
       id="Arrow1Lend"
       style="overflow:visible">
      <path
         d="M 0,0 5,-5 -12.5,0 5,5 0,0 z"
         transform="matrix(-0.8,0,0,-0.8,-10,0)"
         id="path4307"
         style="fill:#000000;fill-opacity:1;fill-rule:evenodd;stroke:#000000;stroke-width:1pt;stroke-opacity:1" />
    </marker>
    <marker
       refX="0"
       refY="0"
       orient="auto"
       id="marker4601"
       style="overflow:visible">
      <path
         d="M 8.7185878,4.0337352 -2.2072895,0.01601326 8.7185884,-4.0017078 c -1.7454984,2.3720609 -1.7354408,5.6174519 -6e-7,8.035443 z"
         transform="matrix(-1.1,0,0,-1.1,-1.1,0)"
         id="path4603"
         style="fill:#000000;fill-opacity:1;fill-rule:evenodd;stroke:#000000;stroke-width:0.625;stroke-linejoin:round;stroke-opacity:1" />
    </marker>
    <marker
       refX="0"
       refY="0"
       orient="auto"
       id="marker4593"
       style="overflow:visible">
      <path
         d="M 8.7185878,4.0337352 -2.2072895,0.01601326 8.7185884,-4.0017078 c -1.7454984,2.3720609 -1.7354408,5.6174519 -6e-7,8.035443 z"
         transform="matrix(-1.1,0,0,-1.1,-1.1,0)"
         id="path4595"
         style="fill:#000000;fill-opacity:1;fill-rule:evenodd;stroke:#000000;stroke-width:0.625;stroke-linejoin:round;stroke-opacity:1" />
    </marker>
    <marker
       refX="0"
       refY="0"
       orient="auto"
       id="Arrow2Lend"
       style="overflow:visible">
      <path
         d="M 8.7185878,4.0337352 -2.2072895,0.01601326 8.7185884,-4.0017078 c -1.7454984,2.3720609 -1.7354408,5.6174519 -6e-7,8.035443 z"
         transform="matrix(-1.1,0,0,-1.1,-1.1,0)"
         id="path4325"
         style="fill:#000000;fill-opacity:1;fill-rule:evenodd;stroke:#000000;stroke-width:0.625;stroke-linejoin:round;stroke-opacity:1" />
    </marker>
    <marker
       refX="0"
       refY="0"
       orient="auto"
       id="Arrow1Mend"
       style="overflow:visible">
      <path
         d="M 0,0 5,-5 -12.5,0 5,5 0,0 z"
         transform="matrix(-0.4,0,0,-0.4,-4,0)"
         id="path4313"
         style="fill:#000000;fill-opacity:1;fill-rule:evenodd;stroke:#000000;stroke-width:1pt;stroke-opacity:1" />
    </marker>
    <marker
       refX="0"
       refY="0"
       orient="auto"
       id="marker4585"
       style="overflow:visible">
      <path
         d="M 8.7185878,4.0337352 -2.2072895,0.01601326 8.7185884,-4.0017078 c -1.7454984,2.3720609 -1.7354408,5.6174519 -6e-7,8.035443 z"
         transform="matrix(1.1,0,0,1.1,1.1,0)"
         id="path4587"
         style="fill:#000000;fill-opacity:1;fill-rule:evenodd;stroke:#000000;stroke-width:0.625;stroke-linejoin:round;stroke-opacity:1" />
    </marker>
    <marker
       refX="0"
       refY="0"
       orient="auto"
       id="marker4579"
       style="overflow:visible">
      <path
         d="M 8.7185878,4.0337352 -2.2072895,0.01601326 8.7185884,-4.0017078 c -1.7454984,2.3720609 -1.7354408,5.6174519 -6e-7,8.035443 z"
         transform="matrix(1.1,0,0,1.1,1.1,0)"
         id="path4581"
         style="fill:#000000;fill-opacity:1;fill-rule:evenodd;stroke:#000000;stroke-width:0.625;stroke-linejoin:round;stroke-opacity:1" />
    </marker>
    <marker
       refX="0"
       refY="0"
       orient="auto"
       id="Arrow2Lstart"
       style="overflow:visible">
      <path
         d="M 8.7185878,4.0337352 -2.2072895,0.01601326 8.7185884,-4.0017078 c -1.7454984,2.3720609 -1.7354408,5.6174519 -6e-7,8.035443 z"
         transform="matrix(1.1,0,0,1.1,1.1,0)"
         id="path4322"
         style="fill:#000000;fill-opacity:1;fill-rule:evenodd;stroke:#000000;stroke-width:0.625;stroke-linejoin:round;stroke-opacity:1" />
    </marker>
    <marker
       refX="0"
       refY="0"
       orient="auto"
       id="marker4573"
       style="overflow:visible">
      <path
         d="M 0,0 5,-5 -12.5,0 5,5 0,0 z"
         transform="matrix(0.8,0,0,0.8,10,0)"
         id="path4575"
         style="fill:#000000;fill-opacity:1;fill-rule:evenodd;stroke:#000000;stroke-width:1pt;stroke-opacity:1" />
    </marker>
    <marker
       refX="0"
       refY="0"
       orient="auto"
       id="marker4569"
       style="overflow:visible">
      <path
         d="M 0,0 5,-5 -12.5,0 5,5 0,0 z"
         transform="matrix(0.8,0,0,0.8,10,0)"
         id="path4571"
         style="fill:#000000;fill-opacity:1;fill-rule:evenodd;stroke:#000000;stroke-width:1pt;stroke-opacity:1" />
    </marker>
    <marker
       refX="0"
       refY="0"
       orient="auto"
       id="marker4565"
       style="overflow:visible">
      <path
         d="M 0,0 5,-5 -12.5,0 5,5 0,0 z"
         transform="matrix(0.8,0,0,0.8,10,0)"
         id="path4567"
         style="fill:#000000;fill-opacity:1;fill-rule:evenodd;stroke:#000000;stroke-width:1pt;stroke-opacity:1" />
    </marker>
    <marker
       refX="0"
       refY="0"
       orient="auto"
       id="Arrow1Lstart"
       style="overflow:visible">
      <path
         d="M 0,0 5,-5 -12.5,0 5,5 0,0 z"
         transform="matrix(0.8,0,0,0.8,10,0)"
         id="path4304"
         style="fill:#000000;fill-opacity:1;fill-rule:evenodd;stroke:#000000;stroke-width:1pt;stroke-opacity:1" />
    </marker>
  </defs>
  <metadata
     id="metadata7">
    <rdf:RDF>
      <cc:Work
         rdf:about="">
        <dc:format>image/svg+xml</dc:format>
        <dc:type
           rdf:resource="http://purl.org/dc/dcmitype/StillImage" />
        <dc:title></dc:title>
      </cc:Work>
    </rdf:RDF>
  </metadata>
  <g
     transform="translate(0,-540.36218)"
     id="layer1">
    <g
       transform="matrix(3.4351628,0,0,3.4351628,933.50397,-1709.1896)"
       id="g3434">
      <path
         d="m -202.59476,775.84035 c 0.0591,-2.60391 0.50796,-5.38256 0.99757,-6.17476 0.48961,-0.79221 0.85518,-3.03244 0.81236,-4.97828 -0.0445,-2.02309 0.11879,-2.56818 0.3814,-1.27307 0.25257,1.24566 0.87706,2.0066 1.38773,1.69098 1.18126,-0.73005 1.17209,0.61078 -0.017,2.49031 -0.56418,0.89174 -0.5262,2.17242 0.099,3.34073 1.08852,2.0339 -0.32129,6.77758 -2.56857,8.64265 -0.90651,0.75234 -1.17363,-0.16174 -1.09251,-3.73856 z m 50,0 c 0.059,-2.60391 0.50796,-5.38256 0.99757,-6.17476 0.48961,-0.79221 0.85518,-3.03244 0.81236,-4.97828 -0.0445,-2.02309 0.11879,-2.56818 0.3814,-1.27307 0.25257,1.24566 0.87706,2.0066 1.38773,1.69098 1.18126,-0.73005 1.17209,0.61078 -0.017,2.49031 -0.56418,0.89174 -0.5262,2.17242 0.0991,3.34073 1.08851,2.0339 -0.3213,6.77758 -2.56858,8.64265 -0.90651,0.75234 -1.17363,-0.16174 -1.09251,-3.73856 z m -68.49243,-8.19094 0,-10 6.34501,0 c 6.68449,0 9.65499,1.65969 9.65499,5.39448 0,2.73099 -1.91087,5.60552 -3.72631,5.60552 -1.47733,0 -1.49026,0.13483 -0.11988,1.25 0.84484,0.6875 2.53649,2.7125 3.75922,4.5 l 2.22316,3.25 -2.43521,0 c -1.73323,0 -3.19826,-1.15305 -5.08228,-4 -1.6115,-2.43514 -3.42395,-4 -4.63289,-4 -1.65011,0 -1.98581,0.67619 -1.98581,4 0,3.33333 -0.33333,4 -2,4 -1.86667,0 -2,-0.66667 -2,-10 z m 11.5,-4 c 0,-1.01149 -1.22127,-1.60108 -3.75,-1.81037 -3.25206,-0.26915 -3.75,-0.0288 -3.75,1.81037 0,1.83913 0.49794,2.07952 3.75,1.81037 2.52873,-0.20929 3.75,-0.79888 3.75,-1.81037 z m 89.5,4 0,-10 6.34501,0 c 6.6845,0 9.65499,1.65969 9.65499,5.39448 0,2.73099 -1.91087,5.60552 -3.72631,5.60552 -1.47733,0 -1.49026,0.13483 -0.11988,1.25 0.84484,0.6875 2.53649,2.7125 3.75922,4.5 l 2.22316,3.25 -2.43521,0 c -1.73323,0 -3.19826,-1.15305 -5.08228,-4 -1.6115,-2.43514 -3.42395,-4 -4.63289,-4 -1.65011,0 -1.98581,0.67619 -1.98581,4 0,3.33333 -0.33333,4 -2,4 -1.86667,0 -2,-0.66667 -2,-10 z m 11.5,-4 c 0,-1.01149 -1.22127,-1.60108 -3.75,-1.81037 -3.25206,-0.26915 -3.75,-0.0288 -3.75,1.81037 0,1.83913 0.49794,2.07952 3.75,1.81037 2.52873,-0.20929 3.75,-0.79888 3.75,-1.81037 z m -155.48469,-0.75 c 0.008,-0.4125 0.4164,-1.38356 0.90661,-2.15791 0.53693,-0.84814 0.47518,-2.3212 -0.15529,-3.70494 -1.11047,-2.43722 0.28201,-7.3527 2.63645,-9.30671 1.90373,-1.57996 1.30635,8.84933 -0.7257,12.66956 -1.65876,3.11844 -2.69455,4.09118 -2.66207,2.5 z m 173,0 c 0.008,-0.4125 0.4164,-1.38356 0.90661,-2.15791 0.53693,-0.84814 0.47518,-2.3212 -0.15529,-3.70494 -1.11047,-2.43722 0.28201,-7.3527 2.63645,-9.30671 1.90373,-1.57996 1.30635,8.84933 -0.7257,12.66956 -1.65876,3.11844 -2.69455,4.09118 -2.66207,2.5 z m -135.01531,-12.30902 c 0,-3.60793 -0.33558,-4.85162 -1.16994,-4.33595 -0.82525,0.51003 -0.93747,0.15915 -0.38089,-1.19099 0.43398,-1.05272 0.71045,-2.47654 0.61438,-3.16404 -0.20951,-1.49942 -0.1483,-3.4952 0.53978,-17.6 0.41297,-8.46551 0.25761,-10.68209 -0.70696,-10.08596 -0.90183,0.55737 -1.0228,0.24628 -0.4472,-1.15 0.43398,-1.05272 0.71045,-2.47654 0.61438,-3.16404 -0.27132,-1.94176 -0.1077,-6.1424 0.52586,-13.5 l 0.58124,-6.75 50.41468,0 50.41467,0 0,4.55902 c 0,2.50746 0.35788,4.33783 0.79528,4.0675 0.43741,-0.27033 0.63625,1.84061 0.44188,4.69099 -1.02963,15.09908 -1.26498,27.81772 -0.50606,27.34868 0.84016,-0.51925 0.78206,2.39366 -0.34011,17.05138 l -0.55257,7.21756 11.83079,0.3174 c 6.50694,0.17457 -16.18171,0.41417 -50.41921,0.53244 l -62.25,0.21503 0,-5.05902 z m 50,-0.5 c 0,-3.22618 -0.34203,-4.34763 -1.16994,-3.83595 -0.82525,0.51003 -0.93747,0.15915 -0.38089,-1.19099 0.43398,-1.05272 0.71045,-2.47654 0.61438,-3.16404 -0.20951,-1.49942 -0.1483,-3.4952 0.53978,-17.6 0.41297,-8.46551 0.25761,-10.68209 -0.70696,-10.08596 -0.90183,0.55737 -1.0228,0.24628 -0.4472,-1.15 0.43398,-1.05272 0.71045,-2.47654 0.61438,-3.16404 -0.28204,-2.01846 -0.10905,-6.31922 0.52289,-13 l 0.5912,-6.25 -24.58882,0 -24.58882,0 0,4.05902 c 0,2.23246 0.35788,3.83783 0.79528,3.5675 0.43741,-0.27033 0.63625,1.84061 0.44188,4.69099 -1.02964,15.09908 -1.26498,27.81772 -0.50606,27.34868 0.84034,-0.51936 0.7826,2.37028 -0.34138,17.08381 l -0.55384,7.25 24.58206,0 24.58206,0 0,-4.55902 z m -16.08978,-17.27322 c 0.53932,-1.00774 1.68998,-2.42099 2.55701,-3.14056 1.41891,-1.1776 1.37441,-1.44982 -0.4454,-2.72446 -2.24517,-1.57258 -2.67107,-5.2535 -0.82183,-7.10274 0.66,-0.66 3.585,-1.2 6.5,-1.2 l 5.3,0 0,8 c 0,6.44444 -0.29167,8 -1.5,8 -1,0 -1.5,-1 -1.5,-3 0,-1.91601 -0.50988,-3 -1.41111,-3 -0.77611,0 -2.54705,1.35 -3.93544,3 -2.85487,3.39283 -6.40133,4.26594 -4.74323,1.16776 z m 9.32403,-5.16776 c 1.09977,0 1.77173,1.0693 2.04235,3.25 0.22183,1.7875 0.47534,-0.036 0.56336,-4.05226 l 0.16004,-7.30226 -5.25,0.30226 c -5.06425,0.29157 -5.25,0.40546 -5.25,3.21893 0,1.7055 0.62288,3.12261 1.5,3.41262 1.28625,0.42528 1.30442,0.25903 0.12755,-1.16667 -1.97373,-2.39104 0.21614,-4.66262 4.49489,-4.66262 3.08618,0 3.37756,0.25881 3.37756,3 0,2.77138 -0.27122,3 -3.55902,3 -1.95746,0 -3.31807,0.38986 -3.02358,0.86635 0.29449,0.4765 -0.35395,1.67124 -1.44098,2.65499 -1.08703,0.98375 -1.97642,2.25717 -1.97642,2.82981 0,0.57265 1.48392,-0.39709 3.29761,-2.15498 1.81368,-1.75789 4.03517,-3.19617 4.93664,-3.19617 z m 0.76575,-4 c 0,-1.54664 -0.66667,-2 -2.94098,-2 -3.0742,0 -4.612,1.29625 -3.55902,3 0.33992,0.55 1.94148,1 3.55902,1 2.27431,0 2.94098,-0.45336 2.94098,-2 z m -39,-21 0,-10 6.34501,0 c 6.68449,0 9.65499,1.65969 9.65499,5.39448 0,2.73099 -1.91087,5.60552 -3.72631,5.60552 -1.47733,0 -1.49026,0.13483 -0.11988,1.25 0.84484,0.6875 2.53649,2.7125 3.75922,4.5 l 2.22316,3.25 -2.43521,0 c -1.73323,0 -3.19826,-1.15305 -5.08228,-4 -1.6115,-2.43514 -3.42395,-4 -4.63289,-4 -1.65011,0 -1.98581,0.67619 -1.98581,4 0,3.33333 -0.33333,4 -2,4 -1.86667,0 -2,-0.66667 -2,-10 z m 11.5,-4 c 0,-1.01149 -1.22127,-1.60108 -3.75,-1.81037 -3.25206,-0.26915 -3.75,-0.0288 -3.75,1.81037 0,1.83913 0.49794,2.07952 3.75,1.81037 2.52873,-0.20929 3.75,-0.79888 3.75,-1.81037 z m 83.5,51.44098 c 0,-3.22618 -0.34203,-4.34763 -1.16994,-3.83595 -0.82525,0.51003 -0.93747,0.15915 -0.38089,-1.19099 0.43398,-1.05272 0.71045,-2.47654 0.61438,-3.16404 -0.20951,-1.49942 -0.1483,-3.4952 0.53978,-17.6 0.41297,-8.46551 0.25761,-10.68209 -0.70695,-10.08596 -0.90184,0.55737 -1.02281,0.24628 -0.44721,-1.15 0.43398,-1.05272 0.71045,-2.47654 0.61438,-3.16404 -0.28204,-2.01846 -0.10905,-6.31922 0.52289,-13 l 0.5912,-6.25 -24.58882,0 -24.58882,0 0,4.05902 c 0,2.23246 0.35788,3.83783 0.79528,3.5675 0.43741,-0.27033 0.63625,1.84061 0.44188,4.69099 -1.02964,15.09908 -1.26498,27.81772 -0.50606,27.34868 0.84034,-0.51936 0.7826,2.37028 -0.34138,17.08381 l -0.55384,7.25 24.58206,0 24.58206,0 0,-4.55902 z m -46,-3.38348 c 0,-4.71778 0.33175,-6.0575 1.5,-6.0575 0.83333,0 1.5,0.88889 1.5,2 0,1.1 0.43417,2 0.96482,2 0.53065,0 1.44648,-0.9 2.03518,-2 0.5887,-1.1 2.00629,-2 3.15019,-2 1.92697,0 1.97149,0.16537 0.6057,2.25 -1.11736,1.70546 -1.20693,2.67353 -0.37012,4 1.79282,2.84187 -0.43068,5.20117 -5.23761,5.5575 l -4.14816,0.3075 0,-6.0575 z m 8.68921,3.31003 c 0.34454,-0.89785 0.13766,-2.4151 -0.45972,-3.37167 -0.78507,-1.25709 -0.778,-2.04735 0.0255,-2.85086 0.61142,-0.61142 0.79382,-1.42952 0.40533,-1.818 -0.38848,-0.38848 -1.3965,0.27902 -2.24003,1.48333 -1.97998,2.82681 -4.16386,2.79886 -4.71457,-0.0603 -0.23835,-1.2375 -0.49465,0.1125 -0.56955,3 l -0.13617,5.24997 3.53138,0 c 2.34388,0 3.74204,-0.54895 4.15783,-1.63247 z m -6.68921,-1.36753 c 0,-1.55556 0.66667,-2 3,-2 2.33333,0 3,0.44444 3,2 0,1.55556 -0.66667,2 -3,2 -2.33333,0 -3,-0.44444 -3,-2 z m 5,0 c 0,-0.55 -0.9,-1 -2,-1 -1.1,0 -2,0.45 -2,1 0,0.55 0.9,1 2,1 1.1,0 2,-0.45 2,-1 z m 24.2,-29.2 c -1.68121,-1.68121 -1.4972,-5.74872 0.29111,-6.43496 1.25051,-0.47987 1.15444,-0.9992 -0.59541,-3.21862 -1.83335,-2.32534 -1.88784,-2.68663 -0.44907,-2.97784 0.90059,-0.18228 2.55119,0.83022 3.66799,2.25 2.56152,3.25645 3.88538,3.2842 3.88538,0.0814 0,-1.55556 0.56667,-2.5 1.5,-2.5 1.19048,0 1.5,1.44444 1.5,7 l 0,7 -4.3,0 c -2.365,0 -4.84,-0.54 -5.5,-1.2 z m 6.8,-3.3 c 0,-0.93333 -0.94444,-1.5 -2.5,-1.5 -1.55556,0 -2.5,0.56667 -2.5,1.5 0,0.93333 0.94444,1.5 2.5,1.5 1.55556,0 2.5,-0.56667 2.5,-1.5 z m 35.76166,38.79274 c 1.24391,-0.23919 3.04391,-0.23011 4,0.0202 0.95609,0.25029 -0.0617,0.446 -2.26166,0.4349 -2.2,-0.0111 -2.98225,-0.21589 -1.73834,-0.45508 z m -158,-1 c 1.24391,-0.23919 3.04391,-0.23011 4,0.0202 0.95609,0.25029 -0.0617,0.446 -2.26166,0.4349 -2.2,-0.0111 -2.98225,-0.21589 -1.73834,-0.45508 z m -7.74635,-23.04274 c 0.008,-0.4125 0.4164,-1.38356 0.90661,-2.15791 0.53693,-0.84814 0.47518,-2.3212 -0.15529,-3.70494 -1.11047,-2.43722 0.28201,-7.3527 2.63645,-9.30671 1.90373,-1.57996 1.30635,8.84933 -0.7257,12.66956 -1.65876,3.11844 -2.69455,4.09118 -2.66207,2.5 z m 173,0 c 0.008,-0.4125 0.4164,-1.38356 0.90661,-2.15791 0.53693,-0.84814 0.47518,-2.3212 -0.15529,-3.70494 -1.11047,-2.43722 0.28201,-7.3527 2.63645,-9.30671 1.90373,-1.57996 1.30635,8.84933 -0.7257,12.66956 -1.65876,3.11844 -2.69455,4.09118 -2.66207,2.5 z m -7.25365,-7.95726 c 1.24391,-0.23919 3.04391,-0.23011 4,0.0202 0.95609,0.25029 -0.0617,0.446 -2.26166,0.4349 -2.2,-0.0111 -2.98225,-0.21589 -1.73834,-0.45508 z m -158,-1 c 1.24391,-0.23919 3.04391,-0.23011 4,0.0202 0.95609,0.25029 -0.0617,0.446 -2.26166,0.4349 -2.2,-0.0111 -2.98225,-0.21589 -1.73834,-0.45508 z m 15.43834,-2.49274 c -1.68121,-1.68121 -1.4972,-5.74872 0.29111,-6.43496 1.25051,-0.47987 1.15444,-0.9992 -0.59541,-3.21862 -1.83336,-2.32534 -1.88784,-2.68663 -0.44907,-2.97784 0.90059,-0.18228 2.55119,0.83022 3.66799,2.25 2.56152,3.25645 3.88538,3.2842 3.88538,0.0814 0,-1.55556 0.56667,-2.5 1.5,-2.5 1.19048,0 1.5,1.44444 1.5,7 l 0,7 -4.3,0 c -2.365,0 -4.84,-0.54 -5.5,-1.2 z m 6.8,-3.3 c 0,-0.93333 -0.94444,-1.5 -2.5,-1.5 -1.55556,0 -2.5,0.56667 -2.5,1.5 0,0.93333 0.94444,1.5 2.5,1.5 1.55556,0 2.5,-0.56667 2.5,-1.5 z m 113,-13.5 0,-10 6.84501,0 c 7.208,0 10.15499,1.56548 10.15499,5.39448 0,2.73099 -1.91087,5.60552 -3.72631,5.60552 -1.47733,0 -1.49026,0.13483 -0.11988,1.25 0.84484,0.6875 2.53649,2.7125 3.75922,4.5 l 2.22316,3.25 -2.93521,0 c -2.31656,0 -3.49312,-0.84307 -5.58228,-4 -1.45589,-2.2 -3.31569,-4 -4.13289,-4 -1.06678,0 -1.48581,1.12809 -1.48581,4 0,3.6 -0.25,4 -2.5,4 -2.5,0 -2.5,0 -2.5,-10 z m 11.5,-4 c 0,-0.96136 -1.16705,-1.61252 -3.25,-1.81336 -2.74611,-0.26477 -3.25,0.0164 -3.25,1.81336 0,1.79698 0.50389,2.07813 3.25,1.81336 2.08295,-0.20084 3.25,-0.852 3.25,-1.81336 z m -154.48469,-0.75 c 0.008,-0.4125 0.4164,-1.38356 0.90661,-2.15791 0.53693,-0.84813 0.47518,-2.3212 -0.15529,-3.70494 -1.11047,-2.43722 0.28201,-7.3527 2.63645,-9.30671 1.90373,-1.57996 1.30635,8.84933 -0.7257,12.66956 -1.65876,3.11844 -2.69455,4.09117 -2.66207,2.5 z m 173,0 c 0.008,-0.4125 0.4164,-1.38356 0.90661,-2.15791 0.53693,-0.84813 0.47518,-2.3212 -0.15529,-3.70494 -1.11047,-2.43722 0.28201,-7.3527 2.63645,-9.30671 1.90373,-1.57996 1.30635,8.84933 -0.7257,12.66956 -1.65876,3.11844 -2.69455,4.09117 -2.66207,2.5 z m -7.25365,-7.95726 c 1.24391,-0.23919 3.04391,-0.23011 4,0.0202 0.95609,0.25029 -0.0617,0.44599 -2.26166,0.4349 -2.2,-0.0111 -2.98225,-0.21589 -1.73834,-0.45508 z m -158,-1 c 1.24391,-0.23919 3.04391,-0.23011 4,0.0202 0.95609,0.25029 -0.0617,0.446 -2.26166,0.4349 -2.2,-0.0111 -2.98225,-0.21589 -1.73834,-0.45508 z m 84.23834,-6.23524 c 0,-4.71778 0.33175,-6.0575 1.5,-6.0575 0.83333,0 1.5,0.88889 1.5,2 0,1.1 0.43417,2 0.96482,2 0.53065,0 1.44648,-0.9 2.03518,-2 0.5887,-1.1 2.00629,-2 3.15019,-2 1.92697,0 1.97149,0.16536 0.6057,2.25 -1.11736,1.70546 -1.20693,2.67353 -0.37012,4 1.79282,2.84187 -0.43068,5.20116 -5.23761,5.5575 l -4.14816,0.3075 0,-6.0575 z m 8.68921,3.31003 c 0.34454,-0.89785 0.13766,-2.4151 -0.45972,-3.37167 -0.78507,-1.25709 -0.778,-2.04735 0.0255,-2.85086 0.61142,-0.61142 0.79382,-1.42952 0.40533,-1.818 -0.38848,-0.38848 -1.3965,0.27901 -2.24003,1.48333 -1.97998,2.82681 -4.16386,2.79886 -4.71457,-0.0603 -0.23835,-1.2375 -0.49465,0.1125 -0.56955,3 l -0.13617,5.25 3.53138,0 c 2.34388,0 3.74204,-0.54895 4.15783,-1.63247 z m -6.68921,-1.36753 c 0,-1.55556 0.66667,-2 3,-2 2.33333,0 3,0.44444 3,2 0,1.55556 -0.66667,2 -3,2 -2.33333,0 -3,-0.44444 -3,-2 z m 5,0 c 0,-0.55 -0.9,-1 -2,-1 -1.1,0 -2,0.45 -2,1 0,0.55 0.9,1 2,1 1.1,0 2,-0.45 2,-1 z m -36,0.94098 c 0,-1.13246 -0.45,-1.7809 -1,-1.44098 -1.24311,0.76828 -1.27183,-0.52193 -0.0545,-2.44612 0.56418,-0.89174 0.52621,-2.17242 -0.0991,-3.34073 -1.08852,-2.0339 0.32129,-6.77758 2.56857,-8.64265 0.90651,-0.75234 1.17363,0.16174 1.09251,3.73856 -0.059,2.60391 -0.50796,5.38256 -0.99757,6.17476 -0.48961,0.79221 -0.79056,2.91994 -0.66877,4.72828 0.12178,1.80835 -0.0177,3.2879 -0.3099,3.2879 -0.29223,0 -0.53133,-0.92656 -0.53133,-2.05902 z m 50,0 c 0,-1.13246 -0.45,-1.7809 -1,-1.44098 -1.24311,0.76828 -1.27183,-0.52193 -0.0545,-2.44612 0.56418,-0.89174 0.5262,-2.17242 -0.0991,-3.34073 -1.08851,-2.0339 0.3213,-6.77758 2.56858,-8.64265 0.90651,-0.75234 1.17363,0.16174 1.09251,3.73856 -0.059,2.60391 -0.50796,5.38256 -0.99757,6.17476 -0.48961,0.79221 -0.79056,2.91994 -0.66878,4.72828 0.12187,1.80835 -0.0176,3.2879 -0.30981,3.2879 -0.29223,0 -0.53133,-0.92656 -0.53133,-2.05902 z m -85,-44.06342 c 0,-4.43991 -0.19987,-4.95657 -1.5,-3.87756 -1.22051,1.01293 -1.5,0.96401 -1.5,-0.26255 0,-1.30945 3.95432,-4.73745 5.46482,-4.73745 0.29435,0 0.53518,3.15 0.53518,7 0,5.55556 -0.30952,7 -1.5,7 -1.13811,0 -1.5,-1.23583 -1.5,-5.12244 z m 19,0 c 0,-4.43991 -0.19987,-4.95657 -1.5,-3.87756 -1.22051,1.01293 -1.5,0.96401 -1.5,-0.26255 0,-1.30945 3.95432,-4.73745 5.46482,-4.73745 0.29435,0 0.53518,3.15 0.53518,7 0,5.55556 -0.30952,7 -1.5,7 -1.13811,0 -1.5,-1.23583 -1.5,-5.12244 z m 19,0 c 0,-4.43991 -0.19987,-4.95657 -1.5,-3.87756 -1.22051,1.01293 -1.5,0.96401 -1.5,-0.26255 0,-1.30945 3.95432,-4.73745 5.46482,-4.73745 0.29435,0 0.53518,3.15 0.53518,7 0,5.55556 -0.30952,7 -1.5,7 -1.13811,0 -1.5,-1.23583 -1.5,-5.12244 z m -64,-6.87756 0,-7 4.3,0 c 4.7437,0 6.7,1.31394 6.7,4.5 0,2.88268 -1.8689,4.5 -5.2,4.5 -2.32,0 -2.8,0.42857 -2.8,2.5 0,1.55556 -0.56667,2.5 -1.5,2.5 -1.19048,0 -1.5,-1.44444 -1.5,-7 z m 7.5,-2.5 c 0,-0.55 -1.0125,-1.1438 -2.25,-1.31955 -1.54817,-0.21988 -2.25,0.19173 -2.25,1.31955 0,1.12782 0.70183,1.53943 2.25,1.31955 1.2375,-0.17575 2.25,-0.76955 2.25,-1.31955 z m 5.5,8.71223 c 0,-0.43328 1.33171,-2.34578 2.95936,-4.25 3.21519,-3.76154 3.92346,-6.96223 1.54064,-6.96223 -0.825,0 -1.5,0.45 -1.5,1 0,0.55 -0.675,1 -1.5,1 -1.80819,0 -1.93321,-1.16679 -0.3,-2.8 1.5425,-1.5425 5.0575,-1.5425 6.6,0 1.87581,1.87581 1.4258,4.37821 -1.38889,7.72327 l -2.5889,3.07673 2.5889,0 c 1.42389,0 2.58889,0.45 2.58889,1 0,0.55 -2.025,1 -4.5,1 -2.475,0 -4.5,-0.3545 -4.5,-0.78777 z m 19,0 c 0,-0.43328 1.33171,-2.34578 2.95936,-4.25 3.21519,-3.76154 3.92346,-6.96223 1.54064,-6.96223 -0.825,0 -1.5,0.45 -1.5,1 0,0.55 -0.675,1 -1.5,1 -1.80819,0 -1.93321,-1.16679 -0.3,-2.8 1.5425,-1.5425 5.0575,-1.5425 6.6,0 1.87581,1.87581 1.4258,4.37821 -1.38889,7.72327 l -2.5889,3.07673 2.5889,0 c 1.42389,0 2.58889,0.45 2.58889,1 0,0.55 -2.025,1 -4.5,1 -2.475,0 -4.5,-0.3545 -4.5,-0.78777 z m 19,0 c 0,-0.43328 1.33171,-2.34578 2.95936,-4.25 3.21519,-3.76154 3.92346,-6.96223 1.54064,-6.96223 -0.825,0 -1.5,0.45 -1.5,1 0,0.55 -0.675,1 -1.5,1 -1.80819,0 -1.93321,-1.16679 -0.3,-2.8 1.5425,-1.5425 5.0575,-1.5425 6.6,0 1.87581,1.87581 1.4258,4.37821 -1.38889,7.72327 l -2.5889,3.07673 2.5889,0 c 1.42389,0 2.58889,0.45 2.58889,1 0,0.55 -2.025,1 -4.5,1 -2.475,0 -4.5,-0.3545 -4.5,-0.78777 z"
         id="path3438"
         style="fill:#fe0000" />
      <path
         d="m -221.08719,767.64941 0,-10 6.34501,0 c 6.68449,0 9.65499,1.65969 9.65499,5.39448 0,2.73099 -1.91087,5.60552 -3.72631,5.60552 -1.47733,0 -1.49026,0.13483 -0.11988,1.25 0.84484,0.6875 2.53649,2.7125 3.75922,4.5 l 2.22316,3.25 -2.43521,0 c -1.73323,0 -3.19826,-1.15305 -5.08228,-4 -1.6115,-2.43514 -3.42395,-4 -4.63289,-4 -1.65011,0 -1.98581,0.67619 -1.98581,4 0,3.33333 -0.33333,4 -2,4 -1.86667,0 -2,-0.66667 -2,-10 z m 11.5,-4 c 0,-1.01149 -1.22127,-1.60108 -3.75,-1.81037 -3.25206,-0.26915 -3.75,-0.0288 -3.75,1.81037 0,1.83913 0.49794,2.07952 3.75,1.81037 2.52873,-0.20929 3.75,-0.79888 3.75,-1.81037 z m 89.5,4 0,-10 6.34501,0 c 6.6845,0 9.65499,1.65969 9.65499,5.39448 0,2.73099 -1.91087,5.60552 -3.72631,5.60552 -1.47733,0 -1.49026,0.13483 -0.11988,1.25 0.84484,0.6875 2.53649,2.7125 3.75922,4.5 l 2.22316,3.25 -2.43521,0 c -1.73323,0 -3.19826,-1.15305 -5.08228,-4 -1.6115,-2.43514 -3.42395,-4 -4.63289,-4 -1.65011,0 -1.98581,0.67619 -1.98581,4 0,3.33333 -0.33333,4 -2,4 -1.86667,0 -2,-0.66667 -2,-10 z m 11.5,-4 c 0,-1.01149 -1.22127,-1.60108 -3.75,-1.81037 -3.25206,-0.26915 -3.75,-0.0288 -3.75,1.81037 0,1.83913 0.49794,2.07952 3.75,1.81037 2.52873,-0.20929 3.75,-0.79888 3.75,-1.81037 z m -92.30505,0.5 c 0.0204,-1.65 0.2445,-2.20394 0.49804,-1.23097 0.25354,0.97297 0.23687,2.32297 -0.037,3 -0.27393,0.67703 -0.48137,-0.11903 -0.46099,-1.76903 z m 50,0 c 0.0204,-1.65 0.2445,-2.20394 0.49804,-1.23097 0.25354,0.97297 0.23687,2.32297 -0.037,3 -0.27393,0.67703 -0.48137,-0.11903 -0.46099,-1.76903 z m -75.00587,-14.75 0.18909,-6.25 0.36082,5.75 0.36082,5.75 24.40019,0 24.40019,0 0.36082,-5.75 0.36082,-5.75 0.18909,5.75 0.18908,5.75 24.4501,0 24.45009,0 0.36082,-5.75 0.36082,-5.75 0.18909,5.71826 0.18908,5.71827 11.75,0.3167 c 6.4625,0.17419 -16.2625,0.41347 -50.5,0.53174 l -62.25,0.21503 0.18908,-6.25 z m 127.57258,5.54274 c 1.24391,-0.23919 3.04391,-0.23011 4,0.0202 0.95609,0.25029 -0.0617,0.446 -2.26166,0.4349 -2.2,-0.0111 -2.98225,-0.21589 -1.73834,-0.45508 z m -158,-1 c 1.24391,-0.23919 3.04391,-0.23011 4,0.0202 0.95609,0.25029 -0.0617,0.446 -2.26166,0.4349 -2.2,-0.0111 -2.98225,-0.21589 -1.73834,-0.45508 z m 84.23834,-7.23524 c 0,-4.71778 0.33175,-6.0575 1.5,-6.0575 0.83333,0 1.5,0.88889 1.5,2 0,1.1 0.43417,2 0.96482,2 0.53065,0 1.44648,-0.9 2.03518,-2 0.5887,-1.1 2.00629,-2 3.15019,-2 1.92697,0 1.97149,0.16537 0.6057,2.25 -1.11736,1.70546 -1.20693,2.67353 -0.37012,4 1.79282,2.84187 -0.43068,5.20117 -5.23761,5.5575 l -4.14816,0.3075 0,-6.0575 z m 8.68921,3.31003 c 0.34454,-0.89785 0.13766,-2.4151 -0.45972,-3.37167 -0.78507,-1.25709 -0.778,-2.04735 0.0255,-2.85086 0.61142,-0.61142 0.79382,-1.42952 0.40533,-1.818 -0.38848,-0.38848 -1.3965,0.27902 -2.24003,1.48333 -1.97998,2.82681 -4.16386,2.79886 -4.71457,-0.0603 -0.23835,-1.2375 -0.49465,0.1125 -0.56955,3 l -0.13617,5.24997 3.53138,0 c 2.34388,0 3.74204,-0.54895 4.15783,-1.63247 z m -6.68921,-1.36753 c 0,-1.55556 0.66667,-2 3,-2 2.33333,0 3,0.44444 3,2 0,1.55556 -0.66667,2 -3,2 -2.33333,0 -3,-0.44444 -3,-2 z m 5,0 c 0,-0.55 -0.9,-1 -2,-1 -1.1,0 -2,0.45 -2,1 0,0.55 0.9,1 2,1 1.1,0 2,-0.45 2,-1 z m -27.08978,-15.83224 c 0.53932,-1.00774 1.68998,-2.42099 2.55701,-3.14056 1.41891,-1.1776 1.37441,-1.44982 -0.4454,-2.72446 -2.24517,-1.57258 -2.67107,-5.2535 -0.82183,-7.10274 0.66,-0.66 3.585,-1.2 6.5,-1.2 l 5.3,0 0,8 c 0,6.44444 -0.29167,8 -1.5,8 -1,0 -1.5,-1 -1.5,-3 0,-1.91601 -0.50988,-3 -1.41111,-3 -0.77611,0 -2.54705,1.35 -3.93544,3 -2.85487,3.39283 -6.40133,4.26594 -4.74323,1.16776 z m 9.32403,-5.16776 c 1.09977,0 1.77173,1.0693 2.04235,3.25 0.22183,1.7875 0.47534,-0.036 0.56336,-4.05226 l 0.16004,-7.30226 -5.25,0.30226 c -5.06425,0.29157 -5.25,0.40546 -5.25,3.21893 0,1.7055 0.62288,3.12261 1.5,3.41262 1.28625,0.42528 1.30442,0.25903 0.12755,-1.16667 -1.97373,-2.39104 0.21614,-4.66262 4.49489,-4.66262 3.08618,0 3.37756,0.25881 3.37756,3 0,2.77138 -0.27122,3 -3.55902,3 -1.95746,0 -3.31807,0.38986 -3.02358,0.86635 0.29449,0.4765 -0.35395,1.67124 -1.44098,2.65499 -1.08703,0.98375 -1.97642,2.25717 -1.97642,2.82981 0,0.57265 1.48392,-0.39709 3.29761,-2.15498 1.81368,-1.75789 4.03517,-3.19617 4.93664,-3.19617 z m 0.76575,-4 c 0,-1.54664 -0.66667,-2 -2.94098,-2 -3.0742,0 -4.612,1.29625 -3.55902,3 0.33992,0.55 1.94148,1 3.55902,1 2.27431,0 2.94098,-0.45336 2.94098,-2 z m -43.63004,-2 c 0,-5.775 0.16528,-8.1375 0.36728,-5.25 0.202,2.8875 0.202,7.6125 0,10.5 -0.202,2.8875 -0.36728,0.525 -0.36728,-5.25 z m 50,0 c 0,-5.775 0.16528,-8.1375 0.36728,-5.25 0.202,2.8875 0.202,7.6125 0,10.5 -0.202,2.8875 -0.36728,0.525 -0.36728,-5.25 z m 50,0 c 0,-5.775 0.16528,-8.1375 0.36728,-5.25 0.202,2.8875 0.202,7.6125 0,10.5 -0.202,2.8875 -0.36728,0.525 -0.36728,-5.25 z m 27.3917,1.29274 c 1.24391,-0.23919 3.04391,-0.23011 4,0.0202 0.95609,0.25029 -0.0617,0.446 -2.26166,0.4349 -2.2,-0.0111 -2.98225,-0.21589 -1.73834,-0.45508 z m -158,-1 c 1.24391,-0.23919 3.04391,-0.23011 4,0.0202 0.95609,0.25029 -0.0617,0.446 -2.26166,0.4349 -2.2,-0.0111 -2.98225,-0.21589 -1.73834,-0.45508 z m 15.43834,-2.49274 c -1.68121,-1.68121 -1.4972,-5.74872 0.29111,-6.43496 1.25051,-0.47987 1.15444,-0.9992 -0.59541,-3.21862 -1.83336,-2.32534 -1.88784,-2.68663 -0.44907,-2.97784 0.90059,-0.18228 2.55119,0.83022 3.66799,2.25 2.56152,3.25645 3.88538,3.2842 3.88538,0.0814 0,-1.55556 0.56667,-2.5 1.5,-2.5 1.19048,0 1.5,1.44444 1.5,7 l 0,7 -4.3,0 c -2.365,0 -4.84,-0.54 -5.5,-1.2 z m 6.8,-3.3 c 0,-0.93333 -0.94444,-1.5 -2.5,-1.5 -1.55556,0 -2.5,0.56667 -2.5,1.5 0,0.93333 0.94444,1.5 2.5,1.5 1.55556,0 2.5,-0.56667 2.5,-1.5 z m 93.2,3.3 c -1.68121,-1.68121 -1.4972,-5.74872 0.29111,-6.43496 1.25051,-0.47987 1.15444,-0.9992 -0.59541,-3.21862 -1.83335,-2.32534 -1.88784,-2.68663 -0.44907,-2.97784 0.90059,-0.18228 2.55119,0.83022 3.66799,2.25 2.56152,3.25645 3.88538,3.2842 3.88538,0.0814 0,-1.55556 0.56667,-2.5 1.5,-2.5 1.19048,0 1.5,1.44444 1.5,7 l 0,7 -4.3,0 c -2.365,0 -4.84,-0.54 -5.5,-1.2 z m 6.8,-3.3 c 0,-0.93333 -0.94444,-1.5 -2.5,-1.5 -1.55556,0 -2.5,0.56667 -2.5,1.5 0,0.93333 0.94444,1.5 2.5,1.5 1.55556,0 2.5,-0.56667 2.5,-1.5 z m -87,-13.5 0,-10 6.34501,0 c 6.68449,0 9.65499,1.65969 9.65499,5.39448 0,2.73099 -1.91087,5.60552 -3.72631,5.60552 -1.47733,0 -1.49026,0.13483 -0.11988,1.25 0.84484,0.6875 2.53649,2.7125 3.75922,4.5 l 2.22316,3.25 -2.43521,0 c -1.73323,0 -3.19826,-1.15305 -5.08228,-4 -1.6115,-2.43514 -3.42395,-4 -4.63289,-4 -1.65011,0 -1.98581,0.67619 -1.98581,4 0,3.33333 -0.33333,4 -2,4 -1.86667,0 -2,-0.66667 -2,-10 z m 11.5,-4 c 0,-1.01149 -1.22127,-1.60108 -3.75,-1.81037 -3.25206,-0.26915 -3.75,-0.0288 -3.75,1.81037 0,1.83913 0.49794,2.07952 3.75,1.81037 2.52873,-0.20929 3.75,-0.79888 3.75,-1.81037 z m 88.5,4 0,-10 6.84501,0 c 7.208,0 10.15499,1.56548 10.15499,5.39448 0,2.73099 -1.91087,5.60552 -3.72631,5.60552 -1.47733,0 -1.49026,0.13483 -0.11988,1.25 0.84484,0.6875 2.53649,2.7125 3.75922,4.5 l 2.22316,3.25 -2.93521,0 c -2.31656,0 -3.49312,-0.84307 -5.58228,-4 -1.45589,-2.2 -3.31569,-4 -4.13289,-4 -1.06678,0 -1.48581,1.12809 -1.48581,4 0,3.6 -0.25,4 -2.5,4 -2.5,0 -2.5,0 -2.5,-10 z m 11.5,-4 c 0,-0.96136 -1.16705,-1.61252 -3.25,-1.81336 -2.74611,-0.26477 -3.25,0.0164 -3.25,1.81336 0,1.79698 0.50389,2.07813 3.25,1.81336 2.08295,-0.20084 3.25,-0.852 3.25,-1.81336 z m -116.31975,-3.75 -0.18025,-5.25 50.5,0 50.5,0 -0.18025,5.25 -0.18025,5.25 -0.37454,-4.75 -0.37454,-4.75 -24.39042,0 -24.39042,0 -0.37454,4.75 -0.37454,4.75 -0.18025,-4.75 -0.18025,-4.75 -24.44521,0 -24.44521,0 -0.37454,4.75 -0.37454,4.75 -0.18025,-5.25 z m 127.58141,-4.95726 c 1.24391,-0.23919 3.04391,-0.23011 4,0.0202 0.95609,0.25029 -0.0617,0.44599 -2.26166,0.4349 -2.2,-0.0111 -2.98225,-0.21589 -1.73834,-0.45508 z m -158,-1 c 1.24391,-0.23919 3.04391,-0.23011 4,0.0202 0.95609,0.25029 -0.0617,0.446 -2.26166,0.4349 -2.2,-0.0111 -2.98225,-0.21589 -1.73834,-0.45508 z m 84.23834,-6.23524 c 0,-4.71778 0.33175,-6.0575 1.5,-6.0575 0.83333,0 1.5,0.88889 1.5,2 0,1.1 0.43417,2 0.96482,2 0.53065,0 1.44648,-0.9 2.03518,-2 0.5887,-1.1 2.00629,-2 3.15019,-2 1.92697,0 1.97149,0.16536 0.6057,2.25 -1.11736,1.70546 -1.20693,2.67353 -0.37012,4 1.79282,2.84187 -0.43068,5.20116 -5.23761,5.5575 l -4.14816,0.3075 0,-6.0575 z m 8.68921,3.31003 c 0.34454,-0.89785 0.13766,-2.4151 -0.45972,-3.37167 -0.78507,-1.25709 -0.778,-2.04735 0.0255,-2.85086 0.61142,-0.61142 0.79382,-1.42952 0.40533,-1.818 -0.38848,-0.38848 -1.3965,0.27901 -2.24003,1.48333 -1.97998,2.82681 -4.16386,2.79886 -4.71457,-0.0603 -0.23835,-1.2375 -0.49465,0.1125 -0.56955,3 l -0.13617,5.25 3.53138,0 c 2.34388,0 3.74204,-0.54895 4.15783,-1.63247 z m -6.68921,-1.36753 c 0,-1.55556 0.66667,-2 3,-2 2.33333,0 3,0.44444 3,2 0,1.55556 -0.66667,2 -3,2 -2.33333,0 -3,-0.44444 -3,-2 z m 5,0 c 0,-0.55 -0.9,-1 -2,-1 -1.1,0 -2,0.45 -2,1 0,0.55 0.9,1 2,1 1.1,0 2,-0.45 2,-1 z m -35.80505,0.5 c 0.0204,-1.65 0.2445,-2.20394 0.49804,-1.23097 0.25354,0.97297 0.23687,2.32297 -0.037,3 -0.27393,0.67703 -0.48137,-0.11903 -0.46099,-1.76903 z m 50,0 c 0.0204,-1.65 0.2445,-2.20394 0.49804,-1.23097 0.25354,0.97297 0.23687,2.32297 -0.037,3 -0.27398,0.67703 -0.48142,-0.11903 -0.46104,-1.76903 z m -85.19495,-43.62244 c 0,-4.43991 -0.19987,-4.95657 -1.5,-3.87756 -1.22051,1.01293 -1.5,0.96401 -1.5,-0.26255 0,-1.30945 3.95432,-4.73745 5.46482,-4.73745 0.29435,0 0.53518,3.15 0.53518,7 0,5.55556 -0.30952,7 -1.5,7 -1.13811,0 -1.5,-1.23583 -1.5,-5.12244 z m 19,0 c 0,-4.43991 -0.19987,-4.95657 -1.5,-3.87756 -1.22051,1.01293 -1.5,0.96401 -1.5,-0.26255 0,-1.30945 3.95432,-4.73745 5.46482,-4.73745 0.29435,0 0.53518,3.15 0.53518,7 0,5.55556 -0.30952,7 -1.5,7 -1.13811,0 -1.5,-1.23583 -1.5,-5.12244 z m 19,0 c 0,-4.43991 -0.19987,-4.95657 -1.5,-3.87756 -1.22051,1.01293 -1.5,0.96401 -1.5,-0.26255 0,-1.30945 3.95432,-4.73745 5.46482,-4.73745 0.29435,0 0.53518,3.15 0.53518,7 0,5.55556 -0.30952,7 -1.5,7 -1.13811,0 -1.5,-1.23583 -1.5,-5.12244 z m -64,-6.87756 0,-7 4.3,0 c 4.7437,0 6.7,1.31394 6.7,4.5 0,2.88268 -1.8689,4.5 -5.2,4.5 -2.32,0 -2.8,0.42857 -2.8,2.5 0,1.55556 -0.56667,2.5 -1.5,2.5 -1.19048,0 -1.5,-1.44444 -1.5,-7 z m 7.5,-2.5 c 0,-0.55 -1.0125,-1.1438 -2.25,-1.31955 -1.54817,-0.21988 -2.25,0.19173 -2.25,1.31955 0,1.12782 0.70183,1.53943 2.25,1.31955 1.2375,-0.17575 2.25,-0.76955 2.25,-1.31955 z m 5.5,8.71223 c 0,-0.43328 1.33171,-2.34578 2.95936,-4.25 3.21519,-3.76154 3.92346,-6.96223 1.54064,-6.96223 -0.825,0 -1.5,0.45 -1.5,1 0,0.55 -0.675,1 -1.5,1 -1.80819,0 -1.93321,-1.16679 -0.3,-2.8 1.5425,-1.5425 5.0575,-1.5425 6.6,0 1.87581,1.87581 1.4258,4.37821 -1.38889,7.72327 l -2.5889,3.07673 2.5889,0 c 1.42389,0 2.58889,0.45 2.58889,1 0,0.55 -2.025,1 -4.5,1 -2.475,0 -4.5,-0.3545 -4.5,-0.78777 z m 19,0 c 0,-0.43328 1.33171,-2.34578 2.95936,-4.25 3.21519,-3.76154 3.92346,-6.96223 1.54064,-6.96223 -0.825,0 -1.5,0.45 -1.5,1 0,0.55 -0.675,1 -1.5,1 -1.80819,0 -1.93321,-1.16679 -0.3,-2.8 1.5425,-1.5425 5.0575,-1.5425 6.6,0 1.87581,1.87581 1.4258,4.37821 -1.38889,7.72327 l -2.5889,3.07673 2.5889,0 c 1.42389,0 2.58889,0.45 2.58889,1 0,0.55 -2.025,1 -4.5,1 -2.475,0 -4.5,-0.3545 -4.5,-0.78777 z m 19,0 c 0,-0.43328 1.33171,-2.34578 2.95936,-4.25 3.21519,-3.76154 3.92346,-6.96223 1.54064,-6.96223 -0.825,0 -1.5,0.45 -1.5,1 0,0.55 -0.675,1 -1.5,1 -1.80819,0 -1.93321,-1.16679 -0.3,-2.8 1.5425,-1.5425 5.0575,-1.5425 6.6,0 1.87581,1.87581 1.4258,4.37821 -1.38889,7.72327 l -2.5889,3.07673 2.5889,0 c 1.42389,0 2.58889,0.45 2.58889,1 0,0.55 -2.025,1 -4.5,1 -2.475,0 -4.5,-0.3545 -4.5,-0.78777 z"
         id="path3436"
         style="fill:#000000" />
    </g>
  </g>
</svg>
