<?xml version="1.0" encoding="UTF-8" standalone="no"?>
<!-- Created with Inkscape (http://www.inkscape.org/) -->

<svg
   xmlns:dc="http://purl.org/dc/elements/1.1/"
   xmlns:cc="http://creativecommons.org/ns#"
   xmlns:rdf="http://www.w3.org/1999/02/22-rdf-syntax-ns#"
   xmlns:svg="http://www.w3.org/2000/svg"
   xmlns="http://www.w3.org/2000/svg"
   xmlns:sodipodi="http://sodipodi.sourceforge.net/DTD/sodipodi-0.dtd"
   xmlns:inkscape="http://www.inkscape.org/namespaces/inkscape"
   version="1.1"
   width="32"
   height="32"
   id="svg3039"
   inkscape:version="0.48.5 r10040"
   sodipodi:docname="privateer.svg">
  <sodipodi:namedview
     pagecolor="#ffffff"
     bordercolor="#666666"
     borderopacity="1"
     objecttolerance="10"
     gridtolerance="10"
     guidetolerance="10"
     inkscape:pageopacity="0"
     inkscape:pageshadow="2"
     inkscape:window-width="1206"
     inkscape:window-height="726"
     id="namedview10554"
     showgrid="false"
     inkscape:zoom="7.375"
     inkscape:cx="-0.27118644"
     inkscape:cy="10.576271"
     inkscape:window-x="0"
     inkscape:window-y="0"
     inkscape:window-maximized="0"
     inkscape:current-layer="svg3039" />
  <metadata
     id="metadata3045">
    <rdf:RDF>
      <cc:Work
         rdf:about="">
        <dc:format>image/svg+xml</dc:format>
        <dc:type
           rdf:resource="http://purl.org/dc/dcmitype/StillImage" />
        <dc:title></dc:title>
      </cc:Work>
    </rdf:RDF>
  </metadata>
  <defs
     id="defs3043">
    <clipPath
       id="clipPath75">
      <path
         d="m 31,881 12,0 0,12 -12,0 0,-12 z"
         id="path231" />
    </clipPath>
    <clipPath
       id="clipPath7107">
      <path
         d="m 31,881 12,0 0,12 -12,0 0,-12 z"
         id="path7109" />
    </clipPath>
    <clipPath
       id="clipPath7111">
      <path
         d="m 31,881 12,0 0,12 -12,0 0,-12 z"
         id="path7113" />
    </clipPath>
    <clipPath
       id="clipPath76">
      <path
         d="m 31,861 12,0 0,12 -12,0 0,-12 z"
         id="path234" />
    </clipPath>
    <clipPath
       id="clipPath7117">
      <path
         d="m 31,861 12,0 0,12 -12,0 0,-12 z"
         id="path7119" />
    </clipPath>
    <clipPath
       id="clipPath7121">
      <path
         d="m 31,861 12,0 0,12 -12,0 0,-12 z"
         id="path7123" />
    </clipPath>
    <clipPath
       id="clipPath77">
      <path
         d="m 43,847 c 0,3.3137 -2.6863,6 -6,6 -3.3137,0 -6,-2.6863 -6,-6 0,-3.3137 2.6863,-6 6,-6 3.3137,0 6,2.6863 6,6 z"
         id="path237" />
    </clipPath>
    <clipPath
       id="clipPath7127">
      <path
         d="m 43,847 c 0,3.3137 -2.6863,6 -6,6 -3.3137,0 -6,-2.6863 -6,-6 0,-3.3137 2.6863,-6 6,-6 3.3137,0 6,2.6863 6,6 z"
         id="path7129" />
    </clipPath>
    <clipPath
       id="clipPath7131">
      <path
         d="m 43,847 c 0,3.3137 -2.6863,6 -6,6 -3.3137,0 -6,-2.6863 -6,-6 0,-3.3137 2.6863,-6 6,-6 3.3137,0 6,2.6863 6,6 z"
         id="path7133" />
    </clipPath>
    <clipPath
       id="clipPath78">
      <path
         d="m 28,827 c 0,3.3137 -2.6863,6 -6,6 -3.3137,0 -6,-2.6863 -6,-6 0,-3.3137 2.6863,-6 6,-6 3.3137,0 6,2.6863 6,6 z"
         id="path240" />
    </clipPath>
    <clipPath
       id="clipPath7137">
      <path
         d="m 28,827 c 0,3.3137 -2.6863,6 -6,6 -3.3137,0 -6,-2.6863 -6,-6 0,-3.3137 2.6863,-6 6,-6 3.3137,0 6,2.6863 6,6 z"
         id="path7139" />
    </clipPath>
    <clipPath
       id="clipPath7141">
      <path
         d="m 28,827 c 0,3.3137 -2.6863,6 -6,6 -3.3137,0 -6,-2.6863 -6,-6 0,-3.3137 2.6863,-6 6,-6 3.3137,0 6,2.6863 6,6 z"
         id="path7143" />
    </clipPath>
    <clipPath
       id="clipPath79">
      <path
         d="m 16,801 12,0 0,12 -12,0 0,-12 z"
         id="path243" />
    </clipPath>
    <clipPath
       id="clipPath7147">
      <path
         d="m 16,801 12,0 0,12 -12,0 0,-12 z"
         id="path7149" />
    </clipPath>
    <clipPath
       id="clipPath7151">
      <path
         d="m 16,801 12,0 0,12 -12,0 0,-12 z"
         id="path7153" />
    </clipPath>
    <clipPath
       id="clipPath80">
      <path
         d="m 28,787 c 0,3.3137 -2.6863,6 -6,6 -3.3137,0 -6,-2.6863 -6,-6 0,-3.3137 2.6863,-6 6,-6 3.3137,0 6,2.6863 6,6 z"
         id="path246" />
    </clipPath>
    <clipPath
       id="clipPath7157">
      <path
         d="m 28,787 c 0,3.3137 -2.6863,6 -6,6 -3.3137,0 -6,-2.6863 -6,-6 0,-3.3137 2.6863,-6 6,-6 3.3137,0 6,2.6863 6,6 z"
         id="path7159" />
    </clipPath>
    <clipPath
       id="clipPath7161">
      <path
         d="m 28,787 c 0,3.3137 -2.6863,6 -6,6 -3.3137,0 -6,-2.6863 -6,-6 0,-3.3137 2.6863,-6 6,-6 3.3137,0 6,2.6863 6,6 z"
         id="path7163" />
    </clipPath>
    <clipPath
       id="clipPath81">
      <path
         d="m 58,827 c 0,3.3137 -2.6863,6 -6,6 -3.3137,0 -6,-2.6863 -6,-6 0,-3.3137 2.6863,-6 6,-6 3.3137,0 6,2.6863 6,6 z"
         id="path249" />
    </clipPath>
    <clipPath
       id="clipPath7167">
      <path
         d="m 58,827 c 0,3.3137 -2.6863,6 -6,6 -3.3137,0 -6,-2.6863 -6,-6 0,-3.3137 2.6863,-6 6,-6 3.3137,0 6,2.6863 6,6 z"
         id="path7169" />
    </clipPath>
    <clipPath
       id="clipPath7171">
      <path
         d="m 58,827 c 0,3.3137 -2.6863,6 -6,6 -3.3137,0 -6,-2.6863 -6,-6 0,-3.3137 2.6863,-6 6,-6 3.3137,0 6,2.6863 6,6 z"
         id="path7173" />
    </clipPath>
    <clipPath
       id="clipPath82">
      <path
         d="m 48,807 c 0,3.3137 -2.6863,6 -6,6 -3.3137,0 -6,-2.6863 -6,-6 0,-3.3137 2.6863,-6 6,-6 3.3137,0 6,2.6863 6,6 z"
         id="path252" />
    </clipPath>
    <clipPath
       id="clipPath7177">
      <path
         d="m 48,807 c 0,3.3137 -2.6863,6 -6,6 -3.3137,0 -6,-2.6863 -6,-6 0,-3.3137 2.6863,-6 6,-6 3.3137,0 6,2.6863 6,6 z"
         id="path7179" />
    </clipPath>
    <clipPath
       id="clipPath7181">
      <path
         d="m 48,807 c 0,3.3137 -2.6863,6 -6,6 -3.3137,0 -6,-2.6863 -6,-6 0,-3.3137 2.6863,-6 6,-6 3.3137,0 6,2.6863 6,6 z"
         id="path7183" />
    </clipPath>
    <clipPath
       id="clipPath83">
      <path
         d="m 68,807 c 0,3.3137 -2.6863,6 -6,6 -3.3137,0 -6,-2.6863 -6,-6 0,-3.3137 2.6863,-6 6,-6 3.3137,0 6,2.6863 6,6 z"
         id="path255" />
    </clipPath>
    <clipPath
       id="clipPath7187">
      <path
         d="m 68,807 c 0,3.3137 -2.6863,6 -6,6 -3.3137,0 -6,-2.6863 -6,-6 0,-3.3137 2.6863,-6 6,-6 3.3137,0 6,2.6863 6,6 z"
         id="path7189" />
    </clipPath>
    <clipPath
       id="clipPath7191">
      <path
         d="m 68,807 c 0,3.3137 -2.6863,6 -6,6 -3.3137,0 -6,-2.6863 -6,-6 0,-3.3137 2.6863,-6 6,-6 3.3137,0 6,2.6863 6,6 z"
         id="path7193" />
    </clipPath>
  </defs>
  <g
     transform="matrix(-0.09145776,0.12005788,-0.23097703,-0.1759538,-54.751729,-54.552391)"
     id="g11409">
    <path
       id="path11411"
       style="fill:none;stroke:#000000;stroke-width:1.11111104;stroke-linecap:round;stroke-linejoin:miter;stroke-miterlimit:4;stroke-opacity:1;stroke-dasharray:5.555556, 2.222222;stroke-dashoffset:0"
       d="m 19.445,-326.59 61.11,0"
       inkscape:connector-curvature="0" />
  </g>
  <g
     id="g9335"
     transform="matrix(0.07311737,0.09791168,-0.18200088,0.14559209,-56.392146,51.322829)">
    <path
       inkscape:connector-curvature="0"
       d="m 19.445,-326.59 61.11,0"
       style="fill:none;stroke:#000000;stroke-width:1.11111104;stroke-linecap:round;stroke-linejoin:miter;stroke-miterlimit:4;stroke-opacity:1;stroke-dasharray:5.555556, 2.222222;stroke-dashoffset:0"
       id="path9337" />
  </g>
  <rect
     width="8.4336538"
     height="7.8626208"
     x="20.606611"
     y="22.572306"
     id="rect3876"
     style="fill:none;stroke:#000000;stroke-width:1.15168238;stroke-miterlimit:4;stroke-opacity:1;stroke-dasharray:none" />
  <g
     transform="matrix(0.94556068,0,0,0.74314633,4.8801445,5.0918177)"
     id="text3886"
     style="font-size:17.16951561000000126px;font-style:normal;font-weight:normal;line-height:125%;letter-spacing:0px;word-spacing:0px;fill:#ed5000;fill-opacity:1;stroke:none;font-family:Sans">
    <path
       d="m 25.064836,24.076121 c 0.08941,0.04472 0.134123,0.134148 0.134137,0.268274 -1.4e-5,0.134147 -0.02237,0.223572 -0.06707,0.268273 -0.93897,1.162529 -2.03442,2.59332 -3.286352,4.292379 0.849522,1.699071 1.497849,2.995726 1.944984,3.889969 -0.04472,0.08943 -0.134149,0.156495 -0.268274,0.201205 l 0,0.134137 c -0.04472,0.08943 -0.156505,0.178851 -0.335342,0.268273 0.134125,0.223563 0.134125,0.3577 0,0.402411 -0.134148,0.08943 -0.223573,0.156494 -0.268274,0.201205 -0.17886,0.08943 -0.357709,0.02236 -0.536547,-0.201205 -0.670694,-0.894243 -1.319022,-1.900269 -1.944984,-3.018079 -1.162527,1.743782 -2.190909,3.353422 -3.085148,4.828926 -0.223566,0.357698 -0.380059,0.558903 -0.469479,0.603616 -0.134141,0.08942 -0.335347,0.11178 -0.603615,0.06707 -0.223566,0.04471 -0.357703,-1e-6 -0.402411,-0.134136 -0.04472,-0.08943 -0.111785,-0.223563 -0.201205,-0.402411 -0.08943,-0.08942 -0.134141,-0.201206 -0.134137,-0.335342 0.04471,-0.134137 0.08942,-0.29063 0.134137,-0.469479 l -0.201205,-0.335342 c 0.536543,-1.028381 1.87791,-2.928651 4.024105,-5.700816 -0.625979,-1.296648 -1.162526,-2.615659 -1.609642,-3.957037 -6e-6,-0.134126 0.111774,-0.290619 0.335342,-0.469479 0.13413,-0.134126 0.245911,-0.156482 0.335342,-0.06707 0.04471,0.08943 0.13413,0.111791 0.268274,0.06707 0.134129,-0.0447 0.223554,-0.111769 0.268273,-0.201205 0.04471,-0.0447 0.111773,-0.06706 0.201206,-0.06707 0.134129,0.04472 0.223553,0.111791 0.268273,0.201205 0.223554,0.536558 0.670676,1.430802 1.341369,2.682737 0.894235,-1.028374 1.78848,-2.101467 2.682736,-3.219284 0.0447,-0.08941 0.111769,-0.134126 0.201206,-0.134137 0.134124,1.1e-5 0.268261,0.06708 0.40241,0.201205 0.134124,0.134148 0.223549,0.156504 0.268274,0.06707 0.08941,-0.0447 0.15648,-0.08941 0.201205,-0.134137 0.08941,-0.08941 0.134124,-0.11177 0.134137,-0.06707 0.0447,0.08944 0.134124,0.178861 0.268274,0.268274"
       id="path3089"
       style="fill:#ed5000;fill-opacity:1" />
  </g>
  <g
     transform="matrix(0.44002667,0,0,0.61183338,-4.7511174,-506.33139)"
     id="g1522"
     style="font-size:12px;font-style:normal;font-weight:normal;fill:#000000;fill-opacity:1;stroke:#000000;stroke-width:1.63818467;stroke-linecap:square;stroke-linejoin:miter;stroke-miterlimit:10;stroke-opacity:1;stroke-dasharray:none;stroke-dashoffset:0;font-family:Dialog">
    <polygon
       points="37,847 37,867 "
       id="polygon1524"
       style="fill:none;stroke-width:1.63818467;stroke-miterlimit:10;stroke-dasharray:none" />
  </g>
  <rect
     width="8.4336538"
     height="7.8626208"
     x="20.606611"
     y="11.667779"
     id="rect3874"
     style="fill:none;stroke:#000000;stroke-width:1.15168238;stroke-miterlimit:4;stroke-opacity:1;stroke-dasharray:none" />
  <g
     transform="matrix(0.75274423,0,0,0.7811448,6.7217767,6.6159034)"
     id="text3882"
     style="font-size:17.45545386999999948px;font-style:normal;font-weight:normal;line-height:125%;letter-spacing:0px;word-spacing:0px;fill:#47ba47;fill-opacity:1;stroke:none;font-family:Sans">
    <path
       d="m 20.458087,11.578204 c -3e-6,-0.181824 -0.02273,-0.340923 -0.06819,-0.477297 -3e-6,-0.409108 0.272739,-0.772763 0.818225,-1.090966 0.363651,-0.1818227 0.636392,-0.2727365 0.818224,-0.2727417 0.22728,0.045462 0.386379,0.1818327 0.477298,0.4091117 0.272736,0.636401 0.454563,1.068242 0.545483,1.295522 0.09091,0.181831 0.181822,0.272745 0.272741,0.272742 0.09091,3e-6 0.181822,-0.06818 0.272741,-0.204556 1.545528,-2.7274086 2.931962,-4.8411529 4.159308,-6.3412393 0.954584,-1.1364118 1.545523,-1.7955363 1.772819,-1.9773756 0.727298,-0.5454706 1.590979,-0.8409402 2.591044,-0.8864098 l 0.06819,0.3409269 c -0.772782,0.772779 -2.113759,2.5001399 -4.022937,5.1820878 -1.863742,2.681962 -3.20472,4.795707 -4.022937,6.341239 -0.181834,0.409113 -0.409118,0.659126 -0.681853,0.750039 -0.136377,0.136371 -0.431846,0.181828 -0.88641,0.136371 -0.318203,0.04546 -0.545487,0 -0.681854,-0.136371 -0.136375,-0.09091 -0.272745,-0.272741 -0.409112,-0.545483 -0.454572,-1.090964 -0.795499,-2.02283 -1.02278,-2.7956"
       id="path3092"
       style="fill:#47ba47;fill-opacity:1" />
  </g>
  <g
     id="g9691"
     transform="matrix(0.33196562,0,0,0.33196562,-96.729383,20.689494)">
    <path
       inkscape:connector-curvature="0"
       d="m 312.699,5.555 27.777,0 0,27.777 -27.777,0 0,-27.777 z"
       style="fill:#0000fa;fill-opacity:1;fill-rule:nonzero;stroke:#000000;stroke-width:1.55555606;stroke-linecap:butt;stroke-linejoin:miter;stroke-miterlimit:4;stroke-opacity:1;stroke-dasharray:none"
       id="path9693" />
  </g>
  <g
     transform="matrix(0.327343,0,0,0.327343,-55.550161,9.3725943)"
     id="g9397">
    <path
       id="path9399"
       style="fill:#00c832;fill-opacity:1;fill-rule:nonzero;stroke:#000000;stroke-width:1.55555606;stroke-linecap:butt;stroke-linejoin:miter;stroke-miterlimit:4;stroke-opacity:1;stroke-dasharray:none"
       d="m 218.254,19.445 c 0,7.668 -6.215,13.887 -13.887,13.887 -7.672,0 -13.89,-6.219 -13.89,-13.887 0,-7.672 6.218,-13.89 13.89,-13.89 7.672,0 13.887,6.218 13.887,13.89 z"
       inkscape:connector-curvature="0" />
  </g>
  <g
     id="g11451"
     transform="matrix(0.327343,0,0,0.327343,-61.550161,-1.1274057)">
    <path
       inkscape:connector-curvature="0"
       d="m 218.254,19.445 c 0,7.668 -6.215,13.887 -13.887,13.887 -7.672,0 -13.89,-6.219 -13.89,-13.887 0,-7.672 6.218,-13.89 13.89,-13.89 7.672,0 13.887,6.218 13.887,13.89 z"
       style="fill:#00c832;fill-opacity:1;fill-rule:nonzero;stroke:#000000;stroke-width:1.55555606;stroke-linecap:butt;stroke-linejoin:miter;stroke-miterlimit:4;stroke-opacity:1;stroke-dasharray:none"
       id="path11453" />
  </g>
  <g
     transform="matrix(0.327343,0,0,0.327343,-49.050161,-1.1274057)"
     id="g11455">
    <path
       id="path11457"
       style="fill:#00c832;fill-opacity:1;fill-rule:nonzero;stroke:#000000;stroke-width:1.55555606;stroke-linecap:butt;stroke-linejoin:miter;stroke-miterlimit:4;stroke-opacity:1;stroke-dasharray:none"
       d="m 218.254,19.445 c 0,7.668 -6.215,13.887 -13.887,13.887 -7.672,0 -13.89,-6.219 -13.89,-13.887 0,-7.672 6.218,-13.89 13.89,-13.89 7.672,0 13.887,6.218 13.887,13.89 z"
       inkscape:connector-curvature="0" />
  </g>
</svg>
