<?xml version="1.0" encoding="UTF-8" standalone="no"?>
<!-- Created with Inkscape (http://www.inkscape.org/) -->

<svg
   xmlns:dc="http://purl.org/dc/elements/1.1/"
   xmlns:cc="http://creativecommons.org/ns#"
   xmlns:rdf="http://www.w3.org/1999/02/22-rdf-syntax-ns#"
   xmlns:svg="http://www.w3.org/2000/svg"
   xmlns="http://www.w3.org/2000/svg"
   xmlns:sodipodi="http://sodipodi.sourceforge.net/DTD/sodipodi-0.dtd"
   xmlns:inkscape="http://www.inkscape.org/namespaces/inkscape"
   version="1.1"
   width="64"
   height="64"
   id="svg2"
   inkscape:version="0.48.4 r9939"
   sodipodi:docname="shelx.svg">
  <sodipodi:namedview
     pagecolor="#ffffff"
     bordercolor="#666666"
     borderopacity="1"
     objecttolerance="10"
     gridtolerance="10"
     guidetolerance="10"
     inkscape:pageopacity="0"
     inkscape:pageshadow="2"
     inkscape:window-width="1055"
     inkscape:window-height="700"
     id="namedview22"
     showgrid="false"
     inkscape:zoom="3.6875"
     inkscape:cx="32"
     inkscape:cy="21.152542"
     inkscape:window-x="457"
     inkscape:window-y="165"
     inkscape:window-maximized="0"
     inkscape:current-layer="svg2" />
  <defs
     id="defs4">
    <linearGradient
       id="linearGradient3893">
      <stop
         id="stop3895"
         style="stop-color:#ffffff;stop-opacity:1"
         offset="0" />
      <stop
         id="stop3897"
         style="stop-color:#464646;stop-opacity:1"
         offset="0.5" />
      <stop
         id="stop3899"
         style="stop-color:#ffffff;stop-opacity:1"
         offset="1" />
    </linearGradient>
    <linearGradient
       id="linearGradient3871">
      <stop
         id="stop3873"
         style="stop-color:#929292;stop-opacity:1"
         offset="0" />
      <stop
         id="stop3879"
         style="stop-color:#878787;stop-opacity:1"
         offset="0.5" />
      <stop
         id="stop3875"
         style="stop-color:#1a1a1a;stop-opacity:1"
         offset="1" />
    </linearGradient>
  </defs>
  <metadata
     id="metadata7">
    <rdf:RDF>
      <cc:Work
         rdf:about="">
        <dc:format>image/svg+xml</dc:format>
        <dc:type
           rdf:resource="http://purl.org/dc/dcmitype/StillImage" />
        <dc:title />
      </cc:Work>
    </rdf:RDF>
  </metadata>
  <g
     transform="translate(0,-988.36218)"
     id="layer1">
    <g
       transform="matrix(0.21062143,0,0,0.21527744,8.9439942,790.05099)"
       id="g9812">
      <path
         d="m -22.556754,1092.5038 c -5.805046,-0.7309 -10.839234,-3.0901 -13.874687,-6.5021 -2.162708,-2.431 -4.361979,-10.122 -3.20075,-11.1932 0.504847,-0.4657 3.99857,-1.0779 7.763827,-1.3605 l 6.845924,-0.5137 1.389554,3.3257 c 0.764255,1.8291 2.396217,4.0307 3.626583,4.8925 4.435725,3.1069 13.332349,1.2465 14.401024,-3.0114 0.843701,-3.3616 -1.006263,-5.8643 -5.798247,-7.8442 -17.966375,-7.4232 -21.810761,-10.6245 -21.810761,-18.162 0,-11.0887 8.494457,-17.4155 23.382328,-17.4155 11.422718,0 18.779548,3.1806 22.250355,9.6194 2.577416,4.7815 1.46512,6.0535 -5.802964,6.6359 -6.272399,0.5027 -6.358124,0.4745 -9.46644,-3.11 -2.741208,-3.1613 -3.677184,-3.6032 -7.423002,-3.505 -4.23245,0.111 -6.940277,2.0551 -6.940277,4.9827 0,1.6344 4.403541,4.6219 10,6.7845 12.512731,4.8351 16.989986,9.6281 16.996262,18.1946 0.0045,6.1141 -2.535295,10.4246 -8.691717,14.7515 -4.798042,3.3722 -13.772041,4.6742 -23.647012,3.4308 z m 166.559794,0.3711 c -1.0074,-0.6393 0.0119,-6.8632 4.75,-29.0029 3.31797,-15.5039 6.03267,-28.4057 6.03267,-28.6708 0,-0.265 4.05,-0.4818 9,-0.4818 4.95,0 9,0.3644 9,0.8099 0,1.0918 -7.90771,39.2281 -8.59278,41.4401 -0.4992,1.6118 0.61743,1.75 14.14197,1.75 l 14.68396,0 -0.55675,2.25 c -0.30621,1.2375 -1.0554,4.3185 -1.66485,6.8466 l -1.1081,4.5967 -14.20173,0.6497 c -18.96001,0.8674 -29.92484,0.8021 -31.48439,-0.1875 z m 57.87303,-0.1499 -10.40964,-0.5056 13.65964,-14.8144 c 7.5128,-8.148 13.65964,-15.1999 13.65964,-15.6709 0,-0.7548 -7.75713,-14.7136 -13.20642,-23.7647 l -1.9567,-3.25 9.5704,0 9.5704,0 4.0855,8.1257 c 2.24703,4.4691 4.4207,7.7316 4.83038,7.25 0.40968,-0.4817 3.59174,-4.1382 7.07125,-8.1257 l 6.32638,-7.25 9.3544,0 c 7.98968,0 9.35441,0.2384 9.35441,1.6342 0,0.8987 -3.9375,5.8687 -8.75,11.0444 -4.8125,5.1757 -10.24859,11.1634 -12.08019,13.3061 l -3.33019,3.8959 6.18279,12.3097 c 3.40054,6.7703 6.58662,12.7372 7.08019,13.2597 2.3067,2.4419 0.58809,3.0439 -8.19733,2.8713 -5.00277,-0.098 -9.22529,-0.3232 -9.38338,-0.5 -0.15809,-0.1767 -1.92085,-3.5838 -3.91724,-7.5713 -3.14254,-6.2768 -5.52359,-9.0214 -5.63897,-6.5 -0.0189,0.4125 -3.05638,3.9025 -6.75,7.7556 l -6.71568,7.0056 -10.40964,-0.5056 z m -185.090357,-1.619 c 0,-1.5694 10.450319,-50.735 11.61319,-54.6366 0.442143,-1.4835 1.780568,-1.75 8.787531,-1.75 4.54627,0 8.504967,0.239 8.797104,0.5312 0.292136,0.2921 -0.292495,4.0046 -1.299181,8.25 -3.054941,12.8831 -3.464377,12.2188 7.530458,12.2188 l 9.429098,0 1.1395,-5.75 c 0.62672,-3.1625 1.68484,-7.775 2.35138,-10.25 l 1.21189,-4.5 7.87466,-0.2949 c 4.33106,-0.1621 8.26049,0.091 8.73207,0.5626 0.47654,0.4765 -1.81338,13.1771 -5.15515,28.5919 -3.3069,15.2539 -6.01255,27.9382 -6.01255,28.1874 0,0.7976 -16.86295,0.4838 -17.361654,-0.3232 -0.263828,-0.4268 0.562294,-5.6018 1.835834,-11.5 l 2.31553,-10.7238 -9.756483,0 -9.756482,0 -2.394315,11.25 -2.394316,11.25 -8.744057,0.2889 c -7.65923,0.2531 -8.744057,0.079 -8.744057,-1.4023 z m 67,1.1316 c 0,-0.2651 2.7,-13.0982 6,-28.5182 3.3,-15.42 6,-28.2531 6,-28.5182 0,-0.265 10.808567,-0.4818 24.019047,-0.4818 l 24.01905,0 -0.52334,2.25 c -0.28783,1.2375 -0.8785,4.05 -1.31259,6.25 l -0.78926,4 -14.43531,0.2789 c -7.93942,0.1533 -14.72774,0.6033 -15.08516,1 -0.35742,0.3966 -0.94983,2.4086 -1.31646,4.4711 l -0.66661,3.75 14.04532,0 c 7.92353,0 14.04531,0.4026 14.04531,0.9237 0,0.5081 -0.52729,3.2081 -1.17175,6 l -1.17175,5.0763 -14.24538,0 -14.24539,0 -1.08287,5.0492 c -0.59557,2.7771 -1.08286,5.2409 -1.08286,5.4752 0,0.2344 7.11905,0.5497 15.82012,0.7008 l 15.82012,0.2748 -1.38924,6.25 -1.38924,6.25 -24.93088,0 c -13.711977,0 -24.930877,-0.2168 -24.930877,-0.4818 z"
         id="path9826"
         style="fill:#0302db" />
      <path
         d="m 144.00304,1092.8749 c -1.0074,-0.6393 0.0119,-6.8632 4.75,-29.0029 3.31797,-15.5039 6.03267,-28.4057 6.03267,-28.6708 0,-0.265 4.05,-0.4818 9,-0.4818 4.95,0 9,0.3644 9,0.8099 0,1.0918 -7.90771,39.2281 -8.59278,41.4401 -0.4992,1.6118 0.61743,1.75 14.14197,1.75 l 14.68396,0 -0.55675,2.25 c -0.30621,1.2375 -1.0554,4.3185 -1.66485,6.8466 l -1.1081,4.5967 -14.20173,0.6497 c -18.96001,0.8674 -29.92484,0.8021 -31.48439,-0.1875 z m 57.87303,-0.1499 -10.40964,-0.5056 13.65964,-14.8144 c 7.5128,-8.148 13.65964,-15.1999 13.65964,-15.6709 0,-0.7548 -7.75713,-14.7136 -13.20642,-23.7647 l -1.9567,-3.25 9.5704,0 9.5704,0 4.0855,8.1257 c 2.24703,4.4691 4.4207,7.7316 4.83038,7.25 0.40968,-0.4817 3.59174,-4.1382 7.07125,-8.1257 l 6.32638,-7.25 9.3544,0 c 7.98968,0 9.35441,0.2384 9.35441,1.6342 0,0.8987 -3.9375,5.8687 -8.75,11.0444 -4.8125,5.1757 -10.24859,11.1634 -12.08019,13.3061 l -3.33019,3.8959 6.18279,12.3097 c 3.40054,6.7703 6.58662,12.7372 7.08019,13.2597 2.3067,2.4419 0.58809,3.0439 -8.19733,2.8713 -5.00277,-0.098 -9.22529,-0.3232 -9.38338,-0.5 -0.15809,-0.1767 -1.92085,-3.5838 -3.91724,-7.5713 -3.14254,-6.2768 -5.52359,-9.0214 -5.63897,-6.5 -0.0189,0.4125 -3.05638,3.9025 -6.75,7.7556 l -6.71568,7.0056 -10.40964,-0.5056 z m -228.536096,-0.6808 c -2.498002,-0.7021 -8.748036,-4.6417 -10.214973,-6.4388 -2.129667,-2.609 -3.432651,-9.2269 -2.072487,-10.5262 1.555389,-1.4857 13.928128,-2.2248 14.395075,-0.8598 0.205781,0.6015 -2.34114,1 -6.391794,1 -5.727501,0 -6.78719,0.2734 -7.090542,1.8291 -0.592343,3.0378 1.859726,7.5339 5.819025,10.6698 3.121649,2.4724 4.963001,3.0623 11.121247,3.5631 5.357648,0.4356 6.969113,0.308 5.880188,-0.4656 -1.294999,-0.9201 -1.260832,-1.0679 0.25,-1.0811 0.9625,-0.01 1.75,-0.6903 1.75,-1.5153 0,-0.8955 0.906784,-1.491 2.25,-1.4778 l 2.25,0.022 -2.48506,1.9093 c -1.366782,1.0502 -2.175265,2.2192 -1.796628,2.5978 1.136726,1.1368 7.402608,-0.4656 10.091407,-2.5806 1.381938,-1.087 3.172069,-1.7233 3.97807,-1.4141 0.982039,0.3769 1.680763,-0.2955 2.11815,-2.0381 0.358982,-1.4303 1.094787,-2.3274 1.635123,-1.9934 0.540335,0.3339 1.260265,-0.782 1.599845,-2.4799 0.339579,-1.6979 1.009294,-3.3293 1.488255,-3.6253 1.162456,-0.7185 1.117299,-6.1498 -0.05717,-6.8757 -1.197041,-0.7398 -2.425605,3.0743 -1.482035,4.6011 0.448743,0.726 0.282897,0.8939 -0.441163,0.4464 -1.390595,-0.8595 -1.251219,-9.592 0.153098,-9.592 2.05815,0 3.635752,3.7005 3.666305,8.6 0.0378,6.0624 -3.447987,11.677 -9.62258,15.4992 -3.337883,2.0663 -5.231925,2.4065 -14.345617,2.5766 -5.775,0.1077 -11.375583,-0.05 -12.445739,-0.351 z m 43.445739,-0.9382 c 0,-1.5694 10.450319,-50.735 11.61319,-54.6366 0.442143,-1.4835 1.780568,-1.75 8.787531,-1.75 4.54627,0 8.504967,0.239 8.797104,0.5312 0.292136,0.2921 -0.292495,4.0046 -1.299181,8.25 -3.054941,12.8831 -3.464377,12.2188 7.530458,12.2188 l 9.429098,0 1.1395,-5.75 c 0.62672,-3.1625 1.68484,-7.775 2.35138,-10.25 l 1.21189,-4.5 7.87466,-0.2949 c 4.33106,-0.1621 8.28275,0.1133 8.78154,0.6121 0.54251,0.5425 0.0848,4.4779 -1.13907,9.7948 -2.13082,9.2567 -10.0781,46.3182 -10.0781,46.9984 0,0.7553 -16.88835,0.3793 -17.361654,-0.3866 -0.263828,-0.4268 0.562294,-5.6018 1.835834,-11.5 l 2.31553,-10.7238 -9.756483,0 -9.756482,0 -2.394315,11.25 -2.394316,11.25 -8.744057,0.2889 c -7.65923,0.2531 -8.744057,0.079 -8.744057,-1.4023 z m 6.725047,-12.3866 c 0.08286,-1.1 -0.175616,-2 -0.574392,-2 -0.398775,0 -0.792841,0.9 -0.875702,2 -0.08286,1.1 0.175616,2 0.574392,2 0.398775,0 0.792841,-0.9 0.875702,-2 z m 5.937234,-1.25 c -0.277413,-0.6875 -0.504386,-0.125 -0.504386,1.25 0,1.375 0.226973,1.9375 0.504386,1.25 0.277412,-0.6875 0.277412,-1.8125 0,-2.5 z m 6.020833,-3.9375 c -0.319226,-0.7977 -0.556183,-0.5608 -0.604167,0.6042 -0.04342,1.0541 0.192928,1.6448 0.52522,1.3125 0.332291,-0.3323 0.367818,-1.1948 0.07895,-1.9167 z m 1.316886,-4.8125 c 1.271802,-0.8219 1.224791,-0.9717 -0.309017,-0.9847 -0.994959,-0.01 -1.550119,-0.4342 -1.233688,-0.9462 0.316431,-0.512 0.117988,-1.2136 -0.440983,-1.559 -0.587284,-0.363 -1.016312,0.4521 -1.016312,1.9309 0,2.7505 0.640935,3.0835 3,1.559 z m 19.5,-3 c -0.33992,-0.55 -1.06803,-1 -1.618034,-1 -0.55,0 -0.721885,0.45 -0.381966,1 0.339919,0.55 1.06803,1 1.61803,1 0.55,0 0.72189,-0.45 0.38197,-1 z m -29.5,-3.441 c 0,-3.3278 -1.659555,-4.1203 -2.242486,-1.0708 -0.480277,2.5124 -0.07924,3.5118 1.409153,3.5118 0.458333,0 0.833333,-1.0984 0.833333,-2.441 z m 5.679281,-7.6968 c 0.813103,-13.4993 0.722803,-17.2282 -0.426479,-17.6113 -1.166444,-0.3888 -1.697114,1.0059 -2.757267,7.2468 -0.373506,2.1987 -1.148705,4.2879 -1.722666,4.6427 -0.659734,0.4077 -0.734589,1.6959 -0.203515,3.5023 l 0.840048,2.8573 0.358658,-3.25 c 0.197261,-1.7875 0.737593,-3.25 1.200738,-3.25 0.463144,0 0.604176,3.7125 0.313404,8.25 -0.412321,6.4343 -0.262141,7.9996 0.68236,7.1122 0.667004,-0.6267 1.437305,-4.8943 1.714719,-9.5 z m 18.320719,5.5788 c 0,-0.8575 -0.45734,-1.2764 -1.016312,-0.9309 -0.558971,0.3454 -0.757414,1.047 -0.440983,1.559 0.85724,1.387 1.457295,1.1284 1.457295,-0.6281 z m 16,-2.441 c 0,-0.55 -0.47656,-1 -1.05902,-1 -0.58246,0 -0.7809,0.45 -0.44098,1 0.33992,0.55 0.81648,1 1.05902,1 0.24254,0 0.44098,-0.45 0.44098,-1 z m -28.357143,-7.5 c 1.628061,-1.6281 1.38579,-1.832 -1.06107,-0.893 -0.869983,0.3338 -1.581787,1.0088 -1.581787,1.5 0,1.3096 0.942816,1.093 2.642857,-0.607 z m 3.593386,-7.9744 c 0.437372,-2.1051 0.570917,-4.0518 0.296767,-4.3259 -0.274151,-0.2742 -2.0815,-0.5438 -4.016331,-0.5991 -2.668355,-0.076 -3.517731,0.3052 -3.517277,1.5798 3.49e-4,0.9811 0.936978,1.8135 2.250598,2 1.821376,0.2587 2.192141,0.8628 1.94628,3.1708 -0.459506,4.3138 2.08144,2.7878 3.039963,-1.8256 z m 41.763757,49.9926 c 0,-0.2651 2.7,-13.0982 6,-28.5182 3.3,-15.42 6,-28.2531 6,-28.5182 0,-0.265 10.808567,-0.4818 24.019047,-0.4818 l 24.01905,0 -0.52334,2.25 c -0.28783,1.2375 -0.8785,4.05 -1.31259,6.25 l -0.78926,4 -14.43531,0.2789 c -7.93942,0.1533 -14.72774,0.6033 -15.08516,1 -0.35742,0.3966 -0.94983,2.4086 -1.31646,4.4711 l -0.66661,3.75 14.04532,0 c 7.92353,0 14.04531,0.4026 14.04531,0.9237 0,0.5081 -0.52729,3.2081 -1.17175,6 l -1.17175,5.0763 -14.24538,0 -14.24539,0 -1.08287,5.0492 c -0.59557,2.7771 -1.08286,5.2409 -1.08286,5.4752 0,0.2344 7.11905,0.5497 15.82012,0.7008 l 15.82012,0.2748 -1.38924,6.25 -1.38924,6.25 -24.93088,0 c -13.711977,0 -24.930877,-0.2168 -24.930877,-0.4818 z m -104,-6.4161 c 1.103659,-0.7884 1.154122,-1.0755 0.190983,-1.0868 -0.719959,-0.01 -1.081562,-0.3833 -0.803561,-0.8331 0.278001,-0.4499 -0.370441,-1.4492 -1.440983,-2.2208 -1.070541,-0.7716 -1.946439,-2.0474 -1.946439,-2.8352 0,-0.9723 0.615758,-0.7222 1.917433,0.7786 1.054589,1.216 3.529589,2.656 5.5,3.2 3.718896,1.0269 4.88953,2.885 1.832567,2.9089 -0.9625,0.01 -2.875,0.2715 -4.25,0.5867 -1.960431,0.4494 -2.176259,0.3418 -1,-0.4983 z m 13.833846,0.022 c 1.064019,-0.6744 0.996902,-0.9748 -0.331788,-1.4846 -0.916098,-0.3516 -2.641329,-0.6757 -3.833845,-0.7204 -1.907706,-0.072 -1.826967,-0.2321 0.671994,-1.337 3.298764,-1.4584 4.623029,-3.2289 4.64448,-6.2094 0.0186,-2.5845 -1.941489,-4.3308 -7.370733,-6.5665 -3.846264,-1.5839 -3.928792,-1.6978 -1.268324,-1.75 2.642551,-0.052 8.1936,2.977 9.889057,5.3959 1.334999,1.9047 0.865689,7.5482 -0.627698,7.5482 -2.691382,0 -2.672412,2.9455 0.02333,3.6221 1.895004,0.4756 2.210444,0.8638 1.214704,1.4948 -0.739764,0.4689 -2.020023,0.8525 -2.845023,0.8525 -1.202326,0 -1.2353,-0.1678 -0.166154,-0.8455 z m 6.535868,-4.3738 c 0.331637,-1.2375 0.609121,-3.7125 0.616631,-5.5 0.01896,-4.5124 1.723643,-4.0883 2.164884,0.5386 0.495206,5.1927 -0.020196,7.2114 -1.841185,7.2114 -1.112459,0 -1.374973,-0.6281 -0.94033,-2.25 z m -30.137641,-0.75 c 0.686961,-1.1 1.594588,-2 2.016948,-2 0.42236,0 0.205867,0.9 -0.481094,2 -0.686961,1.1 -1.594588,2 -2.016948,2 -0.42236,0 -0.205867,-0.9 0.481094,-2 z m 3.541014,-17.5588 c -5.568533,-3.6473 -7.111117,-6.5715 -6.549597,-12.4153 0.810933,-8.4395 6.750727,-14.071 16.27651,-15.4316 l 4,-0.5713 -3.5,1.0315 c -1.925,0.5674 -4.175,1.3109 -5,1.6522 -0.825,0.3413 -1.794721,0.6594 -2.154936,0.7069 -1.915062,0.2526 -6.790516,5.8911 -7.837877,9.0646 -1.991479,6.0343 -0.628216,9.8572 5.15795,14.4642 5.629122,4.482 5.414589,5.3021 -0.39205,1.4988 z m 29.226913,0.059 c 0,-0.825 -0.6199,-1.5 -1.377555,-1.5 -0.757656,0 -1.937756,-0.675 -2.622445,-1.5 -2.106587,-2.5383 0.520333,-1.6626 4.5,1.5 3.213298,2.5536 3.456954,3 1.637505,3 -1.233338,0 -2.137505,-0.6345 -2.137505,-1.5 z m -9,-5.5 c -1.292687,-0.8354 -1.266292,-0.9715 0.190983,-0.9847 0.930041,-0.01 1.969098,0.4347 2.309017,0.9847 0.782182,1.2656 -0.541628,1.2656 -2.5,0 z m -7,-1.9786 c 0,-1.7668 0.277688,-1.852 2.59474,-0.7963 2.328389,1.0609 2.405377,1.2568 0.75,1.9083 -2.906493,1.1439 -3.34474,0.9982 -3.34474,-1.112 z m -3.415075,-2.9276 c -3.271556,-3.615 -2.118258,-7.6838 2.665075,-9.4023 2.571404,-0.9238 2.135171,0.6653 -0.5,1.8214 -2.80351,1.2299 -3.397593,4.6967 -1.184169,6.9101 0.919745,0.9197 1.465934,1.8786 1.213752,2.1308 -0.252181,0.2521 -1.239777,-0.4048 -2.194658,-1.46 z m 14.914738,-4.0949 c -0.661447,-2.084 -3.084566,-3.7287 -7.441264,-5.0507 -2.311179,-0.7013 -2.34727,-0.7846 -0.373499,-0.8622 3.620916,-0.1425 6.956373,1.6015 9.265655,4.8446 1.726584,2.4247 1.87044,3.0694 0.684927,3.0694 -0.825389,0 -1.786507,-0.9005 -2.135819,-2.0011 z m 8.200424,1.2713 c 3.24071,-0.2934 4.356724,-0.8738 4.88583,-2.5409 0.542833,-1.7103 -0.1615,-2.9124 -3.379689,-5.7683 -3.800286,-3.3725 -7.060053,-4.5854 -17.206228,-6.4021 -1.375,-0.2462 0.280341,-0.2933 3.678536,-0.1046 7.771373,0.4315 15.131464,4.1805 17.748839,9.0407 2.735915,5.0803 1.665273,6.5391 -4.64599,6.3303 -4.941085,-0.1635 -5.010757,-0.1992 -1.081298,-0.5551 z"
         id="path9824"
         style="fill:#0201af" />
      <path
         d="m 144.00304,1092.8749 c -1.0074,-0.6393 0.0119,-6.8632 4.75,-29.0029 3.31797,-15.5039 6.03267,-28.4057 6.03267,-28.6708 0,-0.265 4.05,-0.4818 9,-0.4818 4.95,0 8.99883,0.3375 8.99741,0.75 -0.004,1.0517 -7.93786,39.3644 -8.59428,41.5 -0.49538,1.6116 0.62308,1.75 14.14606,1.75 l 14.68396,0 -0.55675,2.25 c -0.30621,1.2375 -1.0554,4.3185 -1.66485,6.8466 l -1.1081,4.5967 -14.20173,0.6497 c -18.96001,0.8674 -29.92484,0.8021 -31.48439,-0.1875 z m 57.87303,-0.1499 -10.40964,-0.5056 13.65964,-14.8144 c 7.5128,-8.148 13.65964,-15.1999 13.65964,-15.6709 0,-0.7548 -7.75713,-14.7136 -13.20642,-23.7647 l -1.9567,-3.25 9.5704,0 9.5704,0 4.0855,8.1257 c 2.24703,4.4691 4.4207,7.7316 4.83038,7.25 0.40968,-0.4817 3.59174,-4.1382 7.07125,-8.1257 l 6.32638,-7.25 9.3544,0 c 7.98968,0 9.35441,0.2384 9.35441,1.6342 0,0.8987 -3.9375,5.8687 -8.75,11.0444 -4.8125,5.1757 -10.24859,11.1634 -12.08019,13.3061 l -3.33019,3.8959 6.18279,12.3097 c 3.40054,6.7703 6.58662,12.7372 7.08019,13.2597 2.3067,2.4419 0.58809,3.0439 -8.19733,2.8713 -5.00277,-0.098 -9.22529,-0.3232 -9.38338,-0.5 -0.15809,-0.1767 -1.92085,-3.5838 -3.91724,-7.5713 -3.14254,-6.2768 -5.52359,-9.0214 -5.63897,-6.5 -0.0189,0.4125 -3.05638,3.9025 -6.75,7.7556 l -6.71568,7.0056 -10.40964,-0.5056 z m -224.277857,-0.6887 c 0.721875,-0.2889 1.584375,-0.2534 1.916667,0.079 0.332291,0.3323 -0.258334,0.5687 -1.3125,0.5253 -1.164943,-0.048 -1.4019,-0.285 -0.604167,-0.6042 z m 39.305815,-1.5669 c 0.06507,-1.2375 0.483217,-3.6 0.929208,-5.25 0.716169,-2.6496 0.793468,-2.4743 0.661716,1.5 l -0.149178,4.5 7.672836,-0.078 c 4.22006,-0.043 7.442488,0.2944 7.160952,0.75 -0.281535,0.4555 -4.085325,0.8282 -8.452866,0.8282 -7.603483,0 -7.935954,-0.096 -7.822668,-2.25 z m 37.921105,-0.5 c 0.0217,-1.5125 0.86247,-6.6875 1.86843,-11.5 l 1.82902,-8.75 -9.868434,0 c -5.42764,0 -9.868436,0.1956 -9.868436,0.4346 0,0.4904 -2.715601,13.8655 -3.513796,17.3066 -0.328664,1.4168 -1.157317,2.1438 -2.253036,1.9766 -2.66963,-0.4074 -3.006963,-2.1789 -0.483168,-2.5374 1.653401,-0.2348 2.28384,-1.0302 2.377623,-3 0.07019,-1.4742 0.306449,-3.5804 0.525015,-4.6804 0.218565,-1.1 0.654476,-3.8713 0.968691,-6.1586 0.625558,-4.5535 1.83225,-5.3028 8.578981,-5.3277 2.350268,-0.01 4.028926,-0.6009 4.601008,-1.6232 0.827845,-1.4792 0.950653,-1.4792 1.518305,0 0.831656,2.1673 7.680377,2.2649 7.680377,0.1095 0,-1.0812 1.04708,-1.4772 3.75,-1.4184 l 3.75,0.082 -3.29572,1.44 c -3.80088,1.6607 -3.39845,3.3969 0.78735,3.3969 2.01778,0 3.06718,-0.6099 3.5236,-2.048 1.10066,-3.4679 -1.1884,-4.952 -7.63767,-4.952 -5.908106,0 -7.816995,-1.247 -3.62756,-2.3697 1.2375,-0.3317 4.3875,-0.6091 7,-0.6166 4.40364,-0.013 4.75,0.1686 4.75,2.4863 0,1.6255 0.55995,2.5 1.60069,2.5 1.65157,0 1.62452,-2.0229 -0.16378,-12.25 -0.43259,-2.4739 -0.2782,-3.75 0.45368,-3.75 0.62181,0 1.10941,1.7043 1.10941,3.8776 0,2.2267 0.63859,4.4075 1.5,5.1224 1.9022,1.5787 2.00846,7 0.1372,7 -1.49851,0 -4.27547,14.1582 -3.13795,15.9988 1.20318,1.9468 2.50075,-0.1157 2.50075,-3.9749 0,-2.122 0.94106,-6.0329 2.09125,-8.691 1.72583,-3.9884 1.98676,-6.0465 1.49326,-11.778 -0.3289,-3.8199 -1.10261,-7.2571 -1.71937,-7.6382 -0.61675,-0.3812 -0.77645,-1.2512 -0.35487,-1.9333 0.57682,-0.9333 0.99492,-0.8321 1.68957,0.4092 0.5077,0.9072 1.30346,1.4144 1.76836,1.1271 0.46491,-0.2874 0.60976,0.3782 0.32191,1.4789 -0.28786,1.1008 -0.0625,2.0014 0.50071,2.0014 0.56324,0 1.23001,-2.3625 1.4817,-5.25 0.25169,-2.8875 0.77677,-6.1896 1.16683,-7.338 0.66622,-1.9615 0.34327,-2.0915 -5.32985,-2.1449 -4.15168,-0.039 -6.42062,0.4029 -7.25997,1.4142 -0.96653,1.1646 -0.94718,1.6403 0.0929,2.2831 0.72259,0.4466 1.00006,1.3196 0.6166,1.9401 -0.38347,0.6205 -1.11612,0.8692 -1.62812,0.5528 -0.93555,-0.5782 -1.16104,0.7585 -1.33611,7.9207 -0.0661,2.7039 -0.7003,4.2743 -2.09479,5.1871 -2.67927,1.7536 -19.079877,2.255 -20.70205,0.6329 -0.93061,-0.9306 1.06258,-1.198 8.931142,-1.198 l 10.129098,0 1.1395,-5.75 c 0.62672,-3.1625 1.68484,-7.775 2.35138,-10.25 l 1.21189,-4.5 7.87466,-0.2949 c 4.33106,-0.1621 8.24422,0.075 8.69592,0.5264 0.45169,0.4517 -0.7522,8.0094 -2.67532,16.7949 -1.92312,8.7855 -3.93956,18.2236 -4.48098,20.9736 -0.54142,2.75 -1.70252,8.2625 -2.58021,12.25 l -1.5958,7.25 -8.39962,0 -8.39962,0 0.0394,-2.75 z m 3.64132,-1.3629 c -0.27143,-1.0379 -0.08563,-1.8871 0.41288,-1.8871 0.49851,0 0.90638,-0.45 0.90638,-1 0,-0.55 -0.72748,-1 -1.61663,-1 -1.12403,0 -1.45735,0.6091 -1.09388,1.999 0.28751,1.0995 0.10766,2.2556 -0.39968,2.5691 -0.50734,0.3136 -0.659,0.9963 -0.33702,1.5173 0.97063,1.5705 2.65774,-0.1723 2.12795,-2.1983 z m 9.81926,-1.8871 c 0.33992,-0.55 0.14148,-1 -0.44098,-1 -0.58246,0 -1.05902,0.45 -1.05902,1 0,0.55 0.19844,1 0.44098,1 0.24254,0 0.7191,-0.45 1.05902,-1 z m -2.5,-0.941 c 0,-0.5175 -0.45,-1.2191 -1,-1.559 -1.54499,-0.9549 -1.18139,-3.5 0.5,-3.5 0.825,0 1.5,-0.7447 1.5,-1.655 0,-1.4645 -0.24061,-1.4372 -2.09032,0.2367 -2.05235,1.8574 -2.11664,1.8557 -3.53948,-0.09 -1.24222,-1.6988 -1.58268,-1.7683 -2.38404,-0.4867 -0.70257,1.1236 -0.42902,1.5765 1.10088,1.8227 1.39207,0.224 1.98134,1.0145 1.86367,2.5 -0.0947,1.1948 -0.12228,2.5099 -0.0614,2.9224 0.1624,1.1004 4.11069,0.917 4.11069,-0.191 z m -2.73891,-10.4592 c 1.587,-1.2044 1.60675,-1.4646 0.19981,-2.6322 -1.29139,-1.0718 -1.83235,-1.0247 -3.12941,0.2723 -0.86248,0.8625 -1.26334,2.0614 -0.8908,2.6641 0.8693,1.4066 1.64795,1.3446 3.8204,-0.3042 z m 20.73891,16.9184 c 0,-0.2651 2.7,-13.0982 6,-28.5182 3.3,-15.42 6,-28.2531 6,-28.5182 0,-0.265 10.808567,-0.4818 24.019047,-0.4818 l 24.01905,0 -0.52334,2.25 c -0.28783,1.2375 -0.8785,4.05 -1.31259,6.25 l -0.78926,4 -14.43531,0.2789 c -7.93942,0.1533 -14.72774,0.6033 -15.08516,1 -0.35742,0.3966 -0.94983,2.4086 -1.31646,4.4711 l -0.66661,3.75 14.04532,0 c 7.92353,0 14.04531,0.4026 14.04531,0.9237 0,0.5081 -0.52729,3.2081 -1.17175,6 l -1.17175,5.0763 -14.24538,0 -14.24539,0 -1.08287,5.0492 c -0.59557,2.7771 -1.08286,5.2409 -1.08286,5.4752 0,0.2344 7.11905,0.5497 15.82012,0.7008 l 15.82012,0.2748 -1.38924,6.25 -1.38924,6.25 -24.93088,0 c -13.711977,0 -24.930877,-0.2168 -24.930877,-0.4818 z m 11.68311,-38.7057 c -0.31922,-0.7977 -0.55618,-0.5608 -0.60416,0.6042 -0.0434,1.0541 0.19292,1.6448 0.52522,1.3125 0.33229,-0.3323 0.36781,-1.1948 0.0789,-1.9167 z m 8.316887,-14.8125 c 0,-0.55 -1.125,-1 -2.5,-1 -1.374997,0 -2.499997,0.45 -2.499997,1 0,0.55 1.125,1 2.499997,1 1.375,0 2.5,-0.45 2.5,-1 z m -131.249997,52.3377 c 0.6875,-0.2774 1.8125,-0.2774 2.5,0 0.6875,0.2774 0.125,0.5044 -1.25,0.5044 -1.375,0 -1.9375,-0.227 -1.25,-0.5044 z m 25.25,-1.3377 c 0.825,-0.5332 1.95,-0.9694 2.5,-0.9694 0.55,0 0.325,0.4362 -0.5,0.9694 -0.825,0.5332 -1.95,0.9694 -2.5,0.9694 -0.55,0 -0.325,-0.4362 0.5,-0.9694 z m -31.769757,-1.5513 c -1.218123,-0.8532 -2.724694,-2.5407 -3.347937,-3.75 -0.816102,-1.5835 -0.118756,-1.2344 2.492263,1.2475 3.353046,3.1872 4.06873,4.0538 3.347937,4.0538 -0.152621,0 -1.27414,-0.6981 -2.492263,-1.5513 z m 37.269757,-2.4487 c 0.339919,-0.55 0.816476,-1 1.059017,-1 0.242541,0 0.440983,0.45 0.440983,1 0,0.55 -0.476558,1 -1.059017,1 -0.582459,0 -0.780902,-0.45 -0.440983,-1 z m 4.662196,-7 c 1.407099,-4.3402 1.837804,-4.8927 1.837804,-2.3578 0,1.0865 -0.668818,2.849 -1.486261,3.9167 -1.350559,1.7639 -1.382656,1.6215 -0.351543,-1.5589 z m -13.662196,-2 c 0,-2.095 0.3375,-3.6004 0.75,-3.3455 0.4125,0.2549 0.75,1.7604 0.75,3.3455 0,1.5851 -0.3375,3.0906 -0.75,3.3455 -0.4125,0.2549 -0.75,-1.2505 -0.75,-3.3455 z m 24.943459,1.3693 c 0.363151,-1.447 2.452577,-11.0095 4.64317,-21.25 2.190593,-10.2406 4.222577,-19.4068 4.515521,-20.3693 0.452338,-1.4862 1.80375,-1.75 8.965238,-1.75 7.321898,0 8.432612,0.2275 8.432612,1.7272 0,3.3784 -3.354614,17.2728 -4.170302,17.2728 -1.099999,0 -1.067618,-4.3405 0.0414,-5.55 0.479107,-0.5225 1.135195,-3.3318 1.457974,-6.243 l 0.58687,-5.2929 -7.189688,0.2929 c -7.020322,0.2861 -7.19452,0.3568 -7.394972,3.0029 -0.195688,2.5831 -2.396769,11.8679 -4.335906,18.2901 -0.853038,2.8251 -2.757922,12.9707 -3.473464,18.5 -0.177939,1.375 -0.368162,2.8375 -0.422719,3.25 -0.05456,0.4125 -0.597977,0.75 -1.207601,0.75 -0.697648,0 -0.86372,-0.9749 -0.448133,-2.6307 z m -53.693459,-4.0316 c 0.6875,-0.2774 1.8125,-0.2774 2.5,0 0.6875,0.2774 0.125,0.5044 -1.25,0.5044 -1.375,0 -1.9375,-0.227 -1.25,-0.5044 z m 8.25,-0.3967 c 0,-0.5825 0.45,-0.7809 1,-0.441 0.55,0.3399 1,0.8165 1,1.059 0,0.2426 -0.45,0.441 -1,0.441 -0.55,0 -1,-0.4766 -1,-1.059 z m 13.5,-4.941 c -0.339919,-0.55 -0.168034,-1 0.381966,-1 0.55,0 1.278115,0.45 1.618034,1 0.339919,0.55 0.168034,1 -0.381966,1 -0.55,0 -1.278115,-0.45 -1.618034,-1 z m 19.958881,-0.066 c -0.362533,-0.5866 -0.444683,-1.281 -0.182555,-1.5432 0.262128,-0.2621 0.743066,0.2179 1.068751,1.0666 0.676184,1.7621 0.09985,2.072 -0.886196,0.4766 z m -3.429921,-4.8944 c -0.809071,-0.5117 -1.210697,-1.1907 -0.8925,-1.5089 0.318196,-0.3182 1.147764,0.1073 1.843484,0.9456 1.442593,1.7383 1.165987,1.9021 -0.950984,0.5633 z m -5.156515,-14.7891 c -1.243871,-1.5861 -1.208501,-1.6214 0.377555,-0.3776 1.665748,1.3064 2.195479,2.1276 1.372445,2.1276 -0.207656,0 -0.995156,-0.7875 -1.75,-1.75 z m 13.556126,-1.3234 c 0,-1.0596 0.353572,-1.9266 0.785715,-1.9266 0.432143,0 0.785714,0.6484 0.785714,1.441 0,0.7925 -0.353571,1.6595 -0.785714,1.9266 -0.432143,0.267 -0.785715,-0.3814 -0.785715,-1.441 z m 61.229419,-3.6019 c -0.36189,-0.3619 -0.65799,-1.258 -0.65799,-1.9914 0,-1.4897 2.57786,-1.8253 3.42997,-0.4466 0.68055,1.1011 -1.86765,3.3423 -2.77198,2.438 z m -74.84549,-8.0078 c 0.721875,-0.2889 1.584375,-0.2534 1.916667,0.079 0.332291,0.3323 -0.258334,0.5687 -1.3125,0.5253 -1.164943,-0.048 -1.4019,-0.285 -0.604167,-0.6042 z"
         id="path9822"
         style="fill:#02028e" />
      <path
         d="m 244.24069,1092.9346 -9.04502,-0.2848 -3.95498,-7.8989 -3.95498,-7.8989 -6.84018,7.9337 -6.84017,7.9337 -11.03227,0 c -10.36309,0 -10.94902,-0.1061 -9.65982,-1.75 0.75484,-0.9625 6.88494,-7.7265 13.62244,-15.0312 6.7375,-7.3046 12.25,-13.693 12.25,-14.1964 0,-0.5034 -1.51398,-3.5269 -3.3644,-6.7188 -1.85042,-3.192 -4.54991,-7.9562 -5.99887,-10.5871 -1.44896,-2.6309 -3.36173,-5.8934 -4.25061,-7.25 l -1.61614,-2.4665 9.60385,0 9.60385,0 4.0855,8.1257 c 2.24703,4.4691 4.4207,7.7316 4.83038,7.25 0.40968,-0.4817 3.59174,-4.1382 7.07125,-8.1257 l 6.32638,-7.25 9.3544,0 c 7.98968,0 9.35441,0.2384 9.35441,1.6342 0,0.8987 -3.9375,5.8687 -8.75,11.0444 -4.8125,5.1757 -10.26329,11.1812 -12.11286,13.3457 l -3.36287,3.9354 6.23426,12.2702 c 3.42884,6.7485 6.67217,12.8175 7.2074,13.4865 1.8565,2.3205 0.23793,2.7821 -8.76095,2.4988 z m -222.204977,-0.9437 c 2.0625,-0.2157 5.4375,-0.2157 7.5,0 2.0625,0.2158 0.375,0.3923 -3.75,0.3923 -4.125,0 -5.8125,-0.1765 -3.75,-0.3923 z m 32.89983,-2.5215 c 0.13149,-2.8522 0.19947,-2.9275 0.55529,-0.6154 0.37509,2.4373 0.77671,2.6346 5.36246,2.6346 2.72636,0 5.20757,-0.4054 5.51381,-0.9009 0.30624,-0.4955 0.95655,-0.6539 1.44512,-0.3519 1.35198,0.8356 3.69857,-4.4442 4.45766,-10.0296 0.37276,-2.7427 1.19757,-6.5618 1.83292,-8.4868 0.63535,-1.925 1.16333,-4.1381 1.17328,-4.9181 0.01,-0.7799 0.50597,-1.5807 1.10225,-1.7794 0.9293,-0.3098 -3.26709,21.8009 -4.98948,26.2893 -0.4026,1.0492 -2.58795,1.4082 -8.57176,1.4082 l -8.03138,0 0.14983,-3.25 z m 29.1662,1 c 0.29307,-1.2375 3.12038,-14.2875 6.28293,-29 l 5.75008,-26.75 23.892867,0 c 23.0013,0 23.87041,0.071 23.29107,1.8961 -0.33098,1.0428 -0.93541,3.8553 -1.34317,6.25 l -0.74138,4.3539 -14.93107,0.5 c -14.89498,0.4988 -14.93274,0.506 -15.62453,3 -1.72492,6.2185 -2.20609,6 13.21558,6 l 14.10841,0 -0.54014,2.25 c -0.29707,1.2375 -0.84593,3.9375 -1.2197,6 l -0.67956,3.75 -14.30585,0 -14.30584,0 -1.08287,5.0492 c -0.59557,2.7771 -1.08286,5.2409 -1.08286,5.4752 0,0.2344 7.11905,0.5497 15.82012,0.7008 l 15.82012,0.2748 -1.38924,6.25 -1.38924,6.25 -25.03929,0 -25.039287,0 0.53285,-2.25 z m 5.80897,-2.25 c 0.0687,-0.825 0.2375,-2.4 0.375,-3.5 0.1375,-1.1 0.30625,-2.45 0.375,-3 0.0687,-0.55 0.8,-1 1.625,-1 0.825,0 1.5,0.45 1.5,1 0,0.55 0.675,1 1.5,1 0.825,0 1.5,-0.4803 1.5,-1.0674 0,-0.6107 0.85186,-0.797 1.99105,-0.4354 2.773477,0.8802 4.428737,-0.2865 2.944197,-2.0752 -0.63902,-0.77 -1.56088,-1.1534 -2.048557,-0.852 -0.48768,0.3014 -0.88669,-0.1535 -0.88669,-1.011 0,-0.8574 0.41786,-1.559 0.92857,-1.559 1.231457,0 4.071427,-2.8811 4.071427,-4.1304 0,-0.5432 -0.45,-0.7095 -1,-0.3696 -0.55,0.3399 -1,0.1415 -1,-0.441 0,-0.5824 -0.675,-1.059 -1.5,-1.059 -0.824997,0 -1.499997,-0.63 -1.499997,-1.4 0,-0.9263 1.15382,-1.4 3.410097,-1.4 1.87556,0 4.23806,-0.4813 5.25,-1.0696 1.64527,-0.9564 1.56184,-1.0728 -0.78878,-1.1 -1.95161,-0.023 -2.94231,-0.7876 -3.84632,-2.97 -0.6697,-1.6168 -0.92274,-3.4168 -0.5623,-4 1.07821,-1.7446 3.5373,-1.1991 3.5373,0.7846 0,1.0148 0.86257,2.6256 1.91681,3.5797 1.58815,1.4373 2.302,1.5286 4.16326,0.5324 l 2.24644,-1.2022 -2.41326,-1.8552 c -1.32729,-1.0204 -2.92761,-1.8652 -3.55626,-1.8775 -1.34115,-0.026 -2.50213,-2.5437 -1.59248,-3.4534 0.34469,-0.3447 0.72021,-1.1762 0.83448,-1.8477 0.11427,-0.6716 0.55272,-2.0824 0.97433,-3.1351 0.5351,-1.3362 0.41676,-1.6979 -0.39193,-1.1981 -0.75596,0.4672 -0.95233,0.1787 -0.56515,-0.8302 0.32633,-0.8504 0.96508,-1.3165 1.41945,-1.0356 0.45436,0.2808 1.09742,0.072 1.42902,-0.465 0.35352,-0.572 3.21964,-0.7312 6.92889,-0.3848 9.09747,0.8495 19.6064,-0.4148 19.6064,-2.3589 0,-1.0722 -0.52157,-1.3051 -1.75,-0.7814 -3.15366,1.3443 -19.30635,1.8116 -20.52414,0.5939 -0.83448,-0.8345 0.0258,-1.1451 3.32414,-1.2 2.4475,-0.041 6.475,-0.4345 8.95,-0.8749 l 4.5,-0.8007 -4.5,-0.1361 c -2.475,-0.075 -6.3,-0.466 -8.5,-0.8692 l -4,-0.733 5,-0.5989 c 3.24231,-0.3883 0.38477,-0.6541 -8.12868,-0.756 l -13.128677,-0.1571 -1.14263,2.7586 c -0.62845,1.5172 -1.24555,4.2163 -1.37132,5.998 -0.12578,1.7817 -0.50458,3.2403 -0.84178,3.2414 -0.3372,0 -0.91599,3.0395 -1.28621,6.752 -0.37022,3.7125 -0.73183,7.3125 -0.80358,8 -0.0718,0.6875 -0.46014,1.25 -0.86309,1.25 -0.40295,0 -0.98211,1.9125 -1.28702,4.25 -1.04777,8.0325 -1.86712,11.75 -2.58975,11.75 -1.49608,0 -0.6555,3.003 0.85941,3.0703 1.1645,0.052 1.05428,0.2976 -0.41667,0.9297 -1.1,0.4727 -1.47963,0.8911 -0.84362,0.9297 0.65472,0.04 0.92949,0.9379 0.63337,2.0703 -0.29241,1.1182 -0.0307,2 0.59362,2 0.61415,0 1.17288,-0.675 1.24163,-1.5 z m 3.89031,-11.75 c 0.019,-5.2631 1.41555,-8.0084 2.3323,-4.5845 1.17677,4.3949 0.75082,8.8345 -0.84761,8.8345 -1.10044,0 -1.49592,-1.1321 -1.48469,-4.25 z m 4.17964,-24.25 c 0.0204,-1.65 0.2445,-2.2039 0.49804,-1.231 0.25354,0.973 0.23687,2.323 -0.0371,3 -0.27388,0.6771 -0.48132,-0.119 -0.46094,-1.769 z m 0.80505,-9.5 c 0,-0.55 0.47656,-1 1.05902,-1 0.582457,0 0.780897,0.45 0.440977,1 -0.339917,0.55 -0.816477,1 -1.059017,1 -0.24254,0 -0.44098,-0.45 -0.44098,-1 z m -2.22917,45.8125 c -0.6172,-1.8516 -2.46128,-2.0615 -3.11624,-0.3548 -0.41478,1.0809 0.022,1.5423 1.46013,1.5423 1.13951,0 1.87593,-0.528 1.65611,-1.1875 z m 34.912277,-28 c -0.31922,-0.7977 -0.55618,-0.5608 -0.60416,0.6042 -0.0434,1.0541 0.19292,1.6448 0.52522,1.3125 0.33229,-0.3323 0.36781,-1.1948 0.0789,-1.9167 z m -11.93311,-1.5018 c -0.9625,-0.2516 -2.5375,-0.2516 -3.5,0 -0.9625,0.2515 -0.175,0.4573 1.75,0.4573 1.925,0 2.7125,-0.2058 1.75,-0.4573 z m 18.55282,-20.8107 c 0.10845,-0.55 -1.49032,-1.1397 -3.55282,-1.3104 -4.02333,-0.333 -5.23719,1.3783 -1.5,2.1146 3.16452,0.6236 4.82336,0.3595 5.05282,-0.8042 z m 4.69718,54.1086 c 0,-0.2153 2.7,-12.9014 6,-28.1914 3.3,-15.2901 6,-28.1639 6,-28.6086 0,-0.4447 4.05,-0.8086 9,-0.8086 5.19974,0 9,0.4131 9,0.9782 0,0.538 -2.025,10.2474 -4.5,21.5765 -2.475,11.329 -4.5,20.7888 -4.5,21.0218 0,0.2329 6.57748,0.4235 14.61663,0.4235 l 14.61663,0 -0.63508,2.25 c -0.3493,1.2375 -1.11407,4.3875 -1.6995,7 l -1.06441,4.75 -23.41713,0 c -12.87943,0 -23.41714,-0.1761 -23.41714,-0.3914 z m -82.999997,-3.6086 c 0,-0.55 0.70156,-1 1.55902,-1 0.85746,0 1.2809,0.45 0.94098,1 -0.33992,0.55 -1.04148,1 -1.55902,1 -0.51754,0 -0.94098,-0.45 -0.94098,-1 z m -41.805051,-3.5 c 0.02038,-1.65 0.244498,-2.2039 0.498042,-1.231 0.253543,0.973 0.236869,2.323 -0.03705,3 -0.273927,0.6771 -0.481372,-0.119 -0.460992,-1.769 z m 16.805051,-1.2743 c 0,-1.7092 0.443224,-3.3816 0.984942,-3.7164 0.615419,-0.3803 0.749115,0.6292 0.35636,2.691 -0.842235,4.4213 -1.341302,4.8028 -1.341302,1.0254 z m 21,0.6108 c 0,-1.0462 2.02927,-11.3222 2.58428,-13.0865 0.49844,-1.5845 -0.36998,-1.75 -9.183559,-1.75 -5.35373,0 -9.514363,-0.2197 -9.245852,-0.4882 0.967461,-0.9675 17.836431,-0.9205 18.809301,0.052 1.0885,1.0885 -0.64272,13.1977 -2.12819,14.8858 -0.45979,0.5225 -0.83598,0.6964 -0.83598,0.3865 z m 10.07895,-2.4198 c 0.048,-1.165 0.28494,-1.4019 0.60416,-0.6042 0.28887,0.7219 0.25335,1.5844 -0.0789,1.9167 -0.3323,0.3323 -0.56864,-0.2584 -0.52522,-1.3125 z m -47.07895,-2.3577 c 0,-0.5175 0.444846,-1.2159 0.988546,-1.5519 0.56686,-0.3504 0.734507,0.051 0.393011,0.941 -0.664791,1.7324 -1.381557,2.0493 -1.381557,0.6109 z m 17.638374,-3.559 c 0.316582,-0.825 0.752459,-1.5 0.968615,-1.5 0.216156,0 0.393011,0.675 0.393011,1.5 0,0.825 -0.435877,1.5 -0.968615,1.5 -0.532739,0 -0.709594,-0.675 -0.393011,-1.5 z m -16.638374,-1 c 0,-0.825 0.435877,-1.5 0.968615,-1.5 0.532739,0 0.709594,0.675 0.393011,1.5 -0.316582,0.825 -0.752459,1.5 -0.968615,1.5 -0.216156,0 -0.393011,-0.675 -0.393011,-1.5 z m 17.5,-3.5 c -0.339919,-0.55 -0.141476,-1 0.440983,-1 0.582459,0 1.059017,0.45 1.059017,1 0,0.55 -0.198442,1 -0.440983,1 -0.242541,0 -0.719098,-0.45 -1.059017,-1 z m -14.305051,-9.5 c 0.02038,-1.65 0.244498,-2.2039 0.498042,-1.231 0.253543,0.973 0.236869,2.323 -0.03705,3 -0.273927,0.6771 -0.481372,-0.119 -0.460992,-1.769 z m 54.390521,-2.5 c 0.97946,-6.582 2.41897,-9.5057 1.72325,-3.5 -0.31857,2.75 -0.9873,5.675 -1.48605,6.5 -0.57293,0.9477 -0.66027,-0.1569 -0.2372,-3 z m -53.415505,-3 c 0.01617,-0.825 0.389683,-2.625 0.830035,-4 0.643629,-2.0097 0.806404,-2.1078 0.830035,-0.5 0.01617,1.1 -0.357349,2.9 -0.830035,4 -0.526534,1.2253 -0.848044,1.419 -0.830035,0.5 z m 28.036734,-0.745 9.706701,-0.3264 1.1734,-5.9643 c 0.64538,-3.2804 1.59142,-5.9643 2.10232,-5.9643 0.5109,0 0.66543,0.4263 0.34339,0.9474 -0.32204,0.5211 -0.80172,3.0839 -1.06595,5.6953 -0.26423,2.6113 -1.0398,5.1031 -1.72349,5.5373 -0.68369,0.4341 -5.51807,0.7021 -10.74307,0.5954 l -9.5,-0.194 9.706699,-0.3264 z m -10.206699,-4.5293 c 0,-1.4342 0.468037,-2.8969 1.040082,-3.2505 0.68219,-0.4216 0.805833,0.3323 0.359323,2.191 -0.920416,3.8314 -1.399405,4.1941 -1.399405,1.0595 z m 38.46064,-5.0509 c 0.19606,-2.6539 0.62262,-5.0914 0.94792,-5.4167 0.86736,-0.8674 0.53164,4.8306 -0.45616,7.7419 -0.63345,1.867 -0.75797,1.2782 -0.49176,-2.3252 z m -53.804148,-1.1748 c 0.645178,-4.2388 1.031866,-5.145 1.847485,-4.3294 0.277187,0.2772 -0.162088,2.2647 -0.976168,4.4167 l -1.480144,3.9127 0.608827,-4 z m 17.664784,-5 0.178724,-4 -5.446554,-0.3091 c -6.939052,-0.3937 -10.032749,0.3934 -10.132393,2.5782 -0.05009,1.0981 -0.267436,1.2616 -0.594541,0.4473 -1.183154,-2.9456 1.769295,-4.2164 9.795933,-4.2164 l 7.877555,0 -0.07028,2.75 c -0.03866,1.5125 -0.456583,3.65 -0.928724,4.75 -0.646072,1.5052 -0.814225,1.0104 -0.679715,-2 z m 21.585184,-1.697 c 0.60305,-2.9486 3.09354,-5.2722 3.09354,-2.8863 0,0.5958 -0.45,1.0833 -1,1.0833 -0.55,0 -1,0.8734 -1,1.941 0,1.0675 -0.39116,2.1827 -0.86924,2.4782 -0.47809,0.2955 -0.57902,-0.8818 -0.2243,-2.6162 z m 15.84354,-1.5604 c -0.9625,-0.2141 -1.75,-0.8063 -1.75,-1.3159 0,-1.2774 2.73189,-1.1695 3.54112,0.1398 0.84335,1.3646 0.39117,1.6615 -1.79112,1.1761 z m -8.75,-1.2426 c 0,-0.55 1.15156,-1 2.55902,-1 1.45136,0 2.2915,0.4328 1.94098,1 -0.33992,0.55 -1.49148,1 -2.55902,1 -1.06754,0 -1.94098,-0.45 -1.94098,-1 z"
         id="path9820"
         style="fill:#030270" />
      <path
         d="m 84.155423,1090.4694 c 0.33164,-1.2375 0.60913,-3.0375 0.61664,-4 0.008,-0.9625 0.37329,-1.75 0.81285,-1.75 0.43956,0 0.61761,1.5555 0.39566,3.4566 l -0.40354,3.4566 14.604337,0.024 c 8.89667,0.015 14.60434,-0.359 14.60434,-0.9566 0,-0.5548 3.28867,-0.9809 7.57143,-0.9809 8.40865,0 9.92857,-0.842 9.92857,-5.5 l 0,-3 -13.5,-0.5445 -13.5,-0.5444 15.80902,-0.2056 c 8.69496,-0.113 15.60743,0.132 15.36105,0.5445 -0.24638,0.4125 -0.97984,3.3375 -1.62992,6.5 l -1.18195,5.75 -25.04573,0 -25.045727,0 0.60297,-2.25 z m 58.870037,0.4412 c 0.26015,-0.9948 1.30905,-5.9448 2.33089,-11 1.02183,-5.0552 2.23801,-9.1912 2.70263,-9.1912 0.46462,0 0.59494,-0.4042 0.28961,-0.8983 -0.30533,-0.494 1.09764,-8.594 3.11773,-18 l 3.67288,-17.1017 8.82326,0 c 4.85279,0 8.82325,0.2066 8.82325,0.4592 0,0.2526 -2.025,9.9953 -4.5,21.6506 -2.475,11.6552 -4.5,21.3486 -4.5,21.5408 0,0.1922 6.57314,0.3494 14.60699,0.3494 11.4315,0 14.50057,0.2773 14.11747,1.2757 -0.26924,0.7016 -1.02429,3.8516 -1.67789,7 l -1.18837,5.7243 -23.54573,0 c -22.22376,0 -23.51918,-0.1016 -23.07272,-1.8088 z m 13.72481,-28.5033 c -0.0195,-1.2034 -0.69444,-3.3129 -1.49991,-4.6879 l -1.46447,-2.5 0.44959,2.8377 c 0.32252,2.0357 0.084,2.6974 -0.84397,2.3413 -0.88234,-0.3386 -1.15976,0.2035 -0.87267,1.7053 0.57761,3.0215 4.27976,3.2871 4.23143,0.3036 z m 8.52347,-13.4379 c -0.18426,-0.9625 -0.36944,-2.1426 -0.41152,-2.6224 -0.0421,-0.4799 -0.75995,-0.3053 -1.59527,0.388 -1.24124,1.0301 -1.86926,0.9432 -3.43698,-0.4755 -2.08294,-1.8851 -4.04426,-1.34 -4.04426,1.124 0,1.2006 0.8937,1.4607 4,1.1645 2.77673,-0.2648 4,0.01 4,0.895 0,0.702 0.41018,1.2764 0.91152,1.2764 0.50133,0 0.76076,-0.7875 0.57651,-1.75 z m -1.04378,-7.3402 c 0.96017,1.5536 4.55575,-0.046 4.55575,-2.0264 0,-1.6175 -0.78085,-1.8834 -5.53138,-1.8834 -5.72188,0 -7.36465,1.2226 -6.09357,4.535 0.52917,1.379 0.8899,1.3794 3.55023,0 1.62867,-0.8422 3.2122,-1.1252 3.51897,-0.6288 z m 28.68331,49.3402 c 0.75484,-0.9625 1.86429,-2.2 2.46544,-2.75 0.60115,-0.55 4.166,-4.375 7.92189,-8.5 3.75588,-4.125 8.77653,-9.605 11.15699,-12.1778 4.66523,-5.0422 5.06668,-6.3077 2.96597,-9.3497 -0.74918,-1.0849 -3.07998,-5.1225 -5.17955,-8.9725 -2.09957,-3.85 -4.63492,-8.35 -5.63411,-10 -0.99919,-1.65 -1.8184,-3.3375 -1.82045,-3.75 -0.002,-0.4125 3.97306,-0.75 8.8336,-0.75 l 8.83733,0 3.90491,7.5907 c 2.1477,4.1749 4.1334,7.7307 4.41266,7.9018 0.27927,0.1711 3.58584,-3.2447 7.34794,-7.5907 l 6.84017,-7.9018 9.40983,0 c 13.23953,0 13.47964,-0.7005 -7.27592,21.2274 -4.02284,4.2501 -7.31426,8.1682 -7.31426,8.7068 0,0.5387 3.18879,7.0739 7.0862,14.5226 l 7.08621,13.5432 -9.33621,-0.033 -9.3362,-0.033 -3.95519,-7.9358 c -3.65457,-7.3326 -4.07261,-7.8048 -5.5,-6.2125 -0.84965,0.9478 -3.95183,4.5336 -6.89375,7.9683 l -5.34895,6.245 -11.0235,0 c -10.35474,0 -10.94024,-0.1062 -9.65105,-1.75 z m -157.895554,-7.25 c 0,-1.925 0.205795,-2.7125 0.457323,-1.75 0.251527,0.9625 0.251527,2.5375 0,3.5 -0.251528,0.9625 -0.457323,0.175 -0.457323,-1.75 z m 51.779007,-4.25 c 0.0274,-3.1166 1.32441,-8.75 2.01452,-8.75 0.42012,0 0.43209,1.471 0.0266,3.2689 -0.40549,1.7978 -0.62292,4.0478 -0.48317,5 0.13974,0.9521 -0.15611,1.7311 -0.65744,1.7311 -0.50134,0 -0.90657,-0.5625 -0.90051,-1.25 z m 16.603557,-1.5646 c -0.40174,-0.65 -0.0294,-2.1828 0.8275,-3.4062 1.65382,-2.3611 2.03075,-0.8456 0.66015,2.6544 -0.51967,1.327 -0.98636,1.5629 -1.48765,0.7518 z m -29.535617,-2.7687 c 0.048,-1.165 0.28494,-1.4019 0.60416,-0.6042 0.28887,0.7219 0.25335,1.5844 -0.0789,1.9167 -0.3323,0.3323 -0.56864,-0.2584 -0.52522,-1.3125 z m 30.607177,-4.7922 c -0.99595,-2.5954 3.74708,-3.5445 14.63324,-2.928 9.37324,0.5308 10.66026,0.3961 12.44351,-1.3022 2.75195,-2.621 3.8072,-6.4128 2.09413,-7.525 -0.74635,-0.4845 -5.99302,-0.8268 -11.65926,-0.7607 -5.66623,0.066 -10.57873,-0.1562 -10.91666,-0.4942 -0.33793,-0.3379 5.58436,-0.6144 13.16065,-0.6144 l 13.77508,0 -0.54014,2.25 c -0.29707,1.2375 -0.84593,3.9375 -1.2197,6 l -0.67956,3.75 -14.38871,0 c -12.1233,0 -14.38871,0.2362 -14.38871,1.5 0,1.88 -1.60703,1.9664 -2.31387,0.1245 z m -14.516157,-6.6245 c 0.0162,-0.825 0.38968,-2.625 0.83003,-4 0.64363,-2.0097 0.8064,-2.1078 0.83003,-0.5 0.0162,1.1 -0.35734,2.9 -0.83003,4 -0.52653,1.2253 -0.84804,1.419 -0.83003,0.5 z m 1.83003,-9 c 0,-1.1 0.40787,-2 0.90638,-2 0.49851,0 0.67103,0.9 0.38337,2 -0.28766,1.1 -0.69553,2 -0.90638,2 -0.21085,0 -0.38337,-0.9 -0.38337,-2 z m 17.075507,-1 c 0.008,-0.825 0.65091,-2.85 1.42851,-4.5 l 1.4138,-3 -0.59385,3 c -0.74346,3.7557 -2.27112,6.8131 -2.24846,4.5 z m 16.4175,-7.1172 c 10.49234,-0.6678 13.23493,-1.1578 14.25,-2.546 1.69988,-2.3247 1.58161,-4.8693 -0.31444,-6.7654 -1.31826,-1.3182 -4.63152,-1.5714 -20.56574,-1.5714 -11.18092,0 -19.789977,0.4258 -20.928567,1.0352 -1.52192,0.8145 -1.93426,0.7079 -1.93426,-0.5 0,-1.3374 3.07814,-1.5352 23.893697,-1.5352 l 23.89371,0 -0.9018,4.25 c -2.084,9.8216 -0.10704,8.7685 -16.15466,8.6049 l -14.23095,-0.1452 12.99301,-0.8269 z m -31.414057,-1.4661 c 0.048,-1.165 0.28494,-1.4019 0.60416,-0.6042 0.28887,0.7219 0.25335,1.5844 -0.0789,1.9167 -0.3323,0.3323 -0.56864,-0.2584 -0.52522,-1.3125 z m -66.921055,-2.4167 c 0,-1.375 0.226973,-1.9375 0.504386,-1.25 0.277412,0.6875 0.277412,1.8125 0,2.5 -0.277413,0.6875 -0.504386,0.125 -0.504386,-1.25 z m 10.654605,-7.6831 c 0.721875,-0.2889 1.584375,-0.2534 1.916667,0.079 0.332291,0.3323 -0.258334,0.5687 -1.3125,0.5253 -1.164943,-0.048 -1.4019,-0.285 -0.604167,-0.6042 z"
         id="path9818"
         style="fill:#03024f" />
      <path
         d="m 123.13991,1091.9733 c 7.79873,-0.2949 8.91528,-0.5684 9.36663,-2.2944 0.75036,-2.8693 2.08525,-2.3959 1.52392,0.5405 -0.47376,2.4783 -0.5615,2.4982 -10.11133,2.2944 l -9.63342,-0.2057 8.8542,-0.3348 z m 19.6458,-0.5872 c 0,-2.3067 1.2716,-2.7309 3.13394,-1.0455 1.6161,1.4626 2.97819,1.4986 13.58116,0.3592 6.48169,-0.6966 12.2124,-1.6521 12.7349,-2.1234 0.58492,-0.5277 0.48885,-0.857 -0.25,-0.857 -0.66,0 -1.2,-0.8827 -1.2,-1.9615 0,-1.4388 1.13246,-2.3048 4.25,-3.25 l 4.25,-1.2885 -7.25,-0.2938 c -3.9875,-0.1616 -7.25,-0.7241 -7.25,-1.25 0,-0.5631 5.79989,-0.9562 14.10699,-0.9562 11.02614,0 14.00008,0.2786 13.61747,1.2757 -0.26924,0.7016 -1.02429,3.8516 -1.67789,7 l -1.18837,5.7243 -23.4291,0 c -18.85758,0 -23.4291,-0.2602 -23.4291,-1.3333 z m 33.72917,-2.2709 c -0.3323,-0.3323 -1.1948,-0.3678 -1.91667,-0.079 -0.79773,0.3192 -0.56078,0.5562 0.60417,0.6041 1.05416,0.043 1.64479,-0.1929 1.3125,-0.5252 z m 11.69768,-7.4893 c 0.27636,-0.2764 -1.09343,-0.61 -3.04397,-0.7413 -2.2946,-0.1546 -3.31495,0.1357 -2.89063,0.8223 0.62945,1.0184 4.89333,0.9603 5.9346,-0.081 z m 12.1941,1.3435 c 4.87698,-5.3625 11.1199,-12.1636 13.87314,-15.1135 2.75325,-2.9499 4.8622,-5.8749 4.68655,-6.5 -0.17564,-0.6251 -3.43814,-6.6089 -7.25,-13.2975 -3.81185,-6.6885 -6.93064,-12.426 -6.93064,-12.75 0,-0.3239 3.9375,-0.5827 8.75,-0.575 l 8.75,0.014 4.39294,8.1678 4.39294,8.1678 3.02786,-3.4319 c 1.66532,-1.8875 4.93224,-5.5693 7.25982,-8.1818 l 4.23196,-4.75 9.09724,0 c 12.79175,0 13.13531,-0.9732 -7.23713,20.5 l -8.53864,9 7.45913,14.2878 7.45914,14.2879 -9.11144,-0.2879 -9.11144,-0.2878 -3.77971,-7.2852 c -2.07884,-4.0068 -4.00732,-7.5128 -4.28551,-7.791 -0.27819,-0.2782 -3.59986,3.0988 -7.38148,7.5044 l -6.87568,8.0101 -10.87315,0.031 -10.87314,0.031 8.86724,-9.75 z m 15.62905,-43.9557 c -1.2375,-0.2384 -3.2625,-0.2384 -4.5,0 -1.2375,0.2383 -0.225,0.4333 2.25,0.4333 2.475,0 3.4875,-0.195 2.25,-0.4333 z m -70.65257,42.0266 c 0.61052,-6.2345 1.40257,-6.8255 1.40257,-1.0466 0,2.5342 -0.41943,4.8669 -0.93206,5.1837 -0.54901,0.3393 -0.74237,-1.3609 -0.47051,-4.1371 z m -10.59743,1.2487 c 0,-0.7868 -1.0125,-1.6255 -2.25,-1.8639 -1.67771,-0.3231 -1.44717,-0.468 0.90638,-0.5695 2.69234,-0.1162 3.07949,0.1578 2.63337,1.8638 -0.60904,2.329 -1.28975,2.6296 -1.28975,0.5696 z m -26.73097,-2.2626 c 0.97297,-0.2535 2.32297,-0.2369 3,0.037 0.67703,0.2739 -0.11903,0.4813 -1.76903,0.4609 -1.65,-0.02 -2.20394,-0.2445 -1.23097,-0.498 z m 55.10963,-5.807 c 0.34028,-2.2 0.69428,-4.5625 0.78668,-5.25 0.0924,-0.6875 0.59114,-1.25 1.10832,-1.25 0.51717,0 0.62556,0.7875 0.24086,1.75 -0.3847,0.9625 -0.79527,2.9749 -0.91236,4.472 -0.1171,1.4972 -0.57949,3.0722 -1.02754,3.5 -0.44805,0.4279 -0.53623,-1.022 -0.19596,-3.222 z m -16.37866,-1.8333 c 0,-0.9265 0.77721,-1.6599 1.75,-1.6514 0.99868,0.01 1.32068,0.3357 0.75,0.7616 -0.55,0.4105 -1.3375,1.1536 -1.75,1.6514 -0.4125,0.4978 -0.75,0.155 -0.75,-0.7616 z m 1,-4.1667 c 0,-0.825 0.375,-1.5 0.83333,-1.5 0.45834,0 0.83334,0.675 0.83334,1.5 0,0.825 -0.375,1.5 -0.83334,1.5 -0.45833,0 -0.83333,-0.675 -0.83333,-1.5 z m -24.5,0 c 2.33929,-0.8076 12.36139,-1.0816 11.89393,-0.3253 -0.28158,0.4556 -3.29791,0.7929 -6.70295,0.7495 -3.40504,-0.043 -5.74098,-0.2343 -5.19098,-0.4242 z m 41.95558,-2.695 c 0.23797,-0.716 0.62476,-2.9256 0.85953,-4.9101 0.23477,-1.9846 0.96332,-4.4596 1.619,-5.5 1.08194,-1.7169 1.14639,-1.6607 0.69729,0.6082 -0.27217,1.375 -0.80159,4.1925 -1.17649,6.2611 -0.3749,2.0685 -1.07547,4.0044 -1.55682,4.3019 -0.48135,0.2975 -0.68048,-0.045 -0.44251,-0.7611 z m -15.7403,-0.4199 c -0.68938,-0.6894 0.20319,-6.4894 1.16696,-7.583 0.33977,-0.3855 0.55016,1.1071 0.46755,3.3169 -0.15646,4.185 -0.58834,5.3122 -1.63451,4.2661 z m -13.8813,-4.3257 c -0.25996,-2.7259 0.0112,-4.0563 0.82672,-4.0563 0.83854,0 1.03474,1.1588 0.63489,3.75 -0.77701,5.0353 -1.00605,5.0833 -1.46161,0.3063 z m 32.19665,-8.5563 c 0,-0.55 0.43621,-1.675 0.96937,-2.5 0.53316,-0.825 0.96937,-1.05 0.96937,-0.5 0,0.55 -0.43621,1.675 -0.96937,2.5 -0.53316,0.825 -0.96937,1.05 -0.96937,0.5 z m -15.26677,-6.045 c 0.26122,-1.3665 0.80621,-2.6893 1.21109,-2.9395 0.40487,-0.2502 0.52241,0.6631 0.26119,2.0295 -0.26122,1.3665 -0.80621,2.6893 -1.21109,2.9395 -0.40487,0.2502 -0.52241,-0.6631 -0.26119,-2.0295 z m -19.50011,0.8274 c 1.52006,-0.2298 3.77006,-0.2237 5,0.014 1.22994,0.2373 -0.0137,0.4254 -2.76375,0.4179 -2.75,-0.01 -3.75631,-0.2017 -2.23625,-0.4316 z m 35.80654,0.027 c 0.0387,-0.4449 0.45702,-1.709 0.92971,-2.809 0.82859,-1.9282 0.86195,-1.9214 0.92971,0.191 0.0387,1.205 -0.37971,2.4691 -0.92971,2.809 -0.55,0.3399 -0.96837,0.254 -0.92971,-0.191 z m 1.66615,-7.7106 c 0.33167,-1.735 -0.0537,-2.5337 -1.38868,-2.8778 -3.32981,-0.8582 -10.61571,-0.6476 -12.50108,0.3615 -1.42282,0.7614 -1.84668,0.6359 -1.84668,-0.5469 0,-1.268 1.58676,-1.5352 9.11663,-1.5352 8.96628,0 9.10669,0.037 8.51366,2.25 -0.33164,1.2375 -0.60913,2.8125 -0.61664,3.5 -0.008,0.6875 -0.40125,1.25 -0.87498,1.25 -0.47373,0 -0.65473,-1.0807 -0.40223,-2.4016 z m -29.73644,-3.5984 c 0,-0.55 0.45,-1 1,-1 0.55,0 1,0.45 1,1 0,0.55 -0.45,1 -1,1 -0.55,0 -1,-0.45 -1,-1 z"
         id="path9816"
         style="fill:#03032d" />
      <path
         d="m 188.34268,1090.6564 c 0.91566,-1.0117 1.1382,-1.8764 0.53621,-2.0833 -0.64749,-0.2225 -0.69032,-0.8992 -0.11551,-1.8247 1.36553,-2.1988 2.30116,-0.575 1.57464,2.7328 -0.3509,1.5977 -1.2956,2.9049 -2.09932,2.9049 -1.24166,0 -1.22603,-0.26 0.10398,-1.7297 z m 7.97952,-2.8762 c 5.15567,-5.2537 7.84042,-6.7144 5.1659,-2.8108 -0.84785,1.2375 -2.02774,2.1375 -2.62197,2 -0.59423,-0.1375 -1.08042,0.425 -1.08042,1.25 0,3.0138 12.87401,1.132 13.07029,-1.9105 0.0387,-0.5992 0.45702,-0.1895 0.92971,0.9105 0.66123,1.5388 0.87564,1.6247 0.92971,0.3724 0.0387,-0.8951 0.74529,-2.1877 1.57029,-2.8724 0.825,-0.6847 1.5,-1.7095 1.5,-2.2774 0,-0.5679 -0.82293,-0.2878 -1.82874,0.6224 -3.07944,2.7869 -3.4176,1.8445 -0.64333,-1.7927 1.44634,-1.8963 4.05674,-4.2897 5.80089,-5.3188 2.14918,-1.268 3.1835,-2.6546 3.2094,-4.3023 0.021,-1.3371 0.36709,-3.6687 0.76905,-5.1812 0.56177,-2.1138 0.37943,-2.75 -0.78822,-2.75 -2.07759,0 -5.78522,3.864 -5.19171,5.4107 0.26509,0.6908 -0.0376,1.2737 -0.67268,1.2954 -0.63506,0.022 -1.67216,0.2093 -2.30466,0.4167 -0.6325,0.2075 -1.15,-0.073 -1.15,-0.6228 0,-0.55 0.43845,-0.8764 0.97433,-0.7252 0.53588,0.1511 0.71872,-0.1388 0.4063,-0.6443 -0.31242,-0.5055 0.98214,-2.1551 2.87679,-3.6657 l 3.44483,-2.7465 -3.05058,-4.4339 c -1.67781,-2.4386 -3.13097,-4.9627 -3.22924,-5.6091 -0.0983,-0.6464 -0.5899,-1.8503 -1.09251,-2.6753 -0.78679,-1.2915 -0.68014,-1.3105 0.76711,-0.1367 0.92452,0.7498 1.43435,1.7623 1.13294,2.25 -0.3014,0.4877 0.004,0.8867 0.67768,0.8867 0.67413,0 0.96318,0.2625 0.64235,0.5833 -0.97552,0.9755 3.11491,4.4167 5.25,4.4167 2.28494,0 2.40366,0.3772 0.96482,3.0657 -1.46382,2.7352 0.52542,2.4874 2.53424,-0.3157 1.60826,-2.2441 1.611,-2.2422 1.05072,0.75 -0.30896,1.65 -0.29655,2.4375 0.0276,1.75 0.32412,-0.6875 1.19416,-1.25 1.9334,-1.25 0.73925,0 2.25869,-1.1627 3.37653,-2.5838 1.29512,-1.6465 2.49408,-2.2985 3.305,-1.7974 1.76597,1.0915 4.82998,1.2262 4.18593,0.1841 -0.29096,-0.4707 -1.05759,-0.773 -1.70362,-0.6717 -0.64602,0.1013 -1.9364,-0.15 -2.86749,-0.5586 -1.31824,-0.5784 -1.49268,-1.2694 -0.78821,-3.1223 0.57457,-1.5112 0.53602,-2.6073 -0.10566,-3.0039 -1.59835,-0.9879 1.15474,-3.6406 2.99698,-2.8878 0.87439,0.3574 2.80138,1.014 4.28222,1.4592 2.55592,0.7685 2.64429,0.6829 1.74285,-1.688 -0.52227,-1.3737 -0.63499,-3.0224 -0.25048,-3.6637 0.38452,-0.6414 -0.0836,-0.5308 -1.04018,0.2456 -1.19824,0.9726 -1.38741,1.6292 -0.60811,2.1109 1.40416,0.8678 -0.90761,1.9022 -2.78651,1.2468 -2.12526,-0.7414 -1.33999,-2.5854 3.20211,-7.5194 l 4.37268,-4.75 9.08759,0 c 6.99283,0 9.08759,0.3133 9.08759,1.3592 0,2.135 -8.11368,10.8112 -9.583,10.2473 -0.7648,-0.2935 -1.11444,0.018 -0.83552,0.7452 0.2638,0.6875 -2.87458,4.8604 -6.97417,9.2732 l -7.45381,8.0234 7.32558,14.0464 7.32558,14.0464 -8.90506,0.1801 -8.90505,0.1802 -4.16191,-8.5933 c -2.28904,-4.7264 -4.42532,-8.1972 -4.74727,-7.713 -0.88506,1.331 -5.00599,2.1424 -5.64339,1.111 -0.30801,-0.4983 -1.06946,-0.9061 -1.69213,-0.9061 -0.62266,0 -0.27745,0.6249 0.76713,1.3888 1.04458,0.7638 2.58161,1.1269 3.41563,0.8068 1.71198,-0.6569 0.23008,1.4101 -6.44537,8.9903 l -4.01277,4.5567 -10.95074,0.188 -10.95074,0.188 4.9635,-5.0578 z m 19.46351,-1.0608 c 0,-0.55 -0.19844,-1 -0.44098,-1 -0.24254,0 -0.7191,0.45 -1.05902,1 -0.33992,0.55 -0.14148,1 0.44098,1 0.58246,0 1.05902,-0.45 1.05902,-1 z m 6.72917,-27.6042 c -0.33229,-0.3323 -1.1948,-0.3678 -1.91667,-0.079 -0.79773,0.3192 -0.56078,0.5562 0.60417,0.6041 1.05416,0.043 1.64479,-0.1929 1.3125,-0.5252 z m 22.65239,-7.9477 c 0.34149,-0.89 0.17385,-1.2914 -0.39301,-0.941 -0.5437,0.336 -0.98855,1.0344 -0.98855,1.5519 0,1.4384 0.71677,1.1215 1.38156,-0.6109 z m 6.40646,-11.9028 c 0.29992,-0.2999 -0.23124,-0.5453 -1.18037,-0.5453 -0.94913,0 -1.46679,-0.4189 -1.15036,-0.9309 0.31644,-0.512 0.0485,-1.2565 -0.59549,-1.6545 -0.71224,-0.4402 -0.90349,-0.2911 -0.4883,0.3807 0.37538,0.6074 -0.23009,1.5928 -1.34549,2.1897 -1.46301,0.783 -2.02801,0.7805 -2.02801,-0.01 0,-0.6018 -0.45,-0.8161 -1,-0.4762 -2.1841,1.3498 -0.79022,2.1997 3.12136,1.9031 2.26674,-0.1719 4.36674,-0.5579 4.66666,-0.8578 z m -61.97552,44.7716 c 0.72187,-0.2889 1.58437,-0.2534 1.91667,0.079 0.33229,0.3323 -0.25834,0.5687 -1.3125,0.5253 -1.16495,-0.048 -1.4019,-0.285 -0.60417,-0.6042 z m 0.58619,-2.0669 c 0.43817,-0.7614 0.10995,-1.2989 -0.83967,-1.375 -2.86976,-0.2301 -3.38827,-0.3709 -4.14235,-1.125 -0.4125,-0.4125 0.86018,-0.75 2.82818,-0.75 3.50372,0 4.53617,1.6773 2.29044,3.7211 -0.47077,0.4284 -0.53224,0.2164 -0.1366,-0.4711 z m 19.60131,-0.25 c 0,-0.55 0.47656,-1 1.05902,-1 0.58246,0 0.7809,0.45 0.44098,1 -0.33992,0.55 -0.81648,1 -1.05902,1 -0.24254,0 -0.44098,-0.45 -0.44098,-1 z m -4.06237,-4.3339 c 4.39051,-4.5751 5.88789,-5.2597 4.69297,-2.1458 -0.33906,0.8835 -1.09975,1.3078 -1.69042,0.9427 -0.59067,-0.365 -0.99053,-0.056 -0.88858,0.6866 0.33988,2.476 -0.0401,3.5166 -1.3016,3.5646 -0.6875,0.026 -2.15,0.3915 -3.25,0.8119 -1.23299,0.4711 -0.29815,-1.0091 2.43763,-3.86 z m 22.00018,-22.8571 c -0.0342,-0.1699 -0.29235,-2.334 -0.57366,-4.809 -0.28132,-2.475 -1.15333,-5.2104 -1.93781,-6.0787 -0.78449,-0.8683 -1.42634,-1.9657 -1.42634,-2.4386 0,-1.4366 3.49831,2.7986 5.30365,6.4209 1.92461,3.8617 2.16846,5.5062 0.68004,4.5863 -0.55897,-0.3454 -0.71444,-1.1165 -0.34549,-1.7135 0.41004,-0.6635 0.20313,-0.7964 -0.53225,-0.3419 -0.88028,0.5441 -0.90871,1.0982 -0.10595,2.0655 0.75881,0.9143 0.77379,1.5218 0.0486,1.97 -0.57671,0.3564 -1.07655,0.509 -1.11075,0.339 z m 3.4552,-1.3908 c 0.33385,-0.87 0.60699,-1.77 0.60699,-2 0,-0.23 0.5051,-0.4182 1.12244,-0.4182 0.82562,0 0.82792,0.3549 0.009,1.342 -0.61257,0.7381 -0.81767,1.6381 -0.45578,2 0.3619,0.3619 0.0849,0.658 -0.61566,0.658 -0.75057,0 -1.02437,-0.6496 -0.66667,-1.5818 z m -11.89553,-16.6795 c -0.91205,-0.5105 -4.32895,-0.7145 -7.59312,-0.4535 -3.26416,0.261 -6.14099,0.1409 -6.39295,-0.2667 -0.25196,-0.4077 3.55618,-0.74 8.46254,-0.7384 5.97958,0 9.07144,0.3958 9.37801,1.1947 0.54504,1.4204 -1.53366,1.5626 -3.85448,0.2639 z"
         id="path9814"
         style="fill:#010113" />
    </g>
  </g>
  <text
     xml:space="preserve"
     style="font-size:10px;font-style:italic;font-variant:normal;font-weight:bold;font-stretch:normal;line-height:125%;letter-spacing:0px;word-spacing:0px;fill:#000000;fill-opacity:1;stroke:none;font-family:Liberation Sans;-inkscape-font-specification:Liberation Sans Bold Italic"
     x="8.4067802"
     y="47.457626"
     id="text2999"
     sodipodi:linespacing="125%"><tspan
       sodipodi:role="line"
       id="tspan3001"
       x="8.4067802"
       y="47.457626">For MR</tspan></text>
</svg>
