<?xml version="1.0" encoding="UTF-8" standalone="no"?>
<!-- Created with Inkscape (http://www.inkscape.org/) -->

<svg
   xmlns:dc="http://purl.org/dc/elements/1.1/"
   xmlns:cc="http://creativecommons.org/ns#"
   xmlns:rdf="http://www.w3.org/1999/02/22-rdf-syntax-ns#"
   xmlns:svg="http://www.w3.org/2000/svg"
   xmlns="http://www.w3.org/2000/svg"
   xmlns:xlink="http://www.w3.org/1999/xlink"
   xmlns:sodipodi="http://sodipodi.sourceforge.net/DTD/sodipodi-0.dtd"
   xmlns:inkscape="http://www.inkscape.org/namespaces/inkscape"
   version="1.1"
   width="64"
   height="64"
   id="svg2"
   inkscape:version="0.92.3 (2405546, 2018-03-11)"
   sodipodi:docname="xia2_multiplex.svg"
   inkscape:export-filename="/home/fcx32934/sw/ccp4-bzr/ccp4i2/multiplex/qticons/xia2_multiplex.png"
   inkscape:export-xdpi="72.000008"
   inkscape:export-ydpi="72.000008">
  <sodipodi:namedview
     pagecolor="#ffffff"
     bordercolor="#666666"
     borderopacity="1"
     objecttolerance="10"
     gridtolerance="10"
     guidetolerance="10"
     inkscape:pageopacity="0"
     inkscape:pageshadow="2"
     inkscape:window-width="1853"
     inkscape:window-height="1025"
     id="namedview6752"
     showgrid="false"
     inkscape:zoom="6.3335653"
     inkscape:cx="81.756544"
     inkscape:cy="13.645733"
     inkscape:window-x="67"
     inkscape:window-y="27"
     inkscape:window-maximized="1"
     inkscape:current-layer="svg2" />
  <defs
     id="defs4">
    <linearGradient
       id="linearGradient8391">
      <stop
         id="stop8393"
         style="stop-color:#c1c1c1;stop-opacity:1"
         offset="0" />
      <stop
         id="stop8395"
         style="stop-color:#f7f7f7;stop-opacity:1"
         offset="1" />
    </linearGradient>
    <marker
       refX="0"
       refY="0"
       orient="auto"
       id="Arrow1Mend"
       style="overflow:visible">
      <path
         d="M 0,0 5,-5 -12.5,0 5,5 0,0 z"
         transform="matrix(-0.4,0,0,-0.4,-4,0)"
         id="path5185"
         style="fill-rule:evenodd;stroke:#000000;stroke-width:1pt;marker-start:none" />
    </marker>
    <marker
       refX="0"
       refY="0"
       orient="auto"
       id="Arrow2Mend"
       style="overflow:visible">
      <path
         d="M 8.7185878,4.0337352 -2.2072895,0.01601326 8.7185884,-4.0017078 c -1.7454984,2.3720609 -1.7354408,5.6174519 -6e-7,8.035443 z"
         transform="scale(-0.6,-0.6)"
         id="path5203"
         style="font-size:12px;fill-rule:evenodd;stroke-width:0.625;stroke-linejoin:round" />
    </marker>
    <marker
       refX="0"
       refY="0"
       orient="auto"
       id="Arrow2Lend"
       style="overflow:visible">
      <path
         d="M 8.7185878,4.0337352 -2.2072895,0.01601326 8.7185884,-4.0017078 c -1.7454984,2.3720609 -1.7354408,5.6174519 -6e-7,8.035443 z"
         transform="matrix(-1.1,0,0,-1.1,-1.1,0)"
         id="path5197"
         style="font-size:12px;fill-rule:evenodd;stroke-width:0.625;stroke-linejoin:round" />
    </marker>
    <linearGradient
       id="linearGradient6799">
      <stop
         id="stop6801"
         style="stop-color:#000000;stop-opacity:1"
         offset="0" />
      <stop
         id="stop6803"
         style="stop-color:#000000;stop-opacity:0"
         offset="1" />
    </linearGradient>
    <linearGradient
       id="linearGradient6775">
      <stop
         id="stop6777"
         style="stop-color:#000000;stop-opacity:1"
         offset="0" />
      <stop
         id="stop6779"
         style="stop-color:#ffffff;stop-opacity:1"
         offset="1" />
    </linearGradient>
    <marker
       refX="0"
       refY="0"
       orient="auto"
       id="Arrow2Lstart"
       style="overflow:visible">
      <path
         d="M 8.7185878,4.0337352 -2.2072895,0.01601326 8.7185884,-4.0017078 c -1.7454984,2.3720609 -1.7354408,5.6174519 -6e-7,8.035443 z"
         transform="matrix(1.1,0,0,1.1,1.1,0)"
         id="path4334"
         style="font-size:12px;fill-rule:evenodd;stroke-width:0.625;stroke-linejoin:round" />
    </marker>
    <marker
       refX="0"
       refY="0"
       orient="auto"
       id="Arrow1Lend"
       style="overflow:visible">
      <path
         d="M 0,0 5,-5 -12.5,0 5,5 0,0 z"
         transform="matrix(-0.8,0,0,-0.8,-10,0)"
         id="path4319"
         style="fill-rule:evenodd;stroke:#000000;stroke-width:1pt;marker-start:none" />
    </marker>
    <linearGradient
       x1="421.16345"
       y1="68.845291"
       x2="631.55121"
       y2="68.845291"
       id="linearGradient6805"
       xlink:href="#linearGradient6799"
       gradientUnits="userSpaceOnUse" />
    <linearGradient
       x1="308.5"
       y1="522.60999"
       x2="327.78"
       y2="520.33002"
       id="linearGradient4583"
       xlink:href="#linearGradient6035"
       gradientUnits="userSpaceOnUse"
       gradientTransform="matrix(0.81256321,0,0,0.81256321,-228.8117,-369.08861)"
       spreadMethod="reflect" />
    <linearGradient
       id="linearGradient6035">
      <stop
         id="stop6037"
         style="stop-color:#ffffff;stop-opacity:1"
         offset="0" />
      <stop
         id="stop6039"
         style="stop-color:#ffffff;stop-opacity:0"
         offset="1" />
    </linearGradient>
    <linearGradient
       x1="308.61908"
       y1="522.19324"
       x2="327.66092"
       y2="519.73468"
       id="linearGradient4383"
       xlink:href="#linearGradient6035"
       gradientUnits="userSpaceOnUse"
       gradientTransform="translate(0,12)"
       spreadMethod="reflect" />
    <linearGradient
       id="linearGradient6402">
      <stop
         id="stop6404"
         style="stop-color:#ffffff;stop-opacity:1"
         offset="0" />
      <stop
         id="stop6406"
         style="stop-color:#ffffff;stop-opacity:0"
         offset="1" />
    </linearGradient>
    <linearGradient
       x1="287.69586"
       y1="529.23523"
       x2="287.58078"
       y2="512.51025"
       id="linearGradient4317"
       xlink:href="#linearGradient4319"
       gradientUnits="userSpaceOnUse"
       gradientTransform="matrix(0.96028721,0,0,0.96028721,-253.71595,-467.72891)"
       spreadMethod="pad" />
    <linearGradient
       x1="269.97"
       y1="511.97"
       x2="286.63"
       y2="511.97"
       id="linearGradient4319"
       gradientUnits="userSpaceOnUse"
       gradientTransform="matrix(1.1818,0,0,1.1818,-30.649,-69.394)"
       spreadMethod="reflect">
      <stop
         id="stop4321"
         style="stop-color:#87caee;stop-opacity:1"
         offset="0" />
      <stop
         id="stop4323"
         style="stop-color:#abceda;stop-opacity:1"
         offset="0.24713178" />
      <stop
         id="stop4325"
         style="stop-color:#1e9bcb;stop-opacity:1"
         offset="1" />
    </linearGradient>
    <linearGradient
       x1="308.5"
       y1="522.60999"
       x2="327.78"
       y2="520.33002"
       id="linearGradient6114"
       xlink:href="#linearGradient6035"
       gradientUnits="userSpaceOnUse"
       gradientTransform="matrix(0.81256321,0,0,0.81256321,-228.8117,-386.76193)"
       spreadMethod="reflect" />
    <linearGradient
       id="linearGradient6414">
      <stop
         id="stop6416"
         style="stop-color:#ffffff;stop-opacity:1"
         offset="0" />
      <stop
         id="stop6418"
         style="stop-color:#ffffff;stop-opacity:0"
         offset="1" />
    </linearGradient>
    <linearGradient
       x1="269.97"
       y1="511.97"
       x2="286.63"
       y2="511.97"
       id="linearGradient6110"
       gradientUnits="userSpaceOnUse"
       gradientTransform="matrix(1.203669,0,0,1.203669,-317.8861,411.94756)"
       spreadMethod="reflect">
      <stop
         id="stop5497"
         style="stop-color:#87caee;stop-opacity:1"
         offset="0" />
      <stop
         id="stop5501"
         style="stop-color:#abceda;stop-opacity:1"
         offset="0.20485" />
      <stop
         id="stop5499"
         style="stop-color:#1e9bcb;stop-opacity:1"
         offset="1" />
    </linearGradient>
    <linearGradient
       x1="269.97"
       y1="511.97"
       x2="286.63"
       y2="511.97"
       id="linearGradient6513"
       xlink:href="#linearGradient6110"
       gradientUnits="userSpaceOnUse"
       gradientTransform="matrix(0.96028721,0,0,0.96028721,-253.71595,-443.35204)"
       spreadMethod="reflect" />
    <linearGradient
       x1="306.96509"
       y1="741.81738"
       x2="309.99164"
       y2="438.77164"
       id="linearGradient8344"
       xlink:href="#linearGradient8391"
       gradientUnits="userSpaceOnUse"
       gradientTransform="matrix(0.11267658,0,0,0.11267658,-1.9835393,-29.915769)" />
    <linearGradient
       id="linearGradient8330">
      <stop
         id="stop8332"
         style="stop-color:#c0c0c0;stop-opacity:1"
         offset="0" />
      <stop
         id="stop8334"
         style="stop-color:#ffffff;stop-opacity:1"
         offset="1" />
    </linearGradient>
    <linearGradient
       x1="49.018143"
       y1="489.71555"
       x2="541.05945"
       y2="489.71555"
       id="linearGradient8336"
       xlink:href="#linearGradient8330"
       gradientUnits="userSpaceOnUse"
       gradientTransform="matrix(0.11267658,0,0,0.11267658,-1.9835393,-29.915769)" />
    <clipPath
       id="clipPath3110">
      <path
         d="m 4316.17,2425.75 c -79.22,0 -139.49,-21.05 -180.76,-63.13 -37.14,-38.82 -55.69,-92.86 -55.69,-162.19 l 0,-34.67 c 0,-71.82 19.17,-129.59 57.56,-173.33 38.36,-43.75 92.66,-65.62 162.81,-65.62 l 394.94,0 c 45.38,0 68.09,-18.99 68.09,-56.96 l 0,-45.79 c 0,-39.63 -22.71,-59.44 -68.09,-59.44 l -588.09,0 0,-170.85 597.99,0 c 157.64,0 236.47,78.82 236.47,236.49 l 0,50.74 c 0,80.05 -20.64,137.01 -61.9,170.86 -36.33,30.53 -95.33,45.79 -177.04,45.79 l -373.9,0 c -47.06,0 -70.58,21.86 -70.58,65.64 l 0,24.75 c 0,44.58 23.52,66.87 70.58,66.87 l 568.28,0 0,170.84 -580.67,0 z m -1039.82,0 0,-594.27 c 0,-75.94 19.82,-134.55 59.42,-175.8 39.63,-41.28 94.51,-61.91 164.66,-61.91 l 549.73,0 0,170.85 -537.32,0 c -38.81,0 -58.19,21.06 -58.19,63.14 l 0,597.99 -178.3,0 z m -814.64,-118.84 -307.04,-713.14 206.75,0 80.48,195.63 448.17,0 80.49,-195.63 206.75,0 -307.04,713.14 c -33.85,79.23 -101.94,118.84 -204.28,118.84 -102.35,0 -170.45,-39.61 -204.28,-118.84 m 165.9,-66.86 c 7.42,17.33 20.21,25.99 38.38,25.99 18.14,0 30.95,-8.66 38.39,-25.99 l 118.85,-287.23 -314.48,0 118.86,287.23 z m -753.98,-646.28 178.29,0 0,831.98 -178.29,0 0,-831.98 z m -1057.306,831.98 0,-831.98 637.606,0 c 70.16,0 127.11,23.53 170.86,70.56 43.73,47.06 65.62,108.53 65.62,184.48 l 0,321.91 c 0,75.93 -21.89,137.42 -65.62,184.46 -43.75,47.04 -100.7,70.57 -170.86,70.57 l -637.606,0 z m 178.293,-170.84 459.313,0 c 17.33,0 31.37,-6.21 42.11,-18.57 10.71,-12.39 16.08,-27.25 16.08,-44.58 l 0,-364 c 0,-17.33 -5.37,-32.18 -16.08,-44.54 -10.74,-12.42 -24.78,-18.6 -42.11,-18.6 l -459.313,0 0,490.29 z"
         id="path3112" />
    </clipPath>
    <clipPath
       id="clipPath3092">
      <path
         d="m 0,0 0,4020 5814,0 L 5814,0 0,0 z"
         id="path3094" />
    </clipPath>
    <clipPath
       id="clipPath3098">
      <path
         d="m 1974.14,2841.18 c -204.81,147.7 -456.28,234.72 -728.1,234.72 C 557.871,3075.9 0,2518.02 0,1829.86 0,1141.69 557.871,583.809 1246.04,583.809 c 330.33,0 630.63,128.543 857.07,344.211 C 2463.01,372.551 3090.2,0.0195313 3804.39,0.0195313 4914.34,0.0195313 5814.14,899.82 5814.14,2009.77 c 0,1109.94 -899.8,2009.73 -2009.75,2009.73 -813.42,0 -1514,-483.25 -1830.25,-1178.32"
         id="path3100" />
    </clipPath>
  </defs>
  <metadata
     id="metadata7">
    <rdf:RDF>
      <cc:Work
         rdf:about="">
        <dc:format>image/svg+xml</dc:format>
        <dc:type
           rdf:resource="http://purl.org/dc/dcmitype/StillImage" />
        <dc:title></dc:title>
      </cc:Work>
    </rdf:RDF>
  </metadata>
  <path
     inkscape:connector-curvature="0"
     style="fill:#cfcfcf;stroke:none;stroke-width:0.99999994"
     id="path4801"
     d="m 38.088545,29.62384 c 0.0031,-1.543374 0.509107,-2.474537 2.470684,-4.546802 1.082903,-1.144001 3.129446,-2.990516 4.547874,-4.103328 2.825743,-2.216922 3.850475,-3.267428 4.5776,-4.692716 1.497005,-2.934374 0.334424,-5.334594 -2.583894,-5.334594 -1.107419,0 -3.176981,0.576663 -4.514364,1.257885 l -0.940782,0.479205 0.170742,-1.287122 c 0.09392,-0.707915 0.299658,-1.371173 0.457225,-1.4739073 1.519063,-0.9904599 6.504011,-1.4748545 8.263339,-0.8029606 3.5236,1.3456739 3.985618,5.9507859 0.935762,9.3271099 -0.513653,0.568639 -2.29392,2.089576 -3.956152,3.379853 -3.138911,2.436505 -4.538592,3.80171 -5.190782,5.062903 l -0.382555,0.739797 h 4.479124 c 4.99068,0 4.637348,-0.143255 4.323935,1.752897 l -0.149862,0.906671 h -6.254622 -6.254622 l 0.0014,-0.664891 z m -7.878437,-4.128766 c -2.152121,-1.353503 -1.457175,-4.656617 1.29484,-6.154461 0.836283,-0.455149 1.859127,-0.745575 3.232202,-0.917746 1.104815,-0.138539 2.054284,-0.297413 2.109932,-0.35307 0.05564,-0.05563 0.152252,-0.632712 0.214675,-1.282348 0.09924,-1.032687 0.04248,-1.230921 -0.451445,-1.576882 -0.744704,-0.521615 -1.773288,-0.499469 -3.629003,0.07809 -0.837257,0.260565 -1.567213,0.428844 -1.622129,0.373936 -0.05491,-0.05491 -0.03189,-0.462065 0.05115,-0.904762 0.186971,-0.996637 0.989961,-1.360539 3.44293,-1.560321 2.223624,-0.181118 3.271357,0.02826 4.053057,0.809959 0.813065,0.81308 0.817211,1.6698 0.0298,6.158766 -0.630418,3.593999 -0.58418,4.078016 0.389568,4.078016 0.732355,0 0.629147,1.397483 -0.117032,1.584766 -1.190487,0.29879 -2.180814,0.02104 -2.686495,-0.75353 l -0.483336,-0.740327 -1.167986,0.726063 c -1.519625,0.944655 -3.548271,1.133484 -4.660732,0.433848 z m 4.274767,-1.768613 c 1.172908,-0.393907 1.598707,-0.839432 1.773302,-1.855366 0.0842,-0.489963 0.215006,-1.20181 0.290669,-1.581863 l 0.137568,-0.691028 -1.294286,0.17084 c -1.862414,0.245843 -3.245276,0.912935 -3.694913,1.782445 -0.501047,0.968906 -0.479133,1.384572 0.10372,1.967429 0.544356,0.544341 1.468302,0.615786 2.683937,0.207543 z m -23.194862,1.729421 c 0.04433,-0.13148 1.315817,-1.549489 2.825533,-3.151179 l 2.74494,-2.912109 -1.717379,-2.979443 c -0.944558,-1.638706 -1.717378,-3.049487 -1.717378,-3.135102 0,-0.08559 0.590226,-0.155632 1.311614,-0.155632 h 1.311614 l 1.267573,2.215034 1.267574,2.21506 2.134372,-2.21506 c 1.992829,-2.068154 2.198584,-2.215034 3.102621,-2.215034 0.532536,0 0.968248,0.08803 0.968248,0.195647 0,0.107612 -1.142407,1.403455 -2.53868,2.879637 -1.396274,1.476207 -2.538269,2.829759 -2.537765,3.007926 5.08e-4,0.178168 0.762107,1.615737 1.692453,3.194578 0.930347,1.578867 1.691538,2.966073 1.691538,3.082684 0,0.116629 -0.592687,0.21204 -1.317082,0.21204 h -1.317083 l -1.282041,-2.29163 c -0.705124,-1.260395 -1.343793,-2.294 -1.419262,-2.296902 -0.07547,-0.0028 -1.093237,1.028335 -2.261705,2.291631 -2.074858,2.243226 -2.149786,2.296901 -3.207393,2.296901 -0.606824,0 -1.047473,-0.105096 -1.002312,-0.239047 z m 13.257553,0.116782 c 0,-0.193302 1.677157,-9.772685 1.957552,-11.180903 l 0.252744,-1.26934 h 1.056594 c 0.581127,0 1.099469,0.0816 1.15187,0.181333 0.104587,0.199058 -1.817829,11.323409 -2.07069,11.982355 -0.115383,0.300677 -0.446677,0.408823 -1.252476,0.408823 -0.602576,0 -1.095594,-0.05503 -1.095594,-0.122268 z m 2.659572,-14.837821 c 0,-0.249334 0.06801,-0.7933373 0.151109,-1.2088949 0.144677,-0.723379 0.201781,-0.7555605 1.340741,-0.7555605 h 1.189629 L 29.737935,9.67706 c -0.246874,1.485456 -0.271247,1.51112 -1.435204,1.51112 -0.910062,0 -1.095593,-0.07678 -1.095593,-0.453337 z" />
  <path
     inkscape:connector-curvature="0"
     style="fill:#fe9c9c;stroke:none;stroke-width:0.99999994"
     id="path4799"
     d="m 38.190026,29.043932 c 0.102178,-0.77026 0.429005,-1.62287 0.857303,-2.236457 0.955051,-1.368275 3.552387,-3.843101 6.316554,-6.018581 3.686281,-2.901253 5.055861,-4.810607 5.053141,-7.04467 -0.0032,-2.729625 -3.391519,-3.616385 -7.131213,-1.866365 -1.731671,0.810347 -1.716415,0.820888 -1.418722,-0.979723 0.139214,-0.842024 0.234782,-0.9246386 1.62935,-1.4084484 1.915594,-0.6645675 5.082227,-0.8909411 6.583437,-0.470627 3.163715,0.8857836 4.292997,4.1951364 2.596542,7.6091534 -0.800854,1.611674 -1.365055,2.179468 -4.918059,4.949363 -3.168097,2.469822 -4.773802,4.037903 -5.425732,5.298588 l -0.389385,0.752998 h 4.506574 4.506577 l -0.171887,1.148449 c -0.09454,0.631647 -0.22211,1.230051 -0.2835,1.329786 -0.06139,0.09973 -2.893626,0.181333 -6.293863,0.181333 h -6.182244 z m -7.477093,-3.433238 c -1.142936,-0.52512 -1.612893,-1.210106 -1.630527,-2.376616 -0.04109,-2.718032 2.783813,-4.792522 6.526124,-4.792522 1.384682,0 1.504506,-0.148016 1.576246,-1.947071 0.02956,-0.74127 -0.08098,-1.093567 -0.421189,-1.342332 -0.655576,-0.479377 -2.478159,-0.417384 -4.096256,0.139337 l -1.385324,0.476619 0.164049,-0.778844 c 0.217538,-1.032808 0.249497,-1.057662 1.9168,-1.491728 2.840755,-0.739507 5.129958,-0.30573 5.921808,1.122122 0.327716,0.590955 0.299414,1.027657 -0.30661,4.731181 -0.367209,2.244072 -0.599876,4.256762 -0.517035,4.472622 0.08284,0.215885 0.386221,0.426064 0.674179,0.467094 0.37739,0.05377 0.523561,0.243325 0.523561,0.679036 0,0.500216 -0.160433,0.644075 -0.930329,0.834186 -1.122184,0.27715 -2.170063,-0.191247 -2.29006,-1.023597 -0.04249,-0.294776 -0.12574,-0.535926 -0.184997,-0.535926 -0.05925,0 -0.685056,0.325822 -1.390671,0.724031 -1.531417,0.864288 -3.128652,1.111532 -4.149769,0.642408 z m 4.231134,-1.837667 c 0.598403,-0.106485 0.924805,-0.210661 0.725337,-0.231551 -0.310394,-0.03247 -0.306343,-0.08082 0.02808,-0.33547 0.348157,-0.265085 0.939027,-2.281668 0.939027,-3.204782 0,-0.466415 -1.238597,-0.4595 -2.839321,0.01596 -1.594236,0.473452 -2.562984,1.550168 -2.428806,2.699489 0.09339,0.799951 0.0904,0.802465 -1.006235,0.842986 -1.051021,0.03883 -1.035432,0.04778 0.350775,0.201138 2.074709,0.22952 2.995456,0.232203 4.231134,0.01231 z m 1.868751,-0.158413 c -0.08035,-0.08035 -0.288877,-0.08894 -0.463411,-0.0191 -0.192872,0.07717 -0.135584,0.134453 0.146077,0.146058 0.254873,0.01044 0.397675,-0.04664 0.317334,-0.126982 z m -24.716875,0.87142 c 0.815319,-0.834959 1.08789,-0.967116 1.994695,-0.967116 h 1.050331 l -0.777197,0.967116 c -0.721146,0.897363 -0.864998,0.967115 -1.994693,0.967115 H 11.15158 Z m 7.85517,0.181334 c -0.263506,-0.432181 -0.479508,-0.86112 -0.480004,-0.953214 -5.07e-4,-0.09209 0.461499,-0.209091 1.026658,-0.259985 l 1.02756,-0.09256 -1.20931,-0.04224 c -1.172145,-0.04094 -1.227049,-0.07567 -1.786496,-1.130245 -0.317453,-0.598404 -0.648215,-1.088006 -0.735027,-1.088006 -0.08681,0 -0.638349,0.489602 -1.225638,1.088006 -0.944801,0.962667 -1.190271,1.088006 -2.131077,1.088006 h -1.063281 l 1.718068,-1.905823 c 0.944938,-1.04821 1.71807,-1.976738 1.71807,-2.063392 0,-0.08667 -0.707204,-1.389262 -1.571565,-2.894628 -0.86436,-1.505364 -1.571648,-2.834448 -1.571751,-2.9535 -1.02e-4,-0.119077 0.516699,-0.206068 1.148451,-0.19335 l 1.148638,0.02313 1.125475,1.876036 c 0.619011,1.031817 1.237549,1.988103 1.374528,2.12507 0.170884,0.170889 0.869326,-0.406213 2.225307,-1.838729 1.926631,-2.035345 2.004267,-2.087764 3.0919,-2.087764 h 1.115647 l -1.566875,1.63201 c -0.861781,0.897605 -2.093249,2.190276 -2.736595,2.872625 l -1.16972,1.240618 1.097367,1.90251 c 0.603551,1.046373 1.09424,1.99915 1.09042,2.117259 -0.0038,0.118112 0.08968,0.281311 0.207801,0.362669 0.118111,0.08135 0.46268,0.555923 0.765707,1.054593 l 0.550959,0.906671 h -1.353059 c -1.267063,0 -1.383505,-0.04995 -1.832158,-0.785782 z m 4.818824,-0.120889 c 0.143565,-0.890037 0.167859,-0.90805 1.32373,-0.981673 1.126237,-0.07174 1.170969,-0.0507 1.027887,0.48356 -0.08228,0.307204 -0.15108,0.748957 -0.152895,0.98167 -0.0027,0.344246 -0.2215,0.423113 -1.174137,0.423113 h -1.170836 z m 0.261187,-1.399514 c 0,-0.07163 0.380801,-2.235877 0.846227,-4.809518 0.465424,-2.573618 0.846227,-4.745447 0.846227,-4.826274 0,-0.08086 0.489602,-0.146977 1.088006,-0.146977 0.598403,0 1.088005,0.08445 1.088005,0.187669 0,0.235371 -1.410936,8.442877 -1.578336,9.18127 -0.105381,0.46487 -0.280932,0.544003 -1.206728,0.544003 -0.595871,0 -1.083401,-0.05859 -1.083401,-0.130173 z m 2.317701,-13.107236 c 0.225114,-1.2475806 0.247799,-1.2693414 1.323254,-1.2693414 0.82793,0 0.952415,0.071318 0.949546,0.5440034 -0.0082,1.361442 -0.234668,1.632009 -1.365638,1.632009 h -1.070762 z" />
  <path
     inkscape:connector-curvature="0"
     style="fill:#aeaeae;stroke:none;stroke-width:0.99999994"
     id="path4797"
     d="m 38.217882,29.14028 c 0.292008,-2.091847 2.009046,-4.150185 6.397348,-7.668965 3.537122,-2.836238 4.509135,-3.82763 5.2226,-5.326659 1.078384,-2.265761 0.641371,-4.230071 -1.10172,-4.952072 -1.079686,-0.447221 -3.501839,-0.197857 -5.318052,0.547509 -0.857913,0.352054 -1.590115,0.609863 -1.627115,0.572846 -0.03699,-0.03698 0.01507,-0.549998 0.115704,-1.140016 0.180209,-1.056522 0.206652,-1.081517 1.748003,-1.6522582 1.237139,-0.4580932 2.071579,-0.5847309 3.982818,-0.6044474 2.234558,-0.023041 2.504857,0.026244 3.56665,0.6503823 2.195785,1.2907303 2.821892,4.0237563 1.555498,6.7899273 -0.73718,1.610223 -1.92651,2.833941 -5.122148,5.270227 -2.960783,2.257226 -5.68181,5.03916 -5.68181,5.808961 0,0.100386 1.985612,0.212184 4.412469,0.248428 l 4.412469,0.06591 -0.06874,0.967116 c -0.03781,0.531915 -0.115988,1.103119 -0.173747,1.269341 -0.08031,0.231165 -1.559749,0.302223 -6.292774,0.302223 H 38.05757 l 0.160316,-1.148448 z m -7.504949,-3.529586 c -1.142936,-0.52512 -1.612893,-1.210106 -1.630527,-2.376616 -0.04109,-2.718032 2.783813,-4.792522 6.526124,-4.792522 1.384682,0 1.504506,-0.148016 1.576246,-1.947071 0.02956,-0.74127 -0.08098,-1.093567 -0.421189,-1.342332 -0.655576,-0.479377 -2.478159,-0.417384 -4.096256,0.139337 l -1.385324,0.476619 0.164049,-0.778844 c 0.217538,-1.032808 0.249497,-1.057662 1.9168,-1.491728 2.840755,-0.739507 5.129958,-0.30573 5.921808,1.122122 0.327716,0.590955 0.299414,1.027657 -0.30661,4.731181 -0.367209,2.244072 -0.599876,4.256762 -0.517035,4.472622 0.08284,0.215885 0.386221,0.426064 0.674179,0.467094 0.37739,0.05377 0.523561,0.243325 0.523561,0.679036 0,0.500216 -0.160433,0.644075 -0.930329,0.834186 -1.122184,0.27715 -2.170063,-0.191247 -2.29006,-1.023597 -0.04249,-0.294776 -0.12574,-0.535926 -0.184997,-0.535926 -0.05925,0 -0.685056,0.325822 -1.390671,0.724031 -1.531417,0.864288 -3.128652,1.111532 -4.149769,0.642408 z m 4.231134,-1.837667 c 0.598403,-0.106485 0.924805,-0.210661 0.725337,-0.231551 -0.310394,-0.03247 -0.306343,-0.08082 0.02808,-0.33547 0.348157,-0.265085 0.939027,-2.281668 0.939027,-3.204782 0,-0.466415 -1.238597,-0.4595 -2.839321,0.01596 -1.594236,0.473452 -2.562984,1.550168 -2.428806,2.699489 0.09339,0.799951 0.0904,0.802465 -1.006235,0.842986 -1.051021,0.03883 -1.035432,0.04778 0.350775,0.201138 2.074709,0.22952 2.995456,0.232203 4.231134,0.01231 z m 1.868751,-0.158413 c -0.08035,-0.08035 -0.288877,-0.08894 -0.463411,-0.0191 -0.192872,0.07717 -0.135584,0.134453 0.146077,0.146058 0.254873,0.01044 0.397675,-0.04664 0.317334,-0.126982 z m -24.716875,0.87142 c 0.815319,-0.834959 1.08789,-0.967116 1.994695,-0.967116 h 1.050331 l -0.777197,0.967116 c -0.721146,0.897363 -0.864998,0.967115 -1.994693,0.967115 H 11.15158 Z m 7.85517,0.181334 c -0.263506,-0.432181 -0.479508,-0.86112 -0.480004,-0.953214 -5.07e-4,-0.09209 0.461499,-0.209091 1.026658,-0.259985 l 1.02756,-0.09256 -1.20931,-0.04224 c -1.172145,-0.04094 -1.227049,-0.07567 -1.786496,-1.130245 -0.317453,-0.598404 -0.648215,-1.088006 -0.735027,-1.088006 -0.08681,0 -0.638349,0.489602 -1.225638,1.088006 -0.944801,0.962667 -1.190271,1.088006 -2.131077,1.088006 h -1.063281 l 1.718068,-1.905823 c 0.944938,-1.04821 1.71807,-1.976738 1.71807,-2.063392 0,-0.08667 -0.707204,-1.389262 -1.571565,-2.894628 -0.86436,-1.505364 -1.571648,-2.834448 -1.571751,-2.9535 -1.02e-4,-0.119077 0.516699,-0.206068 1.148451,-0.19335 l 1.148638,0.02313 1.125475,1.876036 c 0.619011,1.031817 1.237549,1.988103 1.374528,2.12507 0.170884,0.170889 0.869326,-0.406213 2.225307,-1.838729 1.926631,-2.035345 2.004267,-2.087764 3.0919,-2.087764 h 1.115647 l -1.566875,1.63201 c -0.861781,0.897605 -2.093249,2.190276 -2.736595,2.872625 l -1.16972,1.240618 1.097367,1.90251 c 0.603551,1.046373 1.09424,1.99915 1.09042,2.117259 -0.0038,0.118112 0.08968,0.281311 0.207801,0.362669 0.118111,0.08135 0.46268,0.555923 0.765707,1.054593 l 0.550959,0.906671 h -1.353059 c -1.267063,0 -1.383505,-0.04995 -1.832158,-0.785782 z m 4.818824,-0.120889 c 0.143565,-0.890037 0.167859,-0.90805 1.32373,-0.981673 1.126237,-0.07174 1.170969,-0.0507 1.027887,0.48356 -0.08228,0.307204 -0.15108,0.748957 -0.152895,0.98167 -0.0027,0.344246 -0.2215,0.423113 -1.174137,0.423113 h -1.170836 z m 0.261187,-1.399514 c 0,-0.07163 0.380801,-2.235877 0.846227,-4.809518 0.465424,-2.573618 0.846227,-4.745447 0.846227,-4.826274 0,-0.08086 0.489602,-0.146977 1.088006,-0.146977 0.598403,0 1.088005,0.08445 1.088005,0.187669 0,0.235371 -1.410936,8.442877 -1.578336,9.18127 -0.105381,0.46487 -0.280932,0.544003 -1.206728,0.544003 -0.595871,0 -1.083401,-0.05859 -1.083401,-0.130173 z m 2.317701,-13.107236 c 0.225114,-1.2475806 0.247799,-1.2693414 1.323254,-1.2693414 0.82793,0 0.952415,0.071318 0.949546,0.5440034 -0.0082,1.361442 -0.234668,1.632009 -1.365638,1.632009 h -1.070762 z" />
  <path
     inkscape:connector-curvature="0"
     style="fill:#fe6969;stroke:none;stroke-width:0.99999994"
     id="path4795"
     d="m 38.217882,29.14028 c 0.292008,-2.091847 2.009046,-4.150185 6.397348,-7.668965 3.537122,-2.836238 4.509135,-3.82763 5.2226,-5.326659 1.078384,-2.265761 0.641371,-4.230071 -1.10172,-4.952072 -1.079686,-0.447221 -3.501839,-0.197857 -5.318052,0.547509 -0.857913,0.352054 -1.590115,0.609863 -1.627115,0.572846 -0.03699,-0.03698 0.01507,-0.549998 0.115704,-1.140016 0.180209,-1.056522 0.206652,-1.081517 1.748003,-1.6522582 1.237139,-0.4580932 2.071579,-0.5847309 3.982818,-0.6044474 2.234558,-0.023041 2.504857,0.026244 3.56665,0.6503823 2.195785,1.2907303 2.821892,4.0237563 1.555498,6.7899273 -0.73718,1.610223 -1.92651,2.833941 -5.122148,5.270227 -2.960783,2.257226 -5.68181,5.03916 -5.68181,5.808961 0,0.100386 1.985612,0.212184 4.412469,0.248428 l 4.412469,0.06591 -0.06874,0.967116 c -0.03781,0.531915 -0.115988,1.103119 -0.173747,1.269341 -0.08031,0.231165 -1.559749,0.302223 -6.292774,0.302223 H 38.05757 l 0.160316,-1.148448 z m -1.042204,-3.454684 c -0.332173,-0.133413 -0.605083,-0.501643 -0.691297,-0.932711 l -0.14245,-0.712233 -1.504793,0.827127 c -1.690964,0.929472 -3.273011,1.092189 -4.491712,0.461968 -0.630355,-0.325967 -1.204057,-1.018641 -1.204057,-1.453746 0,-0.08704 0.680003,-0.09507 1.51112,-0.01789 1.998444,0.185735 2.81645,0.186195 5.219608,0.0032 1.692661,-0.129013 2.148345,-0.0824 2.840904,0.290572 1.101942,0.593422 1.137017,1.420281 0.0693,1.633821 -0.90203,0.180391 -0.909737,0.179932 -1.606631,-0.09999 z M 12.220863,24.61657 c 0.609504,-0.605439 1.142805,-0.881188 1.930202,-0.99804 l 1.088006,-0.16146 -0.955739,0.99804 c -0.810487,0.846348 -1.103839,0.998039 -1.930204,0.998039 h -0.974463 z m 7.756783,-0.02346 c -0.279093,-0.473013 -0.507441,-0.908215 -0.507441,-0.967112 0,-0.05887 0.545602,-0.107065 1.212449,-0.107065 1.108429,0 1.253553,0.06741 1.691551,0.785781 0.263505,0.432182 0.479506,0.867383 0.480004,0.967117 5.07e-4,0.09973 -0.532353,0.181334 -1.184109,0.181334 -1.10164,0 -1.220716,-0.06052 -1.692454,-0.860055 z m 4.811699,0.275361 c 0,-1.121105 0.230282,-1.349562 1.36026,-1.349562 1.037853,0 1.062798,0.01789 0.921053,0.664893 -0.26836,1.224732 -0.314277,1.26934 -1.306608,1.26934 -0.869708,0 -0.974705,-0.06299 -0.974705,-0.584671 z M 35.9138,23.484338 c 0.0014,-0.04748 0.164642,-0.620404 0.362669,-1.273208 0.198029,-0.652779 0.360053,-1.495984 0.360053,-1.873788 0,-0.647146 -0.05947,-0.686822 -1.027563,-0.685541 -2.437321,0.0032 -4.291579,1.227247 -4.291579,2.832975 0,0.781213 -0.01574,0.792358 -1.11964,0.792358 h -1.119641 l 0.137697,-0.848524 c 0.333661,-2.056112 2.167555,-3.370353 5.273624,-3.779225 1.114416,-0.146711 2.150939,-0.300144 2.303382,-0.34098 0.152441,-0.04081 0.35393,-0.63235 0.447749,-1.314505 0.241619,-1.756766 -0.18113,-2.182612 -2.152623,-2.168419 -0.810505,0.0058 -1.908848,0.167383 -2.440762,0.359017 -0.531914,0.191634 -0.994317,0.350047 -1.027562,0.352055 -0.03324,0.0024 -0.06045,-0.255029 -0.06045,-0.571203 0,-0.780124 0.375212,-1.03791 2.185712,-1.50174 2.741845,-0.70244 5.092421,-0.07776 5.518856,1.466681 0.127564,0.461992 0.193966,1.033025 0.14756,1.268955 -0.04642,0.235927 -0.327239,1.924971 -0.624079,3.753426 l -0.53971,3.324462 h -0.785714 c -0.432144,0 -0.957814,0.06603 -1.168158,0.146759 -0.210345,0.0807 -0.381265,0.107908 -0.379827,0.06045 z M 15.197086,21.355913 17.032603,19.434712 15.56339,16.822555 C 14.755323,15.38588 13.998177,14.107061 13.880842,13.980732 13.452805,13.519878 13.691578,13.364196 14.82644,13.364196 h 1.158932 l 1.299944,2.228672 1.299943,2.228696 2.110146,-2.24475 c 2.004122,-2.131984 2.155209,-2.240929 3.007023,-2.168252 l 0.896877,0.07653 -2.005986,2.17601 c -1.103295,1.196807 -2.268953,2.466075 -2.590352,2.82062 l -0.584363,0.644606 1.113808,1.980582 c 0.612592,1.089336 1.113806,2.023256 1.113806,2.075408 0,0.05216 -0.529547,0.09482 -1.176767,0.09482 -1.103984,0 -1.216138,-0.05951 -1.813345,-0.961944 -0.350115,-0.529061 -0.636575,-1.073063 -0.636575,-1.208896 0,-0.487353 -0.379358,-0.227344 -1.403644,0.962064 -0.966969,1.122847 -1.119652,1.208776 -2.147647,1.208776 h -1.106671 l 1.835517,-1.921227 z m 9.945341,1.377223 c 0.108323,-0.488951 0.390565,-2.051448 1.375746,-7.616042 l 0.310341,-1.752898 h 1.040143 c 0.953352,0 1.030044,0.04538 0.919086,0.544003 -0.124224,0.55822 -1.580605,9.103442 -1.580605,9.274114 0,0.05216 -0.491678,0.09482 -1.092613,0.09482 -1.007602,0 -1.083236,-0.04233 -0.972098,-0.544002 z m 2.172993,-12.08896 c 0.05121,-0.166223 0.15578,-0.589919 0.23238,-0.9415479 0.118183,-0.5425037 0.289004,-0.6536035 1.127988,-0.7336134 0.977885,-0.093256 0.987175,-0.086588 0.848038,0.6091019 -0.07737,0.3868656 -0.140678,0.8529914 -0.140678,1.0358384 0,0.232477 -0.324885,0.332445 -1.080417,0.332445 -0.752807,0 -1.052186,-0.09163 -0.987311,-0.302224 z" />
  <path
     inkscape:connector-curvature="0"
     style="fill:#8e8e8e;stroke:none;stroke-width:0.99999994"
     id="path4793"
     d="m 38.240611,29.261171 c 0.411133,-2.285949 2.219079,-4.403208 7.010257,-8.209681 4.096208,-3.254323 5.167061,-4.741821 5.167061,-7.17743 0,-1.50643 -0.79218,-2.555032 -2.220892,-2.939744 -1.366961,-0.368085 -2.875206,-0.07792 -5.541975,1.066222 l -0.872164,0.3742 0.196739,-1.016398 c 0.108217,-0.559014 0.201482,-1.083095 0.207273,-1.164626 0.01475,-0.2074551 2.272419,-0.8895383 3.971805,-1.1999486 2.436472,-0.4450446 4.856265,0.1507132 6.116897,1.5059916 1.871602,2.01212 1.170646,5.891271 -1.527746,8.454662 -0.64689,0.614528 -2.209769,1.907492 -3.473066,2.87323 -1.263295,0.965739 -2.664647,2.094943 -3.114114,2.509352 -0.908226,0.837377 -2.205027,2.730289 -2.205027,3.218611 0,0.247825 0.952572,0.315329 4.450279,0.315329 4.90834,0 4.493058,-0.151475 4.142836,1.511119 l -0.140056,0.664892 H 44.254 38.099284 Z m -1.064933,-3.575575 c -0.332173,-0.133413 -0.605083,-0.501643 -0.691297,-0.932711 l -0.14245,-0.712233 -1.504793,0.827127 c -1.690964,0.929472 -3.273011,1.092189 -4.491712,0.461968 -0.630355,-0.325967 -1.204057,-1.018641 -1.204057,-1.453746 0,-0.08704 0.680003,-0.09507 1.51112,-0.01789 1.998444,0.185735 2.81645,0.186195 5.219608,0.0032 1.692661,-0.129013 2.148345,-0.0824 2.840904,0.290572 1.101942,0.593422 1.137017,1.420281 0.0693,1.633821 -0.90203,0.180391 -0.909737,0.179932 -1.606631,-0.09999 z M 12.220863,24.61657 c 0.609504,-0.605439 1.142805,-0.881188 1.930202,-0.99804 l 1.088006,-0.16146 -0.955739,0.99804 c -0.810487,0.846348 -1.103839,0.998039 -1.930204,0.998039 h -0.974463 z m 7.756783,-0.02346 c -0.279093,-0.473013 -0.507441,-0.908215 -0.507441,-0.967112 0,-0.05887 0.545602,-0.107065 1.212449,-0.107065 1.108429,0 1.253553,0.06741 1.691551,0.785781 0.263505,0.432182 0.479506,0.867383 0.480004,0.967117 5.07e-4,0.09973 -0.532353,0.181334 -1.184109,0.181334 -1.10164,0 -1.220716,-0.06052 -1.692454,-0.860055 z m 4.811699,0.275361 c 0,-1.121105 0.230282,-1.349562 1.36026,-1.349562 1.037853,0 1.062798,0.01789 0.921053,0.664893 -0.26836,1.224732 -0.314277,1.26934 -1.306608,1.26934 -0.869708,0 -0.974705,-0.06299 -0.974705,-0.584671 z M 35.9138,23.484338 c 0.0014,-0.04748 0.164642,-0.620404 0.362669,-1.273208 0.198029,-0.652779 0.360053,-1.495984 0.360053,-1.873788 0,-0.647146 -0.05947,-0.686822 -1.027563,-0.685541 -2.437321,0.0032 -4.291579,1.227247 -4.291579,2.832975 0,0.781213 -0.01574,0.792358 -1.11964,0.792358 h -1.119641 l 0.137697,-0.848524 c 0.333661,-2.056112 2.167555,-3.370353 5.273624,-3.779225 1.114416,-0.146711 2.150939,-0.300144 2.303382,-0.34098 0.152441,-0.04081 0.35393,-0.63235 0.447749,-1.314505 0.241619,-1.756766 -0.18113,-2.182612 -2.152623,-2.168419 -0.810505,0.0058 -1.908848,0.167383 -2.440762,0.359017 -0.531914,0.191634 -0.994317,0.350047 -1.027562,0.352055 -0.03324,0.0024 -0.06045,-0.255029 -0.06045,-0.571203 0,-0.780124 0.375212,-1.03791 2.185712,-1.50174 2.741845,-0.70244 5.092421,-0.07776 5.518856,1.466681 0.127564,0.461992 0.193966,1.033025 0.14756,1.268955 -0.04642,0.235927 -0.327239,1.924971 -0.624079,3.753426 l -0.53971,3.324462 h -0.785714 c -0.432144,0 -0.957814,0.06603 -1.168158,0.146759 -0.210345,0.0807 -0.381265,0.107908 -0.379827,0.06045 z M 15.197086,21.355913 17.032603,19.434712 15.56339,16.822555 C 14.755323,15.38588 13.998177,14.107061 13.880842,13.980732 13.452805,13.519878 13.691578,13.364196 14.82644,13.364196 h 1.158932 l 1.299944,2.228672 1.299943,2.228696 2.110146,-2.24475 c 2.004122,-2.131984 2.155209,-2.240929 3.007023,-2.168252 l 0.896877,0.07653 -2.005986,2.17601 c -1.103295,1.196807 -2.268953,2.466075 -2.590352,2.82062 l -0.584363,0.644606 1.113808,1.980582 c 0.612592,1.089336 1.113806,2.023256 1.113806,2.075408 0,0.05216 -0.529547,0.09482 -1.176767,0.09482 -1.103984,0 -1.216138,-0.05951 -1.813345,-0.961944 -0.350115,-0.529061 -0.636575,-1.073063 -0.636575,-1.208896 0,-0.487353 -0.379358,-0.227344 -1.403644,0.962064 -0.966969,1.122847 -1.119652,1.208776 -2.147647,1.208776 h -1.106671 l 1.835517,-1.921227 z m 9.945341,1.377223 c 0.108323,-0.488951 0.390565,-2.051448 1.375746,-7.616042 l 0.310341,-1.752898 h 1.040143 c 0.953352,0 1.030044,0.04538 0.919086,0.544003 -0.124224,0.55822 -1.580605,9.103442 -1.580605,9.274114 0,0.05216 -0.491678,0.09482 -1.092613,0.09482 -1.007602,0 -1.083236,-0.04233 -0.972098,-0.544002 z m 2.172993,-12.08896 c 0.05121,-0.166223 0.15578,-0.589919 0.23238,-0.9415479 0.118183,-0.5425037 0.289004,-0.6536035 1.127988,-0.7336134 0.977885,-0.093256 0.987175,-0.086588 0.848038,0.6091019 -0.07737,0.3868656 -0.140678,0.8529914 -0.140678,1.0358384 0,0.232477 -0.324885,0.332445 -1.080417,0.332445 -0.752807,0 -1.052186,-0.09163 -0.987311,-0.302224 z" />
  <path
     inkscape:connector-curvature="0"
     style="fill:#737373;stroke:none;stroke-width:0.99999994"
     id="path4791"
     d="m 38.240611,29.261171 c 0.411133,-2.285949 2.219079,-4.403208 7.010257,-8.209681 4.096208,-3.254323 5.167061,-4.741821 5.167061,-7.17743 0,-1.50643 -0.79218,-2.555032 -2.220892,-2.939744 -1.366961,-0.368085 -2.875206,-0.07792 -5.541975,1.066222 l -0.872164,0.3742 0.196739,-1.016398 c 0.108217,-0.559014 0.201482,-1.083095 0.207273,-1.164626 0.01475,-0.2074551 2.272419,-0.8895383 3.971805,-1.1999486 2.436472,-0.4450446 4.856265,0.1507132 6.116897,1.5059916 1.871602,2.01212 1.170646,5.891271 -1.527746,8.454662 -0.64689,0.614528 -2.209769,1.907492 -3.473066,2.87323 -1.263295,0.965739 -2.664647,2.094943 -3.114114,2.509352 -0.908226,0.837377 -2.205027,2.730289 -2.205027,3.218611 0,0.247825 0.952572,0.315329 4.450279,0.315329 4.90834,0 4.493058,-0.151475 4.142836,1.511119 l -0.140056,0.664892 H 44.254 38.099284 Z m -1.264509,-3.845375 c -0.106888,-0.172945 -0.06632,-0.213516 0.106627,-0.106627 0.553935,0.342359 0.767507,-0.112523 0.392929,-0.836869 -0.346382,-0.669826 -0.340383,-0.711605 0.10219,-0.711605 0.736098,0 1.956818,0.800048 1.958508,1.283605 8.45e-4,0.24057 -0.107268,0.37014 -0.240252,0.287959 -0.132978,-0.08217 -0.24178,-0.03421 -0.24178,0.106627 0,0.347629 -1.861868,0.326957 -2.078209,-0.0232 z M 20.103225,24.711057 c -0.241095,-0.408123 -0.400555,-0.77906 -0.354353,-0.824273 0.0462,-0.04521 0.550635,-0.115477 1.120963,-0.156165 0.920397,-0.06565 1.090081,0.0066 1.509526,0.642939 0.259912,0.394316 0.473281,0.798524 0.474158,0.898257 8.71e-4,0.09973 -0.518951,0.181334 -1.155173,0.181334 -1.034692,0 -1.203024,-0.07832 -1.595121,-0.742092 z m 4.776787,-0.01354 c 0.08311,-0.41557 0.151112,-0.836822 0.151112,-0.93612 0,-0.09932 0.435204,-0.169172 0.967116,-0.155222 1.012811,0.02657 1.113584,0.187718 0.814727,1.302898 -0.120442,0.44942 -0.314275,0.544003 -1.114926,0.544003 -0.956488,0 -0.967169,-0.0098 -0.818029,-0.755559 z m 7.649966,0.09067 c -0.002,-0.299202 0.105096,-0.544004 0.238078,-0.544004 0.30293,0 0.30293,0.256578 0,0.725338 -0.189525,0.293254 -0.235083,0.258558 -0.238078,-0.181334 z m 3.260315,-0.78571 c 0.08217,-0.132978 0.197408,-0.241779 0.256049,-0.241779 0.05863,0 0.106627,0.10881 0.106627,0.241779 0,0.132978 -0.115217,0.241779 -0.256049,0.241779 -0.140826,0 -0.188805,-0.10881 -0.106627,-0.241779 z M 14.876402,23.105596 c 0.682752,-0.25104 1.208897,-0.870478 1.208897,-1.423233 0,-0.303989 0.108798,-0.619944 0.241779,-0.702126 0.132978,-0.08218 0.241778,-0.272172 0.241778,-0.422172 0,-0.150022 -0.353601,0.04577 -0.785782,0.435059 -0.46949,0.42292 -0.347843,0.22396 0.302225,-0.494269 0.598403,-0.661146 1.132541,-1.25851 1.186973,-1.327464 0.05442,-0.06896 0.02967,0.06753 -0.055,0.303313 -0.125213,0.348645 -0.07596,0.386169 0.263701,0.200894 0.229719,-0.125291 0.570561,-0.444319 0.757424,-0.708946 0.186862,-0.264626 0.486064,-0.424974 0.664891,-0.356358 0.199813,0.07667 0.326569,-0.04828 0.328845,-0.324201 0.0031,-0.378361 0.04057,-0.391949 0.238076,-0.08631 0.128907,0.199468 0.236041,0.25283 0.238078,0.118598 0.002,-0.134237 0.248502,-0.392167 0.547704,-0.573186 0.38893,-0.2353 0.321611,-0.09519 -0.236162,0.49156 l -0.780164,0.820696 0.431527,0.719607 c 0.23734,0.395791 0.786799,1.345234 1.221021,2.109861 l 0.789497,1.39023 h -1.212693 c -1.203481,0 -1.217848,-0.0093 -1.891531,-1.208655 -0.373362,-0.664747 -0.73733,-1.20875 -0.808818,-1.208894 -0.07148,-1.46e-4 -0.665801,0.54376 -1.320696,1.208653 -0.654895,0.664893 -1.35801,1.200312 -1.562476,1.189795 -0.324355,-0.01668 -0.325514,-0.03608 -0.0091,-0.152442 z m 10.609925,-1.795088 c 0.339285,-1.780196 0.393433,-1.894799 0.571167,-1.208896 0.107992,0.416754 0.291398,0.757735 0.407566,0.757735 0.245917,0 0.742078,1.317357 0.742078,1.970307 0,0.366609 -0.189349,0.447484 -1.047816,0.447484 h -1.047814 z m 10.707167,1.228939 c 0.141435,-0.405706 0.312043,-0.682786 0.379129,-0.615692 0.191784,0.19178 -0.161566,1.353383 -0.41169,1.353383 -0.131159,0 -0.117614,-0.30689 0.03257,-0.737691 z m 1.33111,-0.715764 c 0.03351,-0.92466 -0.05898,-1.557759 -0.254185,-1.740109 -0.168766,-0.15764 -0.256639,-0.549296 -0.195273,-0.870307 0.09807,-0.513031 0.04536,-0.562668 -0.435581,-0.410009 -0.373167,0.11842 -0.494552,0.08853 -0.381721,-0.09403 0.09099,-0.14722 0.315549,-0.267674 0.49902,-0.267674 0.368103,0 0.744733,-1.857323 0.537403,-2.65014 -0.06768,-0.2588 0.024,-0.665981 0.203751,-0.904857 0.283743,-0.377152 0.30805,-0.269368 0.184529,0.818083 -0.140775,1.239336 0.322349,3.541652 0.669295,3.327218 0.353996,-0.218786 0.405017,0.606746 0.147835,2.391945 -0.203334,1.41141 -0.357697,1.853333 -0.647367,1.853333 -0.30963,0 -0.370576,-0.270309 -0.327706,-1.453454 z m -10.29838,-0.380051 c 0.01163,-0.28165 0.06889,-0.338951 0.146074,-0.14606 0.06985,0.174541 0.06126,0.383075 -0.01909,0.463394 -0.08035,0.08035 -0.137484,-0.06244 -0.126986,-0.317334 z m 4.46937,-0.65515 c 0.0908,-0.238467 0.225987,-0.372654 0.30043,-0.298211 0.07444,0.07444 1.54e-4,0.269536 -0.165082,0.433535 -0.238787,0.237016 -0.266558,0.20926 -0.135348,-0.135324 z m 0.277067,-1.13803 c 0.06955,-0.265957 0.168166,-0.483559 0.219145,-0.483559 0.05098,0 0.09269,0.217602 0.09269,0.483559 0,0.265956 -0.09862,0.483558 -0.219145,0.483558 -0.120528,0 -0.16224,-0.217602 -0.09269,-0.483558 z m 3.154009,-0.604447 c 0.06356,-0.332448 0.211664,-0.604449 0.329141,-0.604449 0.249473,0 0.272884,0.289482 0.06683,0.82645 -0.23281,0.606696 -0.523262,0.443857 -0.395976,-0.222001 z m 3.286411,-0.893906 c 0.04459,-0.29219 0.207109,-0.573258 0.361151,-0.624613 0.30879,-0.102925 0.358638,0.186243 0.133322,0.773403 -0.219463,0.571905 -0.587557,0.461146 -0.494473,-0.14879 z M 27.690693,16.734838 c 0,-0.140836 0.10881,-0.188805 0.24178,-0.106627 0.132979,0.08217 0.24178,0.197414 0.24178,0.256046 0,0.05862 -0.10881,0.106627 -0.24178,0.106627 -0.132978,0 -0.24178,-0.115229 -0.24178,-0.256043 z m 7.616042,-2.161746 c -0.531913,-0.09524 -0.780128,-0.188614 -0.55159,-0.207471 0.513682,-0.04242 0.317858,-0.687064 -0.254777,-0.838732 -0.221389,-0.05862 -0.05783,-0.119221 0.363478,-0.134647 0.421306,-0.01547 0.965308,-0.09789 1.208896,-0.183268 0.418515,-0.146663 0.420185,-0.131092 0.03034,0.283026 -0.389877,0.414143 -0.384518,0.462548 0.09744,0.88056 0.280495,0.243254 0.411742,0.42686 0.291659,0.408002 -0.120081,-0.01888 -0.65353,-0.112227 -1.185444,-0.20747 z m -19.75033,-1.132277 c 0.174535,-0.06986 0.383069,-0.06127 0.463411,0.0191 0.08035,0.08035 -0.06245,0.137498 -0.317334,0.126981 -0.281659,-0.01163 -0.338951,-0.06887 -0.146077,-0.146058 z" />
  <path
     inkscape:connector-curvature="0"
     style="fill:#fe0202;stroke:none;stroke-width:0.99999994"
     id="path4789"
     d="m 38.240611,29.261171 c 0.411133,-2.285949 2.219079,-4.403208 7.010257,-8.209681 4.096208,-3.254323 5.167061,-4.741821 5.167061,-7.17743 0,-1.50643 -0.79218,-2.555032 -2.220892,-2.939744 -1.366961,-0.368085 -2.875206,-0.07792 -5.541975,1.066222 l -0.872164,0.3742 0.196739,-1.016398 c 0.108217,-0.559014 0.201482,-1.083095 0.207273,-1.164626 0.01475,-0.2074551 2.272419,-0.8895383 3.971805,-1.1999486 2.436472,-0.4450446 4.856265,0.1507132 6.116897,1.5059916 1.871602,2.01212 1.170646,5.891271 -1.527746,8.454662 -0.64689,0.614528 -2.209769,1.907492 -3.473066,2.87323 -1.263295,0.965739 -2.664647,2.094943 -3.114114,2.509352 -0.908226,0.837377 -2.205027,2.730289 -2.205027,3.218611 0,0.247825 0.952572,0.315329 4.450279,0.315329 4.90834,0 4.493058,-0.151475 4.142836,1.511119 l -0.140056,0.664892 H 44.254 38.099284 Z" />
  <text
     xml:space="preserve"
     style="font-style:normal;font-variant:normal;font-weight:normal;font-stretch:normal;font-size:4.67880344px;line-height:0%;font-family:'Bitstream Charter';-inkscape-font-specification:'Bitstream Charter';letter-spacing:0px;word-spacing:0px;fill:#000000;fill-opacity:1;stroke:none;stroke-width:0.99999988"
     x="0.46114025"
     y="56.503532"
     id="text3045"><tspan
       sodipodi:role="line"
       id="tspan3047"
       x="0.46114025"
       y="56.503532"
       style="font-style:normal;font-variant:normal;font-weight:normal;font-stretch:normal;font-size:7.01820564px;line-height:1.25;font-family:Georgia;-inkscape-font-specification:Georgia;stroke-width:0.99999988">🅼🆄🅻🆃🅸🅿🅻🅴🆇</tspan></text>
  <path
     inkscape:connector-curvature="0"
     id="path1908"
     d="M 60.16019,49.003321 V 45.95795 h -6.987094 v 3.045371"
     style="fill:none;stroke:#000000;stroke-width:0.66666675;stroke-linecap:round;stroke-linejoin:round;stroke-miterlimit:10;stroke-dasharray:none;stroke-opacity:1" />
  <path
     inkscape:connector-curvature="0"
     id="path1928"
     d="M 56.666643,45.95795 V 41.080944 H 46.186001 v 7.922377"
     style="fill:none;stroke:#000000;stroke-width:0.66666675;stroke-linecap:round;stroke-linejoin:round;stroke-miterlimit:10;stroke-dasharray:none;stroke-opacity:1" />
  <path
     inkscape:connector-curvature="0"
     id="path1966"
     d="m 39.198928,49.003321 v -3.027206 h -6.987095 v 3.027206"
     style="fill:none;stroke:#000000;stroke-width:0.66666675;stroke-linecap:round;stroke-linejoin:round;stroke-miterlimit:10;stroke-dasharray:none;stroke-opacity:1" />
  <path
     inkscape:connector-curvature="0"
     id="path1968"
     d="m 51.426311,41.080944 v -1.287477 h -15.72093 v 6.182648"
     style="fill:none;stroke:#000000;stroke-width:0.66666675;stroke-linecap:round;stroke-linejoin:round;stroke-miterlimit:10;stroke-dasharray:none;stroke-opacity:1" />
  <path
     inkscape:connector-curvature="0"
     id="path1984"
     d="M 43.565847,39.793467 V 35.815673 H 25.224738 v 13.187648"
     style="fill:none;stroke:#000000;stroke-width:0.66666675;stroke-linecap:round;stroke-linejoin:round;stroke-miterlimit:10;stroke-dasharray:none;stroke-opacity:1" />
  <path
     inkscape:connector-curvature="0"
     id="path2040"
     d="m 18.237644,49.003321 v -3.323914 h -6.987072 v 3.323914"
     style="fill:none;stroke:#000000;stroke-width:0.66666675;stroke-linecap:round;stroke-linejoin:round;stroke-miterlimit:10;stroke-dasharray:none;stroke-opacity:1" />
  <path
     inkscape:connector-curvature="0"
     id="path2068"
     d="m 14.744117,45.679407 v -3.32738 H 4.2634766 v 6.651294"
     style="fill:none;stroke:#000000;stroke-width:0.66666675;stroke-linecap:round;stroke-linejoin:round;stroke-miterlimit:10;stroke-dasharray:none;stroke-opacity:1"
     sodipodi:nodetypes="cccc" />
  <path
     inkscape:connector-curvature="0"
     id="path2070"
     d="M 34.395293,35.815673 V 27.432942 H 9.5037861 v 14.904792"
     style="fill:none;stroke:#000000;stroke-width:0.66666675;stroke-linecap:round;stroke-linejoin:round;stroke-miterlimit:10;stroke-dasharray:none;stroke-opacity:1"
     sodipodi:nodetypes="cccc" />
</svg>
