<?xml version="1.0" encoding="UTF-8" standalone="no"?>
<!-- Created with Inkscape (http://www.inkscape.org/) -->

<svg
   xmlns:dc="http://purl.org/dc/elements/1.1/"
   xmlns:cc="http://creativecommons.org/ns#"
   xmlns:rdf="http://www.w3.org/1999/02/22-rdf-syntax-ns#"
   xmlns:svg="http://www.w3.org/2000/svg"
   xmlns="http://www.w3.org/2000/svg"
   xmlns:xlink="http://www.w3.org/1999/xlink"
   xmlns:sodipodi="http://sodipodi.sourceforge.net/DTD/sodipodi-0.dtd"
   xmlns:inkscape="http://www.inkscape.org/namespaces/inkscape"
   version="1.1"
   width="64"
   height="64"
   id="svg2"
   inkscape:version="0.48.4 r9939"
   sodipodi:docname="xia2_xds.svg">
  <sodipodi:namedview
     pagecolor="#ffffff"
     bordercolor="#666666"
     borderopacity="1"
     objecttolerance="10"
     gridtolerance="10"
     guidetolerance="10"
     inkscape:pageopacity="0"
     inkscape:pageshadow="2"
     inkscape:window-width="1920"
     inkscape:window-height="1176"
     id="namedview6752"
     showgrid="false"
     inkscape:zoom="11.033203"
     inkscape:cx="68.528631"
     inkscape:cy="19.708299"
     inkscape:window-x="1920"
     inkscape:window-y="24"
     inkscape:window-maximized="1"
     inkscape:current-layer="svg2" />
  <defs
     id="defs4">
    <linearGradient
       id="linearGradient8391">
      <stop
         id="stop8393"
         style="stop-color:#c1c1c1;stop-opacity:1"
         offset="0" />
      <stop
         id="stop8395"
         style="stop-color:#f7f7f7;stop-opacity:1"
         offset="1" />
    </linearGradient>
    <marker
       refX="0"
       refY="0"
       orient="auto"
       id="Arrow1Mend"
       style="overflow:visible">
      <path
         d="M 0,0 5,-5 -12.5,0 5,5 0,0 z"
         transform="matrix(-0.4,0,0,-0.4,-4,0)"
         id="path5185"
         style="fill-rule:evenodd;stroke:#000000;stroke-width:1pt;marker-start:none" />
    </marker>
    <marker
       refX="0"
       refY="0"
       orient="auto"
       id="Arrow2Mend"
       style="overflow:visible">
      <path
         d="M 8.7185878,4.0337352 -2.2072895,0.01601326 8.7185884,-4.0017078 c -1.7454984,2.3720609 -1.7354408,5.6174519 -6e-7,8.035443 z"
         transform="scale(-0.6,-0.6)"
         id="path5203"
         style="font-size:12px;fill-rule:evenodd;stroke-width:0.625;stroke-linejoin:round" />
    </marker>
    <marker
       refX="0"
       refY="0"
       orient="auto"
       id="Arrow2Lend"
       style="overflow:visible">
      <path
         d="M 8.7185878,4.0337352 -2.2072895,0.01601326 8.7185884,-4.0017078 c -1.7454984,2.3720609 -1.7354408,5.6174519 -6e-7,8.035443 z"
         transform="matrix(-1.1,0,0,-1.1,-1.1,0)"
         id="path5197"
         style="font-size:12px;fill-rule:evenodd;stroke-width:0.625;stroke-linejoin:round" />
    </marker>
    <linearGradient
       id="linearGradient6799">
      <stop
         id="stop6801"
         style="stop-color:#000000;stop-opacity:1"
         offset="0" />
      <stop
         id="stop6803"
         style="stop-color:#000000;stop-opacity:0"
         offset="1" />
    </linearGradient>
    <linearGradient
       id="linearGradient6775">
      <stop
         id="stop6777"
         style="stop-color:#000000;stop-opacity:1"
         offset="0" />
      <stop
         id="stop6779"
         style="stop-color:#ffffff;stop-opacity:1"
         offset="1" />
    </linearGradient>
    <marker
       refX="0"
       refY="0"
       orient="auto"
       id="Arrow2Lstart"
       style="overflow:visible">
      <path
         d="M 8.7185878,4.0337352 -2.2072895,0.01601326 8.7185884,-4.0017078 c -1.7454984,2.3720609 -1.7354408,5.6174519 -6e-7,8.035443 z"
         transform="matrix(1.1,0,0,1.1,1.1,0)"
         id="path4334"
         style="font-size:12px;fill-rule:evenodd;stroke-width:0.625;stroke-linejoin:round" />
    </marker>
    <marker
       refX="0"
       refY="0"
       orient="auto"
       id="Arrow1Lend"
       style="overflow:visible">
      <path
         d="M 0,0 5,-5 -12.5,0 5,5 0,0 z"
         transform="matrix(-0.8,0,0,-0.8,-10,0)"
         id="path4319"
         style="fill-rule:evenodd;stroke:#000000;stroke-width:1pt;marker-start:none" />
    </marker>
    <linearGradient
       x1="421.16345"
       y1="68.845291"
       x2="631.55121"
       y2="68.845291"
       id="linearGradient6805"
       xlink:href="#linearGradient6799"
       gradientUnits="userSpaceOnUse" />
    <linearGradient
       x1="308.5"
       y1="522.60999"
       x2="327.78"
       y2="520.33002"
       id="linearGradient4583"
       xlink:href="#linearGradient6035"
       gradientUnits="userSpaceOnUse"
       gradientTransform="matrix(0.81256321,0,0,0.81256321,-228.8117,-369.08861)"
       spreadMethod="reflect" />
    <linearGradient
       id="linearGradient6035">
      <stop
         id="stop6037"
         style="stop-color:#ffffff;stop-opacity:1"
         offset="0" />
      <stop
         id="stop6039"
         style="stop-color:#ffffff;stop-opacity:0"
         offset="1" />
    </linearGradient>
    <linearGradient
       x1="308.61908"
       y1="522.19324"
       x2="327.66092"
       y2="519.73468"
       id="linearGradient4383"
       xlink:href="#linearGradient6035"
       gradientUnits="userSpaceOnUse"
       gradientTransform="translate(0,12)"
       spreadMethod="reflect" />
    <linearGradient
       id="linearGradient6402">
      <stop
         id="stop6404"
         style="stop-color:#ffffff;stop-opacity:1"
         offset="0" />
      <stop
         id="stop6406"
         style="stop-color:#ffffff;stop-opacity:0"
         offset="1" />
    </linearGradient>
    <linearGradient
       x1="287.69586"
       y1="529.23523"
       x2="287.58078"
       y2="512.51025"
       id="linearGradient4317"
       xlink:href="#linearGradient4319"
       gradientUnits="userSpaceOnUse"
       gradientTransform="matrix(0.96028721,0,0,0.96028721,-253.71595,-467.72891)"
       spreadMethod="pad" />
    <linearGradient
       x1="269.97"
       y1="511.97"
       x2="286.63"
       y2="511.97"
       id="linearGradient4319"
       gradientUnits="userSpaceOnUse"
       gradientTransform="matrix(1.1818,0,0,1.1818,-30.649,-69.394)"
       spreadMethod="reflect">
      <stop
         id="stop4321"
         style="stop-color:#87caee;stop-opacity:1"
         offset="0" />
      <stop
         id="stop4323"
         style="stop-color:#abceda;stop-opacity:1"
         offset="0.24713178" />
      <stop
         id="stop4325"
         style="stop-color:#1e9bcb;stop-opacity:1"
         offset="1" />
    </linearGradient>
    <linearGradient
       x1="308.5"
       y1="522.60999"
       x2="327.78"
       y2="520.33002"
       id="linearGradient6114"
       xlink:href="#linearGradient6035"
       gradientUnits="userSpaceOnUse"
       gradientTransform="matrix(0.81256321,0,0,0.81256321,-228.8117,-386.76193)"
       spreadMethod="reflect" />
    <linearGradient
       id="linearGradient6414">
      <stop
         id="stop6416"
         style="stop-color:#ffffff;stop-opacity:1"
         offset="0" />
      <stop
         id="stop6418"
         style="stop-color:#ffffff;stop-opacity:0"
         offset="1" />
    </linearGradient>
    <linearGradient
       x1="269.97"
       y1="511.97"
       x2="286.63"
       y2="511.97"
       id="linearGradient6110"
       gradientUnits="userSpaceOnUse"
       gradientTransform="matrix(1.203669,0,0,1.203669,-317.8861,411.94756)"
       spreadMethod="reflect">
      <stop
         id="stop5497"
         style="stop-color:#87caee;stop-opacity:1"
         offset="0" />
      <stop
         id="stop5501"
         style="stop-color:#abceda;stop-opacity:1"
         offset="0.20485" />
      <stop
         id="stop5499"
         style="stop-color:#1e9bcb;stop-opacity:1"
         offset="1" />
    </linearGradient>
    <linearGradient
       x1="269.97"
       y1="511.97"
       x2="286.63"
       y2="511.97"
       id="linearGradient6513"
       xlink:href="#linearGradient6110"
       gradientUnits="userSpaceOnUse"
       gradientTransform="matrix(0.96028721,0,0,0.96028721,-253.71595,-443.35204)"
       spreadMethod="reflect" />
    <linearGradient
       x1="306.96509"
       y1="741.81738"
       x2="309.99164"
       y2="438.77164"
       id="linearGradient8344"
       xlink:href="#linearGradient8391"
       gradientUnits="userSpaceOnUse"
       gradientTransform="matrix(0.11267658,0,0,0.11267658,-1.9835393,-29.915769)" />
    <linearGradient
       id="linearGradient8330">
      <stop
         id="stop8332"
         style="stop-color:#c0c0c0;stop-opacity:1"
         offset="0" />
      <stop
         id="stop8334"
         style="stop-color:#ffffff;stop-opacity:1"
         offset="1" />
    </linearGradient>
    <linearGradient
       x1="49.018143"
       y1="489.71555"
       x2="541.05945"
       y2="489.71555"
       id="linearGradient8336"
       xlink:href="#linearGradient8330"
       gradientUnits="userSpaceOnUse"
       gradientTransform="matrix(0.11267658,0,0,0.11267658,-1.9835393,-29.915769)" />
    <clipPath
       id="clipPath3110">
      <path
         d="m 4316.17,2425.75 c -79.22,0 -139.49,-21.05 -180.76,-63.13 -37.14,-38.82 -55.69,-92.86 -55.69,-162.19 l 0,-34.67 c 0,-71.82 19.17,-129.59 57.56,-173.33 38.36,-43.75 92.66,-65.62 162.81,-65.62 l 394.94,0 c 45.38,0 68.09,-18.99 68.09,-56.96 l 0,-45.79 c 0,-39.63 -22.71,-59.44 -68.09,-59.44 l -588.09,0 0,-170.85 597.99,0 c 157.64,0 236.47,78.82 236.47,236.49 l 0,50.74 c 0,80.05 -20.64,137.01 -61.9,170.86 -36.33,30.53 -95.33,45.79 -177.04,45.79 l -373.9,0 c -47.06,0 -70.58,21.86 -70.58,65.64 l 0,24.75 c 0,44.58 23.52,66.87 70.58,66.87 l 568.28,0 0,170.84 -580.67,0 z m -1039.82,0 0,-594.27 c 0,-75.94 19.82,-134.55 59.42,-175.8 39.63,-41.28 94.51,-61.91 164.66,-61.91 l 549.73,0 0,170.85 -537.32,0 c -38.81,0 -58.19,21.06 -58.19,63.14 l 0,597.99 -178.3,0 z m -814.64,-118.84 -307.04,-713.14 206.75,0 80.48,195.63 448.17,0 80.49,-195.63 206.75,0 -307.04,713.14 c -33.85,79.23 -101.94,118.84 -204.28,118.84 -102.35,0 -170.45,-39.61 -204.28,-118.84 m 165.9,-66.86 c 7.42,17.33 20.21,25.99 38.38,25.99 18.14,0 30.95,-8.66 38.39,-25.99 l 118.85,-287.23 -314.48,0 118.86,287.23 z m -753.98,-646.28 178.29,0 0,831.98 -178.29,0 0,-831.98 z m -1057.306,831.98 0,-831.98 637.606,0 c 70.16,0 127.11,23.53 170.86,70.56 43.73,47.06 65.62,108.53 65.62,184.48 l 0,321.91 c 0,75.93 -21.89,137.42 -65.62,184.46 -43.75,47.04 -100.7,70.57 -170.86,70.57 l -637.606,0 z m 178.293,-170.84 459.313,0 c 17.33,0 31.37,-6.21 42.11,-18.57 10.71,-12.39 16.08,-27.25 16.08,-44.58 l 0,-364 c 0,-17.33 -5.37,-32.18 -16.08,-44.54 -10.74,-12.42 -24.78,-18.6 -42.11,-18.6 l -459.313,0 0,490.29 z"
         id="path3112" />
    </clipPath>
    <clipPath
       id="clipPath3092">
      <path
         d="m 0,0 0,4020 5814,0 L 5814,0 0,0 z"
         id="path3094" />
    </clipPath>
    <clipPath
       id="clipPath3098">
      <path
         d="m 1974.14,2841.18 c -204.81,147.7 -456.28,234.72 -728.1,234.72 C 557.871,3075.9 0,2518.02 0,1829.86 0,1141.69 557.871,583.809 1246.04,583.809 c 330.33,0 630.63,128.543 857.07,344.211 C 2463.01,372.551 3090.2,0.0195313 3804.39,0.0195313 4914.34,0.0195313 5814.14,899.82 5814.14,2009.77 c 0,1109.94 -899.8,2009.73 -2009.75,2009.73 -813.42,0 -1514,-483.25 -1830.25,-1178.32"
         id="path3100" />
    </clipPath>
  </defs>
  <metadata
     id="metadata7">
    <rdf:RDF>
      <cc:Work
         rdf:about="">
        <dc:format>image/svg+xml</dc:format>
        <dc:type
           rdf:resource="http://purl.org/dc/dcmitype/StillImage" />
        <dc:title />
      </cc:Work>
    </rdf:RDF>
  </metadata>
  <path
     inkscape:connector-curvature="0"
     style="fill:#cfcfcf;stroke:none"
     id="path4801"
     d="m 39.028203,31.885284 c 0.0033,-1.658364 0.547039,-2.658905 2.654767,-4.885567 1.163585,-1.229237 3.362609,-3.21333 4.886719,-4.409053 3.036279,-2.382096 4.13736,-3.510872 4.91866,-5.042353 1.608543,-3.153005 0.359341,-5.732056 -2.77641,-5.732056 -1.189928,0 -3.413686,0.619628 -4.850714,1.351605 l -1.010875,0.51491 0.183463,-1.383021 c 0.100913,-0.76066 0.321985,-1.473335 0.49129,-1.583723 1.632244,-1.0642562 6.988603,-1.5847414 8.879012,-0.862787 3.786132,1.445936 4.282573,6.394158 1.005482,10.02204 -0.551923,0.611007 -2.464832,2.245263 -4.25091,3.631674 -3.37278,2.618041 -4.876747,4.084962 -5.577529,5.440122 l -0.411058,0.794916 4.812847,0 c 5.362518,0 4.982862,-0.153928 4.646097,1.8835 l -0.161028,0.974224 -6.720632,0 -6.720632,0 0.0015,-0.714431 z m -8.465432,-4.436385 c -2.312467,-1.454347 -1.565744,-5.003565 1.391315,-6.613009 0.898591,-0.48906 1.997643,-0.801124 3.473022,-0.986123 1.18713,-0.148861 2.207341,-0.319572 2.267135,-0.379376 0.05979,-0.05978 0.163596,-0.679853 0.23067,-1.377891 0.106622,-1.109629 0.04564,-1.322633 -0.485081,-1.694371 -0.800188,-0.560478 -1.905409,-0.536681 -3.899387,0.08391 -0.899637,0.279979 -1.683981,0.460795 -1.742988,0.401796 -0.059,-0.059 -0.03427,-0.496491 0.05496,-0.972172 0.200901,-1.070893 1.063719,-1.461908 3.699451,-1.676575 2.389298,-0.194612 3.515094,0.03037 4.355036,0.870307 0.873643,0.873659 0.878098,1.79421 0.03202,6.617633 -0.677388,3.861775 -0.627705,4.381855 0.418594,4.381855 0.786919,0 0.676022,1.501605 -0.125757,1.70284 -1.279186,0.321052 -2.343299,0.0226 -2.886656,-0.809671 l -0.519348,-0.795487 -1.255009,0.780159 c -1.632847,1.015038 -3.81264,1.217937 -5.007987,0.466172 z m 4.593266,-1.900386 c 1.260296,-0.423256 1.71782,-0.901976 1.905424,-1.993602 0.09048,-0.52647 0.231026,-1.291353 0.312326,-1.699722 l 0.147818,-0.742515 -1.39072,0.183569 c -2.001175,0.264159 -3.487069,0.980954 -3.970207,1.915249 -0.538378,1.041095 -0.514832,1.487731 0.111449,2.114014 0.584914,0.584899 1.5777,0.661667 2.883907,0.223007 z m -24.923029,1.858274 c 0.04763,-0.141276 1.413853,-1.664936 3.036054,-3.385962 l 2.949455,-3.12908 -1.845335,-3.201431 c -1.014934,-1.7608 -1.845334,-3.276693 -1.845334,-3.368686 0,-0.09197 0.634202,-0.167229 1.409338,-0.167229 l 1.409338,0 1.362016,2.380069 1.362015,2.380096 2.293397,-2.380096 c 2.141307,-2.222245 2.362392,-2.380069 3.333786,-2.380069 0.572214,0 1.040389,0.09459 1.040389,0.210224 0,0.115628 -1.227523,1.508022 -2.727828,3.094189 -1.500306,1.586194 -2.727387,3.040594 -2.726845,3.232036 5.45e-4,0.191442 0.818889,1.736119 1.818552,3.432595 0.999663,1.696502 1.817569,3.187064 1.817569,3.312363 0,0.125325 -0.636847,0.227839 -1.415214,0.227839 l -1.415214,0 -1.377562,-2.462372 c -0.75766,-1.354302 -1.443913,-2.464917 -1.525005,-2.468036 -0.08109,-0.0031 -1.17469,1.104953 -2.430217,2.462373 -2.229448,2.41036 -2.309959,2.468035 -3.446365,2.468035 -0.652037,0 -1.125517,-0.112932 -1.07699,-0.256858 z m 14.245326,0.12548 c 0,-0.207705 1.802116,-10.500814 2.103403,-12.013953 l 0.271574,-1.363915 1.135318,0 c 0.624424,0 1.181386,0.08768 1.237691,0.194845 0.112378,0.213888 -1.953269,12.167076 -2.22497,12.875117 -0.123981,0.323079 -0.479958,0.439284 -1.345794,0.439284 -0.647472,0 -1.177222,-0.05913 -1.177222,-0.131378 z M 27.33606,11.588936 c 0,-0.267911 0.07307,-0.852446 0.162369,-1.298966 0.155456,-0.777275 0.216815,-0.8118538 1.440635,-0.8118538 l 1.278264,0 -0.161909,0.9742248 c -0.265268,1.596132 -0.291457,1.623708 -1.542137,1.623708 -0.977867,0 -1.177222,-0.08249 -1.177222,-0.487113 z" />
  <path
     inkscape:connector-curvature="0"
     style="fill:#fe9c9c;stroke:none"
     id="path4799"
     d="m 39.137245,31.26217 c 0.109789,-0.827649 0.460969,-1.743784 0.921178,-2.403087 1.026209,-1.470221 3.817063,-4.129438 6.787177,-6.467005 3.960934,-3.117415 5.432557,-5.169028 5.429633,-7.569543 -0.0035,-2.933 -3.644209,-3.885829 -7.662534,-2.005422 -1.860692,0.870724 -1.844299,0.88205 -1.524426,-1.052718 0.149587,-0.904761 0.252275,-0.99353 1.750747,-1.513387 2.058318,-0.714082 5.460887,-0.9573218 7.073945,-0.5056918 3.399433,0.9517808 4.612854,4.5077008 2.790002,8.1760838 -0.860523,1.731755 -1.466761,2.341854 -5.284486,5.318123 -3.404141,2.653839 -5.129482,4.338754 -5.829984,5.693368 l -0.418397,0.8091 4.842343,0 4.842346,0 -0.184693,1.234017 c -0.101583,0.678709 -0.238659,1.321697 -0.304623,1.428863 -0.06596,0.107164 -3.109221,0.194844 -6.762797,0.194844 l -6.642861,0 0.17743,-1.337545 z m -8.034184,-3.689037 c -1.228093,-0.564244 -1.733065,-1.300266 -1.752013,-2.553689 -0.04415,-2.920543 2.991225,-5.149595 7.012363,-5.149595 1.48785,0 1.616601,-0.159045 1.693687,-2.092141 0.03176,-0.796499 -0.08701,-1.175044 -0.45257,-1.442345 -0.704422,-0.515093 -2.662798,-0.448481 -4.401455,0.149719 l -1.488539,0.51213 0.176272,-0.836872 c 0.233746,-1.109759 0.268086,-1.136465 2.059614,-1.602872 3.052409,-0.794604 5.512172,-0.328509 6.363021,1.205727 0.352133,0.634986 0.321722,1.104224 -0.329455,5.083685 -0.394568,2.41127 -0.64457,4.573918 -0.555557,4.805861 0.08901,0.23197 0.414997,0.457808 0.72441,0.501895 0.405508,0.05778 0.562569,0.261456 0.562569,0.72963 0,0.537485 -0.172386,0.692063 -0.999645,0.896337 -1.205793,0.297801 -2.331745,-0.205496 -2.460683,-1.09986 -0.04565,-0.31674 -0.13511,-0.575857 -0.198781,-0.575857 -0.06367,0 -0.736098,0.350097 -1.494284,0.777976 -1.645519,0.928683 -3.361758,1.194348 -4.458954,0.690271 z m 4.54638,-1.974584 c 0.642988,-0.114416 0.993709,-0.226358 0.77938,-0.248804 -0.33352,-0.03489 -0.329168,-0.08684 0.03018,-0.360464 0.374096,-0.284836 1.008991,-2.451668 1.008991,-3.443558 0,-0.501167 -1.330881,-0.493737 -3.050869,0.01714 -1.713016,0.508727 -2.753944,1.665664 -2.609768,2.900618 0.100347,0.859552 0.09713,0.862253 -1.081205,0.905794 -1.12933,0.04172 -1.11258,0.05134 0.376909,0.216123 2.229288,0.246621 3.218638,0.249505 4.546381,0.01324 z m 2.007986,-0.170217 c -0.08633,-0.08633 -0.310401,-0.09556 -0.497938,-0.02052 -0.207244,0.08292 -0.145687,0.144471 0.15696,0.156942 0.273863,0.01118 0.427305,-0.05012 0.340978,-0.136444 z m -26.558442,0.936347 c 0.876065,-0.897169 1.168944,-1.039173 2.143312,-1.039173 l 1.128587,0 -0.835102,1.039173 c -0.774876,0.964223 -0.929446,1.039172 -2.143312,1.039172 l -1.30821,0 1.014725,-1.039172 z m 8.440431,0.194845 c -0.283139,-0.464381 -0.515234,-0.925279 -0.515768,-1.024235 -5.45e-4,-0.09896 0.495883,-0.224669 1.103151,-0.279355 l 1.10412,-0.09945 -1.299412,-0.04538 c -1.259478,-0.044 -1.318472,-0.08131 -1.919602,-1.214456 -0.341105,-0.642988 -0.69651,-1.169068 -0.78979,-1.169068 -0.09328,0 -0.685911,0.52608 -1.316956,1.169068 -1.015196,1.034393 -1.278954,1.16907 -2.289857,1.16907 l -1.142503,0 1.846076,-2.04782 c 1.015342,-1.126308 1.846077,-2.124017 1.846077,-2.217127 0,-0.09313 -0.759895,-1.492772 -1.688656,-3.110296 -0.92876,-1.617524 -1.688746,-3.045634 -1.688857,-3.173555 -1.1e-4,-0.127949 0.555197,-0.221422 1.234018,-0.207757 l 1.234219,0.02486 1.20933,2.015813 c 0.665132,1.108693 1.329755,2.136228 1.476939,2.283401 0.183617,0.183621 0.934097,-0.436479 2.391107,-1.975727 2.070178,-2.186991 2.153598,-2.243315 3.322267,-2.243315 l 1.198769,0 -1.683617,1.753605 c -0.925989,0.964482 -2.249209,2.353466 -2.940488,3.086654 l -1.256872,1.333051 1.179128,2.04426 c 0.648519,1.124334 1.175768,2.1481 1.171663,2.275009 -0.0041,0.12691 0.09637,0.30227 0.223283,0.38969 0.126912,0.08742 0.497153,0.597342 0.822757,1.133167 l 0.59201,0.974224 -1.45387,0 c -1.361468,0 -1.486587,-0.05367 -1.968666,-0.844328 z m 5.177857,-0.129896 c 0.154261,-0.956351 0.180365,-0.975706 1.422356,-1.054814 1.210149,-0.07709 1.258214,-0.05448 1.104471,0.519587 -0.08841,0.330094 -0.162336,0.804761 -0.164286,1.054812 -0.0029,0.369894 -0.238003,0.454638 -1.261618,0.454638 l -1.25807,0 0.157147,-0.974223 z M 24.99792,24.92584 c 0,-0.07696 0.409174,-2.402463 0.909277,-5.167858 0.500101,-2.765368 0.909276,-5.099013 0.909276,-5.185862 0,-0.08688 0.526081,-0.157928 1.169069,-0.157928 0.642988,0 1.169069,0.09074 1.169069,0.201652 0,0.252908 -1.51606,9.071926 -1.695932,9.865334 -0.113238,0.499505 -0.301864,0.584535 -1.296638,0.584535 -0.640266,0 -1.164121,-0.06295 -1.164121,-0.139873 z m 2.490385,-14.083809 c 0.241886,-1.3405338 0.266261,-1.3639148 1.421845,-1.3639148 0.889616,0 1.023376,0.076626 1.020294,0.5845348 -0.0088,1.462878 -0.252153,1.753604 -1.467388,1.753604 l -1.150541,0 0.17579,-0.974224 z" />
  <path
     inkscape:connector-curvature="0"
     style="fill:#aeaeae;stroke:none"
     id="path4797"
     d="m 39.167176,31.365697 c 0.313766,-2.247704 2.158733,-4.459401 6.873992,-8.240353 3.800661,-3.047556 4.845095,-4.112812 5.611718,-5.72353 1.15873,-2.434574 0.689157,-4.545238 -1.183805,-5.321033 -1.16013,-0.480541 -3.76275,-0.212598 -5.714281,0.588302 -0.921834,0.378285 -1.708589,0.655302 -1.748346,0.615528 -0.03975,-0.03974 0.01619,-0.590978 0.124325,-1.224956 0.193637,-1.135239 0.22205,-1.162096 1.878241,-1.775362 1.329314,-0.4922242 2.225925,-0.628297 4.279564,-0.6494824 2.401047,-0.024757 2.691485,0.028195 3.832389,0.6988404 2.359384,1.386898 3.032141,4.323552 1.671392,7.29582 -0.792104,1.730196 -2.070048,3.045088 -5.503781,5.662894 -3.181381,2.425403 -6.105141,5.414609 -6.105141,6.241765 0,0.10787 2.133552,0.227994 4.741226,0.266938 l 4.741226,0.07082 -0.07386,1.039173 c -0.04063,0.571545 -0.124636,1.185307 -0.186693,1.363915 -0.0863,0.248387 -1.67596,0.32474 -6.761627,0.32474 l -6.648799,0 0.172261,-1.234017 z m -8.064115,-3.792564 c -1.228093,-0.564244 -1.733065,-1.300266 -1.752013,-2.553689 -0.04415,-2.920543 2.991225,-5.149595 7.012363,-5.149595 1.48785,0 1.616601,-0.159045 1.693687,-2.092141 0.03176,-0.796499 -0.08701,-1.175044 -0.45257,-1.442345 -0.704422,-0.515093 -2.662798,-0.448481 -4.401455,0.149719 l -1.488539,0.51213 0.176272,-0.836872 c 0.233746,-1.109759 0.268086,-1.136465 2.059614,-1.602872 3.052409,-0.794604 5.512172,-0.328508 6.363021,1.205727 0.352133,0.634986 0.321722,1.104224 -0.329455,5.083685 -0.394568,2.41127 -0.64457,4.573918 -0.555557,4.805861 0.08901,0.23197 0.414997,0.457808 0.72441,0.501895 0.405508,0.05778 0.562569,0.261456 0.562569,0.72963 0,0.537485 -0.172386,0.692063 -0.999645,0.896337 -1.205793,0.297801 -2.331745,-0.205496 -2.460683,-1.09986 -0.04565,-0.31674 -0.13511,-0.575857 -0.198781,-0.575857 -0.06367,0 -0.736098,0.350097 -1.494284,0.777976 -1.645519,0.928683 -3.361758,1.194348 -4.458954,0.690271 z m 4.54638,-1.974584 c 0.642988,-0.114416 0.993709,-0.226358 0.77938,-0.248804 -0.33352,-0.03489 -0.329168,-0.08684 0.03018,-0.360464 0.374096,-0.284836 1.008991,-2.451668 1.008991,-3.443558 0,-0.501167 -1.330881,-0.493737 -3.050869,0.01714 -1.713016,0.508727 -2.753944,1.665664 -2.609768,2.900618 0.100347,0.859552 0.09713,0.862253 -1.081205,0.905794 -1.12933,0.04172 -1.11258,0.05134 0.376909,0.216123 2.229288,0.246621 3.218638,0.249505 4.546381,0.01324 z m 2.007986,-0.170217 c -0.08633,-0.08633 -0.310401,-0.09556 -0.497938,-0.02052 -0.207244,0.08292 -0.145687,0.144471 0.15696,0.156942 0.273863,0.01118 0.427305,-0.05012 0.340978,-0.136444 z m -26.558442,0.936347 c 0.876065,-0.897169 1.168944,-1.039173 2.143312,-1.039173 l 1.128587,0 -0.835102,1.039173 c -0.774876,0.964223 -0.929446,1.039172 -2.143312,1.039172 l -1.30821,0 1.014725,-1.039172 z m 8.440431,0.194845 c -0.283139,-0.464381 -0.515234,-0.925279 -0.515768,-1.024235 -5.45e-4,-0.09896 0.495883,-0.224669 1.103151,-0.279355 l 1.10412,-0.09945 -1.299412,-0.04538 c -1.259478,-0.044 -1.318472,-0.08131 -1.919602,-1.214456 -0.341105,-0.642988 -0.69651,-1.169068 -0.78979,-1.169068 -0.09328,0 -0.685911,0.52608 -1.316956,1.169068 -1.015196,1.034393 -1.278954,1.16907 -2.289857,1.16907 l -1.142503,0 1.846076,-2.04782 c 1.015342,-1.126308 1.846077,-2.124017 1.846077,-2.217127 0,-0.09313 -0.759895,-1.492772 -1.688656,-3.110296 -0.92876,-1.617524 -1.688746,-3.045634 -1.688857,-3.173555 -1.1e-4,-0.127949 0.555197,-0.221422 1.234018,-0.207757 l 1.234219,0.02486 1.20933,2.015813 c 0.665132,1.108693 1.329755,2.136228 1.476939,2.283401 0.183617,0.183621 0.934097,-0.436479 2.391107,-1.975727 2.070178,-2.186991 2.153598,-2.243315 3.322267,-2.243315 l 1.198769,0 -1.683617,1.753605 c -0.925989,0.964482 -2.249209,2.353466 -2.940488,3.086654 l -1.256872,1.333051 1.179128,2.04426 c 0.648519,1.124334 1.175768,2.1481 1.171663,2.275009 -0.0041,0.12691 0.09637,0.30227 0.223283,0.38969 0.126912,0.08742 0.497153,0.597342 0.822757,1.133167 l 0.59201,0.974224 -1.45387,0 c -1.361468,0 -1.486587,-0.05367 -1.968666,-0.844328 z m 5.177857,-0.129896 c 0.154261,-0.956351 0.180365,-0.975706 1.422356,-1.054814 1.210149,-0.07709 1.258214,-0.05448 1.104471,0.519587 -0.08841,0.330094 -0.162336,0.804761 -0.164286,1.054812 -0.0029,0.369894 -0.238003,0.454638 -1.261618,0.454638 l -1.25807,0 0.157147,-0.974223 z M 24.99792,24.92584 c 0,-0.07696 0.409174,-2.402463 0.909277,-5.167858 0.500101,-2.765368 0.909276,-5.099013 0.909276,-5.185862 0,-0.08688 0.526081,-0.157928 1.169069,-0.157928 0.642988,0 1.169069,0.09074 1.169069,0.201652 0,0.252908 -1.51606,9.071926 -1.695932,9.865334 -0.113238,0.499505 -0.301864,0.584535 -1.296638,0.584535 -0.640266,0 -1.164121,-0.06295 -1.164121,-0.139873 z m 2.490385,-14.083809 c 0.241886,-1.3405338 0.266261,-1.3639148 1.421845,-1.3639148 0.889616,0 1.023376,0.076626 1.020294,0.5845348 -0.0088,1.462878 -0.252153,1.753604 -1.467388,1.753604 l -1.150541,0 0.17579,-0.974224 z" />
  <path
     inkscape:connector-curvature="0"
     style="fill:#fe6969;stroke:none"
     id="path4795"
     d="m 39.167176,31.365697 c 0.313766,-2.247704 2.158733,-4.459401 6.873992,-8.240353 3.800661,-3.047556 4.845095,-4.112812 5.611718,-5.72353 1.15873,-2.434574 0.689157,-4.545238 -1.183805,-5.321033 -1.16013,-0.480541 -3.76275,-0.212598 -5.714281,0.588302 -0.921834,0.378285 -1.708589,0.655302 -1.748346,0.615528 -0.03975,-0.03974 0.01619,-0.590978 0.124325,-1.224956 0.193637,-1.135239 0.22205,-1.162096 1.878241,-1.775362 1.329314,-0.4922242 2.225925,-0.628297 4.279564,-0.6494824 2.401047,-0.024757 2.691485,0.028195 3.832389,0.6988404 2.359384,1.386898 3.032141,4.323552 1.671392,7.29582 -0.792104,1.730196 -2.070048,3.045088 -5.503781,5.662894 -3.181381,2.425403 -6.105141,5.414609 -6.105141,6.241765 0,0.10787 2.133552,0.227994 4.741226,0.266938 l 4.741226,0.07082 -0.07386,1.039173 c -0.04063,0.571545 -0.124636,1.185307 -0.186693,1.363915 -0.0863,0.248387 -1.67596,0.32474 -6.761627,0.32474 l -6.648799,0 0.172261,-1.234017 z m -1.119854,-3.71208 C 37.6904,27.510263 37.397156,27.114598 37.304519,26.651412 l -0.153063,-0.765298 -1.616911,0.888753 c -1.816952,0.998723 -3.516871,1.173563 -4.826374,0.496387 -0.67732,-0.350254 -1.293766,-1.094536 -1.293766,-1.56206 0,-0.09352 0.730668,-0.102148 1.623708,-0.01922 2.14734,0.199573 3.026294,0.200067 5.608503,0.0034 1.818775,-0.138626 2.30841,-0.08854 3.052569,0.31222 1.184044,0.637636 1.221732,1.526102 0.07447,1.755552 -0.969237,0.193831 -0.977519,0.193338 -1.726336,-0.107446 z m -26.81411,-1.148676 c 0.654916,-0.650548 1.227951,-0.946842 2.074015,-1.0724 l 1.169069,-0.17349 -1.026948,1.0724 c -0.870873,0.909407 -1.186082,1.0724 -2.074016,1.0724 l -1.047067,0 0.904947,-0.89891 z m 8.334713,-0.0252 c -0.299887,-0.508255 -0.545248,-0.975883 -0.545248,-1.039168 0,-0.06326 0.586253,-0.11504 1.302784,-0.11504 1.191014,0 1.346951,0.07244 1.817582,0.844328 0.283138,0.464381 0.515233,0.932008 0.515768,1.039173 5.45e-4,0.107163 -0.572017,0.194845 -1.272333,0.194845 -1.18372,0 -1.311667,-0.06503 -1.818553,-0.924136 z m 5.170202,0.295878 c 0,-1.204635 0.24744,-1.450114 1.461608,-1.450114 1.11518,0 1.141984,0.01922 0.989678,0.714432 -0.288355,1.315983 -0.337693,1.363914 -1.403959,1.363914 -0.934507,0 -1.047327,-0.06768 -1.047327,-0.628232 z m 11.953298,-1.487264 c 0.0015,-0.05102 0.176909,-0.666629 0.38969,-1.368071 0.212784,-0.701415 0.386879,-1.607444 0.386879,-2.013398 0,-0.695362 -0.0639,-0.737994 -1.104122,-0.736617 -2.618918,0.0034 -4.611329,1.318685 -4.611329,3.044049 0,0.839418 -0.01692,0.851394 -1.203061,0.851394 l -1.203061,0 0.147956,-0.911744 c 0.358521,-2.209307 2.329052,-3.621466 5.666543,-4.060802 1.197447,-0.157642 2.311197,-0.322506 2.474999,-0.366385 0.163799,-0.04385 0.3803,-0.679464 0.48111,-1.412444 0.25962,-1.887657 -0.194626,-2.345231 -2.313009,-2.329981 -0.870891,0.0062 -2.051069,0.179854 -2.622614,0.385766 -0.571545,0.205912 -1.0684,0.376129 -1.104121,0.378285 -0.03572,0.0026 -0.06495,-0.274029 -0.06495,-0.613761 0,-0.838248 0.403168,-1.115241 2.348562,-1.613628 2.946131,-0.754777 5.47184,-0.08355 5.930047,1.575958 0.137068,0.496413 0.208417,1.109992 0.158554,1.363499 -0.04987,0.253505 -0.351621,2.068395 -0.670577,4.033081 l -0.579921,3.572156 -0.844255,0 c -0.464342,0 -1.029178,0.07095 -1.255194,0.157694 -0.226017,0.08672 -0.409672,0.115946 -0.408127,0.06495 z M 14.431182,23.001348 16.403458,20.937005 14.824779,18.130226 C 13.956505,16.586509 13.142947,15.21241 13.01687,15.076668 12.556941,14.581477 12.813504,14.414196 14.032921,14.414196 l 1.24528,0 1.396798,2.394722 1.396798,2.394748 2.267365,-2.411998 c 2.153442,-2.29083 2.315786,-2.407893 3.231066,-2.3298 l 0.9637,0.08223 -2.155446,2.338138 c -1.185497,1.285976 -2.438003,2.649813 -2.783349,3.030774 l -0.627902,0.692634 1.196793,2.128148 c 0.658235,1.170498 1.196792,2.174002 1.196792,2.230039 0,0.05604 -0.569,0.10189 -1.264443,0.10189 -1.186237,0 -1.306749,-0.06394 -1.94845,-1.033614 -0.376202,-0.568479 -0.684005,-1.153014 -0.684005,-1.298966 0,-0.523665 -0.407622,-0.244283 -1.508224,1.033743 -1.039015,1.206506 -1.203073,1.298837 -2.307661,1.298837 l -1.189126,0 1.972275,-2.06437 z m 10.686334,1.479834 c 0.116393,-0.52538 0.419664,-2.204293 1.478248,-8.183486 l 0.333463,-1.8835 1.117641,0 c 1.024383,0 1.106788,0.04876 0.987564,0.584535 -0.13348,0.59981 -1.698372,9.781707 -1.698372,9.965095 0,0.05604 -0.528309,0.10189 -1.174019,0.10189 -1.082675,0 -1.163944,-0.04549 -1.044525,-0.584535 z M 27.45241,11.491518 c 0.05502,-0.178609 0.167387,-0.633873 0.249695,-1.0117 0.126986,-0.5829244 0.310536,-0.7023016 1.21203,-0.7882726 1.050743,-0.100206 1.060726,-0.093037 0.911222,0.6544836 -0.08314,0.41569 -0.151159,0.916545 -0.151159,1.113015 0,0.249798 -0.349092,0.357215 -1.160916,0.357215 -0.808895,0 -1.130579,-0.09846 -1.060872,-0.324741 z" />
  <path
     inkscape:connector-curvature="0"
     style="fill:#8e8e8e;stroke:none"
     id="path4793"
     d="m 39.191599,31.495594 c 0.441766,-2.456266 2.384415,-4.731275 7.532566,-8.821355 4.401403,-3.496791 5.552041,-5.095116 5.552041,-7.712195 0,-1.618668 -0.851203,-2.745398 -2.386363,-3.158773 -1.468808,-0.39551 -3.089427,-0.08372 -5.954887,1.145662 l -0.937147,0.402081 0.211398,-1.092126 c 0.116275,-0.600665 0.216494,-1.163793 0.222716,-1.251398 0.01585,-0.222913 2.441729,-0.955816 4.26773,-1.2893537 2.618005,-0.4782037 5.218088,0.1619424 6.572645,1.6181977 2.011049,2.162036 1.257866,6.330209 -1.641573,9.084589 -0.695088,0.660315 -2.374411,2.049612 -3.731831,3.087304 -1.357419,1.037692 -2.863181,2.25103 -3.346136,2.696315 -0.975895,0.899768 -2.369315,2.933714 -2.369315,3.458419 0,0.266289 1.023544,0.338823 4.781853,0.338823 5.274043,0 4.82782,-0.162761 4.451504,1.623707 l -0.150492,0.714431 -6.613284,0 -6.613282,0 0.151857,-0.844328 z M 38.047322,27.653617 C 37.6904,27.510263 37.397156,27.114598 37.304519,26.651412 l -0.153063,-0.765298 -1.616911,0.888753 c -1.816952,0.998723 -3.516871,1.173563 -4.826374,0.496387 -0.67732,-0.350254 -1.293766,-1.094536 -1.293766,-1.56206 0,-0.09352 0.730668,-0.102148 1.623708,-0.01922 2.14734,0.199573 3.026294,0.200067 5.608503,0.0034 1.818775,-0.138626 2.30841,-0.08854 3.052569,0.31222 1.184044,0.637636 1.221732,1.526102 0.07447,1.755552 -0.969237,0.193831 -0.977519,0.193338 -1.726336,-0.107446 z m -26.81411,-1.148676 c 0.654916,-0.650548 1.227951,-0.946842 2.074015,-1.0724 l 1.169069,-0.17349 -1.026948,1.0724 c -0.870873,0.909407 -1.186082,1.0724 -2.074016,1.0724 l -1.047067,0 0.904947,-0.89891 z m 8.334713,-0.0252 c -0.299887,-0.508255 -0.545248,-0.975883 -0.545248,-1.039168 0,-0.06326 0.586253,-0.11504 1.302784,-0.11504 1.191014,0 1.346951,0.07244 1.817582,0.844328 0.283138,0.464381 0.515233,0.932008 0.515768,1.039173 5.45e-4,0.107163 -0.572017,0.194845 -1.272333,0.194845 -1.18372,0 -1.311667,-0.06503 -1.818553,-0.924136 z m 5.170202,0.295878 c 0,-1.204635 0.24744,-1.450114 1.461608,-1.450114 1.11518,0 1.141984,0.01922 0.989678,0.714432 -0.288355,1.315983 -0.337693,1.363914 -1.403959,1.363914 -0.934507,0 -1.047327,-0.06768 -1.047327,-0.628232 z m 11.953298,-1.487264 c 0.0015,-0.05102 0.176909,-0.666629 0.38969,-1.368071 0.212784,-0.701415 0.386879,-1.607444 0.386879,-2.013398 0,-0.695362 -0.0639,-0.737994 -1.104122,-0.736617 -2.618918,0.0034 -4.611329,1.318685 -4.611329,3.044049 0,0.839418 -0.01692,0.851394 -1.203061,0.851394 l -1.203061,0 0.147956,-0.911744 c 0.358521,-2.209307 2.329052,-3.621466 5.666543,-4.060802 1.197447,-0.157642 2.311197,-0.322506 2.474999,-0.366385 0.163799,-0.04385 0.3803,-0.679464 0.48111,-1.412444 0.25962,-1.887657 -0.194626,-2.345231 -2.313009,-2.329981 -0.870891,0.0062 -2.051069,0.179854 -2.622614,0.385766 -0.571545,0.205912 -1.0684,0.376129 -1.104121,0.378285 -0.03572,0.0026 -0.06495,-0.274029 -0.06495,-0.613761 0,-0.838248 0.403168,-1.115241 2.348562,-1.613628 2.946131,-0.754777 5.47184,-0.08355 5.930047,1.575958 0.137068,0.496413 0.208417,1.109992 0.158554,1.363499 -0.04987,0.253505 -0.351621,2.068395 -0.670577,4.033081 l -0.579921,3.572156 -0.844255,0 c -0.464342,0 -1.029178,0.07095 -1.255194,0.157694 -0.226017,0.08672 -0.409672,0.115946 -0.408127,0.06495 z M 14.431182,23.001348 16.403458,20.937005 14.824779,18.130226 C 13.956505,16.586509 13.142947,15.21241 13.01687,15.076668 12.556941,14.581477 12.813504,14.414196 14.032921,14.414196 l 1.24528,0 1.396798,2.394722 1.396798,2.394748 2.267365,-2.411998 c 2.153442,-2.29083 2.315786,-2.407893 3.231066,-2.3298 l 0.9637,0.08223 -2.155446,2.338138 c -1.185497,1.285976 -2.438003,2.649813 -2.783349,3.030774 l -0.627902,0.692634 1.196793,2.128148 c 0.658235,1.170498 1.196792,2.174002 1.196792,2.230039 0,0.05604 -0.569,0.10189 -1.264443,0.10189 -1.186237,0 -1.306749,-0.06394 -1.94845,-1.033614 -0.376202,-0.568479 -0.684005,-1.153014 -0.684005,-1.298966 0,-0.523665 -0.407622,-0.244283 -1.508224,1.033743 -1.039015,1.206506 -1.203073,1.298837 -2.307661,1.298837 l -1.189126,0 1.972275,-2.06437 z m 10.686334,1.479834 c 0.116393,-0.52538 0.419664,-2.204293 1.478248,-8.183486 l 0.333463,-1.8835 1.117641,0 c 1.024383,0 1.106788,0.04876 0.987564,0.584535 -0.13348,0.59981 -1.698372,9.781707 -1.698372,9.965095 0,0.05604 -0.528309,0.10189 -1.174019,0.10189 -1.082675,0 -1.163944,-0.04549 -1.044525,-0.584535 z M 27.45241,11.491518 c 0.05502,-0.178609 0.167387,-0.633873 0.249695,-1.0117 0.126986,-0.5829244 0.310536,-0.7023016 1.21203,-0.7882726 1.050743,-0.100206 1.060726,-0.093037 0.911222,0.6544836 -0.08314,0.41569 -0.151159,0.916545 -0.151159,1.113015 0,0.249798 -0.349092,0.357215 -1.160916,0.357215 -0.808895,0 -1.130579,-0.09846 -1.060872,-0.324741 z" />
  <path
     inkscape:connector-curvature="0"
     style="fill:#737373;stroke:none"
     id="path4791"
     d="m 39.191599,31.495594 c 0.441766,-2.456266 2.384415,-4.731275 7.532566,-8.821355 4.401403,-3.496791 5.552041,-5.095116 5.552041,-7.712195 0,-1.618668 -0.851203,-2.745398 -2.386363,-3.158773 -1.468808,-0.39551 -3.089427,-0.08372 -5.954887,1.145662 l -0.937147,0.402081 0.211398,-1.092126 c 0.116275,-0.600665 0.216494,-1.163793 0.222716,-1.251398 0.01585,-0.222913 2.441729,-0.955816 4.26773,-1.2893537 2.618005,-0.4782037 5.218088,0.1619424 6.572645,1.6181977 2.011049,2.162036 1.257866,6.330209 -1.641573,9.084589 -0.695088,0.660315 -2.374411,2.049612 -3.731831,3.087304 -1.357419,1.037692 -2.863181,2.25103 -3.346136,2.696315 -0.975895,0.899768 -2.369315,2.933714 -2.369315,3.458419 0,0.266289 1.023544,0.338823 4.781853,0.338823 5.274043,0 4.82782,-0.162761 4.451504,1.623707 l -0.150492,0.714431 -6.613284,0 -6.613282,0 0.151857,-0.844328 z m -1.358723,-4.13188 c -0.114851,-0.18583 -0.07127,-0.229424 0.114568,-0.114569 0.595207,0.367867 0.824691,-0.120907 0.422205,-0.899222 -0.37219,-0.719732 -0.365745,-0.764624 0.109801,-0.764624 0.790942,0 2.102613,0.859656 2.104428,1.379242 9.1e-4,0.258494 -0.115263,0.397718 -0.258151,0.309414 -0.142886,-0.0883 -0.259794,-0.03676 -0.259794,0.114569 0,0.373531 -2.000589,0.351318 -2.233049,-0.02493 z M 19.702861,26.606468 c -0.259059,-0.438531 -0.430399,-0.837105 -0.380755,-0.885686 0.04964,-0.04858 0.591661,-0.124078 1.204482,-0.167801 0.988973,-0.07054 1.171299,0.0071 1.621996,0.690842 0.279276,0.423696 0.508544,0.858019 0.509486,0.965183 9.35e-4,0.107164 -0.557617,0.194845 -1.241241,0.194845 -1.111784,0 -1.292658,-0.08415 -1.713968,-0.797383 z m 5.132688,-0.01455 c 0.0893,-0.446532 0.162371,-0.89917 0.162371,-1.005867 0,-0.106716 0.467629,-0.181777 1.039173,-0.166787 1.088271,0.02855 1.196552,0.201704 0.875429,1.399973 -0.129416,0.482905 -0.33769,0.584535 -1.197996,0.584535 -1.027752,0 -1.039228,-0.0106 -0.878977,-0.811854 z m 8.219938,0.09743 c -0.0022,-0.321494 0.112932,-0.584535 0.255816,-0.584535 0.3255,0 0.3255,0.275693 0,0.77938 -0.203645,0.315103 -0.252598,0.277822 -0.255816,-0.194845 z m 3.50323,-0.84425 c 0.0883,-0.142886 0.212116,-0.259794 0.275126,-0.259794 0.06301,0 0.114569,0.116911 0.114569,0.259794 0,0.142886 -0.123808,0.259793 -0.275127,0.259793 -0.151319,0 -0.202872,-0.116911 -0.114568,-0.259793 z M 14.086606,24.88139 c 0.733621,-0.269744 1.298967,-0.935334 1.298967,-1.529273 0,-0.326638 0.116911,-0.666135 0.259793,-0.754439 0.142886,-0.08831 0.259793,-0.29245 0.259793,-0.453626 0,-0.161201 -0.379947,0.04918 -0.844328,0.467472 -0.504471,0.454431 -0.373759,0.240647 0.324742,-0.531094 0.642988,-0.710405 1.216922,-1.352277 1.27541,-1.426369 0.05848,-0.07409 0.03189,0.07256 -0.0591,0.325911 -0.134542,0.374621 -0.08162,0.414941 0.283348,0.215862 0.246835,-0.134625 0.613071,-0.477422 0.813857,-0.761766 0.200785,-0.284343 0.522279,-0.456638 0.71443,-0.382909 0.2147,0.08238 0.3509,-0.05188 0.353345,-0.348356 0.0033,-0.406551 0.04359,-0.421152 0.255815,-0.09274 0.138511,0.214329 0.253628,0.271667 0.255816,0.12743 0.0022,-0.144238 0.267018,-0.421385 0.588512,-0.615892 0.417908,-0.252831 0.345572,-0.102278 -0.253757,0.528185 l -0.838292,0.881842 0.463678,0.773223 c 0.255023,0.425281 0.845421,1.445463 1.311996,2.267059 l 0.848319,1.493811 -1.303046,0 c -1.293149,0 -1.308586,-0.0099 -2.032463,-1.298707 -0.40118,-0.714275 -0.792266,-1.29881 -0.86908,-1.298965 -0.07681,-1.56e-4 -0.715408,0.584274 -1.419096,1.298706 -0.70369,0.714431 -1.45919,1.289743 -1.678891,1.278442 -0.348522,-0.01793 -0.349767,-0.03877 -0.0098,-0.163799 z m 11.400432,-1.928834 c 0.364564,-1.912833 0.422747,-2.035974 0.613724,-1.298967 0.11604,0.447806 0.313108,0.814192 0.437931,0.814192 0.26424,0 0.797367,1.415509 0.797367,2.117107 0,0.393924 -0.203456,0.480825 -1.125884,0.480825 l -1.125883,0 0.402745,-2.113157 z m 11.504921,1.320502 c 0.151973,-0.435933 0.335292,-0.733657 0.407376,-0.661564 0.206074,0.206069 -0.173604,1.454219 -0.442363,1.454219 -0.140932,0 -0.126375,-0.329756 0.03499,-0.792655 z m 1.430286,-0.769091 c 0.036,-0.993554 -0.06337,-1.673823 -0.273123,-1.869759 -0.181341,-0.169385 -0.27576,-0.590223 -0.209822,-0.935151 0.105386,-0.551255 0.04874,-0.60459 -0.468036,-0.440557 -0.40097,0.127247 -0.531399,0.09513 -0.410161,-0.10103 0.09777,-0.158189 0.339059,-0.287617 0.5362,-0.287617 0.395529,0 0.80022,-1.995706 0.577443,-2.847594 -0.07272,-0.278082 0.02579,-0.7156 0.218932,-0.972275 0.304883,-0.405252 0.331002,-0.289436 0.198278,0.879036 -0.151263,1.331674 0.346366,3.805528 0.719162,3.575118 0.380371,-0.235087 0.435194,0.651951 0.158849,2.57016 -0.218483,1.516569 -0.384348,1.991419 -0.6956,1.991419 -0.332699,0 -0.398186,-0.29045 -0.352122,-1.561747 z M 27.356569,23.095598 c 0.01247,-0.302634 0.07402,-0.364204 0.156958,-0.156942 0.07505,0.187545 0.06582,0.411616 -0.02051,0.49792 -0.08633,0.08633 -0.147728,-0.0671 -0.136448,-0.340978 z m 4.802367,-0.703962 c 0.09756,-0.256234 0.242825,-0.400419 0.322814,-0.32043 0.07999,0.07999 1.66e-4,0.289618 -0.177382,0.465836 -0.256577,0.254675 -0.286418,0.224851 -0.145432,-0.145406 z m 0.297711,-1.222821 c 0.07473,-0.285772 0.180695,-0.519587 0.235472,-0.519587 0.05478,0 0.09959,0.233815 0.09959,0.519587 0,0.285772 -0.105963,0.519587 -0.235472,0.519587 -0.129509,0 -0.174329,-0.233815 -0.09959,-0.519587 z m 3.389003,-0.649483 c 0.06829,-0.357216 0.227434,-0.649483 0.353664,-0.649483 0.26806,0 0.293215,0.31105 0.07181,0.888025 -0.250157,0.651899 -0.562249,0.476928 -0.425479,-0.238542 z m 3.53127,-0.960507 c 0.04791,-0.31396 0.22254,-0.61597 0.388058,-0.67115 0.331798,-0.110589 0.385359,0.200119 0.143256,0.831026 C 39.67242,20.333216 39.2769,20.214205 39.37692,19.558825 z M 27.855645,18.035969 c 0,-0.151329 0.116911,-0.202872 0.259793,-0.114568 0.142887,0.0883 0.259794,0.212122 0.259794,0.275122 0,0.06299 -0.116911,0.114568 -0.259794,0.114568 -0.142885,0 -0.259793,-0.123818 -0.259793,-0.27512 z m 8.183486,-2.32281 c -0.571545,-0.102337 -0.838254,-0.202666 -0.592687,-0.222929 0.551954,-0.04557 0.34154,-0.738255 -0.27376,-0.901223 -0.237884,-0.06299 -0.06213,-0.128104 0.39056,-0.144679 0.452696,-0.01662 1.037229,-0.105186 1.298966,-0.196923 0.449697,-0.15759 0.451492,-0.140859 0.0326,0.304113 -0.418925,0.445 -0.413167,0.497012 0.104703,0.946168 0.301394,0.261378 0.44242,0.458664 0.313391,0.4384 -0.129029,-0.02028 -0.702223,-0.120595 -1.273768,-0.222927 z M 14.817274,14.49652 c 0.187539,-0.07506 0.41161,-0.06583 0.497938,0.02052 0.08633,0.08633 -0.06711,0.147743 -0.340978,0.136443 -0.302644,-0.01247 -0.364204,-0.07401 -0.15696,-0.156941 z" />
  <path
     inkscape:connector-curvature="0"
     style="fill:#fe0202;stroke:none"
     id="path4789"
     d="m 39.191599,31.495594 c 0.441766,-2.456266 2.384415,-4.731275 7.532566,-8.821355 4.401403,-3.496791 5.552041,-5.095116 5.552041,-7.712195 0,-1.618668 -0.851203,-2.745398 -2.386363,-3.158773 -1.468808,-0.39551 -3.089427,-0.08372 -5.954887,1.145662 l -0.937147,0.402081 0.211398,-1.092126 c 0.116275,-0.600665 0.216494,-1.163793 0.222716,-1.251398 0.01585,-0.222913 2.441729,-0.955816 4.26773,-1.2893537 2.618005,-0.4782037 5.218088,0.1619424 6.572645,1.6181977 2.011049,2.162036 1.257866,6.330209 -1.641573,9.084589 -0.695088,0.660315 -2.374411,2.049612 -3.731831,3.087304 -1.357419,1.037692 -2.863181,2.25103 -3.346136,2.696315 -0.975895,0.899768 -2.369315,2.933714 -2.369315,3.458419 0,0.266289 1.023544,0.338823 4.781853,0.338823 5.274043,0 4.82782,-0.162761 4.451504,1.623707 l -0.150492,0.714431 -6.613284,0 -6.613282,0 0.151857,-0.844328 z" />
  <text
     xml:space="preserve"
     style="font-size:14px;font-style:normal;font-variant:normal;font-weight:normal;font-stretch:normal;line-height:125%;letter-spacing:0px;word-spacing:0px;fill:#000000;fill-opacity:1;stroke:none;font-family:Bitstream Charter;-inkscape-font-specification:Bitstream Charter"
     x="14.320411"
     y="47.957516"
     id="text3045"
     sodipodi:linespacing="125%"><tspan
       sodipodi:role="line"
       id="tspan3047"
       x="14.320411"
       y="47.957516"
       style="font-size:18px;font-style:normal;font-variant:normal;font-weight:normal;font-stretch:normal;font-family:Georgia;-inkscape-font-specification:Georgia">XDS</tspan></text>
</svg>
