<?xml version="1.0" encoding="UTF-8" standalone="no"?>
<!-- Created with Inkscape (http://www.inkscape.org/) -->

<svg
   xmlns:dc="http://purl.org/dc/elements/1.1/"
   xmlns:cc="http://creativecommons.org/ns#"
   xmlns:rdf="http://www.w3.org/1999/02/22-rdf-syntax-ns#"
   xmlns:svg="http://www.w3.org/2000/svg"
   xmlns="http://www.w3.org/2000/svg"
   xmlns:sodipodi="http://sodipodi.sourceforge.net/DTD/sodipodi-0.dtd"
   xmlns:inkscape="http://www.inkscape.org/namespaces/inkscape"
   version="1.1"
   width="613.69983"
   height="626.57825"
   id="svg2"
   inkscape:version="0.48.2 r9819"
   sodipodi:docname="furanose_pseudorotational.svg"
   inkscape:export-filename="/Users/jon/Desktop/Dropbox/articles/CCN/furanose_pseudorotational.png"
   inkscape:export-xdpi="298.07001"
   inkscape:export-ydpi="298.07001">
  <sodipodi:namedview
     pagecolor="#ffffff"
     bordercolor="#666666"
     borderopacity="1"
     objecttolerance="10"
     gridtolerance="10"
     guidetolerance="10"
     inkscape:pageopacity="0"
     inkscape:pageshadow="2"
     inkscape:window-width="1248"
     inkscape:window-height="724"
     id="namedview3437"
     showgrid="false"
     inkscape:zoom="0.84905597"
     inkscape:cx="239.71653"
     inkscape:cy="355.29491"
     inkscape:window-x="0"
     inkscape:window-y="0"
     inkscape:window-maximized="0"
     inkscape:current-layer="layer1" />
  <defs
     id="defs4">
    <marker
       refX="0"
       refY="0"
       orient="auto"
       id="Arrow2Lend"
       style="overflow:visible">
      <path
         d="M 8.7185878,4.0337352 -2.2072895,0.01601326 8.7185884,-4.0017078 c -1.7454984,2.3720609 -1.7354408,5.6174519 -6e-7,8.035443 z"
         transform="matrix(-1.1,0,0,-1.1,-1.1,0)"
         id="path4228"
         style="font-size:12px;fill-rule:evenodd;stroke-width:0.625;stroke-linejoin:round" />
    </marker>
    <marker
       refX="0"
       refY="0"
       orient="auto"
       id="Arrow1Lstart"
       style="overflow:visible">
      <path
         d="M 0,0 5,-5 -12.5,0 5,5 0,0 z"
         transform="matrix(0.8,0,0,0.8,10,0)"
         id="path4207"
         style="fill-rule:evenodd;stroke:#000000;stroke-width:1pt;marker-start:none" />
    </marker>
    <marker
       refX="0"
       refY="0"
       orient="auto"
       id="Arrow1Lend"
       style="overflow:visible">
      <path
         d="M 0,0 5,-5 -12.5,0 5,5 0,0 z"
         transform="matrix(-0.8,0,0,-0.8,-10,0)"
         id="path4210"
         style="fill-rule:evenodd;stroke:#000000;stroke-width:1pt;marker-start:none" />
    </marker>
  </defs>
  <metadata
     id="metadata7">
    <rdf:RDF>
      <cc:Work
         rdf:about="">
        <dc:format>image/svg+xml</dc:format>
        <dc:type
           rdf:resource="http://purl.org/dc/dcmitype/StillImage" />
        <dc:title></dc:title>
      </cc:Work>
    </rdf:RDF>
  </metadata>
  <g
     transform="translate(-51.056623,-61.749332)"
     id="layer1">
    <path
       d="M 259.92185,263.74571 128.37033,284.58142 67.902738,165.90708 162.08323,71.72659 l 118.67434,60.4676 z"
       transform="matrix(0.28862708,0.04479256,-0.04478575,0.28868144,313.61491,41.047026)"
       id="path2989"
       style="opacity:0.84482757;fill:none;stroke:#000000;stroke-width:6.98370743;stroke-linejoin:round;stroke-miterlimit:4;stroke-opacity:1;stroke-dasharray:none;stroke-dashoffset:0" />
    <path
       d="m 645.71428,375.93362 a 240.71428,240.71428 0 1 1 -0.21749,-10.23033"
       transform="translate(-47.5,1)"
       id="path3761"
       style="opacity:0.84482757;fill:none;stroke:none" />
    <path
       d="M 259.92185,263.74571 128.37033,284.58142 67.902738,165.90708 162.08323,71.72659 l 118.67434,60.4676 z"
       transform="matrix(0.28862708,0.04479256,-0.04478575,0.28868144,314.26547,599.40417)"
       id="path3765"
       style="opacity:0.84482757;fill:none;stroke:#000000;stroke-width:6.98370743;stroke-linejoin:round;stroke-miterlimit:4;stroke-opacity:1;stroke-dasharray:none;stroke-dashoffset:0" />
    <path
       d="M 259.92185,263.74571 128.37033,284.58142 67.902738,165.90708 162.08323,71.72659 l 118.67434,60.4676 z"
       transform="matrix(0.28862708,0.04479256,-0.04478575,0.28868144,39.908327,316.90417)"
       id="path3767"
       style="opacity:0.84482757;fill:none;stroke:#000000;stroke-width:6.98370743;stroke-linejoin:round;stroke-miterlimit:4;stroke-opacity:1;stroke-dasharray:none;stroke-dashoffset:0" />
    <path
       d="M 259.92185,263.74571 128.37033,284.58142 67.902738,165.90708 162.08323,71.72659 l 118.67434,60.4676 z"
       transform="matrix(0.28862708,0.04479256,-0.04478575,0.28868144,588.62261,319.26131)"
       id="path3769"
       style="opacity:0.84482757;fill:none;stroke:#000000;stroke-width:6.98370743;stroke-linejoin:round;stroke-miterlimit:4;stroke-opacity:1;stroke-dasharray:none;stroke-dashoffset:0" />
    <path
       d="M 259.92185,263.74571 128.37033,284.58142 67.902738,165.90708 162.08323,71.72659 l 118.67434,60.4676 z"
       transform="matrix(0.28862708,0.04479256,-0.04478575,0.28868144,222.61491,56.547026)"
       id="path3787"
       style="opacity:0.84482757;fill:none;stroke:#000000;stroke-width:6.98370743;stroke-linejoin:round;stroke-miterlimit:4;stroke-opacity:1;stroke-dasharray:none;stroke-dashoffset:0" />
    <path
       d="M 259.92185,263.74571 128.37033,284.58142 67.902738,165.90708 162.08323,71.72659 l 118.67434,60.4676 z"
       transform="matrix(0.28862708,0.04479256,-0.04478575,0.28868144,406.61491,57.547026)"
       id="path3789"
       style="opacity:0.84482757;fill:none;stroke:#000000;stroke-width:6.98370743;stroke-linejoin:round;stroke-miterlimit:4;stroke-opacity:1;stroke-dasharray:none;stroke-dashoffset:0" />
    <path
       d="M 259.92185,263.74571 128.37033,284.58142 67.902738,165.90708 162.08323,71.72659 l 118.67434,60.4676 z"
       transform="matrix(0.28862708,0.04479256,-0.04478575,0.28868144,484.11491,98.047026)"
       id="path3795"
       style="opacity:0.84482757;fill:none;stroke:#000000;stroke-width:6.98370743;stroke-linejoin:round;stroke-miterlimit:4;stroke-opacity:1;stroke-dasharray:none;stroke-dashoffset:0" />
    <path
       d="M 259.92185,263.74571 128.37033,284.58142 67.902738,165.90708 162.08323,71.72659 l 118.67434,60.4676 z"
       transform="matrix(0.28862708,0.04479256,-0.04478575,0.28868144,144.61491,97.975597)"
       id="path3797"
       style="opacity:0.84482757;fill:none;stroke:#000000;stroke-width:6.98370743;stroke-linejoin:round;stroke-miterlimit:4;stroke-opacity:1;stroke-dasharray:none;stroke-dashoffset:0" />
    <path
       d="M 259.92185,263.74571 128.37033,284.58142 67.902738,165.90708 162.08323,71.72659 l 118.67434,60.4676 z"
       transform="matrix(0.28862708,0.04479256,-0.04478575,0.28868144,538.8292,160.33274)"
       id="path3801"
       style="opacity:0.84482757;fill:none;stroke:#000000;stroke-width:6.98370743;stroke-linejoin:round;stroke-miterlimit:4;stroke-opacity:1;stroke-dasharray:none;stroke-dashoffset:0" />
    <path
       d="M 259.92185,263.74571 128.37033,284.58142 67.902738,165.90708 162.08323,71.72659 l 118.67434,60.4676 z"
       transform="matrix(0.28862708,0.04479256,-0.04478575,0.28868144,89.11491,160.4756)"
       id="path3803"
       style="opacity:0.84482757;fill:none;stroke:#000000;stroke-width:6.98370743;stroke-linejoin:round;stroke-miterlimit:4;stroke-opacity:1;stroke-dasharray:none;stroke-dashoffset:0" />
    <path
       d="M 259.92185,263.74571 128.37033,284.58142 67.902738,165.90708 162.08323,71.72659 l 118.67434,60.4676 z"
       transform="matrix(0.28862708,0.04479256,-0.04478575,0.28868144,578.3292,244.83274)"
       id="path3805"
       style="opacity:0.84482757;fill:none;stroke:#000000;stroke-width:6.98370743;stroke-linejoin:round;stroke-miterlimit:4;stroke-opacity:1;stroke-dasharray:none;stroke-dashoffset:0" />
    <path
       d="M 259.92185,263.74571 128.37033,284.58142 67.902738,165.90708 162.08323,71.72659 l 118.67434,60.4676 z"
       transform="matrix(0.28862708,0.04479256,-0.04478575,0.28868144,51.472057,243.40417)"
       id="path3807"
       style="opacity:0.84482757;fill:none;stroke:#000000;stroke-width:6.98370743;stroke-linejoin:round;stroke-miterlimit:4;stroke-opacity:1;stroke-dasharray:none;stroke-dashoffset:0" />
    <path
       d="M 259.92185,263.74571 128.37033,284.58142 67.902738,165.90708 162.08323,71.72659 l 118.67434,60.4676 z"
       transform="matrix(0.28862708,0.04479256,-0.04478575,0.28868144,577.3292,399.83274)"
       id="path3809"
       style="opacity:0.84482757;fill:none;stroke:#000000;stroke-width:6.98370743;stroke-linejoin:round;stroke-miterlimit:4;stroke-opacity:1;stroke-dasharray:none;stroke-dashoffset:0" />
    <path
       d="M 259.92185,263.74571 128.37033,284.58142 67.902738,165.90708 162.08323,71.72659 l 118.67434,60.4676 z"
       transform="matrix(0.28862708,0.04479256,-0.04478575,0.28868144,50.472057,398.40417)"
       id="path3811"
       style="opacity:0.84482757;fill:none;stroke:#000000;stroke-width:6.98370743;stroke-linejoin:round;stroke-miterlimit:4;stroke-opacity:1;stroke-dasharray:none;stroke-dashoffset:0" />
    <path
       d="M 259.92185,263.74571 128.37033,284.58142 67.902738,165.90708 162.08323,71.72659 l 118.67434,60.4676 z"
       transform="matrix(0.28862708,0.04479256,-0.04478575,0.28868144,538.8292,472.83274)"
       id="path3813"
       style="opacity:0.84482757;fill:none;stroke:#000000;stroke-width:6.98370743;stroke-linejoin:round;stroke-miterlimit:4;stroke-opacity:1;stroke-dasharray:none;stroke-dashoffset:0" />
    <path
       d="M 259.92185,263.74571 128.37033,284.58142 67.902738,165.90708 162.08323,71.72659 l 118.67434,60.4676 z"
       transform="matrix(0.28862708,0.04479256,-0.04478575,0.28868144,89.11491,472.9756)"
       id="path3815"
       style="opacity:0.84482757;fill:none;stroke:#000000;stroke-width:6.98370743;stroke-linejoin:round;stroke-miterlimit:4;stroke-opacity:1;stroke-dasharray:none;stroke-dashoffset:0" />
    <path
       d="M 259.92185,263.74571 128.37033,284.58142 67.902738,165.90708 162.08323,71.72659 l 118.67434,60.4676 z"
       transform="matrix(0.28862708,0.04479256,-0.04478575,0.28868144,484.11491,533.04703)"
       id="path3817"
       style="opacity:0.84482757;fill:none;stroke:#000000;stroke-width:6.98370743;stroke-linejoin:round;stroke-miterlimit:4;stroke-opacity:1;stroke-dasharray:none;stroke-dashoffset:0" />
    <path
       d="M 259.92185,263.74571 128.37033,284.58142 67.902738,165.90708 162.08323,71.72659 l 118.67434,60.4676 z"
       transform="matrix(0.28862708,0.04479256,-0.04478575,0.28868144,144.61491,532.9756)"
       id="path3819"
       style="opacity:0.84482757;fill:none;stroke:#000000;stroke-width:6.98370743;stroke-linejoin:round;stroke-miterlimit:4;stroke-opacity:1;stroke-dasharray:none;stroke-dashoffset:0" />
    <path
       d="M 259.92185,263.74571 128.37033,284.58142 67.902738,165.90708 162.08323,71.72659 l 118.67434,60.4676 z"
       transform="matrix(0.28862708,0.04479256,-0.04478575,0.28868144,220.61491,577.54703)"
       id="path3821"
       style="opacity:0.84482757;fill:none;stroke:#000000;stroke-width:6.98370743;stroke-linejoin:round;stroke-miterlimit:4;stroke-opacity:1;stroke-dasharray:none;stroke-dashoffset:0" />
    <path
       d="M 259.92185,263.74571 128.37033,284.58142 67.902738,165.90708 162.08323,71.72659 l 118.67434,60.4676 z"
       transform="matrix(0.28862708,0.04479256,-0.04478575,0.28868144,408.11491,577.04703)"
       id="path3823"
       style="opacity:0.84482757;fill:none;stroke:#000000;stroke-width:6.98370743;stroke-linejoin:round;stroke-miterlimit:4;stroke-opacity:1;stroke-dasharray:none;stroke-dashoffset:0" />
    <path
       d="m -97.142855,251.6479 a 6.4285712,6.4285712 0 1 1 -12.857145,0 6.4285712,6.4285712 0 1 1 12.857145,0 z"
       transform="translate(460.5,-181.5)"
       id="path3863"
       style="opacity:0.84482757;fill:none;stroke:#000000;stroke-width:3.94000006;stroke-linejoin:round;stroke-miterlimit:4;stroke-opacity:1;stroke-dasharray:none;stroke-dashoffset:0" />
    <path
       d="m -97.142855,251.6479 a 6.4285712,6.4285712 0 1 1 -12.857145,0 6.4285712,6.4285712 0 1 1 12.857145,0 z"
       transform="translate(553.5,-165.5)"
       id="path3865"
       style="opacity:0.84482757;fill:none;stroke:#000000;stroke-width:3.94000006;stroke-linejoin:round;stroke-miterlimit:4;stroke-opacity:1;stroke-dasharray:none;stroke-dashoffset:0" />
    <path
       d="m -97.142855,251.6479 a 6.4285712,6.4285712 0 1 1 -12.857145,0 6.4285712,6.4285712 0 1 1 12.857145,0 z"
       transform="translate(584,-143.5)"
       id="path3867"
       style="opacity:0.84482757;fill:none;stroke:#000000;stroke-width:3.94000006;stroke-linejoin:round;stroke-miterlimit:4;stroke-opacity:1;stroke-dasharray:1.97000003, 1.97000003;stroke-dashoffset:2.36400003" />
    <path
       d="m -97.142855,251.6479 a 6.4285712,6.4285712 0 1 1 -12.857145,0 6.4285712,6.4285712 0 1 1 12.857145,0 z"
       transform="translate(661.92857,-102.64286)"
       id="path3869"
       style="opacity:0.84482757;fill:none;stroke:#000000;stroke-width:3.94000006;stroke-linejoin:round;stroke-miterlimit:4;stroke-opacity:1;stroke-dasharray:1.97000003, 1.97000003;stroke-dashoffset:3.54600005" />
    <path
       d="m -97.142855,251.6479 a 6.4285712,6.4285712 0 1 1 -12.857145,0 6.4285712,6.4285712 0 1 1 12.857145,0 z"
       transform="translate(716.21428,-41.214289)"
       id="path3871"
       style="opacity:0.84482757;fill:none;stroke:#000000;stroke-width:3.94000006;stroke-linejoin:round;stroke-miterlimit:4;stroke-opacity:1;stroke-dasharray:1.97000003, 1.97000003;stroke-dashoffset:3.54600005" />
    <path
       d="m -97.142855,251.6479 a 6.4285712,6.4285712 0 1 1 -12.857145,0 6.4285712,6.4285712 0 1 1 12.857145,0 z"
       transform="translate(705.42857,-4.0714284)"
       id="path3873"
       style="opacity:0.84482757;fill:none;stroke:#000000;stroke-width:3.94000006;stroke-linejoin:round;stroke-miterlimit:4;stroke-opacity:1;stroke-dasharray:none;stroke-dashoffset:0" />
    <path
       d="m -97.142855,251.6479 a 6.4285712,6.4285712 0 1 1 -12.857145,0 6.4285712,6.4285712 0 1 1 12.857145,0 z"
       transform="translate(744.71428,79.5)"
       id="path3875"
       style="opacity:0.84482757;fill:none;stroke:#000000;stroke-width:3.94000006;stroke-linejoin:round;stroke-miterlimit:4;stroke-opacity:1;stroke-dasharray:none;stroke-dashoffset:0" />
    <path
       d="m -97.142855,251.6479 a 6.4285712,6.4285712 0 1 1 -12.857145,0 6.4285712,6.4285712 0 1 1 12.857145,0 z"
       transform="translate(754.71428,154)"
       id="path3877"
       style="opacity:0.84482757;fill:none;stroke:#000000;stroke-width:3.94000006;stroke-linejoin:round;stroke-miterlimit:4;stroke-opacity:1;stroke-dasharray:none;stroke-dashoffset:0" />
    <path
       d="m -97.142855,251.6479 a 6.4285712,6.4285712 0 1 1 -12.857145,0 6.4285712,6.4285712 0 1 1 12.857145,0 z"
       transform="translate(715.42857,154.5)"
       id="path3879"
       style="opacity:0.84482757;fill:none;stroke:#000000;stroke-width:3.94000006;stroke-linejoin:round;stroke-miterlimit:4;stroke-opacity:1;stroke-dasharray:1.97000003, 1.97000003;stroke-dashoffset:3.54600005" />
    <path
       d="m -97.142855,251.6479 a 6.4285712,6.4285712 0 1 1 -12.857145,0 6.4285712,6.4285712 0 1 1 12.857145,0 z"
       transform="translate(705.42857,235)"
       id="path3881"
       style="opacity:0.84482757;fill:none;stroke:#000000;stroke-width:3.94000006;stroke-linejoin:round;stroke-miterlimit:4;stroke-opacity:1;stroke-dasharray:1.97000003, 1.97000003;stroke-dashoffset:3.54600005" />
    <path
       d="m -97.142855,251.6479 a 6.4285712,6.4285712 0 1 1 -12.857145,0 6.4285712,6.4285712 0 1 1 12.857145,0 z"
       transform="translate(666.85714,308)"
       id="path3883"
       style="opacity:0.84482757;fill:none;stroke:#000000;stroke-width:3.94000006;stroke-linejoin:round;stroke-miterlimit:4;stroke-opacity:1;stroke-dasharray:1.97000003, 1.97000003;stroke-dashoffset:3.54600005" />
    <path
       d="m -97.142855,251.6479 a 6.4285712,6.4285712 0 1 1 -12.857145,0 6.4285712,6.4285712 0 1 1 12.857145,0 z"
       transform="translate(655.64285,271.92857)"
       id="path3885"
       style="opacity:0.84482757;fill:none;stroke:#000000;stroke-width:3.94000006;stroke-linejoin:round;stroke-miterlimit:4;stroke-opacity:1;stroke-dasharray:none;stroke-dashoffset:0" />
    <path
       d="m -97.142855,251.6479 a 6.4285712,6.4285712 0 1 1 -12.857145,0 6.4285712,6.4285712 0 1 1 12.857145,0 z"
       transform="translate(601.14285,331.92857)"
       id="path3887"
       style="opacity:0.84482757;fill:none;stroke:#000000;stroke-width:3.94000006;stroke-linejoin:round;stroke-miterlimit:4;stroke-opacity:1;stroke-dasharray:none;stroke-dashoffset:0" />
    <path
       d="m -97.142855,251.6479 a 6.4285712,6.4285712 0 1 1 -12.857145,0 6.4285712,6.4285712 0 1 1 12.857145,0 z"
       transform="translate(525.14285,375.92857)"
       id="path3889"
       style="opacity:0.84482757;fill:none;stroke:#000000;stroke-width:3.94000006;stroke-linejoin:round;stroke-miterlimit:4;stroke-opacity:1;stroke-dasharray:none;stroke-dashoffset:0" />
    <path
       d="m -97.142855,251.6479 a 6.4285712,6.4285712 0 1 1 -12.857145,0 6.4285712,6.4285712 0 1 1 12.857145,0 z"
       transform="translate(555,353.92857)"
       id="path3891"
       style="opacity:0.84482757;fill:none;stroke:#000000;stroke-width:3.94000006;stroke-linejoin:round;stroke-miterlimit:4;stroke-opacity:1;stroke-dasharray:1.97000003, 1.97000003;stroke-dashoffset:3.54600005" />
    <path
       d="m -97.142855,251.6479 a 6.4285712,6.4285712 0 1 1 -12.857145,0 6.4285712,6.4285712 0 1 1 12.857145,0 z"
       transform="translate(461.5,375.92857)"
       id="path3893"
       style="opacity:0.84482757;fill:none;stroke:#000000;stroke-width:3.94000006;stroke-linejoin:round;stroke-miterlimit:4;stroke-opacity:1;stroke-dasharray:1.97000003, 1.97000003;stroke-dashoffset:3.54600005" />
    <path
       d="m -97.142855,251.6479 a 6.4285712,6.4285712 0 1 1 -12.857145,0 6.4285712,6.4285712 0 1 1 12.857145,0 z"
       transform="translate(368.21429,354.28571)"
       id="path3895"
       style="opacity:0.84482757;fill:none;stroke:#000000;stroke-width:3.94000006;stroke-linejoin:round;stroke-miterlimit:4;stroke-opacity:1;stroke-dasharray:1.97000003, 1.97000003;stroke-dashoffset:3.54600005" />
    <path
       d="m -97.142855,251.6479 a 6.4285712,6.4285712 0 1 1 -12.857145,0 6.4285712,6.4285712 0 1 1 12.857145,0 z"
       transform="translate(397.99999,376.28571)"
       id="path3897"
       style="opacity:0.84482757;fill:none;stroke:#000000;stroke-width:3.94000006;stroke-linejoin:round;stroke-miterlimit:4;stroke-opacity:1;stroke-dasharray:none;stroke-dashoffset:0" />
    <path
       d="m -97.142855,251.6479 a 6.4285712,6.4285712 0 1 1 -12.857145,0 6.4285712,6.4285712 0 1 1 12.857145,0 z"
       transform="translate(322.21428,332.07142)"
       id="path3899"
       style="opacity:0.84482757;fill:none;stroke:#000000;stroke-width:3.94000006;stroke-linejoin:round;stroke-miterlimit:4;stroke-opacity:1;stroke-dasharray:none;stroke-dashoffset:0" />
    <path
       d="m -97.142855,251.6479 a 6.4285712,6.4285712 0 1 1 -12.857145,0 6.4285712,6.4285712 0 1 1 12.857145,0 z"
       transform="translate(255.78572,307.5)"
       id="path3901"
       style="opacity:0.84482757;fill:none;stroke:#000000;stroke-width:3.94000006;stroke-linejoin:round;stroke-miterlimit:4;stroke-opacity:1;stroke-dasharray:1.97000003, 1.97000003;stroke-dashoffset:3.54600005" />
    <path
       d="m -97.142855,251.6479 a 6.4285712,6.4285712 0 1 1 -12.857145,0 6.4285712,6.4285712 0 1 1 12.857145,0 z"
       transform="translate(266.71428,271.57142)"
       id="path3903"
       style="opacity:0.84482757;fill:none;stroke:#000000;stroke-width:3.94000006;stroke-linejoin:round;stroke-miterlimit:4;stroke-opacity:1;stroke-dasharray:none;stroke-dashoffset:0" />
    <path
       d="m -97.142855,251.6479 a 6.4285712,6.4285712 0 1 1 -12.857145,0 6.4285712,6.4285712 0 1 1 12.857145,0 z"
       transform="translate(215.78572,234.35714)"
       id="path3905"
       style="opacity:0.84482757;fill:none;stroke:#000000;stroke-width:3.94000006;stroke-linejoin:round;stroke-miterlimit:4;stroke-opacity:1;stroke-dasharray:1.97000003, 1.97000003;stroke-dashoffset:3.54600005" />
    <path
       d="m -97.142855,251.6479 a 6.4285712,6.4285712 0 1 1 -12.857145,0 6.4285712,6.4285712 0 1 1 12.857145,0 z"
       transform="translate(206.28572,152.85714)"
       id="path3907"
       style="opacity:0.84482757;fill:none;stroke:#000000;stroke-width:3.94000006;stroke-linejoin:round;stroke-miterlimit:4;stroke-opacity:1;stroke-dasharray:1.97000003, 1.97000003;stroke-dashoffset:3.54600005" />
    <path
       d="m -97.142855,251.6479 a 6.4285712,6.4285712 0 1 1 -12.857145,0 6.4285712,6.4285712 0 1 1 12.857145,0 z"
       transform="translate(167.99999,152.49999)"
       id="path3909"
       style="opacity:0.84482757;fill:none;stroke:#000000;stroke-width:3.94000006;stroke-linejoin:round;stroke-miterlimit:4;stroke-opacity:1;stroke-dasharray:none;stroke-dashoffset:0" />
    <path
       d="m -97.142855,251.6479 a 6.4285712,6.4285712 0 1 1 -12.857145,0 6.4285712,6.4285712 0 1 1 12.857145,0 z"
       transform="translate(179.42856,78.928561)"
       id="path3911"
       style="opacity:0.84482757;fill:none;stroke:#000000;stroke-width:3.94000006;stroke-linejoin:round;stroke-miterlimit:4;stroke-opacity:1;stroke-dasharray:none;stroke-dashoffset:0" />
    <path
       d="m -97.142855,251.6479 a 6.4285712,6.4285712 0 1 1 -12.857145,0 6.4285712,6.4285712 0 1 1 12.857145,0 z"
       transform="translate(217.07142,-3.8571534)"
       id="path3913"
       style="opacity:0.84482757;fill:none;stroke:#000000;stroke-width:3.94000006;stroke-linejoin:round;stroke-miterlimit:4;stroke-opacity:1;stroke-dasharray:none;stroke-dashoffset:0" />
    <path
       d="m -97.142855,251.6479 a 6.4285712,6.4285712 0 1 1 -12.857145,0 6.4285712,6.4285712 0 1 1 12.857145,0 z"
       transform="translate(205.57143,-40.714289)"
       id="path3915"
       style="opacity:0.84482757;fill:none;stroke:#000000;stroke-width:3.94000006;stroke-linejoin:round;stroke-miterlimit:4;stroke-opacity:1;stroke-dasharray:1.97000003, 1.97000003;stroke-dashoffset:3.54600005" />
    <path
       d="m -97.142855,251.6479 a 6.4285712,6.4285712 0 1 1 -12.857145,0 6.4285712,6.4285712 0 1 1 12.857145,0 z"
       transform="translate(260.85714,-103.07143)"
       id="path3917"
       style="opacity:0.84482757;fill:none;stroke:#000000;stroke-width:3.94000006;stroke-linejoin:round;stroke-miterlimit:4;stroke-opacity:1;stroke-dasharray:1.97000003, 1.97000003;stroke-dashoffset:3.54600005" />
    <path
       d="m -97.142855,251.6479 a 6.4285712,6.4285712 0 1 1 -12.857145,0 6.4285712,6.4285712 0 1 1 12.857145,0 z"
       transform="translate(369.21428,-166.00001)"
       id="path3919"
       style="opacity:0.84482757;fill:none;stroke:#000000;stroke-width:3.94000006;stroke-linejoin:round;stroke-miterlimit:4;stroke-opacity:1;stroke-dasharray:none;stroke-dashoffset:0" />
    <path
       d="m -97.142855,251.6479 a 6.4285712,6.4285712 0 1 1 -12.857145,0 6.4285712,6.4285712 0 1 1 12.857145,0 z"
       transform="translate(338.85714,-144.57143)"
       id="path3921"
       style="opacity:0.84482757;fill:none;stroke:#000000;stroke-width:3.94000006;stroke-linejoin:round;stroke-miterlimit:4;stroke-opacity:1;stroke-dasharray:1.97000003, 1.97000003;stroke-dashoffset:3.54600005" />
    <text
       x="454.51813"
       y="44.656658"
       transform="matrix(0.91030396,0.41394045,-0.41394045,0.91030396,0,0)"
       id="text3145"
       xml:space="preserve"
       style="font-size:61.54498672px;font-style:normal;font-weight:normal;line-height:125%;letter-spacing:0px;word-spacing:0px;fill:#000000;fill-opacity:1;stroke:none;font-family:Sans"
       sodipodi:linespacing="125%"><tspan
         x="454.51813"
         y="44.656658"
         id="tspan3147"
         style="font-size:27.69524384px;font-family:Lucida Sans;-inkscape-font-specification:Lucida Sans">  Phi</tspan></text>
    <path
       d="M 412.9751,7.8681045 A 215.54247,240.41631 0 0 1 573.65776,86.5675"
       transform="matrix(0.44465537,0,0,0.53043968,200.81049,240.94409)"
       id="path4202"
       style="fill:none;stroke:#000000;stroke-width:3.15860695;stroke-miterlimit:4;stroke-opacity:1;stroke-dasharray:none;marker-start:none;marker-mid:none;marker-end:url(#Arrow1Lstart)" />
    <text
       x="340.52692"
       y="335.84024"
       id="text6504"
       xml:space="preserve"
       style="font-size:40px;font-style:normal;font-weight:normal;line-height:125%;letter-spacing:0px;word-spacing:0px;fill:#000000;fill-opacity:1;stroke:none;font-family:Sans"><tspan
         x="340.52692"
         y="335.84024"
         id="tspan6506"
         style="font-weight:bold;fill:#000000;fill-opacity:1;stroke:#000000;stroke-width:0.2;stroke-miterlimit:4;stroke-opacity:1;stroke-dasharray:none;-inkscape-font-specification:Sans Bold" /></text>
    <text
       x="311.63205"
       y="409.90515"
       id="text6518"
       xml:space="preserve"
       style="font-size:40px;font-style:normal;font-weight:normal;line-height:125%;letter-spacing:0px;word-spacing:0px;fill:#000000;fill-opacity:1;stroke:none;font-family:Sans"><tspan
         x="311.63205"
         y="409.90515"
         id="tspan6520" /></text>
    <g
       transform="translate(0.5,-12)"
       id="g6742">
      <path
         d="M 259.92185,263.74571 128.37033,284.58142 67.902738,165.90708 162.08323,71.72659 l 118.67434,60.4676 z"
         transform="matrix(0.44508794,0.069074,-0.0690635,0.44517176,290.90913,268.75708)"
         id="path6502"
         style="opacity:0.84482757;fill:none;stroke:#000000;stroke-width:6.98370743;stroke-linejoin:round;stroke-miterlimit:4;stroke-opacity:1;stroke-dasharray:none;stroke-dashoffset:0" />
      <text
         x="411.13211"
         y="355.59802"
         id="text6510"
         xml:space="preserve"
         style="font-size:40px;font-style:normal;font-weight:normal;line-height:125%;letter-spacing:0px;word-spacing:0px;fill:#000000;fill-opacity:1;stroke:none;font-family:Sans"><tspan
           x="411.13211"
           y="355.59802"
           id="tspan6512"
           style="font-size:28px">1</tspan></text>
      <text
         x="393.45444"
         y="420.62595"
         id="text6514"
         xml:space="preserve"
         style="font-size:40px;font-style:normal;font-weight:normal;line-height:125%;letter-spacing:0px;word-spacing:0px;fill:#000000;fill-opacity:1;stroke:none;font-family:Sans"><tspan
           x="393.45444"
           y="420.62595"
           id="tspan6516"
           style="font-size:28px">2</tspan></text>
      <text
         x="305.20316"
         y="420.11072"
         id="text6522"
         xml:space="preserve"
         style="font-size:40px;font-style:normal;font-weight:normal;line-height:125%;letter-spacing:0px;word-spacing:0px;fill:#000000;fill-opacity:1;stroke:none;font-family:Sans"><tspan
           x="305.20316"
           y="420.11072"
           id="tspan6524"
           style="font-size:28px">3</tspan></text>
      <text
         x="288.03055"
         y="354.04218"
         id="text6528"
         xml:space="preserve"
         style="font-size:40px;font-style:normal;font-weight:normal;line-height:125%;letter-spacing:0px;word-spacing:0px;fill:#000000;fill-opacity:1;stroke:none;font-family:Sans"><tspan
           x="288.03055"
           y="354.04218"
           id="tspan6530"
           style="font-size:28px">4</tspan></text>
      <text
         x="346.50772"
         y="306.20715"
         id="text6532"
         xml:space="preserve"
         style="font-size:40px;font-style:normal;font-weight:normal;line-height:125%;letter-spacing:0px;word-spacing:0px;fill:#000000;fill-opacity:1;stroke:none;font-family:Sans"><tspan
           x="346.50772"
           y="306.20715"
           id="tspan6534"
           style="font-size:28px">O</tspan></text>
    </g>
    <g
       transform="translate(3,-19)"
       id="g6755">
      <path
         d="m -97.142855,251.6479 a 6.4285712,6.4285712 0 1 1 -12.857145,0 6.4285712,6.4285712 0 1 1 12.857145,0 z"
         transform="matrix(1.5953394,0,0,1.5953394,422.16014,58.969809)"
         id="path6536"
         style="opacity:0.84482757;fill:none;stroke:#000000;stroke-width:3.94000006;stroke-linejoin:round;stroke-miterlimit:4;stroke-opacity:1;stroke-dasharray:none;stroke-dashoffset:0" />
      <path
         d="m -97.142855,251.6479 a 6.4285712,6.4285712 0 1 1 -12.857145,0 6.4285712,6.4285712 0 1 1 12.857145,0 z"
         transform="matrix(1.5953394,0,0,1.5953394,422.51658,92.50279)"
         id="path6538"
         style="opacity:0.84482757;fill:none;stroke:#000000;stroke-width:3.94000006;stroke-linejoin:round;stroke-miterlimit:4;stroke-opacity:1;stroke-dasharray:1.97000003, 1.97000003;stroke-dashoffset:3.54600005" />
      <text
         x="280.71429"
         y="466.86218"
         id="text6540"
         xml:space="preserve"
         style="font-size:40px;font-style:normal;font-weight:normal;line-height:125%;letter-spacing:0px;word-spacing:0px;fill:#000000;fill-opacity:1;stroke:none;font-family:Sans"><tspan
           x="280.71429"
           y="466.86218"
           id="tspan6542"
           style="font-size:22px">above ring plane</tspan></text>
      <text
         x="281.71429"
         y="499.36218"
         id="text6544"
         xml:space="preserve"
         style="font-size:40px;font-style:normal;font-weight:normal;line-height:125%;letter-spacing:0px;word-spacing:0px;fill:#000000;fill-opacity:1;stroke:none;font-family:Sans"><tspan
           x="281.71429"
           y="499.36218"
           id="tspan6546"
           style="font-size:22px">below ring plane</tspan></text>
    </g>
    <text
       x="334.59399"
       y="168.7655"
       id="text6548"
       xml:space="preserve"
       style="font-size:40px;font-style:normal;font-weight:normal;line-height:125%;letter-spacing:0px;word-spacing:0px;fill:#000000;fill-opacity:1;stroke:none;font-family:Sans"><tspan
         x="334.59399"
         y="168.7655"
         id="tspan6550"
         style="font-size:28px"><tspan
           id="tspan6586"
           style="font-size:65.00091553%;baseline-shift:super">O</tspan><tspan
           id="tspan6584"
           style="font-size:32px">E</tspan></tspan></text>
    <text
       x="540.6651"
       y="318.26807"
       id="text6554"
       xml:space="preserve"
       style="font-size:40px;font-style:normal;font-weight:normal;line-height:125%;letter-spacing:0px;word-spacing:0px;fill:#000000;fill-opacity:1;stroke:none;font-family:Sans"><tspan
         x="540.6651"
         y="318.26807"
         id="tspan6556"
         style="font-size:32px"><tspan
   id="tspan6590"
   style="font-size:65.00091553%;baseline-shift:super">2</tspan>E</tspan></text>
    <text
       x="463.89352"
       y="565.16412"
       id="text6560"
       xml:space="preserve"
       style="font-size:40px;font-style:normal;font-weight:normal;line-height:125%;letter-spacing:0px;word-spacing:0px;fill:#000000;fill-opacity:1;stroke:none;font-family:Sans"><tspan
         x="463.89352"
         y="565.16412"
         id="tspan6562"
         style="font-size:32px"><tspan
   id="tspan6600"
   style="font-size:65.00091553%;baseline-shift:super">4</tspan>E</tspan></text>
    <text
       x="134.58379"
       y="318.68689"
       id="text6566"
       xml:space="preserve"
       style="font-size:40px;font-style:normal;font-weight:normal;line-height:125%;letter-spacing:0px;word-spacing:0px;fill:#000000;fill-opacity:1;stroke:none;font-family:Sans"><tspan
         x="134.58379"
         y="318.68689"
         id="tspan6568"
         style="font-size:32px"><tspan
   id="tspan6594"
   style="font-size:65.00091553%;baseline-shift:super">3</tspan>E</tspan></text>
    <text
       x="209.33508"
       y="567.08289"
       id="text6574"
       xml:space="preserve"
       style="font-size:40px;font-style:normal;font-weight:normal;line-height:125%;letter-spacing:0px;word-spacing:0px;fill:#000000;fill-opacity:1;stroke:none;font-family:Sans"><tspan
         x="209.33508"
         y="567.08289"
         id="tspan6576"
         style="font-size:32px"><tspan
   id="tspan6598"
   style="font-size:65.00091553%;baseline-shift:super">1</tspan>E</tspan></text>
    <text
       x="474.19049"
       y="202.83405"
       id="text6602"
       xml:space="preserve"
       style="font-size:40px;font-style:normal;font-weight:normal;line-height:125%;letter-spacing:0px;word-spacing:0px;fill:#000000;fill-opacity:1;stroke:none;font-family:Sans"><tspan
         x="474.19049"
         y="202.83405"
         id="tspan6604"
         style="font-size:32px">E<tspan
   id="tspan6606"
   style="font-size:65.00091553%;baseline-shift:sub">1</tspan></tspan></text>
    <text
       x="217.71327"
       y="199.69191"
       id="text6608"
       xml:space="preserve"
       style="font-size:40px;font-style:normal;font-weight:normal;line-height:125%;letter-spacing:0px;word-spacing:0px;fill:#000000;fill-opacity:1;stroke:none;font-family:Sans"><tspan
         x="217.71327"
         y="199.69191"
         id="tspan6610"
         style="font-size:32px">E<tspan
   id="tspan6612"
   style="font-size:65.00091553%;baseline-shift:sub">4</tspan></tspan></text>
    <text
       x="133.34016"
       y="466.47369"
       id="text6614"
       xml:space="preserve"
       style="font-size:40px;font-style:normal;font-weight:normal;line-height:125%;letter-spacing:0px;word-spacing:0px;fill:#000000;fill-opacity:1;stroke:none;font-family:Sans"><tspan
         x="133.34016"
         y="466.47369"
         id="tspan6616"
         style="font-size:32px">E<tspan
   id="tspan6618"
   style="font-size:65.00091553%;baseline-shift:sub">2</tspan></tspan></text>
    <text
       x="547.50269"
       y="460.41278"
       id="text6620"
       xml:space="preserve"
       style="font-size:40px;font-style:normal;font-weight:normal;line-height:125%;letter-spacing:0px;word-spacing:0px;fill:#000000;fill-opacity:1;stroke:none;font-family:Sans"><tspan
         x="547.50269"
         y="460.41278"
         id="tspan6622"
         style="font-size:32px">E<tspan
   id="tspan6624"
   style="font-size:65.00091553%;baseline-shift:sub">3</tspan></tspan></text>
    <text
       x="343.4519"
       y="607.89508"
       id="text6626"
       xml:space="preserve"
       style="font-size:40px;font-style:normal;font-weight:normal;line-height:125%;letter-spacing:0px;word-spacing:0px;fill:#000000;fill-opacity:1;stroke:none;font-family:Sans"><tspan
         x="343.4519"
         y="607.89508"
         id="tspan6628"
         style="font-size:32px">E<tspan
   id="tspan6630"
   style="font-size:65.00091553%;baseline-shift:sub">O</tspan></tspan></text>
    <text
       x="404.39859"
       y="179.36703"
       id="text6632"
       xml:space="preserve"
       style="font-size:40px;font-style:normal;font-weight:normal;line-height:125%;letter-spacing:0px;word-spacing:0px;fill:#000000;fill-opacity:1;stroke:none;font-family:Sans"><tspan
         x="404.39859"
         y="179.36703"
         id="tspan6634"
         style="font-size:28px"><tspan
           id="tspan6636"
           style="font-size:65.00091553%;baseline-shift:super">O</tspan><tspan
           id="tspan6638"
           style="font-size:32px">T</tspan><tspan
           id="tspan6642"
           style="font-size:65.00091553%;baseline-shift:sub">1</tspan></tspan></text>
    <text
       x="507.43414"
       y="250.07771"
       id="text6644"
       xml:space="preserve"
       style="font-size:40px;font-style:normal;font-weight:normal;line-height:125%;letter-spacing:0px;word-spacing:0px;fill:#000000;fill-opacity:1;stroke:none;font-family:Sans"
       sodipodi:linespacing="125%"><tspan
         x="507.43414"
         y="250.07771"
         id="tspan6646"
         style="font-size:28px"><tspan
           id="tspan6648"
           style="font-size:65.00091553%;baseline-shift:super">2</tspan><tspan
           id="tspan6650"
           style="font-size:32px">T</tspan><tspan
           id="tspan6652"
           style="font-size:65.00091553%;baseline-shift:sub">1</tspan></tspan></text>
    <text
       x="553.90118"
       y="391.49908"
       id="text6654"
       xml:space="preserve"
       style="font-size:40px;font-style:normal;font-weight:normal;line-height:125%;letter-spacing:0px;word-spacing:0px;fill:#000000;fill-opacity:1;stroke:none;font-family:Sans"><tspan
         x="553.90118"
         y="391.49908"
         id="tspan6656"
         style="font-size:28px"><tspan
           id="tspan6658"
           style="font-size:65.00091553%;baseline-shift:super">2</tspan><tspan
           id="tspan6660"
           style="font-size:32px">T</tspan><tspan
           id="tspan6662"
           style="font-size:65.00091553%;baseline-shift:sub">3</tspan></tspan></text>
    <text
       x="501.37323"
       y="512.71735"
       id="text6664"
       xml:space="preserve"
       style="font-size:40px;font-style:normal;font-weight:normal;line-height:125%;letter-spacing:0px;word-spacing:0px;fill:#000000;fill-opacity:1;stroke:none;font-family:Sans"><tspan
         x="501.37323"
         y="512.71735"
         id="tspan6666"
         style="font-size:28px"><tspan
           id="tspan6668"
           style="font-size:65.00091553%;baseline-shift:super">4</tspan><tspan
           id="tspan6670"
           style="font-size:32px">T</tspan><tspan
           id="tspan6672"
           style="font-size:65.00091553%;baseline-shift:sub">3</tspan></tspan></text>
    <text
       x="404.39859"
       y="591.50928"
       id="text6674"
       xml:space="preserve"
       style="font-size:40px;font-style:normal;font-weight:normal;line-height:125%;letter-spacing:0px;word-spacing:0px;fill:#000000;fill-opacity:1;stroke:none;font-family:Sans"><tspan
         x="404.39859"
         y="591.50928"
         id="tspan6676"
         style="font-size:28px"><tspan
           id="tspan6678"
           style="font-size:65.00091553%;baseline-shift:super">4</tspan><tspan
           id="tspan6680"
           style="font-size:32px">T</tspan><tspan
           id="tspan6682"
           style="font-size:65.00091553%;baseline-shift:sub">O</tspan></tspan></text>
    <text
       x="264.99756"
       y="595.54987"
       id="text6684"
       xml:space="preserve"
       style="font-size:40px;font-style:normal;font-weight:normal;line-height:125%;letter-spacing:0px;word-spacing:0px;fill:#000000;fill-opacity:1;stroke:none;font-family:Sans"><tspan
         x="264.99756"
         y="595.54987"
         id="tspan6686"
         style="font-size:28px"><tspan
           id="tspan6688"
           style="font-size:65.00091553%;baseline-shift:super">1</tspan><tspan
           id="tspan6690"
           style="font-size:32px">T</tspan><tspan
           id="tspan6692"
           style="font-size:65.00091553%;baseline-shift:sub">O</tspan></tspan></text>
    <text
       x="159.94168"
       y="514.73767"
       id="text6694"
       xml:space="preserve"
       style="font-size:40px;font-style:normal;font-weight:normal;line-height:125%;letter-spacing:0px;word-spacing:0px;fill:#000000;fill-opacity:1;stroke:none;font-family:Sans"><tspan
         x="159.94168"
         y="514.73767"
         id="tspan6696"
         style="font-size:28px"><tspan
           id="tspan6698"
           style="font-size:65.00091553%;baseline-shift:super">1</tspan><tspan
           id="tspan6700"
           style="font-size:32px">T</tspan><tspan
           id="tspan6702"
           style="font-size:65.00091553%;baseline-shift:sub">2</tspan></tspan></text>
    <text
       x="117.51528"
       y="391.49905"
       id="text6704"
       xml:space="preserve"
       style="font-size:40px;font-style:normal;font-weight:normal;line-height:125%;letter-spacing:0px;word-spacing:0px;fill:#000000;fill-opacity:1;stroke:none;font-family:Sans"><tspan
         x="117.51528"
         y="391.49905"
         id="tspan6706"
         style="font-size:28px"><tspan
           id="tspan6708"
           style="font-size:65.00091553%;baseline-shift:super">3</tspan><tspan
           id="tspan6710"
           style="font-size:32px">T</tspan><tspan
           id="tspan6712"
           style="font-size:65.00091553%;baseline-shift:sub">2</tspan></tspan></text>
    <text
       x="168.02292"
       y="252.09802"
       id="text6714"
       xml:space="preserve"
       style="font-size:40px;font-style:normal;font-weight:normal;line-height:125%;letter-spacing:0px;word-spacing:0px;fill:#000000;fill-opacity:1;stroke:none;font-family:Sans"><tspan
         x="168.02292"
         y="252.09802"
         id="tspan6716"
         style="font-size:28px"><tspan
           id="tspan6718"
           style="font-size:65.00091553%;baseline-shift:super">3</tspan><tspan
           id="tspan6720"
           style="font-size:32px">T</tspan><tspan
           id="tspan6722"
           style="font-size:65.00091553%;baseline-shift:sub">4</tspan></tspan></text>
    <text
       x="271.55847"
       y="177.82643"
       id="text6724"
       xml:space="preserve"
       style="font-size:40px;font-style:normal;font-weight:normal;line-height:125%;letter-spacing:0px;word-spacing:0px;fill:#000000;fill-opacity:1;stroke:none;font-family:Sans"><tspan
         x="271.55847"
         y="177.82643"
         id="tspan6726"
         style="font-size:28px"><tspan
           id="tspan6728"
           style="font-size:65.00091553%;baseline-shift:super">O</tspan><tspan
           id="tspan6730"
           style="font-size:32px">T</tspan><tspan
           id="tspan6732"
           style="font-size:65.00091553%;baseline-shift:sub">4</tspan></tspan></text>
    <text
       x="358.26944"
       y="219.09918"
       id="text6734"
       xml:space="preserve"
       style="font-size:27.00684357px;font-style:normal;font-weight:normal;line-height:125%;letter-spacing:0px;word-spacing:0px;fill:#000000;fill-opacity:1;stroke:none;font-family:Sans"><tspan
         x="358.26944"
         y="219.09918"
         id="tspan6736"
         style="text-align:center;text-anchor:middle">0<tspan
   id="tspan6738"
   style="font-size:17.55469513px;text-align:center;text-anchor:middle;baseline-shift:super">o</tspan></tspan><tspan
         x="358.26944"
         y="252.85774"
         id="tspan6740"
         style="text-align:center;text-anchor:middle">|</tspan></text>
  </g>
</svg>
