<?xml version="1.0" encoding="UTF-8" standalone="no"?>
<svg
   xmlns:dc="http://purl.org/dc/elements/1.1/"
   xmlns:cc="http://creativecommons.org/ns#"
   xmlns:rdf="http://www.w3.org/1999/02/22-rdf-syntax-ns#"
   xmlns:svg="http://www.w3.org/2000/svg"
   xmlns="http://www.w3.org/2000/svg"
   xmlns:xlink="http://www.w3.org/1999/xlink"
   xmlns:sodipodi="http://sodipodi.sourceforge.net/DTD/sodipodi-0.dtd"
   xmlns:inkscape="http://www.inkscape.org/namespaces/inkscape"
   id="svg2"
   height="64"
   width="64"
   version="1.1"
   inkscape:version="0.91+devel r13918"
   sodipodi:docname="convert2mtz.svg">
  <sodipodi:namedview
     pagecolor="#ffffff"
     bordercolor="#666666"
     borderopacity="1"
     objecttolerance="10"
     gridtolerance="10"
     guidetolerance="10"
     inkscape:pageopacity="0"
     inkscape:pageshadow="2"
     inkscape:window-width="1366"
     inkscape:window-height="719"
     id="namedview4460"
     showgrid="false"
     inkscape:zoom="2.1601563"
     inkscape:cx="32.405063"
     inkscape:cy="31.959381"
     inkscape:window-x="0"
     inkscape:window-y="0"
     inkscape:window-maximized="1"
     inkscape:current-layer="svg2" />
  <defs
     id="defs4">
    <marker
       style="overflow:visible"
       id="Arrow1Mend"
       orient="auto"
       refY="0"
       refX="0">
      <path
         style="fill-rule:evenodd;stroke:#000000;stroke-width:1pt;marker-start:none"
         id="path5185"
         transform="matrix(-0.4,0,0,-0.4,-4,0)"
         d="M 0,0 5,-5 -12.5,0 5,5 0,0 z" />
    </marker>
    <marker
       style="overflow:visible"
       id="Arrow2Mend"
       orient="auto"
       refY="0"
       refX="0">
      <path
         style="font-size:12px;fill-rule:evenodd;stroke-width:0.625;stroke-linejoin:round"
         id="path5203"
         transform="scale(-0.6,-0.6)"
         d="M 8.7185878,4.0337352 -2.2072895,0.01601326 8.7185884,-4.0017078 c -1.7454984,2.3720609 -1.7354408,5.6174519 -6e-7,8.035443 z" />
    </marker>
    <marker
       style="overflow:visible"
       id="Arrow2Lend"
       orient="auto"
       refY="0"
       refX="0">
      <path
         style="font-size:12px;fill-rule:evenodd;stroke-width:0.625;stroke-linejoin:round"
         id="path5197"
         transform="matrix(-1.1,0,0,-1.1,-1.1,0)"
         d="M 8.7185878,4.0337352 -2.2072895,0.01601326 8.7185884,-4.0017078 c -1.7454984,2.3720609 -1.7354408,5.6174519 -6e-7,8.035443 z" />
    </marker>
    <linearGradient
       id="linearGradient6799">
      <stop
         offset="0"
         style="stop-color:#000000;stop-opacity:1"
         id="stop6801" />
      <stop
         offset="1"
         style="stop-color:#000000;stop-opacity:0"
         id="stop6803" />
    </linearGradient>
    <linearGradient
       id="linearGradient6775">
      <stop
         offset="0"
         style="stop-color:#000000;stop-opacity:1"
         id="stop6777" />
      <stop
         offset="1"
         style="stop-color:#ffffff;stop-opacity:1"
         id="stop6779" />
    </linearGradient>
    <marker
       style="overflow:visible"
       id="Arrow2Lstart"
       orient="auto"
       refY="0"
       refX="0">
      <path
         style="font-size:12px;fill-rule:evenodd;stroke-width:0.625;stroke-linejoin:round"
         id="path4334"
         transform="matrix(1.1,0,0,1.1,1.1,0)"
         d="M 8.7185878,4.0337352 -2.2072895,0.01601326 8.7185884,-4.0017078 c -1.7454984,2.3720609 -1.7354408,5.6174519 -6e-7,8.035443 z" />
    </marker>
    <marker
       style="overflow:visible"
       id="Arrow1Lend"
       orient="auto"
       refY="0"
       refX="0">
      <path
         style="fill-rule:evenodd;stroke:#000000;stroke-width:1pt;marker-start:none"
         id="path4319"
         transform="matrix(-0.8,0,0,-0.8,-10,0)"
         d="M 0,0 5,-5 -12.5,0 5,5 0,0 z" />
    </marker>
    <linearGradient
       gradientUnits="userSpaceOnUse"
       xlink:href="#linearGradient6799"
       id="linearGradient6805"
       y2="68.845291"
       x2="631.55121"
       y1="68.845291"
       x1="421.16345" />
    <linearGradient
       spreadMethod="reflect"
       gradientTransform="matrix(0.81256321,0,0,0.81256321,-228.8117,619.27357)"
       gradientUnits="userSpaceOnUse"
       xlink:href="#linearGradient6035"
       id="linearGradient4583"
       y2="520.33002"
       x2="327.78"
       y1="522.60999"
       x1="308.5" />
    <linearGradient
       id="linearGradient6035">
      <stop
         offset="0"
         style="stop-color:#ffffff;stop-opacity:1"
         id="stop6037" />
      <stop
         offset="1"
         style="stop-color:#ffffff;stop-opacity:0"
         id="stop6039" />
    </linearGradient>
    <linearGradient
       spreadMethod="reflect"
       gradientTransform="translate(0,12)"
       gradientUnits="userSpaceOnUse"
       xlink:href="#linearGradient6035"
       id="linearGradient4383"
       y2="519.73468"
       x2="327.66092"
       y1="522.19324"
       x1="308.61908" />
    <linearGradient
       id="linearGradient6402">
      <stop
         offset="0"
         style="stop-color:#ffffff;stop-opacity:1"
         id="stop6404" />
      <stop
         offset="1"
         style="stop-color:#ffffff;stop-opacity:0"
         id="stop6406" />
    </linearGradient>
    <linearGradient
       spreadMethod="pad"
       gradientUnits="userSpaceOnUse"
       xlink:href="#linearGradient4319"
       id="linearGradient4317"
       y2="512.51025"
       x2="287.58078"
       y1="529.23523"
       x1="287.69586" />
    <linearGradient
       spreadMethod="reflect"
       gradientTransform="matrix(1.1818,0,0,1.1818,-30.649,-69.394)"
       gradientUnits="userSpaceOnUse"
       id="linearGradient4319"
       y2="511.97"
       x2="286.63"
       y1="511.97"
       x1="269.97">
      <stop
         offset="0"
         style="stop-color:#87caee;stop-opacity:1"
         id="stop4321" />
      <stop
         offset="0.24713178"
         style="stop-color:#abceda;stop-opacity:1"
         id="stop4323" />
      <stop
         offset="1"
         style="stop-color:#1e9bcb;stop-opacity:1"
         id="stop4325" />
    </linearGradient>
    <linearGradient
       spreadMethod="reflect"
       gradientTransform="matrix(0.81256321,0,0,0.81256321,-228.8117,601.60025)"
       gradientUnits="userSpaceOnUse"
       xlink:href="#linearGradient6035"
       id="linearGradient6114"
       y2="520.33002"
       x2="327.78"
       y1="522.60999"
       x1="308.5" />
    <linearGradient
       id="linearGradient6414">
      <stop
         offset="0"
         style="stop-color:#ffffff;stop-opacity:1"
         id="stop6416" />
      <stop
         offset="1"
         style="stop-color:#ffffff;stop-opacity:0"
         id="stop6418" />
    </linearGradient>
    <linearGradient
       spreadMethod="reflect"
       gradientTransform="matrix(1.203669,0,0,1.203669,-317.8861,411.94756)"
       gradientUnits="userSpaceOnUse"
       id="linearGradient6110"
       y2="511.97"
       x2="286.63"
       y1="511.97"
       x1="269.97">
      <stop
         offset="0"
         style="stop-color:#87caee;stop-opacity:1"
         id="stop5497" />
      <stop
         offset="0.20485"
         style="stop-color:#abceda;stop-opacity:1"
         id="stop5501" />
      <stop
         offset="1"
         style="stop-color:#1e9bcb;stop-opacity:1"
         id="stop5499" />
    </linearGradient>
    <linearGradient
       spreadMethod="reflect"
       gradientTransform="matrix(0.96028721,0,0,0.96028721,-253.71595,545.01014)"
       gradientUnits="userSpaceOnUse"
       xlink:href="#linearGradient6110"
       id="linearGradient6513"
       y2="511.97"
       x2="286.63"
       y1="511.97"
       x1="269.97" />
    <linearGradient
       y2="519.73468"
       x2="327.66092"
       y1="522.19324"
       x1="308.61908"
       spreadMethod="reflect"
       gradientTransform="translate(0,12)"
       gradientUnits="userSpaceOnUse"
       id="linearGradient5717"
       xlink:href="#linearGradient6035" />
    <linearGradient
       y2="520.33002"
       x2="327.78"
       y1="522.60999"
       x1="308.5"
       spreadMethod="reflect"
       gradientTransform="matrix(0.81256321,0,0,0.81256321,-228.8117,-369.08861)"
       gradientUnits="userSpaceOnUse"
       id="linearGradient5733"
       xlink:href="#linearGradient6035" />
    <linearGradient
       gradientTransform="matrix(0.96028721,0,0,0.96028721,-253.71595,-467.72891)"
       y2="512.51025"
       x2="287.58078"
       y1="529.23523"
       x1="287.69586"
       spreadMethod="pad"
       gradientUnits="userSpaceOnUse"
       id="linearGradient5739"
       xlink:href="#linearGradient4319" />
    <linearGradient
       y2="520.33002"
       x2="327.78"
       y1="522.60999"
       x1="308.5"
       spreadMethod="reflect"
       gradientTransform="matrix(0.81256321,0,0,0.81256321,-228.8117,-386.76193)"
       gradientUnits="userSpaceOnUse"
       id="linearGradient5742"
       xlink:href="#linearGradient6035" />
    <linearGradient
       y2="511.97"
       x2="286.63"
       y1="511.97"
       x1="269.97"
       spreadMethod="reflect"
       gradientTransform="matrix(0.96028721,0,0,0.96028721,-253.71595,-443.35204)"
       gradientUnits="userSpaceOnUse"
       id="linearGradient5746"
       xlink:href="#linearGradient6110" />
    <linearGradient
       y2="520.33002"
       x2="327.78"
       y1="522.60999"
       x1="308.5"
       spreadMethod="reflect"
       gradientTransform="matrix(0.81256321,0,0,0.81256321,-228.8117,-369.08861)"
       gradientUnits="userSpaceOnUse"
       id="linearGradient6148"
       xlink:href="#linearGradient6035" />
    <linearGradient
       y2="512.51025"
       x2="287.58078"
       y1="529.23523"
       x1="287.69586"
       spreadMethod="pad"
       gradientTransform="matrix(0.96028721,0,0,0.96028721,-253.71595,-467.72891)"
       gradientUnits="userSpaceOnUse"
       id="linearGradient6154"
       xlink:href="#linearGradient4319" />
    <linearGradient
       y2="520.33002"
       x2="327.78"
       y1="522.60999"
       x1="308.5"
       spreadMethod="reflect"
       gradientTransform="matrix(0.81256321,0,0,0.81256321,-228.8117,-386.76193)"
       gradientUnits="userSpaceOnUse"
       id="linearGradient6157"
       xlink:href="#linearGradient6035" />
    <linearGradient
       y2="511.97"
       x2="286.63"
       y1="511.97"
       x1="269.97"
       spreadMethod="reflect"
       gradientTransform="matrix(0.96028721,0,0,0.96028721,-253.71595,-443.35204)"
       gradientUnits="userSpaceOnUse"
       id="linearGradient6161"
       xlink:href="#linearGradient6110" />
    <linearGradient
       gradientTransform="matrix(0.12755628,0,0,0.12755628,-2.5072103,-37.889977)"
       id="linearGradient4498"
       y2="318.03"
       gradientUnits="userSpaceOnUse"
       x2="463.82999"
       y1="420.92999"
       x1="361.42999"
       inkscape:collect="always">
      <stop
         id="stop4482"
         style="stop-color:#eeeeee"
         offset="0" />
      <stop
         id="stop4484"
         style="stop-color:#eeeeee;stop-opacity:0"
         offset="1" />
    </linearGradient>
    <linearGradient
       gradientTransform="matrix(0.12755628,0,0,0.12755628,-2.5072103,-37.889977)"
       id="linearGradient4496"
       y2="776.59998"
       gradientUnits="userSpaceOnUse"
       x2="266.17001"
       y1="347.26001"
       x1="266.17001"
       inkscape:collect="always">
      <stop
         id="stop3925"
         style="stop-color:#ffffff"
         offset="0" />
      <stop
         id="stop3927"
         style="stop-color:#ededed"
         offset="1" />
    </linearGradient>
  </defs>
  <metadata
     id="metadata7">
    <rdf:RDF>
      <cc:Work
         rdf:about="">
        <dc:format>image/svg+xml</dc:format>
        <dc:type
           rdf:resource="http://purl.org/dc/dcmitype/StillImage" />
        <dc:title></dc:title>
      </cc:Work>
    </rdf:RDF>
  </metadata>
  <path
     inkscape:connector-curvature="0"
     id="rect3909"
     style="fill:#aaaaaa;stroke-width:0.12755628"
     d="m 5.4809979,1.8960977 0,60.0471233 51.9268861,0 0,-46.063121 -13.982713,-13.9827221 -37.9441731,0 z" />
  <path
     inkscape:connector-curvature="0"
     id="path3921"
     style="fill:url(#linearGradient4496);stroke-width:0.12755628"
     d="m 6.3829512,2.6690922 0,58.5011308 50.1232338,0 0,-44.878118 -13.498006,-13.6230128 -36.6252278,0 z" />
  <path
     inkscape:connector-curvature="0"
     id="path3933"
     style="fill:#aaaaaa;stroke-width:0.12755628"
     d="M 42.515051,2.0389636 57.477403,16.998762 42.304589,16.92822 42.515611,2.0398489 Z" />
  <path
     inkscape:connector-curvature="0"
     id="path4445"
     style="fill:url(#linearGradient4498);stroke-width:0.12755628"
     d="M 43.062261,2.6767443 56.657211,16.269143 42.870929,16.205344 43.062261,2.6767219 Z" />
  <g
     style="font-style:normal;font-weight:normal;font-size:21.76877022px;line-height:79.00000215%;font-family:Sans;letter-spacing:0px;word-spacing:0px;fill:#a8a8a8;fill-opacity:1;stroke:#9a9a9a;stroke-width:0;stroke-linecap:butt;stroke-linejoin:miter;stroke-miterlimit:4;stroke-dasharray:none;stroke-opacity:1"
     id="text6836">
    <path
       d="m 19.092258,26.07256 0,3.103751 q -0.775938,-0.531465 -1.562505,-0.786567 -0.775937,-0.255103 -1.615651,-0.255103 -1.594392,0 -2.487252,0.935377 -0.88223,0.924747 -0.88223,2.593545 0,1.668797 0.88223,2.604174 0.89286,0.924747 2.487252,0.924747 0.89286,0 1.690056,-0.265732 0.807826,-0.265732 1.4881,-0.786567 l 0,3.11438 q -0.89286,0.329508 -1.817607,0.488947 -0.914119,0.170069 -1.838866,0.170069 -3.220673,0 -5.03828,-1.647539 -1.8176074,-1.658168 -1.8176074,-4.602479 0,-2.944312 1.8176074,-4.59185 1.817607,-1.658168 5.03828,-1.658168 0.935377,0 1.838866,0.170068 0.914118,0.159439 1.817607,0.488947 z"
       style="font-style:normal;font-variant:normal;font-weight:bold;font-stretch:normal;line-height:79.00000215%;font-family:Sans;-inkscape-font-specification:'Sans Bold';text-align:start;text-anchor:start;fill:#a8a8a8;fill-opacity:1;stroke:#9a9a9a;stroke-width:0;stroke-miterlimit:4;stroke-dasharray:none;stroke-opacity:1"
       id="path8771" />
    <path
       d="m 22.397964,25.700535 3.805284,0 0,11.904796 -3.805284,0 0,-11.904796 z m 0,-4.634367 3.805284,0 0,3.103751 -3.805284,0 0,-3.103751 z"
       style="font-style:normal;font-variant:normal;font-weight:bold;font-stretch:normal;line-height:79.00000215%;font-family:Sans;-inkscape-font-specification:'Sans Bold';text-align:start;text-anchor:start;fill:#a8a8a8;fill-opacity:1;stroke:#9a9a9a;stroke-width:0;stroke-miterlimit:4;stroke-dasharray:none;stroke-opacity:1"
       id="path8773" />
    <path
       d="m 37.714761,21.066168 0,2.497881 -2.104598,0 q -0.807826,0 -1.126704,0.29762 -0.318879,0.286991 -0.318879,1.009782 l 0,0.829084 3.252561,0 0,2.721096 -3.252561,0 0,9.1837 -3.805283,0 0,-9.1837 -1.892012,0 0,-2.721096 1.892012,0 0,-0.829084 q 0,-1.945158 1.084187,-2.869906 1.084187,-0.935377 3.358853,-0.935377 l 2.912424,0 z"
       style="font-style:normal;font-variant:normal;font-weight:bold;font-stretch:normal;line-height:79.00000215%;font-family:Sans;-inkscape-font-specification:'Sans Bold';text-align:start;text-anchor:start;fill:#a8a8a8;fill-opacity:1;stroke:#9a9a9a;stroke-width:0;stroke-miterlimit:4;stroke-dasharray:none;stroke-opacity:1"
       id="path8775" />
    <path
       d="m 20.505952,44.874911 q 0.722792,-1.105446 1.711315,-1.679427 0.999152,-0.58461 2.189632,-0.58461 2.051451,0 3.125009,1.264884 1.073558,1.264885 1.073558,3.677732 l 0,7.24917 -3.826542,0 0,-6.207501 q 0.01063,-0.13818 0.01063,-0.28699 0.01063,-0.14881 0.01063,-0.425171 0,-1.264885 -0.372024,-1.828237 -0.372025,-0.573981 -1.201109,-0.573981 -1.084187,0 -1.679427,0.892859 -0.58461,0.89286 -0.605869,2.582916 l 0,5.846105 -3.826542,0 0,-6.207501 q 0,-1.977046 -0.340137,-2.540398 -0.340137,-0.573981 -1.211738,-0.573981 -1.094816,0 -1.690056,0.903489 -0.59524,0.892859 -0.59524,2.561657 l 0,5.856734 -3.8265412,0 0,-11.904796 3.8265412,0 0,1.743202 q 0.701533,-1.009781 1.605022,-1.519987 0.914118,-0.510205 2.008934,-0.510205 1.232997,0 2.179003,0.595239 0.946006,0.59524 1.434953,1.668798 z"
       style="font-style:normal;font-variant:normal;font-weight:bold;font-stretch:normal;line-height:79.00000215%;font-family:Sans;-inkscape-font-specification:'Sans Bold';text-align:start;text-anchor:start;fill:#a8a8a8;fill-opacity:1;stroke:#9a9a9a;stroke-width:0;stroke-miterlimit:4;stroke-dasharray:none;stroke-opacity:1"
       id="path8777" />
    <path
       d="m 36.332954,39.517752 0,3.380112 3.922205,0 0,2.721096 -3.922205,0 0,5.04891 q 0,0.829084 0.329508,1.126703 0.329508,0.286991 1.307402,0.286991 l 1.955787,0 0,2.721096 -3.263189,0 q -2.253408,0 -3.199414,-0.935376 -0.935377,-0.946007 -0.935377,-3.199414 l 0,-5.04891 -1.892012,0 0,-2.721096 1.892012,0 0,-3.380112 3.805283,0 z"
       style="font-style:normal;font-variant:normal;font-weight:bold;font-stretch:normal;line-height:79.00000215%;font-family:Sans;-inkscape-font-specification:'Sans Bold';text-align:start;text-anchor:start;fill:#a8a8a8;fill-opacity:1;stroke:#9a9a9a;stroke-width:0;stroke-miterlimit:4;stroke-dasharray:none;stroke-opacity:1"
       id="path8779" />
    <path
       d="m 42.008989,42.897864 10.384809,0 0,2.657321 -6.271277,6.526379 6.271277,0 0,2.721096 -10.650541,0 0,-2.65732 6.271276,-6.52638 -6.005544,0 0,-2.721096 z"
       style="font-style:normal;font-variant:normal;font-weight:bold;font-stretch:normal;line-height:79.00000215%;font-family:Sans;-inkscape-font-specification:'Sans Bold';text-align:start;text-anchor:start;fill:#a8a8a8;fill-opacity:1;stroke:#9a9a9a;stroke-width:0;stroke-miterlimit:4;stroke-dasharray:none;stroke-opacity:1"
       id="path8781" />
  </g>
  <text
     xml:space="preserve"
     style="font-style:normal;font-weight:normal;font-size:17.66053963px;line-height:125%;font-family:Sans;letter-spacing:0px;word-spacing:0px;fill:#000000;fill-opacity:1;stroke:none;stroke-width:1.2614671px;stroke-linecap:butt;stroke-linejoin:miter;stroke-opacity:1"
     x="39.005756"
     y="37.427666"
     id="text8447"
     sodipodi:linespacing="125%"><tspan
       sodipodi:role="line"
       id="tspan8449"
       x="39.005756"
       y="37.427666"
       style="font-style:italic;font-variant:normal;font-weight:bold;font-stretch:normal;font-family:Sans;-inkscape-font-specification:'Sans Bold Italic';fill:#ff0101;fill-opacity:1;stroke-width:1.2614671px">2</tspan></text>
</svg>
