<?xml version="1.0" encoding="UTF-8" standalone="no"?>
<!-- Created with Inkscape (http://www.inkscape.org/) -->

<svg
   xmlns:dc="http://purl.org/dc/elements/1.1/"
   xmlns:cc="http://creativecommons.org/ns#"
   xmlns:rdf="http://www.w3.org/1999/02/22-rdf-syntax-ns#"
   xmlns:svg="http://www.w3.org/2000/svg"
   xmlns="http://www.w3.org/2000/svg"
   xmlns:sodipodi="http://sodipodi.sourceforge.net/DTD/sodipodi-0.dtd"
   xmlns:inkscape="http://www.inkscape.org/namespaces/inkscape"
   width="64"
   height="64"
   id="svg2"
   version="1.1"
   inkscape:version="0.48.2 r9819"
   sodipodi:docname="model_data_utility.svg">
  <defs
     id="defs4">
    <linearGradient
       id="linearGradient4373">
      <stop
         style="stop-color:#acacac;stop-opacity:1;"
         offset="0"
         id="stop4375" />
      <stop
         style="stop-color:#dadada;stop-opacity:0;"
         offset="1"
         id="stop4377" />
    </linearGradient>
  </defs>
  <sodipodi:namedview
     id="base"
     pagecolor="#ffffff"
     bordercolor="#666666"
     borderopacity="1.0"
     inkscape:pageopacity="0.0"
     inkscape:pageshadow="2"
     inkscape:zoom="0.49497475"
     inkscape:cx="-27.617662"
     inkscape:cy="35.643735"
     inkscape:document-units="px"
     inkscape:current-layer="layer1"
     showgrid="false"
     inkscape:window-width="1366"
     inkscape:window-height="720"
     inkscape:window-x="0"
     inkscape:window-y="0"
     inkscape:window-maximized="1" />
  <metadata
     id="metadata7">
    <rdf:RDF>
      <cc:Work
         rdf:about="">
        <dc:format>image/svg+xml</dc:format>
        <dc:type
           rdf:resource="http://purl.org/dc/dcmitype/StillImage" />
        <dc:title />
      </cc:Work>
    </rdf:RDF>
  </metadata>
  <g
     inkscape:label="Layer 1"
     inkscape:groupmode="layer"
     id="layer1"
     transform="translate(0,-988.36218)">
    <g
       id="g5252"
       transform="matrix(0.85067824,0,0,0.85067824,-62.908977,132.71049)">
      <path
         style="fill:#f7f702"
         d="m 85.500023,1069.2302 c 0,-2.1091 -1.454882,-2.691 -2.5,-1 -1.045562,1.6918 -3.659056,1.1078 -4.193802,-0.9371 -0.278609,-1.0654 -1.81148,-2.392 -3.40638,-2.948 -2.977956,-1.0381 -3.321924,-1.9372 -2.259059,-5.9049 0.770419,-2.8761 6.106615,-5.8626 7.674143,-4.2951 0.596804,0.5968 1.709652,1.0851 2.472996,1.0851 1.879189,0 0.634684,-8.0265 -1.504287,-9.702 -0.843954,-0.661 -1.288185,-1.8437 -0.987181,-2.6281 0.301004,-0.7844 0.01994,-1.9613 -0.624575,-2.6154 -0.89801,-0.9112 -0.721543,-1.5215 0.755144,-2.6115 1.05985,-0.7823 1.73485,-1.5395 1.5,-1.6827 -0.234849,-0.1431 -1.315545,-0.7521 -2.401546,-1.3532 -2.040827,-1.1296 -3.962044,-7.5487 -3.175307,-10.6092 0.240646,-0.9361 0.01311,-1.8435 -0.50564,-2.0164 -0.518747,-0.1729 -1.115561,-3.5695 -1.326253,-7.5479 l -0.383076,-7.2336 10.134804,0 c 9.987749,0 10.181399,0.045 13.346006,3.1124 3.82428,3.7067 6.82538,3.0508 3.2849,-0.7179 l -2.249515,-2.3945 14.674315,0 c 8.21875,0 14.67431,0.403 14.67431,0.916 0,0.5038 -1.8,2.3416 -4,4.084 -2.2,1.7424 -4,3.705 -4,4.3613 0,0.6564 -1.31054,2.3433 -2.91233,3.7489 -3.90489,3.4264 -2.73088,5.7909 1.72997,3.4841 1.69567,-0.8769 3.55539,-1.5943 4.1327,-1.5943 1.78688,0 1.15456,4.4534 -0.80618,5.6779 -2.56397,1.6012 -1.55088,8.4839 1.36586,9.2794 2.65476,0.724 6.48998,4.1593 6.48998,5.8132 0,0.7293 -1.37586,1.9046 -3.05748,2.6116 -2.69308,1.1324 -6.93921,6.6104 -5.13321,6.6225 0.37988,0 2.09488,1.3209 3.81111,2.9296 2.4042,2.2536 3.39503,2.6542 4.31683,1.7454 0.9263,-0.9133 1.12488,-0.2766 0.87958,2.8204 -0.29191,3.6855 -0.55274,4.0065 -3.31683,4.0825 -6.23204,0.1714 -7.50062,0.4526 -7.52223,1.6675 -0.0122,0.6875 -0.87779,2.3634 -1.92346,3.7243 -1.86959,2.433 -1.93577,2.4429 -3.97777,0.595 -1.8419,-1.6669 -2.07654,-1.6923 -2.07654,-0.2243 0,1.368 -1.11255,1.655 -6.41666,1.655 -4.22223,0 -6.573416,-0.4275 -6.875004,-1.25 -0.366666,-1 -0.723333,-1 -1.783333,0 -0.72875,0.6875 -3.71,1.25 -6.625,1.25 -4.633333,0 -5.3,-0.2516 -5.3,-2 z m 18.999997,-1.8 c 0,-1.4132 -2.3452,-3.2 -4.2,-3.2 -2.273674,0 -2.291058,0.9067 -0.05,2.608 1.96267,1.4898 4.25,1.8085 4.25,0.592 z m 0,-10.7 c 1.75179,-1.8647 1.96394,-2.5 0.83483,-2.5 -0.83259,0 -2.02638,1.125 -2.65287,2.5 -0.62649,1.375 -1.00217,2.5 -0.83483,2.5 0.16733,0 1.36113,-1.125 2.65287,-2.5 z m -2.16764,-8.551 c -0.58498,-1.6781 -1.19683,-2.9156 -1.35967,-2.75 -0.61943,0.6298 0.79961,5.801 1.59187,5.801 0.45727,0 0.35278,-1.373 -0.2322,-3.051 z m -1.83372,-23.9519 c -1.287281,-2.7484 -2.71359,-4.9971 -3.169574,-4.9971 -1.235637,0 -1.065746,0.5994 1.73817,6.1327 3.286124,6.4848 4.536144,5.4931 1.431404,-1.1356 z m 14.66364,-12.2471 c -0.27741,-0.6875 -0.50438,-0.125 -0.50438,1.25 0,1.375 0.22697,1.9375 0.50438,1.25 0.27742,-0.6875 0.27742,-1.8125 0,-2.5 z"
         id="path5280"
         inkscape:connector-curvature="0" />
      <path
         style="fill:#648ef0"
         d="m 85.500023,1069.2302 c 0,-2.1091 -1.454882,-2.691 -2.5,-1 -1.045562,1.6918 -3.659056,1.1078 -4.193802,-0.9371 -0.278609,-1.0654 -1.81148,-2.392 -3.40638,-2.948 -2.977956,-1.0381 -3.321924,-1.9372 -2.259059,-5.9049 0.770419,-2.8761 6.106615,-5.8626 7.674143,-4.2951 2.422619,2.4226 3.927991,1.2154 3.322959,-2.6649 -0.500845,-3.2121 -0.304273,-2.979 1.370362,1.6252 1.075296,2.9563 1.643243,5.8813 1.262106,6.5 -0.381138,0.6186 0.527119,0.3269 2.018347,-0.6483 1.491228,-0.9751 2.711324,-1.5376 2.711324,-1.25 0,0.2877 0.845013,-0.3219 1.877806,-1.3547 1.032793,-1.0328 4.970293,-2.8862 8.750001,-4.1187 9.57181,-3.1211 9.78743,-3.4045 8.30893,-10.9195 -0.99271,-5.0459 -1.51533,-6.0692 -2.82728,-5.5358 -0.8852,0.3599 -5.33049,1.9126 -9.878414,3.4505 -8.637394,2.9207 -13.231043,5.3624 -13.231043,7.0328 0,0.5571 -0.877746,0.4384 -2.019303,-0.273 -1.110616,-0.6922 -1.909347,-1.9335 -1.774958,-2.7585 0.134389,-0.825 -0.150673,-2.1308 -0.633473,-2.9017 -0.59267,-0.9464 -0.283441,-1.8363 0.951958,-2.7397 1.006376,-0.7359 1.637625,-1.4551 1.402775,-1.5983 -0.234849,-0.1431 -1.315545,-0.7521 -2.401546,-1.3532 -2.040827,-1.1296 -3.962044,-7.5487 -3.175307,-10.6092 0.240646,-0.9361 0.01311,-1.8435 -0.50564,-2.0164 -0.518747,-0.1729 -1.116806,-3.593 -1.329018,-7.6002 l -0.385842,-7.2857 10.435177,0.2177 c 5.739347,0.1198 10.435177,0.5933 10.435177,1.0522 0,0.459 -0.417004,0.8345 -0.926676,0.8345 -2.001447,0 -1.450751,3.5323 0.922533,5.9174 1.639182,1.6473 3.367673,2.408 5.00414,2.2023 3.235,-0.4066 3.53686,-0.7679 2.09394,-2.5065 -0.87312,-1.0521 -0.89108,-1.6205 -0.0673,-2.1297 0.75594,-0.4672 0.38747,-1.4782 -1.12576,-3.089 l -2.249515,-2.3945 14.674315,0 c 8.21875,0 14.67431,0.403 14.67431,0.916 0,0.5038 -1.8,2.3416 -4,4.084 -2.2,1.7424 -4,3.705 -4,4.3613 0,0.6564 -1.31054,2.3433 -2.91233,3.7489 -3.90489,3.4264 -2.73088,5.7909 1.72997,3.4841 1.69567,-0.8769 3.55539,-1.5943 4.1327,-1.5943 1.78688,0 1.15456,4.4534 -0.80618,5.6779 -2.56397,1.6012 -1.55088,8.4839 1.36586,9.2794 2.65476,0.724 6.48998,4.1593 6.48998,5.8132 0,0.7293 -1.37586,1.9046 -3.05748,2.6116 -2.69308,1.1324 -6.93921,6.6104 -5.13321,6.6225 0.37988,0 2.09488,1.3209 3.81111,2.9296 2.4042,2.2536 3.39503,2.6542 4.31683,1.7454 0.9263,-0.9133 1.12488,-0.2766 0.87958,2.8204 -0.29191,3.6855 -0.55274,4.0065 -3.31683,4.0825 -6.23204,0.1714 -7.50062,0.4526 -7.52223,1.6675 -0.0122,0.6875 -0.87779,2.3634 -1.92346,3.7243 -1.86959,2.433 -1.93577,2.4429 -3.97777,0.595 -1.8419,-1.6669 -2.07654,-1.6923 -2.07654,-0.2243 0,1.3703 -1.11834,1.655 -6.5,1.655 -6.514367,0 -8.694306,-1.4112 -4,-2.5894 4.93015,-1.2373 2.00147,-4.1853 -4.129812,-4.157 -3.695545,0.017 -4.298484,0.3728 -5.733821,3.3828 -1.193118,2.502 -2.24856,3.3636 -4.120185,3.3636 -1.849512,0 -2.516179,-0.5299 -2.516179,-2 z m 18.999997,-12.5 c 1.75179,-1.8647 1.96394,-2.5 0.83483,-2.5 -0.83259,0 -2.02638,1.125 -2.65287,2.5 -0.62649,1.375 -1.00217,2.5 -0.83483,2.5 0.16733,0 1.36113,-1.125 2.65287,-2.5 z m 3.92134,-25.353 c 0.86269,-1.612 0.66924,-1.7914 -1.48699,-1.3792 -1.97531,0.3776 -2.24624,0.7539 -1.33408,1.853 1.47074,1.7721 1.63371,1.7448 2.82107,-0.4738 z m -7.9227,-7.1499 c -1.287281,-2.7484 -2.71359,-4.9971 -3.169574,-4.9971 -1.235637,0 -1.065746,0.5994 1.73817,6.1327 3.286124,6.4848 4.536144,5.4931 1.431404,-1.1356 z m 14.66364,-12.2471 c -0.27741,-0.6875 -0.50438,-0.125 -0.50438,1.25 0,1.375 0.22697,1.9375 0.50438,1.25 0.27742,-0.6875 0.27742,-1.8125 0,-2.5 z m -20.849777,58.5669 c 0.721875,-0.2889 1.584375,-0.2534 1.916667,0.079 0.332291,0.3323 -0.258334,0.5687 -1.3125,0.5253 -1.164943,-0.048 -1.4019,-0.285 -0.604167,-0.6042 z"
         id="path5278"
         inkscape:connector-curvature="0" />
      <path
         style="fill:#446dec"
         d="m 85.500023,1069.2302 c 0,-2.1091 -1.454882,-2.691 -2.5,-1 -1.045562,1.6918 -3.659056,1.1078 -4.193802,-0.9371 -0.278609,-1.0654 -1.81148,-2.392 -3.40638,-2.948 -2.977956,-1.0381 -3.321924,-1.9372 -2.259059,-5.9049 0.770419,-2.8761 6.106615,-5.8626 7.674143,-4.2951 2.422619,2.4226 3.927991,1.2154 3.322959,-2.6649 -0.500845,-3.2121 -0.304273,-2.979 1.370362,1.6252 1.075296,2.9563 1.643243,5.8813 1.262106,6.5 -0.381138,0.6186 0.527119,0.3269 2.018347,-0.6483 1.491228,-0.9751 2.711324,-1.5376 2.711324,-1.25 0,0.2877 0.845013,-0.3219 1.877806,-1.3547 1.032793,-1.0328 4.970293,-2.8862 8.750001,-4.1187 9.57181,-3.1211 9.78743,-3.4045 8.30893,-10.9195 -0.99271,-5.0459 -1.51533,-6.0692 -2.82728,-5.5358 -0.8852,0.3599 -5.33049,1.9126 -9.878414,3.4505 -8.637394,2.9207 -13.231043,5.3624 -13.231043,7.0328 0,0.5571 -0.877746,0.4384 -2.019303,-0.273 -1.110616,-0.6922 -1.909347,-1.9335 -1.774958,-2.7585 0.134389,-0.825 -0.150673,-2.1308 -0.633473,-2.9017 -0.59267,-0.9464 -0.283441,-1.8363 0.951958,-2.7397 1.006376,-0.7359 1.637625,-1.4551 1.402775,-1.5983 -0.234849,-0.1431 -1.315545,-0.7521 -2.401546,-1.3532 -2.040827,-1.1296 -3.962044,-7.5487 -3.175307,-10.6092 0.240646,-0.9361 0.01311,-1.8435 -0.50564,-2.0164 -0.518747,-0.1729 -1.116806,-3.593 -1.329018,-7.6002 l -0.385842,-7.2857 10.435177,0.2177 c 5.739347,0.1198 10.435177,0.5933 10.435177,1.0522 0,0.459 -0.417004,0.8345 -0.926676,0.8345 -2.001447,0 -1.450751,3.5323 0.922533,5.9174 1.639182,1.6473 3.367673,2.408 5.00414,2.2023 3.235,-0.4066 3.53686,-0.7679 2.09394,-2.5065 -0.87312,-1.0521 -0.89108,-1.6205 -0.0673,-2.1297 0.75594,-0.4672 0.38747,-1.4782 -1.12576,-3.089 l -2.249515,-2.3945 14.674315,0 c 8.21875,0 14.67431,0.403 14.67431,0.916 0,0.5038 -1.8,2.3416 -4,4.084 -2.2,1.7424 -4,3.705 -4,4.3613 0,0.6564 -1.31054,2.3433 -2.91233,3.7489 -3.90489,3.4264 -2.73088,5.7909 1.72997,3.4841 1.69567,-0.8769 3.55539,-1.5943 4.1327,-1.5943 1.78688,0 1.15456,4.4534 -0.80618,5.6779 -2.56397,1.6012 -1.55088,8.4839 1.36586,9.2794 2.65476,0.724 6.48998,4.1593 6.48998,5.8132 0,0.7293 -1.37586,1.9046 -3.05748,2.6116 -2.69308,1.1324 -6.93921,6.6104 -5.13321,6.6225 0.37988,0 2.09488,1.3209 3.81111,2.9296 2.4042,2.2536 3.39503,2.6542 4.31683,1.7454 0.9263,-0.9133 1.12488,-0.2766 0.87958,2.8204 -0.29191,3.6855 -0.55274,4.0065 -3.31683,4.0825 -6.23204,0.1714 -7.50062,0.4526 -7.52223,1.6675 -0.0122,0.6875 -0.87779,2.3634 -1.92346,3.7243 -1.86959,2.433 -1.93577,2.4429 -3.97777,0.595 -1.8419,-1.6669 -2.07654,-1.6923 -2.07654,-0.2243 0,1.3703 -1.11834,1.655 -6.5,1.655 -6.514367,0 -8.694306,-1.4112 -4,-2.5894 4.93015,-1.2373 2.00147,-4.1853 -4.129812,-4.157 -3.695545,0.017 -4.298484,0.3728 -5.733821,3.3828 -1.193118,2.502 -2.24856,3.3636 -4.120185,3.3636 -1.849512,0 -2.516179,-0.5299 -2.516179,-2 z m -3.5,-2 c 0.339919,-0.55 0.141476,-1 -0.440983,-1 -0.582459,0 -1.059017,0.45 -1.059017,1 0,0.55 0.198442,1 0.440983,1 0.242541,0 0.719098,-0.45 1.059017,-1 z m 21.932197,-9.5 c 1.71849,-2.253 2.19386,-3.5 1.3343,-3.5 -1.17668,0 -4.7665,4.8233 -4.7665,6.4043 0,1.2109 0.82742,0.5107 3.4322,-2.9043 z m 4.48914,-26.353 c 0.86269,-1.612 0.66924,-1.7914 -1.48699,-1.3792 -1.97531,0.3776 -2.24624,0.7539 -1.33408,1.853 1.47074,1.7721 1.63371,1.7448 2.82107,-0.4738 z m -7.85447,-7.491 c -1.097684,-2.5608 -2.461784,-4.656 -3.03133,-4.656 -1.466995,0 -1.35256,0.4438 1.620273,6.2832 3.173787,6.2342 4.249247,4.994 1.411057,-1.6272 z m -15.066867,2.903 c 0,-0.2425 -0.45,-0.7191 -1,-1.059 -0.55,-0.3399 -1,-0.1415 -1,0.441 0,0.5824 0.45,1.059 1,1.059 0.55,0 1,-0.1984 1,-0.441 z m 29.662277,-14.809 c -0.27741,-0.6875 -0.50438,-0.125 -0.50438,1.25 0,1.375 0.22697,1.9375 0.50438,1.25 0.27742,-0.6875 0.27742,-1.8125 0,-2.5 z m -26.662277,-2.309 c 0,-0.8575 -0.45734,-1.2764 -1.016312,-0.9309 -0.558971,0.3454 -0.757414,1.047 -0.440983,1.559 0.85724,1.387 1.457295,1.1284 1.457295,-0.6281 z"
         id="path5276"
         inkscape:connector-curvature="0" />
      <path
         style="fill:#3a5ed0"
         d="m 85.500023,1069.2302 c 0,-2.1091 -1.454882,-2.691 -2.5,-1 -1.045562,1.6918 -3.659056,1.1078 -4.193802,-0.9371 -0.278609,-1.0654 -1.81148,-2.392 -3.40638,-2.948 -2.977956,-1.0381 -3.321924,-1.9372 -2.259059,-5.9049 0.770419,-2.8761 6.106615,-5.8626 7.674143,-4.2951 2.422619,2.4226 3.927991,1.2154 3.322959,-2.6649 -0.500845,-3.2121 -0.304273,-2.979 1.370362,1.6252 1.075296,2.9563 1.712622,5.7675 1.416281,6.247 -0.934335,1.5117 4.406622,-0.9533 6.413368,-2.9601 1.054757,-1.0547 5.010227,-2.9261 8.789935,-4.1586 9.56059,-3.1174 9.78598,-3.4118 8.31937,-10.8665 -0.66406,-3.3753 -1.31888,-6.137 -1.45516,-6.137 -0.13627,0 -1.91076,0.6948 -3.9433,1.5441 -2.03254,0.8492 -4.67499,1.2698 -5.872121,0.9345 -1.720083,-0.4818 -1.86199,-0.3893 -0.676596,0.4406 1.229383,0.8607 1.048972,1.0814 -1,1.223 -1.375,0.095 -3.0925,0.147 -3.816667,0.1153 -0.724166,-0.032 -1.082337,0.1768 -0.795934,0.4632 0.286403,0.2864 -1.709882,1.6323 -4.436189,2.9909 -2.726307,1.3586 -4.683547,2.9125 -4.349423,3.4531 0.334125,0.5406 -0.348276,0.3872 -1.516447,-0.3409 -1.16817,-0.7281 -2.01399,-1.9988 -1.879601,-2.8238 0.134389,-0.825 -0.150673,-2.1308 -0.633473,-2.9017 -0.59267,-0.9464 -0.283441,-1.8363 0.951958,-2.7397 1.006376,-0.7359 1.637625,-1.4551 1.402775,-1.5983 -0.234849,-0.1431 -1.315545,-0.7521 -2.401546,-1.3532 -2.055468,-1.1378 -3.960294,-7.5561 -3.162769,-10.6571 0.247542,-0.9625 0.04221,-1.75 -0.456304,-1.75 -0.498509,0 -0.90638,-0.4658 -0.90638,-1.0352 0,-0.7018 0.644008,-0.6905 2,0.035 2.695403,1.4425 2.527698,0.2184 -0.333333,-2.4331 -1.807043,-1.6747 -2.333334,-3.2231 -2.333334,-6.8647 0,-4.4965 0.123925,-4.7022 2.833334,-4.7022 1.851852,0 2.833333,0.5196 2.833333,1.5 0,1.6982 -1.565931,2.0114 -2.5,0.5 -0.817001,-1.3219 -2.5,-1.2822 -2.5,0.059 0,0.5825 0.453178,0.779 1.007063,0.4366 0.553884,-0.3423 1.281437,0.093 1.616783,0.9665 0.471549,1.2289 0.923177,1.3288 1.992937,0.441 0.760769,-0.6314 1.383217,-1.7232 1.383217,-2.4262 0,-0.9221 1.950264,-1.2602 7,-1.2133 3.85,0.036 7,0.4411 7,0.9007 0,0.4597 -0.417004,0.8357 -0.926676,0.8357 -2.001447,0 -1.450751,3.5323 0.922533,5.9174 1.639182,1.6473 3.367673,2.408 5.00414,2.2023 3.235,-0.4066 3.53686,-0.7679 2.09394,-2.5065 -0.87312,-1.0521 -0.89108,-1.6205 -0.0673,-2.1297 0.75594,-0.4672 0.38747,-1.4782 -1.12576,-3.089 l -2.249515,-2.3945 14.674315,0 c 8.21875,0 14.67431,0.403 14.67431,0.916 0,0.5038 -1.8,2.3416 -4,4.084 -2.2,1.7424 -4,3.705 -4,4.3613 0,0.6564 -1.31054,2.3433 -2.91233,3.7489 -3.90489,3.4264 -2.73088,5.7909 1.72997,3.4841 1.69567,-0.8769 3.55539,-1.5943 4.1327,-1.5943 1.78688,0 1.15456,4.4534 -0.80618,5.6779 -2.56397,1.6012 -1.55088,8.4839 1.36586,9.2794 2.59617,0.708 6.48998,4.1457 6.48998,5.7298 0,1.3332 -3.06273,3.3129 -5.12539,3.3129 -0.69845,0 -0.39445,-0.6523 0.68426,-1.4682 1.06762,-0.8075 1.40519,-1.4825 0.75015,-1.5 -1.41136,-0.038 -2.63543,1.7241 -3.04999,4.3897 -0.16435,1.0568 -0.79497,2.5193 -1.40137,3.25 -0.6064,0.7307 -0.70995,1.3306 -0.2301,1.3331 0.47984,0 2.27663,1.3209 3.99286,2.9296 2.4042,2.2536 3.39503,2.6542 4.31683,1.7454 0.9263,-0.9133 1.12488,-0.2766 0.87958,2.8204 -0.29191,3.6855 -0.55274,4.0065 -3.31683,4.0825 -6.23204,0.1714 -7.50062,0.4526 -7.52223,1.6675 -0.0122,0.6875 -0.87779,2.3634 -1.92346,3.7243 -1.86959,2.433 -1.93577,2.4429 -3.97777,0.595 -1.8419,-1.6669 -2.07654,-1.6923 -2.07654,-0.2243 0,1.3703 -1.11834,1.655 -6.5,1.655 -6.514367,0 -8.694306,-1.4112 -4,-2.5894 4.93015,-1.2373 2.00147,-4.1853 -4.129812,-4.157 -3.695545,0.017 -4.298484,0.3728 -5.733821,3.3828 -1.193118,2.502 -2.24856,3.3636 -4.120185,3.3636 -1.849512,0 -2.516179,-0.5299 -2.516179,-2 z m -3,-4.1911 c 0,-2.968 -0.0971,-3.0584 -1.388757,-1.2919 -1.411234,1.93 -1.128911,4.483 0.495746,4.483 0.491156,0 0.893011,-1.436 0.893011,-3.1911 z m -3.805485,-2.5774 c -0.663837,-0.2213 -0.952615,-0.8139 -0.641729,-1.3169 0.310887,-0.503 0.08869,-0.9146 -0.493769,-0.9146 -1.156153,0 -1.445499,2.2802 -0.419537,3.3061 0.351714,0.3518 1.11705,0.3444 1.700746,-0.016 0.716041,-0.4425 0.668642,-0.7867 -0.145711,-1.0582 z m 13.805485,0.8755 c 0,-0.4912 -0.652083,-1.1433 -1.449072,-1.4491 -0.968522,-0.3716 -1.264668,-0.075 -0.893012,0.893 0.606968,1.5818 2.342084,1.9937 2.342084,0.5561 z m 5.25,-0.7693 c -0.6875,-0.2774 -1.8125,-0.2774 -2.5,0 -0.6875,0.2774 -0.125,0.5044 1.25,0.5044 1.375,0 1.9375,-0.227 1.25,-0.5044 z m 6.182197,-4.8377 c 1.71849,-2.253 2.19386,-3.5 1.3343,-3.5 -1.17668,0 -4.7665,4.8233 -4.7665,6.4043 0,1.2109 0.82742,0.5107 3.4322,-2.9043 z m -22.432197,-0.893 c 0,-1.8901 -2.706973,-2.813 -3.34834,-1.1416 -0.605145,1.577 0.156172,2.5346 2.015007,2.5346 0.733333,0 1.333333,-0.6269 1.333333,-1.393 z m 39.683117,-8.7945 c -0.31923,-0.7977 -0.55619,-0.5608 -0.60417,0.6042 -0.0434,1.0541 0.19293,1.6448 0.52522,1.3125 0.33229,-0.3323 0.36782,-1.1948 0.0789,-1.9167 z m -36.111386,-11.5741 c -0.332785,-0.3328 -1.156303,-0.054 -1.830038,0.6199 -0.966633,0.9666 -0.910394,1.4215 0.266666,2.157 1.062622,0.664 1.588969,0.4857 1.830038,-0.6199 0.186119,-0.8536 0.06612,-1.8242 -0.266666,-2.157 z m 23.349606,-5.0914 c 0.86269,-1.612 0.66924,-1.7914 -1.48699,-1.3792 -1.97531,0.3776 -2.24624,0.7539 -1.33408,1.853 1.47074,1.7721 1.63371,1.7448 2.82107,-0.4738 z m -7.38383,-6.3555 c -1.641314,-4.1122 -2.72152,-5.4704 -6.992447,-8.7915 -1.142604,-0.8885 -1.622832,-0.9904 -1.178001,-0.25 0.506414,0.8429 0.06122,1.25 -1.367059,1.25 -1.270534,0 -1.849193,0.435 -1.446158,1.0871 0.369532,0.5979 1.471275,0.8781 2.448319,0.6226 2.554846,-0.6681 3.412937,0.1507 6.433926,6.1397 3.14759,6.24 4.59912,6.2 2.10142,-0.058 z m -21.854393,1.021 c -0.319226,-0.7977 -0.556183,-0.5608 -0.604167,0.6042 -0.04342,1.0541 0.192928,1.6448 0.52522,1.3125 0.332291,-0.3323 0.367818,-1.1948 0.07895,-1.9167 z m 6.316886,0.6875 c -0.684689,-0.825 -1.694889,-1.5 -2.244889,-1.5 -0.557827,0 -0.449544,0.6633 0.244889,1.5 0.684689,0.825 1.694889,1.5 2.244889,1.5 0.557827,0 0.449544,-0.6633 -0.244889,-1.5 z m -2.307009,-7.231 c -0.253544,-0.9729 -0.477663,-0.419 -0.498042,1.231 -0.02038,1.65 0.187065,2.4461 0.460988,1.769 0.273923,-0.677 0.290597,-2.027 0.03705,-3 z m 3.307009,0.29 c 0,-0.2425 -0.45,-0.7191 -1,-1.059 -0.55,-0.3399 -1,-0.1415 -1,0.441 0,0.5824 0.45,1.059 1,1.059 0.55,0 1,-0.1984 1,-0.441 z m -7.336834,-2.9944 c -0.302947,-0.7895 -0.114842,-1.6557 0.418011,-1.925 0.532853,-0.2693 0.395073,-0.3736 -0.306177,-0.2317 -1.634701,0.3306 -2.307805,3.5921 -0.741335,3.5921 0.649172,0 0.932447,-0.6459 0.629501,-1.4354 z m 11.19645,-5.4 c -0.479642,-0.1845 -0.637739,-0.7146 -0.351326,-1.178 0.816931,-1.3218 -3.58014,-2.3147 -4.808953,-1.0859 -0.799116,0.7991 -0.62832,1.0993 0.625414,1.0993 0.951757,0 2.211194,1.2325 2.810133,2.75 1.005921,2.5487 1.140709,2.6036 1.841096,0.75 0.415643,-1.1 0.363279,-2.1509 -0.116364,-2.3354 z m 24.802661,0.5854 c -0.27741,-0.6875 -0.50438,-0.125 -0.50438,1.25 0,1.375 0.22697,1.9375 0.50438,1.25 0.27742,-0.6875 0.27742,-1.8125 0,-2.5 z m -27.662277,0.75 c 0,-1.6156 -4.483262,-2.1451 -5.413797,-0.6395 -0.790331,1.2788 0.448916,2.1395 3.080464,2.1395 1.407407,0 2.333333,-0.5952 2.333333,-1.5 z"
         id="path5274"
         inkscape:connector-curvature="0" />
      <path
         style="fill:#a6a600"
         d="m 85.500023,1068.1194 0,-3.1108 -1.844242,2.2776 c -1.911945,2.3611 -5.169863,2.1871 -5.140445,-0.2746 0.01145,-0.9582 0.238205,-0.9294 0.899075,0.1143 1.33175,2.1032 3.57258,0.7127 4.071975,-2.5268 0.243239,-1.5779 0.443125,-5.9373 0.444191,-9.6875 l 0.0019,-6.8185 1.765406,5.1937 c 0.970974,2.8566 1.572428,5.506 1.336566,5.8876 -0.235862,0.3817 0.897395,0.4993 2.518348,0.2614 1.620992,-0.2379 2.947226,-1.045 2.947226,-1.7934 0,-1.6237 3.520417,-3.5102 10.999997,-5.8945 8.05237,-2.567 8.38627,-3.0659 6.94717,-10.3807 -0.66405,-3.3753 -1.31887,-6.137 -1.45515,-6.137 -0.13627,0 -1.91076,0.6948 -3.9433,1.5441 -2.03254,0.8492 -4.67499,1.2698 -5.872121,0.9345 -1.720083,-0.4818 -1.86199,-0.3893 -0.676596,0.4406 1.293046,0.9053 1.258553,1.0523 -0.25,1.0655 -0.9625,0.01 -1.75,-0.4677 -1.75,-1.058 0,-0.5904 -0.7875,-0.9217 -1.75,-0.7363 -0.9625,0.1853 -1.75,0.9934 -1.75,1.7957 0,0.8023 -2.138785,2.5245 -4.752856,3.8272 -2.729948,1.3604 -4.473069,2.8211 -4.095491,3.4321 0.390509,0.6318 0.182073,0.7699 -0.513456,0.34 -0.643952,-0.398 -0.86466,-1.219 -0.490464,-1.8244 0.422615,-0.6838 0.1131,-0.8832 -0.817021,-0.5263 -0.896348,0.344 -1.497379,0.01 -1.497379,-0.8445 0,-0.9813 0.640379,-1.2159 2.075492,-0.7604 1.828287,0.5802 1.914046,0.4642 0.720026,-0.9745 -0.745506,-0.8983 -1.723382,-1.4059 -2.17306,-1.128 -1.381347,0.8537 -2.255838,-1.6278 -1.009413,-2.8644 0.894298,-0.8873 1.001796,-0.6889 0.453538,0.8371 -0.395216,1.1 -0.362709,1.6783 0.07224,1.2852 0.434947,-0.3932 1.631646,-0.2648 2.65933,0.2852 1.630137,0.8724 1.868514,0.6203 1.868514,-1.9762 0,-1.6369 -0.519529,-3.2973 -1.154508,-3.6897 -0.68907,-0.4259 -0.884068,-0.2759 -0.483689,0.3719 0.368952,0.597 0.260634,1.3389 -0.240706,1.6488 -0.50134,0.3098 -1.180502,-0.1376 -1.509249,-0.9943 -0.328747,-0.8567 -0.999913,-1.3091 -1.491478,-1.0053 -1.40971,0.8713 -2.834062,-1.5606 -3.586343,-6.1232 -0.707395,-4.2903 0.553414,-8.588 1.886607,-6.4308 0.38357,0.6206 0.189544,1.1284 -0.431168,1.1284 -0.620712,0 -0.98477,0.9178 -0.809017,2.0396 0.175753,1.1218 0.769551,1.9093 1.319551,1.75 1.27861,-0.3703 1.346928,-6.0718 0.08344,-6.9634 -0.592838,-0.4183 -0.537552,-1.1766 0.145827,-2 0.605362,-0.7294 1.147943,-1.7762 1.205734,-2.3262 0.05779,-0.55 2.451222,-1 5.318735,-1 5.986299,0 7.3288,-1.9175 3.807748,-5.4385 -1.620437,-1.6205 -1.733849,-2.0615 -0.530099,-2.0615 0.842261,0 1.785969,0.6634 2.097127,1.4743 0.494935,1.2898 0.756225,1.2838 2.087663,-0.048 0.837056,-0.8371 1.792817,-1.251 2.123912,-0.9199 0.331096,0.331 0.119999,0.915 -0.469103,1.2976 -3.515051,2.2828 0.965388,8.9015 5.629013,8.3153 3.235,-0.4066 3.53686,-0.7679 2.09394,-2.5065 -0.87312,-1.0521 -0.89108,-1.6205 -0.0673,-2.1297 0.75594,-0.4672 0.38747,-1.4782 -1.12576,-3.089 l -2.249515,-2.3945 14.674315,0 c 8.21875,0 14.67431,0.403 14.67431,0.916 0,0.5038 -1.8,2.3416 -4,4.084 -2.2,1.7424 -4,3.705 -4,4.3613 0,0.6564 -1.31054,2.3433 -2.91233,3.7489 -3.90489,3.4264 -2.73088,5.7909 1.72997,3.4841 1.69567,-0.8769 3.55539,-1.5943 4.1327,-1.5943 1.81653,0 1.13886,4.4632 -0.86796,5.7165 -1.05469,0.6586 -1.75679,2.0044 -1.56023,2.9905 1.35114,6.7785 1.54424,7.2048 3.00927,6.6426 0.86994,-0.3339 2.56151,0.4706 3.98696,1.896 l 2.47591,2.476 -2.42622,-0.4638 c -1.56729,-0.2996 -2.23645,-0.9584 -1.89016,-1.8608 0.29484,-0.7684 -0.0109,-1.397 -0.67933,-1.397 -0.79708,0 -0.99943,0.8605 -0.58793,2.5 0.53059,2.1141 0.27717,2.5024 -1.64159,2.5153 -1.83177,0.012 -1.97998,0.2021 -0.76906,0.9847 0.825,0.5332 1.05,0.9832 0.5,1 -0.55,0.017 -0.45269,0.3784 0.21623,0.8035 0.94212,0.5986 0.89914,1.384 -0.19069,3.4846 -0.77381,1.4916 -1.09612,2.714 -0.71623,2.7165 0.37988,0 2.09488,1.3209 3.81111,2.9296 2.4042,2.2536 3.39503,2.6542 4.31683,1.7454 0.9263,-0.9133 1.12488,-0.2766 0.87958,2.8204 -0.29191,3.6855 -0.55274,4.0065 -3.31683,4.0825 -6.23204,0.1714 -7.50062,0.4526 -7.52223,1.6675 -0.0122,0.6875 -0.87779,2.3634 -1.92346,3.7243 -1.86959,2.433 -1.93577,2.4429 -3.97777,0.595 -1.8419,-1.6669 -2.07654,-1.6923 -2.07654,-0.2243 0,1.3703 -1.11834,1.655 -6.5,1.655 -6.514367,0 -8.694306,-1.4112 -4,-2.5894 1.375,-0.3451 2.5,-0.9735 2.5,-1.3966 0,-1.7462 -3.13695,-3.2036 -5.737011,-2.6654 -1.519642,0.3146 -2.200486,0.3274 -1.512986,0.028 1.973606,-0.8584 1.456735,-2.377 -0.809017,-2.377 -1.132459,0 -1.780902,0.45 -1.440983,1 0.339919,0.55 0.224822,1 -0.255771,1 -0.480592,0 -1.62487,1.575 -2.542838,3.5 -1.254376,2.6305 -2.294158,3.5 -4.185212,3.5 -2.149001,0 -2.516179,-0.4539 -2.516179,-3.1108 z m 7.391296,-5.3119 c -0.487377,-1.2701 -3.391296,-3.092 -3.391296,-2.1277 0,1.553 1.448989,3.5504 2.575604,3.5504 0.766603,0 1.123056,-0.6217 0.815692,-1.4227 z m 11.040901,-5.0773 c 1.71849,-2.253 2.19386,-3.5 1.3343,-3.5 -1.17668,0 -4.7665,4.8233 -4.7665,6.4043 0,1.2109 0.82742,0.5107 3.4322,-2.9043 z m 17.87062,-8.9863 c 0.10845,-0.5425 -0.59032,-1.138 -1.55282,-1.3233 -1.0946,-0.2108 -1.75,0.2796 -1.75,1.3096 0,1.7398 2.9553,1.752 3.30282,0.014 z M 82.500023,1032.489 c -0.825,-0.3208 -2.048188,-1.2978 -2.718197,-2.171 -0.670008,-0.8733 -1.232508,-1.1153 -1.25,-0.5378 -0.04745,1.5665 2.154458,3.4609 3.918197,3.3711 1.346897,-0.069 1.353449,-0.1554 0.05,-0.6623 z m 25.921337,-1.1118 c 0.86269,-1.612 0.66924,-1.7914 -1.48699,-1.3792 -1.97531,0.3776 -2.24624,0.7539 -1.33408,1.853 1.47074,1.7721 1.63371,1.7448 2.82107,-0.4738 z m -21.921337,-5.1052 c 0,-0.573 -0.413196,-1.0418 -0.918213,-1.0418 -0.505016,0 -1.517516,-0.23 -2.25,-0.5111 -1.169419,-0.4487 -1.626295,2.5117 -0.956787,6.1997 0.184198,1.0146 4.125,-3.4246 4.125,-4.6468 z m 14.547437,-1.2503 c -0.93661,-2.3603 -2.992001,-5.4799 -4.567537,-6.9325 -1.575535,-1.4525 -2.566766,-2.9388 -2.202736,-3.3028 0.364031,-0.3641 -0.109324,-0.366 -1.051901,0 -0.942577,0.3617 -1.510207,0.9871 -1.2614,1.3896 0.248806,0.4026 -0.935242,0.6494 -2.63122,0.5485 -4.432734,-0.2637 -7.815541,1.578 -7.824841,4.26 -0.0081,2.3252 1.398978,3.0189 2.502279,1.2337 0.345464,-0.559 1.058171,-0.7505 1.583794,-0.4257 0.525623,0.3249 0.891239,0.2197 0.812481,-0.2337 -0.07876,-0.4534 -0.08991,-1.4419 -0.02478,-2.1967 0.100372,-1.1633 0.376306,-1.1633 1.810379,0 1.120258,0.9087 1.440601,0.9539 0.948063,0.1339 -0.49901,-0.8309 -0.251804,-1.0498 0.750944,-0.665 1.158996,0.4448 1.282474,1.1724 0.549599,3.2386 l -0.945238,2.6649 2.289903,-2.75 c 1.259447,-1.5125 2.741756,-2.75 3.294021,-2.75 0.552264,0 2.244259,2.5286 3.759988,5.6191 3.164612,6.4525 4.749342,6.5762 2.208202,0.1724 z m -12.740565,-3.318 c -0.307887,-0.3078 -0.867048,0.2472 -1.242579,1.2334 -0.542685,1.4252 -0.427821,1.54 0.559795,0.5598 0.683418,-0.6784 0.990671,-1.4853 0.682784,-1.7932 z m 26.855405,-9.7235 c -0.27741,-0.6875 -0.50438,-0.125 -0.50438,1.25 0,1.375 0.22697,1.9375 0.50438,1.25 0.27742,-0.6875 0.27742,-1.8125 0,-2.5 z m -39.078944,52.5 c -0.4125,-0.4125 -1.2625,-0.75 -1.888889,-0.75 -1.021257,0 -1.172857,-1.1225 -0.805555,-5.9648 0.06111,-0.8057 1.011111,-1.9465 2.111111,-2.5352 1.587874,-0.8498 2,-0.7605 2,0.4334 0,0.98 -0.609579,1.3077 -1.75,0.9409 -1.477138,-0.4752 -1.516118,-0.3947 -0.25,0.5161 1.85018,1.3309 5.679944,1.4365 6.457713,0.178 0.316661,-0.5123 -0.43191,-1.6373 -1.663489,-2.5 -1.23158,-0.8626 -1.801609,-1.5541 -1.26673,-1.5366 1.458711,0.048 4.472506,2.545 4.472506,3.706 0,0.5595 -0.695479,1.5945 -1.545509,2.3 -0.85003,0.7054 -1.335195,1.8307 -1.078145,2.5006 0.893955,2.3296 -2.982146,4.5225 -4.793013,2.7116 z m 3.416667,-1.6276 c 0,-1.8572 -2.648901,-3.9995 -3.414217,-2.7612 -0.887576,1.4361 0.432289,4.1388 2.021206,4.1388 0.766156,0 1.393011,-0.6199 1.393011,-1.3776 z m 46.083337,-16.9869 c 0.22916,-0.2005 1.54166,-0.9004 2.91666,-1.5552 2.35727,-1.1227 2.38918,-1.1018 0.55887,0.3645 -1.593,1.2763 -4.84786,2.3913 -3.47553,1.1907 z m -50.083337,-28.6355 c -0.793144,-0.4902 -1.217079,-1.1163 -0.942079,-1.3913 0.275,-0.275 1.148935,-0.099 1.942079,0.3913 0.793144,0.4902 1.217079,1.1163 0.942079,1.3913 -0.275,0.275 -1.148935,0.099 -1.942079,-0.3913 z m 0.160515,-5.5471 c -1.414594,-3.1046 -1.472697,-4.4529 -0.1919,-4.4529 0.532739,0 0.752409,0.5634 0.488156,1.2521 -0.264252,0.6886 0.409932,1.8081 1.498188,2.4877 1.694877,1.0585 2.335431,0.8789 4.46639,-1.2521 2.703066,-2.703 5.752658,-3.6072 3.659358,-1.0849 -0.6403,0.7715 -0.807901,1.5977 -0.372445,1.8361 0.435456,0.2383 0.271518,0.3124 -0.364306,0.1646 -0.635824,-0.1477 -1.943069,0.601 -2.904988,1.6639 -2.409419,2.6624 -4.896311,2.419 -6.278453,-0.6145 z"
         id="path5272"
         inkscape:connector-curvature="0" />
      <path
         style="fill:#2f4ca8"
         d="m 99.500023,1070.2493 c 0,-0.5396 1.124997,-1.2634 2.499997,-1.6085 1.375,-0.3451 2.5,-0.9735 2.5,-1.3966 0,-1.7462 -3.13695,-3.2036 -5.737011,-2.6654 -1.519642,0.3146 -2.200486,0.3274 -1.512986,0.028 1.973606,-0.8584 1.456735,-2.377 -0.809017,-2.377 -1.132459,0 -1.780902,0.45 -1.440983,1 0.339919,0.55 0.163837,1 -0.391293,1 -0.55513,0 -1.369187,-0.6024 -1.809017,-1.3387 -0.439829,-0.7363 -1.69969,-1.8476 -2.79969,-2.4696 -1.944404,-1.0994 -1.937455,-1.1317 0.25,-1.1613 1.302165,-0.018 2.25,-0.6515 2.25,-1.5047 0,-1.7706 3.498488,-3.6636 11.264387,-6.0952 3.17041,-0.9926 6.3842,-2.5081 7.14174,-3.3677 0.75754,-0.8595 1.86754,-4.9378 2.46667,-9.0628 0.59913,-4.125 1.3953,-8.8421 1.76927,-10.4824 0.6304,-2.7651 0.56035,-2.8629 -0.96124,-1.3413 -0.90266,0.9027 -3.48574,1.9528 -5.74018,2.3337 l -4.09899,0.6925 2.23877,2.3831 2.23878,2.3831 -3.73301,1.5597 c -2.05315,0.8579 -4.71247,1.2855 -5.909601,0.9502 -1.720083,-0.4818 -1.86199,-0.3893 -0.676596,0.4406 1.293046,0.9053 1.258553,1.0523 -0.25,1.0655 -0.9625,0.01 -1.75,-0.4677 -1.75,-1.058 0,-0.5904 -0.7875,-0.9217 -1.75,-0.7363 -0.9625,0.1853 -1.75,0.9934 -1.75,1.7957 0,0.8023 -2.138785,2.5245 -4.752856,3.8272 -2.729948,1.3604 -4.473069,2.8211 -4.095491,3.4321 0.390509,0.6318 0.182073,0.7699 -0.513456,0.34 -0.643952,-0.398 -0.86466,-1.219 -0.490464,-1.8244 0.422615,-0.6838 0.1131,-0.8832 -0.817021,-0.5263 -0.896348,0.344 -1.497379,0.01 -1.497379,-0.8445 0,-0.9813 0.640379,-1.2159 2.075492,-0.7604 1.828287,0.5802 1.914046,0.4642 0.720026,-0.9745 -0.745506,-0.8983 -1.723382,-1.4059 -2.17306,-1.128 -1.381347,0.8537 -2.255838,-1.6278 -1.009413,-2.8644 0.894298,-0.8873 1.001796,-0.6889 0.453538,0.8371 -0.395216,1.1 -0.362709,1.6783 0.07224,1.2852 0.434947,-0.3932 1.631646,-0.2648 2.65933,0.2852 1.630137,0.8724 1.868514,0.6203 1.868514,-1.9762 0,-1.6369 -0.519529,-3.2973 -1.154508,-3.6897 -0.68907,-0.4259 -0.884068,-0.2759 -0.483689,0.3719 0.368952,0.597 0.260634,1.3389 -0.240706,1.6488 -0.50134,0.3098 -1.180502,-0.1376 -1.509249,-0.9943 -0.328747,-0.8567 -0.999913,-1.3091 -1.491478,-1.0053 -1.40971,0.8713 -2.834062,-1.5606 -3.586343,-6.1232 -0.707395,-4.2903 0.553414,-8.588 1.886607,-6.4308 0.38357,0.6206 0.189544,1.1284 -0.431168,1.1284 -0.620712,0 -0.98477,0.9178 -0.809017,2.0396 0.175753,1.1218 0.769551,1.9093 1.319551,1.75 1.27861,-0.3703 1.346928,-6.0718 0.08344,-6.9634 -0.592838,-0.4183 -0.537552,-1.1766 0.145827,-2 0.605362,-0.7294 1.147943,-1.7762 1.205734,-2.3262 0.05779,-0.55 2.451222,-1 5.318735,-1 5.986299,0 7.3288,-1.9175 3.807748,-5.4385 -1.620437,-1.6205 -1.733849,-2.0615 -0.530099,-2.0615 0.842261,0 1.785969,0.6634 2.097127,1.4743 0.494935,1.2898 0.756225,1.2838 2.087663,-0.048 0.837056,-0.8371 1.792817,-1.251 2.123912,-0.9199 0.331096,0.331 0.119999,0.915 -0.469103,1.2976 -3.515051,2.2828 0.965388,8.9015 5.629013,8.3153 3.235,-0.4066 3.53686,-0.7679 2.09394,-2.5065 -0.87312,-1.0521 -0.89108,-1.6205 -0.0673,-2.1297 0.75594,-0.4672 0.38747,-1.4782 -1.12576,-3.089 l -2.249515,-2.3945 14.674315,0 c 8.21875,0 14.67431,0.403 14.67431,0.916 0,0.5038 -1.8,2.3416 -4,4.084 -2.2,1.7424 -4,3.705 -4,4.3613 0,0.6564 -1.31054,2.3433 -2.91233,3.7489 -3.90489,3.4264 -2.73088,5.7909 1.72997,3.4841 1.69567,-0.8769 3.55539,-1.5943 4.1327,-1.5943 1.81653,0 1.13886,4.4632 -0.86796,5.7165 -1.05469,0.6586 -1.75679,2.0044 -1.56023,2.9905 1.35114,6.7785 1.54424,7.2048 3.00927,6.6426 0.86994,-0.3339 2.56151,0.4706 3.98696,1.896 l 2.47591,2.476 -2.42622,-0.4638 c -1.56729,-0.2996 -2.23645,-0.9584 -1.89016,-1.8608 0.29484,-0.7684 -0.0109,-1.397 -0.67933,-1.397 -0.79708,0 -0.99943,0.8605 -0.58793,2.5 0.53059,2.1141 0.27717,2.5024 -1.64159,2.5153 -1.83177,0.012 -1.97998,0.2021 -0.76906,0.9847 0.825,0.5332 1.05,0.9832 0.5,1 -0.55,0.017 -0.45269,0.3784 0.21623,0.8035 0.94212,0.5986 0.89914,1.384 -0.19069,3.4846 -0.77381,1.4916 -1.09612,2.714 -0.71623,2.7165 0.37988,0 2.09488,1.3209 3.81111,2.9296 2.4042,2.2536 3.39503,2.6542 4.31683,1.7454 0.9263,-0.9133 1.12488,-0.2766 0.87958,2.8204 -0.29191,3.6855 -0.55274,4.0065 -3.31683,4.0825 -6.23204,0.1714 -7.50062,0.4526 -7.52223,1.6675 -0.0122,0.6875 -0.87779,2.3634 -1.92346,3.7243 -1.86959,2.433 -1.93577,2.4429 -3.97777,0.595 -1.8419,-1.6669 -2.07654,-1.6923 -2.07654,-0.2243 0,1.3703 -1.11834,1.655 -6.5,1.655 -3.5825,0 -6.499997,-0.4403 -6.499997,-0.9809 z M 104.52156,1057.2 c 1.72942,-2.4288 1.83366,-2.9698 0.57224,-2.9698 -1.31508,0 -4.59378,4.6459 -4.59378,6.5094 0,1.1196 1.8857,-0.5401 4.02154,-3.5396 z m 17.28128,-8.4561 c 0.10845,-0.5425 -0.59032,-1.138 -1.55282,-1.3233 -1.0946,-0.2108 -1.75,0.2796 -1.75,1.3096 0,1.7398 2.9553,1.752 3.30282,0.014 z M 82.500023,1032.489 c -0.825,-0.3208 -2.048188,-1.2978 -2.718197,-2.171 -0.670008,-0.8733 -1.232508,-1.1153 -1.25,-0.5378 -0.04745,1.5665 2.154458,3.4609 3.918197,3.3711 1.346897,-0.069 1.353449,-0.1554 0.05,-0.6623 z m 4,-6.217 c 0,-0.573 -0.413196,-1.0418 -0.918213,-1.0418 -0.505016,0 -1.517516,-0.23 -2.25,-0.5111 -1.169419,-0.4487 -1.626295,2.5117 -0.956787,6.1997 0.184198,1.0146 4.125,-3.4246 4.125,-4.6468 z m 14.967487,-0.6403 c -0.67751,-2.0529 -2.702358,-5.203 -4.499662,-7.0003 -1.797304,-1.7973 -2.989041,-3.5467 -2.648306,-3.8874 0.340736,-0.3407 -0.151679,-0.3236 -1.094256,0.038 -0.942577,0.3617 -1.510207,0.9871 -1.2614,1.3896 0.248806,0.4026 -0.935242,0.6494 -2.63122,0.5485 -4.432734,-0.2637 -7.815541,1.578 -7.824841,4.26 -0.0081,2.3252 1.398978,3.0189 2.502279,1.2337 0.345464,-0.559 1.058171,-0.7505 1.583794,-0.4257 0.525623,0.3249 0.891239,0.2197 0.812481,-0.2337 -0.07876,-0.4534 -0.08991,-1.4419 -0.02478,-2.1967 0.100372,-1.1633 0.376306,-1.1633 1.810379,0 1.120258,0.9087 1.440601,0.9539 0.948063,0.1339 -0.49901,-0.8309 -0.251804,-1.0498 0.750944,-0.665 1.158996,0.4448 1.282474,1.1724 0.549599,3.2386 l -0.945238,2.6649 2.289903,-2.75 c 2.779677,-3.3382 4.305158,-3.4882 5.085634,-0.5 0.792044,3.0324 4.601357,9.1111 5.282687,8.4298 0.30018,-0.3002 -0.008,-2.2254 -0.68606,-4.2783 z m -13.160615,-3.928 c -0.307887,-0.3078 -0.867048,0.2472 -1.242579,1.2334 -0.542685,1.4252 -0.427821,1.54 0.559795,0.5598 0.683418,-0.6784 0.990671,-1.4853 0.682784,-1.7932 z m 26.855405,-9.7235 c -0.27741,-0.6875 -0.50438,-0.125 -0.50438,1.25 0,1.375 0.22697,1.9375 0.50438,1.25 0.27742,-0.6875 0.27742,-1.8125 0,-2.5 z m -35.99561,56.5833 c -0.366667,-0.3666 -0.659776,-1.1541 -0.651354,-1.75 0.0084,-0.5958 0.413006,-0.4552 0.899075,0.3124 1.261437,1.9922 3.590122,0.7665 3.850731,-2.0268 0.121555,-1.3029 0.65706,-3.7189 1.190012,-5.3689 0.856239,-2.6509 0.926399,-2.4435 0.602894,1.7819 -0.471858,6.1632 -3.343065,9.5997 -5.891358,7.0514 z m -3.083334,-4.0833 c -0.4125,-0.4125 -1.2625,-0.75 -1.888889,-0.75 -1.021257,0 -1.172857,-1.1225 -0.805555,-5.9648 0.06111,-0.8057 1.011111,-1.9465 2.111111,-2.5352 1.587874,-0.8498 2,-0.7605 2,0.4334 0,0.98 -0.609579,1.3077 -1.75,0.9409 -1.477138,-0.4752 -1.516118,-0.3947 -0.25,0.5161 1.85018,1.3309 5.679944,1.4365 6.457713,0.178 0.316661,-0.5123 -0.43191,-1.6373 -1.663489,-2.5 -1.23158,-0.8626 -1.801609,-1.5541 -1.26673,-1.5366 1.458711,0.048 4.472506,2.545 4.472506,3.706 0,0.5595 -0.695479,1.5945 -1.545509,2.3 -0.85003,0.7054 -1.335195,1.8307 -1.078145,2.5006 0.893955,2.3296 -2.982146,4.5225 -4.793013,2.7116 z m 3.416667,-1.6276 c 0,-1.8572 -2.648901,-3.9995 -3.414217,-2.7612 -0.887576,1.4361 0.432289,4.1388 2.021206,4.1388 0.766156,0 1.393011,-0.6199 1.393011,-1.3776 z m 46.083337,-16.9869 c 0.22916,-0.2005 1.54166,-0.9004 2.91666,-1.5552 2.35727,-1.1227 2.38918,-1.1018 0.55887,0.3645 -1.593,1.2763 -4.84786,2.3913 -3.47553,1.1907 z m -50.083337,-28.6355 c -0.793144,-0.4902 -1.217079,-1.1163 -0.942079,-1.3913 0.275,-0.275 1.148935,-0.099 1.942079,0.3913 0.793144,0.4902 1.217079,1.1163 0.942079,1.3913 -0.275,0.275 -1.148935,0.099 -1.942079,-0.3913 z m 0.160515,-5.5471 c -1.414594,-3.1046 -1.472697,-4.4529 -0.1919,-4.4529 0.532739,0 0.752409,0.5634 0.488156,1.2521 -0.264252,0.6886 0.409932,1.8081 1.498188,2.4877 1.694877,1.0585 2.335431,0.8789 4.46639,-1.2521 2.703066,-2.703 5.752658,-3.6072 3.659358,-1.0849 -0.6403,0.7715 -0.807901,1.5977 -0.372445,1.8361 0.435456,0.2383 0.271518,0.3124 -0.364306,0.1646 -0.635824,-0.1477 -1.943069,0.601 -2.904988,1.6639 -2.409419,2.6624 -4.896311,2.419 -6.278453,-0.6145 z"
         id="path5270"
         inkscape:connector-curvature="0" />
      <path
         style="fill:#05f105"
         d="m 99.500023,1070.2493 c 0,-0.5396 1.144597,-1.2683 2.543557,-1.6194 2.89027,-0.7254 2.77674,-2.4073 -0.26587,-3.9387 -1.13541,-0.5715 -2.787376,-1.6391 -3.671035,-2.3725 -0.883659,-0.7334 -1.606652,-0.9673 -1.606652,-0.5198 0,0.4475 -0.638208,-0.059 -1.418239,-1.126 -0.780031,-1.0668 -1.779499,-1.5783 -2.22104,-1.1368 -0.44154,0.4416 -0.140832,1.2215 0.668239,1.7332 2.339135,1.4793 0.481116,1.1077 -2.664653,-0.5329 -2.624164,-1.3686 -2.675668,-1.4944 -0.614307,-1.5 1.313129,0 2.25,-0.6201 2.25,-1.4805 0,-1.7706 3.498488,-3.6636 11.264387,-6.0952 3.17041,-0.9926 6.3842,-2.5081 7.14174,-3.3677 0.75754,-0.8595 1.86754,-4.9378 2.46667,-9.0628 0.59913,-4.125 1.3953,-8.8421 1.76927,-10.4824 0.6304,-2.7651 0.56035,-2.8629 -0.96124,-1.3413 -0.90266,0.9027 -3.48574,1.9528 -5.74018,2.3337 l -4.09899,0.6925 2.17317,2.3133 c 2.16942,2.3092 2.16967,2.3151 0.14491,3.3987 -1.11554,0.597 -2.86784,1.0855 -3.894,1.0855 -1.02615,0 -2.49653,0.5625 -3.267509,1.25 -1.197089,1.0675 -1.203278,0.9883 -0.04238,-0.5424 1.029649,-1.3576 1.078599,-2.0732 0.201771,-2.95 -0.876825,-0.8768 -1.157619,-0.8522 -1.157619,0.1014 0,0.6925 -0.45,0.9809 -1,0.641 -0.55,-0.3399 -1,-0.194 -1,0.3244 0,0.5183 -0.958446,1.193 -2.129881,1.4993 -1.20256,0.3145 -1.923061,1.1272 -1.654856,1.8666 0.288617,0.7958 -1.230076,2.1347 -3.87012,3.4121 -4.030414,1.95 -4.345143,1.9742 -4.345143,0.3333 0,-0.973 -0.3375,-1.9578 -0.75,-2.1885 -0.4125,-0.2307 -0.1875,-0.2823 0.5,-0.1147 0.817289,0.1992 1.25,-0.8892 1.25,-3.1444 0,-3.2516 -0.173657,-3.4288 -3.032964,-3.0959 -2.297814,0.2675 -3.29703,-0.1614 -4.122406,-1.7695 -0.896959,-1.7477 -0.855798,-1.9018 0.232963,-0.8727 1.79309,1.6949 5.922407,1.596 5.922407,-0.1418 0,-1.9469 8.673136,-11.3878 12.080382,-13.1498 1.551164,-0.8021 3.742645,-1.4584 4.869955,-1.4584 2.26308,0 2.62877,-1.0209 0.96253,-2.6871 -0.78284,-0.7829 -0.76179,-1.2882 0.0752,-1.8055 0.80997,-0.5006 0.48039,-1.4443 -1.08718,-3.1129 l -2.249515,-2.3945 14.674315,0 c 8.21875,0 14.67431,0.403 14.67431,0.916 0,0.5038 -1.8,2.3416 -4,4.084 -2.2,1.7424 -4,3.705 -4,4.3613 0,0.6564 -1.31054,2.3433 -2.91233,3.7489 -3.90489,3.4264 -2.73088,5.7909 1.72997,3.4841 1.69567,-0.8769 3.55539,-1.5943 4.1327,-1.5943 1.7976,0 1.1489,4.4569 -0.82843,5.6918 -1.54925,0.9675 -1.75266,1.8589 -1.16168,5.0907 0.84102,4.5992 3.50201,8.8966 4.50446,7.2746 0.37043,-0.5993 1.14727,-0.7969 1.72631,-0.4391 0.57905,0.3579 -0.55146,1.3926 -2.51224,2.2993 -2.73068,1.2628 -3.3479,1.992 -2.63721,3.1157 1.41408,2.2358 1.13514,3.3585 -0.49774,2.0034 -1.52404,-1.2649 -3.54381,-0.6413 -3.54381,1.094 0,1.2128 2.52084,3.8677 3.67857,3.8742 0.45179,0 2.22562,1.3209 3.94185,2.9296 2.4042,2.2536 3.39503,2.6542 4.31683,1.7454 0.9263,-0.9133 1.12488,-0.2766 0.87958,2.8204 -0.29191,3.6855 -0.55274,4.0065 -3.31683,4.0825 -6.23204,0.1714 -7.50062,0.4526 -7.52223,1.6675 -0.0122,0.6875 -0.87779,2.3634 -1.92346,3.7243 -1.86959,2.433 -1.93577,2.4429 -3.97777,0.595 -1.8419,-1.6669 -2.07654,-1.6923 -2.07654,-0.2243 0,1.3703 -1.11834,1.655 -6.5,1.655 -3.5825,0 -6.499997,-0.4403 -6.499997,-0.9809 z M 104.52156,1057.2 c 1.72942,-2.4288 1.83366,-2.9698 0.57224,-2.9698 -1.31508,0 -4.59378,4.6459 -4.59378,6.5094 0,1.1196 1.8857,-0.5401 4.02154,-3.5396 z m -3.89767,-33.4227 c -1.106276,-2.5009 -2.48671,-4.5471 -3.067637,-4.5471 -1.486176,0 -1.315728,1.5882 0.568752,5.2997 3.828565,7.5402 5.892245,6.9187 2.498885,-0.7526 z m 14.53841,-11.7971 c -0.27741,-0.6875 -0.50438,-0.125 -0.50438,1.25 0,1.375 0.22697,1.9375 0.50438,1.25 0.27742,-0.6875 0.27742,-1.8125 0,-2.5 z m -36.203396,56.1835 c -0.362533,-0.5866 -0.444683,-1.281 -0.182555,-1.5432 0.262128,-0.2621 0.743066,0.2179 1.068751,1.0666 0.676184,1.7621 0.09985,2.072 -0.886196,0.4766 z m 4.105412,-1.2266 c 0.375531,-0.9862 0.934692,-1.5412 1.242579,-1.2334 0.307887,0.3079 6.34e-4,1.1148 -0.682784,1.7932 -0.987616,0.9802 -1.10248,0.8654 -0.559795,-0.5598 z m -9.280853,-5.8654 c -1.920823,-2.3144 1.63704,-4.0026 4.774018,-2.2652 1.343398,0.7441 1.992542,1.3619 1.442542,1.373 -0.55,0.011 -1.675,-0.4095 -2.5,-0.9346 -1.1323,-0.7207 -1.626832,-0.4393 -2.017401,1.148 -0.435267,1.769 -0.704997,1.8767 -1.699159,0.6788 z m 10.874455,-1.8415 c 0,-1.375 0.226973,-1.9375 0.504386,-1.25 0.277412,0.6875 0.277412,1.8125 0,2.5 -0.277413,0.6875 -0.504386,0.125 -0.504386,-1.25 z m -4.378921,-28.6076 c -0.396565,-0.6092 -0.317217,-2.5157 0.176327,-4.2365 0.493544,-1.7209 0.57152,-3.3303 0.17328,-3.5764 -1.154504,-0.7136 -2.854028,0.7476 -3.396897,2.9205 -0.459582,1.8395 -0.50899,1.8223 -0.615683,-0.2148 -0.06821,-1.3024 0.739858,-2.6729 1.961558,-3.3267 1.16133,-0.6215 1.842109,-1.7255 1.543674,-2.5032 -0.293637,-0.7652 -0.09239,-1.6641 0.447218,-1.9976 0.539606,-0.3335 0.916663,-0.2354 0.837905,0.218 -0.479684,2.7613 0.331197,5.2397 1.843644,5.635 1.575625,0.4117 1.58164,0.4689 0.06036,0.5733 -1.204042,0.083 -1.778832,1.1937 -2,3.866 -0.170701,2.0625 -0.634827,3.2516 -1.031391,2.6424 z m 5.785361,-7.4965 c 0.315624,-0.5107 1.06924,-0.6224 1.674702,-0.2482 0.694485,0.4292 0.879088,0.1025 0.500098,-0.8851 -0.395724,-1.0313 0.08289,-1.7443 1.40244,-2.0894 1.828664,-0.4782 1.882312,-0.3418 0.615792,1.5657 -1.320628,1.989 -5.392755,3.5982 -4.193032,1.657 z m -2.231002,-7.4399 c 0,-0.8008 0.375,-1.456 0.833334,-1.456 0.458333,0 0.833333,0.4234 0.833333,0.941 0,0.5175 -0.375,1.1727 -0.833333,1.456 -0.458334,0.2833 -0.833334,-0.1402 -0.833334,-0.941 z m 4.416667,-0.1183 c 0.6875,-0.2774 1.8125,-0.2774 2.5,0 0.6875,0.2774 0.125,0.5044 -1.25,0.5044 -1.375,0 -1.9375,-0.227 -1.25,-0.5044 z m 3.75,-1.3377 c -0.339919,-0.55 0.110081,-1 1,-1 0.889919,0 1.339919,0.45 1,1 -0.339919,0.55 -0.789919,1 -1,1 -0.210081,0 -0.660081,-0.45 -1,-1 z m -16,-2 c -0.339919,-0.55 -0.168034,-1 0.381966,-1 0.55,0 1.278115,0.45 1.618034,1 0.339919,0.55 0.168034,1 -0.381966,1 -0.55,0 -1.278115,-0.45 -1.618034,-1 z m 5,-1 c 0.995486,-1.1 1.969044,-2 2.163461,-2 0.194418,0 -0.208573,0.9 -0.895534,2 -0.686961,1.1 -1.660519,2 -2.163461,2 -0.502943,0 -0.09995,-0.9 0.895534,-2 z m -6.421053,-2.5833 c 0.04798,-1.165 0.284941,-1.4019 0.604167,-0.6042 0.288871,0.7219 0.253344,1.5844 -0.07895,1.9167 -0.332292,0.3323 -0.568641,-0.2584 -0.52522,-1.3125 z"
         id="path5268"
         inkscape:connector-curvature="0" />
      <path
         style="fill:#f30101"
         d="m 104.9312,1068.812 c -0.33381,-1.33 -0.0781,-4.9657 0.56831,-8.0793 0.64638,-3.1136 1.02342,-5.762 0.83787,-5.8853 -0.18554,-0.1233 -1.46236,-0.7036 -2.83736,-1.2896 -2.45192,-1.0448 -2.41857,-1.09 1.7339,-2.3499 5.81879,-1.7655 6.88315,-3.3319 8.1389,-11.9777 0.59913,-4.125 1.35808,-8.85 1.68655,-10.5 0.45909,-2.3061 0.34782,-2.653 -0.48106,-1.5 -1.4394,2.0023 -2.40502,0.475 -4.05931,-6.4209 -1.13953,-4.7501 -1.49015,-5.2117 -3.64563,-4.7996 -1.31166,0.2507 -3.06388,-0.1077 -3.89383,-0.7965 -1.30978,-1.087 -1.05153,-1.6966 1.95618,-4.6177 3.59297,-3.4894 8.89087,-4.6212 9.90202,-2.1153 0.40351,1 0.52018,1 0.58334,0 0.0933,-1.4777 13.07894,-1.8093 13.07894,-0.334 0,0.5038 -1.8,2.3416 -4,4.084 -2.2,1.7424 -4,3.705 -4,4.3613 0,0.6564 -1.31054,2.3433 -2.91233,3.7489 -3.90489,3.4264 -2.73088,5.7909 1.72997,3.4841 1.69567,-0.8769 3.55539,-1.5943 4.1327,-1.5943 1.7976,0 1.1489,4.4569 -0.82843,5.6918 -1.54925,0.9675 -1.75266,1.8589 -1.16168,5.0907 0.84102,4.5992 3.50201,8.8966 4.50446,7.2746 0.37043,-0.5993 1.14727,-0.7969 1.72631,-0.4391 0.57905,0.3579 -0.55146,1.3926 -2.51224,2.2993 -2.73068,1.2628 -3.3479,1.992 -2.63721,3.1157 1.41408,2.2358 1.13514,3.3585 -0.49774,2.0034 -1.52404,-1.2649 -3.54381,-0.6413 -3.54381,1.094 0,1.2128 2.52084,3.8677 3.67857,3.8742 0.45179,0 2.22562,1.3209 3.94185,2.9296 2.4042,2.2536 3.39503,2.6542 4.31683,1.7454 0.9263,-0.9133 1.12488,-0.2766 0.87958,2.8204 -0.29191,3.6855 -0.55274,4.0065 -3.31683,4.0825 -6.23204,0.1714 -7.50062,0.4526 -7.52223,1.6675 -0.0122,0.6875 -0.87779,2.3634 -1.92346,3.7243 -1.86959,2.433 -1.93577,2.4429 -3.97777,0.595 -1.8419,-1.6669 -2.07654,-1.6923 -2.07654,-0.2243 0,1.223 -0.90855,1.655 -3.48094,1.655 -2.84763,0 -3.59138,-0.44 -4.08788,-2.4182 z m 10.2311,-56.8318 c -0.27741,-0.6875 -0.50438,-0.125 -0.50438,1.25 0,1.375 0.22697,1.9375 0.50438,1.25 0.27742,-0.6875 0.27742,-1.8125 0,-2.5 z m -36.203396,56.1835 c -0.362533,-0.5866 -0.444683,-1.281 -0.182555,-1.5432 0.262128,-0.2621 0.743066,0.2179 1.068751,1.0666 0.676184,1.7621 0.09985,2.072 -0.886196,0.4766 z m 4.105412,-1.2266 c 0.375531,-0.9862 0.934692,-1.5412 1.242579,-1.2334 0.307887,0.3079 6.34e-4,1.1148 -0.682784,1.7932 -0.987616,0.9802 -1.10248,0.8654 -0.559795,-0.5598 z m -9.280853,-5.8654 c -1.920823,-2.3144 1.63704,-4.0026 4.774018,-2.2652 1.343398,0.7441 1.992542,1.3619 1.442542,1.373 -0.55,0.011 -1.675,-0.4095 -2.5,-0.9346 -1.1323,-0.7207 -1.626832,-0.4393 -2.017401,1.148 -0.435267,1.769 -0.704997,1.8767 -1.699159,0.6788 z m 16.71656,-0.4248 c -1.980706,-1.0991 -2.121657,-1.3903 -0.678571,-1.402 1.001785,-0.01 2.496428,0.6603 3.321428,1.4853 1.821787,1.8218 0.728346,1.7873 -2.642857,-0.083 z m -5.842105,-1.4167 c 0,-1.375 0.226973,-1.9375 0.504386,-1.25 0.277412,0.6875 0.277412,1.8125 0,2.5 -0.277413,0.6875 -0.504386,0.125 -0.504386,-1.25 z m -0.157895,-15.9504 c 0,-1.0356 -0.3375,-2.0717 -0.75,-2.3024 -0.4125,-0.2307 -0.1875,-0.2823 0.5,-0.1147 0.817289,0.1992 1.25,-0.8892 1.25,-3.1444 0,-3.2516 -0.173657,-3.4288 -3.032964,-3.0959 -2.297814,0.2675 -3.29703,-0.1614 -4.122406,-1.7695 -0.896959,-1.7477 -0.855798,-1.9018 0.232963,-0.8727 1.95695,1.8498 5.710157,1.5454 6.164427,-0.5 0.223484,-1.0062 1.184033,0.6994 2.260111,4.0132 1.263899,3.8923 2.200372,5.4343 2.884656,4.75 0.557267,-0.5573 1.399771,-1.0132 1.87223,-1.0132 1.53081,0 -0.16863,1.7491 -3.755822,3.8656 -3.365455,1.9857 -3.503195,1.9929 -3.503195,0.184 z m 14.815481,-5.1729 c 0.670464,-0.8927 0.956036,-2.3086 0.634598,-3.1462 -0.352958,-0.9198 0.314048,-2.1523 1.684078,-3.1119 2.11876,-1.4841 2.42377,-1.4431 4.62051,0.6206 2.1998,2.0667 2.23911,2.2922 0.60754,3.4852 -0.95946,0.7016 -2.69346,1.2756 -3.85334,1.2756 -1.15987,0 -2.73966,0.5625 -3.510639,1.25 -1.177762,1.0502 -1.206966,0.9906 -0.182747,-0.3733 z m -19.036507,-7.4843 c -0.396565,-0.6092 -0.317217,-2.5157 0.176327,-4.2365 0.493544,-1.7209 0.57152,-3.3303 0.17328,-3.5764 -1.154504,-0.7136 -2.854028,0.7476 -3.396897,2.9205 -0.459582,1.8395 -0.50899,1.8223 -0.615683,-0.2148 -0.06821,-1.3024 0.739858,-2.6729 1.961558,-3.3267 1.16133,-0.6215 1.842109,-1.7255 1.543674,-2.5032 -0.293637,-0.7652 -0.09239,-1.6641 0.447218,-1.9976 0.539606,-0.3335 0.916663,-0.2354 0.837905,0.218 -0.479684,2.7613 0.331197,5.2397 1.843644,5.635 1.575625,0.4117 1.58164,0.4689 0.06036,0.5733 -1.204042,0.083 -1.778832,1.1937 -2,3.866 -0.170701,2.0625 -0.634827,3.2516 -1.031391,2.6424 z m 5.785361,-7.4965 c 0.315624,-0.5107 1.06924,-0.6224 1.674702,-0.2482 0.694485,0.4292 0.879088,0.1025 0.500098,-0.8851 -0.395724,-1.0313 0.08289,-1.7443 1.40244,-2.0894 1.828664,-0.4782 1.882312,-0.3418 0.615792,1.5657 -1.320628,1.989 -5.392755,3.5982 -4.193032,1.657 z m -2.231002,-7.4399 c 0,-0.8008 0.375,-1.456 0.833334,-1.456 0.458333,0 0.833333,0.4234 0.833333,0.941 0,0.5175 -0.375,1.1727 -0.833333,1.456 -0.458334,0.2833 -0.833334,-0.1402 -0.833334,-0.941 z m 4.416667,-0.1183 c 0.6875,-0.2774 1.8125,-0.2774 2.5,0 0.6875,0.2774 0.125,0.5044 -1.25,0.5044 -1.375,0 -1.9375,-0.227 -1.25,-0.5044 z m 3.75,-1.3377 c -0.339919,-0.55 0.110081,-1 1,-1 0.889919,0 1.339919,0.45 1,1 -0.339919,0.55 -0.789919,1 -1,1 -0.210081,0 -0.660081,-0.45 -1,-1 z m -16,-2 c -0.339919,-0.55 -0.168034,-1 0.381966,-1 0.55,0 1.278115,0.45 1.618034,1 0.339919,0.55 0.168034,1 -0.381966,1 -0.55,0 -1.278115,-0.45 -1.618034,-1 z m 5,-1 c 0.995486,-1.1 1.969044,-2 2.163461,-2 0.194418,0 -0.208573,0.9 -0.895534,2 -0.686961,1.1 -1.660519,2 -2.163461,2 -0.502943,0 -0.09995,-0.9 0.895534,-2 z m -6.421053,-2.5833 c 0.04798,-1.165 0.284941,-1.4019 0.604167,-0.6042 0.288871,0.7219 0.253344,1.5844 -0.07895,1.9167 -0.332292,0.3323 -0.568641,-0.2584 -0.52522,-1.3125 z"
         id="path5266"
         inkscape:connector-curvature="0" />
      <path
         style="fill:#d00000"
         d="m 105.10701,1069.6484 c -1.22596,-3.1948 -0.67216,-4.1513 2.14301,-3.7012 2.14951,0.3436 2.42246,0.2075 1.25,-0.6234 -1.22556,-0.8685 -1.0426,-1.0686 1,-1.0936 1.75458,-0.022 2.10208,-0.2829 1.16547,-0.8766 -1.022,-0.6478 -0.8661,-0.9684 0.66567,-1.369 1.10011,-0.2877 2.43736,-0.086 2.97167,0.4484 1.50317,1.5032 2.57775,-1.0393 1.16084,-2.7466 -0.91676,-1.1046 -0.9233,-1.4562 -0.0271,-1.4562 0.65832,0 0.85602,-0.5266 0.44649,-1.1892 -0.5004,-0.8097 -1.04675,-0.4905 -1.71183,1 -0.99975,2.2405 -2.67123,2.9846 -2.67123,1.1892 0,-0.55 -0.43587,-1 -0.96861,-1 -0.53274,0 -0.70253,0.6934 -0.37732,1.5409 0.3763,0.9806 0.0922,1.4351 -0.78139,1.25 -0.75497,-0.16 -1.27627,0.2233 -1.15844,0.8518 0.11783,0.6285 -0.66186,1.3718 -1.73265,1.6519 -1.54031,0.4028 -1.77788,0.1641 -1.13757,-1.1428 0.44512,-0.9085 0.89068,-3.0647 0.99013,-4.7915 0.15292,-2.6554 -0.24238,-3.2459 -2.56253,-3.8283 -2.4136,-0.6057 -2.53215,-0.8067 -0.98631,-1.6718 0.96637,-0.5408 2.98501,-1.1293 4.48587,-1.3077 1.50085,-0.1785 3.06632,-0.3758 3.47882,-0.4385 0.4125,-0.063 0.67856,-0.4515 0.59124,-0.864 -0.0873,-0.4125 0.11562,-1.425 0.45097,-2.25 0.33535,-0.825 0.74429,-2.625 0.90876,-4 0.21001,-1.7558 0.8944,-2.4846 2.29903,-2.4483 2.47129,0.064 3.16789,-4.7525 0.95319,-6.5906 -1.17882,-0.9783 -1.45319,-0.8682 -1.45319,0.5831 0,0.984 -0.2469,1.5422 -0.54866,1.2405 -1.1982,-1.1982 0.81596,-5.8653 2.41778,-5.6023 2.19227,0.3598 4.13088,-0.9603 4.13088,-2.813 0,-1.6916 -4.97453,-1.6129 -6.19562,0.098 -1.06468,1.4918 -1.73008,0.3284 -3.77198,-6.5948 -1.03374,-3.5049 -1.91393,-5.98 -1.95596,-5.5002 -0.0421,0.4799 -0.83782,0.2549 -1.76839,-0.5 -1.14967,-0.9325 -1.45126,-0.9718 -0.94099,-0.1224 0.41304,0.6875 0.27442,1.25 -0.30804,1.25 -0.58246,0 -1.05902,-0.7231 -1.05902,-1.607 0,-1.1017 -0.5346,-1.4018 -1.70018,-0.9546 -0.9351,0.3589 -0.0574,-0.943 1.95044,-2.893 4.05946,-3.9425 8.16741,-4.6522 10.39195,-1.7954 1.29781,1.6667 1.33368,1.6667 0.75326,0 -0.47885,-1.375 -0.0508,-1.75 1.99754,-1.75 1.6259,0 2.60699,0.5527 2.60699,1.4686 0,0.8995 -0.58568,1.2439 -1.51134,0.8887 -1.05118,-0.4034 -1.33489,-0.1202 -0.93182,0.9302 0.31873,0.8306 0.0988,1.8073 -0.48866,2.1704 -0.5875,0.3631 -1.06818,1.5601 -1.06818,2.6601 0,1.1 -0.45,1.7219 -1,1.382 -0.56716,-0.3505 -1,0.4896 -1,1.941 0,1.4074 0.45,2.559 1,2.559 0.55,0 1,-0.675 1,-1.5 0,-0.825 0.49815,-1.5 1.10699,-1.5 0.60885,0 0.839,-0.6984 0.51146,-1.5519 -0.3304,-0.861 -0.16998,-1.289 0.3603,-0.9612 0.52571,0.3249 1.5288,-0.3268 2.22909,-1.4481 0.70029,-1.1213 1.68476,-2.0388 2.1877,-2.0388 0.50294,0 0.16969,0.8229 -0.74055,1.8287 -0.91024,1.0058 -1.65499,2.2556 -1.65499,2.7774 0,0.5217 -1.31054,2.0985 -2.91233,3.5041 -3.90489,3.4264 -2.73088,5.7909 1.72997,3.4841 1.69567,-0.8769 3.55539,-1.5943 4.1327,-1.5943 1.81653,0 1.13886,4.4632 -0.86796,5.7165 -1.05469,0.6586 -1.75679,2.0044 -1.56023,2.9905 1.24964,6.2693 1.63981,7.3109 2.53195,6.7596 0.5475,-0.3384 0.93102,-0.2443 0.85226,0.2091 -0.45293,2.6073 0.13106,3.5381 1.50461,2.3982 0.77604,-0.6441 1.63763,-0.8043 1.91464,-0.3561 0.27702,0.4483 -0.58292,1.3278 -1.91097,1.9545 -1.81737,0.8577 -2.41842,0.8536 -2.42995,-0.016 -0.009,-0.6702 -0.39978,-0.5482 -0.93022,0.2902 -0.55507,0.8774 -0.54905,2.1298 0.0153,3.1843 1.35186,2.526 1.14114,3.2895 -0.52597,1.906 -0.80091,-0.6647 -1.92591,-0.9183 -2.5,-0.5635 -1.33166,0.823 -1.36524,3.5271 -0.0438,3.5271 0.55,0 1,0.4803 1,1.0674 0,0.6123 -0.85269,0.7967 -2,0.4326 -2.16186,-0.6861 -2.51085,0.1438 -1.03906,2.471 0.51168,0.8091 1.22606,1.1753 1.58751,0.8139 0.36146,-0.3615 1.76164,-0.2373 3.11152,0.2759 1.60995,0.6121 2.24235,0.5902 1.83816,-0.064 -0.33889,-0.5484 -1.2646,-0.997 -2.05714,-0.997 -0.79254,0 -1.44099,-0.45 -1.44099,-1 0,-1.8603 2.48444,-1.0053 5.62042,1.9342 2.31892,2.1737 3.41056,2.6348 4.25,1.7954 0.79483,-0.7948 1.12958,-0.8057 1.12958,-0.037 0,0.6012 -0.7118,1.3662 -1.58178,1.7 -2.45635,0.9426 -3.60586,0.7196 -2.82272,-0.5475 0.44207,-0.7153 0.27431,-0.8831 -0.44099,-0.441 -0.63498,0.3924 -1.15451,1.587 -1.15451,2.6545 0,1.7841 1.18976,2.3393 4.73924,2.2114 0.68158,-0.024 0.9683,0.3938 0.63714,0.9296 -0.33115,0.5358 -1.51822,0.7347 -2.63792,0.4419 -2.80781,-0.7343 -7.73367,0.3658 -7.76069,1.7331 -0.0122,0.6188 -0.87779,2.2384 -1.92346,3.5993 -1.86959,2.433 -1.93577,2.4429 -3.97777,0.595 -1.8419,-1.6669 -2.07654,-1.6923 -2.07654,-0.2243 0,2.2629 -6.52796,2.3275 -7.39301,0.073 z m 12.23083,-1.1682 c -0.15834,-0.9625 0.0229,-2.2445 0.40271,-2.8488 0.4408,-0.7013 -0.38212,-1.1293 -2.27496,-1.1831 -1.9471,-0.055 -2.96557,0.4078 -2.96557,1.3488 0,0.7882 0.62686,1.4331 1.39301,1.4331 0.76616,0 1.65204,0.675 1.96862,1.5 0.79265,2.0656 1.82829,1.8902 1.47619,-0.25 z m 2.63519,-6.2063 c 0.32507,-0.526 1.32976,-0.6729 2.23263,-0.3264 1.25644,0.4821 1.48354,0.2181 0.96797,-1.1255 -0.37048,-0.9654 -0.67361,-2.1686 -0.67361,-2.6736 0,-0.505 -0.43587,-0.9182 -0.96861,-0.9182 -0.53274,0 -0.69664,0.7088 -0.36423,1.575 0.43578,1.1356 0.0884,1.4844 -1.24513,1.25 -1.12986,-0.1985 -1.98944,0.3559 -2.2091,1.425 -0.37946,1.8468 1.25459,2.4206 2.26008,0.7937 z m -9.35701,-7.4604 c 0.094,-1.6882 0.20273,-1.7514 0.57333,-0.3333 0.3873,1.4821 2.31067,2.5906 2.31067,1.3318 0,-3.8084 -4.51675,-4.8901 -5.21289,-1.2485 -0.28637,1.4981 0.0299,2.3334 0.88343,2.3334 0.7312,0 1.38166,-0.9375 1.44546,-2.0834 z m 5.55067,-9.0875 c 0,-0.8227 -0.6,-1.4958 -1.33333,-1.4958 -0.73334,0 -1.28005,0.3375 -1.21492,0.75 0.0651,0.4125 0.0307,0.975 -0.0765,1.25 -0.10721,0.275 -0.35139,1.3264 -0.54261,2.3364 -0.32009,1.6906 -0.20818,1.7101 1.40984,0.2458 0.96664,-0.8748 1.75753,-2.2636 1.75753,-3.0864 z m 4.95186,-6.0475 c -0.30567,-0.7966 -1.35738,-1.4414 -2.33714,-1.433 -1.5047,0.013 -1.5497,0.1618 -0.28975,0.9584 1.18796,0.751 1.23886,1.1958 0.25,2.1847 -0.6829,0.6829 -1.24164,1.9115 -1.24164,2.7302 0,1.0779 0.5757,0.8706 2.08714,-0.7518 1.14793,-1.2321 1.83706,-2.892 1.53139,-3.6885 z m -1.3899,-6.6197 c -0.63817,-0.6381 -0.97863,-0.03 -0.97863,1.7487 0,2.3031 0.15222,2.4554 0.97863,0.9787 0.63816,-1.1404 0.63816,-2.0892 0,-2.7274 z m 3.77137,-7.8286 c 0,-0.55 -0.45,-1 -1,-1 -0.55,0 -1,0.45 -1,1 0,0.55 0.45,1 1,1 0.55,0 1,-0.45 1,-1 z m -8.33772,-13.25 c -0.27741,-0.6875 -0.50438,-0.125 -0.50438,1.25 0,1.375 0.22697,1.9375 0.50438,1.25 0.27742,-0.6875 0.27742,-1.8125 0,-2.5 z m -36.203396,56.1835 c -0.362533,-0.5866 -0.444683,-1.281 -0.182555,-1.5432 0.262128,-0.2621 0.743066,0.2179 1.068751,1.0666 0.676184,1.7621 0.09985,2.072 -0.886196,0.4766 z m 4.105412,-1.2266 c 0.375531,-0.9862 0.934692,-1.5412 1.242579,-1.2334 0.307887,0.3079 6.34e-4,1.1148 -0.682784,1.7932 -0.987616,0.9802 -1.10248,0.8654 -0.559795,-0.5598 z m -9.280853,-5.8654 c -1.920823,-2.3144 1.63704,-4.0026 4.774018,-2.2652 1.343398,0.7441 1.992542,1.3619 1.442542,1.373 -0.55,0.011 -1.675,-0.4095 -2.5,-0.9346 -1.1323,-0.7207 -1.626832,-0.4393 -2.017401,1.148 -0.435267,1.769 -0.704997,1.8767 -1.699159,0.6788 z m 16.71656,-0.4248 c -1.980706,-1.0991 -2.121657,-1.3903 -0.678571,-1.402 1.001785,-0.01 2.496428,0.6603 3.321428,1.4853 1.821787,1.8218 0.728346,1.7873 -2.642857,-0.083 z m -5.842105,-1.4167 c 0,-1.375 0.226973,-1.9375 0.504386,-1.25 0.277412,0.6875 0.277412,1.8125 0,2.5 -0.277413,0.6875 -0.504386,0.125 -0.504386,-1.25 z m 42.592102,1.3377 c 0.6875,-0.2774 1.8125,-0.2774 2.5,0 0.6875,0.2774 0.125,0.5044 -1.25,0.5044 -1.375,0 -1.9375,-0.227 -1.25,-0.5044 z m -42.749997,-17.2881 c 0,-1.0356 -0.3375,-2.0717 -0.75,-2.3024 -0.4125,-0.2307 -0.1875,-0.2823 0.5,-0.1147 0.817289,0.1992 1.25,-0.8892 1.25,-3.1444 0,-3.2516 -0.173657,-3.4288 -3.032964,-3.0959 -2.297814,0.2675 -3.29703,-0.1614 -4.122406,-1.7695 -0.896959,-1.7477 -0.855798,-1.9018 0.232963,-0.8727 1.95695,1.8498 5.710157,1.5454 6.164427,-0.5 0.223484,-1.0062 1.184033,0.6994 2.260111,4.0132 1.263899,3.8923 2.200372,5.4343 2.884656,4.75 0.557267,-0.5573 1.399771,-1.0132 1.87223,-1.0132 1.53081,0 -0.16863,1.7491 -3.755822,3.8656 -3.365455,1.9857 -3.503195,1.9929 -3.503195,0.184 z m 14,-4.4272 c 0,-0.2076 0.7875,-0.9951 1.749997,-1.75 1.58606,-1.2438 1.62143,-1.2085 0.37756,0.3776 -1.306371,1.6657 -2.127557,2.1955 -2.127557,1.3724 z m 6.078947,-2.3724 c -0.0434,-0.6875 -1.24145,-1.25 -2.66228,-1.25 -3.007454,0 -2.82998,-1.6496 0.40883,-3.8001 1.99454,-1.3244 2.15341,-1.3085 1.59041,0.1586 -0.34401,0.8965 -1.09785,1.3381 -1.6752,0.9812 -0.58911,-0.364 -0.75539,-0.1725 -0.37895,0.4366 0.36893,0.597 1.78846,0.8827 3.15451,0.635 1.78625,-0.3239 2.48373,-0.01 2.48373,1.1282 0,0.8682 -0.41156,1.3242 -0.91459,1.0133 -0.50302,-0.3109 -1.14249,0 -1.42105,0.691 -0.40248,0.9983 -0.52267,0.9996 -0.58541,0.01 z m -24.299973,-5.8576 c -0.396565,-0.6092 -0.317217,-2.5157 0.176327,-4.2365 0.493544,-1.7209 0.57152,-3.3303 0.17328,-3.5764 -1.154504,-0.7136 -2.854028,0.7476 -3.396897,2.9205 -0.459582,1.8395 -0.50899,1.8223 -0.615683,-0.2148 -0.06821,-1.3024 0.739858,-2.6729 1.961558,-3.3267 1.16133,-0.6215 1.842109,-1.7255 1.543674,-2.5032 -0.293637,-0.7652 -0.09239,-1.6641 0.447218,-1.9976 0.539606,-0.3335 0.916663,-0.2354 0.837905,0.218 -0.479684,2.7613 0.331197,5.2397 1.843644,5.635 1.575625,0.4117 1.58164,0.4689 0.06036,0.5733 -1.204042,0.083 -1.778832,1.1937 -2,3.866 -0.170701,2.0625 -0.634827,3.2516 -1.031391,2.6424 z m 5.785361,-7.4965 c 0.315624,-0.5107 1.06924,-0.6224 1.674702,-0.2482 0.694485,0.4292 0.879088,0.1025 0.500098,-0.8851 -0.395724,-1.0313 0.08289,-1.7443 1.40244,-2.0894 1.828664,-0.4782 1.882312,-0.3418 0.615792,1.5657 -1.320628,1.989 -5.392755,3.5982 -4.193032,1.657 z m -2.231002,-7.4399 c 0,-0.8008 0.375,-1.456 0.833334,-1.456 0.458333,0 0.833333,0.4234 0.833333,0.941 0,0.5175 -0.375,1.1727 -0.833333,1.456 -0.458334,0.2833 -0.833334,-0.1402 -0.833334,-0.941 z m 4.416667,-0.1183 c 0.6875,-0.2774 1.8125,-0.2774 2.5,0 0.6875,0.2774 0.125,0.5044 -1.25,0.5044 -1.375,0 -1.9375,-0.227 -1.25,-0.5044 z m 3.75,-1.3377 c -0.339919,-0.55 0.110081,-1 1,-1 0.889919,0 1.339919,0.45 1,1 -0.339919,0.55 -0.789919,1 -1,1 -0.210081,0 -0.660081,-0.45 -1,-1 z m -16,-2 c -0.339919,-0.55 -0.168034,-1 0.381966,-1 0.55,0 1.278115,0.45 1.618034,1 0.339919,0.55 0.168034,1 -0.381966,1 -0.55,0 -1.278115,-0.45 -1.618034,-1 z m 5,-1 c 0.995486,-1.1 1.969044,-2 2.163461,-2 0.194418,0 -0.208573,0.9 -0.895534,2 -0.686961,1.1 -1.660519,2 -2.163461,2 -0.502943,0 -0.09995,-0.9 0.895534,-2 z m 44.359867,-0.6943 c 1.27489,-2.4307 3.14013,-3.9274 3.14013,-2.5197 0,0.4972 -0.96548,1.7613 -2.14551,2.809 -2.13061,1.8918 -2.13751,1.8898 -0.99462,-0.2893 z m -50.78092,-1.889 c 0.04798,-1.165 0.284941,-1.4019 0.604167,-0.6042 0.288871,0.7219 0.253344,1.5844 -0.07895,1.9167 -0.332292,0.3323 -0.568641,-0.2584 -0.52522,-1.3125 z"
         id="path5264"
         inkscape:connector-curvature="0" />
      <path
         style="fill:#1c2d65"
         d="m 105.10701,1069.6484 c -0.96774,-2.5219 -0.71809,-3.4182 0.95203,-3.4182 0.85746,0 1.2809,0.45 0.94098,1 -0.33992,0.55 -0.14147,1 0.44099,1 0.58246,0 1.05901,-0.45 1.05901,-1 0,-0.55 0.3375,-0.9467 0.75,-0.8816 1.97547,0.3119 2.59942,-0.2463 1.25,-1.1184 -1.29541,-0.8372 -1.27132,-0.9715 0.17668,-0.9847 1.78615,-0.016 2.69659,2.3566 2.00847,5.2347 -0.55245,2.3106 -6.70363,2.4472 -7.57816,0.1682 z m 10.02545,0.7961 c -0.26708,-0.4322 0.34832,-0.7857 1.36756,-0.7857 1.01924,0 1.63465,0.3535 1.36757,0.7857 -0.26708,0.4321 -0.88249,0.7857 -1.36757,0.7857 -0.48508,0 -1.10048,-0.3536 -1.36756,-0.7857 z m -36.173556,-2.2808 c -0.362533,-0.5866 -0.444683,-1.281 -0.182555,-1.5432 0.262128,-0.2621 0.743066,0.2179 1.068751,1.0666 0.676184,1.7621 0.09985,2.072 -0.886196,0.4766 z m 4.105412,-1.2266 c 0.375531,-0.9862 0.934692,-1.5412 1.242579,-1.2334 0.307887,0.3079 6.34e-4,1.1148 -0.682784,1.7932 -0.987616,0.9802 -1.10248,0.8654 -0.559795,-0.5598 z m 34.991484,0.3833 c -0.8778,-1.4203 0.49968,-4.0902 2.11023,-4.0902 0.79861,0 1.21301,-0.3867 0.92087,-0.8594 -0.29213,-0.4727 0.62104,-0.733 2.02929,-0.5784 2.91899,0.3204 4.42539,1.3617 2.3005,1.5901 -3.92824,0.4224 -6.91667,1.7245 -6.91667,3.0137 0,0.5236 0.51953,0.6309 1.15451,0.2385 0.7153,-0.4421 0.88306,-0.2743 0.44099,0.441 -0.8605,1.3923 -1.29804,1.4448 -2.03972,0.2447 z m -6.05578,-4.0617 c -1.52917,-0.6353 -1.14098,-0.7953 1.64896,-0.6797 2.00693,0.083 3.44287,0.4887 3.19098,0.9012 -0.57051,0.9343 -2.24211,0.8578 -4.83994,-0.2215 z m 15.5,0.5881 c 0,-0.2108 0.90062,-0.6189 2.00138,-0.9067 1.10076,-0.2879 1.7492,-0.1153 1.44099,0.3834 -0.53826,0.8709 -3.44237,1.3124 -3.44237,0.5233 z m -53.716557,-2.7751 c -1.920823,-2.3144 1.63704,-4.0026 4.774018,-2.2652 1.343398,0.7441 1.992542,1.3619 1.442542,1.373 -0.55,0.011 -1.675,-0.4095 -2.5,-0.9346 -1.1323,-0.7207 -1.626832,-0.4393 -2.017401,1.148 -0.435267,1.769 -0.704997,1.8767 -1.699159,0.6788 z m 16.71656,-0.4248 c -1.980706,-1.0991 -2.121657,-1.3903 -0.678571,-1.402 1.001785,-0.01 2.496428,0.6603 3.321428,1.4853 1.821787,1.8218 0.728346,1.7873 -2.642857,-0.083 z m -5.842105,-1.4167 c 0,-1.375 0.226973,-1.9375 0.504386,-1.25 0.277412,0.6875 0.277412,1.8125 0,2.5 -0.277413,0.6875 -0.504386,0.125 -0.504386,-1.25 z m 21.239102,-0.1667 c -0.28327,-0.4583 -0.37597,-0.8677 -0.20601,-0.9098 2.64183,-0.6541 3.6551,-0.9257 5.55901,-1.4899 1.87599,-0.556 2.25,-0.2832 2.25,1.6409 0,2.2393 -0.0424,2.2501 -1.42858,0.3666 -1.2429,-1.6888 -1.50844,-1.7353 -2.04303,-0.3578 -0.65089,1.6773 -3.26504,2.1518 -4.13139,0.75 z m 9.48145,0.092 c -0.63284,-0.3911 -0.38475,-0.9004 0.62795,-1.289 0.92075,-0.3533 2.15301,-0.3464 2.73835,0.015 0.6295,0.389 0.771,0.1832 0.34638,-0.5039 -1.04136,-1.6849 2.33539,-2.6744 4.50434,-1.3199 1.49465,0.9335 1.72595,0.8707 1.26054,-0.3421 -0.31349,-0.817 -1.19684,-1.4854 -1.963,-1.4854 -0.76615,0 -1.39301,-0.45 -1.39301,-1 0,-2.5838 4.02677,0.6083 5.29708,4.1991 0.44751,1.265 0.18895,1.5409 -1.01205,1.08 -1.1609,-0.4454 -1.41398,-0.2209 -0.90276,0.801 0.3907,0.7809 -0.0404,0.4074 -0.95793,-0.8301 -2.00725,-2.7072 -3.42434,-2.8993 -3.42434,-0.4643 0,1.7989 -2.98124,2.462 -5.12155,1.1392 z m -1.65584,-4.7992 c -0.94743,-1.558 -2.09761,-2.8611 -2.55594,-2.8958 -1.34702,-0.1022 -2.11114,-1.2299 -0.83333,-1.2299 0.64166,0 1.2009,-0.7875 1.24274,-1.75 0.0418,-0.9625 0.68261,-0.175 1.42392,1.75 0.92131,2.3924 1.37677,2.8671 1.43924,1.5 0.0503,-1.1 0.51436,-2.669 1.03132,-3.4866 0.79975,-1.2649 1.24489,-1.1593 2.98469,0.7082 1.12461,1.2071 2.02978,2.5511 2.01148,2.9866 -0.0183,0.4355 -0.91829,-0.2706 -2,-1.569 -1.0817,-1.2984 -2.01863,-1.9734 -2.08208,-1.5 -0.42098,3.1415 -0.27529,4.0378 0.89193,5.4872 1.09615,1.3612 1.05362,1.7248 -0.2608,2.2292 -1.04015,0.3991 -2.15233,-0.354 -3.29317,-2.2299 z m 2.77739,0.8743 c 0,-0.55 -0.47655,-1 -1.05901,-1 -0.58246,0 -0.78091,0.45 -0.44099,1 0.33992,0.55 0.81648,1 1.05902,1 0.24254,0 0.44098,-0.45 0.44098,-1 z m -9.5,0 c 0.33992,-0.55 0.81648,-1 1.05902,-1 0.24254,0 0.44098,0.45 0.44098,1 0,0.55 -0.47655,1 -1.05901,1 -0.58246,0 -0.78091,-0.45 -0.44099,-1 z m -4.5,-2 c -1.33333,-0.8617 -1.33333,-0.9726 0,-0.9983 0.825,-0.016 2.625,-0.3292 4,-0.6962 2.34102,-0.6247 2.39326,-0.5602 0.82143,1.0137 -1.92148,1.924 -2.72262,2.0372 -4.82143,0.6808 z m 19.49899,-6.0016 c -0.38571,-0.6241 -1.36346,-0.8806 -2.17279,-0.5701 -0.9888,0.3795 -1.36566,0.019 -1.14885,-1.0989 0.49282,-2.5411 2.55156,-2.7045 3.83597,-0.3045 1.18841,2.2205 0.72865,3.9846 -0.51433,1.9735 z m -37.498987,-3.9488 c 0,-1.0356 -0.3375,-2.0717 -0.75,-2.3024 -0.4125,-0.2307 -0.1875,-0.2823 0.5,-0.1147 0.817289,0.1992 1.25,-0.8892 1.25,-3.1444 0,-3.2516 -0.173657,-3.4288 -3.032964,-3.0959 -2.297814,0.2675 -3.29703,-0.1614 -4.122406,-1.7695 -0.896959,-1.7477 -0.855798,-1.9018 0.232963,-0.8727 1.95695,1.8498 5.710157,1.5454 6.164427,-0.5 0.223484,-1.0062 1.184033,0.6994 2.260111,4.0132 1.263899,3.8923 2.200372,5.4343 2.884656,4.75 0.557267,-0.5573 1.399771,-1.0132 1.87223,-1.0132 1.53081,0 -0.16863,1.7491 -3.755822,3.8656 -3.365455,1.9857 -3.503195,1.9929 -3.503195,0.184 z m 27.999997,-0.9906 c 0,-0.5175 0.45,-1.2191 1,-1.559 0.55,-0.3399 1,-0.1256 1,0.4762 0,0.7612 0.68466,0.7294 2.25,-0.1047 2.04023,-1.0872 2.12204,-1.0438 0.87756,0.4648 -1.46479,1.7756 -5.12756,2.2919 -5.12756,0.7227 z m 12.38365,-0.8027 c 1.03601,-1.215 2.36384,-1.9124 2.95075,-1.5496 0.68364,0.4225 0.54578,0.8216 -0.38365,1.1107 -0.79791,0.2481 -2.12575,0.9455 -2.95075,1.5496 -0.825,0.6042 -0.65236,0.1044 0.38365,-1.1107 z m -3.98665,-2.423 c -0.28327,-0.4583 -0.15097,-0.8402 0.29399,-0.8486 0.44496,-0.01 0.19847,-0.4022 -0.54775,-0.875 -0.95257,-0.6036 -1.02494,-1.0648 -0.24294,-1.5481 0.61261,-0.3786 1.3828,0.013 1.71155,0.8693 0.32875,0.8567 0.92557,1.355 1.32627,1.1073 0.4007,-0.2476 0.72855,0.13 0.72855,0.8391 0,1.4272 -2.45764,1.7699 -3.26967,0.456 z m -22.396997,-0.2109 c 0,-0.2076 0.7875,-0.9951 1.749997,-1.75 1.58606,-1.2438 1.62143,-1.2085 0.37756,0.3776 -1.306371,1.6657 -2.127557,2.1955 -2.127557,1.3724 z m 5.999997,-3.1224 c 0,-0.825 0.43588,-1.5 0.96862,-1.5 0.53274,0 0.70959,0.675 0.39301,1.5 -0.31658,0.825 -0.75246,1.5 -0.96862,1.5 -0.21615,0 -0.39301,-0.675 -0.39301,-1.5 z m 9.07895,-1.0833 c 0.048,-1.165 0.28494,-1.4019 0.60417,-0.6042 0.28887,0.7219 0.25334,1.5844 -0.0789,1.9167 -0.33229,0.3323 -0.56864,-0.2584 -0.52522,-1.3125 z m -13.34561,-0.5408 c 0.67833,-0.6834 1.48524,-0.9907 1.79312,-0.6828 0.30789,0.3079 -0.24711,0.8671 -1.23333,1.2426 -1.425197,0.5427 -1.540061,0.4278 -0.55979,-0.5598 z m 14.72554,-1.9424 c -0.94391,-1.5273 -0.19643,-1.9391 2.32355,-1.2801 1.20729,0.3157 1.94858,0.9728 1.64731,1.4603 -0.7557,1.2227 -3.17153,1.1131 -3.97086,-0.1802 z m 5.62007,-0.5168 c 0.048,-1.165 0.28494,-1.4019 0.60417,-0.6042 0.28887,0.7219 0.25334,1.5844 -0.0789,1.9167 -0.33229,0.3323 -0.56864,-0.2584 -0.52522,-1.3125 z m -40.299973,-1.0243 c -0.396565,-0.6092 -0.317217,-2.5157 0.176327,-4.2365 0.493544,-1.7209 0.57152,-3.3303 0.17328,-3.5764 -1.154504,-0.7136 -2.854028,0.7476 -3.396897,2.9205 -0.459582,1.8395 -0.50899,1.8223 -0.615683,-0.2148 -0.06821,-1.3024 0.739858,-2.6729 1.961558,-3.3267 1.16133,-0.6215 1.842109,-1.7255 1.543674,-2.5032 -0.293637,-0.7652 -0.09239,-1.6641 0.447218,-1.9976 0.539606,-0.3335 0.916663,-0.2354 0.837905,0.218 -0.479684,2.7613 0.331197,5.2397 1.843644,5.635 1.575625,0.4117 1.58164,0.4689 0.06036,0.5733 -1.204042,0.083 -1.778832,1.1937 -2,3.866 -0.170701,2.0625 -0.634827,3.2516 -1.031391,2.6424 z m 40.564363,-3.0357 c 0.12598,-1.4931 -0.42842,-1.793 -2.83071,-1.5316 -1.64306,0.1787 -3.30609,0.8407 -3.69563,1.471 -1.05699,1.7103 -1.7151,0.5933 -3.7846,-6.4235 -1.03374,-3.5049 -1.91393,-5.9654 -1.95597,-5.4676 -0.042,0.4977 -0.95967,0.1057 -2.03918,-0.8713 -1.18494,-1.0723 -2.65128,-1.5121 -3.70018,-1.1095 -0.95559,0.3666 -0.0947,-0.9288 1.91319,-2.8788 4.06017,-3.9432 8.16088,-4.6508 10.40398,-1.7954 1.02332,1.3027 1.30712,1.3726 1.11025,0.2737 -0.15571,-0.8691 0.55808,-1.5264 1.73551,-1.5982 1.37788,-0.084 1.47284,0.01 0.3053,0.2885 -0.99052,0.24 -1.46547,1.008 -1.14301,1.8483 0.30343,0.7907 0.23025,2.2252 -0.16263,3.1877 -0.65574,1.6065 -0.78177,1.586 -1.53671,-0.25 -0.56639,-1.3774 -0.83949,-0.1323 -0.87735,4 -0.0661,7.2089 0.84004,9.1453 3.59047,7.6734 1.54324,-0.826 2.18692,-0.6224 3.20928,1.0146 0.84289,1.3497 0.94178,2.3849 0.29009,3.0366 -0.65169,0.6517 -0.93536,0.3558 -0.8321,-0.8679 z m 2.00075,-2.8645 c -0.93812,-2.0226 -0.89101,-2.4922 0.25,-2.4922 0.83297,0 1.40591,1.0188 1.40591,2.5 0,3.1127 -0.20904,3.1117 -1.65591,-0.01 z m -36.779752,-1.5963 c 0.315624,-0.5107 1.06924,-0.6224 1.674702,-0.2482 0.694485,0.4292 0.879088,0.1025 0.500098,-0.8851 -0.395724,-1.0313 0.08289,-1.7443 1.40244,-2.0894 1.828664,-0.4782 1.882312,-0.3418 0.615792,1.5657 -1.320628,1.989 -5.392755,3.5982 -4.193032,1.657 z m 33.128622,-5.8298 c 0.27854,-1.0651 1.47407,-2.7532 2.65674,-3.7513 2.13121,-1.7987 2.13476,-1.7963 0.4003,0.2639 -0.9625,1.1433 -1.75,2.5793 -1.75,3.191 0,0.6118 -0.40803,1.3644 -0.90674,1.6727 -0.49871,0.3082 -0.67884,-0.3111 -0.4003,-1.3763 z m -35.359624,-1.6101 c 0,-0.8008 0.375,-1.456 0.833334,-1.456 0.458333,0 0.833333,0.4234 0.833333,0.941 0,0.5175 -0.375,1.1727 -0.833333,1.456 -0.458334,0.2833 -0.833334,-0.1402 -0.833334,-0.941 z m 4.416667,-0.1183 c 0.6875,-0.2774 1.8125,-0.2774 2.5,0 0.6875,0.2774 0.125,0.5044 -1.25,0.5044 -1.375,0 -1.9375,-0.227 -1.25,-0.5044 z m 3.75,-1.3377 c -0.339919,-0.55 0.110081,-1 1,-1 0.889919,0 1.339919,0.45 1,1 -0.339919,0.55 -0.789919,1 -1,1 -0.210081,0 -0.660081,-0.45 -1,-1 z m -16,-2 c -0.339919,-0.55 -0.168034,-1 0.381966,-1 0.55,0 1.278115,0.45 1.618034,1 0.339919,0.55 0.168034,1 -0.381966,1 -0.55,0 -1.278115,-0.45 -1.618034,-1 z m 5,-1 c 0.995486,-1.1 1.969044,-2 2.163461,-2 0.194418,0 -0.208573,0.9 -0.895534,2 -0.686961,1.1 -1.660519,2 -2.163461,2 -0.502943,0 -0.09995,-0.9 0.895534,-2 z m 44.108707,-0.4227 c 0.30026,-0.7825 1.27341,-1.7018 2.16255,-2.043 1.32811,-0.5097 1.28666,-0.2558 -0.23231,1.4227 -2.1782,2.4069 -2.67736,2.5673 -1.93024,0.6203 z m -50.52976,-2.1606 c 0.04798,-1.165 0.284941,-1.4019 0.604167,-0.6042 0.288871,0.7219 0.253344,1.5844 -0.07895,1.9167 -0.332292,0.3323 -0.568641,-0.2584 -0.52522,-1.3125 z"
         id="path5262"
         inkscape:connector-curvature="0" />
      <path
         style="fill:#00aa00"
         d="m 105.10701,1069.6484 c -0.96774,-2.5219 -0.71809,-3.4182 0.95203,-3.4182 0.85746,0 1.2809,0.45 0.94098,1 -0.33992,0.55 -0.14147,1 0.44099,1 0.58246,0 1.05901,-0.45 1.05901,-1 0,-0.55 0.3375,-0.9467 0.75,-0.8816 1.97547,0.3119 2.59942,-0.2463 1.25,-1.1184 -1.29541,-0.8372 -1.27132,-0.9715 0.17668,-0.9847 1.78615,-0.016 2.69659,2.3566 2.00847,5.2347 -0.55245,2.3106 -6.70363,2.4472 -7.57816,0.1682 z m 10.02545,0.7961 c -0.26708,-0.4322 0.34832,-0.7857 1.36756,-0.7857 1.01924,0 1.63465,0.3535 1.36757,0.7857 -0.26708,0.4321 -0.88249,0.7857 -1.36757,0.7857 -0.48508,0 -1.10048,-0.3536 -1.36756,-0.7857 z m 2.92334,-3.1241 c -0.8778,-1.4203 0.49968,-4.0902 2.11023,-4.0902 0.79861,0 1.21301,-0.3867 0.92087,-0.8594 -0.29213,-0.4727 0.62104,-0.733 2.02929,-0.5784 2.91899,0.3204 4.42539,1.3617 2.3005,1.5901 -3.92824,0.4224 -6.91667,1.7245 -6.91667,3.0137 0,0.5236 0.51953,0.6309 1.15451,0.2385 0.7153,-0.4421 0.88306,-0.2743 0.44099,0.441 -0.8605,1.3923 -1.29804,1.4448 -2.03972,0.2447 z m -6.05578,-4.0617 c -1.52917,-0.6353 -1.14098,-0.7953 1.64896,-0.6797 2.00693,0.083 3.44287,0.4887 3.19098,0.9012 -0.57051,0.9343 -2.24211,0.8578 -4.83994,-0.2215 z m 15.5,0.5881 c 0,-0.2108 0.90062,-0.6189 2.00138,-0.9067 1.10076,-0.2879 1.7492,-0.1153 1.44099,0.3834 -0.53826,0.8709 -3.44237,1.3124 -3.44237,0.5233 z m -42.842102,-4.6166 c 0,-1.375 0.226973,-1.9375 0.504386,-1.25 0.277412,0.6875 0.277412,1.8125 0,2.5 -0.277413,0.6875 -0.504386,0.125 -0.504386,-1.25 z m 21.239102,-0.1667 c -0.28327,-0.4583 -0.37597,-0.8677 -0.20601,-0.9098 2.64183,-0.6541 3.6551,-0.9257 5.55901,-1.4899 1.87599,-0.556 2.25,-0.2832 2.25,1.6409 0,2.2393 -0.0424,2.2501 -1.42858,0.3666 -1.2429,-1.6888 -1.50844,-1.7353 -2.04303,-0.3578 -0.65089,1.6773 -3.26504,2.1518 -4.13139,0.75 z m 9.48145,0.092 c -0.63284,-0.3911 -0.38475,-0.9004 0.62795,-1.289 0.92075,-0.3533 2.15301,-0.3464 2.73835,0.015 0.6295,0.389 0.771,0.1832 0.34638,-0.5039 -1.04136,-1.6849 2.33539,-2.6744 4.50434,-1.3199 1.49465,0.9335 1.72595,0.8707 1.26054,-0.3421 -0.31349,-0.817 -1.19684,-1.4854 -1.963,-1.4854 -0.76615,0 -1.39301,-0.45 -1.39301,-1 0,-2.5838 4.02677,0.6083 5.29708,4.1991 0.44751,1.265 0.18895,1.5409 -1.01205,1.08 -1.1609,-0.4454 -1.41398,-0.2209 -0.90276,0.801 0.3907,0.7809 -0.0404,0.4074 -0.95793,-0.8301 -2.00725,-2.7072 -3.42434,-2.8993 -3.42434,-0.4643 0,1.7989 -2.98124,2.462 -5.12155,1.1392 z m -1.65584,-4.7992 c -0.94743,-1.558 -2.09761,-2.8611 -2.55594,-2.8958 -1.34702,-0.1022 -2.11114,-1.2299 -0.83333,-1.2299 0.64166,0 1.2009,-0.7875 1.24274,-1.75 0.0418,-0.9625 0.68261,-0.175 1.42392,1.75 0.92131,2.3924 1.37677,2.8671 1.43924,1.5 0.0503,-1.1 0.51436,-2.669 1.03132,-3.4866 0.79975,-1.2649 1.24489,-1.1593 2.98469,0.7082 1.12461,1.2071 2.02978,2.5511 2.01148,2.9866 -0.0183,0.4355 -0.91829,-0.2706 -2,-1.569 -1.0817,-1.2984 -2.01863,-1.9734 -2.08208,-1.5 -0.42098,3.1415 -0.27529,4.0378 0.89193,5.4872 1.09615,1.3612 1.05362,1.7248 -0.2608,2.2292 -1.04015,0.3991 -2.15233,-0.354 -3.29317,-2.2299 z m 2.77739,0.8743 c 0,-0.55 -0.47655,-1 -1.05901,-1 -0.58246,0 -0.78091,0.45 -0.44099,1 0.33992,0.55 0.81648,1 1.05902,1 0.24254,0 0.44098,-0.45 0.44098,-1 z m -9.5,0 c 0.33992,-0.55 0.81648,-1 1.05902,-1 0.24254,0 0.44098,0.45 0.44098,1 0,0.55 -0.47655,1 -1.05901,1 -0.58246,0 -0.78091,-0.45 -0.44099,-1 z m -4.5,-2 c -1.33333,-0.8617 -1.33333,-0.9726 0,-0.9983 0.825,-0.016 2.625,-0.3292 4,-0.6962 2.34102,-0.6247 2.39326,-0.5602 0.82143,1.0137 -1.92148,1.924 -2.72262,2.0372 -4.82143,0.6808 z m 16.17735,-7.6706 c 0.17746,-0.915 0.81015,-1.826 1.40599,-2.0243 1.62166,-0.5399 1.3078,2.5227 -0.32265,3.1484 -0.91893,0.3526 -1.29421,-0.037 -1.08334,-1.1241 z m -33.567377,-5.4469 c 0.408624,-3.0803 0.278004,-5.3437 -0.330994,-5.7354 -0.553295,-0.3559 -0.68017,-1.5471 -0.281943,-2.6471 0.575955,-1.5909 1.09758,-0.8212 2.550295,3.7632 1.233374,3.8923 2.155175,5.4343 2.839459,4.75 0.557267,-0.5573 1.399771,-1.0132 1.87223,-1.0132 1.535307,0 -0.172751,1.7516 -3.788336,3.8848 l -3.535708,2.0861 0.674997,-5.0884 z m 27.390027,2.1765 c 0,-0.5175 0.45,-1.2191 1,-1.559 0.55,-0.3399 1,-0.1256 1,0.4762 0,0.7612 0.68466,0.7294 2.25,-0.1047 2.04023,-1.0872 2.12204,-1.0438 0.87756,0.4648 -1.46479,1.7756 -5.12756,2.2919 -5.12756,0.7227 z m 8.397,-3.2257 c -0.28327,-0.4583 -0.15097,-0.8402 0.29399,-0.8486 0.44496,-0.01 0.19847,-0.4022 -0.54775,-0.875 -0.82882,-0.5252 -0.96867,-1.0996 -0.35938,-1.4761 0.54855,-0.339 1.68283,0.4297 2.52061,1.7083 1.31481,2.0067 1.32376,2.3248 0.0654,2.3248 -0.80181,0 -1.6896,-0.375 -1.97287,-0.8334 z m -16.397,-3.3333 c 0,-0.825 0.43588,-1.5 0.96862,-1.5 0.53274,0 0.70959,0.675 0.39301,1.5 -0.31658,0.825 -0.75246,1.5 -0.96862,1.5 -0.21615,0 -0.39301,-0.675 -0.39301,-1.5 z m 9.07895,-1.0833 c 0.048,-1.165 0.28494,-1.4019 0.60417,-0.6042 0.28887,0.7219 0.25334,1.5844 -0.0789,1.9167 -0.33229,0.3323 -0.56864,-0.2584 -0.52522,-1.3125 z m 1.37993,-2.4832 c -0.94391,-1.5273 -0.19643,-1.9391 2.32355,-1.2801 1.20729,0.3157 1.94858,0.9728 1.64731,1.4603 -0.7557,1.2227 -3.17153,1.1131 -3.97086,-0.1802 z m 5.88446,-4.5768 c 0.12598,-1.4931 -0.42842,-1.793 -2.83071,-1.5316 -1.64306,0.1787 -3.30609,0.8407 -3.69563,1.471 -1.05699,1.7103 -1.7151,0.5933 -3.7846,-6.4235 -1.03374,-3.5049 -1.91393,-5.9654 -1.95597,-5.4676 -0.042,0.4977 -0.95967,0.1057 -2.03918,-0.8713 -1.18494,-1.0723 -2.65128,-1.5121 -3.70018,-1.1095 -0.95559,0.3666 -0.0947,-0.9288 1.91319,-2.8788 4.06017,-3.9432 8.16088,-4.6508 10.40398,-1.7954 1.02332,1.3027 1.30712,1.3726 1.11025,0.2737 -0.15571,-0.8691 0.55808,-1.5264 1.73551,-1.5982 1.37788,-0.084 1.47284,0.01 0.3053,0.2885 -0.99052,0.24 -1.46547,1.008 -1.14301,1.8483 0.30343,0.7907 0.23025,2.2252 -0.16263,3.1877 -0.65574,1.6065 -0.78177,1.586 -1.53671,-0.25 -0.56639,-1.3774 -0.83949,-0.1323 -0.87735,4 -0.0661,7.2089 0.84004,9.1453 3.59047,7.6734 1.54324,-0.826 2.18692,-0.6224 3.20928,1.0146 0.84289,1.3497 0.94178,2.3849 0.29009,3.0366 -0.65169,0.6517 -0.93536,0.3558 -0.8321,-0.8679 z m 2.00075,-2.8645 c -0.93812,-2.0226 -0.89101,-2.4922 0.25,-2.4922 0.83297,0 1.40591,1.0188 1.40591,2.5 0,3.1127 -0.20904,3.1117 -1.65591,-0.01 z m -3.65113,-7.4261 c 0.27854,-1.0651 1.47407,-2.7532 2.65674,-3.7513 2.13121,-1.7987 2.13476,-1.7963 0.4003,0.2639 -0.9625,1.1433 -1.75,2.5793 -1.75,3.191 0,0.6118 -0.40803,1.3644 -0.90674,1.6727 -0.49871,0.3082 -0.67884,-0.3111 -0.4003,-1.3763 z m 5.91575,-6.4888 c 0.30026,-0.7825 1.27341,-1.7018 2.16255,-2.043 1.32811,-0.5097 1.28666,-0.2558 -0.23231,1.4227 -2.1782,2.4069 -2.67736,2.5673 -1.93024,0.6203 z"
         id="path5260"
         inkscape:connector-curvature="0" />
      <path
         style="fill:#a30000"
         d="m 115.13246,1070.4445 c -0.26708,-0.4322 0.34832,-0.7857 1.36756,-0.7857 1.01924,0 1.63465,0.3535 1.36757,0.7857 -0.26708,0.4321 -0.88249,0.7857 -1.36757,0.7857 -0.48508,0 -1.10048,-0.3536 -1.36756,-0.7857 z m -4.13244,-3.2143 c -0.33992,-0.55 -0.25397,-1.0069 0.19099,-1.0153 0.44496,-0.01 0.13401,-0.4515 -0.69099,-0.9847 -1.30396,-0.8427 -1.28653,-0.9714 0.13337,-0.9847 0.89835,-0.01 1.86873,0.8847 2.15638,1.9847 0.54099,2.0687 -0.70052,2.7624 -1.78975,1 z m 7.05578,0.09 c -0.8778,-1.4203 0.49968,-4.0902 2.11023,-4.0902 0.79861,0 1.21301,-0.3867 0.92087,-0.8594 -0.29213,-0.4727 0.62104,-0.733 2.02929,-0.5784 2.91899,0.3204 4.42539,1.3617 2.3005,1.5901 -3.92824,0.4224 -6.91667,1.7245 -6.91667,3.0137 0,0.5236 0.51953,0.6309 1.15451,0.2385 0.7153,-0.4421 0.88306,-0.2743 0.44099,0.441 -0.8605,1.3923 -1.29804,1.4448 -2.03972,0.2447 z m -12.74328,-0.7733 c 0.72188,-0.2889 1.58438,-0.2534 1.91667,0.079 0.33229,0.3323 -0.25833,0.5687 -1.3125,0.5253 -1.16494,-0.048 -1.4019,-0.285 -0.60417,-0.6042 z m 6.6875,-3.2884 c -1.52917,-0.6353 -1.14098,-0.7953 1.64896,-0.6797 2.00693,0.083 3.44287,0.4887 3.19098,0.9012 -0.57051,0.9343 -2.24211,0.8578 -4.83994,-0.2215 z m 15.5,0.5881 c 0,-0.2108 0.90062,-0.6189 2.00138,-0.9067 1.10076,-0.2879 1.7492,-0.1153 1.44099,0.3834 -0.53826,0.8709 -3.44237,1.3124 -3.44237,0.5233 z M 84.657918,1059.23 c 0,-1.375 0.226973,-1.9375 0.504386,-1.25 0.277412,0.6875 0.277412,1.8125 0,2.5 -0.277413,0.6875 -0.504386,0.125 -0.504386,-1.25 z m 21.239102,-0.1667 c -0.28327,-0.4583 -0.37597,-0.8677 -0.20601,-0.9098 2.64183,-0.6541 3.6551,-0.9257 5.55901,-1.4899 1.87599,-0.556 2.25,-0.2832 2.25,1.6409 0,2.2393 -0.0424,2.2501 -1.42858,0.3666 -1.2429,-1.6888 -1.50844,-1.7353 -2.04303,-0.3578 -0.65089,1.6773 -3.26504,2.1518 -4.13139,0.75 z m 9.48145,0.092 c -0.63284,-0.3911 -0.38475,-0.9004 0.62795,-1.289 0.92075,-0.3533 2.15301,-0.3464 2.73835,0.015 0.6295,0.389 0.771,0.1832 0.34638,-0.5039 -1.04136,-1.6849 2.33539,-2.6744 4.50434,-1.3199 1.49465,0.9335 1.72595,0.8707 1.26054,-0.3421 -0.31349,-0.817 -1.19684,-1.4854 -1.963,-1.4854 -0.76615,0 -1.39301,-0.45 -1.39301,-1 0,-2.5838 4.02677,0.6083 5.29708,4.1991 0.44751,1.265 0.18895,1.5409 -1.01205,1.08 -1.1609,-0.4454 -1.41398,-0.2209 -0.90276,0.801 0.3907,0.7809 -0.0404,0.4074 -0.95793,-0.8301 -2.00725,-2.7072 -3.42434,-2.8993 -3.42434,-0.4643 0,1.7989 -2.98124,2.462 -5.12155,1.1392 z m -1.65584,-4.7992 c -0.94743,-1.558 -2.09761,-2.8611 -2.55594,-2.8958 -1.34702,-0.1022 -2.11114,-1.2299 -0.83333,-1.2299 0.64166,0 1.2009,-0.7875 1.24274,-1.75 0.0418,-0.9625 0.68261,-0.175 1.42392,1.75 0.92131,2.3924 1.37677,2.8671 1.43924,1.5 0.0503,-1.1 0.51436,-2.669 1.03132,-3.4866 0.79975,-1.2649 1.24489,-1.1593 2.98469,0.7082 1.12461,1.2071 2.02978,2.5511 2.01148,2.9866 -0.0183,0.4355 -0.91829,-0.2706 -2,-1.569 -1.0817,-1.2984 -2.01863,-1.9734 -2.08208,-1.5 -0.42098,3.1415 -0.27529,4.0378 0.89193,5.4872 1.09615,1.3612 1.05362,1.7248 -0.2608,2.2292 -1.04015,0.3991 -2.15233,-0.354 -3.29317,-2.2299 z m 2.77739,0.8743 c 0,-0.55 -0.47655,-1 -1.05901,-1 -0.58246,0 -0.78091,0.45 -0.44099,1 0.33992,0.55 0.81648,1 1.05902,1 0.24254,0 0.44098,-0.45 0.44098,-1 z m -9.5,0 c 0.33992,-0.55 0.81648,-1 1.05902,-1 0.24254,0 0.44098,0.45 0.44098,1 0,0.55 -0.47655,1 -1.05901,1 -0.58246,0 -0.78091,-0.45 -0.44099,-1 z m -4.5,-2 c -1.33333,-0.8617 -1.33333,-0.9726 0,-0.9983 0.825,-0.016 2.625,-0.3292 4,-0.6962 2.34102,-0.6247 2.39326,-0.5602 0.82143,1.0137 -1.92148,1.924 -2.72262,2.0372 -4.82143,0.6808 z m 16.17735,-7.6706 c 0.17746,-0.915 0.81015,-1.826 1.40599,-2.0243 1.62166,-0.5399 1.3078,2.5227 -0.32265,3.1484 -0.91893,0.3526 -1.29421,-0.037 -1.08334,-1.1241 z m -34.019452,-2.3294 c 0,-1.375 0.226973,-1.9375 0.504386,-1.25 0.277412,0.6875 0.277412,1.8125 0,2.5 -0.277413,0.6875 -0.504386,0.125 -0.504386,-1.25 z m 27.842102,-0.941 c 0,-0.5175 0.45,-1.2191 1,-1.559 0.55,-0.3399 1,-0.1256 1,0.4762 0,0.7612 0.68466,0.7294 2.25,-0.1047 2.04023,-1.0872 2.12204,-1.0438 0.87756,0.4648 -1.46479,1.7756 -5.12756,2.2919 -5.12756,0.7227 z m 8.397,-3.2257 c -0.28327,-0.4583 -0.15097,-0.8402 0.29399,-0.8486 0.44496,-0.01 0.19847,-0.4022 -0.54775,-0.875 -0.82882,-0.5252 -0.96867,-1.0996 -0.35938,-1.4761 0.54855,-0.339 1.68283,0.4297 2.52061,1.7083 1.31481,2.0067 1.32376,2.3248 0.0654,2.3248 -0.80181,0 -1.6896,-0.375 -1.97287,-0.8334 z m -16.397,-3.3333 c 0,-0.825 0.43588,-1.5 0.96862,-1.5 0.53274,0 0.70959,0.675 0.39301,1.5 -0.31658,0.825 -0.75246,1.5 -0.96862,1.5 -0.21615,0 -0.39301,-0.675 -0.39301,-1.5 z m 9.07895,-1.0833 c 0.048,-1.165 0.28494,-1.4019 0.60417,-0.6042 0.28887,0.7219 0.25334,1.5844 -0.0789,1.9167 -0.33229,0.3323 -0.56864,-0.2584 -0.52522,-1.3125 z m 1.37993,-2.4832 c -0.94391,-1.5273 -0.19643,-1.9391 2.32355,-1.2801 1.20729,0.3157 1.94858,0.9728 1.64731,1.4603 -0.7557,1.2227 -3.17153,1.1131 -3.97086,-0.1802 z m 5.88446,-4.5768 c 0.12497,-1.4811 -0.4503,-1.8047 -2.84334,-1.5997 l -3,0.2569 2.4728,-1.4114 c 2.23301,-1.2745 2.60787,-1.2185 3.86573,0.5774 0.94896,1.3548 1.06706,2.3145 0.37054,3.011 -0.69653,0.6966 -0.97247,0.4307 -0.86573,-0.8342 z m 2.00075,-2.8645 c -0.93812,-2.0226 -0.89101,-2.4922 0.25,-2.4922 0.83297,0 1.40591,1.0188 1.40591,2.5 0,3.1127 -0.20904,3.1117 -1.65591,-0.01 z m -3.65113,-7.4261 c 0.27854,-1.0651 1.47407,-2.7532 2.65674,-3.7513 2.13121,-1.7987 2.13476,-1.7963 0.4003,0.2639 -0.9625,1.1433 -1.75,2.5793 -1.75,3.191 0,0.6118 -0.40803,1.3644 -0.90674,1.6727 -0.49871,0.3082 -0.67884,-0.3111 -0.4003,-1.3763 z m -5.49801,-2.5661 c 0.0204,-1.65 0.2445,-2.2039 0.49804,-1.231 0.25355,0.973 0.23687,2.323 -0.0371,3 -0.27392,0.6771 -0.48137,-0.119 -0.46099,-1.769 z m -11.46161,-1.6241 c 0.67833,-0.6834 1.48524,-0.9907 1.79312,-0.6828 0.30789,0.3079 -0.24711,0.8671 -1.23333,1.2426 -1.4252,0.5427 -1.54006,0.4278 -0.55979,-0.5598 z m 12.97397,-0.8871 c -0.28604,-1.0939 -0.1122,-1.9888 0.38631,-1.9888 0.49851,0 0.79388,-0.5518 0.65638,-1.2263 -0.1375,-0.6744 0.7694,-1.2968 2.01533,-1.383 1.54071,-0.1067 1.6681,-0.018 0.39825,0.2764 -1.34362,0.3117 -1.74205,1.0871 -1.42115,2.7658 0.55053,2.88 -1.31575,4.3067 -2.03512,1.5559 z m 9.9014,-1.4115 c 0.30026,-0.7825 1.27341,-1.7018 2.16255,-2.043 1.32811,-0.5097 1.28666,-0.2558 -0.23231,1.4227 -2.1782,2.4069 -2.67736,2.5673 -1.93024,0.6203 z"
         id="path5258"
         inkscape:connector-curvature="0" />
      <path
         style="fill:#610000"
         d="m 124.23336,1063.1061 c 0.67833,-0.6834 1.48524,-0.9907 1.79312,-0.6828 0.30789,0.3079 -0.24711,0.8671 -1.23333,1.2426 -1.4252,0.5427 -1.54006,0.4278 -0.55979,-0.5598 z m -39.575442,-3.8759 c 0,-1.375 0.226973,-1.9375 0.504386,-1.25 0.277412,0.6875 0.277412,1.8125 0,2.5 -0.277413,0.6875 -0.504386,0.125 -0.504386,-1.25 z m 34.921052,-1.5833 c 0.048,-1.165 0.28494,-1.4019 0.60417,-0.6042 0.28887,0.7219 0.25334,1.5844 -0.0789,1.9167 -0.33229,0.3323 -0.56864,-0.2584 -0.52522,-1.3125 z m 4.32604,-3.6667 -1.90499,-2.25 2.25,1.905 c 2.11445,1.7902 2.70524,2.595 1.90499,2.595 -0.18976,0 -1.20226,-1.0125 -2.25,-2.25 z m -9.84069,-0.043 c 0.37553,-0.9863 0.93469,-1.5413 1.24257,-1.2334 0.30789,0.3079 6.4e-4,1.1148 -0.68278,1.7932 -0.98762,0.9802 -1.10248,0.8654 -0.55979,-0.5598 z m -11.63172,-0.7486 c -0.6306,-0.3897 0.0264,-0.7083 1.46066,-0.7083 1.43372,0 2.60676,0.3187 2.60676,0.7083 0,0.3896 -0.65729,0.7084 -1.46065,0.7084 -0.80336,0 -1.97641,-0.3188 -2.60677,-0.7084 z m 8.56742,-1.9583 c -1.63041,-0.7006 -1.68751,-0.8724 -0.30901,-0.9297 0.93004,-0.039 1.96909,0.3797 2.30901,0.9297 0.71067,1.1499 0.67592,1.1499 -2,0 z m -26.342102,-8 c 0,-1.375 0.226973,-1.9375 0.504386,-1.25 0.277412,0.6875 0.277412,1.8125 0,2.5 -0.277413,0.6875 -0.504386,0.125 -0.504386,-1.25 z m 35.842102,-7.059 c 0,-0.5825 0.45,-0.7809 1,-0.441 0.55,0.3399 1,0.8165 1,1.059 0,0.2426 -0.45,0.441 -1,0.441 -0.55,0 -1,-0.4766 -1,-1.059 z m -6.92105,-1.5243 c 0.048,-1.165 0.28494,-1.4019 0.60417,-0.6042 0.28887,0.7219 0.25334,1.5844 -0.0789,1.9167 -0.33229,0.3323 -0.56864,-0.2584 -0.52522,-1.3125 z m 1.37993,-2.4832 c -0.36253,-0.5866 -0.44468,-1.281 -0.18255,-1.5432 0.26213,-0.2621 0.74306,0.2179 1.06875,1.0666 0.67618,1.7621 0.0999,2.072 -0.8862,0.4766 z m -1.26393,-17.4335 c 0.0204,-1.65 0.2445,-2.2039 0.49804,-1.231 0.25355,0.973 0.23687,2.323 -0.0371,3 -0.27392,0.6771 -0.48137,-0.119 -0.46099,-1.769 z m 1.55889,-2.3333 c -0.27231,-1.0413 0.05,-1.8334 0.74616,-1.8334 0.69613,0 1.01848,0.7921 0.74617,1.8334 -0.60241,2.3036 -0.88992,2.3036 -1.49233,0 z"
         id="path5256"
         inkscape:connector-curvature="0" />
      <path
         style="fill:#181918"
         d="m 84.657918,1043.2302 c 0,-1.375 0.226973,-1.9375 0.504386,-1.25 0.277412,0.6875 0.277412,1.8125 0,2.5 -0.277413,0.6875 -0.504386,0.125 -0.504386,-1.25 z m 29.037052,-28.5 c 0.0204,-1.65 0.2445,-2.2039 0.49804,-1.231 0.25355,0.973 0.23687,2.323 -0.0371,3 -0.27392,0.6771 -0.48137,-0.119 -0.46099,-1.769 z"
         id="path5254"
         inkscape:connector-curvature="0" />
    </g>
    <path
       inkscape:connector-curvature="0"
       id="path3451"
       style="fill:#ffffff;fill-opacity:1;stroke:#000000;stroke-width:1.77714527;stroke-linejoin:bevel;stroke-miterlimit:0;stroke-dasharray:none"
       d="m 57.316159,1047.16 -2.84e-4,-28.4256 6.467292,-6.091 0,-8.1214 -4.311315,-4.0608 -4.311781,0 1.8e-5,4.0608 0,4.0606 -4.311178,4.0608 -4.311419,-4.0608 0,-4.0606 -1.7e-5,-4.0608 -4.311299,0 -4.311281,4.0607 0,8.1214 6.467051,6.0912 -4.3e-5,28.4254 4.311177,4.0609 4.31154,0 4.311539,-4.0608 z" />
  </g>
</svg>
