<?xml version="1.0" encoding="UTF-8" standalone="no"?>
<!-- Created with Inkscape (http://www.inkscape.org/) -->

<svg
   xmlns:dc="http://purl.org/dc/elements/1.1/"
   xmlns:cc="http://creativecommons.org/ns#"
   xmlns:rdf="http://www.w3.org/1999/02/22-rdf-syntax-ns#"
   xmlns:svg="http://www.w3.org/2000/svg"
   xmlns="http://www.w3.org/2000/svg"
   xmlns:sodipodi="http://sodipodi.sourceforge.net/DTD/sodipodi-0.dtd"
   xmlns:inkscape="http://www.inkscape.org/namespaces/inkscape"
   version="1.1"
   id="svg55"
   width="103mm"
   height="103mm"
   viewBox="0 0 389.29137 389.29135"
   sodipodi:docname="morda_i2.svg"
   inkscape:version="0.92.2 5c3e80d, 2017-08-06">
  <metadata
     id="metadata61">
    <rdf:RDF>
      <cc:Work
         rdf:about="">
        <dc:format>image/svg+xml</dc:format>
        <dc:type
           rdf:resource="http://purl.org/dc/dcmitype/StillImage" />
        <dc:title></dc:title>
      </cc:Work>
    </rdf:RDF>
  </metadata>
  <defs
     id="defs59" />
  <sodipodi:namedview
     pagecolor="#ffffff"
     bordercolor="#666666"
     borderopacity="1"
     objecttolerance="10"
     gridtolerance="10"
     guidetolerance="10"
     inkscape:pageopacity="0"
     inkscape:pageshadow="2"
     inkscape:window-width="1139"
     inkscape:window-height="1018"
     id="namedview57"
     showgrid="false"
     units="mm"
     inkscape:zoom="0.74920635"
     inkscape:cx="-77.574152"
     inkscape:cy="157.5"
     inkscape:window-x="502"
     inkscape:window-y="106"
     inkscape:window-maximized="0"
     inkscape:current-layer="svg55" />
  <g
     id="g3754"
     transform="translate(24.645247,40.805466)">
    <path
       style="fill:#d5ad5a"
       d="m 41.15977,306.78907 c -1.462873,-1.76601 -5.820438,-6.60351 -9.683476,-10.75 C 15.985318,279.41144 14.29702,276.98117 11.925697,267.89641 10.251385,261.48197 9.6495405,255.84124 9.3760426,244 7.4056904,158.69259 6.6988808,119.70942 6.8486911,104.6072 6.9607015,93.315568 6.6072227,85.55579 5.8905685,83.573918 4.4282776,79.530024 6.411308,26.043161 8.3225071,17.978976 10.050003,10.689916 13.978089,2.9671057 16.555335,1.7928341 18.053068,1.1104211 20.262838,1.4540754 24.562001,3.0379974 27.8279,4.2412386 35.155567,6.5344433 40.845705,8.134008 57.197133,12.730587 74.608296,19.618875 86,25.998167 98.97281,33.262871 137.24697,46.553452 142.39779,45.582124 144.10401,45.260371 149.55,42.711961 154.5,39.918992 172.37611,29.832642 193.57945,19.849288 210.37329,13.611686 234.10033,4.7989408 239.10943,3.6257207 254,3.3935426 L 266.5,3.198639 276.82047,13.34932 c 5.67625,5.582874 11.19493,11.353814 12.26371,12.824311 1.30227,1.791737 2.43763,6.244694 3.44205,13.5 0.82434,5.954503 1.74356,11.491834 2.0427,12.305179 0.68375,1.859032 2.83693,33.47102 2.82813,41.52119 -0.004,3.3 -0.61498,42.45 -1.35861,87 -1.35273,81.04102 -1.44657,91.82436 -0.95205,109.40071 0.25609,9.10208 0.17945,9.47387 -2.4126,11.70345 -1.4724,1.26651 -4.36385,2.82525 -6.42545,3.46388 -6.50673,2.01561 -74.47008,3.19193 -112.85504,1.9533 -38.60399,-1.24569 -82.240519,-0.56543 -99.563373,1.55211 C 67.411403,309.35805 58.033299,310 52.989708,310 c -9.10404,0 -9.189347,-0.0231 -11.829938,-3.21093 z M 80.182498,157.67616 c 5.776348,-2.75076 11.644798,-7.85927 15.421364,-13.42435 2.678053,-3.94633 3.231132,-11.70465 1.324014,-18.57259 -2.122058,-7.64198 -11.439998,-15.21814 -19.512838,-15.86535 -4.595323,-0.36841 -4.634175,-0.14566 -1.846324,10.58549 1.700166,6.54437 1.705514,7.31616 0.103956,15 -0.951933,4.56712 -3.41613,11.545 -5.649195,15.99687 -2.17842,4.34292 -3.691533,8.33185 -3.362473,8.86428 0.926446,1.49902 7.642188,0.21545 13.521496,-2.58435 z M 217.26841,146.33741 c 9.559,-4.865 11.46095,-6.76897 12.81762,-12.83121 1.53658,-6.86619 0.31725,-11.60338 -4.32107,-16.78759 C 221.90447,112.40377 213.86636,108 209.85106,108 c -3.47379,0 -3.49864,0.28442 -0.382,4.37055 5.91279,7.75207 7.06157,17.06656 3.53094,28.62945 -2.88227,9.43949 -3.14531,9.11058 4.26841,5.33741 z"
       id="path3768"
       inkscape:connector-curvature="0" />
    <path
       style="fill:#cb9930"
       d="M 35.227139,299.03406 C 26.835871,290.06414 19.881713,281.99082 16.103774,276.8331 15.335849,275.78471 13.801024,271.45588 12.69305,267.21347 10.945653,260.52272 10.634961,255.65491 10.349781,230.5 10.168956,214.55 9.4036852,180.8 8.6491784,155.5 7.8946717,130.2 7.6013323,108.6 7.9973132,107.5 8.3932941,106.4 8.4901603,100.55 8.2125714,94.5 7.4305361,77.455679 7.979861,34.373161 9.0886745,25.788887 10.394128,15.682256 12.408539,9.1929403 15.385231,5.5048768 L 17.80264,2.5097536 28.65132,6.2172816 C 34.618094,8.2564221 41.525,10.434756 44,11.058023 c 10.60473,2.670539 30.342429,10.590408 41,16.451495 13.974878,7.685426 52.25279,21.040842 57.48944,20.058442 1.68926,-0.316908 7.97201,-3.301446 13.96167,-6.632305 C 181.43556,27.041741 198.16392,19.460024 221,11.680454 236.87433,6.2725446 244.30622,4.9433082 257.89329,5.0818775 l 10.00721,0.1020596 11.1491,11.9130699 11.1491,11.91307 1.41201,10.244962 c 0.7766,5.634728 1.66327,10.919961 1.97036,11.744961 0.78938,2.12065 2.70693,30.742758 2.7803,41.5 0.0338,4.95 -0.55554,45.225 -1.30956,89.5 -1.39604,81.97284 -1.46997,90.68373 -0.91328,107.60676 0.29668,9.01901 0.17485,9.72106 -1.99128,11.47509 -1.26901,1.02758 -3.95879,2.38063 -5.97727,3.00676 -6.58845,2.04375 -71.86854,3.15369 -114.16998,1.94121 -39.12586,-1.12146 -90.455125,-0.15313 -101.5,1.91481 -2.75,0.51488 -9.725,0.9509 -15.5,0.96894 l -10.5,0.0328 -9.272861,-9.9123 z M 76.571861,161.34462 c 5.927067,-1.99093 11.660404,-5.8073 16.528837,-11.00236 6.234329,-6.65258 6.901182,-8.18604 6.87734,-15.81477 -0.0235,-7.52041 -2.248797,-14.05325 -6.232424,-18.29665 -5.535307,-5.89627 -17.104694,-10.48105 -20.755123,-8.22496 -1.330836,0.8225 -1.200367,1.83617 1.415035,10.99412 0.863905,3.025 1.576077,7.08404 1.582605,9.0201 0.01874,5.5563 -3.775408,17.7995 -8.037193,25.93497 -4.144913,7.91236 -4.010011,8.99907 1.120923,9.02962 1.414524,0.008 4.789524,-0.72961 7.5,-1.64007 z M 220.21794,146.82581 c 9.16249,-4.76686 11.35065,-7.52475 12.35628,-15.57351 0.51358,-4.11063 0.25283,-6.30942 -1.10543,-9.32151 C 227.83713,113.8772 219.71814,107.83007 210.72653,106.4817 206.68525,105.87567 206,106.01652 206,107.45318 c 0,0.92414 1.11108,3.13696 2.46906,4.91737 5.94858,7.79899 7.02672,16.77196 3.53094,29.38689 -3.09483,11.16806 -3.28317,11.0519 8.21794,5.06837 z"
       id="path3766"
       inkscape:connector-curvature="0" />
    <path
       style="fill:#b5882a"
       d="M 35.227139,299.03406 C 26.835871,290.06414 19.881713,281.99082 16.103774,276.8331 15.335849,275.78471 13.801024,271.45588 12.69305,267.21347 10.945653,260.52272 10.634961,255.65491 10.349781,230.5 10.168956,214.55 9.3984686,180.8 8.637586,155.5 7.8767033,130.2 7.615373,108.825 8.0568519,108 c 0.608455,-1.13703 2.6950211,-1.5 8.6229181,-1.5 H 24.5 l 0.652268,-9 c 0.358748,-4.95 1.577927,-13.95 2.709287,-20 1.13136,-6.05 2.272836,-16.625 2.536613,-23.5 0.648116,-16.892278 1.597781,-24.061215 3.27251,-24.703869 0.769011,-0.295097 3.576688,1.532333 6.373118,4.148066 5.479833,5.125742 6.682203,5.719415 24.360869,12.028245 26.974603,9.626188 53.568215,20.879614 58.834985,24.896774 6.29152,4.798776 7.88945,4.89854 13.87687,0.866377 2.95463,-1.989763 10.32462,-5.828713 16.37777,-8.530999 22.34126,-9.973742 25.18457,-11.298629 34.00392,-15.844709 4.95099,-2.552063 11.25179,-5.323112 14.00179,-6.157887 2.75,-0.834774 9.725,-3.621318 15.5,-6.192318 28.71845,-12.785307 31.32211,-13.796319 32.92149,-12.783522 1.3601,0.861275 1.59107,4.23548 1.66931,24.386711 0.0499,12.862922 0.60531,28.787131 1.23417,35.387131 0.62885,6.6 1.1505,12.7875 1.1592,13.75 0.0137,1.516665 1.06224,1.75 7.86385,1.75 h 7.84803 l 0.69861,-12.75 c 1.41228,-25.774873 1.81674,-64.752355 0.71392,-68.799519 -0.74147,-2.721059 -2.0151,-4.480621 -4.09253,-5.6539707 C 263.66698,7.9049293 262.96937,5 265.86418,5 c 1.09147,0 6.5212,4.9761425 13.09935,12.005039 l 11.23517,12.005038 1.41201,10.244962 c 0.7766,5.634728 1.66327,10.919961 1.97036,11.744961 0.78938,2.12065 2.70693,30.742758 2.7803,41.5 0.0338,4.95 -0.55554,45.225 -1.30956,89.5 -1.39604,81.97284 -1.46997,90.68373 -0.91328,107.60676 0.29668,9.01901 0.17485,9.72106 -1.99128,11.47509 -1.26901,1.02758 -3.95879,2.38063 -5.97727,3.00676 -6.58845,2.04375 -71.86854,3.15369 -114.16998,1.94121 -39.12586,-1.12146 -90.455125,-0.15313 -101.5,1.91481 -2.75,0.51488 -9.725,0.9509 -15.5,0.96894 l -10.5,0.0328 -9.272861,-9.9123 z m 21.996552,-44.66775 c 0.94803,-0.26641 4.32303,-3.33723 7.5,-6.82403 3.17697,-3.48681 8.665111,-8.18947 12.19587,-10.45036 5.962845,-3.81824 6.567573,-4.00282 8.5,-2.5944 1.144241,0.83396 3.063628,2.22073 4.265304,3.08172 3.148273,2.25569 27.875105,8.15905 39.713875,9.4814 18.32225,2.04653 36.36327,-0.55814 52.11426,-7.52397 3.15472,-1.39517 6.30091,-2.53667 6.99154,-2.53667 0.69062,0 4.97674,3.2155 9.52471,7.14554 l 8.26904,7.14555 10.10086,0.0967 C 228.36262,251.50231 232,250.72442 232,248.0514 c 0,-2.59444 -10.34779,-11.87803 -31.5,-28.26044 -4.4,-3.4078 -13.06055,-11.27074 -19.24566,-17.4732 -6.18511,-6.20246 -14.28511,-13.6289 -18,-16.5032 -3.71489,-2.8743 -8.26233,-6.50961 -10.10543,-8.07848 -1.8431,-1.56887 -6.67063,-4.49505 -10.72784,-6.50261 l -7.37675,-3.65011 -2.77216,2.65098 c -1.52469,1.45804 -3.69375,3.01428 -4.82014,3.45832 C 125.15116,174.59969 111,189.20955 111,190.67796 c 0,0.5201 -5.20587,5.19283 -11.568601,10.38384 C 87.994595,210.39247 85.500824,212.29517 63,228.8582 c -18.486066,13.60774 -27.998483,21.52262 -27.999268,23.29702 -0.0012,2.74714 15.003005,4.23999 22.222959,2.21109 z M 125.5,229.86081 C 111.86327,228.13442 102,224.0292 102,220.0798 c 0,-1.14158 4.05116,-4.60792 11.25,-9.62598 6.1875,-4.31308 14.16875,-10.45464 17.73612,-13.64789 C 134.55348,193.61267 138.29232,191 139.29465,191 141.37458,191 173,222.51334 173,224.5859 c 0,4.96361 -26.61371,7.91909 -47.5,5.27491 z m 54,-54.49331 c 7.89817,-0.50792 12.20692,-1.42613 20.5,-4.36865 13.3562,-4.739 23.42385,-9.32202 27.78481,-12.64829 4.1571,-3.17077 14.72999,-18.99907 16.38848,-24.5346 2.73743,-9.13673 -2.83591,-23.64142 -12.51075,-32.55938 -3.74228,-3.449501 -5.69204,-4.334309 -13.76128,-6.244883 C 212.73057,93.787419 205.125,92.734649 201,92.672208 c -9.43399,-0.142803 -30.80169,1.087194 -32.0254,1.843492 -1.42171,0.878663 -3.32225,8.13595 -2.614,9.98164 0.52443,1.36663 1.53672,1.53446 5.93822,0.98453 7.63219,-0.95358 8.0514,-0.16952 7.35222,13.75128 -0.31123,6.19677 -1.14811,16.89185 -1.85972,23.76685 l -1.29384,12.5 -6.70091,0.5 c -3.68549,0.275 -7.1386,0.95 -7.67357,1.5 -0.53497,0.55 -1.46735,4.5981 -2.07196,8.99578 -0.99739,7.25465 -0.93484,8.11864 0.67484,9.32135 1.10104,0.82266 3.10198,1.11081 5.27412,0.7595 1.925,-0.31133 8,-0.85544 13.5,-1.20913 z m 7.69402,-18.22642 c -1.06232,-0.67377 -1.0984,-3.88922 -0.19338,-17.23469 1.20846,-17.81998 3.04717,-32.70925 4.27267,-34.59861 1.32808,-2.04752 8.84715,-2.53429 15.22669,-0.98575 4.8009,1.16536 5.35049,1.47856 2.75,1.5672 -4.00166,0.13639 -4.2225,1.9692 -0.78094,6.48132 5.94858,7.79899 7.02672,16.77196 3.53094,29.38689 -1.1,3.96948 -2,8.10711 -2,9.19472 0,2.6663 -2.83009,4.00461 -11.88324,5.61945 -9.07278,1.61833 -9.25409,1.62778 -10.92274,0.56947 z m -97.425549,17.31119 c 5.360306,-2.23968 7.759914,-4.84728 13.874469,-15.07711 9.87613,-16.52302 11.76874,-24.36885 8.48571,-35.17751 -1.78167,-5.86576 -3.01649,-7.81362 -8.42221,-13.28558 C 91.555368,98.612083 85.693067,95.891434 71.029947,95.747151 58.810959,95.626917 56.0506,96.921307 47.348148,106.85204 34.05346,122.02316 27.756134,142.66762 33.072872,153.65053 c 3.624113,7.48642 17.403134,18.7088 25.71946,20.94731 6.942179,1.86864 26.374021,1.77732 30.976139,-0.14557 z M 56.969218,159.65424 c -5.539588,-1.50844 -8.022223,-3.18759 -11.868271,-8.02721 -4.807435,-6.04938 -4.815808,-8.97981 -0.07633,-26.71567 1.474288,-5.51701 6.105938,-11.12666 11.696206,-14.16592 6.065253,-3.2975 14.029519,-4.72689 14.646322,-2.62866 0.223638,0.76077 1.164946,3.85822 2.091795,6.88322 2.856228,9.32201 2.993349,14.69278 0.600142,23.50654 -2.485107,9.15221 -8.838237,21.89769 -11.05908,22.18643 -0.825,0.10726 -3.538852,-0.36017 -6.030782,-1.03873 z m 65.646232,-11.80182 c 0.6135,-4.94083 1.5807,-9.44857 2.14934,-10.01721 1.90487,-1.90487 5.30518,0.28069 15.17442,9.75343 5.39291,5.17625 10.18575,9.41136 10.65075,9.41136 0.465,0 -3.07752,-3.81844 -7.87225,-8.48543 C 137.92297,143.84758 134,139.35616 134,138.53362 c 0,-0.82253 1.2375,-1.78232 2.75,-2.13286 12.05654,-2.79425 19.8633,-16.03581 12.95667,-21.97665 -4.67505,-4.0213 -21.22356,-4.02843 -23.94136,-0.0103 -0.40408,0.59741 -0.74158,2.90974 -0.75,5.13851 -0.008,2.22877 -1.13855,10.77877 -2.51139,19 -2.59058,15.5136 -3.03248,20.30873 -1.75392,19.03223 0.4125,-0.41184 1.25195,-4.7913 1.86545,-9.73212 z m 3.89061,-14.84262 c -0.33659,-0.54461 -0.2998,-4.83768 0.0818,-9.54016 0.80213,-9.88581 1.34038,-10.47272 9.59644,-10.46406 10.95436,0.0115 15.94585,3.35558 14.37149,9.62831 -0.76147,3.03395 -5.20199,8.13182 -8.62521,9.90203 -3.18831,1.64874 -14.48391,1.99577 -15.42448,0.47388 z"
       id="path3764"
       inkscape:connector-curvature="0" />
    <path
       style="fill:#936f21"
       d="m 36,299.82645 c -4.675,-5.02932 -11.280889,-12.47277 -14.679753,-16.541 -5.667187,-6.78329 -6.351465,-8.1282 -8.25,-16.21491 C 11.274162,259.42021 11,255.02203 11,233.85915 11,220.44284 10.555435,202.49855 10.012078,193.98293 9.4687214,185.46732 8.9062214,162.5573 8.7620783,143.07178 L 8.5,107.64357 l 8.5,-0.0718 8.5,-0.0718 0.616895,-9 c 0.339293,-4.95 1.587223,-14.027236 2.773179,-20.171636 1.185957,-6.1444 2.205599,-14.0194 2.265872,-17.5 0.171295,-9.891737 1.920862,-29.247812 2.718488,-30.075585 0.396005,-0.410972 2.676099,1.076805 5.066877,3.30617 5.054035,4.712814 10.777373,7.758409 20.558689,10.940025 17.957447,5.841105 57.3099,22.017497 62,25.485994 1.65,1.220233 4.4625,2.971857 6.25,3.892499 3.57846,1.843066 5.0557,1.399056 13.25,-3.982529 C 144.20821,68.287954 181.42141,51 182.74859,51 c 0.31697,0 2.6927,-1.358079 5.27939,-3.017953 2.58669,-1.659875 8.47608,-4.314032 13.08755,-5.898128 4.61146,-1.584096 13.10947,-4.993365 18.88447,-7.576152 28.87082,-12.912071 28.14137,-12.63533 29.76135,-11.290863 1.31345,1.090061 1.44192,3.638433 0.89627,17.77778 -0.56203,14.563733 0.3872,40.40799 1.93904,52.793272 l 0.53727,4.287956 8.68303,-0.287956 L 270.5,97.5 271.1512,87 c 0.35816,-5.775 0.96959,-23.325 1.35872,-39 C 273.29909,16.211287 272.90219,12.782465 268.0151,9.1692859 266.3568,7.9432475 265,6.503597 265,5.9700626 c 0,-2.8156584 3.82038,0.1967925 13.87623,10.9416924 l 11.14787,11.911756 1.50046,10.838244 c 0.82526,5.961035 1.74523,11.50371 2.04437,12.317055 0.68375,1.859032 2.83693,33.47102 2.82813,41.52119 -0.004,3.3 -0.61498,42.45 -1.35861,87 -1.43075,85.71545 -1.50491,94.30177 -0.92417,107 0.45277,9.89983 -0.37397,13.06877 -3.87877,14.86768 -6.95357,3.56906 -13.42092,3.87995 -74.72576,3.59207 C 122.0959,305.5211 86.025142,305.92607 73.5,307.55408 c -6.05,0.78638 -15.05,1.42681 -20,1.42318 l -9,-0.007 -8.5,-9.1442 z M 65,248.54248 C 72.927481,240.85707 80.865278,235 83.35345,235 c 0.821205,0 2.829488,1.1245 4.462853,2.49888 5.71006,4.8047 37.700497,11.51972 54.683697,11.47849 13.45432,-0.0327 29.98781,-3.73471 40.71016,-9.1155 2.04059,-1.02403 4.14818,-1.86187 4.68352,-1.86187 0.53535,0 4.76371,3.09832 9.39635,6.88516 7.76873,6.35036 8.89371,6.93979 14.48316,7.58852 7.1877,0.83422 18.47438,-0.203 20.81242,-1.91262 1.45192,-1.06167 1.48795,-1.52602 0.28727,-3.70214 -1.80254,-3.26693 -10.47459,-11.06957 -25.87288,-23.279 -6.875,-5.45124 -18.575,-15.83546 -26,-23.07605 -7.425,-7.24059 -15.3,-14.46999 -17.5,-16.06535 -2.2,-1.59536 -6.4287,-4.84199 -9.39711,-7.21474 C 148.30092,172.58606 137.89211,167 135.05236,167 c -0.95831,0 -2.59963,0.94788 -3.64737,2.10641 -1.04775,1.15852 -3.59249,2.96767 -5.65499,4.02032 -2.0625,1.05266 -3.75,2.34565 -3.75,2.87331 0,0.85904 -4.37676,5.75127 -15.04776,16.81998 -4.59528,4.76655 -22.541189,19.40305 -30.91674,25.21538 C 52.408076,234.43197 34,249.33537 34,252.06784 c 0,2.41283 0.853276,2.77631 9.080869,3.86829 11.370828,1.50916 13.464322,0.80299 21.919131,-7.39365 z m 66,-19.18181 c -1.375,-0.20184 -5.875,-0.85157 -10,-1.44385 -8.56243,-1.22943 -18,-5.06549 -18,-7.31642 0,-0.83063 4.6125,-4.76789 10.25,-8.74945 5.6375,-3.98157 13.625,-10.07236 17.75,-13.53508 4.125,-3.46272 7.96831,-6.30036 8.54069,-6.30586 0.57238,-0.006 8.19495,7.19492 16.93905,16.00094 11.62363,11.70596 15.6007,16.30861 14.79132,17.11799 -2.38916,2.38916 -16.62759,4.85721 -27.27106,4.72708 -5.775,-0.0706 -11.625,-0.29352 -13,-0.49535 z M 92.159075,174.30034 c 5.538738,-2.99487 9.170735,-7.8091 16.329265,-21.6445 6.57381,-12.7053 7.66505,-18.89229 4.92711,-27.93508 -2.59213,-8.56124 -8.90044,-16.68016 -17.217795,-22.15966 -10.377637,-6.83682 -13.178501,-7.728621 -24.657512,-7.851006 -12.991052,-0.138506 -16.993608,1.63423 -24.994851,11.070246 -13.26926,15.64868 -19.941414,37.64239 -14.597303,48.11771 2.636639,5.16824 15.009403,16.44475 21.559808,19.64957 10.081175,4.93226 30.197104,5.32401 38.651278,0.75272 z M 56.115476,158.49888 C 49.231866,156.35222 42,148.37896 42,142.93633 c 0,-4.06359 4.161669,-19.42935 6.291763,-23.23051 3.46241,-6.17869 14.646538,-12.43855 20.639952,-11.55237 1.886296,0.2789 2.720343,1.51778 4.272678,6.34655 3.102055,9.64941 3.307055,15.07794 0.900635,23.84942 -2.177607,7.93745 -6.115025,16.76737 -8.874016,19.90058 -1.808463,2.05376 -3.205628,2.0919 -9.115536,0.24888 z m 119.338454,18.44494 c 6.07534,-0.58089 13.29607,-1.53993 16.04607,-2.13119 7.57095,-1.62778 29.37534,-10.46732 34.78005,-14.09989 5.021,-3.37469 12.35484,-13.03531 17.2173,-22.6798 2.46966,-4.89846 2.69621,-6.18417 2.17829,-12.36192 -0.47641,-5.68264 -1.33383,-8.22 -4.87684,-14.43211 -5.38589,-9.44331 -10.82213,-14.123412 -19.0568,-16.406161 -12.21323,-3.385657 -19.5505,-3.975895 -36.3322,-2.922703 -17.68622,1.109958 -18.28929,1.372268 -20.35497,8.853564 -1.44457,5.23179 0.054,6.62052 6.3407,5.87595 3.00225,-0.35557 5.48388,-0.15461 6.28326,0.50882 1.61147,1.3374 1.80869,15.42653 0.31568,22.5524 -0.55303,2.63957 -1.34053,9.29922 -1.75,14.79922 l -0.74447,10 -6.78751,0.5 c -4.37158,0.32203 -7.10265,1.01049 -7.67286,1.9342 -0.48694,0.78881 -1.42741,5.25291 -2.08994,9.92022 -1.11442,7.85082 -1.06847,8.58556 0.61399,9.8158 2.18785,1.5998 2.04576,1.59735 15.89025,0.2736 z m 12.01216,-21.17159 c -0.6497,-1.6931 1.09206,-29.20649 2.58113,-40.77223 0.74608,-5.79489 1.62876,-8.91161 2.77357,-9.79338 2.48497,-1.91399 11.2462,-1.17238 12.32622,1.04338 1.20513,2.47244 2.42096,4.59704 5.57958,9.75 3.94068,6.4288 4.22893,15.45837 0.87501,27.40969 -2.6535,9.45549 -3.11636,10.07438 -8.6016,11.50135 -7.27387,1.89228 -14.97442,2.3192 -15.53391,0.86119 z M 122.39318,156.75 c 0.2372,-1.2375 0.88715,-5.56888 1.44433,-9.62528 0.55718,-4.05641 1.47701,-7.83924 2.04406,-8.40629 1.22865,-1.22865 7.30693,3.51179 17.3938,13.56536 6.18449,6.16409 8.72463,7.48076 8.72463,4.52238 0,-0.59168 -3.825,-4.68304 -8.5,-9.09192 -4.675,-4.40887 -8.5,-8.38014 -8.5,-8.82505 0,-0.4449 1.82663,-1.35619 4.05918,-2.02508 9.45871,-2.8339 16.31517,-12.62322 13.83148,-19.74793 -1.60471,-4.60327 -5.73685,-6.34838 -15.37674,-6.49398 -10.85334,-0.16393 -13.50957,1.43693 -13.52427,8.15084 -0.006,2.59982 -0.88878,9.74668 -1.96242,15.88191 -1.07363,6.13523 -2.25611,14.12273 -2.62774,17.75 -0.58289,5.68933 -0.45333,6.59504 0.94336,6.59504 0.89048,0 1.81312,-1.0125 2.05033,-2.25 z m 5.07149,-25 c -0.25991,-0.6875 -0.13329,-4.6148 0.28138,-8.72733 0.69675,-6.91005 0.95697,-7.54863 3.42997,-8.41703 1.6519,-0.58007 5.27646,-0.58874 9.47102,-0.0227 5.75591,0.77679 7.01236,1.30681 8.21632,3.46595 1.25169,2.24474 1.21653,2.98047 -0.29464,6.16501 -2.67671,5.64079 -8.01212,8.7861 -14.90386,8.7861 -3.6634,0 -5.89794,-0.4505 -6.20019,-1.25 z"
       id="path3762"
       inkscape:connector-curvature="0" />
    <path
       style="fill:#624509"
       d="M 35.724485,298.60632 C 12.813449,273.89341 12.025569,271.73197 11.992176,233.5 c -0.01201,-13.75 -0.441138,-31.3 -0.953619,-39 -0.512481,-7.7 -1.2464927,-30.00839 -1.6311376,-49.5742 l -0.6993544,-35.57421 8.346767,-0.0902 c 9.820453,-0.10608 11.187528,-1.11877 10.327525,-7.65036 C 27.051048,99.094838 28.035318,90.905071 29.919547,80.5 31.612716,71.15 32.998478,60.756631 32.999018,57.403625 33.000936,45.492857 34.262135,33 35.462652,33 c 0.639741,0 2.484857,1.391961 4.100257,3.093247 3.524748,3.712148 9.491713,6.833384 18.937091,9.905727 19.587458,6.371307 57.15763,22.060592 63.88307,26.67754 7.42692,5.098508 8.65317,5.134239 16.37432,0.477124 6.06418,-3.657684 21.33124,-10.914673 40.72639,-19.358729 3.84108,-1.672289 8.56608,-4.121716 10.5,-5.44317 C 191.9177,47.030285 196.875,44.862514 201,43.53447 c 4.125,-1.328044 12.675,-4.738062 19,-7.577817 23.96945,-10.761642 27.13397,-12.078662 28.18262,-11.729114 0.725,0.241668 1.18184,9.346145 1.39571,27.815859 0.35387,30.559606 1.34611,45.671958 3.06905,46.743208 0.63106,0.392367 5.13106,0.488394 10,0.213394 L 271.5,98.5 272.31652,86 c 0.44909,-6.875 0.89909,-26.111531 1,-42.747848 0.10092,-16.636316 0.43228,-30.136316 0.73637,-30 0.30408,0.136317 3.86822,3.755803 7.9203,8.043303 l 7.36743,7.795455 1.88785,12.204545 c 2.22174,14.363067 3.97227,35.962314 4.10937,50.704545 0.0537,5.775 -0.51006,46.95 -1.25283,91.5 -0.74277,44.55 -1.17826,85.275 -0.96775,90.5 0.74013,18.37077 0.46495,24.84667 -1.12305,26.42938 -0.82182,0.81907 -4.22427,2.18744 -7.56101,3.04081 -6.34581,1.62294 -55.17363,2.13888 -153.9332,1.62654 -24.45519,-0.12686 -43.497582,0.22201 -49,0.89772 -4.95,0.60787 -15.3,1.32399 -23,1.59138 l -14,0.48617 z M 66.277188,249.38706 C 74.244009,241.62189 81.531076,236 83.629437,236 c 0.562064,0 2.085927,1.13257 3.386363,2.51682 2.547005,2.71116 2.968037,2.85548 22.4842,7.70723 12.33423,3.06631 13.97304,3.23295 32,3.25389 l 19,0.0221 12,-4.30079 c 17.39358,-6.23385 15.69826,-6.35238 25.34852,1.77217 l 8.34852,7.02862 10.65148,-0.0564 c 18.39772,-0.0975 22.16626,-3.2377 13.98736,-11.65523 C 226.13798,237.45336 207.66632,221.87132 202,217.9634 200.075,216.63577 191.51776,208.78839 182.98391,200.52477 174.45006,192.26115 165.79063,184.375 163.74074,183 c -2.04989,-1.375 -3.73015,-2.8375 -3.73391,-3.25 -0.004,-0.4125 2.13067,-0.75957 4.74317,-0.77128 12.99875,-0.0582 28.78606,-2.76318 39.27794,-6.72979 14.9918,-5.66786 21.72809,-9.03373 26.2428,-13.1125 6.53607,-5.90493 15.6712,-20.67146 17.09695,-27.63643 1.68965,-8.25415 -6.2617,-26.00664 -14.76481,-32.96447 -4.00367,-3.276084 -9.69051,-5.254644 -21.83139,-7.595557 -3.24931,-0.626508 -12.15709,-0.750806 -23.22111,-0.324024 -20.33707,0.784479 -21.19349,1.123102 -23.6598,9.354916 -1.83759,6.133325 -0.63867,7.459215 7.08006,7.829885 l 6.26268,0.30074 -0.66097,12.69926 C 176.20881,127.78534 175.59381,138 175.20569,143.5 l -0.70569,10 -5,0.26131 c -10.26436,0.53645 -10.86878,1.31002 -12.10186,15.48869 -0.3707,4.2625 -0.88447,7.75 -1.14172,7.75 -0.25724,0 -1.85044,-1.1635 -3.54046,-2.58555 C 148.69814,171.03368 137.98536,166 134.80814,166 c -1.37399,0 -3.35541,0.94788 -4.40315,2.10641 -1.04775,1.15852 -3.55977,2.95098 -5.58228,3.98323 -2.02251,1.03225 -3.94691,2.67187 -4.27644,3.64359 -1.55857,4.59588 -29.269259,30.16633 -42.54627,39.2602 -8.509377,5.82836 -35.020696,25.75766 -40.25,30.25705 -8.2098,7.06387 -7.54419,10.22435 2.481334,11.78202 2.897766,0.45023 8.0934,0.71749 11.545854,0.59392 l 6.277188,-0.22467 z M 131.84162,228.01614 C 116.24689,226.50986 105,223.30594 105,220.36972 c 0,-0.69292 3.9375,-3.97044 8.75,-7.28339 4.8125,-3.31294 12.56042,-9.20046 17.2176,-13.08337 l 8.4676,-7.05983 15.48875,15.48875 c 8.51881,8.51882 15.19164,15.78587 14.8285,16.149 -2.85268,2.85268 -24.05324,4.77375 -37.91083,3.43526 z m 56.21139,-75.18655 c 0.27905,-17.52839 3.44862,-45.89256 5.25674,-47.04219 0.65464,-0.41623 3.11184,-0.76367 5.46044,-0.77209 4.2192,-0.0151 4.329,0.0748 9.19543,7.52941 7.10113,10.87783 7.57562,16.49 2.70174,31.95528 -1.92318,6.10239 -2.65238,7.21218 -5.68671,8.65469 -1.91436,0.91007 -6.51815,1.95839 -10.23065,2.32959 l -6.75,0.67491 0.053,-3.3296 z M 87.117631,177.98397 c 8.558384,-2.37729 14.715559,-9.22137 23.009079,-25.57601 4.32063,-8.52019 5.18849,-11.16798 5.57207,-17 0.84859,-12.90213 -5.9237,-25.26066 -18.509813,-33.77793 C 86.513233,94.405559 84.059311,93.650367 71,93.57041 60.551772,93.50644 59.10826,93.724332 55.216744,95.952832 42.981203,102.95959 28.07453,130.39789 28.027133,146 c -0.01474,4.85229 4.533344,12.38021 11.294547,18.69455 7.959948,7.43385 13.956718,11.0984 20.962731,12.81006 6.404109,1.5646 21.927885,1.84192 26.83322,0.47936 z M 59.5,158.50852 c -0.55,-0.18347 -2.229247,-0.60444 -3.73166,-0.9355 C 50.112478,156.32676 43,147.99343 43,142.61301 c 0,-3.69654 3.537267,-17.8175 5.333216,-21.29049 C 51.696374,114.81889 60.69412,109 67.387515,109 c 3.231151,0 3.551959,0.30357 5.019693,4.75 0.862368,2.6125 2.019059,7.15033 2.570425,10.08406 1.305045,6.94396 -0.720332,15.66605 -6.250213,26.91594 -4.015072,8.16819 -5.146786,9.11975 -9.22742,7.75852 z m 63.21113,1.24148 c 0.52582,-0.6875 1.46926,-5.25084 2.09655,-10.14077 0.62728,-4.88992 1.36313,-9.11337 1.63521,-9.38545 0.90847,-0.90848 5.53152,2.77989 14.18401,11.31628 4.71625,4.65296 9.14947,8.45994 9.8516,8.45994 2.00036,0 3.7856,-2.71167 2.85049,-4.32972 -0.45594,-0.78893 -4.31591,-4.6814 -8.5777,-8.64993 -4.26179,-3.96853 -7.51913,-7.58697 -7.23853,-8.04099 0.28059,-0.45402 1.92829,-1.13696 3.66155,-1.51764 4.49422,-0.9871 12.51552,-9.29147 13.36897,-13.84075 2.0037,-10.68065 -5.30913,-15.63602 -21.19307,-14.36101 -8.58469,0.6891 -9.90189,2.0064 -10.71098,10.7119 -0.35358,3.80446 -1.53966,12.22966 -2.63573,18.72267 -2.30813,13.67317 -2.56022,20.91416 -0.7535,21.64319 2.00617,0.80951 2.45017,0.73411 3.46113,-0.58772 z m 5.97479,-28.5 c -0.23766,-0.4125 -0.15172,-3.9 0.19098,-7.75 l 0.6231,-7 7.8448,-0.29377 C 146.08642,115.87887 148,116.73756 148,120.98759 148,126.67281 140.82022,132 133.15789,132 c -2.22192,0 -4.23431,-0.3375 -4.47197,-0.75 z"
       id="path3760"
       inkscape:connector-curvature="0" />
    <path
       style="fill:#4a360c"
       d="M 42.257714,304.78066 C 40.740971,303.01003 36.088377,297.94722 31.918616,293.52998 25.181268,286.39277 21.078001,281 22.384768,281 c 0.250324,0 5.103657,1.11576 10.785184,2.47946 5.681526,1.36371 13.030048,2.68309 16.330048,2.93195 3.3,0.24887 11.625,1.09792 18.5,1.8868 6.875,0.78887 16.325,1.30666 21,1.15064 4.675,-0.15602 19.075,-0.21868 32,-0.13924 44.91392,0.27603 92.54988,-0.35457 101,-1.33702 4.675,-0.54354 11.20567,-1.839 14.51259,-2.8788 3.30693,-1.03981 8.70693,-2.1802 12,-2.53421 12.48397,-1.34206 11.86423,-1.02279 17.87002,-9.20589 3.06422,-4.1751 5.77755,-9.00017 6.02962,-10.72239 2.49277,-17.03074 2.8359,-27.23389 1.55648,-46.28259 -0.79365,-11.81626 -1.26179,-34.41733 -1.15679,-55.84871 0.12276,-25.05857 -0.23642,-39.49297 -1.18179,-47.49273 -1.08769,-9.20403 -1.11008,-11.89246 -0.11243,-13.499998 1.64551,-2.65146 2.65701,-23.230485 2.83737,-57.726295 L 274.5,14.061955 l 6.32157,6.219022 c 3.47686,3.420463 6.75249,7.001463 7.27917,7.957778 1.24571,2.261907 3.63498,18.218572 4.90549,32.761245 0.55258,6.325 1.41855,16.225 1.92438,22 0.57,6.507718 0.55723,14.8725 -0.0336,22 -0.97736,11.79043 -2.47541,140.51111 -2.02916,174.35691 0.29287,22.21343 0.50607,21.70936 -10.22167,24.16743 -6.24372,1.43065 -14.47073,1.60955 -65.14618,1.4167 C 99.899677,304.4935 86.353871,304.62787 73.329937,306.37108 66.636403,307.26698 57.527374,308 53.087652,308 c -7.853614,0 -8.146907,-0.0872 -10.829938,-3.21934 z M 57.683073,157.5701 c -5.729701,-1.54029 -12.277709,-7.44246 -13.610006,-12.26764 -1.187169,-4.29957 2.747813,-20.9223 6.180818,-26.10992 2.713719,-4.10071 10.184322,-8.64234 15.984853,-9.71775 3.701525,-0.68625 3.758743,-0.64648 5.748626,3.99573 3.483043,8.12561 4.010106,14.78567 1.853431,23.42024 -2.280475,9.13022 -8.663198,22.26223 -10.71324,22.04175 -0.345155,-0.0371 -2.795172,-0.65021 -5.444482,-1.36241 z m 131.429157,-2.50074 c -1.1751,-0.72625 1.50348,-37.11428 3.43812,-46.70632 0.46318,-2.29644 5.90802,-3.98711 9.33632,-2.89901 3.44488,1.09336 10.83583,14.23224 11.74748,20.88348 0.93971,6.85593 -3.86377,24.08223 -7.24247,25.97305 -2.38111,1.33253 -16.05216,3.50731 -17.27945,2.7488 z"
       id="path3758"
       inkscape:connector-curvature="0" />
    <path
       style="fill:#2f2207"
       d="m 35.731163,296.30939 c -5.37286,-5.83278 -9.556467,-10.81742 -9.296905,-11.07698 0.259562,-0.25956 4.880539,0.45564 10.268837,1.58934 18.943967,3.98583 27.75958,4.60341 71.296905,4.99472 23.375,0.2101 47.675,0.44984 54,0.53276 21.73226,0.28492 53.50964,-0.70531 61.5,-1.91641 4.4,-0.66692 11.36596,-2.16213 15.4799,-3.3227 4.11395,-1.16056 9.28895,-2.14633 11.5,-2.1906 9.22816,-0.18473 11.98048,-1.77821 18.32655,-10.61033 l 5.88527,-8.19082 1.33198,-11.30918 c 1.82446,-15.49067 1.93958,-22.17383 0.64262,-37.30919 -0.61268,-7.15 -1.1475,-31.675 -1.18849,-54.5 -0.0448,-24.93468 -0.52409,-44.69331 -1.20079,-49.5 -0.81656,-5.80009 -0.83722,-11.98733 -0.0751,-22.5 0.57815,-7.975 1.33173,-27.677693 1.67462,-43.783762 L 276.5,17.932477 l 5.69174,5.783761 5.69175,5.783762 1.62808,11 c 0.89545,6.05 2.04774,15.95 2.56065,22 0.51291,6.05 1.32271,15.5 1.79957,21 0.49961,5.762385 0.48639,14.661376 -0.0312,21 -0.75462,9.2416 -1.72643,85.05446 -2.22123,173.28337 -0.13097,23.35294 0.19352,22.16088 -6.61936,24.31726 -6.30158,1.99455 -71.12768,3.08383 -109.5,1.83995 -41.64916,-1.35011 -88.37295,-0.67266 -104,1.5079 -6.05,0.8442 -14.375,1.51939 -18.5,1.50043 l -7.5,-0.0345 -9.768837,-10.60505 z M 56.61989,156.76654 c -4.533591,-1.19968 -11.258712,-7.47931 -12.253148,-11.44146 -1.290365,-5.14122 3.322949,-22.61442 7.181385,-27.19991 C 54.575168,114.52774 63.323547,110 67.247371,110 c 3.321079,0 4.785918,2.69926 6.826634,12.57943 1.077581,5.21713 1.019117,7.05748 -0.41295,12.99907 -0.917539,3.80682 -3.331733,10.409 -5.364876,14.6715 -4.008112,8.40304 -4.181512,8.49981 -11.676289,6.51654 z m 132.86613,-13.93647 c 0.58935,-11.79921 3.21712,-34.50648 4.17532,-36.08007 0.25118,-0.4125 2.37885,-0.75 4.72816,-0.75 3.88243,0 4.54792,0.38708 7.30695,4.25 6.31272,8.83848 7.58686,12.48728 7.05151,20.19359 -0.26961,3.88102 -1.5607,10.20641 -2.86908,14.05641 -2.6734,7.86663 -3.7256,8.55584 -15.1938,9.95214 l -5.81493,0.708 z"
       id="path3756"
       inkscape:connector-curvature="0" />
  </g>
</svg>
